<?xml version="1.0" encoding="utf-8" standalone="no"?>
<!DOCTYPE svg PUBLIC "-//W3C//DTD SVG 1.1//EN"
  "http://www.w3.org/Graphics/SVG/1.1/DTD/svg11.dtd">
<svg xmlns:xlink="http://www.w3.org/1999/xlink" width="460.8pt" height="345.6pt" viewBox="0 0 460.8 345.6" xmlns="http://www.w3.org/2000/svg" version="1.1">
 <metadata>
  <rdf:RDF xmlns:dc="http://purl.org/dc/elements/1.1/" xmlns:cc="http://creativecommons.org/ns#" xmlns:rdf="http://www.w3.org/1999/02/22-rdf-syntax-ns#">
   <cc:Work>
    <dc:type rdf:resource="http://purl.org/dc/dcmitype/StillImage"/>
    <dc:format>image/svg+xml</dc:format>
   </cc:Work>
  </rdf:RDF>
 </metadata>
 <defs>
  <style type="text/css">*{stroke-linejoin: round; stroke-linecap: butt}</style>
 </defs>
 <g id="figure_1">
  <g id="patch_1">
   <path d="M 0 345.6 
L 460.8 345.6 
L 460.8 0 
L 0 0 
z
" style="fill: #ffffff"/>
  </g>
  <g id="axes_1">
   <g id="patch_2">
    <path d="M 57.6 307.584 
L 414.72 307.584 
L 414.72 41.472 
L 57.6 41.472 
z
" style="fill: #ffffff"/>
   </g>
   <g id="patch_3">
    <path d="M 55.616 307.584 
L 59.584 307.584 
L 59.584 297.943527 
L 55.616 297.943527 
z
" clip-path="url(#p2c04b269ca)" style="fill: #1f77b4"/>
   </g>
   <g id="patch_4">
    <path d="M 60.576 307.584 
L 64.544 307.584 
L 64.544 293.469718 
L 60.576 293.469718 
z
" clip-path="url(#p2c04b269ca)" style="fill: #1f77b4"/>
   </g>
   <g id="patch_5">
    <path d="M 65.536 307.584 
L 69.504 307.584 
L 69.504 287.640854 
L 65.536 287.640854 
z
" clip-path="url(#p2c04b269ca)" style="fill: #1f77b4"/>
   </g>
   <g id="patch_6">
    <path d="M 70.496 307.584 
L 74.464 307.584 
L 74.464 280.297099 
L 70.496 280.297099 
z
" clip-path="url(#p2c04b269ca)" style="fill: #1f77b4"/>
   </g>
   <g id="patch_7">
    <path d="M 75.456 307.584 
L 79.424 307.584 
L 79.424 271.327356 
L 75.456 271.327356 
z
" clip-path="url(#p2c04b269ca)" style="fill: #1f77b4"/>
   </g>
   <g id="patch_8">
    <path d="M 80.416 307.584 
L 84.384 307.584 
L 84.384 260.683834 
L 80.416 260.683834 
z
" clip-path="url(#p2c04b269ca)" style="fill: #1f77b4"/>
   </g>
   <g id="patch_9">
    <path d="M 85.376 307.584 
L 89.344 307.584 
L 89.344 248.392738 
L 85.376 248.392738 
z
" clip-path="url(#p2c04b269ca)" style="fill: #1f77b4"/>
   </g>
   <g id="patch_10">
    <path d="M 90.336 307.584 
L 94.304 307.584 
L 94.304 234.559997 
L 90.336 234.559997 
z
" clip-path="url(#p2c04b269ca)" style="fill: #1f77b4"/>
   </g>
   <g id="patch_11">
    <path d="M 95.296 307.584 
L 99.264 307.584 
L 99.264 219.371437 
L 95.296 219.371437 
z
" clip-path="url(#p2c04b269ca)" style="fill: #1f77b4"/>
   </g>
   <g id="patch_12">
    <path d="M 100.256 307.584 
L 104.224 307.584 
L 104.224 203.087385 
L 100.256 203.087385 
z
" clip-path="url(#p2c04b269ca)" style="fill: #1f77b4"/>
   </g>
   <g id="patch_13">
    <path d="M 105.216 307.584 
L 109.184 307.584 
L 109.184 186.032201 
L 105.216 186.032201 
z
" clip-path="url(#p2c04b269ca)" style="fill: #1f77b4"/>
   </g>
   <g id="patch_14">
    <path d="M 110.176 307.584 
L 114.144 307.584 
L 114.144 168.579662 
L 110.176 168.579662 
z
" clip-path="url(#p2c04b269ca)" style="fill: #1f77b4"/>
   </g>
   <g id="patch_15">
    <path d="M 115.136 307.584 
L 119.104 307.584 
L 119.104 151.135413 
L 115.136 151.135413 
z
" clip-path="url(#p2c04b269ca)" style="fill: #1f77b4"/>
   </g>
   <g id="patch_16">
    <path d="M 120.096 307.584 
L 124.064 307.584 
L 124.064 134.117869 
L 120.096 134.117869 
z
" clip-path="url(#p2c04b269ca)" style="fill: #1f77b4"/>
   </g>
   <g id="patch_17">
    <path d="M 125.056 307.584 
L 129.024 307.584 
L 129.024 117.938952 
L 125.056 117.938952 
z
" clip-path="url(#p2c04b269ca)" style="fill: #1f77b4"/>
   </g>
   <g id="patch_18">
    <path d="M 130.016 307.584 
L 133.984 307.584 
L 133.984 102.985951 
L 130.016 102.985951 
z
" clip-path="url(#p2c04b269ca)" style="fill: #1f77b4"/>
   </g>
   <g id="patch_19">
    <path d="M 134.976 307.584 
L 138.944 307.584 
L 138.944 89.60558 
L 134.976 89.60558 
z
" clip-path="url(#p2c04b269ca)" style="fill: #1f77b4"/>
   </g>
   <g id="patch_20">
    <path d="M 139.936 307.584 
L 143.904 307.584 
L 143.904 78.091029 
L 139.936 78.091029 
z
" clip-path="url(#p2c04b269ca)" style="fill: #1f77b4"/>
   </g>
   <g id="patch_21">
    <path d="M 144.896 307.584 
L 148.864 307.584 
L 148.864 68.672554 
L 144.896 68.672554 
z
" clip-path="url(#p2c04b269ca)" style="fill: #1f77b4"/>
   </g>
   <g id="patch_22">
    <path d="M 149.856 307.584 
L 153.824 307.584 
L 153.824 61.511784 
L 149.856 61.511784 
z
" clip-path="url(#p2c04b269ca)" style="fill: #1f77b4"/>
   </g>
   <g id="patch_23">
    <path d="M 154.816 307.584 
L 158.784 307.584 
L 158.784 56.699726 
L 154.816 56.699726 
z
" clip-path="url(#p2c04b269ca)" style="fill: #1f77b4"/>
   </g>
   <g id="patch_24">
    <path d="M 159.776 307.584 
L 163.744 307.584 
L 163.744 54.258162 
L 159.776 54.258162 
z
" clip-path="url(#p2c04b269ca)" style="fill: #1f77b4"/>
   </g>
   <g id="patch_25">
    <path d="M 164.736 307.584 
L 168.704 307.584 
L 168.704 54.144 
L 164.736 54.144 
z
" clip-path="url(#p2c04b269ca)" style="fill: #1f77b4"/>
   </g>
   <g id="patch_26">
    <path d="M 169.696 307.584 
L 173.664 307.584 
L 173.664 56.256 
L 169.696 56.256 
z
" clip-path="url(#p2c04b269ca)" style="fill: #1f77b4"/>
   </g>
   <g id="patch_27">
    <path d="M 174.656 307.584 
L 178.624 307.584 
L 178.624 60.443249 
L 174.656 60.443249 
z
" clip-path="url(#p2c04b269ca)" style="fill: #1f77b4"/>
   </g>
   <g id="patch_28">
    <path d="M 179.616 307.584 
L 183.584 307.584 
L 183.584 66.514745 
L 179.616 66.514745 
z
" clip-path="url(#p2c04b269ca)" style="fill: #1f77b4"/>
   </g>
   <g id="patch_29">
    <path d="M 184.576 307.584 
L 188.544 307.584 
L 188.544 74.249483 
L 184.576 74.249483 
z
" clip-path="url(#p2c04b269ca)" style="fill: #1f77b4"/>
   </g>
   <g id="patch_30">
    <path d="M 189.536 307.584 
L 193.504 307.584 
L 193.504 83.406506 
L 189.536 83.406506 
z
" clip-path="url(#p2c04b269ca)" style="fill: #1f77b4"/>
   </g>
   <g id="patch_31">
    <path d="M 194.496 307.584 
L 198.464 307.584 
L 198.464 93.734466 
L 194.496 93.734466 
z
" clip-path="url(#p2c04b269ca)" style="fill: #1f77b4"/>
   </g>
   <g id="patch_32">
    <path d="M 199.456 307.584 
L 203.424 307.584 
L 203.424 104.980337 
L 199.456 104.980337 
z
" clip-path="url(#p2c04b269ca)" style="fill: #1f77b4"/>
   </g>
   <g id="patch_33">
    <path d="M 204.416 307.584 
L 208.384 307.584 
L 208.384 116.897024 
L 204.416 116.897024 
z
" clip-path="url(#p2c04b269ca)" style="fill: #1f77b4"/>
   </g>
   <g id="patch_34">
    <path d="M 209.376 307.584 
L 213.344 307.584 
L 213.344 129.249719 
L 209.376 129.249719 
z
" clip-path="url(#p2c04b269ca)" style="fill: #1f77b4"/>
   </g>
   <g id="patch_35">
    <path d="M 214.336 307.584 
L 218.304 307.584 
L 218.304 141.820928 
L 214.336 141.820928 
z
" clip-path="url(#p2c04b269ca)" style="fill: #1f77b4"/>
   </g>
   <g id="patch_36">
    <path d="M 219.296 307.584 
L 223.264 307.584 
L 223.264 154.414168 
L 219.296 154.414168 
z
" clip-path="url(#p2c04b269ca)" style="fill: #1f77b4"/>
   </g>
   <g id="patch_37">
    <path d="M 224.256 307.584 
L 228.224 307.584 
L 228.224 166.856419 
L 224.256 166.856419 
z
" clip-path="url(#p2c04b269ca)" style="fill: #1f77b4"/>
   </g>
   <g id="patch_38">
    <path d="M 229.216 307.584 
L 233.184 307.584 
L 233.184 178.999423 
L 229.216 178.999423 
z
" clip-path="url(#p2c04b269ca)" style="fill: #1f77b4"/>
   </g>
   <g id="patch_39">
    <path d="M 234.176 307.584 
L 238.144 307.584 
L 238.144 190.719992 
L 234.176 190.719992 
z
" clip-path="url(#p2c04b269ca)" style="fill: #1f77b4"/>
   </g>
   <g id="patch_40">
    <path d="M 239.136 307.584 
L 243.104 307.584 
L 243.104 201.919459 
L 239.136 201.919459 
z
" clip-path="url(#p2c04b269ca)" style="fill: #1f77b4"/>
   </g>
   <g id="patch_41">
    <path d="M 244.096 307.584 
L 248.064 307.584 
L 248.064 212.522475 
L 244.096 212.522475 
z
" clip-path="url(#p2c04b269ca)" style="fill: #1f77b4"/>
   </g>
   <g id="patch_42">
    <path d="M 249.056 307.584 
L 253.024 307.584 
L 253.024 222.475281 
L 249.056 222.475281 
z
" clip-path="url(#p2c04b269ca)" style="fill: #1f77b4"/>
   </g>
   <g id="patch_43">
    <path d="M 254.016 307.584 
L 257.984 307.584 
L 257.984 231.743627 
L 254.016 231.743627 
z
" clip-path="url(#p2c04b269ca)" style="fill: #1f77b4"/>
   </g>
   <g id="patch_44">
    <path d="M 258.976 307.584 
L 262.944 307.584 
L 262.944 240.310479 
L 258.976 240.310479 
z
" clip-path="url(#p2c04b269ca)" style="fill: #1f77b4"/>
   </g>
   <g id="patch_45">
    <path d="M 263.936 307.584 
L 267.904 307.584 
L 267.904 248.173618 
L 263.936 248.173618 
z
" clip-path="url(#p2c04b269ca)" style="fill: #1f77b4"/>
   </g>
   <g id="patch_46">
    <path d="M 268.896 307.584 
L 272.864 307.584 
L 272.864 255.343246 
L 268.896 255.343246 
z
" clip-path="url(#p2c04b269ca)" style="fill: #1f77b4"/>
   </g>
   <g id="patch_47">
    <path d="M 273.856 307.584 
L 277.824 307.584 
L 277.824 261.839674 
L 273.856 261.839674 
z
" clip-path="url(#p2c04b269ca)" style="fill: #1f77b4"/>
   </g>
   <g id="patch_48">
    <path d="M 278.816 307.584 
L 282.784 307.584 
L 282.784 267.691147 
L 278.816 267.691147 
z
" clip-path="url(#p2c04b269ca)" style="fill: #1f77b4"/>
   </g>
   <g id="patch_49">
    <path d="M 283.776 307.584 
L 287.744 307.584 
L 287.744 272.931857 
L 283.776 272.931857 
z
" clip-path="url(#p2c04b269ca)" style="fill: #1f77b4"/>
   </g>
   <g id="patch_50">
    <path d="M 288.736 307.584 
L 292.704 307.584 
L 292.704 277.600167 
L 288.736 277.600167 
z
" clip-path="url(#p2c04b269ca)" style="fill: #1f77b4"/>
   </g>
   <g id="patch_51">
    <path d="M 293.696 307.584 
L 297.664 307.584 
L 297.664 281.737059 
L 293.696 281.737059 
z
" clip-path="url(#p2c04b269ca)" style="fill: #1f77b4"/>
   </g>
   <g id="patch_52">
    <path d="M 298.656 307.584 
L 302.624 307.584 
L 302.624 285.384813 
L 298.656 285.384813 
z
" clip-path="url(#p2c04b269ca)" style="fill: #1f77b4"/>
   </g>
   <g id="patch_53">
    <path d="M 303.616 307.584 
L 307.584 307.584 
L 307.584 288.585903 
L 303.616 288.585903 
z
" clip-path="url(#p2c04b269ca)" style="fill: #1f77b4"/>
   </g>
   <g id="patch_54">
    <path d="M 308.576 307.584 
L 312.544 307.584 
L 312.544 291.382108 
L 308.576 291.382108 
z
" clip-path="url(#p2c04b269ca)" style="fill: #1f77b4"/>
   </g>
   <g id="patch_55">
    <path d="M 313.536 307.584 
L 317.504 307.584 
L 317.504 293.813813 
L 313.536 293.813813 
z
" clip-path="url(#p2c04b269ca)" style="fill: #1f77b4"/>
   </g>
   <g id="patch_56">
    <path d="M 318.496 307.584 
L 322.464 307.584 
L 322.464 295.919481 
L 318.496 295.919481 
z
" clip-path="url(#p2c04b269ca)" style="fill: #1f77b4"/>
   </g>
   <g id="patch_57">
    <path d="M 323.456 307.584 
L 327.424 307.584 
L 327.424 297.735284 
L 323.456 297.735284 
z
" clip-path="url(#p2c04b269ca)" style="fill: #1f77b4"/>
   </g>
   <g id="patch_58">
    <path d="M 328.416 307.584 
L 332.384 307.584 
L 332.384 299.294853 
L 328.416 299.294853 
z
" clip-path="url(#p2c04b269ca)" style="fill: #1f77b4"/>
   </g>
   <g id="patch_59">
    <path d="M 333.376 307.584 
L 337.344 307.584 
L 337.344 300.62915 
L 333.376 300.62915 
z
" clip-path="url(#p2c04b269ca)" style="fill: #1f77b4"/>
   </g>
   <g id="patch_60">
    <path d="M 338.336 307.584 
L 342.304 307.584 
L 342.304 301.766418 
L 338.336 301.766418 
z
" clip-path="url(#p2c04b269ca)" style="fill: #1f77b4"/>
   </g>
   <g id="patch_61">
    <path d="M 343.296 307.584 
L 347.264 307.584 
L 347.264 302.732209 
L 343.296 302.732209 
z
" clip-path="url(#p2c04b269ca)" style="fill: #1f77b4"/>
   </g>
   <g id="patch_62">
    <path d="M 348.256 307.584 
L 352.224 307.584 
L 352.224 303.549467 
L 348.256 303.549467 
z
" clip-path="url(#p2c04b269ca)" style="fill: #1f77b4"/>
   </g>
   <g id="patch_63">
    <path d="M 353.216 307.584 
L 357.184 307.584 
L 357.184 304.238647 
L 353.216 304.238647 
z
" clip-path="url(#p2c04b269ca)" style="fill: #1f77b4"/>
   </g>
   <g id="patch_64">
    <path d="M 358.176 307.584 
L 362.144 307.584 
L 362.144 304.817868 
L 358.176 304.817868 
z
" clip-path="url(#p2c04b269ca)" style="fill: #1f77b4"/>
   </g>
   <g id="patch_65">
    <path d="M 363.136 307.584 
L 367.104 307.584 
L 367.104 305.303079 
L 363.136 305.303079 
z
" clip-path="url(#p2c04b269ca)" style="fill: #1f77b4"/>
   </g>
   <g id="patch_66">
    <path d="M 368.096 307.584 
L 372.064 307.584 
L 372.064 305.708243 
L 368.096 305.708243 
z
" clip-path="url(#p2c04b269ca)" style="fill: #1f77b4"/>
   </g>
   <g id="patch_67">
    <path d="M 373.056 307.584 
L 377.024 307.584 
L 377.024 306.045511 
L 373.056 306.045511 
z
" clip-path="url(#p2c04b269ca)" style="fill: #1f77b4"/>
   </g>
   <g id="patch_68">
    <path d="M 378.016 307.584 
L 381.984 307.584 
L 381.984 306.325408 
L 378.016 306.325408 
z
" clip-path="url(#p2c04b269ca)" style="fill: #1f77b4"/>
   </g>
   <g id="patch_69">
    <path d="M 382.976 307.584 
L 386.944 307.584 
L 386.944 306.557004 
L 382.976 306.557004 
z
" clip-path="url(#p2c04b269ca)" style="fill: #1f77b4"/>
   </g>
   <g id="patch_70">
    <path d="M 387.936 307.584 
L 391.904 307.584 
L 391.904 306.748078 
L 387.936 306.748078 
z
" clip-path="url(#p2c04b269ca)" style="fill: #1f77b4"/>
   </g>
   <g id="patch_71">
    <path d="M 392.896 307.584 
L 396.864 307.584 
L 396.864 306.905273 
L 392.896 306.905273 
z
" clip-path="url(#p2c04b269ca)" style="fill: #1f77b4"/>
   </g>
   <g id="patch_72">
    <path d="M 397.856 307.584 
L 401.824 307.584 
L 401.824 307.034237 
L 397.856 307.034237 
z
" clip-path="url(#p2c04b269ca)" style="fill: #1f77b4"/>
   </g>
   <g id="patch_73">
    <path d="M 402.816 307.584 
L 406.784 307.584 
L 406.784 307.139754 
L 402.816 307.139754 
z
" clip-path="url(#p2c04b269ca)" style="fill: #1f77b4"/>
   </g>
   <g id="patch_74">
    <path d="M 407.776 307.584 
L 411.744 307.584 
L 411.744 307.225855 
L 407.776 307.225855 
z
" clip-path="url(#p2c04b269ca)" style="fill: #1f77b4"/>
   </g>
   <g id="matplotlib.axis_1">
    <g id="xtick_1">
     <g id="line2d_1">
      <defs>
       <path id="mca98a56cae" d="M 0 0 
L 0 3.5 
" style="stroke: #000000; stroke-width: 0.8"/>
      </defs>
      <g>
       <use xlink:href="#mca98a56cae" x="67.52" y="307.584" style="stroke: #000000; stroke-width: 0.8"/>
      </g>
     </g>
     <g id="text_1">
      <!-- 3% -->
      <g transform="translate(59.587969 322.182437) scale(0.1 -0.1)">
       <defs>
        <path id="DejaVuSans-33" d="M 2597 2516 
Q 3050 2419 3304 2112 
Q 3559 1806 3559 1356 
Q 3559 666 3084 287 
Q 2609 -91 1734 -91 
Q 1441 -91 1130 -33 
Q 819 25 488 141 
L 488 750 
Q 750 597 1062 519 
Q 1375 441 1716 441 
Q 2309 441 2620 675 
Q 2931 909 2931 1356 
Q 2931 1769 2642 2001 
Q 2353 2234 1838 2234 
L 1294 2234 
L 1294 2753 
L 1863 2753 
Q 2328 2753 2575 2939 
Q 2822 3125 2822 3475 
Q 2822 3834 2567 4026 
Q 2313 4219 1838 4219 
Q 1578 4219 1281 4162 
Q 984 4106 628 3988 
L 628 4550 
Q 988 4650 1302 4700 
Q 1616 4750 1894 4750 
Q 2613 4750 3031 4423 
Q 3450 4097 3450 3541 
Q 3450 3153 3228 2886 
Q 3006 2619 2597 2516 
z
" transform="scale(0.015625)"/>
        <path id="DejaVuSans-25" d="M 4653 2053 
Q 4381 2053 4226 1822 
Q 4072 1591 4072 1178 
Q 4072 772 4226 539 
Q 4381 306 4653 306 
Q 4919 306 5073 539 
Q 5228 772 5228 1178 
Q 5228 1588 5073 1820 
Q 4919 2053 4653 2053 
z
M 4653 2450 
Q 5147 2450 5437 2106 
Q 5728 1763 5728 1178 
Q 5728 594 5436 251 
Q 5144 -91 4653 -91 
Q 4153 -91 3862 251 
Q 3572 594 3572 1178 
Q 3572 1766 3864 2108 
Q 4156 2450 4653 2450 
z
M 1428 4353 
Q 1159 4353 1004 4120 
Q 850 3888 850 3481 
Q 850 3069 1003 2837 
Q 1156 2606 1428 2606 
Q 1700 2606 1854 2837 
Q 2009 3069 2009 3481 
Q 2009 3884 1853 4118 
Q 1697 4353 1428 4353 
z
M 4250 4750 
L 4750 4750 
L 1831 -91 
L 1331 -91 
L 4250 4750 
z
M 1428 4750 
Q 1922 4750 2215 4408 
Q 2509 4066 2509 3481 
Q 2509 2891 2217 2550 
Q 1925 2209 1428 2209 
Q 931 2209 642 2551 
Q 353 2894 353 3481 
Q 353 4063 643 4406 
Q 934 4750 1428 4750 
z
" transform="scale(0.015625)"/>
       </defs>
       <use xlink:href="#DejaVuSans-33"/>
       <use xlink:href="#DejaVuSans-25" x="63.623047"/>
      </g>
     </g>
    </g>
    <g id="xtick_2">
     <g id="line2d_2">
      <g>
       <use xlink:href="#mca98a56cae" x="117.12" y="307.584" style="stroke: #000000; stroke-width: 0.8"/>
      </g>
     </g>
     <g id="text_2">
      <!-- 4% -->
      <g transform="translate(109.187969 322.182437) scale(0.1 -0.1)">
       <defs>
        <path id="DejaVuSans-34" d="M 2419 4116 
L 825 1625 
L 2419 1625 
L 2419 4116 
z
M 2253 4666 
L 3047 4666 
L 3047 1625 
L 3713 1625 
L 3713 1100 
L 3047 1100 
L 3047 0 
L 2419 0 
L 2419 1100 
L 313 1100 
L 313 1709 
L 2253 4666 
z
" transform="scale(0.015625)"/>
       </defs>
       <use xlink:href="#DejaVuSans-34"/>
       <use xlink:href="#DejaVuSans-25" x="63.623047"/>
      </g>
     </g>
    </g>
    <g id="xtick_3">
     <g id="line2d_3">
      <g>
       <use xlink:href="#mca98a56cae" x="166.72" y="307.584" style="stroke: #000000; stroke-width: 0.8"/>
      </g>
     </g>
     <g id="text_3">
      <!-- 5% -->
      <g transform="translate(158.787969 322.182437) scale(0.1 -0.1)">
       <defs>
        <path id="DejaVuSans-35" d="M 691 4666 
L 3169 4666 
L 3169 4134 
L 1269 4134 
L 1269 2991 
Q 1406 3038 1543 3061 
Q 1681 3084 1819 3084 
Q 2600 3084 3056 2656 
Q 3513 2228 3513 1497 
Q 3513 744 3044 326 
Q 2575 -91 1722 -91 
Q 1428 -91 1123 -41 
Q 819 9 494 109 
L 494 744 
Q 775 591 1075 516 
Q 1375 441 1709 441 
Q 2250 441 2565 725 
Q 2881 1009 2881 1497 
Q 2881 1984 2565 2268 
Q 2250 2553 1709 2553 
Q 1456 2553 1204 2497 
Q 953 2441 691 2322 
L 691 4666 
z
" transform="scale(0.015625)"/>
       </defs>
       <use xlink:href="#DejaVuSans-35"/>
       <use xlink:href="#DejaVuSans-25" x="63.623047"/>
      </g>
     </g>
    </g>
    <g id="xtick_4">
     <g id="line2d_4">
      <g>
       <use xlink:href="#mca98a56cae" x="216.32" y="307.584" style="stroke: #000000; stroke-width: 0.8"/>
      </g>
     </g>
     <g id="text_4">
      <!-- 6% -->
      <g transform="translate(208.387969 322.182437) scale(0.1 -0.1)">
       <defs>
        <path id="DejaVuSans-36" d="M 2113 2584 
Q 1688 2584 1439 2293 
Q 1191 2003 1191 1497 
Q 1191 994 1439 701 
Q 1688 409 2113 409 
Q 2538 409 2786 701 
Q 3034 994 3034 1497 
Q 3034 2003 2786 2293 
Q 2538 2584 2113 2584 
z
M 3366 4563 
L 3366 3988 
Q 3128 4100 2886 4159 
Q 2644 4219 2406 4219 
Q 1781 4219 1451 3797 
Q 1122 3375 1075 2522 
Q 1259 2794 1537 2939 
Q 1816 3084 2150 3084 
Q 2853 3084 3261 2657 
Q 3669 2231 3669 1497 
Q 3669 778 3244 343 
Q 2819 -91 2113 -91 
Q 1303 -91 875 529 
Q 447 1150 447 2328 
Q 447 3434 972 4092 
Q 1497 4750 2381 4750 
Q 2619 4750 2861 4703 
Q 3103 4656 3366 4563 
z
" transform="scale(0.015625)"/>
       </defs>
       <use xlink:href="#DejaVuSans-36"/>
       <use xlink:href="#DejaVuSans-25" x="63.623047"/>
      </g>
     </g>
    </g>
    <g id="xtick_5">
     <g id="line2d_5">
      <g>
       <use xlink:href="#mca98a56cae" x="265.92" y="307.584" style="stroke: #000000; stroke-width: 0.8"/>
      </g>
     </g>
     <g id="text_5">
      <!-- 7% -->
      <g transform="translate(257.987969 322.182437) scale(0.1 -0.1)">
       <defs>
        <path id="DejaVuSans-37" d="M 525 4666 
L 3525 4666 
L 3525 4397 
L 1831 0 
L 1172 0 
L 2766 4134 
L 525 4134 
L 525 4666 
z
" transform="scale(0.015625)"/>
       </defs>
       <use xlink:href="#DejaVuSans-37"/>
       <use xlink:href="#DejaVuSans-25" x="63.623047"/>
      </g>
     </g>
    </g>
    <g id="xtick_6">
     <g id="line2d_6">
      <g>
       <use xlink:href="#mca98a56cae" x="315.52" y="307.584" style="stroke: #000000; stroke-width: 0.8"/>
      </g>
     </g>
     <g id="text_6">
      <!-- 8% -->
      <g transform="translate(307.587969 322.182437) scale(0.1 -0.1)">
       <defs>
        <path id="DejaVuSans-38" d="M 2034 2216 
Q 1584 2216 1326 1975 
Q 1069 1734 1069 1313 
Q 1069 891 1326 650 
Q 1584 409 2034 409 
Q 2484 409 2743 651 
Q 3003 894 3003 1313 
Q 3003 1734 2745 1975 
Q 2488 2216 2034 2216 
z
M 1403 2484 
Q 997 2584 770 2862 
Q 544 3141 544 3541 
Q 544 4100 942 4425 
Q 1341 4750 2034 4750 
Q 2731 4750 3128 4425 
Q 3525 4100 3525 3541 
Q 3525 3141 3298 2862 
Q 3072 2584 2669 2484 
Q 3125 2378 3379 2068 
Q 3634 1759 3634 1313 
Q 3634 634 3220 271 
Q 2806 -91 2034 -91 
Q 1263 -91 848 271 
Q 434 634 434 1313 
Q 434 1759 690 2068 
Q 947 2378 1403 2484 
z
M 1172 3481 
Q 1172 3119 1398 2916 
Q 1625 2713 2034 2713 
Q 2441 2713 2670 2916 
Q 2900 3119 2900 3481 
Q 2900 3844 2670 4047 
Q 2441 4250 2034 4250 
Q 1625 4250 1398 4047 
Q 1172 3844 1172 3481 
z
" transform="scale(0.015625)"/>
       </defs>
       <use xlink:href="#DejaVuSans-38"/>
       <use xlink:href="#DejaVuSans-25" x="63.623047"/>
      </g>
     </g>
    </g>
    <g id="xtick_7">
     <g id="line2d_7">
      <g>
       <use xlink:href="#mca98a56cae" x="365.12" y="307.584" style="stroke: #000000; stroke-width: 0.8"/>
      </g>
     </g>
     <g id="text_7">
      <!-- 9% -->
      <g transform="translate(357.187969 322.182437) scale(0.1 -0.1)">
       <defs>
        <path id="DejaVuSans-39" d="M 703 97 
L 703 672 
Q 941 559 1184 500 
Q 1428 441 1663 441 
Q 2288 441 2617 861 
Q 2947 1281 2994 2138 
Q 2813 1869 2534 1725 
Q 2256 1581 1919 1581 
Q 1219 1581 811 2004 
Q 403 2428 403 3163 
Q 403 3881 828 4315 
Q 1253 4750 1959 4750 
Q 2769 4750 3195 4129 
Q 3622 3509 3622 2328 
Q 3622 1225 3098 567 
Q 2575 -91 1691 -91 
Q 1453 -91 1209 -44 
Q 966 3 703 97 
z
M 1959 2075 
Q 2384 2075 2632 2365 
Q 2881 2656 2881 3163 
Q 2881 3666 2632 3958 
Q 2384 4250 1959 4250 
Q 1534 4250 1286 3958 
Q 1038 3666 1038 3163 
Q 1038 2656 1286 2365 
Q 1534 2075 1959 2075 
z
" transform="scale(0.015625)"/>
       </defs>
       <use xlink:href="#DejaVuSans-39"/>
       <use xlink:href="#DejaVuSans-25" x="63.623047"/>
      </g>
     </g>
    </g>
    <g id="xtick_8">
     <g id="line2d_8">
      <g>
       <use xlink:href="#mca98a56cae" x="414.72" y="307.584" style="stroke: #000000; stroke-width: 0.8"/>
      </g>
     </g>
     <g id="text_8">
      <!-- 10% -->
      <g transform="translate(403.606719 322.182437) scale(0.1 -0.1)">
       <defs>
        <path id="DejaVuSans-31" d="M 794 531 
L 1825 531 
L 1825 4091 
L 703 3866 
L 703 4441 
L 1819 4666 
L 2450 4666 
L 2450 531 
L 3481 531 
L 3481 0 
L 794 0 
L 794 531 
z
" transform="scale(0.015625)"/>
        <path id="DejaVuSans-30" d="M 2034 4250 
Q 1547 4250 1301 3770 
Q 1056 3291 1056 2328 
Q 1056 1369 1301 889 
Q 1547 409 2034 409 
Q 2525 409 2770 889 
Q 3016 1369 3016 2328 
Q 3016 3291 2770 3770 
Q 2525 4250 2034 4250 
z
M 2034 4750 
Q 2819 4750 3233 4129 
Q 3647 3509 3647 2328 
Q 3647 1150 3233 529 
Q 2819 -91 2034 -91 
Q 1250 -91 836 529 
Q 422 1150 422 2328 
Q 422 3509 836 4129 
Q 1250 4750 2034 4750 
z
" transform="scale(0.015625)"/>
       </defs>
       <use xlink:href="#DejaVuSans-31"/>
       <use xlink:href="#DejaVuSans-30" x="63.623047"/>
       <use xlink:href="#DejaVuSans-25" x="127.246094"/>
      </g>
     </g>
    </g>
   </g>
   <g id="matplotlib.axis_2">
    <g id="ytick_1">
     <g id="line2d_9">
      <defs>
       <path id="mc01c4e3a24" d="M 0 0 
L -3.5 0 
" style="stroke: #000000; stroke-width: 0.8"/>
      </defs>
      <g>
       <use xlink:href="#mc01c4e3a24" x="57.6" y="307.584" style="stroke: #000000; stroke-width: 0.8"/>
      </g>
     </g>
     <g id="text_9">
      <!-- 0.000 -->
      <g transform="translate(21.971875 311.383219) scale(0.1 -0.1)">
       <defs>
        <path id="DejaVuSans-2e" d="M 684 794 
L 1344 794 
L 1344 0 
L 684 0 
L 684 794 
z
" transform="scale(0.015625)"/>
       </defs>
       <use xlink:href="#DejaVuSans-30"/>
       <use xlink:href="#DejaVuSans-2e" x="63.623047"/>
       <use xlink:href="#DejaVuSans-30" x="95.410156"/>
       <use xlink:href="#DejaVuSans-30" x="159.033203"/>
       <use xlink:href="#DejaVuSans-30" x="222.65625"/>
      </g>
     </g>
    </g>
    <g id="ytick_2">
     <g id="line2d_10">
      <g>
       <use xlink:href="#mc01c4e3a24" x="57.6" y="274.011098" style="stroke: #000000; stroke-width: 0.8"/>
      </g>
     </g>
     <g id="text_10">
      <!-- 0.005 -->
      <g transform="translate(21.971875 277.810317) scale(0.1 -0.1)">
       <use xlink:href="#DejaVuSans-30"/>
       <use xlink:href="#DejaVuSans-2e" x="63.623047"/>
       <use xlink:href="#DejaVuSans-30" x="95.410156"/>
       <use xlink:href="#DejaVuSans-30" x="159.033203"/>
       <use xlink:href="#DejaVuSans-35" x="222.65625"/>
      </g>
     </g>
    </g>
    <g id="ytick_3">
     <g id="line2d_11">
      <g>
       <use xlink:href="#mc01c4e3a24" x="57.6" y="240.438196" style="stroke: #000000; stroke-width: 0.8"/>
      </g>
     </g>
     <g id="text_11">
      <!-- 0.010 -->
      <g transform="translate(21.971875 244.237415) scale(0.1 -0.1)">
       <use xlink:href="#DejaVuSans-30"/>
       <use xlink:href="#DejaVuSans-2e" x="63.623047"/>
       <use xlink:href="#DejaVuSans-30" x="95.410156"/>
       <use xlink:href="#DejaVuSans-31" x="159.033203"/>
       <use xlink:href="#DejaVuSans-30" x="222.65625"/>
      </g>
     </g>
    </g>
    <g id="ytick_4">
     <g id="line2d_12">
      <g>
       <use xlink:href="#mc01c4e3a24" x="57.6" y="206.865295" style="stroke: #000000; stroke-width: 0.8"/>
      </g>
     </g>
     <g id="text_12">
      <!-- 0.015 -->
      <g transform="translate(21.971875 210.664513) scale(0.1 -0.1)">
       <use xlink:href="#DejaVuSans-30"/>
       <use xlink:href="#DejaVuSans-2e" x="63.623047"/>
       <use xlink:href="#DejaVuSans-30" x="95.410156"/>
       <use xlink:href="#DejaVuSans-31" x="159.033203"/>
       <use xlink:href="#DejaVuSans-35" x="222.65625"/>
      </g>
     </g>
    </g>
    <g id="ytick_5">
     <g id="line2d_13">
      <g>
       <use xlink:href="#mc01c4e3a24" x="57.6" y="173.292393" style="stroke: #000000; stroke-width: 0.8"/>
      </g>
     </g>
     <g id="text_13">
      <!-- 0.020 -->
      <g transform="translate(21.971875 177.091612) scale(0.1 -0.1)">
       <defs>
        <path id="DejaVuSans-32" d="M 1228 531 
L 3431 531 
L 3431 0 
L 469 0 
L 469 531 
Q 828 903 1448 1529 
Q 2069 2156 2228 2338 
Q 2531 2678 2651 2914 
Q 2772 3150 2772 3378 
Q 2772 3750 2511 3984 
Q 2250 4219 1831 4219 
Q 1534 4219 1204 4116 
Q 875 4013 500 3803 
L 500 4441 
Q 881 4594 1212 4672 
Q 1544 4750 1819 4750 
Q 2544 4750 2975 4387 
Q 3406 4025 3406 3419 
Q 3406 3131 3298 2873 
Q 3191 2616 2906 2266 
Q 2828 2175 2409 1742 
Q 1991 1309 1228 531 
z
" transform="scale(0.015625)"/>
       </defs>
       <use xlink:href="#DejaVuSans-30"/>
       <use xlink:href="#DejaVuSans-2e" x="63.623047"/>
       <use xlink:href="#DejaVuSans-30" x="95.410156"/>
       <use xlink:href="#DejaVuSans-32" x="159.033203"/>
       <use xlink:href="#DejaVuSans-30" x="222.65625"/>
      </g>
     </g>
    </g>
    <g id="ytick_6">
     <g id="line2d_14">
      <g>
       <use xlink:href="#mc01c4e3a24" x="57.6" y="139.719491" style="stroke: #000000; stroke-width: 0.8"/>
      </g>
     </g>
     <g id="text_14">
      <!-- 0.025 -->
      <g transform="translate(21.971875 143.51871) scale(0.1 -0.1)">
       <use xlink:href="#DejaVuSans-30"/>
       <use xlink:href="#DejaVuSans-2e" x="63.623047"/>
       <use xlink:href="#DejaVuSans-30" x="95.410156"/>
       <use xlink:href="#DejaVuSans-32" x="159.033203"/>
       <use xlink:href="#DejaVuSans-35" x="222.65625"/>
      </g>
     </g>
    </g>
    <g id="ytick_7">
     <g id="line2d_15">
      <g>
       <use xlink:href="#mc01c4e3a24" x="57.6" y="106.146589" style="stroke: #000000; stroke-width: 0.8"/>
      </g>
     </g>
     <g id="text_15">
      <!-- 0.030 -->
      <g transform="translate(21.971875 109.945808) scale(0.1 -0.1)">
       <use xlink:href="#DejaVuSans-30"/>
       <use xlink:href="#DejaVuSans-2e" x="63.623047"/>
       <use xlink:href="#DejaVuSans-30" x="95.410156"/>
       <use xlink:href="#DejaVuSans-33" x="159.033203"/>
       <use xlink:href="#DejaVuSans-30" x="222.65625"/>
      </g>
     </g>
    </g>
    <g id="ytick_8">
     <g id="line2d_16">
      <g>
       <use xlink:href="#mc01c4e3a24" x="57.6" y="72.573687" style="stroke: #000000; stroke-width: 0.8"/>
      </g>
     </g>
     <g id="text_16">
      <!-- 0.035 -->
      <g transform="translate(21.971875 76.372906) scale(0.1 -0.1)">
       <use xlink:href="#DejaVuSans-30"/>
       <use xlink:href="#DejaVuSans-2e" x="63.623047"/>
       <use xlink:href="#DejaVuSans-30" x="95.410156"/>
       <use xlink:href="#DejaVuSans-33" x="159.033203"/>
       <use xlink:href="#DejaVuSans-35" x="222.65625"/>
      </g>
     </g>
    </g>
   </g>
   <g id="line2d_17">
    <path d="M 57.6 283.417509 
L 61.207273 278.901703 
L 64.814545 273.873261 
L 68.421818 268.330325 
L 72.029091 262.279728 
L 75.636364 255.737351 
L 79.243636 248.728261 
L 82.850909 241.286601 
L 86.458182 233.455246 
L 90.065455 225.28524 
L 93.672727 216.835026 
L 97.28 208.169487 
L 100.887273 199.358852 
L 104.494545 190.477471 
L 108.101818 181.602516 
L 111.709091 172.812636 
L 115.316364 164.186599 
L 118.923636 155.801969 
L 122.530909 147.733827 
L 126.138182 140.053593 
L 129.745455 132.827943 
L 133.352727 126.117864 
L 136.96 119.977854 
L 140.567273 114.455271 
L 144.174545 109.589846 
L 147.781818 105.413354 
L 151.389091 101.949447 
L 154.996364 99.213635 
L 158.603636 97.213406 
L 162.210909 95.948481 
L 165.818182 95.411181 
L 169.425455 95.58689 
L 173.032727 96.454607 
L 176.64 97.987555 
L 180.247273 100.153852 
L 183.854545 102.9172 
L 187.461818 106.2376 
L 191.069091 110.072069 
L 194.676364 114.375347 
L 198.283636 119.100576 
L 201.890909 124.199962 
L 205.498182 129.625379 
L 209.105455 135.328943 
L 212.712727 141.263525 
L 216.32 147.383212 
L 219.927273 153.643713 
L 223.534545 160.0027 
L 227.141818 166.420105 
L 230.749091 172.858346 
L 234.356364 179.282507 
L 237.963636 185.660469 
L 241.570909 191.962986 
L 245.178182 198.163724 
L 248.785455 204.239258 
L 252.392727 210.169034 
L 256 215.935296 
L 259.607273 221.522999 
L 263.214545 226.919684 
L 266.821818 232.115349 
L 270.429091 237.102293 
L 274.036364 241.874967 
L 277.643636 246.429796 
L 281.250909 250.76502 
L 284.858182 254.880513 
L 288.465455 258.777621 
L 292.072727 262.458991 
L 295.68 265.928409 
L 299.287273 269.190647 
L 302.894545 272.251312 
L 306.501818 275.116712 
L 310.109091 277.793721 
L 313.716364 280.289662 
L 317.323636 282.612195 
L 320.930909 284.769216 
L 324.538182 286.768769 
L 328.145455 288.618962 
L 331.752727 290.327897 
L 335.36 291.903608 
L 338.967273 293.354006 
L 342.574545 294.686831 
L 346.181818 295.909618 
L 349.789091 297.029659 
L 353.396364 298.053985 
L 357.003636 298.989339 
L 360.610909 299.842166 
L 364.218182 300.618603 
L 367.825455 301.324469 
L 371.432727 301.965268 
L 375.04 302.546189 
L 378.647273 303.072106 
L 382.254545 303.547586 
L 385.861818 303.976899 
L 389.469091 304.364024 
L 393.076364 304.712661 
L 396.683636 305.026241 
L 400.290909 305.307941 
L 403.898182 305.560694 
L 407.505455 305.787203 
L 411.112727 305.989953 
L 414.72 306.171226 
" clip-path="url(#p2c04b269ca)" style="fill: none; stroke: #1f77b4; stroke-width: 1.5; stroke-linecap: square"/>
   </g>
   <g id="patch_75">
    <path d="M 57.6 307.584 
L 57.6 41.472 
" style="fill: none; stroke: #000000; stroke-width: 0.8; stroke-linejoin: miter; stroke-linecap: square"/>
   </g>
   <g id="patch_76">
    <path d="M 414.72 307.584 
L 414.72 41.472 
" style="fill: none; stroke: #000000; stroke-width: 0.8; stroke-linejoin: miter; stroke-linecap: square"/>
   </g>
   <g id="patch_77">
    <path d="M 57.6 307.584 
L 414.72 307.584 
" style="fill: none; stroke: #000000; stroke-width: 0.8; stroke-linejoin: miter; stroke-linecap: square"/>
   </g>
   <g id="patch_78">
    <path d="M 57.6 41.472 
L 414.72 41.472 
" style="fill: none; stroke: #000000; stroke-width: 0.8; stroke-linejoin: miter; stroke-linecap: square"/>
   </g>
  </g>
 </g>
 <defs>
  <clipPath id="p2c04b269ca">
   <rect x="57.6" y="41.472" width="357.12" height="266.112"/>
  </clipPath>
 </defs>
</svg>
