<?xml version="1.0" encoding="utf-8" standalone="no"?>
<!DOCTYPE svg PUBLIC "-//W3C//DTD SVG 1.1//EN"
  "http://www.w3.org/Graphics/SVG/1.1/DTD/svg11.dtd">
<svg xmlns:xlink="http://www.w3.org/1999/xlink" width="460.8pt" height="345.6pt" viewBox="0 0 460.8 345.6" xmlns="http://www.w3.org/2000/svg" version="1.1">
 <metadata>
  <rdf:RDF xmlns:dc="http://purl.org/dc/elements/1.1/" xmlns:cc="http://creativecommons.org/ns#" xmlns:rdf="http://www.w3.org/1999/02/22-rdf-syntax-ns#">
   <cc:Work>
    <dc:type rdf:resource="http://purl.org/dc/dcmitype/StillImage"/>
    <dc:format>image/svg+xml</dc:format>
   </cc:Work>
  </rdf:RDF>
 </metadata>
 <defs>
  <style type="text/css">*{stroke-linejoin: round; stroke-linecap: butt}</style>
 </defs>
 <g id="figure_1">
  <g id="patch_1">
   <path d="M 0 345.6 
L 460.8 345.6 
L 460.8 0 
L 0 0 
z
" style="fill: #ffffff"/>
  </g>
  <g id="axes_1">
   <g id="patch_2">
    <path d="M 57.6 307.584 
L 414.72 307.584 
L 414.72 41.472 
L 57.6 41.472 
z
" style="fill: #ffffff"/>
   </g>
   <g id="patch_3">
    <path d="M 53.632 307.584 
L 61.568 307.584 
L 61.568 307.584 
L 53.632 307.584 
z
" clip-path="url(#pbfef5e907f)" style="fill: #1f77b4"/>
   </g>
   <g id="patch_4">
    <path d="M 63.552 307.584 
L 71.488 307.584 
L 71.488 306.959763 
L 63.552 306.959763 
z
" clip-path="url(#pbfef5e907f)" style="fill: #1f77b4"/>
   </g>
   <g id="patch_5">
    <path d="M 73.472 307.584 
L 81.408 307.584 
L 81.408 303.465322 
L 73.472 303.465322 
z
" clip-path="url(#pbfef5e907f)" style="fill: #1f77b4"/>
   </g>
   <g id="patch_6">
    <path d="M 83.392 307.584 
L 91.328 307.584 
L 91.328 293.1899 
L 83.392 293.1899 
z
" clip-path="url(#pbfef5e907f)" style="fill: #1f77b4"/>
   </g>
   <g id="patch_7">
    <path d="M 93.312 307.584 
L 101.248 307.584 
L 101.248 272.179878 
L 93.312 272.179878 
z
" clip-path="url(#pbfef5e907f)" style="fill: #1f77b4"/>
   </g>
   <g id="patch_8">
    <path d="M 103.232 307.584 
L 111.168 307.584 
L 111.168 238.850789 
L 103.232 238.850789 
z
" clip-path="url(#pbfef5e907f)" style="fill: #1f77b4"/>
   </g>
   <g id="patch_9">
    <path d="M 113.152 307.584 
L 121.088 307.584 
L 121.088 195.553153 
L 113.152 195.553153 
z
" clip-path="url(#pbfef5e907f)" style="fill: #1f77b4"/>
   </g>
   <g id="patch_10">
    <path d="M 123.072 307.584 
L 131.008 307.584 
L 131.008 148.29014 
L 123.072 148.29014 
z
" clip-path="url(#pbfef5e907f)" style="fill: #1f77b4"/>
   </g>
   <g id="patch_11">
    <path d="M 132.992 307.584 
L 140.928 307.584 
L 140.928 104.820447 
L 132.992 104.820447 
z
" clip-path="url(#pbfef5e907f)" style="fill: #1f77b4"/>
   </g>
   <g id="patch_12">
    <path d="M 142.912 307.584 
L 150.848 307.584 
L 150.848 72.210723 
L 142.912 72.210723 
z
" clip-path="url(#pbfef5e907f)" style="fill: #1f77b4"/>
   </g>
   <g id="patch_13">
    <path d="M 152.832 307.584 
L 160.768 307.584 
L 160.768 54.940147 
L 152.832 54.940147 
z
" clip-path="url(#pbfef5e907f)" style="fill: #1f77b4"/>
   </g>
   <g id="patch_14">
    <path d="M 162.752 307.584 
L 170.688 307.584 
L 170.688 54.144 
L 162.752 54.144 
z
" clip-path="url(#pbfef5e907f)" style="fill: #1f77b4"/>
   </g>
   <g id="patch_15">
    <path d="M 172.672 307.584 
L 180.608 307.584 
L 180.608 67.968 
L 172.672 67.968 
z
" clip-path="url(#pbfef5e907f)" style="fill: #1f77b4"/>
   </g>
   <g id="patch_16">
    <path d="M 182.592 307.584 
L 190.528 307.584 
L 190.528 92.612051 
L 182.592 92.612051 
z
" clip-path="url(#pbfef5e907f)" style="fill: #1f77b4"/>
   </g>
   <g id="patch_17">
    <path d="M 192.512 307.584 
L 200.448 307.584 
L 200.448 123.552069 
L 192.512 123.552069 
z
" clip-path="url(#pbfef5e907f)" style="fill: #1f77b4"/>
   </g>
   <g id="patch_18">
    <path d="M 202.432 307.584 
L 210.368 307.584 
L 210.368 156.554163 
L 202.432 156.554163 
z
" clip-path="url(#pbfef5e907f)" style="fill: #1f77b4"/>
   </g>
   <g id="patch_19">
    <path d="M 212.352 307.584 
L 220.288 307.584 
L 220.288 188.299288 
L 212.352 188.299288 
z
" clip-path="url(#pbfef5e907f)" style="fill: #1f77b4"/>
   </g>
   <g id="patch_20">
    <path d="M 222.272 307.584 
L 230.208 307.584 
L 230.208 216.613545 
L 222.272 216.613545 
z
" clip-path="url(#pbfef5e907f)" style="fill: #1f77b4"/>
   </g>
   <g id="patch_21">
    <path d="M 232.192 307.584 
L 240.128 307.584 
L 240.128 240.403009 
L 232.192 240.403009 
z
" clip-path="url(#pbfef5e907f)" style="fill: #1f77b4"/>
   </g>
   <g id="patch_22">
    <path d="M 242.112 307.584 
L 250.048 307.584 
L 250.048 259.423268 
L 242.112 259.423268 
z
" clip-path="url(#pbfef5e907f)" style="fill: #1f77b4"/>
   </g>
   <g id="patch_23">
    <path d="M 252.032 307.584 
L 259.968 307.584 
L 259.968 273.99687 
L 252.032 273.99687 
z
" clip-path="url(#pbfef5e907f)" style="fill: #1f77b4"/>
   </g>
   <g id="patch_24">
    <path d="M 261.952 307.584 
L 269.888 307.584 
L 269.888 284.754121 
L 261.952 284.754121 
z
" clip-path="url(#pbfef5e907f)" style="fill: #1f77b4"/>
   </g>
   <g id="patch_25">
    <path d="M 271.872 307.584 
L 279.808 307.584 
L 279.808 292.434219 
L 271.872 292.434219 
z
" clip-path="url(#pbfef5e907f)" style="fill: #1f77b4"/>
   </g>
   <g id="patch_26">
    <path d="M 281.792 307.584 
L 289.728 307.584 
L 289.728 297.754748 
L 281.792 297.754748 
z
" clip-path="url(#pbfef5e907f)" style="fill: #1f77b4"/>
   </g>
   <g id="patch_27">
    <path d="M 291.712 307.584 
L 299.648 307.584 
L 299.648 301.340685 
L 291.712 301.340685 
z
" clip-path="url(#pbfef5e907f)" style="fill: #1f77b4"/>
   </g>
   <g id="patch_28">
    <path d="M 301.632 307.584 
L 309.568 307.584 
L 309.568 303.697131 
L 301.632 303.697131 
z
" clip-path="url(#pbfef5e907f)" style="fill: #1f77b4"/>
   </g>
   <g id="patch_29">
    <path d="M 311.552 307.584 
L 319.488 307.584 
L 319.488 305.209722 
L 311.552 305.209722 
z
" clip-path="url(#pbfef5e907f)" style="fill: #1f77b4"/>
   </g>
   <g id="patch_30">
    <path d="M 321.472 307.584 
L 329.408 307.584 
L 329.408 306.159632 
L 321.472 306.159632 
z
" clip-path="url(#pbfef5e907f)" style="fill: #1f77b4"/>
   </g>
   <g id="patch_31">
    <path d="M 331.392 307.584 
L 339.328 307.584 
L 339.328 306.744067 
L 331.392 306.744067 
z
" clip-path="url(#pbfef5e907f)" style="fill: #1f77b4"/>
   </g>
   <g id="patch_32">
    <path d="M 341.312 307.584 
L 349.248 307.584 
L 349.248 307.096768 
L 341.312 307.096768 
z
" clip-path="url(#pbfef5e907f)" style="fill: #1f77b4"/>
   </g>
   <g id="patch_33">
    <path d="M 351.232 307.584 
L 359.168 307.584 
L 359.168 307.305771 
L 351.232 307.305771 
z
" clip-path="url(#pbfef5e907f)" style="fill: #1f77b4"/>
   </g>
   <g id="patch_34">
    <path d="M 361.152 307.584 
L 369.088 307.584 
L 369.088 307.427496 
L 361.152 307.427496 
z
" clip-path="url(#pbfef5e907f)" style="fill: #1f77b4"/>
   </g>
   <g id="patch_35">
    <path d="M 371.072 307.584 
L 379.008 307.584 
L 379.008 307.497232 
L 371.072 307.497232 
z
" clip-path="url(#pbfef5e907f)" style="fill: #1f77b4"/>
   </g>
   <g id="patch_36">
    <path d="M 380.992 307.584 
L 388.928 307.584 
L 388.928 307.536561 
L 380.992 307.536561 
z
" clip-path="url(#pbfef5e907f)" style="fill: #1f77b4"/>
   </g>
   <g id="patch_37">
    <path d="M 390.912 307.584 
L 398.848 307.584 
L 398.848 307.55841 
L 390.912 307.55841 
z
" clip-path="url(#pbfef5e907f)" style="fill: #1f77b4"/>
   </g>
   <g id="patch_38">
    <path d="M 400.832 307.584 
L 408.768 307.584 
L 408.768 307.570374 
L 400.832 307.570374 
z
" clip-path="url(#pbfef5e907f)" style="fill: #1f77b4"/>
   </g>
   <g id="matplotlib.axis_1">
    <g id="xtick_1">
     <g id="line2d_1">
      <defs>
       <path id="ma7307e581d" d="M 0 0 
L 0 3.5 
" style="stroke: #000000; stroke-width: 0.8"/>
      </defs>
      <g>
       <use xlink:href="#ma7307e581d" x="67.52" y="307.584" style="stroke: #000000; stroke-width: 0.8"/>
      </g>
     </g>
     <g id="text_1">
      <!-- 3% -->
      <g transform="translate(59.587969 322.182437) scale(0.1 -0.1)">
       <defs>
        <path id="DejaVuSans-33" d="M 2597 2516 
Q 3050 2419 3304 2112 
Q 3559 1806 3559 1356 
Q 3559 666 3084 287 
Q 2609 -91 1734 -91 
Q 1441 -91 1130 -33 
Q 819 25 488 141 
L 488 750 
Q 750 597 1062 519 
Q 1375 441 1716 441 
Q 2309 441 2620 675 
Q 2931 909 2931 1356 
Q 2931 1769 2642 2001 
Q 2353 2234 1838 2234 
L 1294 2234 
L 1294 2753 
L 1863 2753 
Q 2328 2753 2575 2939 
Q 2822 3125 2822 3475 
Q 2822 3834 2567 4026 
Q 2313 4219 1838 4219 
Q 1578 4219 1281 4162 
Q 984 4106 628 3988 
L 628 4550 
Q 988 4650 1302 4700 
Q 1616 4750 1894 4750 
Q 2613 4750 3031 4423 
Q 3450 4097 3450 3541 
Q 3450 3153 3228 2886 
Q 3006 2619 2597 2516 
z
" transform="scale(0.015625)"/>
        <path id="DejaVuSans-25" d="M 4653 2053 
Q 4381 2053 4226 1822 
Q 4072 1591 4072 1178 
Q 4072 772 4226 539 
Q 4381 306 4653 306 
Q 4919 306 5073 539 
Q 5228 772 5228 1178 
Q 5228 1588 5073 1820 
Q 4919 2053 4653 2053 
z
M 4653 2450 
Q 5147 2450 5437 2106 
Q 5728 1763 5728 1178 
Q 5728 594 5436 251 
Q 5144 -91 4653 -91 
Q 4153 -91 3862 251 
Q 3572 594 3572 1178 
Q 3572 1766 3864 2108 
Q 4156 2450 4653 2450 
z
M 1428 4353 
Q 1159 4353 1004 4120 
Q 850 3888 850 3481 
Q 850 3069 1003 2837 
Q 1156 2606 1428 2606 
Q 1700 2606 1854 2837 
Q 2009 3069 2009 3481 
Q 2009 3884 1853 4118 
Q 1697 4353 1428 4353 
z
M 4250 4750 
L 4750 4750 
L 1831 -91 
L 1331 -91 
L 4250 4750 
z
M 1428 4750 
Q 1922 4750 2215 4408 
Q 2509 4066 2509 3481 
Q 2509 2891 2217 2550 
Q 1925 2209 1428 2209 
Q 931 2209 642 2551 
Q 353 2894 353 3481 
Q 353 4063 643 4406 
Q 934 4750 1428 4750 
z
" transform="scale(0.015625)"/>
       </defs>
       <use xlink:href="#DejaVuSans-33"/>
       <use xlink:href="#DejaVuSans-25" x="63.623047"/>
      </g>
     </g>
    </g>
    <g id="xtick_2">
     <g id="line2d_2">
      <g>
       <use xlink:href="#ma7307e581d" x="117.12" y="307.584" style="stroke: #000000; stroke-width: 0.8"/>
      </g>
     </g>
     <g id="text_2">
      <!-- 4% -->
      <g transform="translate(109.187969 322.182437) scale(0.1 -0.1)">
       <defs>
        <path id="DejaVuSans-34" d="M 2419 4116 
L 825 1625 
L 2419 1625 
L 2419 4116 
z
M 2253 4666 
L 3047 4666 
L 3047 1625 
L 3713 1625 
L 3713 1100 
L 3047 1100 
L 3047 0 
L 2419 0 
L 2419 1100 
L 313 1100 
L 313 1709 
L 2253 4666 
z
" transform="scale(0.015625)"/>
       </defs>
       <use xlink:href="#DejaVuSans-34"/>
       <use xlink:href="#DejaVuSans-25" x="63.623047"/>
      </g>
     </g>
    </g>
    <g id="xtick_3">
     <g id="line2d_3">
      <g>
       <use xlink:href="#ma7307e581d" x="166.72" y="307.584" style="stroke: #000000; stroke-width: 0.8"/>
      </g>
     </g>
     <g id="text_3">
      <!-- 5% -->
      <g transform="translate(158.787969 322.182437) scale(0.1 -0.1)">
       <defs>
        <path id="DejaVuSans-35" d="M 691 4666 
L 3169 4666 
L 3169 4134 
L 1269 4134 
L 1269 2991 
Q 1406 3038 1543 3061 
Q 1681 3084 1819 3084 
Q 2600 3084 3056 2656 
Q 3513 2228 3513 1497 
Q 3513 744 3044 326 
Q 2575 -91 1722 -91 
Q 1428 -91 1123 -41 
Q 819 9 494 109 
L 494 744 
Q 775 591 1075 516 
Q 1375 441 1709 441 
Q 2250 441 2565 725 
Q 2881 1009 2881 1497 
Q 2881 1984 2565 2268 
Q 2250 2553 1709 2553 
Q 1456 2553 1204 2497 
Q 953 2441 691 2322 
L 691 4666 
z
" transform="scale(0.015625)"/>
       </defs>
       <use xlink:href="#DejaVuSans-35"/>
       <use xlink:href="#DejaVuSans-25" x="63.623047"/>
      </g>
     </g>
    </g>
    <g id="xtick_4">
     <g id="line2d_4">
      <g>
       <use xlink:href="#ma7307e581d" x="216.32" y="307.584" style="stroke: #000000; stroke-width: 0.8"/>
      </g>
     </g>
     <g id="text_4">
      <!-- 6% -->
      <g transform="translate(208.387969 322.182437) scale(0.1 -0.1)">
       <defs>
        <path id="DejaVuSans-36" d="M 2113 2584 
Q 1688 2584 1439 2293 
Q 1191 2003 1191 1497 
Q 1191 994 1439 701 
Q 1688 409 2113 409 
Q 2538 409 2786 701 
Q 3034 994 3034 1497 
Q 3034 2003 2786 2293 
Q 2538 2584 2113 2584 
z
M 3366 4563 
L 3366 3988 
Q 3128 4100 2886 4159 
Q 2644 4219 2406 4219 
Q 1781 4219 1451 3797 
Q 1122 3375 1075 2522 
Q 1259 2794 1537 2939 
Q 1816 3084 2150 3084 
Q 2853 3084 3261 2657 
Q 3669 2231 3669 1497 
Q 3669 778 3244 343 
Q 2819 -91 2113 -91 
Q 1303 -91 875 529 
Q 447 1150 447 2328 
Q 447 3434 972 4092 
Q 1497 4750 2381 4750 
Q 2619 4750 2861 4703 
Q 3103 4656 3366 4563 
z
" transform="scale(0.015625)"/>
       </defs>
       <use xlink:href="#DejaVuSans-36"/>
       <use xlink:href="#DejaVuSans-25" x="63.623047"/>
      </g>
     </g>
    </g>
    <g id="xtick_5">
     <g id="line2d_5">
      <g>
       <use xlink:href="#ma7307e581d" x="265.92" y="307.584" style="stroke: #000000; stroke-width: 0.8"/>
      </g>
     </g>
     <g id="text_5">
      <!-- 7% -->
      <g transform="translate(257.987969 322.182437) scale(0.1 -0.1)">
       <defs>
        <path id="DejaVuSans-37" d="M 525 4666 
L 3525 4666 
L 3525 4397 
L 1831 0 
L 1172 0 
L 2766 4134 
L 525 4134 
L 525 4666 
z
" transform="scale(0.015625)"/>
       </defs>
       <use xlink:href="#DejaVuSans-37"/>
       <use xlink:href="#DejaVuSans-25" x="63.623047"/>
      </g>
     </g>
    </g>
    <g id="xtick_6">
     <g id="line2d_6">
      <g>
       <use xlink:href="#ma7307e581d" x="315.52" y="307.584" style="stroke: #000000; stroke-width: 0.8"/>
      </g>
     </g>
     <g id="text_6">
      <!-- 8% -->
      <g transform="translate(307.587969 322.182437) scale(0.1 -0.1)">
       <defs>
        <path id="DejaVuSans-38" d="M 2034 2216 
Q 1584 2216 1326 1975 
Q 1069 1734 1069 1313 
Q 1069 891 1326 650 
Q 1584 409 2034 409 
Q 2484 409 2743 651 
Q 3003 894 3003 1313 
Q 3003 1734 2745 1975 
Q 2488 2216 2034 2216 
z
M 1403 2484 
Q 997 2584 770 2862 
Q 544 3141 544 3541 
Q 544 4100 942 4425 
Q 1341 4750 2034 4750 
Q 2731 4750 3128 4425 
Q 3525 4100 3525 3541 
Q 3525 3141 3298 2862 
Q 3072 2584 2669 2484 
Q 3125 2378 3379 2068 
Q 3634 1759 3634 1313 
Q 3634 634 3220 271 
Q 2806 -91 2034 -91 
Q 1263 -91 848 271 
Q 434 634 434 1313 
Q 434 1759 690 2068 
Q 947 2378 1403 2484 
z
M 1172 3481 
Q 1172 3119 1398 2916 
Q 1625 2713 2034 2713 
Q 2441 2713 2670 2916 
Q 2900 3119 2900 3481 
Q 2900 3844 2670 4047 
Q 2441 4250 2034 4250 
Q 1625 4250 1398 4047 
Q 1172 3844 1172 3481 
z
" transform="scale(0.015625)"/>
       </defs>
       <use xlink:href="#DejaVuSans-38"/>
       <use xlink:href="#DejaVuSans-25" x="63.623047"/>
      </g>
     </g>
    </g>
    <g id="xtick_7">
     <g id="line2d_7">
      <g>
       <use xlink:href="#ma7307e581d" x="365.12" y="307.584" style="stroke: #000000; stroke-width: 0.8"/>
      </g>
     </g>
     <g id="text_7">
      <!-- 9% -->
      <g transform="translate(357.187969 322.182437) scale(0.1 -0.1)">
       <defs>
        <path id="DejaVuSans-39" d="M 703 97 
L 703 672 
Q 941 559 1184 500 
Q 1428 441 1663 441 
Q 2288 441 2617 861 
Q 2947 1281 2994 2138 
Q 2813 1869 2534 1725 
Q 2256 1581 1919 1581 
Q 1219 1581 811 2004 
Q 403 2428 403 3163 
Q 403 3881 828 4315 
Q 1253 4750 1959 4750 
Q 2769 4750 3195 4129 
Q 3622 3509 3622 2328 
Q 3622 1225 3098 567 
Q 2575 -91 1691 -91 
Q 1453 -91 1209 -44 
Q 966 3 703 97 
z
M 1959 2075 
Q 2384 2075 2632 2365 
Q 2881 2656 2881 3163 
Q 2881 3666 2632 3958 
Q 2384 4250 1959 4250 
Q 1534 4250 1286 3958 
Q 1038 3666 1038 3163 
Q 1038 2656 1286 2365 
Q 1534 2075 1959 2075 
z
" transform="scale(0.015625)"/>
       </defs>
       <use xlink:href="#DejaVuSans-39"/>
       <use xlink:href="#DejaVuSans-25" x="63.623047"/>
      </g>
     </g>
    </g>
    <g id="xtick_8">
     <g id="line2d_8">
      <g>
       <use xlink:href="#ma7307e581d" x="414.72" y="307.584" style="stroke: #000000; stroke-width: 0.8"/>
      </g>
     </g>
     <g id="text_8">
      <!-- 10% -->
      <g transform="translate(403.606719 322.182437) scale(0.1 -0.1)">
       <defs>
        <path id="DejaVuSans-31" d="M 794 531 
L 1825 531 
L 1825 4091 
L 703 3866 
L 703 4441 
L 1819 4666 
L 2450 4666 
L 2450 531 
L 3481 531 
L 3481 0 
L 794 0 
L 794 531 
z
" transform="scale(0.015625)"/>
        <path id="DejaVuSans-30" d="M 2034 4250 
Q 1547 4250 1301 3770 
Q 1056 3291 1056 2328 
Q 1056 1369 1301 889 
Q 1547 409 2034 409 
Q 2525 409 2770 889 
Q 3016 1369 3016 2328 
Q 3016 3291 2770 3770 
Q 2525 4250 2034 4250 
z
M 2034 4750 
Q 2819 4750 3233 4129 
Q 3647 3509 3647 2328 
Q 3647 1150 3233 529 
Q 2819 -91 2034 -91 
Q 1250 -91 836 529 
Q 422 1150 422 2328 
Q 422 3509 836 4129 
Q 1250 4750 2034 4750 
z
" transform="scale(0.015625)"/>
       </defs>
       <use xlink:href="#DejaVuSans-31"/>
       <use xlink:href="#DejaVuSans-30" x="63.623047"/>
       <use xlink:href="#DejaVuSans-25" x="127.246094"/>
      </g>
     </g>
    </g>
   </g>
   <g id="matplotlib.axis_2">
    <g id="ytick_1">
     <g id="line2d_9">
      <defs>
       <path id="mcc7cef4c96" d="M 0 0 
L -3.5 0 
" style="stroke: #000000; stroke-width: 0.8"/>
      </defs>
      <g>
       <use xlink:href="#mcc7cef4c96" x="57.6" y="307.584" style="stroke: #000000; stroke-width: 0.8"/>
      </g>
     </g>
     <g id="text_9">
      <!-- 0.00 -->
      <g transform="translate(28.334375 311.383219) scale(0.1 -0.1)">
       <defs>
        <path id="DejaVuSans-2e" d="M 684 794 
L 1344 794 
L 1344 0 
L 684 0 
L 684 794 
z
" transform="scale(0.015625)"/>
       </defs>
       <use xlink:href="#DejaVuSans-30"/>
       <use xlink:href="#DejaVuSans-2e" x="63.623047"/>
       <use xlink:href="#DejaVuSans-30" x="95.410156"/>
       <use xlink:href="#DejaVuSans-30" x="159.033203"/>
      </g>
     </g>
    </g>
    <g id="ytick_2">
     <g id="line2d_10">
      <g>
       <use xlink:href="#mcc7cef4c96" x="57.6" y="256.557175" style="stroke: #000000; stroke-width: 0.8"/>
      </g>
     </g>
     <g id="text_10">
      <!-- 0.02 -->
      <g transform="translate(28.334375 260.356394) scale(0.1 -0.1)">
       <defs>
        <path id="DejaVuSans-32" d="M 1228 531 
L 3431 531 
L 3431 0 
L 469 0 
L 469 531 
Q 828 903 1448 1529 
Q 2069 2156 2228 2338 
Q 2531 2678 2651 2914 
Q 2772 3150 2772 3378 
Q 2772 3750 2511 3984 
Q 2250 4219 1831 4219 
Q 1534 4219 1204 4116 
Q 875 4013 500 3803 
L 500 4441 
Q 881 4594 1212 4672 
Q 1544 4750 1819 4750 
Q 2544 4750 2975 4387 
Q 3406 4025 3406 3419 
Q 3406 3131 3298 2873 
Q 3191 2616 2906 2266 
Q 2828 2175 2409 1742 
Q 1991 1309 1228 531 
z
" transform="scale(0.015625)"/>
       </defs>
       <use xlink:href="#DejaVuSans-30"/>
       <use xlink:href="#DejaVuSans-2e" x="63.623047"/>
       <use xlink:href="#DejaVuSans-30" x="95.410156"/>
       <use xlink:href="#DejaVuSans-32" x="159.033203"/>
      </g>
     </g>
    </g>
    <g id="ytick_3">
     <g id="line2d_11">
      <g>
       <use xlink:href="#mcc7cef4c96" x="57.6" y="205.53035" style="stroke: #000000; stroke-width: 0.8"/>
      </g>
     </g>
     <g id="text_11">
      <!-- 0.04 -->
      <g transform="translate(28.334375 209.329568) scale(0.1 -0.1)">
       <use xlink:href="#DejaVuSans-30"/>
       <use xlink:href="#DejaVuSans-2e" x="63.623047"/>
       <use xlink:href="#DejaVuSans-30" x="95.410156"/>
       <use xlink:href="#DejaVuSans-34" x="159.033203"/>
      </g>
     </g>
    </g>
    <g id="ytick_4">
     <g id="line2d_12">
      <g>
       <use xlink:href="#mcc7cef4c96" x="57.6" y="154.503524" style="stroke: #000000; stroke-width: 0.8"/>
      </g>
     </g>
     <g id="text_12">
      <!-- 0.06 -->
      <g transform="translate(28.334375 158.302743) scale(0.1 -0.1)">
       <use xlink:href="#DejaVuSans-30"/>
       <use xlink:href="#DejaVuSans-2e" x="63.623047"/>
       <use xlink:href="#DejaVuSans-30" x="95.410156"/>
       <use xlink:href="#DejaVuSans-36" x="159.033203"/>
      </g>
     </g>
    </g>
    <g id="ytick_5">
     <g id="line2d_13">
      <g>
       <use xlink:href="#mcc7cef4c96" x="57.6" y="103.476699" style="stroke: #000000; stroke-width: 0.8"/>
      </g>
     </g>
     <g id="text_13">
      <!-- 0.08 -->
      <g transform="translate(28.334375 107.275918) scale(0.1 -0.1)">
       <use xlink:href="#DejaVuSans-30"/>
       <use xlink:href="#DejaVuSans-2e" x="63.623047"/>
       <use xlink:href="#DejaVuSans-30" x="95.410156"/>
       <use xlink:href="#DejaVuSans-38" x="159.033203"/>
      </g>
     </g>
    </g>
    <g id="ytick_6">
     <g id="line2d_14">
      <g>
       <use xlink:href="#mcc7cef4c96" x="57.6" y="52.449874" style="stroke: #000000; stroke-width: 0.8"/>
      </g>
     </g>
     <g id="text_14">
      <!-- 0.10 -->
      <g transform="translate(28.334375 56.249093) scale(0.1 -0.1)">
       <use xlink:href="#DejaVuSans-30"/>
       <use xlink:href="#DejaVuSans-2e" x="63.623047"/>
       <use xlink:href="#DejaVuSans-31" x="95.410156"/>
       <use xlink:href="#DejaVuSans-30" x="159.033203"/>
      </g>
     </g>
    </g>
   </g>
   <g id="line2d_15">
    <path d="M 57.6 289.23723 
L 61.207273 285.80891 
L 64.814545 281.991406 
L 68.421818 277.783308 
L 72.029091 273.189802 
L 75.636364 268.222946 
L 79.243636 262.90177 
L 82.850909 257.252193 
L 86.458182 251.306768 
L 90.065455 245.104245 
L 93.672727 238.688992 
L 97.28 232.110269 
L 100.887273 225.421392 
L 104.494545 218.678805 
L 108.101818 211.941098 
L 111.709091 205.267977 
L 115.316364 198.719243 
L 118.923636 192.35378 
L 122.530909 186.228591 
L 126.138182 180.397894 
L 129.745455 174.912308 
L 133.352727 169.818136 
L 136.96 165.15675 
L 140.567273 160.964103 
L 144.174545 157.270358 
L 147.781818 154.09964 
L 151.389091 151.469904 
L 154.996364 149.392924 
L 158.603636 147.874385 
L 162.210909 146.914077 
L 165.818182 146.506168 
L 169.425455 146.639564 
L 173.032727 147.298318 
L 176.64 148.462106 
L 180.247273 150.10672 
L 183.854545 152.204605 
L 187.461818 154.725393 
L 191.069091 157.636454 
L 194.676364 160.903426 
L 198.283636 164.490736 
L 201.890909 168.362099 
L 205.498182 172.480979 
L 209.105455 176.811023 
L 212.712727 181.316452 
L 216.32 185.96241 
L 219.927273 190.715271 
L 223.534545 195.542901 
L 227.141818 200.414881 
L 230.749091 205.302679 
L 234.356364 210.179788 
L 237.963636 215.021823 
L 241.570909 219.806582 
L 245.178182 224.514072 
L 248.785455 229.12651 
L 252.392727 233.628289 
L 256 238.005934 
L 259.607273 242.248018 
L 263.214545 246.345086 
L 266.821818 250.289542 
L 270.429091 254.075542 
L 274.036364 257.69887 
L 277.643636 261.156816 
L 281.250909 264.44804 
L 284.858182 267.57245 
L 288.465455 270.531065 
L 292.072727 273.325896 
L 295.68 275.959816 
L 299.287273 278.436449 
L 302.894545 280.760052 
L 306.501818 282.935412 
L 310.109091 284.96775 
L 313.716364 286.862624 
L 317.323636 288.62585 
L 320.930909 290.263422 
L 324.538182 291.781447 
L 328.145455 293.18608 
L 331.752727 294.483474 
L 335.36 295.679726 
L 338.967273 296.780842 
L 342.574545 297.792699 
L 346.181818 298.721017 
L 349.789091 299.571332 
L 353.396364 300.348982 
L 357.003636 301.059086 
L 360.610909 301.706537 
L 364.218182 302.295994 
L 367.825455 302.831875 
L 371.432727 303.318359 
L 375.04 303.759384 
L 378.647273 304.15865 
L 382.254545 304.519626 
L 385.861818 304.845553 
L 389.469091 305.139452 
L 393.076364 305.40413 
L 396.683636 305.642195 
L 400.290909 305.856057 
L 403.898182 306.047942 
L 407.505455 306.219904 
L 411.112727 306.373828 
L 414.72 306.511447 
" clip-path="url(#pbfef5e907f)" style="fill: none; stroke: #1f77b4; stroke-width: 1.5; stroke-linecap: square"/>
   </g>
   <g id="patch_39">
    <path d="M 57.6 307.584 
L 57.6 41.472 
" style="fill: none; stroke: #000000; stroke-width: 0.8; stroke-linejoin: miter; stroke-linecap: square"/>
   </g>
   <g id="patch_40">
    <path d="M 414.72 307.584 
L 414.72 41.472 
" style="fill: none; stroke: #000000; stroke-width: 0.8; stroke-linejoin: miter; stroke-linecap: square"/>
   </g>
   <g id="patch_41">
    <path d="M 57.6 307.584 
L 414.72 307.584 
" style="fill: none; stroke: #000000; stroke-width: 0.8; stroke-linejoin: miter; stroke-linecap: square"/>
   </g>
   <g id="patch_42">
    <path d="M 57.6 41.472 
L 414.72 41.472 
" style="fill: none; stroke: #000000; stroke-width: 0.8; stroke-linejoin: miter; stroke-linecap: square"/>
   </g>
  </g>
 </g>
 <defs>
  <clipPath id="pbfef5e907f">
   <rect x="57.6" y="41.472" width="357.12" height="266.112"/>
  </clipPath>
 </defs>
</svg>
