<?xml version="1.0" encoding="utf-8" standalone="no"?>
<!DOCTYPE svg PUBLIC "-//W3C//DTD SVG 1.1//EN"
  "http://www.w3.org/Graphics/SVG/1.1/DTD/svg11.dtd">
<svg xmlns:xlink="http://www.w3.org/1999/xlink" width="460.8pt" height="345.6pt" viewBox="0 0 460.8 345.6" xmlns="http://www.w3.org/2000/svg" version="1.1">
 <metadata>
  <rdf:RDF xmlns:dc="http://purl.org/dc/elements/1.1/" xmlns:cc="http://creativecommons.org/ns#" xmlns:rdf="http://www.w3.org/1999/02/22-rdf-syntax-ns#">
   <cc:Work>
    <dc:type rdf:resource="http://purl.org/dc/dcmitype/StillImage"/>
    <dc:format>image/svg+xml</dc:format>
   </cc:Work>
  </rdf:RDF>
 </metadata>
 <defs>
  <style type="text/css">*{stroke-linejoin: round; stroke-linecap: butt}</style>
 </defs>
 <g id="figure_1">
  <g id="patch_1">
   <path d="M 0 345.6 
L 460.8 345.6 
L 460.8 0 
L 0 0 
z
" style="fill: #ffffff"/>
  </g>
  <g id="axes_1">
   <g id="patch_2">
    <path d="M 57.6 307.584 
L 414.72 307.584 
L 414.72 41.472 
L 57.6 41.472 
z
" style="fill: #ffffff"/>
   </g>
   <g id="patch_3">
    <path d="M 57.2032 307.584 
L 57.9968 307.584 
L 57.9968 282.6947 
L 57.2032 282.6947 
z
" clip-path="url(#pb199fa0fcc)" style="fill: #1f77b4"/>
   </g>
   <g id="patch_4">
    <path d="M 58.1952 307.584 
L 58.9888 307.584 
L 58.9888 281.365002 
L 58.1952 281.365002 
z
" clip-path="url(#pb199fa0fcc)" style="fill: #1f77b4"/>
   </g>
   <g id="patch_5">
    <path d="M 59.1872 307.584 
L 59.9808 307.584 
L 59.9808 279.987756 
L 59.1872 279.987756 
z
" clip-path="url(#pb199fa0fcc)" style="fill: #1f77b4"/>
   </g>
   <g id="patch_6">
    <path d="M 60.1792 307.584 
L 60.9728 307.584 
L 60.9728 278.562508 
L 60.1792 278.562508 
z
" clip-path="url(#pb199fa0fcc)" style="fill: #1f77b4"/>
   </g>
   <g id="patch_7">
    <path d="M 61.1712 307.584 
L 61.9648 307.584 
L 61.9648 277.08886 
L 61.1712 277.08886 
z
" clip-path="url(#pb199fa0fcc)" style="fill: #1f77b4"/>
   </g>
   <g id="patch_8">
    <path d="M 62.1632 307.584 
L 62.9568 307.584 
L 62.9568 275.56647 
L 62.1632 275.56647 
z
" clip-path="url(#pb199fa0fcc)" style="fill: #1f77b4"/>
   </g>
   <g id="patch_9">
    <path d="M 63.1552 307.584 
L 63.9488 307.584 
L 63.9488 273.995056 
L 63.1552 273.995056 
z
" clip-path="url(#pb199fa0fcc)" style="fill: #1f77b4"/>
   </g>
   <g id="patch_10">
    <path d="M 64.1472 307.584 
L 64.9408 307.584 
L 64.9408 272.374396 
L 64.1472 272.374396 
z
" clip-path="url(#pb199fa0fcc)" style="fill: #1f77b4"/>
   </g>
   <g id="patch_11">
    <path d="M 65.1392 307.584 
L 65.9328 307.584 
L 65.9328 270.704331 
L 65.1392 270.704331 
z
" clip-path="url(#pb199fa0fcc)" style="fill: #1f77b4"/>
   </g>
   <g id="patch_12">
    <path d="M 66.1312 307.584 
L 66.9248 307.584 
L 66.9248 268.984764 
L 66.1312 268.984764 
z
" clip-path="url(#pb199fa0fcc)" style="fill: #1f77b4"/>
   </g>
   <g id="patch_13">
    <path d="M 67.1232 307.584 
L 67.9168 307.584 
L 67.9168 267.215666 
L 67.1232 267.215666 
z
" clip-path="url(#pb199fa0fcc)" style="fill: #1f77b4"/>
   </g>
   <g id="patch_14">
    <path d="M 68.1152 307.584 
L 68.9088 307.584 
L 68.9088 265.397071 
L 68.1152 265.397071 
z
" clip-path="url(#pb199fa0fcc)" style="fill: #1f77b4"/>
   </g>
   <g id="patch_15">
    <path d="M 69.1072 307.584 
L 69.9008 307.584 
L 69.9008 263.529083 
L 69.1072 263.529083 
z
" clip-path="url(#pb199fa0fcc)" style="fill: #1f77b4"/>
   </g>
   <g id="patch_16">
    <path d="M 70.0992 307.584 
L 70.8928 307.584 
L 70.8928 261.611874 
L 70.0992 261.611874 
z
" clip-path="url(#pb199fa0fcc)" style="fill: #1f77b4"/>
   </g>
   <g id="patch_17">
    <path d="M 71.0912 307.584 
L 71.8848 307.584 
L 71.8848 259.645685 
L 71.0912 259.645685 
z
" clip-path="url(#pb199fa0fcc)" style="fill: #1f77b4"/>
   </g>
   <g id="patch_18">
    <path d="M 72.0832 307.584 
L 72.8768 307.584 
L 72.8768 257.630825 
L 72.0832 257.630825 
z
" clip-path="url(#pb199fa0fcc)" style="fill: #1f77b4"/>
   </g>
   <g id="patch_19">
    <path d="M 73.0752 307.584 
L 73.8688 307.584 
L 73.8688 255.567678 
L 73.0752 255.567678 
z
" clip-path="url(#pb199fa0fcc)" style="fill: #1f77b4"/>
   </g>
   <g id="patch_20">
    <path d="M 74.0672 307.584 
L 74.8608 307.584 
L 74.8608 253.456695 
L 74.0672 253.456695 
z
" clip-path="url(#pb199fa0fcc)" style="fill: #1f77b4"/>
   </g>
   <g id="patch_21">
    <path d="M 75.0592 307.584 
L 75.8528 307.584 
L 75.8528 251.298399 
L 75.0592 251.298399 
z
" clip-path="url(#pb199fa0fcc)" style="fill: #1f77b4"/>
   </g>
   <g id="patch_22">
    <path d="M 76.0512 307.584 
L 76.8448 307.584 
L 76.8448 249.093386 
L 76.0512 249.093386 
z
" clip-path="url(#pb199fa0fcc)" style="fill: #1f77b4"/>
   </g>
   <g id="patch_23">
    <path d="M 77.0432 307.584 
L 77.8368 307.584 
L 77.8368 246.84232 
L 77.0432 246.84232 
z
" clip-path="url(#pb199fa0fcc)" style="fill: #1f77b4"/>
   </g>
   <g id="patch_24">
    <path d="M 78.0352 307.584 
L 78.8288 307.584 
L 78.8288 244.54594 
L 78.0352 244.54594 
z
" clip-path="url(#pb199fa0fcc)" style="fill: #1f77b4"/>
   </g>
   <g id="patch_25">
    <path d="M 79.0272 307.584 
L 79.8208 307.584 
L 79.8208 242.205053 
L 79.0272 242.205053 
z
" clip-path="url(#pb199fa0fcc)" style="fill: #1f77b4"/>
   </g>
   <g id="patch_26">
    <path d="M 80.0192 307.584 
L 80.8128 307.584 
L 80.8128 239.820537 
L 80.0192 239.820537 
z
" clip-path="url(#pb199fa0fcc)" style="fill: #1f77b4"/>
   </g>
   <g id="patch_27">
    <path d="M 81.0112 307.584 
L 81.8048 307.584 
L 81.8048 237.393338 
L 81.0112 237.393338 
z
" clip-path="url(#pb199fa0fcc)" style="fill: #1f77b4"/>
   </g>
   <g id="patch_28">
    <path d="M 82.0032 307.584 
L 82.7968 307.584 
L 82.7968 234.924473 
L 82.0032 234.924473 
z
" clip-path="url(#pb199fa0fcc)" style="fill: #1f77b4"/>
   </g>
   <g id="patch_29">
    <path d="M 82.9952 307.584 
L 83.7888 307.584 
L 83.7888 232.415025 
L 82.9952 232.415025 
z
" clip-path="url(#pb199fa0fcc)" style="fill: #1f77b4"/>
   </g>
   <g id="patch_30">
    <path d="M 83.9872 307.584 
L 84.7808 307.584 
L 84.7808 229.866146 
L 83.9872 229.866146 
z
" clip-path="url(#pb199fa0fcc)" style="fill: #1f77b4"/>
   </g>
   <g id="patch_31">
    <path d="M 84.9792 307.584 
L 85.7728 307.584 
L 85.7728 227.27905 
L 84.9792 227.27905 
z
" clip-path="url(#pb199fa0fcc)" style="fill: #1f77b4"/>
   </g>
   <g id="patch_32">
    <path d="M 85.9712 307.584 
L 86.7648 307.584 
L 86.7648 224.65502 
L 85.9712 224.65502 
z
" clip-path="url(#pb199fa0fcc)" style="fill: #1f77b4"/>
   </g>
   <g id="patch_33">
    <path d="M 86.9632 307.584 
L 87.7568 307.584 
L 87.7568 221.995396 
L 86.9632 221.995396 
z
" clip-path="url(#pb199fa0fcc)" style="fill: #1f77b4"/>
   </g>
   <g id="patch_34">
    <path d="M 87.9552 307.584 
L 88.7488 307.584 
L 88.7488 219.301584 
L 87.9552 219.301584 
z
" clip-path="url(#pb199fa0fcc)" style="fill: #1f77b4"/>
   </g>
   <g id="patch_35">
    <path d="M 88.9472 307.584 
L 89.7408 307.584 
L 89.7408 216.575046 
L 88.9472 216.575046 
z
" clip-path="url(#pb199fa0fcc)" style="fill: #1f77b4"/>
   </g>
   <g id="patch_36">
    <path d="M 89.9392 307.584 
L 90.7328 307.584 
L 90.7328 213.817303 
L 89.9392 213.817303 
z
" clip-path="url(#pb199fa0fcc)" style="fill: #1f77b4"/>
   </g>
   <g id="patch_37">
    <path d="M 90.9312 307.584 
L 91.7248 307.584 
L 91.7248 211.029933 
L 90.9312 211.029933 
z
" clip-path="url(#pb199fa0fcc)" style="fill: #1f77b4"/>
   </g>
   <g id="patch_38">
    <path d="M 91.9232 307.584 
L 92.7168 307.584 
L 92.7168 208.214565 
L 91.9232 208.214565 
z
" clip-path="url(#pb199fa0fcc)" style="fill: #1f77b4"/>
   </g>
   <g id="patch_39">
    <path d="M 92.9152 307.584 
L 93.7088 307.584 
L 93.7088 205.37288 
L 92.9152 205.37288 
z
" clip-path="url(#pb199fa0fcc)" style="fill: #1f77b4"/>
   </g>
   <g id="patch_40">
    <path d="M 93.9072 307.584 
L 94.7008 307.584 
L 94.7008 202.506608 
L 93.9072 202.506608 
z
" clip-path="url(#pb199fa0fcc)" style="fill: #1f77b4"/>
   </g>
   <g id="patch_41">
    <path d="M 94.8992 307.584 
L 95.6928 307.584 
L 95.6928 199.617528 
L 94.8992 199.617528 
z
" clip-path="url(#pb199fa0fcc)" style="fill: #1f77b4"/>
   </g>
   <g id="patch_42">
    <path d="M 95.8912 307.584 
L 96.6848 307.584 
L 96.6848 196.707459 
L 95.8912 196.707459 
z
" clip-path="url(#pb199fa0fcc)" style="fill: #1f77b4"/>
   </g>
   <g id="patch_43">
    <path d="M 96.8832 307.584 
L 97.6768 307.584 
L 97.6768 193.778266 
L 96.8832 193.778266 
z
" clip-path="url(#pb199fa0fcc)" style="fill: #1f77b4"/>
   </g>
   <g id="patch_44">
    <path d="M 97.8752 307.584 
L 98.6688 307.584 
L 98.6688 190.831851 
L 97.8752 190.831851 
z
" clip-path="url(#pb199fa0fcc)" style="fill: #1f77b4"/>
   </g>
   <g id="patch_45">
    <path d="M 98.8672 307.584 
L 99.6608 307.584 
L 99.6608 187.870153 
L 98.8672 187.870153 
z
" clip-path="url(#pb199fa0fcc)" style="fill: #1f77b4"/>
   </g>
   <g id="patch_46">
    <path d="M 99.8592 307.584 
L 100.6528 307.584 
L 100.6528 184.895143 
L 99.8592 184.895143 
z
" clip-path="url(#pb199fa0fcc)" style="fill: #1f77b4"/>
   </g>
   <g id="patch_47">
    <path d="M 100.8512 307.584 
L 101.6448 307.584 
L 101.6448 181.908827 
L 100.8512 181.908827 
z
" clip-path="url(#pb199fa0fcc)" style="fill: #1f77b4"/>
   </g>
   <g id="patch_48">
    <path d="M 101.8432 307.584 
L 102.6368 307.584 
L 102.6368 178.913235 
L 101.8432 178.913235 
z
" clip-path="url(#pb199fa0fcc)" style="fill: #1f77b4"/>
   </g>
   <g id="patch_49">
    <path d="M 102.8352 307.584 
L 103.6288 307.584 
L 103.6288 175.910424 
L 102.8352 175.910424 
z
" clip-path="url(#pb199fa0fcc)" style="fill: #1f77b4"/>
   </g>
   <g id="patch_50">
    <path d="M 103.8272 307.584 
L 104.6208 307.584 
L 104.6208 172.902476 
L 103.8272 172.902476 
z
" clip-path="url(#pb199fa0fcc)" style="fill: #1f77b4"/>
   </g>
   <g id="patch_51">
    <path d="M 104.8192 307.584 
L 105.6128 307.584 
L 105.6128 169.891487 
L 104.8192 169.891487 
z
" clip-path="url(#pb199fa0fcc)" style="fill: #1f77b4"/>
   </g>
   <g id="patch_52">
    <path d="M 105.8112 307.584 
L 106.6048 307.584 
L 106.6048 166.879574 
L 105.8112 166.879574 
z
" clip-path="url(#pb199fa0fcc)" style="fill: #1f77b4"/>
   </g>
   <g id="patch_53">
    <path d="M 106.8032 307.584 
L 107.5968 307.584 
L 107.5968 163.868867 
L 106.8032 163.868867 
z
" clip-path="url(#pb199fa0fcc)" style="fill: #1f77b4"/>
   </g>
   <g id="patch_54">
    <path d="M 107.7952 307.584 
L 108.5888 307.584 
L 108.5888 160.861503 
L 107.7952 160.861503 
z
" clip-path="url(#pb199fa0fcc)" style="fill: #1f77b4"/>
   </g>
   <g id="patch_55">
    <path d="M 108.7872 307.584 
L 109.5808 307.584 
L 109.5808 157.859631 
L 108.7872 157.859631 
z
" clip-path="url(#pb199fa0fcc)" style="fill: #1f77b4"/>
   </g>
   <g id="patch_56">
    <path d="M 109.7792 307.584 
L 110.5728 307.584 
L 110.5728 154.865403 
L 109.7792 154.865403 
z
" clip-path="url(#pb199fa0fcc)" style="fill: #1f77b4"/>
   </g>
   <g id="patch_57">
    <path d="M 110.7712 307.584 
L 111.5648 307.584 
L 111.5648 151.880971 
L 110.7712 151.880971 
z
" clip-path="url(#pb199fa0fcc)" style="fill: #1f77b4"/>
   </g>
   <g id="patch_58">
    <path d="M 111.7632 307.584 
L 112.5568 307.584 
L 112.5568 148.908488 
L 111.7632 148.908488 
z
" clip-path="url(#pb199fa0fcc)" style="fill: #1f77b4"/>
   </g>
   <g id="patch_59">
    <path d="M 112.7552 307.584 
L 113.5488 307.584 
L 113.5488 145.950102 
L 112.7552 145.950102 
z
" clip-path="url(#pb199fa0fcc)" style="fill: #1f77b4"/>
   </g>
   <g id="patch_60">
    <path d="M 113.7472 307.584 
L 114.5408 307.584 
L 114.5408 143.007953 
L 113.7472 143.007953 
z
" clip-path="url(#pb199fa0fcc)" style="fill: #1f77b4"/>
   </g>
   <g id="patch_61">
    <path d="M 114.7392 307.584 
L 115.5328 307.584 
L 115.5328 140.084171 
L 114.7392 140.084171 
z
" clip-path="url(#pb199fa0fcc)" style="fill: #1f77b4"/>
   </g>
   <g id="patch_62">
    <path d="M 115.7312 307.584 
L 116.5248 307.584 
L 116.5248 137.180874 
L 115.7312 137.180874 
z
" clip-path="url(#pb199fa0fcc)" style="fill: #1f77b4"/>
   </g>
   <g id="patch_63">
    <path d="M 116.7232 307.584 
L 117.5168 307.584 
L 117.5168 134.300165 
L 116.7232 134.300165 
z
" clip-path="url(#pb199fa0fcc)" style="fill: #1f77b4"/>
   </g>
   <g id="patch_64">
    <path d="M 117.7152 307.584 
L 118.5088 307.584 
L 118.5088 131.444126 
L 117.7152 131.444126 
z
" clip-path="url(#pb199fa0fcc)" style="fill: #1f77b4"/>
   </g>
   <g id="patch_65">
    <path d="M 118.7072 307.584 
L 119.5008 307.584 
L 119.5008 128.61482 
L 118.7072 128.61482 
z
" clip-path="url(#pb199fa0fcc)" style="fill: #1f77b4"/>
   </g>
   <g id="patch_66">
    <path d="M 119.6992 307.584 
L 120.4928 307.584 
L 120.4928 125.814284 
L 119.6992 125.814284 
z
" clip-path="url(#pb199fa0fcc)" style="fill: #1f77b4"/>
   </g>
   <g id="patch_67">
    <path d="M 120.6912 307.584 
L 121.4848 307.584 
L 121.4848 123.044532 
L 120.6912 123.044532 
z
" clip-path="url(#pb199fa0fcc)" style="fill: #1f77b4"/>
   </g>
   <g id="patch_68">
    <path d="M 121.6832 307.584 
L 122.4768 307.584 
L 122.4768 120.307547 
L 121.6832 120.307547 
z
" clip-path="url(#pb199fa0fcc)" style="fill: #1f77b4"/>
   </g>
   <g id="patch_69">
    <path d="M 122.6752 307.584 
L 123.4688 307.584 
L 123.4688 117.605279 
L 122.6752 117.605279 
z
" clip-path="url(#pb199fa0fcc)" style="fill: #1f77b4"/>
   </g>
   <g id="patch_70">
    <path d="M 123.6672 307.584 
L 124.4608 307.584 
L 124.4608 114.939647 
L 123.6672 114.939647 
z
" clip-path="url(#pb199fa0fcc)" style="fill: #1f77b4"/>
   </g>
   <g id="patch_71">
    <path d="M 124.6592 307.584 
L 125.4528 307.584 
L 125.4528 112.312534 
L 124.6592 112.312534 
z
" clip-path="url(#pb199fa0fcc)" style="fill: #1f77b4"/>
   </g>
   <g id="patch_72">
    <path d="M 125.6512 307.584 
L 126.4448 307.584 
L 126.4448 109.725783 
L 125.6512 109.725783 
z
" clip-path="url(#pb199fa0fcc)" style="fill: #1f77b4"/>
   </g>
   <g id="patch_73">
    <path d="M 126.6432 307.584 
L 127.4368 307.584 
L 127.4368 107.181197 
L 126.6432 107.181197 
z
" clip-path="url(#pb199fa0fcc)" style="fill: #1f77b4"/>
   </g>
   <g id="patch_74">
    <path d="M 127.6352 307.584 
L 128.4288 307.584 
L 128.4288 104.680538 
L 127.6352 104.680538 
z
" clip-path="url(#pb199fa0fcc)" style="fill: #1f77b4"/>
   </g>
   <g id="patch_75">
    <path d="M 128.6272 307.584 
L 129.4208 307.584 
L 129.4208 102.225522 
L 128.6272 102.225522 
z
" clip-path="url(#pb199fa0fcc)" style="fill: #1f77b4"/>
   </g>
   <g id="patch_76">
    <path d="M 129.6192 307.584 
L 130.4128 307.584 
L 130.4128 99.81782 
L 129.6192 99.81782 
z
" clip-path="url(#pb199fa0fcc)" style="fill: #1f77b4"/>
   </g>
   <g id="patch_77">
    <path d="M 130.6112 307.584 
L 131.4048 307.584 
L 131.4048 97.459054 
L 130.6112 97.459054 
z
" clip-path="url(#pb199fa0fcc)" style="fill: #1f77b4"/>
   </g>
   <g id="patch_78">
    <path d="M 131.6032 307.584 
L 132.3968 307.584 
L 132.3968 95.150797 
L 131.6032 95.150797 
z
" clip-path="url(#pb199fa0fcc)" style="fill: #1f77b4"/>
   </g>
   <g id="patch_79">
    <path d="M 132.5952 307.584 
L 133.3888 307.584 
L 133.3888 92.89457 
L 132.5952 92.89457 
z
" clip-path="url(#pb199fa0fcc)" style="fill: #1f77b4"/>
   </g>
   <g id="patch_80">
    <path d="M 133.5872 307.584 
L 134.3808 307.584 
L 134.3808 90.691842 
L 133.5872 90.691842 
z
" clip-path="url(#pb199fa0fcc)" style="fill: #1f77b4"/>
   </g>
   <g id="patch_81">
    <path d="M 134.5792 307.584 
L 135.3728 307.584 
L 135.3728 88.544028 
L 134.5792 88.544028 
z
" clip-path="url(#pb199fa0fcc)" style="fill: #1f77b4"/>
   </g>
   <g id="patch_82">
    <path d="M 135.5712 307.584 
L 136.3648 307.584 
L 136.3648 86.452486 
L 135.5712 86.452486 
z
" clip-path="url(#pb199fa0fcc)" style="fill: #1f77b4"/>
   </g>
   <g id="patch_83">
    <path d="M 136.5632 307.584 
L 137.3568 307.584 
L 137.3568 84.41852 
L 136.5632 84.41852 
z
" clip-path="url(#pb199fa0fcc)" style="fill: #1f77b4"/>
   </g>
   <g id="patch_84">
    <path d="M 137.5552 307.584 
L 138.3488 307.584 
L 138.3488 82.443373 
L 137.5552 82.443373 
z
" clip-path="url(#pb199fa0fcc)" style="fill: #1f77b4"/>
   </g>
   <g id="patch_85">
    <path d="M 138.5472 307.584 
L 139.3408 307.584 
L 139.3408 80.528233 
L 138.5472 80.528233 
z
" clip-path="url(#pb199fa0fcc)" style="fill: #1f77b4"/>
   </g>
   <g id="patch_86">
    <path d="M 139.5392 307.584 
L 140.3328 307.584 
L 140.3328 78.674225 
L 139.5392 78.674225 
z
" clip-path="url(#pb199fa0fcc)" style="fill: #1f77b4"/>
   </g>
   <g id="patch_87">
    <path d="M 140.5312 307.584 
L 141.3248 307.584 
L 141.3248 76.882416 
L 140.5312 76.882416 
z
" clip-path="url(#pb199fa0fcc)" style="fill: #1f77b4"/>
   </g>
   <g id="patch_88">
    <path d="M 141.5232 307.584 
L 142.3168 307.584 
L 142.3168 75.15381 
L 141.5232 75.15381 
z
" clip-path="url(#pb199fa0fcc)" style="fill: #1f77b4"/>
   </g>
   <g id="patch_89">
    <path d="M 142.5152 307.584 
L 143.3088 307.584 
L 143.3088 73.489351 
L 142.5152 73.489351 
z
" clip-path="url(#pb199fa0fcc)" style="fill: #1f77b4"/>
   </g>
   <g id="patch_90">
    <path d="M 143.5072 307.584 
L 144.3008 307.584 
L 144.3008 71.889921 
L 143.5072 71.889921 
z
" clip-path="url(#pb199fa0fcc)" style="fill: #1f77b4"/>
   </g>
   <g id="patch_91">
    <path d="M 144.4992 307.584 
L 145.2928 307.584 
L 145.2928 70.356337 
L 144.4992 70.356337 
z
" clip-path="url(#pb199fa0fcc)" style="fill: #1f77b4"/>
   </g>
   <g id="patch_92">
    <path d="M 145.4912 307.584 
L 146.2848 307.584 
L 146.2848 68.889356 
L 145.4912 68.889356 
z
" clip-path="url(#pb199fa0fcc)" style="fill: #1f77b4"/>
   </g>
   <g id="patch_93">
    <path d="M 146.4832 307.584 
L 147.2768 307.584 
L 147.2768 67.489671 
L 146.4832 67.489671 
z
" clip-path="url(#pb199fa0fcc)" style="fill: #1f77b4"/>
   </g>
   <g id="patch_94">
    <path d="M 147.4752 307.584 
L 148.2688 307.584 
L 148.2688 66.15791 
L 147.4752 66.15791 
z
" clip-path="url(#pb199fa0fcc)" style="fill: #1f77b4"/>
   </g>
   <g id="patch_95">
    <path d="M 148.4672 307.584 
L 149.2608 307.584 
L 149.2608 64.894642 
L 148.4672 64.894642 
z
" clip-path="url(#pb199fa0fcc)" style="fill: #1f77b4"/>
   </g>
   <g id="patch_96">
    <path d="M 149.4592 307.584 
L 150.2528 307.584 
L 150.2528 63.700369 
L 149.4592 63.700369 
z
" clip-path="url(#pb199fa0fcc)" style="fill: #1f77b4"/>
   </g>
   <g id="patch_97">
    <path d="M 150.4512 307.584 
L 151.2448 307.584 
L 151.2448 62.575532 
L 150.4512 62.575532 
z
" clip-path="url(#pb199fa0fcc)" style="fill: #1f77b4"/>
   </g>
   <g id="patch_98">
    <path d="M 151.4432 307.584 
L 152.2368 307.584 
L 152.2368 61.520508 
L 151.4432 61.520508 
z
" clip-path="url(#pb199fa0fcc)" style="fill: #1f77b4"/>
   </g>
   <g id="patch_99">
    <path d="M 152.4352 307.584 
L 153.2288 307.584 
L 153.2288 60.535614 
L 152.4352 60.535614 
z
" clip-path="url(#pb199fa0fcc)" style="fill: #1f77b4"/>
   </g>
   <g id="patch_100">
    <path d="M 153.4272 307.584 
L 154.2208 307.584 
L 154.2208 59.621103 
L 153.4272 59.621103 
z
" clip-path="url(#pb199fa0fcc)" style="fill: #1f77b4"/>
   </g>
   <g id="patch_101">
    <path d="M 154.4192 307.584 
L 155.2128 307.584 
L 155.2128 58.777167 
L 154.4192 58.777167 
z
" clip-path="url(#pb199fa0fcc)" style="fill: #1f77b4"/>
   </g>
   <g id="patch_102">
    <path d="M 155.4112 307.584 
L 156.2048 307.584 
L 156.2048 58.003937 
L 155.4112 58.003937 
z
" clip-path="url(#pb199fa0fcc)" style="fill: #1f77b4"/>
   </g>
   <g id="patch_103">
    <path d="M 156.4032 307.584 
L 157.1968 307.584 
L 157.1968 57.301486 
L 156.4032 57.301486 
z
" clip-path="url(#pb199fa0fcc)" style="fill: #1f77b4"/>
   </g>
   <g id="patch_104">
    <path d="M 157.3952 307.584 
L 158.1888 307.584 
L 158.1888 56.669823 
L 157.3952 56.669823 
z
" clip-path="url(#pb199fa0fcc)" style="fill: #1f77b4"/>
   </g>
   <g id="patch_105">
    <path d="M 158.3872 307.584 
L 159.1808 307.584 
L 159.1808 56.108903 
L 158.3872 56.108903 
z
" clip-path="url(#pb199fa0fcc)" style="fill: #1f77b4"/>
   </g>
   <g id="patch_106">
    <path d="M 159.3792 307.584 
L 160.1728 307.584 
L 160.1728 55.618621 
L 159.3792 55.618621 
z
" clip-path="url(#pb199fa0fcc)" style="fill: #1f77b4"/>
   </g>
   <g id="patch_107">
    <path d="M 160.3712 307.584 
L 161.1648 307.584 
L 161.1648 55.198815 
L 160.3712 55.198815 
z
" clip-path="url(#pb199fa0fcc)" style="fill: #1f77b4"/>
   </g>
   <g id="patch_108">
    <path d="M 161.3632 307.584 
L 162.1568 307.584 
L 162.1568 54.849267 
L 161.3632 54.849267 
z
" clip-path="url(#pb199fa0fcc)" style="fill: #1f77b4"/>
   </g>
   <g id="patch_109">
    <path d="M 162.3552 307.584 
L 163.1488 307.584 
L 163.1488 54.569705 
L 162.3552 54.569705 
z
" clip-path="url(#pb199fa0fcc)" style="fill: #1f77b4"/>
   </g>
   <g id="patch_110">
    <path d="M 163.3472 307.584 
L 164.1408 307.584 
L 164.1408 54.359802 
L 163.3472 54.359802 
z
" clip-path="url(#pb199fa0fcc)" style="fill: #1f77b4"/>
   </g>
   <g id="patch_111">
    <path d="M 164.3392 307.584 
L 165.1328 307.584 
L 165.1328 54.219178 
L 164.3392 54.219178 
z
" clip-path="url(#pb199fa0fcc)" style="fill: #1f77b4"/>
   </g>
   <g id="patch_112">
    <path d="M 165.3312 307.584 
L 166.1248 307.584 
L 166.1248 54.147405 
L 165.3312 54.147405 
z
" clip-path="url(#pb199fa0fcc)" style="fill: #1f77b4"/>
   </g>
   <g id="patch_113">
    <path d="M 166.3232 307.584 
L 167.1168 307.584 
L 167.1168 54.144 
L 166.3232 54.144 
z
" clip-path="url(#pb199fa0fcc)" style="fill: #1f77b4"/>
   </g>
   <g id="patch_114">
    <path d="M 167.3152 307.584 
L 168.1088 307.584 
L 168.1088 54.208434 
L 167.3152 54.208434 
z
" clip-path="url(#pb199fa0fcc)" style="fill: #1f77b4"/>
   </g>
   <g id="patch_115">
    <path d="M 168.3072 307.584 
L 169.1008 307.584 
L 169.1008 54.340129 
L 168.3072 54.340129 
z
" clip-path="url(#pb199fa0fcc)" style="fill: #1f77b4"/>
   </g>
   <g id="patch_116">
    <path d="M 169.2992 307.584 
L 170.0928 307.584 
L 170.0928 54.538462 
L 169.2992 54.538462 
z
" clip-path="url(#pb199fa0fcc)" style="fill: #1f77b4"/>
   </g>
   <g id="patch_117">
    <path d="M 170.2912 307.584 
L 171.0848 307.584 
L 171.0848 54.802764 
L 170.2912 54.802764 
z
" clip-path="url(#pb199fa0fcc)" style="fill: #1f77b4"/>
   </g>
   <g id="patch_118">
    <path d="M 171.2832 307.584 
L 172.0768 307.584 
L 172.0768 55.132322 
L 171.2832 55.132322 
z
" clip-path="url(#pb199fa0fcc)" style="fill: #1f77b4"/>
   </g>
   <g id="patch_119">
    <path d="M 172.2752 307.584 
L 173.0688 307.584 
L 173.0688 55.526383 
L 172.2752 55.526383 
z
" clip-path="url(#pb199fa0fcc)" style="fill: #1f77b4"/>
   </g>
   <g id="patch_120">
    <path d="M 173.2672 307.584 
L 174.0608 307.584 
L 174.0608 55.984151 
L 173.2672 55.984151 
z
" clip-path="url(#pb199fa0fcc)" style="fill: #1f77b4"/>
   </g>
   <g id="patch_121">
    <path d="M 174.2592 307.584 
L 175.0528 307.584 
L 175.0528 56.504793 
L 174.2592 56.504793 
z
" clip-path="url(#pb199fa0fcc)" style="fill: #1f77b4"/>
   </g>
   <g id="patch_122">
    <path d="M 175.2512 307.584 
L 176.0448 307.584 
L 176.0448 57.087438 
L 175.2512 57.087438 
z
" clip-path="url(#pb199fa0fcc)" style="fill: #1f77b4"/>
   </g>
   <g id="patch_123">
    <path d="M 176.2432 307.584 
L 177.0368 307.584 
L 177.0368 57.731177 
L 176.2432 57.731177 
z
" clip-path="url(#pb199fa0fcc)" style="fill: #1f77b4"/>
   </g>
   <g id="patch_124">
    <path d="M 177.2352 307.584 
L 178.0288 307.584 
L 178.0288 58.435069 
L 177.2352 58.435069 
z
" clip-path="url(#pb199fa0fcc)" style="fill: #1f77b4"/>
   </g>
   <g id="patch_125">
    <path d="M 178.2272 307.584 
L 179.0208 307.584 
L 179.0208 59.19814 
L 178.2272 59.19814 
z
" clip-path="url(#pb199fa0fcc)" style="fill: #1f77b4"/>
   </g>
   <g id="patch_126">
    <path d="M 179.2192 307.584 
L 180.0128 307.584 
L 180.0128 60.019382 
L 179.2192 60.019382 
z
" clip-path="url(#pb199fa0fcc)" style="fill: #1f77b4"/>
   </g>
   <g id="patch_127">
    <path d="M 180.2112 307.584 
L 181.0048 307.584 
L 181.0048 60.897759 
L 180.2112 60.897759 
z
" clip-path="url(#pb199fa0fcc)" style="fill: #1f77b4"/>
   </g>
   <g id="patch_128">
    <path d="M 181.2032 307.584 
L 181.9968 307.584 
L 181.9968 61.832209 
L 181.2032 61.832209 
z
" clip-path="url(#pb199fa0fcc)" style="fill: #1f77b4"/>
   </g>
   <g id="patch_129">
    <path d="M 182.1952 307.584 
L 182.9888 307.584 
L 182.9888 62.821638 
L 182.1952 62.821638 
z
" clip-path="url(#pb199fa0fcc)" style="fill: #1f77b4"/>
   </g>
   <g id="patch_130">
    <path d="M 183.1872 307.584 
L 183.9808 307.584 
L 183.9808 63.864932 
L 183.1872 63.864932 
z
" clip-path="url(#pb199fa0fcc)" style="fill: #1f77b4"/>
   </g>
   <g id="patch_131">
    <path d="M 184.1792 307.584 
L 184.9728 307.584 
L 184.9728 64.960952 
L 184.1792 64.960952 
z
" clip-path="url(#pb199fa0fcc)" style="fill: #1f77b4"/>
   </g>
   <g id="patch_132">
    <path d="M 185.1712 307.584 
L 185.9648 307.584 
L 185.9648 66.108535 
L 185.1712 66.108535 
z
" clip-path="url(#pb199fa0fcc)" style="fill: #1f77b4"/>
   </g>
   <g id="patch_133">
    <path d="M 186.1632 307.584 
L 186.9568 307.584 
L 186.9568 67.306499 
L 186.1632 67.306499 
z
" clip-path="url(#pb199fa0fcc)" style="fill: #1f77b4"/>
   </g>
   <g id="patch_134">
    <path d="M 187.1552 307.584 
L 187.9488 307.584 
L 187.9488 68.553645 
L 187.1552 68.553645 
z
" clip-path="url(#pb199fa0fcc)" style="fill: #1f77b4"/>
   </g>
   <g id="patch_135">
    <path d="M 188.1472 307.584 
L 188.9408 307.584 
L 188.9408 69.848755 
L 188.1472 69.848755 
z
" clip-path="url(#pb199fa0fcc)" style="fill: #1f77b4"/>
   </g>
   <g id="patch_136">
    <path d="M 189.1392 307.584 
L 189.9328 307.584 
L 189.9328 71.190593 
L 189.1392 71.190593 
z
" clip-path="url(#pb199fa0fcc)" style="fill: #1f77b4"/>
   </g>
   <g id="patch_137">
    <path d="M 190.1312 307.584 
L 190.9248 307.584 
L 190.9248 72.577914 
L 190.1312 72.577914 
z
" clip-path="url(#pb199fa0fcc)" style="fill: #1f77b4"/>
   </g>
   <g id="patch_138">
    <path d="M 191.1232 307.584 
L 191.9168 307.584 
L 191.9168 74.009455 
L 191.1232 74.009455 
z
" clip-path="url(#pb199fa0fcc)" style="fill: #1f77b4"/>
   </g>
   <g id="patch_139">
    <path d="M 192.1152 307.584 
L 192.9088 307.584 
L 192.9088 75.483945 
L 192.1152 75.483945 
z
" clip-path="url(#pb199fa0fcc)" style="fill: #1f77b4"/>
   </g>
   <g id="patch_140">
    <path d="M 193.1072 307.584 
L 193.9008 307.584 
L 193.9008 77.000102 
L 193.1072 77.000102 
z
" clip-path="url(#pb199fa0fcc)" style="fill: #1f77b4"/>
   </g>
   <g id="patch_141">
    <path d="M 194.0992 307.584 
L 194.8928 307.584 
L 194.8928 78.556635 
L 194.0992 78.556635 
z
" clip-path="url(#pb199fa0fcc)" style="fill: #1f77b4"/>
   </g>
   <g id="patch_142">
    <path d="M 195.0912 307.584 
L 195.8848 307.584 
L 195.8848 80.152247 
L 195.0912 80.152247 
z
" clip-path="url(#pb199fa0fcc)" style="fill: #1f77b4"/>
   </g>
   <g id="patch_143">
    <path d="M 196.0832 307.584 
L 196.8768 307.584 
L 196.8768 81.785634 
L 196.0832 81.785634 
z
" clip-path="url(#pb199fa0fcc)" style="fill: #1f77b4"/>
   </g>
   <g id="patch_144">
    <path d="M 197.0752 307.584 
L 197.8688 307.584 
L 197.8688 83.455491 
L 197.0752 83.455491 
z
" clip-path="url(#pb199fa0fcc)" style="fill: #1f77b4"/>
   </g>
   <g id="patch_145">
    <path d="M 198.0672 307.584 
L 198.8608 307.584 
L 198.8608 85.160505 
L 198.0672 85.160505 
z
" clip-path="url(#pb199fa0fcc)" style="fill: #1f77b4"/>
   </g>
   <g id="patch_146">
    <path d="M 199.0592 307.584 
L 199.8528 307.584 
L 199.8528 86.899365 
L 199.0592 86.899365 
z
" clip-path="url(#pb199fa0fcc)" style="fill: #1f77b4"/>
   </g>
   <g id="patch_147">
    <path d="M 200.0512 307.584 
L 200.8448 307.584 
L 200.8448 88.670758 
L 200.0512 88.670758 
z
" clip-path="url(#pb199fa0fcc)" style="fill: #1f77b4"/>
   </g>
   <g id="patch_148">
    <path d="M 201.0432 307.584 
L 201.8368 307.584 
L 201.8368 90.473373 
L 201.0432 90.473373 
z
" clip-path="url(#pb199fa0fcc)" style="fill: #1f77b4"/>
   </g>
   <g id="patch_149">
    <path d="M 202.0352 307.584 
L 202.8288 307.584 
L 202.8288 92.305899 
L 202.0352 92.305899 
z
" clip-path="url(#pb199fa0fcc)" style="fill: #1f77b4"/>
   </g>
   <g id="patch_150">
    <path d="M 203.0272 307.584 
L 203.8208 307.584 
L 203.8208 94.167031 
L 203.0272 94.167031 
z
" clip-path="url(#pb199fa0fcc)" style="fill: #1f77b4"/>
   </g>
   <g id="patch_151">
    <path d="M 204.0192 307.584 
L 204.8128 307.584 
L 204.8128 96.055465 
L 204.0192 96.055465 
z
" clip-path="url(#pb199fa0fcc)" style="fill: #1f77b4"/>
   </g>
   <g id="patch_152">
    <path d="M 205.0112 307.584 
L 205.8048 307.584 
L 205.8048 97.969905 
L 205.0112 97.969905 
z
" clip-path="url(#pb199fa0fcc)" style="fill: #1f77b4"/>
   </g>
   <g id="patch_153">
    <path d="M 206.0032 307.584 
L 206.7968 307.584 
L 206.7968 99.909061 
L 206.0032 99.909061 
z
" clip-path="url(#pb199fa0fcc)" style="fill: #1f77b4"/>
   </g>
   <g id="patch_154">
    <path d="M 206.9952 307.584 
L 207.7888 307.584 
L 207.7888 101.87165 
L 206.9952 101.87165 
z
" clip-path="url(#pb199fa0fcc)" style="fill: #1f77b4"/>
   </g>
   <g id="patch_155">
    <path d="M 207.9872 307.584 
L 208.7808 307.584 
L 208.7808 103.856397 
L 207.9872 103.856397 
z
" clip-path="url(#pb199fa0fcc)" style="fill: #1f77b4"/>
   </g>
   <g id="patch_156">
    <path d="M 208.9792 307.584 
L 209.7728 307.584 
L 209.7728 105.862037 
L 208.9792 105.862037 
z
" clip-path="url(#pb199fa0fcc)" style="fill: #1f77b4"/>
   </g>
   <g id="patch_157">
    <path d="M 209.9712 307.584 
L 210.7648 307.584 
L 210.7648 107.887316 
L 209.9712 107.887316 
z
" clip-path="url(#pb199fa0fcc)" style="fill: #1f77b4"/>
   </g>
   <g id="patch_158">
    <path d="M 210.9632 307.584 
L 211.7568 307.584 
L 211.7568 109.930991 
L 210.9632 109.930991 
z
" clip-path="url(#pb199fa0fcc)" style="fill: #1f77b4"/>
   </g>
   <g id="patch_159">
    <path d="M 211.9552 307.584 
L 212.7488 307.584 
L 212.7488 111.991831 
L 211.9552 111.991831 
z
" clip-path="url(#pb199fa0fcc)" style="fill: #1f77b4"/>
   </g>
   <g id="patch_160">
    <path d="M 212.9472 307.584 
L 213.7408 307.584 
L 213.7408 114.068618 
L 212.9472 114.068618 
z
" clip-path="url(#pb199fa0fcc)" style="fill: #1f77b4"/>
   </g>
   <g id="patch_161">
    <path d="M 213.9392 307.584 
L 214.7328 307.584 
L 214.7328 116.160147 
L 213.9392 116.160147 
z
" clip-path="url(#pb199fa0fcc)" style="fill: #1f77b4"/>
   </g>
   <g id="patch_162">
    <path d="M 214.9312 307.584 
L 215.7248 307.584 
L 215.7248 118.265229 
L 214.9312 118.265229 
z
" clip-path="url(#pb199fa0fcc)" style="fill: #1f77b4"/>
   </g>
   <g id="patch_163">
    <path d="M 215.9232 307.584 
L 216.7168 307.584 
L 216.7168 120.38269 
L 215.9232 120.38269 
z
" clip-path="url(#pb199fa0fcc)" style="fill: #1f77b4"/>
   </g>
   <g id="patch_164">
    <path d="M 216.9152 307.584 
L 217.7088 307.584 
L 217.7088 122.51137 
L 216.9152 122.51137 
z
" clip-path="url(#pb199fa0fcc)" style="fill: #1f77b4"/>
   </g>
   <g id="patch_165">
    <path d="M 217.9072 307.584 
L 218.7008 307.584 
L 218.7008 124.650128 
L 217.9072 124.650128 
z
" clip-path="url(#pb199fa0fcc)" style="fill: #1f77b4"/>
   </g>
   <g id="patch_166">
    <path d="M 218.8992 307.584 
L 219.6928 307.584 
L 219.6928 126.797839 
L 218.8992 126.797839 
z
" clip-path="url(#pb199fa0fcc)" style="fill: #1f77b4"/>
   </g>
   <g id="patch_167">
    <path d="M 219.8912 307.584 
L 220.6848 307.584 
L 220.6848 128.953396 
L 219.8912 128.953396 
z
" clip-path="url(#pb199fa0fcc)" style="fill: #1f77b4"/>
   </g>
   <g id="patch_168">
    <path d="M 220.8832 307.584 
L 221.6768 307.584 
L 221.6768 131.11571 
L 220.8832 131.11571 
z
" clip-path="url(#pb199fa0fcc)" style="fill: #1f77b4"/>
   </g>
   <g id="patch_169">
    <path d="M 221.8752 307.584 
L 222.6688 307.584 
L 222.6688 133.283711 
L 221.8752 133.283711 
z
" clip-path="url(#pb199fa0fcc)" style="fill: #1f77b4"/>
   </g>
   <g id="patch_170">
    <path d="M 222.8672 307.584 
L 223.6608 307.584 
L 223.6608 135.456347 
L 222.8672 135.456347 
z
" clip-path="url(#pb199fa0fcc)" style="fill: #1f77b4"/>
   </g>
   <g id="patch_171">
    <path d="M 223.8592 307.584 
L 224.6528 307.584 
L 224.6528 137.632589 
L 223.8592 137.632589 
z
" clip-path="url(#pb199fa0fcc)" style="fill: #1f77b4"/>
   </g>
   <g id="patch_172">
    <path d="M 224.8512 307.584 
L 225.6448 307.584 
L 225.6448 139.811425 
L 224.8512 139.811425 
z
" clip-path="url(#pb199fa0fcc)" style="fill: #1f77b4"/>
   </g>
   <g id="patch_173">
    <path d="M 225.8432 307.584 
L 226.6368 307.584 
L 226.6368 141.991864 
L 225.8432 141.991864 
z
" clip-path="url(#pb199fa0fcc)" style="fill: #1f77b4"/>
   </g>
   <g id="patch_174">
    <path d="M 226.8352 307.584 
L 227.6288 307.584 
L 227.6288 144.172937 
L 226.8352 144.172937 
z
" clip-path="url(#pb199fa0fcc)" style="fill: #1f77b4"/>
   </g>
   <g id="patch_175">
    <path d="M 227.8272 307.584 
L 228.6208 307.584 
L 228.6208 146.353694 
L 227.8272 146.353694 
z
" clip-path="url(#pb199fa0fcc)" style="fill: #1f77b4"/>
   </g>
   <g id="patch_176">
    <path d="M 228.8192 307.584 
L 229.6128 307.584 
L 229.6128 148.533209 
L 228.8192 148.533209 
z
" clip-path="url(#pb199fa0fcc)" style="fill: #1f77b4"/>
   </g>
   <g id="patch_177">
    <path d="M 229.8112 307.584 
L 230.6048 307.584 
L 230.6048 150.710575 
L 229.8112 150.710575 
z
" clip-path="url(#pb199fa0fcc)" style="fill: #1f77b4"/>
   </g>
   <g id="patch_178">
    <path d="M 230.8032 307.584 
L 231.5968 307.584 
L 231.5968 152.884909 
L 230.8032 152.884909 
z
" clip-path="url(#pb199fa0fcc)" style="fill: #1f77b4"/>
   </g>
   <g id="patch_179">
    <path d="M 231.7952 307.584 
L 232.5888 307.584 
L 232.5888 155.055349 
L 231.7952 155.055349 
z
" clip-path="url(#pb199fa0fcc)" style="fill: #1f77b4"/>
   </g>
   <g id="patch_180">
    <path d="M 232.7872 307.584 
L 233.5808 307.584 
L 233.5808 157.221054 
L 232.7872 157.221054 
z
" clip-path="url(#pb199fa0fcc)" style="fill: #1f77b4"/>
   </g>
   <g id="patch_181">
    <path d="M 233.7792 307.584 
L 234.5728 307.584 
L 234.5728 159.381209 
L 233.7792 159.381209 
z
" clip-path="url(#pb199fa0fcc)" style="fill: #1f77b4"/>
   </g>
   <g id="patch_182">
    <path d="M 234.7712 307.584 
L 235.5648 307.584 
L 235.5648 161.535016 
L 234.7712 161.535016 
z
" clip-path="url(#pb199fa0fcc)" style="fill: #1f77b4"/>
   </g>
   <g id="patch_183">
    <path d="M 235.7632 307.584 
L 236.5568 307.584 
L 236.5568 163.681705 
L 235.7632 163.681705 
z
" clip-path="url(#pb199fa0fcc)" style="fill: #1f77b4"/>
   </g>
   <g id="patch_184">
    <path d="M 236.7552 307.584 
L 237.5488 307.584 
L 237.5488 165.820524 
L 236.7552 165.820524 
z
" clip-path="url(#pb199fa0fcc)" style="fill: #1f77b4"/>
   </g>
   <g id="patch_185">
    <path d="M 237.7472 307.584 
L 238.5408 307.584 
L 238.5408 167.950747 
L 237.7472 167.950747 
z
" clip-path="url(#pb199fa0fcc)" style="fill: #1f77b4"/>
   </g>
   <g id="patch_186">
    <path d="M 238.7392 307.584 
L 239.5328 307.584 
L 239.5328 170.071668 
L 238.7392 170.071668 
z
" clip-path="url(#pb199fa0fcc)" style="fill: #1f77b4"/>
   </g>
   <g id="patch_187">
    <path d="M 239.7312 307.584 
L 240.5248 307.584 
L 240.5248 172.182604 
L 239.7312 172.182604 
z
" clip-path="url(#pb199fa0fcc)" style="fill: #1f77b4"/>
   </g>
   <g id="patch_188">
    <path d="M 240.7232 307.584 
L 241.5168 307.584 
L 241.5168 174.282897 
L 240.7232 174.282897 
z
" clip-path="url(#pb199fa0fcc)" style="fill: #1f77b4"/>
   </g>
   <g id="patch_189">
    <path d="M 241.7152 307.584 
L 242.5088 307.584 
L 242.5088 176.371908 
L 241.7152 176.371908 
z
" clip-path="url(#pb199fa0fcc)" style="fill: #1f77b4"/>
   </g>
   <g id="patch_190">
    <path d="M 242.7072 307.584 
L 243.5008 307.584 
L 243.5008 178.449023 
L 242.7072 178.449023 
z
" clip-path="url(#pb199fa0fcc)" style="fill: #1f77b4"/>
   </g>
   <g id="patch_191">
    <path d="M 243.6992 307.584 
L 244.4928 307.584 
L 244.4928 180.513648 
L 243.6992 180.513648 
z
" clip-path="url(#pb199fa0fcc)" style="fill: #1f77b4"/>
   </g>
   <g id="patch_192">
    <path d="M 244.6912 307.584 
L 245.4848 307.584 
L 245.4848 182.565212 
L 244.6912 182.565212 
z
" clip-path="url(#pb199fa0fcc)" style="fill: #1f77b4"/>
   </g>
   <g id="patch_193">
    <path d="M 245.6832 307.584 
L 246.4768 307.584 
L 246.4768 184.603167 
L 245.6832 184.603167 
z
" clip-path="url(#pb199fa0fcc)" style="fill: #1f77b4"/>
   </g>
   <g id="patch_194">
    <path d="M 246.6752 307.584 
L 247.4688 307.584 
L 247.4688 186.626986 
L 246.6752 186.626986 
z
" clip-path="url(#pb199fa0fcc)" style="fill: #1f77b4"/>
   </g>
   <g id="patch_195">
    <path d="M 247.6672 307.584 
L 248.4608 307.584 
L 248.4608 188.636162 
L 247.6672 188.636162 
z
" clip-path="url(#pb199fa0fcc)" style="fill: #1f77b4"/>
   </g>
   <g id="patch_196">
    <path d="M 248.6592 307.584 
L 249.4528 307.584 
L 249.4528 190.630213 
L 248.6592 190.630213 
z
" clip-path="url(#pb199fa0fcc)" style="fill: #1f77b4"/>
   </g>
   <g id="patch_197">
    <path d="M 249.6512 307.584 
L 250.4448 307.584 
L 250.4448 192.608675 
L 249.6512 192.608675 
z
" clip-path="url(#pb199fa0fcc)" style="fill: #1f77b4"/>
   </g>
   <g id="patch_198">
    <path d="M 250.6432 307.584 
L 251.4368 307.584 
L 251.4368 194.571107 
L 250.6432 194.571107 
z
" clip-path="url(#pb199fa0fcc)" style="fill: #1f77b4"/>
   </g>
   <g id="patch_199">
    <path d="M 251.6352 307.584 
L 252.4288 307.584 
L 252.4288 196.517088 
L 251.6352 196.517088 
z
" clip-path="url(#pb199fa0fcc)" style="fill: #1f77b4"/>
   </g>
   <g id="patch_200">
    <path d="M 252.6272 307.584 
L 253.4208 307.584 
L 253.4208 198.446216 
L 252.6272 198.446216 
z
" clip-path="url(#pb199fa0fcc)" style="fill: #1f77b4"/>
   </g>
   <g id="patch_201">
    <path d="M 253.6192 307.584 
L 254.4128 307.584 
L 254.4128 200.358112 
L 253.6192 200.358112 
z
" clip-path="url(#pb199fa0fcc)" style="fill: #1f77b4"/>
   </g>
   <g id="patch_202">
    <path d="M 254.6112 307.584 
L 255.4048 307.584 
L 255.4048 202.252416 
L 254.6112 202.252416 
z
" clip-path="url(#pb199fa0fcc)" style="fill: #1f77b4"/>
   </g>
   <g id="patch_203">
    <path d="M 255.6032 307.584 
L 256.3968 307.584 
L 256.3968 204.128786 
L 255.6032 204.128786 
z
" clip-path="url(#pb199fa0fcc)" style="fill: #1f77b4"/>
   </g>
   <g id="patch_204">
    <path d="M 256.5952 307.584 
L 257.3888 307.584 
L 257.3888 205.986902 
L 256.5952 205.986902 
z
" clip-path="url(#pb199fa0fcc)" style="fill: #1f77b4"/>
   </g>
   <g id="patch_205">
    <path d="M 257.5872 307.584 
L 258.3808 307.584 
L 258.3808 207.826461 
L 257.5872 207.826461 
z
" clip-path="url(#pb199fa0fcc)" style="fill: #1f77b4"/>
   </g>
   <g id="patch_206">
    <path d="M 258.5792 307.584 
L 259.3728 307.584 
L 259.3728 209.647181 
L 258.5792 209.647181 
z
" clip-path="url(#pb199fa0fcc)" style="fill: #1f77b4"/>
   </g>
   <g id="patch_207">
    <path d="M 259.5712 307.584 
L 260.3648 307.584 
L 260.3648 211.448796 
L 259.5712 211.448796 
z
" clip-path="url(#pb199fa0fcc)" style="fill: #1f77b4"/>
   </g>
   <g id="patch_208">
    <path d="M 260.5632 307.584 
L 261.3568 307.584 
L 261.3568 213.231058 
L 260.5632 213.231058 
z
" clip-path="url(#pb199fa0fcc)" style="fill: #1f77b4"/>
   </g>
   <g id="patch_209">
    <path d="M 261.5552 307.584 
L 262.3488 307.584 
L 262.3488 214.993741 
L 261.5552 214.993741 
z
" clip-path="url(#pb199fa0fcc)" style="fill: #1f77b4"/>
   </g>
   <g id="patch_210">
    <path d="M 262.5472 307.584 
L 263.3408 307.584 
L 263.3408 216.73663 
L 262.5472 216.73663 
z
" clip-path="url(#pb199fa0fcc)" style="fill: #1f77b4"/>
   </g>
   <g id="patch_211">
    <path d="M 263.5392 307.584 
L 264.3328 307.584 
L 264.3328 218.459533 
L 263.5392 218.459533 
z
" clip-path="url(#pb199fa0fcc)" style="fill: #1f77b4"/>
   </g>
   <g id="patch_212">
    <path d="M 264.5312 307.584 
L 265.3248 307.584 
L 265.3248 220.162271 
L 264.5312 220.162271 
z
" clip-path="url(#pb199fa0fcc)" style="fill: #1f77b4"/>
   </g>
   <g id="patch_213">
    <path d="M 265.5232 307.584 
L 266.3168 307.584 
L 266.3168 221.844683 
L 265.5232 221.844683 
z
" clip-path="url(#pb199fa0fcc)" style="fill: #1f77b4"/>
   </g>
   <g id="patch_214">
    <path d="M 266.5152 307.584 
L 267.3088 307.584 
L 267.3088 223.506623 
L 266.5152 223.506623 
z
" clip-path="url(#pb199fa0fcc)" style="fill: #1f77b4"/>
   </g>
   <g id="patch_215">
    <path d="M 267.5072 307.584 
L 268.3008 307.584 
L 268.3008 225.147962 
L 267.5072 225.147962 
z
" clip-path="url(#pb199fa0fcc)" style="fill: #1f77b4"/>
   </g>
   <g id="patch_216">
    <path d="M 268.4992 307.584 
L 269.2928 307.584 
L 269.2928 226.768584 
L 268.4992 226.768584 
z
" clip-path="url(#pb199fa0fcc)" style="fill: #1f77b4"/>
   </g>
   <g id="patch_217">
    <path d="M 269.4912 307.584 
L 270.2848 307.584 
L 270.2848 228.368391 
L 269.4912 228.368391 
z
" clip-path="url(#pb199fa0fcc)" style="fill: #1f77b4"/>
   </g>
   <g id="patch_218">
    <path d="M 270.4832 307.584 
L 271.2768 307.584 
L 271.2768 229.947297 
L 270.4832 229.947297 
z
" clip-path="url(#pb199fa0fcc)" style="fill: #1f77b4"/>
   </g>
   <g id="patch_219">
    <path d="M 271.4752 307.584 
L 272.2688 307.584 
L 272.2688 231.505232 
L 271.4752 231.505232 
z
" clip-path="url(#pb199fa0fcc)" style="fill: #1f77b4"/>
   </g>
   <g id="patch_220">
    <path d="M 272.4672 307.584 
L 273.2608 307.584 
L 273.2608 233.042138 
L 272.4672 233.042138 
z
" clip-path="url(#pb199fa0fcc)" style="fill: #1f77b4"/>
   </g>
   <g id="patch_221">
    <path d="M 273.4592 307.584 
L 274.2528 307.584 
L 274.2528 234.55797 
L 273.4592 234.55797 
z
" clip-path="url(#pb199fa0fcc)" style="fill: #1f77b4"/>
   </g>
   <g id="patch_222">
    <path d="M 274.4512 307.584 
L 275.2448 307.584 
L 275.2448 236.0527 
L 274.4512 236.0527 
z
" clip-path="url(#pb199fa0fcc)" style="fill: #1f77b4"/>
   </g>
   <g id="patch_223">
    <path d="M 275.4432 307.584 
L 276.2368 307.584 
L 276.2368 237.526308 
L 275.4432 237.526308 
z
" clip-path="url(#pb199fa0fcc)" style="fill: #1f77b4"/>
   </g>
   <g id="patch_224">
    <path d="M 276.4352 307.584 
L 277.2288 307.584 
L 277.2288 238.978788 
L 276.4352 238.978788 
z
" clip-path="url(#pb199fa0fcc)" style="fill: #1f77b4"/>
   </g>
   <g id="patch_225">
    <path d="M 277.4272 307.584 
L 278.2208 307.584 
L 278.2208 240.410147 
L 277.4272 240.410147 
z
" clip-path="url(#pb199fa0fcc)" style="fill: #1f77b4"/>
   </g>
   <g id="patch_226">
    <path d="M 278.4192 307.584 
L 279.2128 307.584 
L 279.2128 241.820403 
L 278.4192 241.820403 
z
" clip-path="url(#pb199fa0fcc)" style="fill: #1f77b4"/>
   </g>
   <g id="patch_227">
    <path d="M 279.4112 307.584 
L 280.2048 307.584 
L 280.2048 243.209583 
L 279.4112 243.209583 
z
" clip-path="url(#pb199fa0fcc)" style="fill: #1f77b4"/>
   </g>
   <g id="patch_228">
    <path d="M 280.4032 307.584 
L 281.1968 307.584 
L 281.1968 244.577728 
L 280.4032 244.577728 
z
" clip-path="url(#pb199fa0fcc)" style="fill: #1f77b4"/>
   </g>
   <g id="patch_229">
    <path d="M 281.3952 307.584 
L 282.1888 307.584 
L 282.1888 245.924887 
L 281.3952 245.924887 
z
" clip-path="url(#pb199fa0fcc)" style="fill: #1f77b4"/>
   </g>
   <g id="patch_230">
    <path d="M 282.3872 307.584 
L 283.1808 307.584 
L 283.1808 247.251121 
L 282.3872 247.251121 
z
" clip-path="url(#pb199fa0fcc)" style="fill: #1f77b4"/>
   </g>
   <g id="patch_231">
    <path d="M 283.3792 307.584 
L 284.1728 307.584 
L 284.1728 248.556499 
L 283.3792 248.556499 
z
" clip-path="url(#pb199fa0fcc)" style="fill: #1f77b4"/>
   </g>
   <g id="patch_232">
    <path d="M 284.3712 307.584 
L 285.1648 307.584 
L 285.1648 249.8411 
L 284.3712 249.8411 
z
" clip-path="url(#pb199fa0fcc)" style="fill: #1f77b4"/>
   </g>
   <g id="patch_233">
    <path d="M 285.3632 307.584 
L 286.1568 307.584 
L 286.1568 251.105012 
L 285.3632 251.105012 
z
" clip-path="url(#pb199fa0fcc)" style="fill: #1f77b4"/>
   </g>
   <g id="patch_234">
    <path d="M 286.3552 307.584 
L 287.1488 307.584 
L 287.1488 252.348333 
L 286.3552 252.348333 
z
" clip-path="url(#pb199fa0fcc)" style="fill: #1f77b4"/>
   </g>
   <g id="patch_235">
    <path d="M 287.3472 307.584 
L 288.1408 307.584 
L 288.1408 253.571166 
L 287.3472 253.571166 
z
" clip-path="url(#pb199fa0fcc)" style="fill: #1f77b4"/>
   </g>
   <g id="patch_236">
    <path d="M 288.3392 307.584 
L 289.1328 307.584 
L 289.1328 254.773625 
L 288.3392 254.773625 
z
" clip-path="url(#pb199fa0fcc)" style="fill: #1f77b4"/>
   </g>
   <g id="patch_237">
    <path d="M 289.3312 307.584 
L 290.1248 307.584 
L 290.1248 255.955831 
L 289.3312 255.955831 
z
" clip-path="url(#pb199fa0fcc)" style="fill: #1f77b4"/>
   </g>
   <g id="patch_238">
    <path d="M 290.3232 307.584 
L 291.1168 307.584 
L 291.1168 257.117911 
L 290.3232 257.117911 
z
" clip-path="url(#pb199fa0fcc)" style="fill: #1f77b4"/>
   </g>
   <g id="patch_239">
    <path d="M 291.3152 307.584 
L 292.1088 307.584 
L 292.1088 258.260001 
L 291.3152 258.260001 
z
" clip-path="url(#pb199fa0fcc)" style="fill: #1f77b4"/>
   </g>
   <g id="patch_240">
    <path d="M 292.3072 307.584 
L 293.1008 307.584 
L 293.1008 259.382241 
L 292.3072 259.382241 
z
" clip-path="url(#pb199fa0fcc)" style="fill: #1f77b4"/>
   </g>
   <g id="patch_241">
    <path d="M 293.2992 307.584 
L 294.0928 307.584 
L 294.0928 260.48478 
L 293.2992 260.48478 
z
" clip-path="url(#pb199fa0fcc)" style="fill: #1f77b4"/>
   </g>
   <g id="patch_242">
    <path d="M 294.2912 307.584 
L 295.0848 307.584 
L 295.0848 261.567771 
L 294.2912 261.567771 
z
" clip-path="url(#pb199fa0fcc)" style="fill: #1f77b4"/>
   </g>
   <g id="patch_243">
    <path d="M 295.2832 307.584 
L 296.0768 307.584 
L 296.0768 262.631375 
L 295.2832 262.631375 
z
" clip-path="url(#pb199fa0fcc)" style="fill: #1f77b4"/>
   </g>
   <g id="patch_244">
    <path d="M 296.2752 307.584 
L 297.0688 307.584 
L 297.0688 263.675755 
L 296.2752 263.675755 
z
" clip-path="url(#pb199fa0fcc)" style="fill: #1f77b4"/>
   </g>
   <g id="patch_245">
    <path d="M 297.2672 307.584 
L 298.0608 307.584 
L 298.0608 264.701083 
L 297.2672 264.701083 
z
" clip-path="url(#pb199fa0fcc)" style="fill: #1f77b4"/>
   </g>
   <g id="patch_246">
    <path d="M 298.2592 307.584 
L 299.0528 307.584 
L 299.0528 265.707533 
L 298.2592 265.707533 
z
" clip-path="url(#pb199fa0fcc)" style="fill: #1f77b4"/>
   </g>
   <g id="patch_247">
    <path d="M 299.2512 307.584 
L 300.0448 307.584 
L 300.0448 266.695284 
L 299.2512 266.695284 
z
" clip-path="url(#pb199fa0fcc)" style="fill: #1f77b4"/>
   </g>
   <g id="patch_248">
    <path d="M 300.2432 307.584 
L 301.0368 307.584 
L 301.0368 267.664522 
L 300.2432 267.664522 
z
" clip-path="url(#pb199fa0fcc)" style="fill: #1f77b4"/>
   </g>
   <g id="patch_249">
    <path d="M 301.2352 307.584 
L 302.0288 307.584 
L 302.0288 268.615432 
L 301.2352 268.615432 
z
" clip-path="url(#pb199fa0fcc)" style="fill: #1f77b4"/>
   </g>
   <g id="patch_250">
    <path d="M 302.2272 307.584 
L 303.0208 307.584 
L 303.0208 269.548208 
L 302.2272 269.548208 
z
" clip-path="url(#pb199fa0fcc)" style="fill: #1f77b4"/>
   </g>
   <g id="patch_251">
    <path d="M 303.2192 307.584 
L 304.0128 307.584 
L 304.0128 270.463044 
L 303.2192 270.463044 
z
" clip-path="url(#pb199fa0fcc)" style="fill: #1f77b4"/>
   </g>
   <g id="patch_252">
    <path d="M 304.2112 307.584 
L 305.0048 307.584 
L 305.0048 271.360138 
L 304.2112 271.360138 
z
" clip-path="url(#pb199fa0fcc)" style="fill: #1f77b4"/>
   </g>
   <g id="patch_253">
    <path d="M 305.2032 307.584 
L 305.9968 307.584 
L 305.9968 272.239692 
L 305.2032 272.239692 
z
" clip-path="url(#pb199fa0fcc)" style="fill: #1f77b4"/>
   </g>
   <g id="patch_254">
    <path d="M 306.1952 307.584 
L 306.9888 307.584 
L 306.9888 273.10191 
L 306.1952 273.10191 
z
" clip-path="url(#pb199fa0fcc)" style="fill: #1f77b4"/>
   </g>
   <g id="patch_255">
    <path d="M 307.1872 307.584 
L 307.9808 307.584 
L 307.9808 273.946998 
L 307.1872 273.946998 
z
" clip-path="url(#pb199fa0fcc)" style="fill: #1f77b4"/>
   </g>
   <g id="patch_256">
    <path d="M 308.1792 307.584 
L 308.9728 307.584 
L 308.9728 274.775166 
L 308.1792 274.775166 
z
" clip-path="url(#pb199fa0fcc)" style="fill: #1f77b4"/>
   </g>
   <g id="patch_257">
    <path d="M 309.1712 307.584 
L 309.9648 307.584 
L 309.9648 275.586625 
L 309.1712 275.586625 
z
" clip-path="url(#pb199fa0fcc)" style="fill: #1f77b4"/>
   </g>
   <g id="patch_258">
    <path d="M 310.1632 307.584 
L 310.9568 307.584 
L 310.9568 276.381587 
L 310.1632 276.381587 
z
" clip-path="url(#pb199fa0fcc)" style="fill: #1f77b4"/>
   </g>
   <g id="patch_259">
    <path d="M 311.1552 307.584 
L 311.9488 307.584 
L 311.9488 277.160267 
L 311.1552 277.160267 
z
" clip-path="url(#pb199fa0fcc)" style="fill: #1f77b4"/>
   </g>
   <g id="patch_260">
    <path d="M 312.1472 307.584 
L 312.9408 307.584 
L 312.9408 277.92288 
L 312.1472 277.92288 
z
" clip-path="url(#pb199fa0fcc)" style="fill: #1f77b4"/>
   </g>
   <g id="patch_261">
    <path d="M 313.1392 307.584 
L 313.9328 307.584 
L 313.9328 278.669645 
L 313.1392 278.669645 
z
" clip-path="url(#pb199fa0fcc)" style="fill: #1f77b4"/>
   </g>
   <g id="patch_262">
    <path d="M 314.1312 307.584 
L 314.9248 307.584 
L 314.9248 279.40078 
L 314.1312 279.40078 
z
" clip-path="url(#pb199fa0fcc)" style="fill: #1f77b4"/>
   </g>
   <g id="patch_263">
    <path d="M 315.1232 307.584 
L 315.9168 307.584 
L 315.9168 280.116504 
L 315.1232 280.116504 
z
" clip-path="url(#pb199fa0fcc)" style="fill: #1f77b4"/>
   </g>
   <g id="patch_264">
    <path d="M 316.1152 307.584 
L 316.9088 307.584 
L 316.9088 280.817036 
L 316.1152 280.817036 
z
" clip-path="url(#pb199fa0fcc)" style="fill: #1f77b4"/>
   </g>
   <g id="patch_265">
    <path d="M 317.1072 307.584 
L 317.9008 307.584 
L 317.9008 281.502598 
L 317.1072 281.502598 
z
" clip-path="url(#pb199fa0fcc)" style="fill: #1f77b4"/>
   </g>
   <g id="patch_266">
    <path d="M 318.0992 307.584 
L 318.8928 307.584 
L 318.8928 282.173411 
L 318.0992 282.173411 
z
" clip-path="url(#pb199fa0fcc)" style="fill: #1f77b4"/>
   </g>
   <g id="patch_267">
    <path d="M 319.0912 307.584 
L 319.8848 307.584 
L 319.8848 282.829694 
L 319.0912 282.829694 
z
" clip-path="url(#pb199fa0fcc)" style="fill: #1f77b4"/>
   </g>
   <g id="patch_268">
    <path d="M 320.0832 307.584 
L 320.8768 307.584 
L 320.8768 283.47167 
L 320.0832 283.47167 
z
" clip-path="url(#pb199fa0fcc)" style="fill: #1f77b4"/>
   </g>
   <g id="patch_269">
    <path d="M 321.0752 307.584 
L 321.8688 307.584 
L 321.8688 284.09956 
L 321.0752 284.09956 
z
" clip-path="url(#pb199fa0fcc)" style="fill: #1f77b4"/>
   </g>
   <g id="patch_270">
    <path d="M 322.0672 307.584 
L 322.8608 307.584 
L 322.8608 284.713585 
L 322.0672 284.713585 
z
" clip-path="url(#pb199fa0fcc)" style="fill: #1f77b4"/>
   </g>
   <g id="patch_271">
    <path d="M 323.0592 307.584 
L 323.8528 307.584 
L 323.8528 285.313965 
L 323.0592 285.313965 
z
" clip-path="url(#pb199fa0fcc)" style="fill: #1f77b4"/>
   </g>
   <g id="patch_272">
    <path d="M 324.0512 307.584 
L 324.8448 307.584 
L 324.8448 285.900919 
L 324.0512 285.900919 
z
" clip-path="url(#pb199fa0fcc)" style="fill: #1f77b4"/>
   </g>
   <g id="patch_273">
    <path d="M 325.0432 307.584 
L 325.8368 307.584 
L 325.8368 286.474668 
L 325.0432 286.474668 
z
" clip-path="url(#pb199fa0fcc)" style="fill: #1f77b4"/>
   </g>
   <g id="patch_274">
    <path d="M 326.0352 307.584 
L 326.8288 307.584 
L 326.8288 287.035431 
L 326.0352 287.035431 
z
" clip-path="url(#pb199fa0fcc)" style="fill: #1f77b4"/>
   </g>
   <g id="patch_275">
    <path d="M 327.0272 307.584 
L 327.8208 307.584 
L 327.8208 287.583424 
L 327.0272 287.583424 
z
" clip-path="url(#pb199fa0fcc)" style="fill: #1f77b4"/>
   </g>
   <g id="patch_276">
    <path d="M 328.0192 307.584 
L 328.8128 307.584 
L 328.8128 288.118865 
L 328.0192 288.118865 
z
" clip-path="url(#pb199fa0fcc)" style="fill: #1f77b4"/>
   </g>
   <g id="patch_277">
    <path d="M 329.0112 307.584 
L 329.8048 307.584 
L 329.8048 288.64197 
L 329.0112 288.64197 
z
" clip-path="url(#pb199fa0fcc)" style="fill: #1f77b4"/>
   </g>
   <g id="patch_278">
    <path d="M 330.0032 307.584 
L 330.7968 307.584 
L 330.7968 289.152952 
L 330.0032 289.152952 
z
" clip-path="url(#pb199fa0fcc)" style="fill: #1f77b4"/>
   </g>
   <g id="patch_279">
    <path d="M 330.9952 307.584 
L 331.7888 307.584 
L 331.7888 289.652026 
L 330.9952 289.652026 
z
" clip-path="url(#pb199fa0fcc)" style="fill: #1f77b4"/>
   </g>
   <g id="patch_280">
    <path d="M 331.9872 307.584 
L 332.7808 307.584 
L 332.7808 290.139403 
L 331.9872 290.139403 
z
" clip-path="url(#pb199fa0fcc)" style="fill: #1f77b4"/>
   </g>
   <g id="patch_281">
    <path d="M 332.9792 307.584 
L 333.7728 307.584 
L 333.7728 290.615294 
L 332.9792 290.615294 
z
" clip-path="url(#pb199fa0fcc)" style="fill: #1f77b4"/>
   </g>
   <g id="patch_282">
    <path d="M 333.9712 307.584 
L 334.7648 307.584 
L 334.7648 291.079907 
L 333.9712 291.079907 
z
" clip-path="url(#pb199fa0fcc)" style="fill: #1f77b4"/>
   </g>
   <g id="patch_283">
    <path d="M 334.9632 307.584 
L 335.7568 307.584 
L 335.7568 291.533451 
L 334.9632 291.533451 
z
" clip-path="url(#pb199fa0fcc)" style="fill: #1f77b4"/>
   </g>
   <g id="patch_284">
    <path d="M 335.9552 307.584 
L 336.7488 307.584 
L 336.7488 291.976129 
L 335.9552 291.976129 
z
" clip-path="url(#pb199fa0fcc)" style="fill: #1f77b4"/>
   </g>
   <g id="patch_285">
    <path d="M 336.9472 307.584 
L 337.7408 307.584 
L 337.7408 292.408148 
L 336.9472 292.408148 
z
" clip-path="url(#pb199fa0fcc)" style="fill: #1f77b4"/>
   </g>
   <g id="patch_286">
    <path d="M 337.9392 307.584 
L 338.7328 307.584 
L 338.7328 292.829707 
L 337.9392 292.829707 
z
" clip-path="url(#pb199fa0fcc)" style="fill: #1f77b4"/>
   </g>
   <g id="patch_287">
    <path d="M 338.9312 307.584 
L 339.7248 307.584 
L 339.7248 293.241008 
L 338.9312 293.241008 
z
" clip-path="url(#pb199fa0fcc)" style="fill: #1f77b4"/>
   </g>
   <g id="patch_288">
    <path d="M 339.9232 307.584 
L 340.7168 307.584 
L 340.7168 293.642249 
L 339.9232 293.642249 
z
" clip-path="url(#pb199fa0fcc)" style="fill: #1f77b4"/>
   </g>
   <g id="patch_289">
    <path d="M 340.9152 307.584 
L 341.7088 307.584 
L 341.7088 294.033626 
L 340.9152 294.033626 
z
" clip-path="url(#pb199fa0fcc)" style="fill: #1f77b4"/>
   </g>
   <g id="patch_290">
    <path d="M 341.9072 307.584 
L 342.7008 307.584 
L 342.7008 294.415332 
L 341.9072 294.415332 
z
" clip-path="url(#pb199fa0fcc)" style="fill: #1f77b4"/>
   </g>
   <g id="patch_291">
    <path d="M 342.8992 307.584 
L 343.6928 307.584 
L 343.6928 294.787561 
L 342.8992 294.787561 
z
" clip-path="url(#pb199fa0fcc)" style="fill: #1f77b4"/>
   </g>
   <g id="patch_292">
    <path d="M 343.8912 307.584 
L 344.6848 307.584 
L 344.6848 295.150502 
L 343.8912 295.150502 
z
" clip-path="url(#pb199fa0fcc)" style="fill: #1f77b4"/>
   </g>
   <g id="patch_293">
    <path d="M 344.8832 307.584 
L 345.6768 307.584 
L 345.6768 295.504342 
L 344.8832 295.504342 
z
" clip-path="url(#pb199fa0fcc)" style="fill: #1f77b4"/>
   </g>
   <g id="patch_294">
    <path d="M 345.8752 307.584 
L 346.6688 307.584 
L 346.6688 295.849267 
L 345.8752 295.849267 
z
" clip-path="url(#pb199fa0fcc)" style="fill: #1f77b4"/>
   </g>
   <g id="patch_295">
    <path d="M 346.8672 307.584 
L 347.6608 307.584 
L 347.6608 296.185461 
L 346.8672 296.185461 
z
" clip-path="url(#pb199fa0fcc)" style="fill: #1f77b4"/>
   </g>
   <g id="patch_296">
    <path d="M 347.8592 307.584 
L 348.6528 307.584 
L 348.6528 296.513103 
L 347.8592 296.513103 
z
" clip-path="url(#pb199fa0fcc)" style="fill: #1f77b4"/>
   </g>
   <g id="patch_297">
    <path d="M 348.8512 307.584 
L 349.6448 307.584 
L 349.6448 296.832374 
L 348.8512 296.832374 
z
" clip-path="url(#pb199fa0fcc)" style="fill: #1f77b4"/>
   </g>
   <g id="patch_298">
    <path d="M 349.8432 307.584 
L 350.6368 307.584 
L 350.6368 297.143448 
L 349.8432 297.143448 
z
" clip-path="url(#pb199fa0fcc)" style="fill: #1f77b4"/>
   </g>
   <g id="patch_299">
    <path d="M 350.8352 307.584 
L 351.6288 307.584 
L 351.6288 297.446501 
L 350.8352 297.446501 
z
" clip-path="url(#pb199fa0fcc)" style="fill: #1f77b4"/>
   </g>
   <g id="patch_300">
    <path d="M 351.8272 307.584 
L 352.6208 307.584 
L 352.6208 297.741703 
L 351.8272 297.741703 
z
" clip-path="url(#pb199fa0fcc)" style="fill: #1f77b4"/>
   </g>
   <g id="patch_301">
    <path d="M 352.8192 307.584 
L 353.6128 307.584 
L 353.6128 298.029224 
L 352.8192 298.029224 
z
" clip-path="url(#pb199fa0fcc)" style="fill: #1f77b4"/>
   </g>
   <g id="patch_302">
    <path d="M 353.8112 307.584 
L 354.6048 307.584 
L 354.6048 298.30923 
L 353.8112 298.30923 
z
" clip-path="url(#pb199fa0fcc)" style="fill: #1f77b4"/>
   </g>
   <g id="patch_303">
    <path d="M 354.8032 307.584 
L 355.5968 307.584 
L 355.5968 298.581886 
L 354.8032 298.581886 
z
" clip-path="url(#pb199fa0fcc)" style="fill: #1f77b4"/>
   </g>
   <g id="patch_304">
    <path d="M 355.7952 307.584 
L 356.5888 307.584 
L 356.5888 298.847353 
L 355.7952 298.847353 
z
" clip-path="url(#pb199fa0fcc)" style="fill: #1f77b4"/>
   </g>
   <g id="patch_305">
    <path d="M 356.7872 307.584 
L 357.5808 307.584 
L 357.5808 299.105791 
L 356.7872 299.105791 
z
" clip-path="url(#pb199fa0fcc)" style="fill: #1f77b4"/>
   </g>
   <g id="patch_306">
    <path d="M 357.7792 307.584 
L 358.5728 307.584 
L 358.5728 299.357357 
L 357.7792 299.357357 
z
" clip-path="url(#pb199fa0fcc)" style="fill: #1f77b4"/>
   </g>
   <g id="patch_307">
    <path d="M 358.7712 307.584 
L 359.5648 307.584 
L 359.5648 299.602206 
L 358.7712 299.602206 
z
" clip-path="url(#pb199fa0fcc)" style="fill: #1f77b4"/>
   </g>
   <g id="patch_308">
    <path d="M 359.7632 307.584 
L 360.5568 307.584 
L 360.5568 299.840489 
L 359.7632 299.840489 
z
" clip-path="url(#pb199fa0fcc)" style="fill: #1f77b4"/>
   </g>
   <g id="patch_309">
    <path d="M 360.7552 307.584 
L 361.5488 307.584 
L 361.5488 300.072356 
L 360.7552 300.072356 
z
" clip-path="url(#pb199fa0fcc)" style="fill: #1f77b4"/>
   </g>
   <g id="patch_310">
    <path d="M 361.7472 307.584 
L 362.5408 307.584 
L 362.5408 300.297954 
L 361.7472 300.297954 
z
" clip-path="url(#pb199fa0fcc)" style="fill: #1f77b4"/>
   </g>
   <g id="patch_311">
    <path d="M 362.7392 307.584 
L 363.5328 307.584 
L 363.5328 300.517428 
L 362.7392 300.517428 
z
" clip-path="url(#pb199fa0fcc)" style="fill: #1f77b4"/>
   </g>
   <g id="patch_312">
    <path d="M 363.7312 307.584 
L 364.5248 307.584 
L 364.5248 300.73092 
L 363.7312 300.73092 
z
" clip-path="url(#pb199fa0fcc)" style="fill: #1f77b4"/>
   </g>
   <g id="patch_313">
    <path d="M 364.7232 307.584 
L 365.5168 307.584 
L 365.5168 300.93857 
L 364.7232 300.93857 
z
" clip-path="url(#pb199fa0fcc)" style="fill: #1f77b4"/>
   </g>
   <g id="patch_314">
    <path d="M 365.7152 307.584 
L 366.5088 307.584 
L 366.5088 301.140516 
L 365.7152 301.140516 
z
" clip-path="url(#pb199fa0fcc)" style="fill: #1f77b4"/>
   </g>
   <g id="patch_315">
    <path d="M 366.7072 307.584 
L 367.5008 307.584 
L 367.5008 301.336892 
L 366.7072 301.336892 
z
" clip-path="url(#pb199fa0fcc)" style="fill: #1f77b4"/>
   </g>
   <g id="patch_316">
    <path d="M 367.6992 307.584 
L 368.4928 307.584 
L 368.4928 301.527831 
L 367.6992 301.527831 
z
" clip-path="url(#pb199fa0fcc)" style="fill: #1f77b4"/>
   </g>
   <g id="patch_317">
    <path d="M 368.6912 307.584 
L 369.4848 307.584 
L 369.4848 301.713463 
L 368.6912 301.713463 
z
" clip-path="url(#pb199fa0fcc)" style="fill: #1f77b4"/>
   </g>
   <g id="patch_318">
    <path d="M 369.6832 307.584 
L 370.4768 307.584 
L 370.4768 301.893916 
L 369.6832 301.893916 
z
" clip-path="url(#pb199fa0fcc)" style="fill: #1f77b4"/>
   </g>
   <g id="patch_319">
    <path d="M 370.6752 307.584 
L 371.4688 307.584 
L 371.4688 302.069316 
L 370.6752 302.069316 
z
" clip-path="url(#pb199fa0fcc)" style="fill: #1f77b4"/>
   </g>
   <g id="patch_320">
    <path d="M 371.6672 307.584 
L 372.4608 307.584 
L 372.4608 302.239786 
L 371.6672 302.239786 
z
" clip-path="url(#pb199fa0fcc)" style="fill: #1f77b4"/>
   </g>
   <g id="patch_321">
    <path d="M 372.6592 307.584 
L 373.4528 307.584 
L 373.4528 302.405446 
L 372.6592 302.405446 
z
" clip-path="url(#pb199fa0fcc)" style="fill: #1f77b4"/>
   </g>
   <g id="patch_322">
    <path d="M 373.6512 307.584 
L 374.4448 307.584 
L 374.4448 302.566415 
L 373.6512 302.566415 
z
" clip-path="url(#pb199fa0fcc)" style="fill: #1f77b4"/>
   </g>
   <g id="patch_323">
    <path d="M 374.6432 307.584 
L 375.4368 307.584 
L 375.4368 302.722809 
L 374.6432 302.722809 
z
" clip-path="url(#pb199fa0fcc)" style="fill: #1f77b4"/>
   </g>
   <g id="patch_324">
    <path d="M 375.6352 307.584 
L 376.4288 307.584 
L 376.4288 302.874742 
L 375.6352 302.874742 
z
" clip-path="url(#pb199fa0fcc)" style="fill: #1f77b4"/>
   </g>
   <g id="patch_325">
    <path d="M 376.6272 307.584 
L 377.4208 307.584 
L 377.4208 303.022326 
L 376.6272 303.022326 
z
" clip-path="url(#pb199fa0fcc)" style="fill: #1f77b4"/>
   </g>
   <g id="patch_326">
    <path d="M 377.6192 307.584 
L 378.4128 307.584 
L 378.4128 303.16567 
L 377.6192 303.16567 
z
" clip-path="url(#pb199fa0fcc)" style="fill: #1f77b4"/>
   </g>
   <g id="patch_327">
    <path d="M 378.6112 307.584 
L 379.4048 307.584 
L 379.4048 303.304882 
L 378.6112 303.304882 
z
" clip-path="url(#pb199fa0fcc)" style="fill: #1f77b4"/>
   </g>
   <g id="patch_328">
    <path d="M 379.6032 307.584 
L 380.3968 307.584 
L 380.3968 303.440067 
L 379.6032 303.440067 
z
" clip-path="url(#pb199fa0fcc)" style="fill: #1f77b4"/>
   </g>
   <g id="patch_329">
    <path d="M 380.5952 307.584 
L 381.3888 307.584 
L 381.3888 303.571327 
L 380.5952 303.571327 
z
" clip-path="url(#pb199fa0fcc)" style="fill: #1f77b4"/>
   </g>
   <g id="patch_330">
    <path d="M 381.5872 307.584 
L 382.3808 307.584 
L 382.3808 303.698764 
L 381.5872 303.698764 
z
" clip-path="url(#pb199fa0fcc)" style="fill: #1f77b4"/>
   </g>
   <g id="patch_331">
    <path d="M 382.5792 307.584 
L 383.3728 307.584 
L 383.3728 303.822476 
L 382.5792 303.822476 
z
" clip-path="url(#pb199fa0fcc)" style="fill: #1f77b4"/>
   </g>
   <g id="patch_332">
    <path d="M 383.5712 307.584 
L 384.3648 307.584 
L 384.3648 303.94256 
L 383.5712 303.94256 
z
" clip-path="url(#pb199fa0fcc)" style="fill: #1f77b4"/>
   </g>
   <g id="patch_333">
    <path d="M 384.5632 307.584 
L 385.3568 307.584 
L 385.3568 304.05911 
L 384.5632 304.05911 
z
" clip-path="url(#pb199fa0fcc)" style="fill: #1f77b4"/>
   </g>
   <g id="patch_334">
    <path d="M 385.5552 307.584 
L 386.3488 307.584 
L 386.3488 304.172219 
L 385.5552 304.172219 
z
" clip-path="url(#pb199fa0fcc)" style="fill: #1f77b4"/>
   </g>
   <g id="patch_335">
    <path d="M 386.5472 307.584 
L 387.3408 307.584 
L 387.3408 304.281978 
L 386.5472 304.281978 
z
" clip-path="url(#pb199fa0fcc)" style="fill: #1f77b4"/>
   </g>
   <g id="patch_336">
    <path d="M 387.5392 307.584 
L 388.3328 307.584 
L 388.3328 304.388475 
L 387.5392 304.388475 
z
" clip-path="url(#pb199fa0fcc)" style="fill: #1f77b4"/>
   </g>
   <g id="patch_337">
    <path d="M 388.5312 307.584 
L 389.3248 307.584 
L 389.3248 304.491796 
L 388.5312 304.491796 
z
" clip-path="url(#pb199fa0fcc)" style="fill: #1f77b4"/>
   </g>
   <g id="patch_338">
    <path d="M 389.5232 307.584 
L 390.3168 307.584 
L 390.3168 304.592028 
L 389.5232 304.592028 
z
" clip-path="url(#pb199fa0fcc)" style="fill: #1f77b4"/>
   </g>
   <g id="patch_339">
    <path d="M 390.5152 307.584 
L 391.3088 307.584 
L 391.3088 304.689251 
L 390.5152 304.689251 
z
" clip-path="url(#pb199fa0fcc)" style="fill: #1f77b4"/>
   </g>
   <g id="patch_340">
    <path d="M 391.5072 307.584 
L 392.3008 307.584 
L 392.3008 304.783548 
L 391.5072 304.783548 
z
" clip-path="url(#pb199fa0fcc)" style="fill: #1f77b4"/>
   </g>
   <g id="patch_341">
    <path d="M 392.4992 307.584 
L 393.2928 307.584 
L 393.2928 304.874998 
L 392.4992 304.874998 
z
" clip-path="url(#pb199fa0fcc)" style="fill: #1f77b4"/>
   </g>
   <g id="patch_342">
    <path d="M 393.4912 307.584 
L 394.2848 307.584 
L 394.2848 304.963677 
L 393.4912 304.963677 
z
" clip-path="url(#pb199fa0fcc)" style="fill: #1f77b4"/>
   </g>
   <g id="patch_343">
    <path d="M 394.4832 307.584 
L 395.2768 307.584 
L 395.2768 305.049662 
L 394.4832 305.049662 
z
" clip-path="url(#pb199fa0fcc)" style="fill: #1f77b4"/>
   </g>
   <g id="patch_344">
    <path d="M 395.4752 307.584 
L 396.2688 307.584 
L 396.2688 305.133026 
L 395.4752 305.133026 
z
" clip-path="url(#pb199fa0fcc)" style="fill: #1f77b4"/>
   </g>
   <g id="patch_345">
    <path d="M 396.4672 307.584 
L 397.2608 307.584 
L 397.2608 305.213842 
L 396.4672 305.213842 
z
" clip-path="url(#pb199fa0fcc)" style="fill: #1f77b4"/>
   </g>
   <g id="patch_346">
    <path d="M 397.4592 307.584 
L 398.2528 307.584 
L 398.2528 305.292179 
L 397.4592 305.292179 
z
" clip-path="url(#pb199fa0fcc)" style="fill: #1f77b4"/>
   </g>
   <g id="patch_347">
    <path d="M 398.4512 307.584 
L 399.2448 307.584 
L 399.2448 305.368107 
L 398.4512 305.368107 
z
" clip-path="url(#pb199fa0fcc)" style="fill: #1f77b4"/>
   </g>
   <g id="patch_348">
    <path d="M 399.4432 307.584 
L 400.2368 307.584 
L 400.2368 305.441693 
L 399.4432 305.441693 
z
" clip-path="url(#pb199fa0fcc)" style="fill: #1f77b4"/>
   </g>
   <g id="patch_349">
    <path d="M 400.4352 307.584 
L 401.2288 307.584 
L 401.2288 305.513002 
L 400.4352 305.513002 
z
" clip-path="url(#pb199fa0fcc)" style="fill: #1f77b4"/>
   </g>
   <g id="patch_350">
    <path d="M 401.4272 307.584 
L 402.2208 307.584 
L 402.2208 305.582098 
L 401.4272 305.582098 
z
" clip-path="url(#pb199fa0fcc)" style="fill: #1f77b4"/>
   </g>
   <g id="patch_351">
    <path d="M 402.4192 307.584 
L 403.2128 307.584 
L 403.2128 305.649044 
L 402.4192 305.649044 
z
" clip-path="url(#pb199fa0fcc)" style="fill: #1f77b4"/>
   </g>
   <g id="patch_352">
    <path d="M 403.4112 307.584 
L 404.2048 307.584 
L 404.2048 305.7139 
L 403.4112 305.7139 
z
" clip-path="url(#pb199fa0fcc)" style="fill: #1f77b4"/>
   </g>
   <g id="patch_353">
    <path d="M 404.4032 307.584 
L 405.1968 307.584 
L 405.1968 305.776726 
L 404.4032 305.776726 
z
" clip-path="url(#pb199fa0fcc)" style="fill: #1f77b4"/>
   </g>
   <g id="patch_354">
    <path d="M 405.3952 307.584 
L 406.1888 307.584 
L 406.1888 305.83758 
L 405.3952 305.83758 
z
" clip-path="url(#pb199fa0fcc)" style="fill: #1f77b4"/>
   </g>
   <g id="patch_355">
    <path d="M 406.3872 307.584 
L 407.1808 307.584 
L 407.1808 305.896518 
L 406.3872 305.896518 
z
" clip-path="url(#pb199fa0fcc)" style="fill: #1f77b4"/>
   </g>
   <g id="patch_356">
    <path d="M 407.3792 307.584 
L 408.1728 307.584 
L 408.1728 305.953596 
L 407.3792 305.953596 
z
" clip-path="url(#pb199fa0fcc)" style="fill: #1f77b4"/>
   </g>
   <g id="patch_357">
    <path d="M 408.3712 307.584 
L 409.1648 307.584 
L 409.1648 306.008867 
L 408.3712 306.008867 
z
" clip-path="url(#pb199fa0fcc)" style="fill: #1f77b4"/>
   </g>
   <g id="patch_358">
    <path d="M 409.3632 307.584 
L 410.1568 307.584 
L 410.1568 306.062383 
L 409.3632 306.062383 
z
" clip-path="url(#pb199fa0fcc)" style="fill: #1f77b4"/>
   </g>
   <g id="patch_359">
    <path d="M 410.3552 307.584 
L 411.1488 307.584 
L 411.1488 306.114195 
L 410.3552 306.114195 
z
" clip-path="url(#pb199fa0fcc)" style="fill: #1f77b4"/>
   </g>
   <g id="patch_360">
    <path d="M 411.3472 307.584 
L 412.1408 307.584 
L 412.1408 306.164353 
L 411.3472 306.164353 
z
" clip-path="url(#pb199fa0fcc)" style="fill: #1f77b4"/>
   </g>
   <g id="patch_361">
    <path d="M 412.3392 307.584 
L 413.1328 307.584 
L 413.1328 306.212907 
L 412.3392 306.212907 
z
" clip-path="url(#pb199fa0fcc)" style="fill: #1f77b4"/>
   </g>
   <g id="patch_362">
    <path d="M 413.3312 307.584 
L 414.1248 307.584 
L 414.1248 306.259901 
L 413.3312 306.259901 
z
" clip-path="url(#pb199fa0fcc)" style="fill: #1f77b4"/>
   </g>
   <g id="matplotlib.axis_1">
    <g id="xtick_1">
     <g id="line2d_1">
      <defs>
       <path id="m4a0029bc87" d="M 0 0 
L 0 3.5 
" style="stroke: #000000; stroke-width: 0.8"/>
      </defs>
      <g>
       <use xlink:href="#m4a0029bc87" x="67.52" y="307.584" style="stroke: #000000; stroke-width: 0.8"/>
      </g>
     </g>
     <g id="text_1">
      <!-- 3% -->
      <g transform="translate(59.587969 322.182437) scale(0.1 -0.1)">
       <defs>
        <path id="DejaVuSans-33" d="M 2597 2516 
Q 3050 2419 3304 2112 
Q 3559 1806 3559 1356 
Q 3559 666 3084 287 
Q 2609 -91 1734 -91 
Q 1441 -91 1130 -33 
Q 819 25 488 141 
L 488 750 
Q 750 597 1062 519 
Q 1375 441 1716 441 
Q 2309 441 2620 675 
Q 2931 909 2931 1356 
Q 2931 1769 2642 2001 
Q 2353 2234 1838 2234 
L 1294 2234 
L 1294 2753 
L 1863 2753 
Q 2328 2753 2575 2939 
Q 2822 3125 2822 3475 
Q 2822 3834 2567 4026 
Q 2313 4219 1838 4219 
Q 1578 4219 1281 4162 
Q 984 4106 628 3988 
L 628 4550 
Q 988 4650 1302 4700 
Q 1616 4750 1894 4750 
Q 2613 4750 3031 4423 
Q 3450 4097 3450 3541 
Q 3450 3153 3228 2886 
Q 3006 2619 2597 2516 
z
" transform="scale(0.015625)"/>
        <path id="DejaVuSans-25" d="M 4653 2053 
Q 4381 2053 4226 1822 
Q 4072 1591 4072 1178 
Q 4072 772 4226 539 
Q 4381 306 4653 306 
Q 4919 306 5073 539 
Q 5228 772 5228 1178 
Q 5228 1588 5073 1820 
Q 4919 2053 4653 2053 
z
M 4653 2450 
Q 5147 2450 5437 2106 
Q 5728 1763 5728 1178 
Q 5728 594 5436 251 
Q 5144 -91 4653 -91 
Q 4153 -91 3862 251 
Q 3572 594 3572 1178 
Q 3572 1766 3864 2108 
Q 4156 2450 4653 2450 
z
M 1428 4353 
Q 1159 4353 1004 4120 
Q 850 3888 850 3481 
Q 850 3069 1003 2837 
Q 1156 2606 1428 2606 
Q 1700 2606 1854 2837 
Q 2009 3069 2009 3481 
Q 2009 3884 1853 4118 
Q 1697 4353 1428 4353 
z
M 4250 4750 
L 4750 4750 
L 1831 -91 
L 1331 -91 
L 4250 4750 
z
M 1428 4750 
Q 1922 4750 2215 4408 
Q 2509 4066 2509 3481 
Q 2509 2891 2217 2550 
Q 1925 2209 1428 2209 
Q 931 2209 642 2551 
Q 353 2894 353 3481 
Q 353 4063 643 4406 
Q 934 4750 1428 4750 
z
" transform="scale(0.015625)"/>
       </defs>
       <use xlink:href="#DejaVuSans-33"/>
       <use xlink:href="#DejaVuSans-25" x="63.623047"/>
      </g>
     </g>
    </g>
    <g id="xtick_2">
     <g id="line2d_2">
      <g>
       <use xlink:href="#m4a0029bc87" x="117.12" y="307.584" style="stroke: #000000; stroke-width: 0.8"/>
      </g>
     </g>
     <g id="text_2">
      <!-- 4% -->
      <g transform="translate(109.187969 322.182437) scale(0.1 -0.1)">
       <defs>
        <path id="DejaVuSans-34" d="M 2419 4116 
L 825 1625 
L 2419 1625 
L 2419 4116 
z
M 2253 4666 
L 3047 4666 
L 3047 1625 
L 3713 1625 
L 3713 1100 
L 3047 1100 
L 3047 0 
L 2419 0 
L 2419 1100 
L 313 1100 
L 313 1709 
L 2253 4666 
z
" transform="scale(0.015625)"/>
       </defs>
       <use xlink:href="#DejaVuSans-34"/>
       <use xlink:href="#DejaVuSans-25" x="63.623047"/>
      </g>
     </g>
    </g>
    <g id="xtick_3">
     <g id="line2d_3">
      <g>
       <use xlink:href="#m4a0029bc87" x="166.72" y="307.584" style="stroke: #000000; stroke-width: 0.8"/>
      </g>
     </g>
     <g id="text_3">
      <!-- 5% -->
      <g transform="translate(158.787969 322.182437) scale(0.1 -0.1)">
       <defs>
        <path id="DejaVuSans-35" d="M 691 4666 
L 3169 4666 
L 3169 4134 
L 1269 4134 
L 1269 2991 
Q 1406 3038 1543 3061 
Q 1681 3084 1819 3084 
Q 2600 3084 3056 2656 
Q 3513 2228 3513 1497 
Q 3513 744 3044 326 
Q 2575 -91 1722 -91 
Q 1428 -91 1123 -41 
Q 819 9 494 109 
L 494 744 
Q 775 591 1075 516 
Q 1375 441 1709 441 
Q 2250 441 2565 725 
Q 2881 1009 2881 1497 
Q 2881 1984 2565 2268 
Q 2250 2553 1709 2553 
Q 1456 2553 1204 2497 
Q 953 2441 691 2322 
L 691 4666 
z
" transform="scale(0.015625)"/>
       </defs>
       <use xlink:href="#DejaVuSans-35"/>
       <use xlink:href="#DejaVuSans-25" x="63.623047"/>
      </g>
     </g>
    </g>
    <g id="xtick_4">
     <g id="line2d_4">
      <g>
       <use xlink:href="#m4a0029bc87" x="216.32" y="307.584" style="stroke: #000000; stroke-width: 0.8"/>
      </g>
     </g>
     <g id="text_4">
      <!-- 6% -->
      <g transform="translate(208.387969 322.182437) scale(0.1 -0.1)">
       <defs>
        <path id="DejaVuSans-36" d="M 2113 2584 
Q 1688 2584 1439 2293 
Q 1191 2003 1191 1497 
Q 1191 994 1439 701 
Q 1688 409 2113 409 
Q 2538 409 2786 701 
Q 3034 994 3034 1497 
Q 3034 2003 2786 2293 
Q 2538 2584 2113 2584 
z
M 3366 4563 
L 3366 3988 
Q 3128 4100 2886 4159 
Q 2644 4219 2406 4219 
Q 1781 4219 1451 3797 
Q 1122 3375 1075 2522 
Q 1259 2794 1537 2939 
Q 1816 3084 2150 3084 
Q 2853 3084 3261 2657 
Q 3669 2231 3669 1497 
Q 3669 778 3244 343 
Q 2819 -91 2113 -91 
Q 1303 -91 875 529 
Q 447 1150 447 2328 
Q 447 3434 972 4092 
Q 1497 4750 2381 4750 
Q 2619 4750 2861 4703 
Q 3103 4656 3366 4563 
z
" transform="scale(0.015625)"/>
       </defs>
       <use xlink:href="#DejaVuSans-36"/>
       <use xlink:href="#DejaVuSans-25" x="63.623047"/>
      </g>
     </g>
    </g>
    <g id="xtick_5">
     <g id="line2d_5">
      <g>
       <use xlink:href="#m4a0029bc87" x="265.92" y="307.584" style="stroke: #000000; stroke-width: 0.8"/>
      </g>
     </g>
     <g id="text_5">
      <!-- 7% -->
      <g transform="translate(257.987969 322.182437) scale(0.1 -0.1)">
       <defs>
        <path id="DejaVuSans-37" d="M 525 4666 
L 3525 4666 
L 3525 4397 
L 1831 0 
L 1172 0 
L 2766 4134 
L 525 4134 
L 525 4666 
z
" transform="scale(0.015625)"/>
       </defs>
       <use xlink:href="#DejaVuSans-37"/>
       <use xlink:href="#DejaVuSans-25" x="63.623047"/>
      </g>
     </g>
    </g>
    <g id="xtick_6">
     <g id="line2d_6">
      <g>
       <use xlink:href="#m4a0029bc87" x="315.52" y="307.584" style="stroke: #000000; stroke-width: 0.8"/>
      </g>
     </g>
     <g id="text_6">
      <!-- 8% -->
      <g transform="translate(307.587969 322.182437) scale(0.1 -0.1)">
       <defs>
        <path id="DejaVuSans-38" d="M 2034 2216 
Q 1584 2216 1326 1975 
Q 1069 1734 1069 1313 
Q 1069 891 1326 650 
Q 1584 409 2034 409 
Q 2484 409 2743 651 
Q 3003 894 3003 1313 
Q 3003 1734 2745 1975 
Q 2488 2216 2034 2216 
z
M 1403 2484 
Q 997 2584 770 2862 
Q 544 3141 544 3541 
Q 544 4100 942 4425 
Q 1341 4750 2034 4750 
Q 2731 4750 3128 4425 
Q 3525 4100 3525 3541 
Q 3525 3141 3298 2862 
Q 3072 2584 2669 2484 
Q 3125 2378 3379 2068 
Q 3634 1759 3634 1313 
Q 3634 634 3220 271 
Q 2806 -91 2034 -91 
Q 1263 -91 848 271 
Q 434 634 434 1313 
Q 434 1759 690 2068 
Q 947 2378 1403 2484 
z
M 1172 3481 
Q 1172 3119 1398 2916 
Q 1625 2713 2034 2713 
Q 2441 2713 2670 2916 
Q 2900 3119 2900 3481 
Q 2900 3844 2670 4047 
Q 2441 4250 2034 4250 
Q 1625 4250 1398 4047 
Q 1172 3844 1172 3481 
z
" transform="scale(0.015625)"/>
       </defs>
       <use xlink:href="#DejaVuSans-38"/>
       <use xlink:href="#DejaVuSans-25" x="63.623047"/>
      </g>
     </g>
    </g>
    <g id="xtick_7">
     <g id="line2d_7">
      <g>
       <use xlink:href="#m4a0029bc87" x="365.12" y="307.584" style="stroke: #000000; stroke-width: 0.8"/>
      </g>
     </g>
     <g id="text_7">
      <!-- 9% -->
      <g transform="translate(357.187969 322.182437) scale(0.1 -0.1)">
       <defs>
        <path id="DejaVuSans-39" d="M 703 97 
L 703 672 
Q 941 559 1184 500 
Q 1428 441 1663 441 
Q 2288 441 2617 861 
Q 2947 1281 2994 2138 
Q 2813 1869 2534 1725 
Q 2256 1581 1919 1581 
Q 1219 1581 811 2004 
Q 403 2428 403 3163 
Q 403 3881 828 4315 
Q 1253 4750 1959 4750 
Q 2769 4750 3195 4129 
Q 3622 3509 3622 2328 
Q 3622 1225 3098 567 
Q 2575 -91 1691 -91 
Q 1453 -91 1209 -44 
Q 966 3 703 97 
z
M 1959 2075 
Q 2384 2075 2632 2365 
Q 2881 2656 2881 3163 
Q 2881 3666 2632 3958 
Q 2384 4250 1959 4250 
Q 1534 4250 1286 3958 
Q 1038 3666 1038 3163 
Q 1038 2656 1286 2365 
Q 1534 2075 1959 2075 
z
" transform="scale(0.015625)"/>
       </defs>
       <use xlink:href="#DejaVuSans-39"/>
       <use xlink:href="#DejaVuSans-25" x="63.623047"/>
      </g>
     </g>
    </g>
    <g id="xtick_8">
     <g id="line2d_8">
      <g>
       <use xlink:href="#m4a0029bc87" x="414.72" y="307.584" style="stroke: #000000; stroke-width: 0.8"/>
      </g>
     </g>
     <g id="text_8">
      <!-- 10% -->
      <g transform="translate(403.606719 322.182437) scale(0.1 -0.1)">
       <defs>
        <path id="DejaVuSans-31" d="M 794 531 
L 1825 531 
L 1825 4091 
L 703 3866 
L 703 4441 
L 1819 4666 
L 2450 4666 
L 2450 531 
L 3481 531 
L 3481 0 
L 794 0 
L 794 531 
z
" transform="scale(0.015625)"/>
        <path id="DejaVuSans-30" d="M 2034 4250 
Q 1547 4250 1301 3770 
Q 1056 3291 1056 2328 
Q 1056 1369 1301 889 
Q 1547 409 2034 409 
Q 2525 409 2770 889 
Q 3016 1369 3016 2328 
Q 3016 3291 2770 3770 
Q 2525 4250 2034 4250 
z
M 2034 4750 
Q 2819 4750 3233 4129 
Q 3647 3509 3647 2328 
Q 3647 1150 3233 529 
Q 2819 -91 2034 -91 
Q 1250 -91 836 529 
Q 422 1150 422 2328 
Q 422 3509 836 4129 
Q 1250 4750 2034 4750 
z
" transform="scale(0.015625)"/>
       </defs>
       <use xlink:href="#DejaVuSans-31"/>
       <use xlink:href="#DejaVuSans-30" x="63.623047"/>
       <use xlink:href="#DejaVuSans-25" x="127.246094"/>
      </g>
     </g>
    </g>
   </g>
   <g id="matplotlib.axis_2">
    <g id="ytick_1">
     <g id="line2d_9">
      <defs>
       <path id="m397c92b23a" d="M 0 0 
L -3.5 0 
" style="stroke: #000000; stroke-width: 0.8"/>
      </defs>
      <g>
       <use xlink:href="#m397c92b23a" x="57.6" y="307.584" style="stroke: #000000; stroke-width: 0.8"/>
      </g>
     </g>
     <g id="text_9">
      <!-- 0.000 -->
      <g transform="translate(21.971875 311.383219) scale(0.1 -0.1)">
       <defs>
        <path id="DejaVuSans-2e" d="M 684 794 
L 1344 794 
L 1344 0 
L 684 0 
L 684 794 
z
" transform="scale(0.015625)"/>
       </defs>
       <use xlink:href="#DejaVuSans-30"/>
       <use xlink:href="#DejaVuSans-2e" x="63.623047"/>
       <use xlink:href="#DejaVuSans-30" x="95.410156"/>
       <use xlink:href="#DejaVuSans-30" x="159.033203"/>
       <use xlink:href="#DejaVuSans-30" x="222.65625"/>
      </g>
     </g>
    </g>
    <g id="ytick_2">
     <g id="line2d_10">
      <g>
       <use xlink:href="#m397c92b23a" x="57.6" y="268.737239" style="stroke: #000000; stroke-width: 0.8"/>
      </g>
     </g>
     <g id="text_10">
      <!-- 0.001 -->
      <g transform="translate(21.971875 272.536458) scale(0.1 -0.1)">
       <use xlink:href="#DejaVuSans-30"/>
       <use xlink:href="#DejaVuSans-2e" x="63.623047"/>
       <use xlink:href="#DejaVuSans-30" x="95.410156"/>
       <use xlink:href="#DejaVuSans-30" x="159.033203"/>
       <use xlink:href="#DejaVuSans-31" x="222.65625"/>
      </g>
     </g>
    </g>
    <g id="ytick_3">
     <g id="line2d_11">
      <g>
       <use xlink:href="#m397c92b23a" x="57.6" y="229.890478" style="stroke: #000000; stroke-width: 0.8"/>
      </g>
     </g>
     <g id="text_11">
      <!-- 0.002 -->
      <g transform="translate(21.971875 233.689696) scale(0.1 -0.1)">
       <defs>
        <path id="DejaVuSans-32" d="M 1228 531 
L 3431 531 
L 3431 0 
L 469 0 
L 469 531 
Q 828 903 1448 1529 
Q 2069 2156 2228 2338 
Q 2531 2678 2651 2914 
Q 2772 3150 2772 3378 
Q 2772 3750 2511 3984 
Q 2250 4219 1831 4219 
Q 1534 4219 1204 4116 
Q 875 4013 500 3803 
L 500 4441 
Q 881 4594 1212 4672 
Q 1544 4750 1819 4750 
Q 2544 4750 2975 4387 
Q 3406 4025 3406 3419 
Q 3406 3131 3298 2873 
Q 3191 2616 2906 2266 
Q 2828 2175 2409 1742 
Q 1991 1309 1228 531 
z
" transform="scale(0.015625)"/>
       </defs>
       <use xlink:href="#DejaVuSans-30"/>
       <use xlink:href="#DejaVuSans-2e" x="63.623047"/>
       <use xlink:href="#DejaVuSans-30" x="95.410156"/>
       <use xlink:href="#DejaVuSans-30" x="159.033203"/>
       <use xlink:href="#DejaVuSans-32" x="222.65625"/>
      </g>
     </g>
    </g>
    <g id="ytick_4">
     <g id="line2d_12">
      <g>
       <use xlink:href="#m397c92b23a" x="57.6" y="191.043716" style="stroke: #000000; stroke-width: 0.8"/>
      </g>
     </g>
     <g id="text_12">
      <!-- 0.003 -->
      <g transform="translate(21.971875 194.842935) scale(0.1 -0.1)">
       <use xlink:href="#DejaVuSans-30"/>
       <use xlink:href="#DejaVuSans-2e" x="63.623047"/>
       <use xlink:href="#DejaVuSans-30" x="95.410156"/>
       <use xlink:href="#DejaVuSans-30" x="159.033203"/>
       <use xlink:href="#DejaVuSans-33" x="222.65625"/>
      </g>
     </g>
    </g>
    <g id="ytick_5">
     <g id="line2d_13">
      <g>
       <use xlink:href="#m397c92b23a" x="57.6" y="152.196955" style="stroke: #000000; stroke-width: 0.8"/>
      </g>
     </g>
     <g id="text_13">
      <!-- 0.004 -->
      <g transform="translate(21.971875 155.996174) scale(0.1 -0.1)">
       <use xlink:href="#DejaVuSans-30"/>
       <use xlink:href="#DejaVuSans-2e" x="63.623047"/>
       <use xlink:href="#DejaVuSans-30" x="95.410156"/>
       <use xlink:href="#DejaVuSans-30" x="159.033203"/>
       <use xlink:href="#DejaVuSans-34" x="222.65625"/>
      </g>
     </g>
    </g>
    <g id="ytick_6">
     <g id="line2d_14">
      <g>
       <use xlink:href="#m397c92b23a" x="57.6" y="113.350194" style="stroke: #000000; stroke-width: 0.8"/>
      </g>
     </g>
     <g id="text_14">
      <!-- 0.005 -->
      <g transform="translate(21.971875 117.149413) scale(0.1 -0.1)">
       <use xlink:href="#DejaVuSans-30"/>
       <use xlink:href="#DejaVuSans-2e" x="63.623047"/>
       <use xlink:href="#DejaVuSans-30" x="95.410156"/>
       <use xlink:href="#DejaVuSans-30" x="159.033203"/>
       <use xlink:href="#DejaVuSans-35" x="222.65625"/>
      </g>
     </g>
    </g>
    <g id="ytick_7">
     <g id="line2d_15">
      <g>
       <use xlink:href="#m397c92b23a" x="57.6" y="74.503433" style="stroke: #000000; stroke-width: 0.8"/>
      </g>
     </g>
     <g id="text_15">
      <!-- 0.006 -->
      <g transform="translate(21.971875 78.302651) scale(0.1 -0.1)">
       <use xlink:href="#DejaVuSans-30"/>
       <use xlink:href="#DejaVuSans-2e" x="63.623047"/>
       <use xlink:href="#DejaVuSans-30" x="95.410156"/>
       <use xlink:href="#DejaVuSans-30" x="159.033203"/>
       <use xlink:href="#DejaVuSans-36" x="222.65625"/>
      </g>
     </g>
    </g>
   </g>
   <g id="line2d_16">
    <path d="M 57.6 279.598907 
L 61.207273 274.369548 
L 64.814545 268.54655 
L 68.421818 262.127762 
L 72.029091 255.121096 
L 75.636364 247.544944 
L 79.243636 239.428332 
L 82.850909 230.810798 
L 86.458182 221.741993 
L 90.065455 212.281026 
L 93.672727 202.495574 
L 97.28 192.460774 
L 100.887273 182.25795 
L 104.494545 171.973202 
L 108.101818 161.695895 
L 111.709091 151.517106 
L 115.316364 141.528049 
L 118.923636 131.818544 
L 122.530909 122.475538 
L 126.138182 113.581732 
L 129.745455 105.21434 
L 133.352727 97.443987 
L 136.96 90.33378 
L 140.567273 83.938561 
L 144.174545 78.304339 
L 147.781818 73.46791 
L 151.389091 69.456664 
L 154.996364 66.288559 
L 158.603636 63.97227 
L 162.210909 62.507471 
L 165.818182 61.885271 
L 169.425455 62.088745 
L 173.032727 63.093571 
L 176.64 64.868744 
L 180.247273 67.377343 
L 183.854545 70.577333 
L 187.461818 74.422397 
L 191.069091 78.86276 
L 194.676364 83.846008 
L 198.283636 89.317882 
L 201.890909 95.223033 
L 205.498182 101.505732 
L 209.105455 108.110529 
L 212.712727 114.982848 
L 216.32 122.069521 
L 219.927273 129.319257 
L 223.534545 136.683043 
L 227.141818 144.114477 
L 230.749091 151.570039 
L 234.356364 159.009296 
L 237.963636 166.395054 
L 241.570909 173.693446 
L 245.178182 180.873977 
L 248.785455 187.909521 
L 252.392727 194.776273 
L 256 201.453676 
L 259.607273 207.924304 
L 263.214545 214.173732 
L 266.821818 220.190375 
L 270.429091 225.965319 
L 274.036364 231.492133 
L 277.643636 236.766681 
L 281.250909 241.786923 
L 284.858182 246.552715 
L 288.465455 251.065614 
L 292.072727 255.328686 
L 295.68 259.346315 
L 299.287273 263.124026 
L 302.894545 266.668314 
L 306.501818 269.986482 
L 310.109091 273.086492 
L 313.716364 275.976822 
L 317.323636 278.666343 
L 320.930909 281.1642 
L 324.538182 283.479707 
L 328.145455 285.622253 
L 331.752727 287.601221 
L 335.36 289.425914 
L 338.967273 291.105492 
L 342.574545 292.64892 
L 346.181818 294.064922 
L 349.789091 295.361944 
L 353.396364 296.548126 
L 357.003636 297.631277 
L 360.610909 298.618861 
L 364.218182 299.517984 
L 367.825455 300.335386 
L 371.432727 301.07744 
L 375.04 301.750153 
L 378.647273 302.359171 
L 382.254545 302.909783 
L 385.861818 303.406933 
L 389.469091 303.855228 
L 393.076364 304.258954 
L 396.683636 304.622084 
L 400.290909 304.948296 
L 403.898182 305.240987 
L 407.505455 305.503287 
L 411.112727 305.738074 
L 414.72 305.94799 
" clip-path="url(#pb199fa0fcc)" style="fill: none; stroke: #1f77b4; stroke-width: 1.5; stroke-linecap: square"/>
   </g>
   <g id="patch_363">
    <path d="M 57.6 307.584 
L 57.6 41.472 
" style="fill: none; stroke: #000000; stroke-width: 0.8; stroke-linejoin: miter; stroke-linecap: square"/>
   </g>
   <g id="patch_364">
    <path d="M 414.72 307.584 
L 414.72 41.472 
" style="fill: none; stroke: #000000; stroke-width: 0.8; stroke-linejoin: miter; stroke-linecap: square"/>
   </g>
   <g id="patch_365">
    <path d="M 57.6 307.584 
L 414.72 307.584 
" style="fill: none; stroke: #000000; stroke-width: 0.8; stroke-linejoin: miter; stroke-linecap: square"/>
   </g>
   <g id="patch_366">
    <path d="M 57.6 41.472 
L 414.72 41.472 
" style="fill: none; stroke: #000000; stroke-width: 0.8; stroke-linejoin: miter; stroke-linecap: square"/>
   </g>
  </g>
 </g>
 <defs>
  <clipPath id="pb199fa0fcc">
   <rect x="57.6" y="41.472" width="357.12" height="266.112"/>
  </clipPath>
 </defs>
</svg>
