<?xml version="1.0" encoding="utf-8" standalone="no"?>
<!DOCTYPE svg PUBLIC "-//W3C//DTD SVG 1.1//EN"
  "http://www.w3.org/Graphics/SVG/1.1/DTD/svg11.dtd">
<svg xmlns:xlink="http://www.w3.org/1999/xlink" width="1059.84pt" height="397.44pt" viewBox="0 0 1059.84 397.44" xmlns="http://www.w3.org/2000/svg" version="1.1">
 <metadata>
  <rdf:RDF xmlns:dc="http://purl.org/dc/elements/1.1/" xmlns:cc="http://creativecommons.org/ns#" xmlns:rdf="http://www.w3.org/1999/02/22-rdf-syntax-ns#">
   <cc:Work>
    <dc:type rdf:resource="http://purl.org/dc/dcmitype/StillImage"/>
    <dc:format>image/svg+xml</dc:format>
   </cc:Work>
  </rdf:RDF>
 </metadata>
 <defs>
  <style type="text/css">*{stroke-linejoin: round; stroke-linecap: butt}</style>
 </defs>
 <g id="figure_1">
  <g id="patch_1">
   <path d="M 0 397.44 
L 1059.84 397.44 
L 1059.84 0 
L 0 0 
z
" style="fill: #ffffff"/>
  </g>
  <g id="axes_1">
   <g id="patch_2">
    <path d="M 132.48 353.7216 
L 505.832727 353.7216 
L 505.832727 47.6928 
L 132.48 47.6928 
z
" style="fill: #ffffff"/>
   </g>
   <g id="PolyCollection_1">
    <defs>
     <path id="m2f2203fb57" d="M 149.450579 -57.6288 
L 149.450579 -57.639541 
L 150.114789 -57.639063 
L 150.779 -57.637753 
L 151.44321 -57.63593 
L 152.107421 -57.633983 
L 152.771631 -57.63224 
L 153.435842 -57.630884 
L 154.100052 -57.629953 
L 154.764263 -57.629382 
L 155.428473 -57.629068 
L 156.092684 -57.628881 
L 156.756894 -57.6288 
L 157.421105 -57.6288 
L 158.085315 -57.628881 
L 158.749526 -57.628987 
L 159.413736 -57.629195 
L 160.077947 -57.629558 
L 160.742157 -57.630126 
L 161.406368 -57.630914 
L 162.070578 -57.631869 
L 162.734789 -57.63286 
L 163.398999 -57.633773 
L 164.06321 -57.634439 
L 164.72742 -57.634752 
L 165.391631 -57.634845 
L 166.055841 -57.634944 
L 166.720052 -57.63531 
L 167.384262 -57.636097 
L 168.048473 -57.637256 
L 168.712683 -57.638511 
L 169.376894 -57.639458 
L 170.041104 -57.639728 
L 170.705315 -57.639225 
L 171.369525 -57.638102 
L 172.033736 -57.636699 
L 172.697946 -57.635693 
L 173.362157 -57.635457 
L 174.026367 -57.636521 
L 174.690578 -57.639196 
L 175.354788 -57.64319 
L 176.018999 -57.648655 
L 176.683209 -57.654712 
L 177.34742 -57.661341 
L 178.01163 -57.668224 
L 178.675841 -57.675193 
L 179.340051 -57.682448 
L 180.004262 -57.689918 
L 180.668472 -57.69787 
L 181.332683 -57.705866 
L 181.996893 -57.71366 
L 182.661104 -57.720975 
L 183.325314 -57.727762 
L 183.989525 -57.734785 
L 184.653736 -57.742289 
L 185.317946 -57.751395 
L 185.982157 -57.763251 
L 186.646367 -57.778895 
L 187.310578 -57.799638 
L 187.974788 -57.825801 
L 188.638999 -57.856876 
L 189.303209 -57.890526 
L 189.96742 -57.924585 
L 190.63163 -57.955912 
L 191.295841 -57.983263 
L 191.960051 -58.006819 
L 192.624262 -58.028939 
L 193.288472 -58.051624 
L 193.952683 -58.077741 
L 194.616893 -58.109514 
L 195.281104 -58.149993 
L 195.945314 -58.200203 
L 196.609525 -58.261315 
L 197.273735 -58.333287 
L 197.937946 -58.41564 
L 198.602156 -58.506755 
L 199.266367 -58.604356 
L 199.930577 -58.706199 
L 200.594788 -58.810239 
L 201.258998 -58.915688 
L 201.923209 -59.02339 
L 202.587419 -59.130387 
L 203.25163 -59.238006 
L 203.91584 -59.346046 
L 204.580051 -59.453734 
L 205.244261 -59.56272 
L 205.908472 -59.673648 
L 206.572682 -59.788502 
L 207.236893 -59.912551 
L 207.901103 -60.050581 
L 208.565314 -60.20413 
L 209.229524 -60.380394 
L 209.893735 -60.580673 
L 210.557945 -60.806842 
L 211.222156 -61.055121 
L 211.886366 -61.320095 
L 212.550577 -61.595004 
L 213.214787 -61.875901 
L 213.878998 -62.159328 
L 214.543208 -62.450357 
L 215.207419 -62.756883 
L 215.871629 -63.090917 
L 216.53584 -63.455868 
L 217.20005 -63.854287 
L 217.864261 -64.28527 
L 218.528471 -64.741023 
L 219.192682 -65.22036 
L 219.856892 -65.727925 
L 220.521103 -66.26193 
L 221.185314 -66.834648 
L 221.849524 -67.453916 
L 222.513735 -68.115153 
L 223.177945 -68.818624 
L 223.842156 -69.554637 
L 224.506366 -70.315296 
L 225.170577 -71.092112 
L 225.834787 -71.885478 
L 226.498998 -72.689596 
L 227.163208 -73.512407 
L 227.827419 -74.35602 
L 228.491629 -75.232358 
L 229.15584 -76.154516 
L 229.82005 -77.134576 
L 230.484261 -78.18349 
L 231.148471 -79.297509 
L 231.812682 -80.476019 
L 232.476892 -81.706888 
L 233.141103 -82.979975 
L 233.805313 -84.291899 
L 234.469524 -85.643018 
L 235.133734 -87.03126 
L 235.797945 -88.461217 
L 236.462155 -89.931026 
L 237.126366 -91.435131 
L 237.790576 -92.987003 
L 238.454787 -94.58414 
L 239.118997 -96.236174 
L 239.783208 -97.949616 
L 240.447418 -99.729215 
L 241.111629 -101.57243 
L 241.775839 -103.476423 
L 242.44005 -105.436773 
L 243.10426 -107.456249 
L 243.768471 -109.538585 
L 244.432681 -111.69292 
L 245.096892 -113.918809 
L 245.761102 -116.209733 
L 246.425313 -118.556765 
L 247.089523 -120.943651 
L 247.753734 -123.346114 
L 248.417944 -125.759524 
L 249.082155 -128.162169 
L 249.746365 -130.566974 
L 250.410576 -133.002818 
L 251.074786 -135.494383 
L 251.738997 -138.097622 
L 252.403207 -140.842442 
L 253.067418 -143.745093 
L 253.731628 -146.786652 
L 254.395839 -149.934665 
L 255.060049 -153.136565 
L 255.72426 -156.352072 
L 256.388471 -159.573932 
L 257.052681 -162.825676 
L 257.716892 -166.134475 
L 258.381102 -169.515935 
L 259.045313 -172.956684 
L 259.709523 -176.391531 
L 260.373734 -179.756251 
L 261.037944 -182.991825 
L 261.702155 -186.079359 
L 262.366365 -189.062176 
L 263.030576 -191.99547 
L 263.694786 -194.97061 
L 264.358997 -198.069264 
L 265.023207 -201.314665 
L 265.687418 -204.704559 
L 266.351628 -208.204072 
L 267.015839 -211.762196 
L 267.680049 -215.349282 
L 268.34426 -218.948274 
L 269.00847 -222.572278 
L 269.672681 -226.22915 
L 270.336891 -229.90655 
L 271.001102 -233.595639 
L 271.665312 -237.27635 
L 272.329523 -240.937685 
L 272.993733 -244.574117 
L 273.657944 -248.186192 
L 274.322154 -251.792736 
L 274.986365 -255.3859 
L 275.650575 -258.939616 
L 276.314786 -262.412002 
L 276.978996 -265.751241 
L 277.643207 -268.935409 
L 278.307417 -271.944432 
L 278.971628 -274.775698 
L 279.635838 -277.479298 
L 280.300049 -280.094311 
L 280.964259 -282.689293 
L 281.62847 -285.322127 
L 282.29268 -288.024391 
L 282.956891 -290.794739 
L 283.621101 -293.626715 
L 284.285312 -296.462337 
L 284.949522 -299.258241 
L 285.613733 -301.979484 
L 286.277943 -304.615124 
L 286.942154 -307.162023 
L 287.606364 -309.610553 
L 288.270575 -311.94935 
L 288.934785 -314.168004 
L 289.598996 -316.227458 
L 290.263206 -318.104267 
L 290.927417 -319.75285 
L 291.591628 -321.197501 
L 292.255838 -322.447221 
L 292.920049 -323.546434 
L 293.584259 -324.583747 
L 294.24847 -325.615149 
L 294.91268 -326.704177 
L 295.576891 -327.857903 
L 296.241101 -329.060769 
L 296.905312 -330.248921 
L 297.569522 -331.361166 
L 298.233733 -332.355095 
L 298.897943 -333.216717 
L 299.562154 -333.944466 
L 300.226364 -334.560045 
L 300.890575 -335.062368 
L 301.554785 -335.466329 
L 302.218996 -335.731464 
L 302.883206 -335.8368 
L 303.547417 -335.781075 
L 304.211627 -335.582859 
L 304.875838 -335.25717 
L 305.540048 -334.834656 
L 306.204259 -334.321421 
L 306.868469 -333.701609 
L 307.53268 -332.947956 
L 308.19689 -332.002459 
L 308.861101 -330.83598 
L 309.525311 -329.445898 
L 310.189522 -327.854844 
L 310.853732 -326.148898 
L 311.517943 -324.382181 
L 312.182153 -322.666328 
L 312.846364 -321.042587 
L 313.510574 -319.53641 
L 314.174785 -318.120699 
L 314.838995 -316.714721 
L 315.503206 -315.268121 
L 316.167416 -313.698689 
L 316.831627 -311.946794 
L 317.495837 -310.029947 
L 318.160048 -307.966405 
L 318.824258 -305.79174 
L 319.488469 -303.560925 
L 320.152679 -301.292552 
L 320.81689 -299.004057 
L 321.4811 -296.702429 
L 322.145311 -294.373783 
L 322.809521 -291.991928 
L 323.473732 -289.536565 
L 324.137942 -286.988418 
L 324.802153 -284.344452 
L 325.466363 -281.597443 
L 326.130574 -278.78103 
L 326.794784 -275.8915 
L 327.458995 -272.928146 
L 328.123206 -269.865899 
L 328.787416 -266.686785 
L 329.451627 -263.419365 
L 330.115837 -260.092094 
L 330.780048 -256.773406 
L 331.444258 -253.54106 
L 332.108469 -250.431035 
L 332.772679 -247.441122 
L 333.43689 -244.543324 
L 334.1011 -241.659042 
L 334.765311 -238.744464 
L 335.429521 -235.749025 
L 336.093732 -232.665691 
L 336.757942 -229.51249 
L 337.422153 -226.306601 
L 338.086363 -223.103364 
L 338.750574 -219.92329 
L 339.414784 -216.797462 
L 340.078995 -213.730221 
L 340.743205 -210.708271 
L 341.407416 -207.698815 
L 342.071626 -204.700388 
L 342.735837 -201.685238 
L 343.400047 -198.689384 
L 344.064258 -195.720696 
L 344.728468 -192.800631 
L 345.392679 -189.94303 
L 346.056889 -187.134157 
L 346.7211 -184.383435 
L 347.38531 -181.67411 
L 348.049521 -178.9949 
L 348.713731 -176.331155 
L 349.377942 -173.658899 
L 350.042152 -170.947147 
L 350.706363 -168.183896 
L 351.370573 -165.365074 
L 352.034784 -162.512345 
L 352.698994 -159.658042 
L 353.363205 -156.854887 
L 354.027415 -154.14976 
L 354.691626 -151.549306 
L 355.355836 -149.03136 
L 356.020047 -146.589997 
L 356.684257 -144.182534 
L 357.348468 -141.792972 
L 358.012678 -139.426225 
L 358.676889 -137.094783 
L 359.341099 -134.823771 
L 360.00531 -132.621404 
L 360.66952 -130.496952 
L 361.333731 -128.435489 
L 361.997941 -126.429194 
L 362.662152 -124.459406 
L 363.326363 -122.523667 
L 363.990573 -120.601301 
L 364.654784 -118.69138 
L 365.318994 -116.792599 
L 365.983205 -114.902957 
L 366.647415 -113.028147 
L 367.311626 -111.190603 
L 367.975836 -109.419731 
L 368.640047 -107.731165 
L 369.304257 -106.145378 
L 369.968468 -104.651684 
L 370.632678 -103.257215 
L 371.296889 -101.943944 
L 371.961099 -100.709272 
L 372.62531 -99.536135 
L 373.28952 -98.399102 
L 373.953731 -97.26433 
L 374.617941 -96.09507 
L 375.282152 -94.866025 
L 375.946362 -93.566134 
L 376.610573 -92.209772 
L 377.274783 -90.835887 
L 377.938994 -89.476944 
L 378.603204 -88.167277 
L 379.267415 -86.938093 
L 379.931625 -85.80074 
L 380.595836 -84.763022 
L 381.260046 -83.82467 
L 381.924257 -82.97884 
L 382.588467 -82.198832 
L 383.252678 -81.466901 
L 383.916888 -80.743045 
L 384.581099 -79.999092 
L 385.245309 -79.207417 
L 385.90952 -78.362122 
L 386.57373 -77.47605 
L 387.237941 -76.567003 
L 387.902151 -75.668422 
L 388.566362 -74.813607 
L 389.230572 -74.024055 
L 389.894783 -73.304831 
L 390.558993 -72.651047 
L 391.223204 -72.048236 
L 391.887414 -71.475269 
L 392.551625 -70.917922 
L 393.215835 -70.373813 
L 393.880046 -69.842401 
L 394.544256 -69.330457 
L 395.208467 -68.841558 
L 395.872677 -68.377463 
L 396.536888 -67.934488 
L 397.201098 -67.508773 
L 397.865309 -67.097029 
L 398.529519 -66.701082 
L 399.19373 -66.324511 
L 399.857941 -65.969985 
L 400.522151 -65.640254 
L 401.186362 -65.331679 
L 401.850572 -65.038304 
L 402.514783 -64.753191 
L 403.178993 -64.470939 
L 403.843204 -64.185711 
L 404.507414 -63.895322 
L 405.171625 -63.607551 
L 405.835835 -63.324907 
L 406.500046 -63.054224 
L 407.164256 -62.801377 
L 407.828467 -62.566944 
L 408.492677 -62.350707 
L 409.156888 -62.150983 
L 409.821098 -61.958263 
L 410.485309 -61.769546 
L 411.149519 -61.581121 
L 411.81373 -61.392915 
L 412.47794 -61.209284 
L 413.142151 -61.032998 
L 413.806361 -60.867291 
L 414.470572 -60.710692 
L 415.134782 -60.56118 
L 415.798993 -60.414578 
L 416.463203 -60.267323 
L 417.127414 -60.116266 
L 417.791624 -59.96486 
L 418.455835 -59.815279 
L 419.120045 -59.674632 
L 419.784256 -59.548131 
L 420.448466 -59.440748 
L 421.112677 -59.353831 
L 421.776887 -59.28534 
L 422.441098 -59.225729 
L 423.105308 -59.169033 
L 423.769519 -59.107566 
L 424.433729 -59.038681 
L 425.09794 -58.963266 
L 425.76215 -58.883456 
L 426.426361 -58.806179 
L 427.090571 -58.732286 
L 427.754782 -58.663263 
L 428.418992 -58.598338 
L 429.083203 -58.535668 
L 429.747413 -58.47548 
L 430.411624 -58.417802 
L 431.075834 -58.362787 
L 431.740045 -58.311599 
L 432.404255 -58.266063 
L 433.068466 -58.226082 
L 433.732676 -58.194117 
L 434.396887 -58.169936 
L 435.061098 -58.15233 
L 435.725308 -58.139611 
L 436.389519 -58.128177 
L 437.053729 -58.11526 
L 437.71794 -58.098501 
L 438.38215 -58.077771 
L 439.046361 -58.054072 
L 439.710571 -58.027982 
L 440.374782 -58.001466 
L 441.038992 -57.975387 
L 441.703203 -57.950556 
L 442.367413 -57.92739 
L 443.031624 -57.906238 
L 443.695834 -57.888103 
L 444.360045 -57.872536 
L 445.024255 -57.858974 
L 445.688466 -57.846878 
L 446.352676 -57.836269 
L 447.016887 -57.825615 
L 447.681097 -57.815777 
L 448.345308 -57.806634 
L 449.009518 -57.797847 
L 449.673729 -57.78961 
L 450.337939 -57.781468 
L 451.00215 -57.773095 
L 451.66636 -57.764035 
L 452.330571 -57.754707 
L 452.994781 -57.744895 
L 453.658992 -57.735018 
L 454.323202 -57.725641 
L 454.987413 -57.716586 
L 455.651623 -57.708731 
L 456.315834 -57.702104 
L 456.980044 -57.697043 
L 457.644255 -57.693756 
L 458.308465 -57.69202 
L 458.972676 -57.691134 
L 459.636886 -57.690119 
L 460.301097 -57.688611 
L 460.965307 -57.685925 
L 461.629518 -57.682536 
L 462.293728 -57.678621 
L 462.957939 -57.674924 
L 463.622149 -57.671678 
L 464.28636 -57.668629 
L 464.95057 -57.665685 
L 465.614781 -57.662774 
L 466.278991 -57.660405 
L 466.943202 -57.658816 
L 467.607412 -57.658297 
L 468.271623 -57.658778 
L 468.935833 -57.659257 
L 469.600044 -57.658984 
L 470.264255 -57.657455 
L 470.928465 -57.654723 
L 471.592676 -57.651296 
L 472.256886 -57.648017 
L 472.921097 -57.645559 
L 473.585307 -57.644061 
L 474.249518 -57.643408 
L 474.913728 -57.643294 
L 475.577939 -57.643282 
L 476.242149 -57.642957 
L 476.90636 -57.64233 
L 477.57057 -57.641641 
L 478.234781 -57.64096 
L 478.898991 -57.640552 
L 479.563202 -57.640513 
L 480.227412 -57.640705 
L 480.891623 -57.640784 
L 481.555833 -57.640486 
L 482.220044 -57.639539 
L 482.884254 -57.638021 
L 483.548465 -57.636279 
L 484.212675 -57.634565 
L 484.876886 -57.633393 
L 485.541096 -57.632969 
L 486.205307 -57.633393 
L 486.869517 -57.634565 
L 487.533728 -57.636198 
L 488.197938 -57.637833 
L 488.862149 -57.639063 
L 488.862149 -57.6288 
L 488.862149 -57.6288 
L 488.197938 -57.6288 
L 487.533728 -57.6288 
L 486.869517 -57.6288 
L 486.205307 -57.6288 
L 485.541096 -57.6288 
L 484.876886 -57.6288 
L 484.212675 -57.6288 
L 483.548465 -57.6288 
L 482.884254 -57.6288 
L 482.220044 -57.6288 
L 481.555833 -57.6288 
L 480.891623 -57.6288 
L 480.227412 -57.6288 
L 479.563202 -57.6288 
L 478.898991 -57.6288 
L 478.234781 -57.6288 
L 477.57057 -57.6288 
L 476.90636 -57.6288 
L 476.242149 -57.6288 
L 475.577939 -57.6288 
L 474.913728 -57.6288 
L 474.249518 -57.6288 
L 473.585307 -57.6288 
L 472.921097 -57.6288 
L 472.256886 -57.6288 
L 471.592676 -57.6288 
L 470.928465 -57.6288 
L 470.264255 -57.6288 
L 469.600044 -57.6288 
L 468.935833 -57.6288 
L 468.271623 -57.6288 
L 467.607412 -57.6288 
L 466.943202 -57.6288 
L 466.278991 -57.6288 
L 465.614781 -57.6288 
L 464.95057 -57.6288 
L 464.28636 -57.6288 
L 463.622149 -57.6288 
L 462.957939 -57.6288 
L 462.293728 -57.6288 
L 461.629518 -57.6288 
L 460.965307 -57.6288 
L 460.301097 -57.6288 
L 459.636886 -57.6288 
L 458.972676 -57.6288 
L 458.308465 -57.6288 
L 457.644255 -57.6288 
L 456.980044 -57.6288 
L 456.315834 -57.6288 
L 455.651623 -57.6288 
L 454.987413 -57.6288 
L 454.323202 -57.6288 
L 453.658992 -57.6288 
L 452.994781 -57.6288 
L 452.330571 -57.6288 
L 451.66636 -57.6288 
L 451.00215 -57.6288 
L 450.337939 -57.6288 
L 449.673729 -57.6288 
L 449.009518 -57.6288 
L 448.345308 -57.6288 
L 447.681097 -57.6288 
L 447.016887 -57.6288 
L 446.352676 -57.6288 
L 445.688466 -57.6288 
L 445.024255 -57.6288 
L 444.360045 -57.6288 
L 443.695834 -57.6288 
L 443.031624 -57.6288 
L 442.367413 -57.6288 
L 441.703203 -57.6288 
L 441.038992 -57.6288 
L 440.374782 -57.6288 
L 439.710571 -57.6288 
L 439.046361 -57.6288 
L 438.38215 -57.6288 
L 437.71794 -57.6288 
L 437.053729 -57.6288 
L 436.389519 -57.6288 
L 435.725308 -57.6288 
L 435.061098 -57.6288 
L 434.396887 -57.6288 
L 433.732676 -57.6288 
L 433.068466 -57.6288 
L 432.404255 -57.6288 
L 431.740045 -57.6288 
L 431.075834 -57.6288 
L 430.411624 -57.6288 
L 429.747413 -57.6288 
L 429.083203 -57.6288 
L 428.418992 -57.6288 
L 427.754782 -57.6288 
L 427.090571 -57.6288 
L 426.426361 -57.6288 
L 425.76215 -57.6288 
L 425.09794 -57.6288 
L 424.433729 -57.6288 
L 423.769519 -57.6288 
L 423.105308 -57.6288 
L 422.441098 -57.6288 
L 421.776887 -57.6288 
L 421.112677 -57.6288 
L 420.448466 -57.6288 
L 419.784256 -57.6288 
L 419.120045 -57.6288 
L 418.455835 -57.6288 
L 417.791624 -57.6288 
L 417.127414 -57.6288 
L 416.463203 -57.6288 
L 415.798993 -57.6288 
L 415.134782 -57.6288 
L 414.470572 -57.6288 
L 413.806361 -57.6288 
L 413.142151 -57.6288 
L 412.47794 -57.6288 
L 411.81373 -57.6288 
L 411.149519 -57.6288 
L 410.485309 -57.6288 
L 409.821098 -57.6288 
L 409.156888 -57.6288 
L 408.492677 -57.6288 
L 407.828467 -57.6288 
L 407.164256 -57.6288 
L 406.500046 -57.6288 
L 405.835835 -57.6288 
L 405.171625 -57.6288 
L 404.507414 -57.6288 
L 403.843204 -57.6288 
L 403.178993 -57.6288 
L 402.514783 -57.6288 
L 401.850572 -57.6288 
L 401.186362 -57.6288 
L 400.522151 -57.6288 
L 399.857941 -57.6288 
L 399.19373 -57.6288 
L 398.529519 -57.6288 
L 397.865309 -57.6288 
L 397.201098 -57.6288 
L 396.536888 -57.6288 
L 395.872677 -57.6288 
L 395.208467 -57.6288 
L 394.544256 -57.6288 
L 393.880046 -57.6288 
L 393.215835 -57.6288 
L 392.551625 -57.6288 
L 391.887414 -57.6288 
L 391.223204 -57.6288 
L 390.558993 -57.6288 
L 389.894783 -57.6288 
L 389.230572 -57.6288 
L 388.566362 -57.6288 
L 387.902151 -57.6288 
L 387.237941 -57.6288 
L 386.57373 -57.6288 
L 385.90952 -57.6288 
L 385.245309 -57.6288 
L 384.581099 -57.6288 
L 383.916888 -57.6288 
L 383.252678 -57.6288 
L 382.588467 -57.6288 
L 381.924257 -57.6288 
L 381.260046 -57.6288 
L 380.595836 -57.6288 
L 379.931625 -57.6288 
L 379.267415 -57.6288 
L 378.603204 -57.6288 
L 377.938994 -57.6288 
L 377.274783 -57.6288 
L 376.610573 -57.6288 
L 375.946362 -57.6288 
L 375.282152 -57.6288 
L 374.617941 -57.6288 
L 373.953731 -57.6288 
L 373.28952 -57.6288 
L 372.62531 -57.6288 
L 371.961099 -57.6288 
L 371.296889 -57.6288 
L 370.632678 -57.6288 
L 369.968468 -57.6288 
L 369.304257 -57.6288 
L 368.640047 -57.6288 
L 367.975836 -57.6288 
L 367.311626 -57.6288 
L 366.647415 -57.6288 
L 365.983205 -57.6288 
L 365.318994 -57.6288 
L 364.654784 -57.6288 
L 363.990573 -57.6288 
L 363.326363 -57.6288 
L 362.662152 -57.6288 
L 361.997941 -57.6288 
L 361.333731 -57.6288 
L 360.66952 -57.6288 
L 360.00531 -57.6288 
L 359.341099 -57.6288 
L 358.676889 -57.6288 
L 358.012678 -57.6288 
L 357.348468 -57.6288 
L 356.684257 -57.6288 
L 356.020047 -57.6288 
L 355.355836 -57.6288 
L 354.691626 -57.6288 
L 354.027415 -57.6288 
L 353.363205 -57.6288 
L 352.698994 -57.6288 
L 352.034784 -57.6288 
L 351.370573 -57.6288 
L 350.706363 -57.6288 
L 350.042152 -57.6288 
L 349.377942 -57.6288 
L 348.713731 -57.6288 
L 348.049521 -57.6288 
L 347.38531 -57.6288 
L 346.7211 -57.6288 
L 346.056889 -57.6288 
L 345.392679 -57.6288 
L 344.728468 -57.6288 
L 344.064258 -57.6288 
L 343.400047 -57.6288 
L 342.735837 -57.6288 
L 342.071626 -57.6288 
L 341.407416 -57.6288 
L 340.743205 -57.6288 
L 340.078995 -57.6288 
L 339.414784 -57.6288 
L 338.750574 -57.6288 
L 338.086363 -57.6288 
L 337.422153 -57.6288 
L 336.757942 -57.6288 
L 336.093732 -57.6288 
L 335.429521 -57.6288 
L 334.765311 -57.6288 
L 334.1011 -57.6288 
L 333.43689 -57.6288 
L 332.772679 -57.6288 
L 332.108469 -57.6288 
L 331.444258 -57.6288 
L 330.780048 -57.6288 
L 330.115837 -57.6288 
L 329.451627 -57.6288 
L 328.787416 -57.6288 
L 328.123206 -57.6288 
L 327.458995 -57.6288 
L 326.794784 -57.6288 
L 326.130574 -57.6288 
L 325.466363 -57.6288 
L 324.802153 -57.6288 
L 324.137942 -57.6288 
L 323.473732 -57.6288 
L 322.809521 -57.6288 
L 322.145311 -57.6288 
L 321.4811 -57.6288 
L 320.81689 -57.6288 
L 320.152679 -57.6288 
L 319.488469 -57.6288 
L 318.824258 -57.6288 
L 318.160048 -57.6288 
L 317.495837 -57.6288 
L 316.831627 -57.6288 
L 316.167416 -57.6288 
L 315.503206 -57.6288 
L 314.838995 -57.6288 
L 314.174785 -57.6288 
L 313.510574 -57.6288 
L 312.846364 -57.6288 
L 312.182153 -57.6288 
L 311.517943 -57.6288 
L 310.853732 -57.6288 
L 310.189522 -57.6288 
L 309.525311 -57.6288 
L 308.861101 -57.6288 
L 308.19689 -57.6288 
L 307.53268 -57.6288 
L 306.868469 -57.6288 
L 306.204259 -57.6288 
L 305.540048 -57.6288 
L 304.875838 -57.6288 
L 304.211627 -57.6288 
L 303.547417 -57.6288 
L 302.883206 -57.6288 
L 302.218996 -57.6288 
L 301.554785 -57.6288 
L 300.890575 -57.6288 
L 300.226364 -57.6288 
L 299.562154 -57.6288 
L 298.897943 -57.6288 
L 298.233733 -57.6288 
L 297.569522 -57.6288 
L 296.905312 -57.6288 
L 296.241101 -57.6288 
L 295.576891 -57.6288 
L 294.91268 -57.6288 
L 294.24847 -57.6288 
L 293.584259 -57.6288 
L 292.920049 -57.6288 
L 292.255838 -57.6288 
L 291.591628 -57.6288 
L 290.927417 -57.6288 
L 290.263206 -57.6288 
L 289.598996 -57.6288 
L 288.934785 -57.6288 
L 288.270575 -57.6288 
L 287.606364 -57.6288 
L 286.942154 -57.6288 
L 286.277943 -57.6288 
L 285.613733 -57.6288 
L 284.949522 -57.6288 
L 284.285312 -57.6288 
L 283.621101 -57.6288 
L 282.956891 -57.6288 
L 282.29268 -57.6288 
L 281.62847 -57.6288 
L 280.964259 -57.6288 
L 280.300049 -57.6288 
L 279.635838 -57.6288 
L 278.971628 -57.6288 
L 278.307417 -57.6288 
L 277.643207 -57.6288 
L 276.978996 -57.6288 
L 276.314786 -57.6288 
L 275.650575 -57.6288 
L 274.986365 -57.6288 
L 274.322154 -57.6288 
L 273.657944 -57.6288 
L 272.993733 -57.6288 
L 272.329523 -57.6288 
L 271.665312 -57.6288 
L 271.001102 -57.6288 
L 270.336891 -57.6288 
L 269.672681 -57.6288 
L 269.00847 -57.6288 
L 268.34426 -57.6288 
L 267.680049 -57.6288 
L 267.015839 -57.6288 
L 266.351628 -57.6288 
L 265.687418 -57.6288 
L 265.023207 -57.6288 
L 264.358997 -57.6288 
L 263.694786 -57.6288 
L 263.030576 -57.6288 
L 262.366365 -57.6288 
L 261.702155 -57.6288 
L 261.037944 -57.6288 
L 260.373734 -57.6288 
L 259.709523 -57.6288 
L 259.045313 -57.6288 
L 258.381102 -57.6288 
L 257.716892 -57.6288 
L 257.052681 -57.6288 
L 256.388471 -57.6288 
L 255.72426 -57.6288 
L 255.060049 -57.6288 
L 254.395839 -57.6288 
L 253.731628 -57.6288 
L 253.067418 -57.6288 
L 252.403207 -57.6288 
L 251.738997 -57.6288 
L 251.074786 -57.6288 
L 250.410576 -57.6288 
L 249.746365 -57.6288 
L 249.082155 -57.6288 
L 248.417944 -57.6288 
L 247.753734 -57.6288 
L 247.089523 -57.6288 
L 246.425313 -57.6288 
L 245.761102 -57.6288 
L 245.096892 -57.6288 
L 244.432681 -57.6288 
L 243.768471 -57.6288 
L 243.10426 -57.6288 
L 242.44005 -57.6288 
L 241.775839 -57.6288 
L 241.111629 -57.6288 
L 240.447418 -57.6288 
L 239.783208 -57.6288 
L 239.118997 -57.6288 
L 238.454787 -57.6288 
L 237.790576 -57.6288 
L 237.126366 -57.6288 
L 236.462155 -57.6288 
L 235.797945 -57.6288 
L 235.133734 -57.6288 
L 234.469524 -57.6288 
L 233.805313 -57.6288 
L 233.141103 -57.6288 
L 232.476892 -57.6288 
L 231.812682 -57.6288 
L 231.148471 -57.6288 
L 230.484261 -57.6288 
L 229.82005 -57.6288 
L 229.15584 -57.6288 
L 228.491629 -57.6288 
L 227.827419 -57.6288 
L 227.163208 -57.6288 
L 226.498998 -57.6288 
L 225.834787 -57.6288 
L 225.170577 -57.6288 
L 224.506366 -57.6288 
L 223.842156 -57.6288 
L 223.177945 -57.6288 
L 222.513735 -57.6288 
L 221.849524 -57.6288 
L 221.185314 -57.6288 
L 220.521103 -57.6288 
L 219.856892 -57.6288 
L 219.192682 -57.6288 
L 218.528471 -57.6288 
L 217.864261 -57.6288 
L 217.20005 -57.6288 
L 216.53584 -57.6288 
L 215.871629 -57.6288 
L 215.207419 -57.6288 
L 214.543208 -57.6288 
L 213.878998 -57.6288 
L 213.214787 -57.6288 
L 212.550577 -57.6288 
L 211.886366 -57.6288 
L 211.222156 -57.6288 
L 210.557945 -57.6288 
L 209.893735 -57.6288 
L 209.229524 -57.6288 
L 208.565314 -57.6288 
L 207.901103 -57.6288 
L 207.236893 -57.6288 
L 206.572682 -57.6288 
L 205.908472 -57.6288 
L 205.244261 -57.6288 
L 204.580051 -57.6288 
L 203.91584 -57.6288 
L 203.25163 -57.6288 
L 202.587419 -57.6288 
L 201.923209 -57.6288 
L 201.258998 -57.6288 
L 200.594788 -57.6288 
L 199.930577 -57.6288 
L 199.266367 -57.6288 
L 198.602156 -57.6288 
L 197.937946 -57.6288 
L 197.273735 -57.6288 
L 196.609525 -57.6288 
L 195.945314 -57.6288 
L 195.281104 -57.6288 
L 194.616893 -57.6288 
L 193.952683 -57.6288 
L 193.288472 -57.6288 
L 192.624262 -57.6288 
L 191.960051 -57.6288 
L 191.295841 -57.6288 
L 190.63163 -57.6288 
L 189.96742 -57.6288 
L 189.303209 -57.6288 
L 188.638999 -57.6288 
L 187.974788 -57.6288 
L 187.310578 -57.6288 
L 186.646367 -57.6288 
L 185.982157 -57.6288 
L 185.317946 -57.6288 
L 184.653736 -57.6288 
L 183.989525 -57.6288 
L 183.325314 -57.6288 
L 182.661104 -57.6288 
L 181.996893 -57.6288 
L 181.332683 -57.6288 
L 180.668472 -57.6288 
L 180.004262 -57.6288 
L 179.340051 -57.6288 
L 178.675841 -57.6288 
L 178.01163 -57.6288 
L 177.34742 -57.6288 
L 176.683209 -57.6288 
L 176.018999 -57.6288 
L 175.354788 -57.6288 
L 174.690578 -57.6288 
L 174.026367 -57.6288 
L 173.362157 -57.6288 
L 172.697946 -57.6288 
L 172.033736 -57.6288 
L 171.369525 -57.6288 
L 170.705315 -57.6288 
L 170.041104 -57.6288 
L 169.376894 -57.6288 
L 168.712683 -57.6288 
L 168.048473 -57.6288 
L 167.384262 -57.6288 
L 166.720052 -57.6288 
L 166.055841 -57.6288 
L 165.391631 -57.6288 
L 164.72742 -57.6288 
L 164.06321 -57.6288 
L 163.398999 -57.6288 
L 162.734789 -57.6288 
L 162.070578 -57.6288 
L 161.406368 -57.6288 
L 160.742157 -57.6288 
L 160.077947 -57.6288 
L 159.413736 -57.6288 
L 158.749526 -57.6288 
L 158.085315 -57.6288 
L 157.421105 -57.6288 
L 156.756894 -57.6288 
L 156.092684 -57.6288 
L 155.428473 -57.6288 
L 154.764263 -57.6288 
L 154.100052 -57.6288 
L 153.435842 -57.6288 
L 152.771631 -57.6288 
L 152.107421 -57.6288 
L 151.44321 -57.6288 
L 150.779 -57.6288 
L 150.114789 -57.6288 
L 149.450579 -57.6288 
z
" style="stroke: #1f77b4; stroke-opacity: 0"/>
    </defs>
    <g clip-path="url(#p42e518ae2a)">
     <use xlink:href="#m2f2203fb57" x="0" y="397.44" style="fill: #1f77b4; fill-opacity: 0; stroke: #1f77b4; stroke-opacity: 0"/>
    </g>
   </g>
   <g id="matplotlib.axis_1">
    <g id="xtick_1">
     <g id="line2d_1">
      <defs>
       <path id="m78d098beb5" d="M 0 0 
L 0 3 
" style="stroke: #808080"/>
      </defs>
      <g>
       <use xlink:href="#m78d098beb5" x="214.387082" y="353.7216" style="fill: #808080; stroke: #808080"/>
      </g>
     </g>
     <g id="text_1">
      <!-- 0.04 -->
      <g transform="translate(198.801144 370.859412) scale(0.14 -0.14)">
       <defs>
        <path id="DejaVuSans-30" d="M 2034 4250 
Q 1547 4250 1301 3770 
Q 1056 3291 1056 2328 
Q 1056 1369 1301 889 
Q 1547 409 2034 409 
Q 2525 409 2770 889 
Q 3016 1369 3016 2328 
Q 3016 3291 2770 3770 
Q 2525 4250 2034 4250 
z
M 2034 4750 
Q 2819 4750 3233 4129 
Q 3647 3509 3647 2328 
Q 3647 1150 3233 529 
Q 2819 -91 2034 -91 
Q 1250 -91 836 529 
Q 422 1150 422 2328 
Q 422 3509 836 4129 
Q 1250 4750 2034 4750 
z
" transform="scale(0.015625)"/>
        <path id="DejaVuSans-2e" d="M 684 794 
L 1344 794 
L 1344 0 
L 684 0 
L 684 794 
z
" transform="scale(0.015625)"/>
        <path id="DejaVuSans-34" d="M 2419 4116 
L 825 1625 
L 2419 1625 
L 2419 4116 
z
M 2253 4666 
L 3047 4666 
L 3047 1625 
L 3713 1625 
L 3713 1100 
L 3047 1100 
L 3047 0 
L 2419 0 
L 2419 1100 
L 313 1100 
L 313 1709 
L 2253 4666 
z
" transform="scale(0.015625)"/>
       </defs>
       <use xlink:href="#DejaVuSans-30"/>
       <use xlink:href="#DejaVuSans-2e" x="63.623047"/>
       <use xlink:href="#DejaVuSans-30" x="95.410156"/>
       <use xlink:href="#DejaVuSans-34" x="159.033203"/>
      </g>
     </g>
    </g>
    <g id="xtick_2">
     <g id="line2d_2">
      <g>
       <use xlink:href="#m78d098beb5" x="302.279813" y="353.7216" style="fill: #808080; stroke: #808080"/>
      </g>
     </g>
     <g id="text_2">
      <!-- 0.05 -->
      <g transform="translate(286.693876 370.859412) scale(0.14 -0.14)">
       <defs>
        <path id="DejaVuSans-35" d="M 691 4666 
L 3169 4666 
L 3169 4134 
L 1269 4134 
L 1269 2991 
Q 1406 3038 1543 3061 
Q 1681 3084 1819 3084 
Q 2600 3084 3056 2656 
Q 3513 2228 3513 1497 
Q 3513 744 3044 326 
Q 2575 -91 1722 -91 
Q 1428 -91 1123 -41 
Q 819 9 494 109 
L 494 744 
Q 775 591 1075 516 
Q 1375 441 1709 441 
Q 2250 441 2565 725 
Q 2881 1009 2881 1497 
Q 2881 1984 2565 2268 
Q 2250 2553 1709 2553 
Q 1456 2553 1204 2497 
Q 953 2441 691 2322 
L 691 4666 
z
" transform="scale(0.015625)"/>
       </defs>
       <use xlink:href="#DejaVuSans-30"/>
       <use xlink:href="#DejaVuSans-2e" x="63.623047"/>
       <use xlink:href="#DejaVuSans-30" x="95.410156"/>
       <use xlink:href="#DejaVuSans-35" x="159.033203"/>
      </g>
     </g>
    </g>
    <g id="xtick_3">
     <g id="line2d_3">
      <g>
       <use xlink:href="#m78d098beb5" x="390.172545" y="353.7216" style="fill: #808080; stroke: #808080"/>
      </g>
     </g>
     <g id="text_3">
      <!-- 0.06 -->
      <g transform="translate(374.586607 370.859412) scale(0.14 -0.14)">
       <defs>
        <path id="DejaVuSans-36" d="M 2113 2584 
Q 1688 2584 1439 2293 
Q 1191 2003 1191 1497 
Q 1191 994 1439 701 
Q 1688 409 2113 409 
Q 2538 409 2786 701 
Q 3034 994 3034 1497 
Q 3034 2003 2786 2293 
Q 2538 2584 2113 2584 
z
M 3366 4563 
L 3366 3988 
Q 3128 4100 2886 4159 
Q 2644 4219 2406 4219 
Q 1781 4219 1451 3797 
Q 1122 3375 1075 2522 
Q 1259 2794 1537 2939 
Q 1816 3084 2150 3084 
Q 2853 3084 3261 2657 
Q 3669 2231 3669 1497 
Q 3669 778 3244 343 
Q 2819 -91 2113 -91 
Q 1303 -91 875 529 
Q 447 1150 447 2328 
Q 447 3434 972 4092 
Q 1497 4750 2381 4750 
Q 2619 4750 2861 4703 
Q 3103 4656 3366 4563 
z
" transform="scale(0.015625)"/>
       </defs>
       <use xlink:href="#DejaVuSans-30"/>
       <use xlink:href="#DejaVuSans-2e" x="63.623047"/>
       <use xlink:href="#DejaVuSans-30" x="95.410156"/>
       <use xlink:href="#DejaVuSans-36" x="159.033203"/>
      </g>
     </g>
    </g>
    <g id="xtick_4">
     <g id="line2d_4">
      <g>
       <use xlink:href="#m78d098beb5" x="478.065277" y="353.7216" style="fill: #808080; stroke: #808080"/>
      </g>
     </g>
     <g id="text_4">
      <!-- 0.07 -->
      <g transform="translate(462.479339 370.859412) scale(0.14 -0.14)">
       <defs>
        <path id="DejaVuSans-37" d="M 525 4666 
L 3525 4666 
L 3525 4397 
L 1831 0 
L 1172 0 
L 2766 4134 
L 525 4134 
L 525 4666 
z
" transform="scale(0.015625)"/>
       </defs>
       <use xlink:href="#DejaVuSans-30"/>
       <use xlink:href="#DejaVuSans-2e" x="63.623047"/>
       <use xlink:href="#DejaVuSans-30" x="95.410156"/>
       <use xlink:href="#DejaVuSans-37" x="159.033203"/>
      </g>
     </g>
    </g>
   </g>
   <g id="matplotlib.axis_2"/>
   <g id="line2d_5">
    <path d="M 149.450579 339.800459 
L 182.661104 339.719025 
L 189.303209 339.549474 
L 197.937946 339.02436 
L 203.91584 338.093954 
L 208.565314 337.23587 
L 210.557945 336.633158 
L 213.878998 335.280672 
L 215.871629 334.349083 
L 217.864261 333.15473 
L 219.856892 331.712075 
L 221.849524 329.986084 
L 223.842156 327.885363 
L 227.163208 323.927593 
L 229.15584 321.285484 
L 230.484261 319.25651 
L 232.476892 315.733112 
L 235.133734 310.40874 
L 237.790576 304.452997 
L 239.783208 299.490384 
L 241.775839 293.963577 
L 243.768471 287.901415 
L 245.761102 281.230267 
L 250.410576 264.437182 
L 252.403207 256.597558 
L 254.395839 247.505335 
L 258.381102 227.924065 
L 261.037944 214.448175 
L 266.351628 189.235928 
L 271.001102 163.844361 
L 275.650575 138.500384 
L 277.643207 128.504591 
L 279.635838 119.960702 
L 282.956891 106.645261 
L 286.277943 92.824876 
L 288.270575 85.49065 
L 289.598996 81.212542 
L 290.927417 77.68715 
L 292.255838 74.992779 
L 298.233733 65.084905 
L 299.562154 63.495534 
L 300.890575 62.377632 
L 301.554785 61.973671 
L 302.218996 61.708536 
L 302.883206 61.6032 
L 303.547417 61.658925 
L 304.211627 61.857141 
L 305.540048 62.605344 
L 306.868469 63.738391 
L 307.53268 64.492044 
L 308.19689 65.437541 
L 309.525311 67.994102 
L 310.853732 71.291102 
L 312.846364 76.397413 
L 316.831627 85.493206 
L 318.160048 89.473595 
L 320.81689 98.435943 
L 323.473732 107.903435 
L 325.466363 115.842557 
L 328.123206 127.574101 
L 334.1011 155.780958 
L 336.757942 167.92751 
L 340.743205 186.731729 
L 346.056889 210.305843 
L 355.355836 248.40864 
L 358.676889 260.345217 
L 360.66952 266.943048 
L 363.326363 274.916333 
L 367.311626 286.249397 
L 369.304257 291.294622 
L 370.632678 294.182785 
L 372.62531 297.903865 
L 375.282152 302.573975 
L 379.931625 311.63926 
L 381.260046 313.61533 
L 383.252678 315.973099 
L 385.245309 318.232583 
L 389.894783 324.135169 
L 391.887414 325.964731 
L 394.544256 328.109543 
L 397.201098 329.931227 
L 399.857941 331.470015 
L 402.514783 332.686809 
L 407.828467 334.873056 
L 411.149519 335.858879 
L 415.134782 336.87882 
L 421.112677 338.086169 
L 433.068466 339.213918 
L 438.38215 339.362229 
L 449.009518 339.642153 
L 468.935833 339.780743 
L 488.862149 339.800937 
L 488.862149 339.800937 
" clip-path="url(#p42e518ae2a)" style="fill: none; stroke: #1f77b4; stroke-width: 1.5; stroke-linecap: square"/>
   </g>
   <g id="line2d_6">
    <path d="M 239.977102 333.968832 
L 373.107395 333.968832 
" clip-path="url(#p42e518ae2a)" style="fill: none; stroke: #000000; stroke-width: 3"/>
   </g>
   <g id="patch_3">
    <path d="M 132.48 353.7216 
L 505.832727 353.7216 
" style="fill: none; stroke: #808080; stroke-width: 0.8; stroke-linejoin: miter; stroke-linecap: square"/>
   </g>
   <g id="text_5">
    <!-- 0.043  -->
    <g transform="translate(192.267727 319.362912) scale(0.15 -0.15)">
     <defs>
      <path id="DejaVuSans-33" d="M 2597 2516 
Q 3050 2419 3304 2112 
Q 3559 1806 3559 1356 
Q 3559 666 3084 287 
Q 2609 -91 1734 -91 
Q 1441 -91 1130 -33 
Q 819 25 488 141 
L 488 750 
Q 750 597 1062 519 
Q 1375 441 1716 441 
Q 2309 441 2620 675 
Q 2931 909 2931 1356 
Q 2931 1769 2642 2001 
Q 2353 2234 1838 2234 
L 1294 2234 
L 1294 2753 
L 1863 2753 
Q 2328 2753 2575 2939 
Q 2822 3125 2822 3475 
Q 2822 3834 2567 4026 
Q 2313 4219 1838 4219 
Q 1578 4219 1281 4162 
Q 984 4106 628 3988 
L 628 4550 
Q 988 4650 1302 4700 
Q 1616 4750 1894 4750 
Q 2613 4750 3031 4423 
Q 3450 4097 3450 3541 
Q 3450 3153 3228 2886 
Q 3006 2619 2597 2516 
z
" transform="scale(0.015625)"/>
      <path id="DejaVuSans-20" transform="scale(0.015625)"/>
     </defs>
     <use xlink:href="#DejaVuSans-30"/>
     <use xlink:href="#DejaVuSans-2e" x="63.623047"/>
     <use xlink:href="#DejaVuSans-30" x="95.410156"/>
     <use xlink:href="#DejaVuSans-34" x="159.033203"/>
     <use xlink:href="#DejaVuSans-33" x="222.65625"/>
     <use xlink:href="#DejaVuSans-20" x="286.279297"/>
    </g>
   </g>
   <g id="text_6">
    <!--  0.058 -->
    <g transform="translate(373.107395 319.362912) scale(0.15 -0.15)">
     <defs>
      <path id="DejaVuSans-38" d="M 2034 2216 
Q 1584 2216 1326 1975 
Q 1069 1734 1069 1313 
Q 1069 891 1326 650 
Q 1584 409 2034 409 
Q 2484 409 2743 651 
Q 3003 894 3003 1313 
Q 3003 1734 2745 1975 
Q 2488 2216 2034 2216 
z
M 1403 2484 
Q 997 2584 770 2862 
Q 544 3141 544 3541 
Q 544 4100 942 4425 
Q 1341 4750 2034 4750 
Q 2731 4750 3128 4425 
Q 3525 4100 3525 3541 
Q 3525 3141 3298 2862 
Q 3072 2584 2669 2484 
Q 3125 2378 3379 2068 
Q 3634 1759 3634 1313 
Q 3634 634 3220 271 
Q 2806 -91 2034 -91 
Q 1263 -91 848 271 
Q 434 634 434 1313 
Q 434 1759 690 2068 
Q 947 2378 1403 2484 
z
M 1172 3481 
Q 1172 3119 1398 2916 
Q 1625 2713 2034 2713 
Q 2441 2713 2670 2916 
Q 2900 3119 2900 3481 
Q 2900 3844 2670 4047 
Q 2441 4250 2034 4250 
Q 1625 4250 1398 4047 
Q 1172 3844 1172 3481 
z
" transform="scale(0.015625)"/>
     </defs>
     <use xlink:href="#DejaVuSans-20"/>
     <use xlink:href="#DejaVuSans-30" x="31.787109"/>
     <use xlink:href="#DejaVuSans-2e" x="95.410156"/>
     <use xlink:href="#DejaVuSans-30" x="127.197266"/>
     <use xlink:href="#DejaVuSans-35" x="190.820312"/>
     <use xlink:href="#DejaVuSans-38" x="254.443359"/>
    </g>
   </g>
   <g id="text_7">
    <!-- 95% HDI -->
    <g transform="translate(273.860998 252.17568) scale(0.15 -0.15)">
     <defs>
      <path id="DejaVuSans-39" d="M 703 97 
L 703 672 
Q 941 559 1184 500 
Q 1428 441 1663 441 
Q 2288 441 2617 861 
Q 2947 1281 2994 2138 
Q 2813 1869 2534 1725 
Q 2256 1581 1919 1581 
Q 1219 1581 811 2004 
Q 403 2428 403 3163 
Q 403 3881 828 4315 
Q 1253 4750 1959 4750 
Q 2769 4750 3195 4129 
Q 3622 3509 3622 2328 
Q 3622 1225 3098 567 
Q 2575 -91 1691 -91 
Q 1453 -91 1209 -44 
Q 966 3 703 97 
z
M 1959 2075 
Q 2384 2075 2632 2365 
Q 2881 2656 2881 3163 
Q 2881 3666 2632 3958 
Q 2384 4250 1959 4250 
Q 1534 4250 1286 3958 
Q 1038 3666 1038 3163 
Q 1038 2656 1286 2365 
Q 1534 2075 1959 2075 
z
" transform="scale(0.015625)"/>
      <path id="DejaVuSans-25" d="M 4653 2053 
Q 4381 2053 4226 1822 
Q 4072 1591 4072 1178 
Q 4072 772 4226 539 
Q 4381 306 4653 306 
Q 4919 306 5073 539 
Q 5228 772 5228 1178 
Q 5228 1588 5073 1820 
Q 4919 2053 4653 2053 
z
M 4653 2450 
Q 5147 2450 5437 2106 
Q 5728 1763 5728 1178 
Q 5728 594 5436 251 
Q 5144 -91 4653 -91 
Q 4153 -91 3862 251 
Q 3572 594 3572 1178 
Q 3572 1766 3864 2108 
Q 4156 2450 4653 2450 
z
M 1428 4353 
Q 1159 4353 1004 4120 
Q 850 3888 850 3481 
Q 850 3069 1003 2837 
Q 1156 2606 1428 2606 
Q 1700 2606 1854 2837 
Q 2009 3069 2009 3481 
Q 2009 3884 1853 4118 
Q 1697 4353 1428 4353 
z
M 4250 4750 
L 4750 4750 
L 1831 -91 
L 1331 -91 
L 4250 4750 
z
M 1428 4750 
Q 1922 4750 2215 4408 
Q 2509 4066 2509 3481 
Q 2509 2891 2217 2550 
Q 1925 2209 1428 2209 
Q 931 2209 642 2551 
Q 353 2894 353 3481 
Q 353 4063 643 4406 
Q 934 4750 1428 4750 
z
" transform="scale(0.015625)"/>
      <path id="DejaVuSans-48" d="M 628 4666 
L 1259 4666 
L 1259 2753 
L 3553 2753 
L 3553 4666 
L 4184 4666 
L 4184 0 
L 3553 0 
L 3553 2222 
L 1259 2222 
L 1259 0 
L 628 0 
L 628 4666 
z
" transform="scale(0.015625)"/>
      <path id="DejaVuSans-44" d="M 1259 4147 
L 1259 519 
L 2022 519 
Q 2988 519 3436 956 
Q 3884 1394 3884 2338 
Q 3884 3275 3436 3711 
Q 2988 4147 2022 4147 
L 1259 4147 
z
M 628 4666 
L 1925 4666 
Q 3281 4666 3915 4102 
Q 4550 3538 4550 2338 
Q 4550 1131 3912 565 
Q 3275 0 1925 0 
L 628 0 
L 628 4666 
z
" transform="scale(0.015625)"/>
      <path id="DejaVuSans-49" d="M 628 4666 
L 1259 4666 
L 1259 0 
L 628 0 
L 628 4666 
z
" transform="scale(0.015625)"/>
     </defs>
     <use xlink:href="#DejaVuSans-39"/>
     <use xlink:href="#DejaVuSans-35" x="63.623047"/>
     <use xlink:href="#DejaVuSans-25" x="127.246094"/>
     <use xlink:href="#DejaVuSans-20" x="222.265625"/>
     <use xlink:href="#DejaVuSans-48" x="254.052734"/>
     <use xlink:href="#DejaVuSans-44" x="329.248047"/>
     <use xlink:href="#DejaVuSans-49" x="406.25"/>
    </g>
   </g>
   <g id="text_8">
    <!-- mean=0.05 -->
    <g transform="translate(261.047479 106.11648) scale(0.15 -0.15)">
     <defs>
      <path id="DejaVuSans-6d" d="M 3328 2828 
Q 3544 3216 3844 3400 
Q 4144 3584 4550 3584 
Q 5097 3584 5394 3201 
Q 5691 2819 5691 2113 
L 5691 0 
L 5113 0 
L 5113 2094 
Q 5113 2597 4934 2840 
Q 4756 3084 4391 3084 
Q 3944 3084 3684 2787 
Q 3425 2491 3425 1978 
L 3425 0 
L 2847 0 
L 2847 2094 
Q 2847 2600 2669 2842 
Q 2491 3084 2119 3084 
Q 1678 3084 1418 2786 
Q 1159 2488 1159 1978 
L 1159 0 
L 581 0 
L 581 3500 
L 1159 3500 
L 1159 2956 
Q 1356 3278 1631 3431 
Q 1906 3584 2284 3584 
Q 2666 3584 2933 3390 
Q 3200 3197 3328 2828 
z
" transform="scale(0.015625)"/>
      <path id="DejaVuSans-65" d="M 3597 1894 
L 3597 1613 
L 953 1613 
Q 991 1019 1311 708 
Q 1631 397 2203 397 
Q 2534 397 2845 478 
Q 3156 559 3463 722 
L 3463 178 
Q 3153 47 2828 -22 
Q 2503 -91 2169 -91 
Q 1331 -91 842 396 
Q 353 884 353 1716 
Q 353 2575 817 3079 
Q 1281 3584 2069 3584 
Q 2775 3584 3186 3129 
Q 3597 2675 3597 1894 
z
M 3022 2063 
Q 3016 2534 2758 2815 
Q 2500 3097 2075 3097 
Q 1594 3097 1305 2825 
Q 1016 2553 972 2059 
L 3022 2063 
z
" transform="scale(0.015625)"/>
      <path id="DejaVuSans-61" d="M 2194 1759 
Q 1497 1759 1228 1600 
Q 959 1441 959 1056 
Q 959 750 1161 570 
Q 1363 391 1709 391 
Q 2188 391 2477 730 
Q 2766 1069 2766 1631 
L 2766 1759 
L 2194 1759 
z
M 3341 1997 
L 3341 0 
L 2766 0 
L 2766 531 
Q 2569 213 2275 61 
Q 1981 -91 1556 -91 
Q 1019 -91 701 211 
Q 384 513 384 1019 
Q 384 1609 779 1909 
Q 1175 2209 1959 2209 
L 2766 2209 
L 2766 2266 
Q 2766 2663 2505 2880 
Q 2244 3097 1772 3097 
Q 1472 3097 1187 3025 
Q 903 2953 641 2809 
L 641 3341 
Q 956 3463 1253 3523 
Q 1550 3584 1831 3584 
Q 2591 3584 2966 3190 
Q 3341 2797 3341 1997 
z
" transform="scale(0.015625)"/>
      <path id="DejaVuSans-6e" d="M 3513 2113 
L 3513 0 
L 2938 0 
L 2938 2094 
Q 2938 2591 2744 2837 
Q 2550 3084 2163 3084 
Q 1697 3084 1428 2787 
Q 1159 2491 1159 1978 
L 1159 0 
L 581 0 
L 581 3500 
L 1159 3500 
L 1159 2956 
Q 1366 3272 1645 3428 
Q 1925 3584 2291 3584 
Q 2894 3584 3203 3211 
Q 3513 2838 3513 2113 
z
" transform="scale(0.015625)"/>
      <path id="DejaVuSans-3d" d="M 678 2906 
L 4684 2906 
L 4684 2381 
L 678 2381 
L 678 2906 
z
M 678 1631 
L 4684 1631 
L 4684 1100 
L 678 1100 
L 678 1631 
z
" transform="scale(0.015625)"/>
     </defs>
     <use xlink:href="#DejaVuSans-6d"/>
     <use xlink:href="#DejaVuSans-65" x="97.412109"/>
     <use xlink:href="#DejaVuSans-61" x="158.935547"/>
     <use xlink:href="#DejaVuSans-6e" x="220.214844"/>
     <use xlink:href="#DejaVuSans-3d" x="283.59375"/>
     <use xlink:href="#DejaVuSans-30" x="367.382812"/>
     <use xlink:href="#DejaVuSans-2e" x="431.005859"/>
     <use xlink:href="#DejaVuSans-30" x="462.792969"/>
     <use xlink:href="#DejaVuSans-35" x="526.416016"/>
    </g>
   </g>
   <g id="text_9">
    <!-- θ -->
    <g transform="translate(314.261364 41.6928) scale(0.16 -0.16)">
     <defs>
      <path id="DejaVuSans-3b8" d="M 2953 2219 
L 963 2219 
Q 1009 1284 1225 888 
Q 1494 400 1959 400 
Q 2428 400 2688 891 
Q 2916 1322 2953 2219 
z
M 2944 2750 
Q 2856 3638 2688 3950 
Q 2419 4444 1959 4444 
Q 1481 4444 1228 3956 
Q 1028 3563 969 2750 
L 2944 2750 
z
M 1959 4913 
Q 2709 4913 3138 4250 
Q 3566 3591 3566 2422 
Q 3566 1256 3138 594 
Q 2709 -72 1959 -72 
Q 1206 -72 781 594 
Q 353 1256 353 2422 
Q 353 3591 781 4250 
Q 1206 4913 1959 4913 
z
" transform="scale(0.015625)"/>
     </defs>
     <use xlink:href="#DejaVuSans-3b8"/>
    </g>
   </g>
  </g>
  <g id="axes_2">
   <g id="patch_4">
    <path d="M 580.503273 353.7216 
L 953.856 353.7216 
L 953.856 47.6928 
L 580.503273 47.6928 
z
" style="fill: #ffffff"/>
   </g>
   <g id="PolyCollection_2">
    <defs>
     <path id="m326a6c6eaf" d="M 597.473851 -57.6288 
L 597.473851 -57.642549 
L 598.138062 -57.642075 
L 598.802272 -57.641207 
L 599.466483 -57.640066 
L 600.130693 -57.63876 
L 600.794904 -57.637326 
L 601.459114 -57.635973 
L 602.123325 -57.634623 
L 602.787535 -57.633503 
L 603.451746 -57.632683 
L 604.115956 -57.632318 
L 604.780167 -57.63264 
L 605.444377 -57.633772 
L 606.108588 -57.635491 
L 606.772798 -57.637911 
L 607.437009 -57.64089 
L 608.101219 -57.644506 
L 608.76543 -57.648673 
L 609.42964 -57.653553 
L 610.093851 -57.659219 
L 610.758061 -57.665778 
L 611.422272 -57.672975 
L 612.086482 -57.680205 
L 612.750693 -57.686819 
L 613.414903 -57.692282 
L 614.079114 -57.695706 
L 614.743324 -57.697105 
L 615.407535 -57.697306 
L 616.071745 -57.697814 
L 616.735956 -57.700092 
L 617.400167 -57.705372 
L 618.064377 -57.714132 
L 618.728588 -57.726854 
L 619.392798 -57.742205 
L 620.057009 -57.75979 
L 620.721219 -57.778339 
L 621.38543 -57.797213 
L 622.04964 -57.816821 
L 622.713851 -57.837218 
L 623.378061 -57.858501 
L 624.042272 -57.881219 
L 624.706482 -57.904548 
L 625.370693 -57.927939 
L 626.034903 -57.949955 
L 626.699114 -57.969465 
L 627.363324 -57.986175 
L 628.027535 -58.000345 
L 628.691745 -58.013644 
L 629.355956 -58.028116 
L 630.020166 -58.046186 
L 630.684377 -58.069881 
L 631.348587 -58.101366 
L 632.012798 -58.141709 
L 632.677008 -58.189794 
L 633.341219 -58.246831 
L 634.005429 -58.31034 
L 634.66964 -58.378757 
L 635.33385 -58.450353 
L 635.998061 -58.522938 
L 636.662271 -58.5957 
L 637.326482 -58.669634 
L 637.990692 -58.745155 
L 638.654903 -58.825755 
L 639.319113 -58.913553 
L 639.983324 -59.009868 
L 640.647534 -59.116922 
L 641.311745 -59.233816 
L 641.975955 -59.358609 
L 642.640166 -59.48953 
L 643.304376 -59.622954 
L 643.968587 -59.759513 
L 644.632797 -59.897485 
L 645.297008 -60.03673 
L 645.961218 -60.178446 
L 646.625429 -60.322233 
L 647.289639 -60.468404 
L 647.95385 -60.616757 
L 648.61806 -60.770042 
L 649.282271 -60.933725 
L 649.946481 -61.111452 
L 650.610692 -61.31109 
L 651.274902 -61.535183 
L 651.939113 -61.784251 
L 652.603324 -62.05359 
L 653.267534 -62.336261 
L 653.931745 -62.627737 
L 654.595955 -62.924788 
L 655.260166 -63.232739 
L 655.924376 -63.561057 
L 656.588587 -63.91795 
L 657.252797 -64.315194 
L 657.917008 -64.753933 
L 658.581218 -65.23216 
L 659.245429 -65.740875 
L 659.909639 -66.26892 
L 660.57385 -66.808938 
L 661.23806 -67.347327 
L 661.902271 -67.890612 
L 662.566481 -68.440157 
L 663.230692 -69.002378 
L 663.894902 -69.582728 
L 664.559113 -70.17972 
L 665.223323 -70.796547 
L 665.887534 -71.432314 
L 666.551744 -72.09043 
L 667.215955 -72.772846 
L 667.880165 -73.489887 
L 668.544376 -74.248726 
L 669.208586 -75.052058 
L 669.872797 -75.905789 
L 670.537007 -76.807376 
L 671.201218 -77.752058 
L 671.865428 -78.738776 
L 672.529639 -79.767538 
L 673.193849 -80.837099 
L 673.85806 -81.94597 
L 674.52227 -83.092625 
L 675.186481 -84.281442 
L 675.850691 -85.504821 
L 676.514902 -86.764192 
L 677.179112 -88.053961 
L 677.843323 -89.369105 
L 678.507533 -90.702595 
L 679.171744 -92.04887 
L 679.835954 -93.409425 
L 680.500165 -94.79195 
L 681.164375 -96.217655 
L 681.828586 -97.698201 
L 682.492796 -99.249702 
L 683.157007 -100.883947 
L 683.821217 -102.605625 
L 684.485428 -104.419002 
L 685.149638 -106.314553 
L 685.813849 -108.279651 
L 686.478059 -110.294421 
L 687.14227 -112.340562 
L 687.806481 -114.402357 
L 688.470691 -116.468491 
L 689.134902 -118.540776 
L 689.799112 -120.631889 
L 690.463323 -122.751852 
L 691.127533 -124.911214 
L 691.791744 -127.113692 
L 692.455954 -129.344784 
L 693.120165 -131.607012 
L 693.784375 -133.911057 
L 694.448586 -136.259111 
L 695.112796 -138.661204 
L 695.777007 -141.12749 
L 696.441217 -143.670988 
L 697.105428 -146.272857 
L 697.769638 -148.918822 
L 698.433849 -151.610931 
L 699.098059 -154.352915 
L 699.76227 -157.162698 
L 700.42648 -160.067728 
L 701.090691 -163.077203 
L 701.754901 -166.196331 
L 702.419112 -169.401547 
L 703.083322 -172.663611 
L 703.747533 -175.950065 
L 704.411743 -179.226917 
L 705.075954 -182.490686 
L 705.740164 -185.74517 
L 706.404375 -189.018044 
L 707.068585 -192.315316 
L 707.732796 -195.643466 
L 708.397006 -198.989803 
L 709.061217 -202.325475 
L 709.725427 -205.620015 
L 710.389638 -208.840126 
L 711.053848 -211.985576 
L 711.718059 -215.044419 
L 712.382269 -218.035154 
L 713.04648 -220.976807 
L 713.71069 -223.884221 
L 714.374901 -226.763998 
L 715.039111 -229.649588 
L 715.703322 -232.557885 
L 716.367532 -235.518976 
L 717.031743 -238.543227 
L 717.695953 -241.639528 
L 718.360164 -244.787065 
L 719.024374 -247.931494 
L 719.688585 -251.032418 
L 720.352795 -254.049062 
L 721.017006 -256.993954 
L 721.681216 -259.864801 
L 722.345427 -262.714755 
L 723.009637 -265.579479 
L 723.673848 -268.483588 
L 724.338059 -271.429994 
L 725.002269 -274.390806 
L 725.66648 -277.341733 
L 726.33069 -280.26349 
L 726.994901 -283.16502 
L 727.659111 -286.069091 
L 728.323322 -289.00206 
L 728.987532 -291.967326 
L 729.651743 -294.944159 
L 730.315953 -297.887308 
L 730.980164 -300.728088 
L 731.644374 -303.399377 
L 732.308585 -305.88714 
L 732.972795 -308.194697 
L 733.637006 -310.353252 
L 734.301216 -312.401625 
L 734.965427 -314.347371 
L 735.629637 -316.225729 
L 736.293848 -317.987678 
L 736.958058 -319.618679 
L 737.622269 -321.101426 
L 738.286479 -322.444597 
L 738.95069 -323.694297 
L 739.6149 -324.876199 
L 740.279111 -326.027839 
L 740.943321 -327.175445 
L 741.607532 -328.318677 
L 742.271742 -329.438273 
L 742.935953 -330.507416 
L 743.600163 -331.513446 
L 744.264374 -332.455484 
L 744.928584 -333.326851 
L 745.592795 -334.135529 
L 746.257005 -334.840635 
L 746.921216 -335.390632 
L 747.585426 -335.74243 
L 748.249637 -335.8368 
L 748.913847 -335.666672 
L 749.578058 -335.250016 
L 750.242268 -334.651363 
L 750.906479 -333.948059 
L 751.570689 -333.225877 
L 752.2349 -332.560518 
L 752.89911 -331.981677 
L 753.563321 -331.500773 
L 754.227531 -331.069732 
L 754.891742 -330.636216 
L 755.555952 -330.120414 
L 756.220163 -329.473512 
L 756.884373 -328.67823 
L 757.548584 -327.753859 
L 758.212794 -326.749564 
L 758.877005 -325.733955 
L 759.541216 -324.730803 
L 760.205426 -323.737395 
L 760.869637 -322.704732 
L 761.533847 -321.560241 
L 762.198058 -320.255421 
L 762.862268 -318.741466 
L 763.526479 -317.012567 
L 764.190689 -315.106405 
L 764.8549 -313.064798 
L 765.51911 -310.950722 
L 766.183321 -308.784336 
L 766.847531 -306.586647 
L 767.511742 -304.355786 
L 768.175952 -302.083032 
L 768.840163 -299.732237 
L 769.504373 -297.290803 
L 770.168584 -294.752243 
L 770.832794 -292.11984 
L 771.497005 -289.433923 
L 772.161215 -286.714856 
L 772.825426 -284.000445 
L 773.489636 -281.32348 
L 774.153847 -278.687106 
L 774.818057 -276.089262 
L 775.482268 -273.479453 
L 776.146478 -270.829412 
L 776.810689 -268.090536 
L 777.474899 -265.230094 
L 778.13911 -262.224695 
L 778.80332 -259.067975 
L 779.467531 -255.774633 
L 780.131741 -252.401013 
L 780.795952 -248.981525 
L 781.460162 -245.561464 
L 782.124373 -242.175389 
L 782.788583 -238.843144 
L 783.452794 -235.572814 
L 784.117004 -232.355338 
L 784.781215 -229.191042 
L 785.445425 -226.078453 
L 786.109636 -223.049322 
L 786.773846 -220.102256 
L 787.438057 -217.226165 
L 788.102267 -214.406043 
L 788.766478 -211.607953 
L 789.430688 -208.820572 
L 790.094899 -206.012743 
L 790.759109 -203.196639 
L 791.42332 -200.376359 
L 792.08753 -197.561024 
L 792.751741 -194.758562 
L 793.415951 -191.959894 
L 794.080162 -189.16072 
L 794.744372 -186.371464 
L 795.408583 -183.592164 
L 796.072794 -180.831473 
L 796.737004 -178.1021 
L 797.401215 -175.407996 
L 798.065425 -172.748244 
L 798.729636 -170.120871 
L 799.393846 -167.506503 
L 800.058057 -164.87745 
L 800.722267 -162.219783 
L 801.386478 -159.512011 
L 802.050688 -156.764308 
L 802.714899 -153.988973 
L 803.379109 -151.234427 
L 804.04332 -148.56481 
L 804.70753 -146.018126 
L 805.371741 -143.630517 
L 806.035951 -141.39759 
L 806.700162 -139.298164 
L 807.364372 -137.297363 
L 808.028583 -135.344699 
L 808.692793 -133.408815 
L 809.357004 -131.467027 
L 810.021214 -129.508805 
L 810.685425 -127.529397 
L 811.349635 -125.52993 
L 812.013846 -123.524154 
L 812.678056 -121.527184 
L 813.342267 -119.564148 
L 814.006477 -117.654811 
L 814.670688 -115.817527 
L 815.334898 -114.070141 
L 815.999109 -112.403067 
L 816.663319 -110.808815 
L 817.32753 -109.263126 
L 817.99174 -107.742435 
L 818.655951 -106.226416 
L 819.320161 -104.692074 
L 819.984372 -103.138036 
L 820.648582 -101.560707 
L 821.312793 -99.975597 
L 821.977003 -98.403112 
L 822.641214 -96.861513 
L 823.305424 -95.375204 
L 823.969635 -93.959516 
L 824.633845 -92.621843 
L 825.298056 -91.365369 
L 825.962266 -90.185085 
L 826.626477 -89.076472 
L 827.290687 -88.034011 
L 827.954898 -87.053052 
L 828.619108 -86.125762 
L 829.283319 -85.242642 
L 829.947529 -84.390486 
L 830.61174 -83.55546 
L 831.275951 -82.715825 
L 831.940161 -81.853125 
L 832.604372 -80.961908 
L 833.268582 -80.047981 
L 833.932793 -79.125707 
L 834.597003 -78.222319 
L 835.261214 -77.364428 
L 835.925424 -76.566784 
L 836.589635 -75.83794 
L 837.253845 -75.167133 
L 837.918056 -74.533687 
L 838.582266 -73.921063 
L 839.246477 -73.311003 
L 839.910687 -72.704511 
L 840.574898 -72.095741 
L 841.239108 -71.489483 
L 841.903319 -70.888742 
L 842.567529 -70.293426 
L 843.23174 -69.708982 
L 843.89595 -69.142703 
L 844.560161 -68.601326 
L 845.224371 -68.097824 
L 845.888582 -67.634436 
L 846.552792 -67.209113 
L 847.217003 -66.812391 
L 847.881213 -66.434272 
L 848.545424 -66.06369 
L 849.209634 -65.694828 
L 849.873845 -65.334877 
L 850.538055 -64.986874 
L 851.202266 -64.652486 
L 851.866476 -64.335761 
L 852.530687 -64.03269 
L 853.194897 -63.736004 
L 853.859108 -63.443059 
L 854.523318 -63.152938 
L 855.187529 -62.868447 
L 855.851739 -62.596085 
L 856.51595 -62.342954 
L 857.18016 -62.112238 
L 857.844371 -61.903842 
L 858.508581 -61.715816 
L 859.172792 -61.540209 
L 859.837002 -61.374736 
L 860.501213 -61.212881 
L 861.165423 -61.051513 
L 861.829634 -60.888593 
L 862.493844 -60.726563 
L 863.158055 -60.567782 
L 863.822265 -60.413841 
L 864.486476 -60.268057 
L 865.150686 -60.135745 
L 865.814897 -60.016721 
L 866.479108 -59.909648 
L 867.143318 -59.814604 
L 867.807529 -59.726466 
L 868.471739 -59.643257 
L 869.13595 -59.561837 
L 869.80016 -59.480975 
L 870.464371 -59.399505 
L 871.128581 -59.319036 
L 871.792792 -59.241632 
L 872.457002 -59.166461 
L 873.121213 -59.095192 
L 873.785423 -59.024124 
L 874.449634 -58.954235 
L 875.113844 -58.883385 
L 875.778055 -58.811086 
L 876.442265 -58.7371 
L 877.106476 -58.663634 
L 877.770686 -58.593114 
L 878.434897 -58.527456 
L 879.099107 -58.468623 
L 879.763318 -58.418093 
L 880.427528 -58.375702 
L 881.091739 -58.340206 
L 881.755949 -58.309335 
L 882.42016 -58.281691 
L 883.08437 -58.256015 
L 883.748581 -58.231483 
L 884.412791 -58.207898 
L 885.077002 -58.185426 
L 885.741212 -58.163483 
L 886.405423 -58.141027 
L 887.069633 -58.116242 
L 887.733844 -58.088489 
L 888.398054 -58.057157 
L 889.062265 -58.023146 
L 889.726475 -57.988586 
L 890.390686 -57.955502 
L 891.054896 -57.925654 
L 891.719107 -57.900731 
L 892.383317 -57.881266 
L 893.047528 -57.866347 
L 893.711738 -57.853946 
L 894.375949 -57.843411 
L 895.040159 -57.832953 
L 895.70437 -57.822155 
L 896.36858 -57.810523 
L 897.032791 -57.798389 
L 897.697001 -57.786775 
L 898.361212 -57.77611 
L 899.025422 -57.766575 
L 899.689633 -57.758368 
L 900.353843 -57.751281 
L 901.018054 -57.745108 
L 901.682264 -57.739497 
L 902.346475 -57.734031 
L 903.010686 -57.728773 
L 903.674896 -57.723223 
L 904.339107 -57.717529 
L 905.003317 -57.711761 
L 905.667528 -57.706082 
L 906.331738 -57.700787 
L 906.995949 -57.696218 
L 907.660159 -57.692479 
L 908.32437 -57.689164 
L 908.98858 -57.686161 
L 909.652791 -57.682725 
L 910.317001 -57.679101 
L 910.981212 -57.67478 
L 911.645422 -57.670119 
L 912.309633 -57.665405 
L 912.973843 -57.661158 
L 913.638054 -57.657878 
L 914.302264 -57.655708 
L 914.966475 -57.654664 
L 915.630685 -57.654564 
L 916.294896 -57.654894 
L 916.959106 -57.655471 
L 917.623317 -57.655754 
L 918.287527 -57.655489 
L 918.951738 -57.654343 
L 919.615948 -57.652407 
L 920.280159 -57.649698 
L 920.944369 -57.646522 
L 921.60858 -57.643481 
L 922.27279 -57.64085 
L 922.937001 -57.638909 
L 923.601211 -57.637801 
L 924.265422 -57.637262 
L 924.929632 -57.637227 
L 925.593843 -57.63732 
L 926.258053 -57.637359 
L 926.922264 -57.637122 
L 927.586474 -57.636791 
L 928.250685 -57.636139 
L 928.914895 -57.63521 
L 929.579106 -57.634084 
L 930.243316 -57.632964 
L 930.907527 -57.631999 
L 931.571737 -57.631308 
L 932.235948 -57.631033 
L 932.900158 -57.631355 
L 933.564369 -57.632239 
L 934.228579 -57.633634 
L 934.89279 -57.635369 
L 935.557 -57.637122 
L 936.221211 -57.638623 
L 936.885421 -57.639472 
L 936.885421 -57.6288 
L 936.885421 -57.6288 
L 936.221211 -57.6288 
L 935.557 -57.6288 
L 934.89279 -57.6288 
L 934.228579 -57.6288 
L 933.564369 -57.6288 
L 932.900158 -57.6288 
L 932.235948 -57.6288 
L 931.571737 -57.6288 
L 930.907527 -57.6288 
L 930.243316 -57.6288 
L 929.579106 -57.6288 
L 928.914895 -57.6288 
L 928.250685 -57.6288 
L 927.586474 -57.6288 
L 926.922264 -57.6288 
L 926.258053 -57.6288 
L 925.593843 -57.6288 
L 924.929632 -57.6288 
L 924.265422 -57.6288 
L 923.601211 -57.6288 
L 922.937001 -57.6288 
L 922.27279 -57.6288 
L 921.60858 -57.6288 
L 920.944369 -57.6288 
L 920.280159 -57.6288 
L 919.615948 -57.6288 
L 918.951738 -57.6288 
L 918.287527 -57.6288 
L 917.623317 -57.6288 
L 916.959106 -57.6288 
L 916.294896 -57.6288 
L 915.630685 -57.6288 
L 914.966475 -57.6288 
L 914.302264 -57.6288 
L 913.638054 -57.6288 
L 912.973843 -57.6288 
L 912.309633 -57.6288 
L 911.645422 -57.6288 
L 910.981212 -57.6288 
L 910.317001 -57.6288 
L 909.652791 -57.6288 
L 908.98858 -57.6288 
L 908.32437 -57.6288 
L 907.660159 -57.6288 
L 906.995949 -57.6288 
L 906.331738 -57.6288 
L 905.667528 -57.6288 
L 905.003317 -57.6288 
L 904.339107 -57.6288 
L 903.674896 -57.6288 
L 903.010686 -57.6288 
L 902.346475 -57.6288 
L 901.682264 -57.6288 
L 901.018054 -57.6288 
L 900.353843 -57.6288 
L 899.689633 -57.6288 
L 899.025422 -57.6288 
L 898.361212 -57.6288 
L 897.697001 -57.6288 
L 897.032791 -57.6288 
L 896.36858 -57.6288 
L 895.70437 -57.6288 
L 895.040159 -57.6288 
L 894.375949 -57.6288 
L 893.711738 -57.6288 
L 893.047528 -57.6288 
L 892.383317 -57.6288 
L 891.719107 -57.6288 
L 891.054896 -57.6288 
L 890.390686 -57.6288 
L 889.726475 -57.6288 
L 889.062265 -57.6288 
L 888.398054 -57.6288 
L 887.733844 -57.6288 
L 887.069633 -57.6288 
L 886.405423 -57.6288 
L 885.741212 -57.6288 
L 885.077002 -57.6288 
L 884.412791 -57.6288 
L 883.748581 -57.6288 
L 883.08437 -57.6288 
L 882.42016 -57.6288 
L 881.755949 -57.6288 
L 881.091739 -57.6288 
L 880.427528 -57.6288 
L 879.763318 -57.6288 
L 879.099107 -57.6288 
L 878.434897 -57.6288 
L 877.770686 -57.6288 
L 877.106476 -57.6288 
L 876.442265 -57.6288 
L 875.778055 -57.6288 
L 875.113844 -57.6288 
L 874.449634 -57.6288 
L 873.785423 -57.6288 
L 873.121213 -57.6288 
L 872.457002 -57.6288 
L 871.792792 -57.6288 
L 871.128581 -57.6288 
L 870.464371 -57.6288 
L 869.80016 -57.6288 
L 869.13595 -57.6288 
L 868.471739 -57.6288 
L 867.807529 -57.6288 
L 867.143318 -57.6288 
L 866.479108 -57.6288 
L 865.814897 -57.6288 
L 865.150686 -57.6288 
L 864.486476 -57.6288 
L 863.822265 -57.6288 
L 863.158055 -57.6288 
L 862.493844 -57.6288 
L 861.829634 -57.6288 
L 861.165423 -57.6288 
L 860.501213 -57.6288 
L 859.837002 -57.6288 
L 859.172792 -57.6288 
L 858.508581 -57.6288 
L 857.844371 -57.6288 
L 857.18016 -57.6288 
L 856.51595 -57.6288 
L 855.851739 -57.6288 
L 855.187529 -57.6288 
L 854.523318 -57.6288 
L 853.859108 -57.6288 
L 853.194897 -57.6288 
L 852.530687 -57.6288 
L 851.866476 -57.6288 
L 851.202266 -57.6288 
L 850.538055 -57.6288 
L 849.873845 -57.6288 
L 849.209634 -57.6288 
L 848.545424 -57.6288 
L 847.881213 -57.6288 
L 847.217003 -57.6288 
L 846.552792 -57.6288 
L 845.888582 -57.6288 
L 845.224371 -57.6288 
L 844.560161 -57.6288 
L 843.89595 -57.6288 
L 843.23174 -57.6288 
L 842.567529 -57.6288 
L 841.903319 -57.6288 
L 841.239108 -57.6288 
L 840.574898 -57.6288 
L 839.910687 -57.6288 
L 839.246477 -57.6288 
L 838.582266 -57.6288 
L 837.918056 -57.6288 
L 837.253845 -57.6288 
L 836.589635 -57.6288 
L 835.925424 -57.6288 
L 835.261214 -57.6288 
L 834.597003 -57.6288 
L 833.932793 -57.6288 
L 833.268582 -57.6288 
L 832.604372 -57.6288 
L 831.940161 -57.6288 
L 831.275951 -57.6288 
L 830.61174 -57.6288 
L 829.947529 -57.6288 
L 829.283319 -57.6288 
L 828.619108 -57.6288 
L 827.954898 -57.6288 
L 827.290687 -57.6288 
L 826.626477 -57.6288 
L 825.962266 -57.6288 
L 825.298056 -57.6288 
L 824.633845 -57.6288 
L 823.969635 -57.6288 
L 823.305424 -57.6288 
L 822.641214 -57.6288 
L 821.977003 -57.6288 
L 821.312793 -57.6288 
L 820.648582 -57.6288 
L 819.984372 -57.6288 
L 819.320161 -57.6288 
L 818.655951 -57.6288 
L 817.99174 -57.6288 
L 817.32753 -57.6288 
L 816.663319 -57.6288 
L 815.999109 -57.6288 
L 815.334898 -57.6288 
L 814.670688 -57.6288 
L 814.006477 -57.6288 
L 813.342267 -57.6288 
L 812.678056 -57.6288 
L 812.013846 -57.6288 
L 811.349635 -57.6288 
L 810.685425 -57.6288 
L 810.021214 -57.6288 
L 809.357004 -57.6288 
L 808.692793 -57.6288 
L 808.028583 -57.6288 
L 807.364372 -57.6288 
L 806.700162 -57.6288 
L 806.035951 -57.6288 
L 805.371741 -57.6288 
L 804.70753 -57.6288 
L 804.04332 -57.6288 
L 803.379109 -57.6288 
L 802.714899 -57.6288 
L 802.050688 -57.6288 
L 801.386478 -57.6288 
L 800.722267 -57.6288 
L 800.058057 -57.6288 
L 799.393846 -57.6288 
L 798.729636 -57.6288 
L 798.065425 -57.6288 
L 797.401215 -57.6288 
L 796.737004 -57.6288 
L 796.072794 -57.6288 
L 795.408583 -57.6288 
L 794.744372 -57.6288 
L 794.080162 -57.6288 
L 793.415951 -57.6288 
L 792.751741 -57.6288 
L 792.08753 -57.6288 
L 791.42332 -57.6288 
L 790.759109 -57.6288 
L 790.094899 -57.6288 
L 789.430688 -57.6288 
L 788.766478 -57.6288 
L 788.102267 -57.6288 
L 787.438057 -57.6288 
L 786.773846 -57.6288 
L 786.109636 -57.6288 
L 785.445425 -57.6288 
L 784.781215 -57.6288 
L 784.117004 -57.6288 
L 783.452794 -57.6288 
L 782.788583 -57.6288 
L 782.124373 -57.6288 
L 781.460162 -57.6288 
L 780.795952 -57.6288 
L 780.131741 -57.6288 
L 779.467531 -57.6288 
L 778.80332 -57.6288 
L 778.13911 -57.6288 
L 777.474899 -57.6288 
L 776.810689 -57.6288 
L 776.146478 -57.6288 
L 775.482268 -57.6288 
L 774.818057 -57.6288 
L 774.153847 -57.6288 
L 773.489636 -57.6288 
L 772.825426 -57.6288 
L 772.161215 -57.6288 
L 771.497005 -57.6288 
L 770.832794 -57.6288 
L 770.168584 -57.6288 
L 769.504373 -57.6288 
L 768.840163 -57.6288 
L 768.175952 -57.6288 
L 767.511742 -57.6288 
L 766.847531 -57.6288 
L 766.183321 -57.6288 
L 765.51911 -57.6288 
L 764.8549 -57.6288 
L 764.190689 -57.6288 
L 763.526479 -57.6288 
L 762.862268 -57.6288 
L 762.198058 -57.6288 
L 761.533847 -57.6288 
L 760.869637 -57.6288 
L 760.205426 -57.6288 
L 759.541216 -57.6288 
L 758.877005 -57.6288 
L 758.212794 -57.6288 
L 757.548584 -57.6288 
L 756.884373 -57.6288 
L 756.220163 -57.6288 
L 755.555952 -57.6288 
L 754.891742 -57.6288 
L 754.227531 -57.6288 
L 753.563321 -57.6288 
L 752.89911 -57.6288 
L 752.2349 -57.6288 
L 751.570689 -57.6288 
L 750.906479 -57.6288 
L 750.242268 -57.6288 
L 749.578058 -57.6288 
L 748.913847 -57.6288 
L 748.249637 -57.6288 
L 747.585426 -57.6288 
L 746.921216 -57.6288 
L 746.257005 -57.6288 
L 745.592795 -57.6288 
L 744.928584 -57.6288 
L 744.264374 -57.6288 
L 743.600163 -57.6288 
L 742.935953 -57.6288 
L 742.271742 -57.6288 
L 741.607532 -57.6288 
L 740.943321 -57.6288 
L 740.279111 -57.6288 
L 739.6149 -57.6288 
L 738.95069 -57.6288 
L 738.286479 -57.6288 
L 737.622269 -57.6288 
L 736.958058 -57.6288 
L 736.293848 -57.6288 
L 735.629637 -57.6288 
L 734.965427 -57.6288 
L 734.301216 -57.6288 
L 733.637006 -57.6288 
L 732.972795 -57.6288 
L 732.308585 -57.6288 
L 731.644374 -57.6288 
L 730.980164 -57.6288 
L 730.315953 -57.6288 
L 729.651743 -57.6288 
L 728.987532 -57.6288 
L 728.323322 -57.6288 
L 727.659111 -57.6288 
L 726.994901 -57.6288 
L 726.33069 -57.6288 
L 725.66648 -57.6288 
L 725.002269 -57.6288 
L 724.338059 -57.6288 
L 723.673848 -57.6288 
L 723.009637 -57.6288 
L 722.345427 -57.6288 
L 721.681216 -57.6288 
L 721.017006 -57.6288 
L 720.352795 -57.6288 
L 719.688585 -57.6288 
L 719.024374 -57.6288 
L 718.360164 -57.6288 
L 717.695953 -57.6288 
L 717.031743 -57.6288 
L 716.367532 -57.6288 
L 715.703322 -57.6288 
L 715.039111 -57.6288 
L 714.374901 -57.6288 
L 713.71069 -57.6288 
L 713.04648 -57.6288 
L 712.382269 -57.6288 
L 711.718059 -57.6288 
L 711.053848 -57.6288 
L 710.389638 -57.6288 
L 709.725427 -57.6288 
L 709.061217 -57.6288 
L 708.397006 -57.6288 
L 707.732796 -57.6288 
L 707.068585 -57.6288 
L 706.404375 -57.6288 
L 705.740164 -57.6288 
L 705.075954 -57.6288 
L 704.411743 -57.6288 
L 703.747533 -57.6288 
L 703.083322 -57.6288 
L 702.419112 -57.6288 
L 701.754901 -57.6288 
L 701.090691 -57.6288 
L 700.42648 -57.6288 
L 699.76227 -57.6288 
L 699.098059 -57.6288 
L 698.433849 -57.6288 
L 697.769638 -57.6288 
L 697.105428 -57.6288 
L 696.441217 -57.6288 
L 695.777007 -57.6288 
L 695.112796 -57.6288 
L 694.448586 -57.6288 
L 693.784375 -57.6288 
L 693.120165 -57.6288 
L 692.455954 -57.6288 
L 691.791744 -57.6288 
L 691.127533 -57.6288 
L 690.463323 -57.6288 
L 689.799112 -57.6288 
L 689.134902 -57.6288 
L 688.470691 -57.6288 
L 687.806481 -57.6288 
L 687.14227 -57.6288 
L 686.478059 -57.6288 
L 685.813849 -57.6288 
L 685.149638 -57.6288 
L 684.485428 -57.6288 
L 683.821217 -57.6288 
L 683.157007 -57.6288 
L 682.492796 -57.6288 
L 681.828586 -57.6288 
L 681.164375 -57.6288 
L 680.500165 -57.6288 
L 679.835954 -57.6288 
L 679.171744 -57.6288 
L 678.507533 -57.6288 
L 677.843323 -57.6288 
L 677.179112 -57.6288 
L 676.514902 -57.6288 
L 675.850691 -57.6288 
L 675.186481 -57.6288 
L 674.52227 -57.6288 
L 673.85806 -57.6288 
L 673.193849 -57.6288 
L 672.529639 -57.6288 
L 671.865428 -57.6288 
L 671.201218 -57.6288 
L 670.537007 -57.6288 
L 669.872797 -57.6288 
L 669.208586 -57.6288 
L 668.544376 -57.6288 
L 667.880165 -57.6288 
L 667.215955 -57.6288 
L 666.551744 -57.6288 
L 665.887534 -57.6288 
L 665.223323 -57.6288 
L 664.559113 -57.6288 
L 663.894902 -57.6288 
L 663.230692 -57.6288 
L 662.566481 -57.6288 
L 661.902271 -57.6288 
L 661.23806 -57.6288 
L 660.57385 -57.6288 
L 659.909639 -57.6288 
L 659.245429 -57.6288 
L 658.581218 -57.6288 
L 657.917008 -57.6288 
L 657.252797 -57.6288 
L 656.588587 -57.6288 
L 655.924376 -57.6288 
L 655.260166 -57.6288 
L 654.595955 -57.6288 
L 653.931745 -57.6288 
L 653.267534 -57.6288 
L 652.603324 -57.6288 
L 651.939113 -57.6288 
L 651.274902 -57.6288 
L 650.610692 -57.6288 
L 649.946481 -57.6288 
L 649.282271 -57.6288 
L 648.61806 -57.6288 
L 647.95385 -57.6288 
L 647.289639 -57.6288 
L 646.625429 -57.6288 
L 645.961218 -57.6288 
L 645.297008 -57.6288 
L 644.632797 -57.6288 
L 643.968587 -57.6288 
L 643.304376 -57.6288 
L 642.640166 -57.6288 
L 641.975955 -57.6288 
L 641.311745 -57.6288 
L 640.647534 -57.6288 
L 639.983324 -57.6288 
L 639.319113 -57.6288 
L 638.654903 -57.6288 
L 637.990692 -57.6288 
L 637.326482 -57.6288 
L 636.662271 -57.6288 
L 635.998061 -57.6288 
L 635.33385 -57.6288 
L 634.66964 -57.6288 
L 634.005429 -57.6288 
L 633.341219 -57.6288 
L 632.677008 -57.6288 
L 632.012798 -57.6288 
L 631.348587 -57.6288 
L 630.684377 -57.6288 
L 630.020166 -57.6288 
L 629.355956 -57.6288 
L 628.691745 -57.6288 
L 628.027535 -57.6288 
L 627.363324 -57.6288 
L 626.699114 -57.6288 
L 626.034903 -57.6288 
L 625.370693 -57.6288 
L 624.706482 -57.6288 
L 624.042272 -57.6288 
L 623.378061 -57.6288 
L 622.713851 -57.6288 
L 622.04964 -57.6288 
L 621.38543 -57.6288 
L 620.721219 -57.6288 
L 620.057009 -57.6288 
L 619.392798 -57.6288 
L 618.728588 -57.6288 
L 618.064377 -57.6288 
L 617.400167 -57.6288 
L 616.735956 -57.6288 
L 616.071745 -57.6288 
L 615.407535 -57.6288 
L 614.743324 -57.6288 
L 614.079114 -57.6288 
L 613.414903 -57.6288 
L 612.750693 -57.6288 
L 612.086482 -57.6288 
L 611.422272 -57.6288 
L 610.758061 -57.6288 
L 610.093851 -57.6288 
L 609.42964 -57.6288 
L 608.76543 -57.6288 
L 608.101219 -57.6288 
L 607.437009 -57.6288 
L 606.772798 -57.6288 
L 606.108588 -57.6288 
L 605.444377 -57.6288 
L 604.780167 -57.6288 
L 604.115956 -57.6288 
L 603.451746 -57.6288 
L 602.787535 -57.6288 
L 602.123325 -57.6288 
L 601.459114 -57.6288 
L 600.794904 -57.6288 
L 600.130693 -57.6288 
L 599.466483 -57.6288 
L 598.802272 -57.6288 
L 598.138062 -57.6288 
L 597.473851 -57.6288 
z
" style="stroke: #1f77b4; stroke-opacity: 0"/>
    </defs>
    <g clip-path="url(#pdd519e5d7f)">
     <use xlink:href="#m326a6c6eaf" x="0" y="397.44" style="fill: #1f77b4; fill-opacity: 0; stroke: #1f77b4; stroke-opacity: 0"/>
    </g>
   </g>
   <g id="matplotlib.axis_3">
    <g id="xtick_5">
     <g id="line2d_7">
      <g>
       <use xlink:href="#m78d098beb5" x="633.454676" y="353.7216" style="fill: #808080; stroke: #808080"/>
      </g>
     </g>
     <g id="text_10">
      <!-- 0.040 -->
      <g transform="translate(613.414989 370.859412) scale(0.14 -0.14)">
       <use xlink:href="#DejaVuSans-30"/>
       <use xlink:href="#DejaVuSans-2e" x="63.623047"/>
       <use xlink:href="#DejaVuSans-30" x="95.410156"/>
       <use xlink:href="#DejaVuSans-34" x="159.033203"/>
       <use xlink:href="#DejaVuSans-30" x="222.65625"/>
      </g>
     </g>
    </g>
    <g id="xtick_6">
     <g id="line2d_8">
      <g>
       <use xlink:href="#m78d098beb5" x="691.376058" y="353.7216" style="fill: #808080; stroke: #808080"/>
      </g>
     </g>
     <g id="text_11">
      <!-- 0.045 -->
      <g transform="translate(671.33637 370.859412) scale(0.14 -0.14)">
       <use xlink:href="#DejaVuSans-30"/>
       <use xlink:href="#DejaVuSans-2e" x="63.623047"/>
       <use xlink:href="#DejaVuSans-30" x="95.410156"/>
       <use xlink:href="#DejaVuSans-34" x="159.033203"/>
       <use xlink:href="#DejaVuSans-35" x="222.65625"/>
      </g>
     </g>
    </g>
    <g id="xtick_7">
     <g id="line2d_9">
      <g>
       <use xlink:href="#m78d098beb5" x="749.297439" y="353.7216" style="fill: #808080; stroke: #808080"/>
      </g>
     </g>
     <g id="text_12">
      <!-- 0.050 -->
      <g transform="translate(729.257751 370.859412) scale(0.14 -0.14)">
       <use xlink:href="#DejaVuSans-30"/>
       <use xlink:href="#DejaVuSans-2e" x="63.623047"/>
       <use xlink:href="#DejaVuSans-30" x="95.410156"/>
       <use xlink:href="#DejaVuSans-35" x="159.033203"/>
       <use xlink:href="#DejaVuSans-30" x="222.65625"/>
      </g>
     </g>
    </g>
    <g id="xtick_8">
     <g id="line2d_10">
      <g>
       <use xlink:href="#m78d098beb5" x="807.21882" y="353.7216" style="fill: #808080; stroke: #808080"/>
      </g>
     </g>
     <g id="text_13">
      <!-- 0.055 -->
      <g transform="translate(787.179133 370.859412) scale(0.14 -0.14)">
       <use xlink:href="#DejaVuSans-30"/>
       <use xlink:href="#DejaVuSans-2e" x="63.623047"/>
       <use xlink:href="#DejaVuSans-30" x="95.410156"/>
       <use xlink:href="#DejaVuSans-35" x="159.033203"/>
       <use xlink:href="#DejaVuSans-35" x="222.65625"/>
      </g>
     </g>
    </g>
    <g id="xtick_9">
     <g id="line2d_11">
      <g>
       <use xlink:href="#m78d098beb5" x="865.140201" y="353.7216" style="fill: #808080; stroke: #808080"/>
      </g>
     </g>
     <g id="text_14">
      <!-- 0.060 -->
      <g transform="translate(845.100514 370.859412) scale(0.14 -0.14)">
       <use xlink:href="#DejaVuSans-30"/>
       <use xlink:href="#DejaVuSans-2e" x="63.623047"/>
       <use xlink:href="#DejaVuSans-30" x="95.410156"/>
       <use xlink:href="#DejaVuSans-36" x="159.033203"/>
       <use xlink:href="#DejaVuSans-30" x="222.65625"/>
      </g>
     </g>
    </g>
    <g id="xtick_10">
     <g id="line2d_12">
      <g>
       <use xlink:href="#m78d098beb5" x="923.061583" y="353.7216" style="fill: #808080; stroke: #808080"/>
      </g>
     </g>
     <g id="text_15">
      <!-- 0.065 -->
      <g transform="translate(903.021895 370.859412) scale(0.14 -0.14)">
       <use xlink:href="#DejaVuSans-30"/>
       <use xlink:href="#DejaVuSans-2e" x="63.623047"/>
       <use xlink:href="#DejaVuSans-30" x="95.410156"/>
       <use xlink:href="#DejaVuSans-36" x="159.033203"/>
       <use xlink:href="#DejaVuSans-35" x="222.65625"/>
      </g>
     </g>
    </g>
   </g>
   <g id="matplotlib.axis_4"/>
   <g id="line2d_13">
    <path d="M 597.473851 339.797451 
L 618.728588 339.713146 
L 632.012798 339.298291 
L 635.998061 338.917062 
L 640.647534 338.323078 
L 645.297008 337.40327 
L 649.946481 336.328548 
L 651.939113 335.655749 
L 655.260166 334.207261 
L 657.252797 333.124806 
L 659.245429 331.699125 
L 663.230692 328.437622 
L 665.887534 326.007686 
L 667.880165 323.950113 
L 669.872797 321.534211 
L 671.865428 318.701224 
L 673.85806 315.49403 
L 675.850691 311.935179 
L 678.507533 306.737405 
L 681.164375 301.222345 
L 683.157007 296.556053 
L 685.149638 291.125447 
L 688.470691 280.971509 
L 691.791744 270.326308 
L 694.448586 261.180889 
L 697.105428 251.167143 
L 699.76227 240.277302 
L 701.754901 231.243669 
L 707.068585 205.124684 
L 711.053848 185.454424 
L 714.374901 170.676002 
L 717.695953 155.800472 
L 721.017006 140.446046 
L 728.323322 108.43794 
L 731.644374 94.040623 
L 732.972795 89.245303 
L 734.965427 83.092629 
L 736.293848 79.452322 
L 737.622269 76.338574 
L 738.95069 73.745703 
L 742.271742 68.001727 
L 744.264374 64.984516 
L 745.592795 63.304471 
L 746.921216 62.049368 
L 747.585426 61.69757 
L 748.249637 61.6032 
L 748.913847 61.773328 
L 749.578058 62.189984 
L 750.906479 63.491941 
L 752.2349 64.879482 
L 753.563321 65.939227 
L 755.555952 67.319586 
L 756.884373 68.76177 
L 758.877005 71.706045 
L 761.533847 75.879759 
L 762.862268 78.698534 
L 764.190689 82.333595 
L 766.847531 90.853353 
L 769.504373 100.149197 
L 772.161215 110.725144 
L 778.13911 135.215305 
L 780.131741 145.038987 
L 784.117004 165.084662 
L 786.773846 177.337744 
L 792.08753 199.878976 
L 798.065425 224.691756 
L 802.714899 243.451027 
L 804.70753 251.421874 
L 806.035951 256.04241 
L 808.028583 262.095301 
L 815.999109 285.036933 
L 819.320161 292.747926 
L 823.969635 303.480484 
L 825.962266 307.254915 
L 827.954898 310.386948 
L 829.947529 313.049514 
L 833.268582 317.392019 
L 835.261214 320.075572 
L 836.589635 321.60206 
L 839.246477 324.128997 
L 844.560161 328.838674 
L 846.552792 330.230887 
L 849.873845 332.105123 
L 852.530687 333.40731 
L 856.51595 335.097046 
L 858.508581 335.724184 
L 863.822265 337.026159 
L 866.479108 337.530352 
L 872.457002 338.273539 
L 881.091739 339.099794 
L 893.711738 339.586054 
L 912.309633 339.774595 
L 934.228579 339.806366 
L 936.885421 339.800528 
L 936.885421 339.800528 
" clip-path="url(#pdd519e5d7f)" style="fill: none; stroke: #1f77b4; stroke-width: 1.5; stroke-linecap: square"/>
   </g>
   <g id="line2d_14">
    <path d="M 682.3907 333.968832 
L 822.092182 333.968832 
" clip-path="url(#pdd519e5d7f)" style="fill: none; stroke: #000000; stroke-width: 3"/>
   </g>
   <g id="patch_5">
    <path d="M 580.503273 353.7216 
L 953.856 353.7216 
" style="fill: none; stroke: #808080; stroke-width: 0.8; stroke-linejoin: miter; stroke-linecap: square"/>
   </g>
   <g id="text_16">
    <!-- 0.044  -->
    <g transform="translate(634.681325 319.362912) scale(0.15 -0.15)">
     <use xlink:href="#DejaVuSans-30"/>
     <use xlink:href="#DejaVuSans-2e" x="63.623047"/>
     <use xlink:href="#DejaVuSans-30" x="95.410156"/>
     <use xlink:href="#DejaVuSans-34" x="159.033203"/>
     <use xlink:href="#DejaVuSans-34" x="222.65625"/>
     <use xlink:href="#DejaVuSans-20" x="286.279297"/>
    </g>
   </g>
   <g id="text_17">
    <!--  0.056 -->
    <g transform="translate(822.092182 319.362912) scale(0.15 -0.15)">
     <use xlink:href="#DejaVuSans-20"/>
     <use xlink:href="#DejaVuSans-30" x="31.787109"/>
     <use xlink:href="#DejaVuSans-2e" x="95.410156"/>
     <use xlink:href="#DejaVuSans-30" x="127.197266"/>
     <use xlink:href="#DejaVuSans-35" x="190.820312"/>
     <use xlink:href="#DejaVuSans-36" x="254.443359"/>
    </g>
   </g>
   <g id="text_18">
    <!-- 95% HDI -->
    <g transform="translate(719.560191 252.17568) scale(0.15 -0.15)">
     <use xlink:href="#DejaVuSans-39"/>
     <use xlink:href="#DejaVuSans-35" x="63.623047"/>
     <use xlink:href="#DejaVuSans-25" x="127.246094"/>
     <use xlink:href="#DejaVuSans-20" x="222.265625"/>
     <use xlink:href="#DejaVuSans-48" x="254.052734"/>
     <use xlink:href="#DejaVuSans-44" x="329.248047"/>
     <use xlink:href="#DejaVuSans-49" x="406.25"/>
    </g>
   </g>
   <g id="text_19">
    <!-- mean=0.05 -->
    <g transform="translate(707.18665 106.11648) scale(0.15 -0.15)">
     <use xlink:href="#DejaVuSans-6d"/>
     <use xlink:href="#DejaVuSans-65" x="97.412109"/>
     <use xlink:href="#DejaVuSans-61" x="158.935547"/>
     <use xlink:href="#DejaVuSans-6e" x="220.214844"/>
     <use xlink:href="#DejaVuSans-3d" x="283.59375"/>
     <use xlink:href="#DejaVuSans-30" x="367.382812"/>
     <use xlink:href="#DejaVuSans-2e" x="431.005859"/>
     <use xlink:href="#DejaVuSans-30" x="462.792969"/>
     <use xlink:href="#DejaVuSans-35" x="526.416016"/>
    </g>
   </g>
   <g id="text_20">
    <!-- biased_θ -->
    <g transform="translate(731.912136 41.6928) scale(0.16 -0.16)">
     <defs>
      <path id="DejaVuSans-62" d="M 3116 1747 
Q 3116 2381 2855 2742 
Q 2594 3103 2138 3103 
Q 1681 3103 1420 2742 
Q 1159 2381 1159 1747 
Q 1159 1113 1420 752 
Q 1681 391 2138 391 
Q 2594 391 2855 752 
Q 3116 1113 3116 1747 
z
M 1159 2969 
Q 1341 3281 1617 3432 
Q 1894 3584 2278 3584 
Q 2916 3584 3314 3078 
Q 3713 2572 3713 1747 
Q 3713 922 3314 415 
Q 2916 -91 2278 -91 
Q 1894 -91 1617 61 
Q 1341 213 1159 525 
L 1159 0 
L 581 0 
L 581 4863 
L 1159 4863 
L 1159 2969 
z
" transform="scale(0.015625)"/>
      <path id="DejaVuSans-69" d="M 603 3500 
L 1178 3500 
L 1178 0 
L 603 0 
L 603 3500 
z
M 603 4863 
L 1178 4863 
L 1178 4134 
L 603 4134 
L 603 4863 
z
" transform="scale(0.015625)"/>
      <path id="DejaVuSans-73" d="M 2834 3397 
L 2834 2853 
Q 2591 2978 2328 3040 
Q 2066 3103 1784 3103 
Q 1356 3103 1142 2972 
Q 928 2841 928 2578 
Q 928 2378 1081 2264 
Q 1234 2150 1697 2047 
L 1894 2003 
Q 2506 1872 2764 1633 
Q 3022 1394 3022 966 
Q 3022 478 2636 193 
Q 2250 -91 1575 -91 
Q 1294 -91 989 -36 
Q 684 19 347 128 
L 347 722 
Q 666 556 975 473 
Q 1284 391 1588 391 
Q 1994 391 2212 530 
Q 2431 669 2431 922 
Q 2431 1156 2273 1281 
Q 2116 1406 1581 1522 
L 1381 1569 
Q 847 1681 609 1914 
Q 372 2147 372 2553 
Q 372 3047 722 3315 
Q 1072 3584 1716 3584 
Q 2034 3584 2315 3537 
Q 2597 3491 2834 3397 
z
" transform="scale(0.015625)"/>
      <path id="DejaVuSans-64" d="M 2906 2969 
L 2906 4863 
L 3481 4863 
L 3481 0 
L 2906 0 
L 2906 525 
Q 2725 213 2448 61 
Q 2172 -91 1784 -91 
Q 1150 -91 751 415 
Q 353 922 353 1747 
Q 353 2572 751 3078 
Q 1150 3584 1784 3584 
Q 2172 3584 2448 3432 
Q 2725 3281 2906 2969 
z
M 947 1747 
Q 947 1113 1208 752 
Q 1469 391 1925 391 
Q 2381 391 2643 752 
Q 2906 1113 2906 1747 
Q 2906 2381 2643 2742 
Q 2381 3103 1925 3103 
Q 1469 3103 1208 2742 
Q 947 2381 947 1747 
z
" transform="scale(0.015625)"/>
      <path id="DejaVuSans-5f" d="M 3263 -1063 
L 3263 -1509 
L -63 -1509 
L -63 -1063 
L 3263 -1063 
z
" transform="scale(0.015625)"/>
     </defs>
     <use xlink:href="#DejaVuSans-62"/>
     <use xlink:href="#DejaVuSans-69" x="63.476562"/>
     <use xlink:href="#DejaVuSans-61" x="91.259766"/>
     <use xlink:href="#DejaVuSans-73" x="152.539062"/>
     <use xlink:href="#DejaVuSans-65" x="204.638672"/>
     <use xlink:href="#DejaVuSans-64" x="266.162109"/>
     <use xlink:href="#DejaVuSans-5f" x="329.638672"/>
     <use xlink:href="#DejaVuSans-3b8" x="379.638672"/>
    </g>
   </g>
  </g>
 </g>
 <defs>
  <clipPath id="p42e518ae2a">
   <rect x="132.48" y="47.6928" width="373.352727" height="306.0288"/>
  </clipPath>
  <clipPath id="pdd519e5d7f">
   <rect x="580.503273" y="47.6928" width="373.352727" height="306.0288"/>
  </clipPath>
 </defs>
</svg>
