<?xml version="1.0" encoding="utf-8" standalone="no"?>
<!DOCTYPE svg PUBLIC "-//W3C//DTD SVG 1.1//EN"
  "http://www.w3.org/Graphics/SVG/1.1/DTD/svg11.dtd">
<svg xmlns:xlink="http://www.w3.org/1999/xlink" width="1059.84pt" height="397.44pt" viewBox="0 0 1059.84 397.44" xmlns="http://www.w3.org/2000/svg" version="1.1">
 <metadata>
  <rdf:RDF xmlns:dc="http://purl.org/dc/elements/1.1/" xmlns:cc="http://creativecommons.org/ns#" xmlns:rdf="http://www.w3.org/1999/02/22-rdf-syntax-ns#">
   <cc:Work>
    <dc:type rdf:resource="http://purl.org/dc/dcmitype/StillImage"/>
    <dc:format>image/svg+xml</dc:format>
   </cc:Work>
  </rdf:RDF>
 </metadata>
 <defs>
  <style type="text/css">*{stroke-linejoin: round; stroke-linecap: butt}</style>
 </defs>
 <g id="figure_1">
  <g id="patch_1">
   <path d="M 0 397.44 
L 1059.84 397.44 
L 1059.84 0 
L 0 0 
z
" style="fill: #ffffff"/>
  </g>
  <g id="axes_1">
   <g id="patch_2">
    <path d="M 132.48 353.7216 
L 505.832727 353.7216 
L 505.832727 47.6928 
L 132.48 47.6928 
z
" style="fill: #ffffff"/>
   </g>
   <g id="PolyCollection_1">
    <defs>
     <path id="m6dd1e1943f" d="M 149.450579 -57.6288 
L 149.450579 -57.646644 
L 150.114789 -57.646799 
L 150.779 -57.647235 
L 151.44321 -57.647993 
L 152.107421 -57.649025 
L 152.771631 -57.650018 
L 153.435842 -57.650564 
L 154.100052 -57.650542 
L 154.764263 -57.64976 
L 155.428473 -57.64833 
L 156.092684 -57.646631 
L 156.756894 -57.645251 
L 157.421105 -57.644462 
L 158.085315 -57.644351 
L 158.749526 -57.644788 
L 159.413736 -57.645513 
L 160.077947 -57.646172 
L 160.742157 -57.646406 
L 161.406368 -57.646138 
L 162.070578 -57.645373 
L 162.734789 -57.644268 
L 163.398999 -57.642925 
L 164.06321 -57.641483 
L 164.72742 -57.640007 
L 165.391631 -57.638462 
L 166.055841 -57.636927 
L 166.720052 -57.635526 
L 167.384262 -57.634344 
L 168.048473 -57.633663 
L 168.712683 -57.633798 
L 169.376894 -57.635104 
L 170.041104 -57.63774 
L 170.705315 -57.641823 
L 171.369525 -57.647105 
L 172.033736 -57.65325 
L 172.697946 -57.659482 
L 173.362157 -57.66546 
L 174.026367 -57.671162 
L 174.690578 -57.67652 
L 175.354788 -57.682131 
L 176.018999 -57.68852 
L 176.683209 -57.695377 
L 177.34742 -57.702601 
L 178.01163 -57.709989 
L 178.675841 -57.717288 
L 179.340051 -57.724649 
L 180.004262 -57.732762 
L 180.668472 -57.742076 
L 181.332683 -57.752641 
L 181.996893 -57.76362 
L 182.661104 -57.773761 
L 183.325314 -57.781786 
L 183.989525 -57.787869 
L 184.653736 -57.791545 
L 185.317946 -57.794565 
L 185.982157 -57.798396 
L 186.646367 -57.8045 
L 187.310578 -57.81335 
L 187.974788 -57.826314 
L 188.638999 -57.843053 
L 189.303209 -57.863951 
L 189.96742 -57.890595 
L 190.63163 -57.924101 
L 191.295841 -57.965164 
L 191.960051 -58.013094 
L 192.624262 -58.067456 
L 193.288472 -58.125174 
L 193.952683 -58.185173 
L 194.616893 -58.244463 
L 195.281104 -58.303258 
L 195.945314 -58.361423 
L 196.609525 -58.419731 
L 197.273735 -58.477409 
L 197.937946 -58.537094 
L 198.602156 -58.598993 
L 199.266367 -58.665527 
L 199.930577 -58.737102 
L 200.594788 -58.816348 
L 201.258998 -58.902646 
L 201.923209 -58.997743 
L 202.587419 -59.100039 
L 203.25163 -59.210022 
L 203.91584 -59.327789 
L 204.580051 -59.454681 
L 205.244261 -59.5916 
L 205.908472 -59.738163 
L 206.572682 -59.895645 
L 207.236893 -60.065412 
L 207.901103 -60.248355 
L 208.565314 -60.443237 
L 209.229524 -60.650828 
L 209.893735 -60.874314 
L 210.557945 -61.114181 
L 211.222156 -61.369961 
L 211.886366 -61.644812 
L 212.550577 -61.93578 
L 213.214787 -62.237628 
L 213.878998 -62.545707 
L 214.543208 -62.855996 
L 215.207419 -63.162918 
L 215.871629 -63.47082 
L 216.53584 -63.785791 
L 217.20005 -64.111361 
L 217.864261 -64.459752 
L 218.528471 -64.838135 
L 219.192682 -65.248745 
L 219.856892 -65.697646 
L 220.521103 -66.181459 
L 221.185314 -66.699429 
L 221.849524 -67.244981 
L 222.513735 -67.806975 
L 223.177945 -68.381562 
L 223.842156 -68.968478 
L 224.506366 -69.569021 
L 225.170577 -70.188923 
L 225.834787 -70.833368 
L 226.498998 -71.509233 
L 227.163208 -72.20938 
L 227.827419 -72.937836 
L 228.491629 -73.694198 
L 229.15584 -74.484156 
L 229.82005 -75.315479 
L 230.484261 -76.198322 
L 231.148471 -77.13211 
L 231.812682 -78.119212 
L 232.476892 -79.158558 
L 233.141103 -80.246209 
L 233.805313 -81.382313 
L 234.469524 -82.563508 
L 235.133734 -83.787868 
L 235.797945 -85.037653 
L 236.462155 -86.299034 
L 237.126366 -87.561966 
L 237.790576 -88.819055 
L 238.454787 -90.075253 
L 239.118997 -91.349218 
L 239.783208 -92.657027 
L 240.447418 -94.026584 
L 241.111629 -95.464006 
L 241.775839 -96.989623 
L 242.44005 -98.611158 
L 243.10426 -100.355618 
L 243.768471 -102.225711 
L 244.432681 -104.227105 
L 245.096892 -106.339028 
L 245.761102 -108.530482 
L 246.425313 -110.762723 
L 247.089523 -113.00016 
L 247.753734 -115.21896 
L 248.417944 -117.425644 
L 249.082155 -119.637321 
L 249.746365 -121.862256 
L 250.410576 -124.130483 
L 251.074786 -126.451795 
L 251.738997 -128.839987 
L 252.403207 -131.304119 
L 253.067418 -133.855203 
L 253.731628 -136.491771 
L 254.395839 -139.22383 
L 255.060049 -142.031363 
L 255.72426 -144.902116 
L 256.388471 -147.805468 
L 257.052681 -150.729944 
L 257.716892 -153.656755 
L 258.381102 -156.56473 
L 259.045313 -159.446196 
L 259.709523 -162.291508 
L 260.373734 -165.102895 
L 261.037944 -167.901502 
L 261.702155 -170.69921 
L 262.366365 -173.539036 
L 263.030576 -176.443688 
L 263.694786 -179.435865 
L 264.358997 -182.544025 
L 265.023207 -185.76335 
L 265.687418 -189.075423 
L 266.351628 -192.45611 
L 267.015839 -195.867998 
L 267.680049 -199.264874 
L 268.34426 -202.622856 
L 269.00847 -205.929429 
L 269.672681 -209.205489 
L 270.336891 -212.455649 
L 271.001102 -215.684846 
L 271.665312 -218.908703 
L 272.329523 -222.132548 
L 272.993733 -225.355227 
L 273.657944 -228.59974 
L 274.322154 -231.891346 
L 274.986365 -235.246733 
L 275.650575 -238.66817 
L 276.314786 -242.145104 
L 276.978996 -245.616654 
L 277.643207 -249.042738 
L 278.307417 -252.370624 
L 278.971628 -255.596237 
L 279.635838 -258.714004 
L 280.300049 -261.76736 
L 280.964259 -264.791004 
L 281.62847 -267.814797 
L 282.29268 -270.831187 
L 282.956891 -273.818792 
L 283.621101 -276.767414 
L 284.285312 -279.633353 
L 284.949522 -282.395229 
L 285.613733 -285.072215 
L 286.277943 -287.683933 
L 286.942154 -290.268544 
L 287.606364 -292.837868 
L 288.270575 -295.411986 
L 288.934785 -297.976337 
L 289.598996 -300.519642 
L 290.263206 -303.024309 
L 290.927417 -305.482194 
L 291.591628 -307.906131 
L 292.255838 -310.271965 
L 292.920049 -312.590352 
L 293.584259 -314.850284 
L 294.24847 -317.025451 
L 294.91268 -319.096681 
L 295.576891 -321.055994 
L 296.241101 -322.874952 
L 296.905312 -324.544726 
L 297.569522 -326.066742 
L 298.233733 -327.428407 
L 298.897943 -328.635994 
L 299.562154 -329.738277 
L 300.226364 -330.750149 
L 300.890575 -331.731451 
L 301.554785 -332.693195 
L 302.218996 -333.616855 
L 302.883206 -334.437501 
L 303.547417 -335.107311 
L 304.211627 -335.565577 
L 304.875838 -335.801608 
L 305.540048 -335.8368 
L 306.204259 -335.713896 
L 306.868469 -335.450135 
L 307.53268 -335.086866 
L 308.19689 -334.612485 
L 308.861101 -334.042334 
L 309.525311 -333.38972 
L 310.189522 -332.691579 
L 310.853732 -331.999798 
L 311.517943 -331.367625 
L 312.182153 -330.802458 
L 312.846364 -330.287927 
L 313.510574 -329.794362 
L 314.174785 -329.260195 
L 314.838995 -328.638286 
L 315.503206 -327.860162 
L 316.167416 -326.887916 
L 316.831627 -325.665174 
L 317.495837 -324.161034 
L 318.160048 -322.396343 
L 318.824258 -320.415085 
L 319.488469 -318.252808 
L 320.152679 -316.023588 
L 320.81689 -313.75537 
L 321.4811 -311.48138 
L 322.145311 -309.203645 
L 322.809521 -306.922544 
L 323.473732 -304.629749 
L 324.137942 -302.331882 
L 324.802153 -300.020413 
L 325.466363 -297.702991 
L 326.130574 -295.348673 
L 326.794784 -292.903627 
L 327.458995 -290.34138 
L 328.123206 -287.644956 
L 328.787416 -284.860364 
L 329.451627 -282.022337 
L 330.115837 -279.168768 
L 330.780048 -276.350938 
L 331.444258 -273.546623 
L 332.108469 -270.743232 
L 332.772679 -267.929335 
L 333.43689 -265.07159 
L 334.1011 -262.17631 
L 334.765311 -259.230905 
L 335.429521 -256.226763 
L 336.093732 -253.138344 
L 336.757942 -249.941551 
L 337.422153 -246.613641 
L 338.086363 -243.178741 
L 338.750574 -239.660803 
L 339.414784 -236.123295 
L 340.078995 -232.628177 
L 340.743205 -229.193081 
L 341.407416 -225.844223 
L 342.071626 -222.549528 
L 342.735837 -219.297107 
L 343.400047 -216.056462 
L 344.064258 -212.779326 
L 344.728468 -209.464384 
L 345.392679 -206.127135 
L 346.056889 -202.769528 
L 346.7211 -199.428773 
L 347.38531 -196.159955 
L 348.049521 -192.985782 
L 348.713731 -189.938221 
L 349.377942 -187.030062 
L 350.042152 -184.237528 
L 350.706363 -181.54613 
L 351.370573 -178.900883 
L 352.034784 -176.26968 
L 352.698994 -173.616112 
L 353.363205 -170.905505 
L 354.027415 -168.15088 
L 354.691626 -165.352835 
L 355.355836 -162.535115 
L 356.020047 -159.725498 
L 356.684257 -156.956106 
L 357.348468 -154.255955 
L 358.012678 -151.627881 
L 358.676889 -149.079225 
L 359.341099 -146.634042 
L 360.00531 -144.287937 
L 360.66952 -142.036913 
L 361.333731 -139.882517 
L 361.997941 -137.783247 
L 362.662152 -135.72332 
L 363.326363 -133.679278 
L 363.990573 -131.622784 
L 364.654784 -129.558479 
L 365.318994 -127.490091 
L 365.983205 -125.434636 
L 366.647415 -123.41919 
L 367.311626 -121.450038 
L 367.975836 -119.54329 
L 368.640047 -117.710848 
L 369.304257 -115.939294 
L 369.968468 -114.228317 
L 370.632678 -112.561593 
L 371.296889 -110.925085 
L 371.961099 -109.292663 
L 372.62531 -107.645831 
L 373.28952 -105.962317 
L 373.953731 -104.236228 
L 374.617941 -102.472735 
L 375.282152 -100.707829 
L 375.946362 -98.983248 
L 376.610573 -97.348168 
L 377.274783 -95.846941 
L 377.938994 -94.49311 
L 378.603204 -93.272379 
L 379.267415 -92.149951 
L 379.931625 -91.070909 
L 380.595836 -89.99593 
L 381.260046 -88.890118 
L 381.924257 -87.749207 
L 382.588467 -86.584269 
L 383.252678 -85.422469 
L 383.916888 -84.286558 
L 384.581099 -83.202075 
L 385.245309 -82.171888 
L 385.90952 -81.199781 
L 386.57373 -80.281795 
L 387.237941 -79.407012 
L 387.902151 -78.567427 
L 388.566362 -77.758639 
L 389.230572 -76.97221 
L 389.894783 -76.208881 
L 390.558993 -75.472021 
L 391.223204 -74.766733 
L 391.887414 -74.09664 
L 392.551625 -73.46033 
L 393.215835 -72.855074 
L 393.880046 -72.269992 
L 394.544256 -71.695042 
L 395.208467 -71.117936 
L 395.872677 -70.538561 
L 396.536888 -69.958241 
L 397.201098 -69.396497 
L 397.865309 -68.863684 
L 398.529519 -68.369973 
L 399.19373 -67.919706 
L 399.857941 -67.507021 
L 400.522151 -67.126056 
L 401.186362 -66.765036 
L 401.850572 -66.412834 
L 402.514783 -66.068409 
L 403.178993 -65.722288 
L 403.843204 -65.372547 
L 404.507414 -65.01897 
L 405.171625 -64.665548 
L 405.835835 -64.314786 
L 406.500046 -63.976541 
L 407.164256 -63.657004 
L 407.828467 -63.362634 
L 408.492677 -63.089341 
L 409.156888 -62.830745 
L 409.821098 -62.577309 
L 410.485309 -62.321533 
L 411.149519 -62.065713 
L 411.81373 -61.814503 
L 412.47794 -61.574977 
L 413.142151 -61.358391 
L 413.806361 -61.166937 
L 414.470572 -61.000063 
L 415.134782 -60.853344 
L 415.798993 -60.717211 
L 416.463203 -60.584663 
L 417.127414 -60.446802 
L 417.791624 -60.300049 
L 418.455835 -60.147657 
L 419.120045 -59.993426 
L 419.784256 -59.842375 
L 420.448466 -59.699232 
L 421.112677 -59.568494 
L 421.776887 -59.449212 
L 422.441098 -59.341532 
L 423.105308 -59.245563 
L 423.769519 -59.15952 
L 424.433729 -59.083614 
L 425.09794 -59.018179 
L 425.76215 -58.961231 
L 426.426361 -58.912734 
L 427.090571 -58.869272 
L 427.754782 -58.827953 
L 428.418992 -58.786005 
L 429.083203 -58.7422 
L 429.747413 -58.696693 
L 430.411624 -58.651368 
L 431.075834 -58.608987 
L 431.740045 -58.569676 
L 432.404255 -58.534651 
L 433.068466 -58.501848 
L 433.732676 -58.468749 
L 434.396887 -58.431656 
L 435.061098 -58.390306 
L 435.725308 -58.342197 
L 436.389519 -58.28803 
L 437.053729 -58.231082 
L 437.71794 -58.173381 
L 438.38215 -58.118968 
L 439.046361 -58.070543 
L 439.710571 -58.028578 
L 440.374782 -57.994375 
L 441.038992 -57.965382 
L 441.703203 -57.9396 
L 442.367413 -57.915257 
L 443.031624 -57.890997 
L 443.695834 -57.865853 
L 444.360045 -57.841566 
L 445.024255 -57.819706 
L 445.688466 -57.801127 
L 446.352676 -57.786717 
L 447.016887 -57.776583 
L 447.681097 -57.770019 
L 448.345308 -57.765105 
L 449.009518 -57.760652 
L 449.673729 -57.756339 
L 450.337939 -57.751914 
L 451.00215 -57.74795 
L 451.66636 -57.745078 
L 452.330571 -57.743339 
L 452.994781 -57.742638 
L 453.658992 -57.741912 
L 454.323202 -57.740359 
L 454.987413 -57.736905 
L 455.651623 -57.731326 
L 456.315834 -57.724406 
L 456.980044 -57.71701 
L 457.644255 -57.71056 
L 458.308465 -57.706547 
L 458.972676 -57.705382 
L 459.636886 -57.706991 
L 460.301097 -57.710415 
L 460.965307 -57.714163 
L 461.629518 -57.716817 
L 462.293728 -57.717314 
L 462.957939 -57.714403 
L 463.622149 -57.707889 
L 464.28636 -57.698294 
L 464.95057 -57.686416 
L 465.614781 -57.673756 
L 466.278991 -57.661593 
L 466.943202 -57.651004 
L 467.607412 -57.642712 
L 468.271623 -57.636842 
L 468.935833 -57.633128 
L 469.600044 -57.630856 
L 470.264255 -57.629682 
L 470.928465 -57.62907 
L 471.592676 -57.6288 
L 472.256886 -57.6288 
L 472.921097 -57.6288 
L 473.585307 -57.6288 
L 474.249518 -57.6288 
L 474.913728 -57.6288 
L 475.577939 -57.6288 
L 476.242149 -57.6288 
L 476.90636 -57.6288 
L 477.57057 -57.6288 
L 478.234781 -57.6288 
L 478.898991 -57.6288 
L 479.563202 -57.6288 
L 480.227412 -57.6288 
L 480.891623 -57.6288 
L 481.555833 -57.6288 
L 482.220044 -57.6288 
L 482.884254 -57.62889 
L 483.548465 -57.629094 
L 484.212675 -57.629425 
L 484.876886 -57.630017 
L 485.541096 -57.630966 
L 486.205307 -57.632328 
L 486.869517 -57.634058 
L 487.533728 -57.635972 
L 488.197938 -57.637752 
L 488.862149 -57.639025 
L 488.862149 -57.6288 
L 488.862149 -57.6288 
L 488.197938 -57.6288 
L 487.533728 -57.6288 
L 486.869517 -57.6288 
L 486.205307 -57.6288 
L 485.541096 -57.6288 
L 484.876886 -57.6288 
L 484.212675 -57.6288 
L 483.548465 -57.6288 
L 482.884254 -57.6288 
L 482.220044 -57.6288 
L 481.555833 -57.6288 
L 480.891623 -57.6288 
L 480.227412 -57.6288 
L 479.563202 -57.6288 
L 478.898991 -57.6288 
L 478.234781 -57.6288 
L 477.57057 -57.6288 
L 476.90636 -57.6288 
L 476.242149 -57.6288 
L 475.577939 -57.6288 
L 474.913728 -57.6288 
L 474.249518 -57.6288 
L 473.585307 -57.6288 
L 472.921097 -57.6288 
L 472.256886 -57.6288 
L 471.592676 -57.6288 
L 470.928465 -57.6288 
L 470.264255 -57.6288 
L 469.600044 -57.6288 
L 468.935833 -57.6288 
L 468.271623 -57.6288 
L 467.607412 -57.6288 
L 466.943202 -57.6288 
L 466.278991 -57.6288 
L 465.614781 -57.6288 
L 464.95057 -57.6288 
L 464.28636 -57.6288 
L 463.622149 -57.6288 
L 462.957939 -57.6288 
L 462.293728 -57.6288 
L 461.629518 -57.6288 
L 460.965307 -57.6288 
L 460.301097 -57.6288 
L 459.636886 -57.6288 
L 458.972676 -57.6288 
L 458.308465 -57.6288 
L 457.644255 -57.6288 
L 456.980044 -57.6288 
L 456.315834 -57.6288 
L 455.651623 -57.6288 
L 454.987413 -57.6288 
L 454.323202 -57.6288 
L 453.658992 -57.6288 
L 452.994781 -57.6288 
L 452.330571 -57.6288 
L 451.66636 -57.6288 
L 451.00215 -57.6288 
L 450.337939 -57.6288 
L 449.673729 -57.6288 
L 449.009518 -57.6288 
L 448.345308 -57.6288 
L 447.681097 -57.6288 
L 447.016887 -57.6288 
L 446.352676 -57.6288 
L 445.688466 -57.6288 
L 445.024255 -57.6288 
L 444.360045 -57.6288 
L 443.695834 -57.6288 
L 443.031624 -57.6288 
L 442.367413 -57.6288 
L 441.703203 -57.6288 
L 441.038992 -57.6288 
L 440.374782 -57.6288 
L 439.710571 -57.6288 
L 439.046361 -57.6288 
L 438.38215 -57.6288 
L 437.71794 -57.6288 
L 437.053729 -57.6288 
L 436.389519 -57.6288 
L 435.725308 -57.6288 
L 435.061098 -57.6288 
L 434.396887 -57.6288 
L 433.732676 -57.6288 
L 433.068466 -57.6288 
L 432.404255 -57.6288 
L 431.740045 -57.6288 
L 431.075834 -57.6288 
L 430.411624 -57.6288 
L 429.747413 -57.6288 
L 429.083203 -57.6288 
L 428.418992 -57.6288 
L 427.754782 -57.6288 
L 427.090571 -57.6288 
L 426.426361 -57.6288 
L 425.76215 -57.6288 
L 425.09794 -57.6288 
L 424.433729 -57.6288 
L 423.769519 -57.6288 
L 423.105308 -57.6288 
L 422.441098 -57.6288 
L 421.776887 -57.6288 
L 421.112677 -57.6288 
L 420.448466 -57.6288 
L 419.784256 -57.6288 
L 419.120045 -57.6288 
L 418.455835 -57.6288 
L 417.791624 -57.6288 
L 417.127414 -57.6288 
L 416.463203 -57.6288 
L 415.798993 -57.6288 
L 415.134782 -57.6288 
L 414.470572 -57.6288 
L 413.806361 -57.6288 
L 413.142151 -57.6288 
L 412.47794 -57.6288 
L 411.81373 -57.6288 
L 411.149519 -57.6288 
L 410.485309 -57.6288 
L 409.821098 -57.6288 
L 409.156888 -57.6288 
L 408.492677 -57.6288 
L 407.828467 -57.6288 
L 407.164256 -57.6288 
L 406.500046 -57.6288 
L 405.835835 -57.6288 
L 405.171625 -57.6288 
L 404.507414 -57.6288 
L 403.843204 -57.6288 
L 403.178993 -57.6288 
L 402.514783 -57.6288 
L 401.850572 -57.6288 
L 401.186362 -57.6288 
L 400.522151 -57.6288 
L 399.857941 -57.6288 
L 399.19373 -57.6288 
L 398.529519 -57.6288 
L 397.865309 -57.6288 
L 397.201098 -57.6288 
L 396.536888 -57.6288 
L 395.872677 -57.6288 
L 395.208467 -57.6288 
L 394.544256 -57.6288 
L 393.880046 -57.6288 
L 393.215835 -57.6288 
L 392.551625 -57.6288 
L 391.887414 -57.6288 
L 391.223204 -57.6288 
L 390.558993 -57.6288 
L 389.894783 -57.6288 
L 389.230572 -57.6288 
L 388.566362 -57.6288 
L 387.902151 -57.6288 
L 387.237941 -57.6288 
L 386.57373 -57.6288 
L 385.90952 -57.6288 
L 385.245309 -57.6288 
L 384.581099 -57.6288 
L 383.916888 -57.6288 
L 383.252678 -57.6288 
L 382.588467 -57.6288 
L 381.924257 -57.6288 
L 381.260046 -57.6288 
L 380.595836 -57.6288 
L 379.931625 -57.6288 
L 379.267415 -57.6288 
L 378.603204 -57.6288 
L 377.938994 -57.6288 
L 377.274783 -57.6288 
L 376.610573 -57.6288 
L 375.946362 -57.6288 
L 375.282152 -57.6288 
L 374.617941 -57.6288 
L 373.953731 -57.6288 
L 373.28952 -57.6288 
L 372.62531 -57.6288 
L 371.961099 -57.6288 
L 371.296889 -57.6288 
L 370.632678 -57.6288 
L 369.968468 -57.6288 
L 369.304257 -57.6288 
L 368.640047 -57.6288 
L 367.975836 -57.6288 
L 367.311626 -57.6288 
L 366.647415 -57.6288 
L 365.983205 -57.6288 
L 365.318994 -57.6288 
L 364.654784 -57.6288 
L 363.990573 -57.6288 
L 363.326363 -57.6288 
L 362.662152 -57.6288 
L 361.997941 -57.6288 
L 361.333731 -57.6288 
L 360.66952 -57.6288 
L 360.00531 -57.6288 
L 359.341099 -57.6288 
L 358.676889 -57.6288 
L 358.012678 -57.6288 
L 357.348468 -57.6288 
L 356.684257 -57.6288 
L 356.020047 -57.6288 
L 355.355836 -57.6288 
L 354.691626 -57.6288 
L 354.027415 -57.6288 
L 353.363205 -57.6288 
L 352.698994 -57.6288 
L 352.034784 -57.6288 
L 351.370573 -57.6288 
L 350.706363 -57.6288 
L 350.042152 -57.6288 
L 349.377942 -57.6288 
L 348.713731 -57.6288 
L 348.049521 -57.6288 
L 347.38531 -57.6288 
L 346.7211 -57.6288 
L 346.056889 -57.6288 
L 345.392679 -57.6288 
L 344.728468 -57.6288 
L 344.064258 -57.6288 
L 343.400047 -57.6288 
L 342.735837 -57.6288 
L 342.071626 -57.6288 
L 341.407416 -57.6288 
L 340.743205 -57.6288 
L 340.078995 -57.6288 
L 339.414784 -57.6288 
L 338.750574 -57.6288 
L 338.086363 -57.6288 
L 337.422153 -57.6288 
L 336.757942 -57.6288 
L 336.093732 -57.6288 
L 335.429521 -57.6288 
L 334.765311 -57.6288 
L 334.1011 -57.6288 
L 333.43689 -57.6288 
L 332.772679 -57.6288 
L 332.108469 -57.6288 
L 331.444258 -57.6288 
L 330.780048 -57.6288 
L 330.115837 -57.6288 
L 329.451627 -57.6288 
L 328.787416 -57.6288 
L 328.123206 -57.6288 
L 327.458995 -57.6288 
L 326.794784 -57.6288 
L 326.130574 -57.6288 
L 325.466363 -57.6288 
L 324.802153 -57.6288 
L 324.137942 -57.6288 
L 323.473732 -57.6288 
L 322.809521 -57.6288 
L 322.145311 -57.6288 
L 321.4811 -57.6288 
L 320.81689 -57.6288 
L 320.152679 -57.6288 
L 319.488469 -57.6288 
L 318.824258 -57.6288 
L 318.160048 -57.6288 
L 317.495837 -57.6288 
L 316.831627 -57.6288 
L 316.167416 -57.6288 
L 315.503206 -57.6288 
L 314.838995 -57.6288 
L 314.174785 -57.6288 
L 313.510574 -57.6288 
L 312.846364 -57.6288 
L 312.182153 -57.6288 
L 311.517943 -57.6288 
L 310.853732 -57.6288 
L 310.189522 -57.6288 
L 309.525311 -57.6288 
L 308.861101 -57.6288 
L 308.19689 -57.6288 
L 307.53268 -57.6288 
L 306.868469 -57.6288 
L 306.204259 -57.6288 
L 305.540048 -57.6288 
L 304.875838 -57.6288 
L 304.211627 -57.6288 
L 303.547417 -57.6288 
L 302.883206 -57.6288 
L 302.218996 -57.6288 
L 301.554785 -57.6288 
L 300.890575 -57.6288 
L 300.226364 -57.6288 
L 299.562154 -57.6288 
L 298.897943 -57.6288 
L 298.233733 -57.6288 
L 297.569522 -57.6288 
L 296.905312 -57.6288 
L 296.241101 -57.6288 
L 295.576891 -57.6288 
L 294.91268 -57.6288 
L 294.24847 -57.6288 
L 293.584259 -57.6288 
L 292.920049 -57.6288 
L 292.255838 -57.6288 
L 291.591628 -57.6288 
L 290.927417 -57.6288 
L 290.263206 -57.6288 
L 289.598996 -57.6288 
L 288.934785 -57.6288 
L 288.270575 -57.6288 
L 287.606364 -57.6288 
L 286.942154 -57.6288 
L 286.277943 -57.6288 
L 285.613733 -57.6288 
L 284.949522 -57.6288 
L 284.285312 -57.6288 
L 283.621101 -57.6288 
L 282.956891 -57.6288 
L 282.29268 -57.6288 
L 281.62847 -57.6288 
L 280.964259 -57.6288 
L 280.300049 -57.6288 
L 279.635838 -57.6288 
L 278.971628 -57.6288 
L 278.307417 -57.6288 
L 277.643207 -57.6288 
L 276.978996 -57.6288 
L 276.314786 -57.6288 
L 275.650575 -57.6288 
L 274.986365 -57.6288 
L 274.322154 -57.6288 
L 273.657944 -57.6288 
L 272.993733 -57.6288 
L 272.329523 -57.6288 
L 271.665312 -57.6288 
L 271.001102 -57.6288 
L 270.336891 -57.6288 
L 269.672681 -57.6288 
L 269.00847 -57.6288 
L 268.34426 -57.6288 
L 267.680049 -57.6288 
L 267.015839 -57.6288 
L 266.351628 -57.6288 
L 265.687418 -57.6288 
L 265.023207 -57.6288 
L 264.358997 -57.6288 
L 263.694786 -57.6288 
L 263.030576 -57.6288 
L 262.366365 -57.6288 
L 261.702155 -57.6288 
L 261.037944 -57.6288 
L 260.373734 -57.6288 
L 259.709523 -57.6288 
L 259.045313 -57.6288 
L 258.381102 -57.6288 
L 257.716892 -57.6288 
L 257.052681 -57.6288 
L 256.388471 -57.6288 
L 255.72426 -57.6288 
L 255.060049 -57.6288 
L 254.395839 -57.6288 
L 253.731628 -57.6288 
L 253.067418 -57.6288 
L 252.403207 -57.6288 
L 251.738997 -57.6288 
L 251.074786 -57.6288 
L 250.410576 -57.6288 
L 249.746365 -57.6288 
L 249.082155 -57.6288 
L 248.417944 -57.6288 
L 247.753734 -57.6288 
L 247.089523 -57.6288 
L 246.425313 -57.6288 
L 245.761102 -57.6288 
L 245.096892 -57.6288 
L 244.432681 -57.6288 
L 243.768471 -57.6288 
L 243.10426 -57.6288 
L 242.44005 -57.6288 
L 241.775839 -57.6288 
L 241.111629 -57.6288 
L 240.447418 -57.6288 
L 239.783208 -57.6288 
L 239.118997 -57.6288 
L 238.454787 -57.6288 
L 237.790576 -57.6288 
L 237.126366 -57.6288 
L 236.462155 -57.6288 
L 235.797945 -57.6288 
L 235.133734 -57.6288 
L 234.469524 -57.6288 
L 233.805313 -57.6288 
L 233.141103 -57.6288 
L 232.476892 -57.6288 
L 231.812682 -57.6288 
L 231.148471 -57.6288 
L 230.484261 -57.6288 
L 229.82005 -57.6288 
L 229.15584 -57.6288 
L 228.491629 -57.6288 
L 227.827419 -57.6288 
L 227.163208 -57.6288 
L 226.498998 -57.6288 
L 225.834787 -57.6288 
L 225.170577 -57.6288 
L 224.506366 -57.6288 
L 223.842156 -57.6288 
L 223.177945 -57.6288 
L 222.513735 -57.6288 
L 221.849524 -57.6288 
L 221.185314 -57.6288 
L 220.521103 -57.6288 
L 219.856892 -57.6288 
L 219.192682 -57.6288 
L 218.528471 -57.6288 
L 217.864261 -57.6288 
L 217.20005 -57.6288 
L 216.53584 -57.6288 
L 215.871629 -57.6288 
L 215.207419 -57.6288 
L 214.543208 -57.6288 
L 213.878998 -57.6288 
L 213.214787 -57.6288 
L 212.550577 -57.6288 
L 211.886366 -57.6288 
L 211.222156 -57.6288 
L 210.557945 -57.6288 
L 209.893735 -57.6288 
L 209.229524 -57.6288 
L 208.565314 -57.6288 
L 207.901103 -57.6288 
L 207.236893 -57.6288 
L 206.572682 -57.6288 
L 205.908472 -57.6288 
L 205.244261 -57.6288 
L 204.580051 -57.6288 
L 203.91584 -57.6288 
L 203.25163 -57.6288 
L 202.587419 -57.6288 
L 201.923209 -57.6288 
L 201.258998 -57.6288 
L 200.594788 -57.6288 
L 199.930577 -57.6288 
L 199.266367 -57.6288 
L 198.602156 -57.6288 
L 197.937946 -57.6288 
L 197.273735 -57.6288 
L 196.609525 -57.6288 
L 195.945314 -57.6288 
L 195.281104 -57.6288 
L 194.616893 -57.6288 
L 193.952683 -57.6288 
L 193.288472 -57.6288 
L 192.624262 -57.6288 
L 191.960051 -57.6288 
L 191.295841 -57.6288 
L 190.63163 -57.6288 
L 189.96742 -57.6288 
L 189.303209 -57.6288 
L 188.638999 -57.6288 
L 187.974788 -57.6288 
L 187.310578 -57.6288 
L 186.646367 -57.6288 
L 185.982157 -57.6288 
L 185.317946 -57.6288 
L 184.653736 -57.6288 
L 183.989525 -57.6288 
L 183.325314 -57.6288 
L 182.661104 -57.6288 
L 181.996893 -57.6288 
L 181.332683 -57.6288 
L 180.668472 -57.6288 
L 180.004262 -57.6288 
L 179.340051 -57.6288 
L 178.675841 -57.6288 
L 178.01163 -57.6288 
L 177.34742 -57.6288 
L 176.683209 -57.6288 
L 176.018999 -57.6288 
L 175.354788 -57.6288 
L 174.690578 -57.6288 
L 174.026367 -57.6288 
L 173.362157 -57.6288 
L 172.697946 -57.6288 
L 172.033736 -57.6288 
L 171.369525 -57.6288 
L 170.705315 -57.6288 
L 170.041104 -57.6288 
L 169.376894 -57.6288 
L 168.712683 -57.6288 
L 168.048473 -57.6288 
L 167.384262 -57.6288 
L 166.720052 -57.6288 
L 166.055841 -57.6288 
L 165.391631 -57.6288 
L 164.72742 -57.6288 
L 164.06321 -57.6288 
L 163.398999 -57.6288 
L 162.734789 -57.6288 
L 162.070578 -57.6288 
L 161.406368 -57.6288 
L 160.742157 -57.6288 
L 160.077947 -57.6288 
L 159.413736 -57.6288 
L 158.749526 -57.6288 
L 158.085315 -57.6288 
L 157.421105 -57.6288 
L 156.756894 -57.6288 
L 156.092684 -57.6288 
L 155.428473 -57.6288 
L 154.764263 -57.6288 
L 154.100052 -57.6288 
L 153.435842 -57.6288 
L 152.771631 -57.6288 
L 152.107421 -57.6288 
L 151.44321 -57.6288 
L 150.779 -57.6288 
L 150.114789 -57.6288 
L 149.450579 -57.6288 
z
" style="stroke: #1f77b4; stroke-opacity: 0"/>
    </defs>
    <g clip-path="url(#peaf8337aab)">
     <use xlink:href="#m6dd1e1943f" x="0" y="397.44" style="fill: #1f77b4; fill-opacity: 0; stroke: #1f77b4; stroke-opacity: 0"/>
    </g>
   </g>
   <g id="matplotlib.axis_1">
    <g id="xtick_1">
     <g id="line2d_1">
      <defs>
       <path id="m4dfc9b668b" d="M 0 0 
L 0 3 
" style="stroke: #808080"/>
      </defs>
      <g>
       <use xlink:href="#m4dfc9b668b" x="159.239163" y="353.7216" style="fill: #808080; stroke: #808080"/>
      </g>
     </g>
     <g id="text_1">
      <!-- 0.040 -->
      <g transform="translate(139.199475 370.859412) scale(0.14 -0.14)">
       <defs>
        <path id="DejaVuSans-30" d="M 2034 4250 
Q 1547 4250 1301 3770 
Q 1056 3291 1056 2328 
Q 1056 1369 1301 889 
Q 1547 409 2034 409 
Q 2525 409 2770 889 
Q 3016 1369 3016 2328 
Q 3016 3291 2770 3770 
Q 2525 4250 2034 4250 
z
M 2034 4750 
Q 2819 4750 3233 4129 
Q 3647 3509 3647 2328 
Q 3647 1150 3233 529 
Q 2819 -91 2034 -91 
Q 1250 -91 836 529 
Q 422 1150 422 2328 
Q 422 3509 836 4129 
Q 1250 4750 2034 4750 
z
" transform="scale(0.015625)"/>
        <path id="DejaVuSans-2e" d="M 684 794 
L 1344 794 
L 1344 0 
L 684 0 
L 684 794 
z
" transform="scale(0.015625)"/>
        <path id="DejaVuSans-34" d="M 2419 4116 
L 825 1625 
L 2419 1625 
L 2419 4116 
z
M 2253 4666 
L 3047 4666 
L 3047 1625 
L 3713 1625 
L 3713 1100 
L 3047 1100 
L 3047 0 
L 2419 0 
L 2419 1100 
L 313 1100 
L 313 1709 
L 2253 4666 
z
" transform="scale(0.015625)"/>
       </defs>
       <use xlink:href="#DejaVuSans-30"/>
       <use xlink:href="#DejaVuSans-2e" x="63.623047"/>
       <use xlink:href="#DejaVuSans-30" x="95.410156"/>
       <use xlink:href="#DejaVuSans-34" x="159.033203"/>
       <use xlink:href="#DejaVuSans-30" x="222.65625"/>
      </g>
     </g>
    </g>
    <g id="xtick_2">
     <g id="line2d_2">
      <g>
       <use xlink:href="#m4dfc9b668b" x="232.596599" y="353.7216" style="fill: #808080; stroke: #808080"/>
      </g>
     </g>
     <g id="text_2">
      <!-- 0.045 -->
      <g transform="translate(212.556911 370.859412) scale(0.14 -0.14)">
       <defs>
        <path id="DejaVuSans-35" d="M 691 4666 
L 3169 4666 
L 3169 4134 
L 1269 4134 
L 1269 2991 
Q 1406 3038 1543 3061 
Q 1681 3084 1819 3084 
Q 2600 3084 3056 2656 
Q 3513 2228 3513 1497 
Q 3513 744 3044 326 
Q 2575 -91 1722 -91 
Q 1428 -91 1123 -41 
Q 819 9 494 109 
L 494 744 
Q 775 591 1075 516 
Q 1375 441 1709 441 
Q 2250 441 2565 725 
Q 2881 1009 2881 1497 
Q 2881 1984 2565 2268 
Q 2250 2553 1709 2553 
Q 1456 2553 1204 2497 
Q 953 2441 691 2322 
L 691 4666 
z
" transform="scale(0.015625)"/>
       </defs>
       <use xlink:href="#DejaVuSans-30"/>
       <use xlink:href="#DejaVuSans-2e" x="63.623047"/>
       <use xlink:href="#DejaVuSans-30" x="95.410156"/>
       <use xlink:href="#DejaVuSans-34" x="159.033203"/>
       <use xlink:href="#DejaVuSans-35" x="222.65625"/>
      </g>
     </g>
    </g>
    <g id="xtick_3">
     <g id="line2d_3">
      <g>
       <use xlink:href="#m4dfc9b668b" x="305.954035" y="353.7216" style="fill: #808080; stroke: #808080"/>
      </g>
     </g>
     <g id="text_3">
      <!-- 0.050 -->
      <g transform="translate(285.914347 370.859412) scale(0.14 -0.14)">
       <use xlink:href="#DejaVuSans-30"/>
       <use xlink:href="#DejaVuSans-2e" x="63.623047"/>
       <use xlink:href="#DejaVuSans-30" x="95.410156"/>
       <use xlink:href="#DejaVuSans-35" x="159.033203"/>
       <use xlink:href="#DejaVuSans-30" x="222.65625"/>
      </g>
     </g>
    </g>
    <g id="xtick_4">
     <g id="line2d_4">
      <g>
       <use xlink:href="#m4dfc9b668b" x="379.311471" y="353.7216" style="fill: #808080; stroke: #808080"/>
      </g>
     </g>
     <g id="text_4">
      <!-- 0.055 -->
      <g transform="translate(359.271783 370.859412) scale(0.14 -0.14)">
       <use xlink:href="#DejaVuSans-30"/>
       <use xlink:href="#DejaVuSans-2e" x="63.623047"/>
       <use xlink:href="#DejaVuSans-30" x="95.410156"/>
       <use xlink:href="#DejaVuSans-35" x="159.033203"/>
       <use xlink:href="#DejaVuSans-35" x="222.65625"/>
      </g>
     </g>
    </g>
    <g id="xtick_5">
     <g id="line2d_5">
      <g>
       <use xlink:href="#m4dfc9b668b" x="452.668906" y="353.7216" style="fill: #808080; stroke: #808080"/>
      </g>
     </g>
     <g id="text_5">
      <!-- 0.060 -->
      <g transform="translate(432.629219 370.859412) scale(0.14 -0.14)">
       <defs>
        <path id="DejaVuSans-36" d="M 2113 2584 
Q 1688 2584 1439 2293 
Q 1191 2003 1191 1497 
Q 1191 994 1439 701 
Q 1688 409 2113 409 
Q 2538 409 2786 701 
Q 3034 994 3034 1497 
Q 3034 2003 2786 2293 
Q 2538 2584 2113 2584 
z
M 3366 4563 
L 3366 3988 
Q 3128 4100 2886 4159 
Q 2644 4219 2406 4219 
Q 1781 4219 1451 3797 
Q 1122 3375 1075 2522 
Q 1259 2794 1537 2939 
Q 1816 3084 2150 3084 
Q 2853 3084 3261 2657 
Q 3669 2231 3669 1497 
Q 3669 778 3244 343 
Q 2819 -91 2113 -91 
Q 1303 -91 875 529 
Q 447 1150 447 2328 
Q 447 3434 972 4092 
Q 1497 4750 2381 4750 
Q 2619 4750 2861 4703 
Q 3103 4656 3366 4563 
z
" transform="scale(0.015625)"/>
       </defs>
       <use xlink:href="#DejaVuSans-30"/>
       <use xlink:href="#DejaVuSans-2e" x="63.623047"/>
       <use xlink:href="#DejaVuSans-30" x="95.410156"/>
       <use xlink:href="#DejaVuSans-36" x="159.033203"/>
       <use xlink:href="#DejaVuSans-30" x="222.65625"/>
      </g>
     </g>
    </g>
   </g>
   <g id="matplotlib.axis_2"/>
   <g id="line2d_6">
    <path d="M 149.450579 339.793356 
L 181.996893 339.67638 
L 191.960051 339.426906 
L 200.594788 338.623652 
L 203.91584 338.112211 
L 207.236893 337.374588 
L 209.893735 336.565686 
L 212.550577 335.50422 
L 217.864261 332.980248 
L 219.856892 331.742354 
L 221.849524 330.195019 
L 225.170577 327.251077 
L 227.163208 325.23062 
L 229.15584 322.955844 
L 231.148471 320.30789 
L 233.141103 317.193791 
L 235.133734 313.652132 
L 239.783208 304.782973 
L 241.775839 300.450377 
L 243.10426 297.084382 
L 244.432681 293.212895 
L 247.089523 284.43984 
L 251.738997 268.600013 
L 253.731628 260.948229 
L 256.388471 249.634532 
L 261.037944 229.538498 
L 263.694786 218.004135 
L 265.687418 208.364577 
L 271.001102 181.755154 
L 275.650575 158.77183 
L 278.971628 141.843763 
L 282.956891 123.621208 
L 284.949522 115.044771 
L 288.270575 102.028014 
L 291.591628 89.533869 
L 294.24847 80.414549 
L 295.576891 76.384006 
L 296.905312 72.895274 
L 298.233733 70.011593 
L 299.562154 67.701723 
L 302.218996 63.823145 
L 303.547417 62.332689 
L 304.211627 61.874423 
L 304.875838 61.638392 
L 305.540048 61.6032 
L 306.204259 61.726104 
L 307.53268 62.353134 
L 308.861101 63.397666 
L 312.182153 66.637542 
L 314.838995 68.801714 
L 315.503206 69.579838 
L 316.167416 70.552084 
L 316.831627 71.774826 
L 318.160048 75.043657 
L 319.488469 79.187192 
L 324.137942 95.108118 
L 326.794784 104.536373 
L 328.787416 112.579636 
L 335.429521 141.213237 
L 337.422153 150.826359 
L 344.064258 184.660674 
L 348.713731 207.501779 
L 350.706363 215.89387 
L 354.691626 232.087165 
L 358.012678 245.812119 
L 360.00531 253.152063 
L 361.997941 259.656753 
L 367.975836 277.89671 
L 369.968468 283.211683 
L 377.938994 302.94689 
L 379.267415 305.290049 
L 382.588467 310.855731 
L 384.581099 314.237925 
L 386.57373 317.158205 
L 388.566362 319.681361 
L 391.223204 322.673267 
L 393.215835 324.584926 
L 397.865309 328.576316 
L 399.857941 329.932979 
L 403.178993 331.717712 
L 407.828467 334.077366 
L 411.81373 335.625497 
L 413.806361 336.273063 
L 417.127414 336.993198 
L 422.441098 338.098468 
L 425.76215 338.478769 
L 440.374782 339.445625 
L 447.681097 339.669981 
L 481.555833 339.8112 
L 488.862149 339.800975 
L 488.862149 339.800975 
" clip-path="url(#peaf8337aab)" style="fill: none; stroke: #1f77b4; stroke-width: 1.5; stroke-linecap: square"/>
   </g>
   <g id="line2d_7">
    <path d="M 241.999253 333.968832 
L 376.296532 333.968832 
" clip-path="url(#peaf8337aab)" style="fill: none; stroke: #000000; stroke-width: 3"/>
   </g>
   <g id="patch_3">
    <path d="M 132.48 353.7216 
L 505.832727 353.7216 
" style="fill: none; stroke: #808080; stroke-width: 0.8; stroke-linejoin: miter; stroke-linecap: square"/>
   </g>
   <g id="text_6">
    <!-- 0.046  -->
    <g transform="translate(194.289878 319.362912) scale(0.15 -0.15)">
     <defs>
      <path id="DejaVuSans-20" transform="scale(0.015625)"/>
     </defs>
     <use xlink:href="#DejaVuSans-30"/>
     <use xlink:href="#DejaVuSans-2e" x="63.623047"/>
     <use xlink:href="#DejaVuSans-30" x="95.410156"/>
     <use xlink:href="#DejaVuSans-34" x="159.033203"/>
     <use xlink:href="#DejaVuSans-36" x="222.65625"/>
     <use xlink:href="#DejaVuSans-20" x="286.279297"/>
    </g>
   </g>
   <g id="text_7">
    <!--  0.055 -->
    <g transform="translate(376.296532 319.362912) scale(0.15 -0.15)">
     <use xlink:href="#DejaVuSans-20"/>
     <use xlink:href="#DejaVuSans-30" x="31.787109"/>
     <use xlink:href="#DejaVuSans-2e" x="95.410156"/>
     <use xlink:href="#DejaVuSans-30" x="127.197266"/>
     <use xlink:href="#DejaVuSans-35" x="190.820312"/>
     <use xlink:href="#DejaVuSans-35" x="254.443359"/>
    </g>
   </g>
   <g id="text_8">
    <!-- 95% HDI -->
    <g transform="translate(276.466642 252.17568) scale(0.15 -0.15)">
     <defs>
      <path id="DejaVuSans-39" d="M 703 97 
L 703 672 
Q 941 559 1184 500 
Q 1428 441 1663 441 
Q 2288 441 2617 861 
Q 2947 1281 2994 2138 
Q 2813 1869 2534 1725 
Q 2256 1581 1919 1581 
Q 1219 1581 811 2004 
Q 403 2428 403 3163 
Q 403 3881 828 4315 
Q 1253 4750 1959 4750 
Q 2769 4750 3195 4129 
Q 3622 3509 3622 2328 
Q 3622 1225 3098 567 
Q 2575 -91 1691 -91 
Q 1453 -91 1209 -44 
Q 966 3 703 97 
z
M 1959 2075 
Q 2384 2075 2632 2365 
Q 2881 2656 2881 3163 
Q 2881 3666 2632 3958 
Q 2384 4250 1959 4250 
Q 1534 4250 1286 3958 
Q 1038 3666 1038 3163 
Q 1038 2656 1286 2365 
Q 1534 2075 1959 2075 
z
" transform="scale(0.015625)"/>
      <path id="DejaVuSans-25" d="M 4653 2053 
Q 4381 2053 4226 1822 
Q 4072 1591 4072 1178 
Q 4072 772 4226 539 
Q 4381 306 4653 306 
Q 4919 306 5073 539 
Q 5228 772 5228 1178 
Q 5228 1588 5073 1820 
Q 4919 2053 4653 2053 
z
M 4653 2450 
Q 5147 2450 5437 2106 
Q 5728 1763 5728 1178 
Q 5728 594 5436 251 
Q 5144 -91 4653 -91 
Q 4153 -91 3862 251 
Q 3572 594 3572 1178 
Q 3572 1766 3864 2108 
Q 4156 2450 4653 2450 
z
M 1428 4353 
Q 1159 4353 1004 4120 
Q 850 3888 850 3481 
Q 850 3069 1003 2837 
Q 1156 2606 1428 2606 
Q 1700 2606 1854 2837 
Q 2009 3069 2009 3481 
Q 2009 3884 1853 4118 
Q 1697 4353 1428 4353 
z
M 4250 4750 
L 4750 4750 
L 1831 -91 
L 1331 -91 
L 4250 4750 
z
M 1428 4750 
Q 1922 4750 2215 4408 
Q 2509 4066 2509 3481 
Q 2509 2891 2217 2550 
Q 1925 2209 1428 2209 
Q 931 2209 642 2551 
Q 353 2894 353 3481 
Q 353 4063 643 4406 
Q 934 4750 1428 4750 
z
" transform="scale(0.015625)"/>
      <path id="DejaVuSans-48" d="M 628 4666 
L 1259 4666 
L 1259 2753 
L 3553 2753 
L 3553 4666 
L 4184 4666 
L 4184 0 
L 3553 0 
L 3553 2222 
L 1259 2222 
L 1259 0 
L 628 0 
L 628 4666 
z
" transform="scale(0.015625)"/>
      <path id="DejaVuSans-44" d="M 1259 4147 
L 1259 519 
L 2022 519 
Q 2988 519 3436 956 
Q 3884 1394 3884 2338 
Q 3884 3275 3436 3711 
Q 2988 4147 2022 4147 
L 1259 4147 
z
M 628 4666 
L 1925 4666 
Q 3281 4666 3915 4102 
Q 4550 3538 4550 2338 
Q 4550 1131 3912 565 
Q 3275 0 1925 0 
L 628 0 
L 628 4666 
z
" transform="scale(0.015625)"/>
      <path id="DejaVuSans-49" d="M 628 4666 
L 1259 4666 
L 1259 0 
L 628 0 
L 628 4666 
z
" transform="scale(0.015625)"/>
     </defs>
     <use xlink:href="#DejaVuSans-39"/>
     <use xlink:href="#DejaVuSans-35" x="63.623047"/>
     <use xlink:href="#DejaVuSans-25" x="127.246094"/>
     <use xlink:href="#DejaVuSans-20" x="222.265625"/>
     <use xlink:href="#DejaVuSans-48" x="254.052734"/>
     <use xlink:href="#DejaVuSans-44" x="329.248047"/>
     <use xlink:href="#DejaVuSans-49" x="406.25"/>
    </g>
   </g>
   <g id="text_9">
    <!-- mean=0.05 -->
    <g transform="translate(263.979876 106.11648) scale(0.15 -0.15)">
     <defs>
      <path id="DejaVuSans-6d" d="M 3328 2828 
Q 3544 3216 3844 3400 
Q 4144 3584 4550 3584 
Q 5097 3584 5394 3201 
Q 5691 2819 5691 2113 
L 5691 0 
L 5113 0 
L 5113 2094 
Q 5113 2597 4934 2840 
Q 4756 3084 4391 3084 
Q 3944 3084 3684 2787 
Q 3425 2491 3425 1978 
L 3425 0 
L 2847 0 
L 2847 2094 
Q 2847 2600 2669 2842 
Q 2491 3084 2119 3084 
Q 1678 3084 1418 2786 
Q 1159 2488 1159 1978 
L 1159 0 
L 581 0 
L 581 3500 
L 1159 3500 
L 1159 2956 
Q 1356 3278 1631 3431 
Q 1906 3584 2284 3584 
Q 2666 3584 2933 3390 
Q 3200 3197 3328 2828 
z
" transform="scale(0.015625)"/>
      <path id="DejaVuSans-65" d="M 3597 1894 
L 3597 1613 
L 953 1613 
Q 991 1019 1311 708 
Q 1631 397 2203 397 
Q 2534 397 2845 478 
Q 3156 559 3463 722 
L 3463 178 
Q 3153 47 2828 -22 
Q 2503 -91 2169 -91 
Q 1331 -91 842 396 
Q 353 884 353 1716 
Q 353 2575 817 3079 
Q 1281 3584 2069 3584 
Q 2775 3584 3186 3129 
Q 3597 2675 3597 1894 
z
M 3022 2063 
Q 3016 2534 2758 2815 
Q 2500 3097 2075 3097 
Q 1594 3097 1305 2825 
Q 1016 2553 972 2059 
L 3022 2063 
z
" transform="scale(0.015625)"/>
      <path id="DejaVuSans-61" d="M 2194 1759 
Q 1497 1759 1228 1600 
Q 959 1441 959 1056 
Q 959 750 1161 570 
Q 1363 391 1709 391 
Q 2188 391 2477 730 
Q 2766 1069 2766 1631 
L 2766 1759 
L 2194 1759 
z
M 3341 1997 
L 3341 0 
L 2766 0 
L 2766 531 
Q 2569 213 2275 61 
Q 1981 -91 1556 -91 
Q 1019 -91 701 211 
Q 384 513 384 1019 
Q 384 1609 779 1909 
Q 1175 2209 1959 2209 
L 2766 2209 
L 2766 2266 
Q 2766 2663 2505 2880 
Q 2244 3097 1772 3097 
Q 1472 3097 1187 3025 
Q 903 2953 641 2809 
L 641 3341 
Q 956 3463 1253 3523 
Q 1550 3584 1831 3584 
Q 2591 3584 2966 3190 
Q 3341 2797 3341 1997 
z
" transform="scale(0.015625)"/>
      <path id="DejaVuSans-6e" d="M 3513 2113 
L 3513 0 
L 2938 0 
L 2938 2094 
Q 2938 2591 2744 2837 
Q 2550 3084 2163 3084 
Q 1697 3084 1428 2787 
Q 1159 2491 1159 1978 
L 1159 0 
L 581 0 
L 581 3500 
L 1159 3500 
L 1159 2956 
Q 1366 3272 1645 3428 
Q 1925 3584 2291 3584 
Q 2894 3584 3203 3211 
Q 3513 2838 3513 2113 
z
" transform="scale(0.015625)"/>
      <path id="DejaVuSans-3d" d="M 678 2906 
L 4684 2906 
L 4684 2381 
L 678 2381 
L 678 2906 
z
M 678 1631 
L 4684 1631 
L 4684 1100 
L 678 1100 
L 678 1631 
z
" transform="scale(0.015625)"/>
     </defs>
     <use xlink:href="#DejaVuSans-6d"/>
     <use xlink:href="#DejaVuSans-65" x="97.412109"/>
     <use xlink:href="#DejaVuSans-61" x="158.935547"/>
     <use xlink:href="#DejaVuSans-6e" x="220.214844"/>
     <use xlink:href="#DejaVuSans-3d" x="283.59375"/>
     <use xlink:href="#DejaVuSans-30" x="367.382812"/>
     <use xlink:href="#DejaVuSans-2e" x="431.005859"/>
     <use xlink:href="#DejaVuSans-30" x="462.792969"/>
     <use xlink:href="#DejaVuSans-35" x="526.416016"/>
    </g>
   </g>
   <g id="text_10">
    <!-- θ -->
    <g transform="translate(314.261364 41.6928) scale(0.16 -0.16)">
     <defs>
      <path id="DejaVuSans-3b8" d="M 2953 2219 
L 963 2219 
Q 1009 1284 1225 888 
Q 1494 400 1959 400 
Q 2428 400 2688 891 
Q 2916 1322 2953 2219 
z
M 2944 2750 
Q 2856 3638 2688 3950 
Q 2419 4444 1959 4444 
Q 1481 4444 1228 3956 
Q 1028 3563 969 2750 
L 2944 2750 
z
M 1959 4913 
Q 2709 4913 3138 4250 
Q 3566 3591 3566 2422 
Q 3566 1256 3138 594 
Q 2709 -72 1959 -72 
Q 1206 -72 781 594 
Q 353 1256 353 2422 
Q 353 3591 781 4250 
Q 1206 4913 1959 4913 
z
" transform="scale(0.015625)"/>
     </defs>
     <use xlink:href="#DejaVuSans-3b8"/>
    </g>
   </g>
  </g>
  <g id="axes_2">
   <g id="patch_4">
    <path d="M 580.503273 353.7216 
L 953.856 353.7216 
L 953.856 47.6928 
L 580.503273 47.6928 
z
" style="fill: #ffffff"/>
   </g>
   <g id="PolyCollection_2">
    <defs>
     <path id="mdb649b97ef" d="M 597.473851 -57.6288 
L 597.473851 -57.639552 
L 598.138062 -57.639146 
L 598.802272 -57.638091 
L 599.466483 -57.636636 
L 600.130693 -57.635088 
L 600.794904 -57.633828 
L 601.459114 -57.633197 
L 602.123325 -57.633283 
L 602.787535 -57.634147 
L 603.451746 -57.635685 
L 604.115956 -57.637671 
L 604.780167 -57.63982 
L 605.444377 -57.641829 
L 606.108588 -57.643386 
L 606.772798 -57.644312 
L 607.437009 -57.644766 
L 608.101219 -57.644934 
L 608.76543 -57.645195 
L 609.42964 -57.645913 
L 610.093851 -57.647481 
L 610.758061 -57.650067 
L 611.422272 -57.653725 
L 612.086482 -57.6584 
L 612.750693 -57.663538 
L 613.414903 -57.668591 
L 614.079114 -57.672922 
L 614.743324 -57.676034 
L 615.407535 -57.677276 
L 616.071745 -57.676646 
L 616.735956 -57.674694 
L 617.400167 -57.671771 
L 618.064377 -57.668936 
L 618.728588 -57.666948 
L 619.392798 -57.666471 
L 620.057009 -57.668103 
L 620.721219 -57.672202 
L 621.38543 -57.678268 
L 622.04964 -57.68596 
L 622.713851 -57.694944 
L 623.378061 -57.704106 
L 624.042272 -57.713399 
L 624.706482 -57.722246 
L 625.370693 -57.730846 
L 626.034903 -57.739757 
L 626.699114 -57.749283 
L 627.363324 -57.760694 
L 628.027535 -57.774144 
L 628.691745 -57.79065 
L 629.355956 -57.809981 
L 630.020166 -57.832545 
L 630.684377 -57.858038 
L 631.348587 -57.886382 
L 632.012798 -57.916616 
L 632.677008 -57.947618 
L 633.341219 -57.978233 
L 634.005429 -58.00644 
L 634.66964 -58.030459 
L 635.33385 -58.049525 
L 635.998061 -58.064116 
L 636.662271 -58.074744 
L 637.326482 -58.083783 
L 637.990692 -58.094714 
L 638.654903 -58.109525 
L 639.319113 -58.131002 
L 639.983324 -58.159814 
L 640.647534 -58.196569 
L 641.311745 -58.239954 
L 641.975955 -58.289079 
L 642.640166 -58.341195 
L 643.304376 -58.394879 
L 643.968587 -58.448761 
L 644.632797 -58.502524 
L 645.297008 -58.55681 
L 645.961218 -58.611801 
L 646.625429 -58.667838 
L 647.289639 -58.72616 
L 647.95385 -58.785002 
L 648.61806 -58.844181 
L 649.282271 -58.902647 
L 649.946481 -58.96131 
L 650.610692 -59.020436 
L 651.274902 -59.083428 
L 651.939113 -59.152281 
L 652.603324 -59.22832 
L 653.267534 -59.311042 
L 653.931745 -59.400665 
L 654.595955 -59.494867 
L 655.260166 -59.593322 
L 655.924376 -59.694235 
L 656.588587 -59.80043 
L 657.252797 -59.91462 
L 657.917008 -60.039299 
L 658.581218 -60.177254 
L 659.245429 -60.331248 
L 659.909639 -60.504145 
L 660.57385 -60.696592 
L 661.23806 -60.908062 
L 661.902271 -61.134782 
L 662.566481 -61.37437 
L 663.230692 -61.620819 
L 663.894902 -61.86936 
L 664.559113 -62.117524 
L 665.223323 -62.367852 
L 665.887534 -62.621461 
L 666.551744 -62.882924 
L 667.215955 -63.155831 
L 667.880165 -63.438514 
L 668.544376 -63.728841 
L 669.208586 -64.025186 
L 669.872797 -64.328522 
L 670.537007 -64.643082 
L 671.201218 -64.971016 
L 671.865428 -65.321251 
L 672.529639 -65.691731 
L 673.193849 -66.086346 
L 673.85806 -66.501328 
L 674.52227 -66.934009 
L 675.186481 -67.386633 
L 675.850691 -67.861785 
L 676.514902 -68.362311 
L 677.179112 -68.889379 
L 677.843323 -69.444271 
L 678.507533 -70.021451 
L 679.171744 -70.614219 
L 679.835954 -71.225702 
L 680.500165 -71.858697 
L 681.164375 -72.519825 
L 681.828586 -73.212687 
L 682.492796 -73.94505 
L 683.157007 -74.712704 
L 683.821217 -75.512584 
L 684.485428 -76.342899 
L 685.149638 -77.197374 
L 685.813849 -78.082474 
L 686.478059 -78.995952 
L 687.14227 -79.941052 
L 687.806481 -80.907145 
L 688.470691 -81.89341 
L 689.134902 -82.890587 
L 689.799112 -83.884139 
L 690.463323 -84.874198 
L 691.127533 -85.853004 
L 691.791744 -86.82138 
L 692.455954 -87.788711 
L 693.120165 -88.768922 
L 693.784375 -89.781748 
L 694.448586 -90.846005 
L 695.112796 -91.985545 
L 695.777007 -93.21593 
L 696.441217 -94.543753 
L 697.105428 -95.966439 
L 697.769638 -97.476217 
L 698.433849 -99.048028 
L 699.098059 -100.660351 
L 699.76227 -102.2875 
L 700.42648 -103.906469 
L 701.090691 -105.504376 
L 701.754901 -107.07956 
L 702.419112 -108.637021 
L 703.083322 -110.184993 
L 703.747533 -111.748061 
L 704.411743 -113.350285 
L 705.075954 -115.013055 
L 705.740164 -116.769499 
L 706.404375 -118.640754 
L 707.068585 -120.631782 
L 707.732796 -122.750158 
L 708.397006 -124.997498 
L 709.061217 -127.350066 
L 709.725427 -129.796484 
L 710.389638 -132.30964 
L 711.053848 -134.867003 
L 711.718059 -137.44003 
L 712.382269 -140.010616 
L 713.04648 -142.546878 
L 713.71069 -145.043996 
L 714.374901 -147.51345 
L 715.039111 -149.952245 
L 715.703322 -152.390814 
L 716.367532 -154.841915 
L 717.031743 -157.325058 
L 717.695953 -159.842442 
L 718.360164 -162.397199 
L 719.024374 -164.993922 
L 719.688585 -167.6244 
L 720.352795 -170.286848 
L 721.017006 -172.976351 
L 721.681216 -175.695274 
L 722.345427 -178.425662 
L 723.009637 -181.168204 
L 723.673848 -183.931404 
L 724.338059 -186.719585 
L 725.002269 -189.525786 
L 725.66648 -192.359766 
L 726.33069 -195.212881 
L 726.994901 -198.084079 
L 727.659111 -200.974182 
L 728.323322 -203.869418 
L 728.987532 -206.784668 
L 729.651743 -209.743744 
L 730.315953 -212.745777 
L 730.980164 -215.835959 
L 731.644374 -219.022314 
L 732.308585 -222.307357 
L 732.972795 -225.682478 
L 733.637006 -229.110035 
L 734.301216 -232.557823 
L 734.965427 -235.965978 
L 735.629637 -239.294667 
L 736.293848 -242.539253 
L 736.958058 -245.689013 
L 737.622269 -248.748982 
L 738.286479 -251.732329 
L 738.95069 -254.625904 
L 739.6149 -257.437447 
L 740.279111 -260.153727 
L 740.943321 -262.791729 
L 741.607532 -265.368097 
L 742.271742 -267.944043 
L 742.935953 -270.571385 
L 743.600163 -273.289486 
L 744.264374 -276.10411 
L 744.928584 -278.997253 
L 745.592795 -281.907639 
L 746.257005 -284.787472 
L 746.921216 -287.572606 
L 747.585426 -290.213249 
L 748.249637 -292.705088 
L 748.913847 -295.0536 
L 749.578058 -297.288933 
L 750.242268 -299.440403 
L 750.906479 -301.522309 
L 751.570689 -303.582589 
L 752.2349 -305.621571 
L 752.89911 -307.63936 
L 753.563321 -309.63979 
L 754.227531 -311.61949 
L 754.891742 -313.568588 
L 755.555952 -315.494138 
L 756.220163 -317.431563 
L 756.884373 -319.368932 
L 757.548584 -321.298288 
L 758.212794 -323.219292 
L 758.877005 -325.088253 
L 759.541216 -326.830976 
L 760.205426 -328.39792 
L 760.869637 -329.748084 
L 761.533847 -330.882388 
L 762.198058 -331.820589 
L 762.862268 -332.597886 
L 763.526479 -333.262646 
L 764.190689 -333.870055 
L 764.8549 -334.419504 
L 765.51911 -334.905974 
L 766.183321 -335.315778 
L 766.847531 -335.617395 
L 767.511742 -335.795962 
L 768.175952 -335.8368 
L 768.840163 -335.745618 
L 769.504373 -335.558186 
L 770.168584 -335.297657 
L 770.832794 -334.983439 
L 771.497005 -334.655963 
L 772.161215 -334.333243 
L 772.825426 -333.99226 
L 773.489636 -333.652957 
L 774.153847 -333.300106 
L 774.818057 -332.89037 
L 775.482268 -332.413115 
L 776.146478 -331.839766 
L 776.810689 -331.143168 
L 777.474899 -330.310781 
L 778.13911 -329.3476 
L 778.80332 -328.255993 
L 779.467531 -327.073438 
L 780.131741 -325.817288 
L 780.795952 -324.492029 
L 781.460162 -323.126357 
L 782.124373 -321.69975 
L 782.788583 -320.193582 
L 783.452794 -318.60018 
L 784.117004 -316.920328 
L 784.781215 -315.178989 
L 785.445425 -313.385852 
L 786.109636 -311.572571 
L 786.773846 -309.734268 
L 787.438057 -307.871016 
L 788.102267 -305.937769 
L 788.766478 -303.919093 
L 789.430688 -301.794604 
L 790.094899 -299.545145 
L 790.759109 -297.185198 
L 791.42332 -294.730288 
L 792.08753 -292.184464 
L 792.751741 -289.56547 
L 793.415951 -286.872053 
L 794.080162 -284.1143 
L 794.744372 -281.310504 
L 795.408583 -278.473362 
L 796.072794 -275.62017 
L 796.737004 -272.762184 
L 797.401215 -269.901321 
L 798.065425 -267.005824 
L 798.729636 -264.05381 
L 799.393846 -261.014362 
L 800.058057 -257.878312 
L 800.722267 -254.651583 
L 801.386478 -251.363439 
L 802.050688 -248.069313 
L 802.714899 -244.823071 
L 803.379109 -241.662775 
L 804.04332 -238.614123 
L 804.70753 -235.680981 
L 805.371741 -232.820393 
L 806.035951 -230.008906 
L 806.700162 -227.193818 
L 807.364372 -224.332512 
L 808.028583 -221.420137 
L 808.692793 -218.43899 
L 809.357004 -215.398255 
L 810.021214 -212.317913 
L 810.685425 -209.218201 
L 811.349635 -206.12262 
L 812.013846 -203.060459 
L 812.678056 -200.04614 
L 813.342267 -197.083006 
L 814.006477 -194.162968 
L 814.670688 -191.275136 
L 815.334898 -188.382413 
L 815.999109 -185.481168 
L 816.663319 -182.549368 
L 817.32753 -179.604635 
L 817.99174 -176.669731 
L 818.655951 -173.777296 
L 819.320161 -170.955966 
L 819.984372 -168.229564 
L 820.648582 -165.58585 
L 821.312793 -163.028837 
L 821.977003 -160.522716 
L 822.641214 -158.053684 
L 823.305424 -155.613499 
L 823.969635 -153.19442 
L 824.633845 -150.809264 
L 825.298056 -148.463709 
L 825.962266 -146.155922 
L 826.626477 -143.87288 
L 827.290687 -141.611861 
L 827.954898 -139.356696 
L 828.619108 -137.116489 
L 829.283319 -134.898857 
L 829.947529 -132.727801 
L 830.61174 -130.616129 
L 831.275951 -128.5829 
L 831.940161 -126.624882 
L 832.604372 -124.727775 
L 833.268582 -122.873822 
L 833.932793 -121.036082 
L 834.597003 -119.194317 
L 835.261214 -117.330946 
L 835.925424 -115.432128 
L 836.589635 -113.501769 
L 837.253845 -111.542353 
L 837.918056 -109.578746 
L 838.582266 -107.644894 
L 839.246477 -105.769661 
L 839.910687 -103.983184 
L 840.574898 -102.310679 
L 841.239108 -100.751698 
L 841.903319 -99.298438 
L 842.567529 -97.932169 
L 843.23174 -96.622827 
L 843.89595 -95.34659 
L 844.560161 -94.095971 
L 845.224371 -92.858275 
L 845.888582 -91.629669 
L 846.552792 -90.411477 
L 847.217003 -89.20398 
L 847.881213 -88.004241 
L 848.545424 -86.81918 
L 849.209634 -85.650867 
L 849.873845 -84.509037 
L 850.538055 -83.406135 
L 851.202266 -82.358068 
L 851.866476 -81.373429 
L 852.530687 -80.455228 
L 853.194897 -79.595797 
L 853.859108 -78.790774 
L 854.523318 -78.024735 
L 855.187529 -77.284797 
L 855.851739 -76.558966 
L 856.51595 -75.841407 
L 857.18016 -75.125188 
L 857.844371 -74.409225 
L 858.508581 -73.696613 
L 859.172792 -72.988471 
L 859.837002 -72.293623 
L 860.501213 -71.61136 
L 861.165423 -70.948477 
L 861.829634 -70.308092 
L 862.493844 -69.693302 
L 863.158055 -69.104569 
L 863.822265 -68.551461 
L 864.486476 -68.035226 
L 865.150686 -67.557816 
L 865.814897 -67.111928 
L 866.479108 -66.692854 
L 867.143318 -66.288014 
L 867.807529 -65.89511 
L 868.471739 -65.505505 
L 869.13595 -65.12157 
L 869.80016 -64.747623 
L 870.464371 -64.390224 
L 871.128581 -64.05483 
L 871.792792 -63.743725 
L 872.457002 -63.455858 
L 873.121213 -63.188165 
L 873.785423 -62.93799 
L 874.449634 -62.699889 
L 875.113844 -62.473739 
L 875.778055 -62.253922 
L 876.442265 -62.040028 
L 877.106476 -61.829781 
L 877.770686 -61.621107 
L 878.434897 -61.410893 
L 879.099107 -61.2018 
L 879.763318 -60.994919 
L 880.427528 -60.794812 
L 881.091739 -60.60381 
L 881.755949 -60.425019 
L 882.42016 -60.260012 
L 883.08437 -60.109513 
L 883.748581 -59.971941 
L 884.412791 -59.845014 
L 885.077002 -59.726051 
L 885.741212 -59.614039 
L 886.405423 -59.507309 
L 887.069633 -59.404846 
L 887.733844 -59.306488 
L 888.398054 -59.210569 
L 889.062265 -59.119252 
L 889.726475 -59.032478 
L 890.390686 -58.95106 
L 891.054896 -58.874623 
L 891.719107 -58.804624 
L 892.383317 -58.740979 
L 893.047528 -58.682856 
L 893.711738 -58.629951 
L 894.375949 -58.582748 
L 895.040159 -58.540873 
L 895.70437 -58.50256 
L 896.36858 -58.468096 
L 897.032791 -58.434983 
L 897.697001 -58.403482 
L 898.361212 -58.37253 
L 899.025422 -58.341738 
L 899.689633 -58.311252 
L 900.353843 -58.280651 
L 901.018054 -58.249876 
L 901.682264 -58.218619 
L 902.346475 -58.186219 
L 903.010686 -58.153743 
L 903.674896 -58.120698 
L 904.339107 -58.087948 
L 905.003317 -58.057004 
L 905.667528 -58.027623 
L 906.331738 -57.999342 
L 906.995949 -57.971842 
L 907.660159 -57.944291 
L 908.32437 -57.916089 
L 908.98858 -57.887978 
L 909.652791 -57.860567 
L 910.317001 -57.835041 
L 910.981212 -57.812417 
L 911.645422 -57.793573 
L 912.309633 -57.777896 
L 912.973843 -57.765283 
L 913.638054 -57.754857 
L 914.302264 -57.746006 
L 914.966475 -57.738411 
L 915.630685 -57.731783 
L 916.294896 -57.72623 
L 916.959106 -57.721988 
L 917.623317 -57.718826 
L 918.287527 -57.716112 
L 918.951738 -57.713293 
L 919.615948 -57.709825 
L 920.280159 -57.705429 
L 920.944369 -57.699904 
L 921.60858 -57.693401 
L 922.27279 -57.686282 
L 922.937001 -57.678856 
L 923.601211 -57.671547 
L 924.265422 -57.664339 
L 924.929632 -57.657763 
L 925.593843 -57.65189 
L 926.258053 -57.647107 
L 926.922264 -57.643761 
L 927.586474 -57.641882 
L 928.250685 -57.64193 
L 928.914895 -57.643454 
L 929.579106 -57.645934 
L 930.243316 -57.648884 
L 930.907527 -57.651691 
L 931.571737 -57.654026 
L 932.235948 -57.655787 
L 932.900158 -57.657221 
L 933.564369 -57.658386 
L 934.228579 -57.6596 
L 934.89279 -57.660968 
L 935.557 -57.662468 
L 936.221211 -57.663847 
L 936.885421 -57.664833 
L 936.885421 -57.6288 
L 936.885421 -57.6288 
L 936.221211 -57.6288 
L 935.557 -57.6288 
L 934.89279 -57.6288 
L 934.228579 -57.6288 
L 933.564369 -57.6288 
L 932.900158 -57.6288 
L 932.235948 -57.6288 
L 931.571737 -57.6288 
L 930.907527 -57.6288 
L 930.243316 -57.6288 
L 929.579106 -57.6288 
L 928.914895 -57.6288 
L 928.250685 -57.6288 
L 927.586474 -57.6288 
L 926.922264 -57.6288 
L 926.258053 -57.6288 
L 925.593843 -57.6288 
L 924.929632 -57.6288 
L 924.265422 -57.6288 
L 923.601211 -57.6288 
L 922.937001 -57.6288 
L 922.27279 -57.6288 
L 921.60858 -57.6288 
L 920.944369 -57.6288 
L 920.280159 -57.6288 
L 919.615948 -57.6288 
L 918.951738 -57.6288 
L 918.287527 -57.6288 
L 917.623317 -57.6288 
L 916.959106 -57.6288 
L 916.294896 -57.6288 
L 915.630685 -57.6288 
L 914.966475 -57.6288 
L 914.302264 -57.6288 
L 913.638054 -57.6288 
L 912.973843 -57.6288 
L 912.309633 -57.6288 
L 911.645422 -57.6288 
L 910.981212 -57.6288 
L 910.317001 -57.6288 
L 909.652791 -57.6288 
L 908.98858 -57.6288 
L 908.32437 -57.6288 
L 907.660159 -57.6288 
L 906.995949 -57.6288 
L 906.331738 -57.6288 
L 905.667528 -57.6288 
L 905.003317 -57.6288 
L 904.339107 -57.6288 
L 903.674896 -57.6288 
L 903.010686 -57.6288 
L 902.346475 -57.6288 
L 901.682264 -57.6288 
L 901.018054 -57.6288 
L 900.353843 -57.6288 
L 899.689633 -57.6288 
L 899.025422 -57.6288 
L 898.361212 -57.6288 
L 897.697001 -57.6288 
L 897.032791 -57.6288 
L 896.36858 -57.6288 
L 895.70437 -57.6288 
L 895.040159 -57.6288 
L 894.375949 -57.6288 
L 893.711738 -57.6288 
L 893.047528 -57.6288 
L 892.383317 -57.6288 
L 891.719107 -57.6288 
L 891.054896 -57.6288 
L 890.390686 -57.6288 
L 889.726475 -57.6288 
L 889.062265 -57.6288 
L 888.398054 -57.6288 
L 887.733844 -57.6288 
L 887.069633 -57.6288 
L 886.405423 -57.6288 
L 885.741212 -57.6288 
L 885.077002 -57.6288 
L 884.412791 -57.6288 
L 883.748581 -57.6288 
L 883.08437 -57.6288 
L 882.42016 -57.6288 
L 881.755949 -57.6288 
L 881.091739 -57.6288 
L 880.427528 -57.6288 
L 879.763318 -57.6288 
L 879.099107 -57.6288 
L 878.434897 -57.6288 
L 877.770686 -57.6288 
L 877.106476 -57.6288 
L 876.442265 -57.6288 
L 875.778055 -57.6288 
L 875.113844 -57.6288 
L 874.449634 -57.6288 
L 873.785423 -57.6288 
L 873.121213 -57.6288 
L 872.457002 -57.6288 
L 871.792792 -57.6288 
L 871.128581 -57.6288 
L 870.464371 -57.6288 
L 869.80016 -57.6288 
L 869.13595 -57.6288 
L 868.471739 -57.6288 
L 867.807529 -57.6288 
L 867.143318 -57.6288 
L 866.479108 -57.6288 
L 865.814897 -57.6288 
L 865.150686 -57.6288 
L 864.486476 -57.6288 
L 863.822265 -57.6288 
L 863.158055 -57.6288 
L 862.493844 -57.6288 
L 861.829634 -57.6288 
L 861.165423 -57.6288 
L 860.501213 -57.6288 
L 859.837002 -57.6288 
L 859.172792 -57.6288 
L 858.508581 -57.6288 
L 857.844371 -57.6288 
L 857.18016 -57.6288 
L 856.51595 -57.6288 
L 855.851739 -57.6288 
L 855.187529 -57.6288 
L 854.523318 -57.6288 
L 853.859108 -57.6288 
L 853.194897 -57.6288 
L 852.530687 -57.6288 
L 851.866476 -57.6288 
L 851.202266 -57.6288 
L 850.538055 -57.6288 
L 849.873845 -57.6288 
L 849.209634 -57.6288 
L 848.545424 -57.6288 
L 847.881213 -57.6288 
L 847.217003 -57.6288 
L 846.552792 -57.6288 
L 845.888582 -57.6288 
L 845.224371 -57.6288 
L 844.560161 -57.6288 
L 843.89595 -57.6288 
L 843.23174 -57.6288 
L 842.567529 -57.6288 
L 841.903319 -57.6288 
L 841.239108 -57.6288 
L 840.574898 -57.6288 
L 839.910687 -57.6288 
L 839.246477 -57.6288 
L 838.582266 -57.6288 
L 837.918056 -57.6288 
L 837.253845 -57.6288 
L 836.589635 -57.6288 
L 835.925424 -57.6288 
L 835.261214 -57.6288 
L 834.597003 -57.6288 
L 833.932793 -57.6288 
L 833.268582 -57.6288 
L 832.604372 -57.6288 
L 831.940161 -57.6288 
L 831.275951 -57.6288 
L 830.61174 -57.6288 
L 829.947529 -57.6288 
L 829.283319 -57.6288 
L 828.619108 -57.6288 
L 827.954898 -57.6288 
L 827.290687 -57.6288 
L 826.626477 -57.6288 
L 825.962266 -57.6288 
L 825.298056 -57.6288 
L 824.633845 -57.6288 
L 823.969635 -57.6288 
L 823.305424 -57.6288 
L 822.641214 -57.6288 
L 821.977003 -57.6288 
L 821.312793 -57.6288 
L 820.648582 -57.6288 
L 819.984372 -57.6288 
L 819.320161 -57.6288 
L 818.655951 -57.6288 
L 817.99174 -57.6288 
L 817.32753 -57.6288 
L 816.663319 -57.6288 
L 815.999109 -57.6288 
L 815.334898 -57.6288 
L 814.670688 -57.6288 
L 814.006477 -57.6288 
L 813.342267 -57.6288 
L 812.678056 -57.6288 
L 812.013846 -57.6288 
L 811.349635 -57.6288 
L 810.685425 -57.6288 
L 810.021214 -57.6288 
L 809.357004 -57.6288 
L 808.692793 -57.6288 
L 808.028583 -57.6288 
L 807.364372 -57.6288 
L 806.700162 -57.6288 
L 806.035951 -57.6288 
L 805.371741 -57.6288 
L 804.70753 -57.6288 
L 804.04332 -57.6288 
L 803.379109 -57.6288 
L 802.714899 -57.6288 
L 802.050688 -57.6288 
L 801.386478 -57.6288 
L 800.722267 -57.6288 
L 800.058057 -57.6288 
L 799.393846 -57.6288 
L 798.729636 -57.6288 
L 798.065425 -57.6288 
L 797.401215 -57.6288 
L 796.737004 -57.6288 
L 796.072794 -57.6288 
L 795.408583 -57.6288 
L 794.744372 -57.6288 
L 794.080162 -57.6288 
L 793.415951 -57.6288 
L 792.751741 -57.6288 
L 792.08753 -57.6288 
L 791.42332 -57.6288 
L 790.759109 -57.6288 
L 790.094899 -57.6288 
L 789.430688 -57.6288 
L 788.766478 -57.6288 
L 788.102267 -57.6288 
L 787.438057 -57.6288 
L 786.773846 -57.6288 
L 786.109636 -57.6288 
L 785.445425 -57.6288 
L 784.781215 -57.6288 
L 784.117004 -57.6288 
L 783.452794 -57.6288 
L 782.788583 -57.6288 
L 782.124373 -57.6288 
L 781.460162 -57.6288 
L 780.795952 -57.6288 
L 780.131741 -57.6288 
L 779.467531 -57.6288 
L 778.80332 -57.6288 
L 778.13911 -57.6288 
L 777.474899 -57.6288 
L 776.810689 -57.6288 
L 776.146478 -57.6288 
L 775.482268 -57.6288 
L 774.818057 -57.6288 
L 774.153847 -57.6288 
L 773.489636 -57.6288 
L 772.825426 -57.6288 
L 772.161215 -57.6288 
L 771.497005 -57.6288 
L 770.832794 -57.6288 
L 770.168584 -57.6288 
L 769.504373 -57.6288 
L 768.840163 -57.6288 
L 768.175952 -57.6288 
L 767.511742 -57.6288 
L 766.847531 -57.6288 
L 766.183321 -57.6288 
L 765.51911 -57.6288 
L 764.8549 -57.6288 
L 764.190689 -57.6288 
L 763.526479 -57.6288 
L 762.862268 -57.6288 
L 762.198058 -57.6288 
L 761.533847 -57.6288 
L 760.869637 -57.6288 
L 760.205426 -57.6288 
L 759.541216 -57.6288 
L 758.877005 -57.6288 
L 758.212794 -57.6288 
L 757.548584 -57.6288 
L 756.884373 -57.6288 
L 756.220163 -57.6288 
L 755.555952 -57.6288 
L 754.891742 -57.6288 
L 754.227531 -57.6288 
L 753.563321 -57.6288 
L 752.89911 -57.6288 
L 752.2349 -57.6288 
L 751.570689 -57.6288 
L 750.906479 -57.6288 
L 750.242268 -57.6288 
L 749.578058 -57.6288 
L 748.913847 -57.6288 
L 748.249637 -57.6288 
L 747.585426 -57.6288 
L 746.921216 -57.6288 
L 746.257005 -57.6288 
L 745.592795 -57.6288 
L 744.928584 -57.6288 
L 744.264374 -57.6288 
L 743.600163 -57.6288 
L 742.935953 -57.6288 
L 742.271742 -57.6288 
L 741.607532 -57.6288 
L 740.943321 -57.6288 
L 740.279111 -57.6288 
L 739.6149 -57.6288 
L 738.95069 -57.6288 
L 738.286479 -57.6288 
L 737.622269 -57.6288 
L 736.958058 -57.6288 
L 736.293848 -57.6288 
L 735.629637 -57.6288 
L 734.965427 -57.6288 
L 734.301216 -57.6288 
L 733.637006 -57.6288 
L 732.972795 -57.6288 
L 732.308585 -57.6288 
L 731.644374 -57.6288 
L 730.980164 -57.6288 
L 730.315953 -57.6288 
L 729.651743 -57.6288 
L 728.987532 -57.6288 
L 728.323322 -57.6288 
L 727.659111 -57.6288 
L 726.994901 -57.6288 
L 726.33069 -57.6288 
L 725.66648 -57.6288 
L 725.002269 -57.6288 
L 724.338059 -57.6288 
L 723.673848 -57.6288 
L 723.009637 -57.6288 
L 722.345427 -57.6288 
L 721.681216 -57.6288 
L 721.017006 -57.6288 
L 720.352795 -57.6288 
L 719.688585 -57.6288 
L 719.024374 -57.6288 
L 718.360164 -57.6288 
L 717.695953 -57.6288 
L 717.031743 -57.6288 
L 716.367532 -57.6288 
L 715.703322 -57.6288 
L 715.039111 -57.6288 
L 714.374901 -57.6288 
L 713.71069 -57.6288 
L 713.04648 -57.6288 
L 712.382269 -57.6288 
L 711.718059 -57.6288 
L 711.053848 -57.6288 
L 710.389638 -57.6288 
L 709.725427 -57.6288 
L 709.061217 -57.6288 
L 708.397006 -57.6288 
L 707.732796 -57.6288 
L 707.068585 -57.6288 
L 706.404375 -57.6288 
L 705.740164 -57.6288 
L 705.075954 -57.6288 
L 704.411743 -57.6288 
L 703.747533 -57.6288 
L 703.083322 -57.6288 
L 702.419112 -57.6288 
L 701.754901 -57.6288 
L 701.090691 -57.6288 
L 700.42648 -57.6288 
L 699.76227 -57.6288 
L 699.098059 -57.6288 
L 698.433849 -57.6288 
L 697.769638 -57.6288 
L 697.105428 -57.6288 
L 696.441217 -57.6288 
L 695.777007 -57.6288 
L 695.112796 -57.6288 
L 694.448586 -57.6288 
L 693.784375 -57.6288 
L 693.120165 -57.6288 
L 692.455954 -57.6288 
L 691.791744 -57.6288 
L 691.127533 -57.6288 
L 690.463323 -57.6288 
L 689.799112 -57.6288 
L 689.134902 -57.6288 
L 688.470691 -57.6288 
L 687.806481 -57.6288 
L 687.14227 -57.6288 
L 686.478059 -57.6288 
L 685.813849 -57.6288 
L 685.149638 -57.6288 
L 684.485428 -57.6288 
L 683.821217 -57.6288 
L 683.157007 -57.6288 
L 682.492796 -57.6288 
L 681.828586 -57.6288 
L 681.164375 -57.6288 
L 680.500165 -57.6288 
L 679.835954 -57.6288 
L 679.171744 -57.6288 
L 678.507533 -57.6288 
L 677.843323 -57.6288 
L 677.179112 -57.6288 
L 676.514902 -57.6288 
L 675.850691 -57.6288 
L 675.186481 -57.6288 
L 674.52227 -57.6288 
L 673.85806 -57.6288 
L 673.193849 -57.6288 
L 672.529639 -57.6288 
L 671.865428 -57.6288 
L 671.201218 -57.6288 
L 670.537007 -57.6288 
L 669.872797 -57.6288 
L 669.208586 -57.6288 
L 668.544376 -57.6288 
L 667.880165 -57.6288 
L 667.215955 -57.6288 
L 666.551744 -57.6288 
L 665.887534 -57.6288 
L 665.223323 -57.6288 
L 664.559113 -57.6288 
L 663.894902 -57.6288 
L 663.230692 -57.6288 
L 662.566481 -57.6288 
L 661.902271 -57.6288 
L 661.23806 -57.6288 
L 660.57385 -57.6288 
L 659.909639 -57.6288 
L 659.245429 -57.6288 
L 658.581218 -57.6288 
L 657.917008 -57.6288 
L 657.252797 -57.6288 
L 656.588587 -57.6288 
L 655.924376 -57.6288 
L 655.260166 -57.6288 
L 654.595955 -57.6288 
L 653.931745 -57.6288 
L 653.267534 -57.6288 
L 652.603324 -57.6288 
L 651.939113 -57.6288 
L 651.274902 -57.6288 
L 650.610692 -57.6288 
L 649.946481 -57.6288 
L 649.282271 -57.6288 
L 648.61806 -57.6288 
L 647.95385 -57.6288 
L 647.289639 -57.6288 
L 646.625429 -57.6288 
L 645.961218 -57.6288 
L 645.297008 -57.6288 
L 644.632797 -57.6288 
L 643.968587 -57.6288 
L 643.304376 -57.6288 
L 642.640166 -57.6288 
L 641.975955 -57.6288 
L 641.311745 -57.6288 
L 640.647534 -57.6288 
L 639.983324 -57.6288 
L 639.319113 -57.6288 
L 638.654903 -57.6288 
L 637.990692 -57.6288 
L 637.326482 -57.6288 
L 636.662271 -57.6288 
L 635.998061 -57.6288 
L 635.33385 -57.6288 
L 634.66964 -57.6288 
L 634.005429 -57.6288 
L 633.341219 -57.6288 
L 632.677008 -57.6288 
L 632.012798 -57.6288 
L 631.348587 -57.6288 
L 630.684377 -57.6288 
L 630.020166 -57.6288 
L 629.355956 -57.6288 
L 628.691745 -57.6288 
L 628.027535 -57.6288 
L 627.363324 -57.6288 
L 626.699114 -57.6288 
L 626.034903 -57.6288 
L 625.370693 -57.6288 
L 624.706482 -57.6288 
L 624.042272 -57.6288 
L 623.378061 -57.6288 
L 622.713851 -57.6288 
L 622.04964 -57.6288 
L 621.38543 -57.6288 
L 620.721219 -57.6288 
L 620.057009 -57.6288 
L 619.392798 -57.6288 
L 618.728588 -57.6288 
L 618.064377 -57.6288 
L 617.400167 -57.6288 
L 616.735956 -57.6288 
L 616.071745 -57.6288 
L 615.407535 -57.6288 
L 614.743324 -57.6288 
L 614.079114 -57.6288 
L 613.414903 -57.6288 
L 612.750693 -57.6288 
L 612.086482 -57.6288 
L 611.422272 -57.6288 
L 610.758061 -57.6288 
L 610.093851 -57.6288 
L 609.42964 -57.6288 
L 608.76543 -57.6288 
L 608.101219 -57.6288 
L 607.437009 -57.6288 
L 606.772798 -57.6288 
L 606.108588 -57.6288 
L 605.444377 -57.6288 
L 604.780167 -57.6288 
L 604.115956 -57.6288 
L 603.451746 -57.6288 
L 602.787535 -57.6288 
L 602.123325 -57.6288 
L 601.459114 -57.6288 
L 600.794904 -57.6288 
L 600.130693 -57.6288 
L 599.466483 -57.6288 
L 598.802272 -57.6288 
L 598.138062 -57.6288 
L 597.473851 -57.6288 
z
" style="stroke: #1f77b4; stroke-opacity: 0"/>
    </defs>
    <g clip-path="url(#p44cfca8b57)">
     <use xlink:href="#mdb649b97ef" x="0" y="397.44" style="fill: #1f77b4; fill-opacity: 0; stroke: #1f77b4; stroke-opacity: 0"/>
    </g>
   </g>
   <g id="matplotlib.axis_3">
    <g id="xtick_6">
     <g id="line2d_8">
      <g>
       <use xlink:href="#m4dfc9b668b" x="590.504811" y="353.7216" style="fill: #808080; stroke: #808080"/>
      </g>
     </g>
     <g id="text_11">
      <!-- 0.0485 -->
      <g transform="translate(566.011374 370.859412) scale(0.14 -0.14)">
       <defs>
        <path id="DejaVuSans-38" d="M 2034 2216 
Q 1584 2216 1326 1975 
Q 1069 1734 1069 1313 
Q 1069 891 1326 650 
Q 1584 409 2034 409 
Q 2484 409 2743 651 
Q 3003 894 3003 1313 
Q 3003 1734 2745 1975 
Q 2488 2216 2034 2216 
z
M 1403 2484 
Q 997 2584 770 2862 
Q 544 3141 544 3541 
Q 544 4100 942 4425 
Q 1341 4750 2034 4750 
Q 2731 4750 3128 4425 
Q 3525 4100 3525 3541 
Q 3525 3141 3298 2862 
Q 3072 2584 2669 2484 
Q 3125 2378 3379 2068 
Q 3634 1759 3634 1313 
Q 3634 634 3220 271 
Q 2806 -91 2034 -91 
Q 1263 -91 848 271 
Q 434 634 434 1313 
Q 434 1759 690 2068 
Q 947 2378 1403 2484 
z
M 1172 3481 
Q 1172 3119 1398 2916 
Q 1625 2713 2034 2713 
Q 2441 2713 2670 2916 
Q 2900 3119 2900 3481 
Q 2900 3844 2670 4047 
Q 2441 4250 2034 4250 
Q 1625 4250 1398 4047 
Q 1172 3844 1172 3481 
z
" transform="scale(0.015625)"/>
       </defs>
       <use xlink:href="#DejaVuSans-30"/>
       <use xlink:href="#DejaVuSans-2e" x="63.623047"/>
       <use xlink:href="#DejaVuSans-30" x="95.410156"/>
       <use xlink:href="#DejaVuSans-34" x="159.033203"/>
       <use xlink:href="#DejaVuSans-38" x="222.65625"/>
       <use xlink:href="#DejaVuSans-35" x="286.279297"/>
      </g>
     </g>
    </g>
    <g id="xtick_7">
     <g id="line2d_9">
      <g>
       <use xlink:href="#m4dfc9b668b" x="650.193014" y="353.7216" style="fill: #808080; stroke: #808080"/>
      </g>
     </g>
     <g id="text_12">
      <!-- 0.0490 -->
      <g transform="translate(625.699577 370.859412) scale(0.14 -0.14)">
       <use xlink:href="#DejaVuSans-30"/>
       <use xlink:href="#DejaVuSans-2e" x="63.623047"/>
       <use xlink:href="#DejaVuSans-30" x="95.410156"/>
       <use xlink:href="#DejaVuSans-34" x="159.033203"/>
       <use xlink:href="#DejaVuSans-39" x="222.65625"/>
       <use xlink:href="#DejaVuSans-30" x="286.279297"/>
      </g>
     </g>
    </g>
    <g id="xtick_8">
     <g id="line2d_10">
      <g>
       <use xlink:href="#m4dfc9b668b" x="709.881217" y="353.7216" style="fill: #808080; stroke: #808080"/>
      </g>
     </g>
     <g id="text_13">
      <!-- 0.0495 -->
      <g transform="translate(685.38778 370.859412) scale(0.14 -0.14)">
       <use xlink:href="#DejaVuSans-30"/>
       <use xlink:href="#DejaVuSans-2e" x="63.623047"/>
       <use xlink:href="#DejaVuSans-30" x="95.410156"/>
       <use xlink:href="#DejaVuSans-34" x="159.033203"/>
       <use xlink:href="#DejaVuSans-39" x="222.65625"/>
       <use xlink:href="#DejaVuSans-35" x="286.279297"/>
      </g>
     </g>
    </g>
    <g id="xtick_9">
     <g id="line2d_11">
      <g>
       <use xlink:href="#m4dfc9b668b" x="769.56942" y="353.7216" style="fill: #808080; stroke: #808080"/>
      </g>
     </g>
     <g id="text_14">
      <!-- 0.0500 -->
      <g transform="translate(745.075983 370.859412) scale(0.14 -0.14)">
       <use xlink:href="#DejaVuSans-30"/>
       <use xlink:href="#DejaVuSans-2e" x="63.623047"/>
       <use xlink:href="#DejaVuSans-30" x="95.410156"/>
       <use xlink:href="#DejaVuSans-35" x="159.033203"/>
       <use xlink:href="#DejaVuSans-30" x="222.65625"/>
       <use xlink:href="#DejaVuSans-30" x="286.279297"/>
      </g>
     </g>
    </g>
    <g id="xtick_10">
     <g id="line2d_12">
      <g>
       <use xlink:href="#m4dfc9b668b" x="829.257623" y="353.7216" style="fill: #808080; stroke: #808080"/>
      </g>
     </g>
     <g id="text_15">
      <!-- 0.0505 -->
      <g transform="translate(804.764186 370.859412) scale(0.14 -0.14)">
       <use xlink:href="#DejaVuSans-30"/>
       <use xlink:href="#DejaVuSans-2e" x="63.623047"/>
       <use xlink:href="#DejaVuSans-30" x="95.410156"/>
       <use xlink:href="#DejaVuSans-35" x="159.033203"/>
       <use xlink:href="#DejaVuSans-30" x="222.65625"/>
       <use xlink:href="#DejaVuSans-35" x="286.279297"/>
      </g>
     </g>
    </g>
    <g id="xtick_11">
     <g id="line2d_13">
      <g>
       <use xlink:href="#m4dfc9b668b" x="888.945826" y="353.7216" style="fill: #808080; stroke: #808080"/>
      </g>
     </g>
     <g id="text_16">
      <!-- 0.0510 -->
      <g transform="translate(864.452389 370.859412) scale(0.14 -0.14)">
       <defs>
        <path id="DejaVuSans-31" d="M 794 531 
L 1825 531 
L 1825 4091 
L 703 3866 
L 703 4441 
L 1819 4666 
L 2450 4666 
L 2450 531 
L 3481 531 
L 3481 0 
L 794 0 
L 794 531 
z
" transform="scale(0.015625)"/>
       </defs>
       <use xlink:href="#DejaVuSans-30"/>
       <use xlink:href="#DejaVuSans-2e" x="63.623047"/>
       <use xlink:href="#DejaVuSans-30" x="95.410156"/>
       <use xlink:href="#DejaVuSans-35" x="159.033203"/>
       <use xlink:href="#DejaVuSans-31" x="222.65625"/>
       <use xlink:href="#DejaVuSans-30" x="286.279297"/>
      </g>
     </g>
    </g>
    <g id="xtick_12">
     <g id="line2d_14">
      <g>
       <use xlink:href="#m4dfc9b668b" x="948.634029" y="353.7216" style="fill: #808080; stroke: #808080"/>
      </g>
     </g>
     <g id="text_17">
      <!-- 0.0515 -->
      <g transform="translate(924.140592 370.859412) scale(0.14 -0.14)">
       <use xlink:href="#DejaVuSans-30"/>
       <use xlink:href="#DejaVuSans-2e" x="63.623047"/>
       <use xlink:href="#DejaVuSans-30" x="95.410156"/>
       <use xlink:href="#DejaVuSans-35" x="159.033203"/>
       <use xlink:href="#DejaVuSans-31" x="222.65625"/>
       <use xlink:href="#DejaVuSans-35" x="286.279297"/>
      </g>
     </g>
    </g>
   </g>
   <g id="matplotlib.axis_4"/>
   <g id="line2d_15">
    <path d="M 597.473851 339.800448 
L 625.370693 339.709154 
L 632.012798 339.523384 
L 637.990692 339.345286 
L 641.975955 339.150921 
L 652.603324 338.21168 
L 657.252797 337.52538 
L 659.909639 336.935855 
L 662.566481 336.06563 
L 667.880165 334.001486 
L 671.201218 332.468984 
L 673.193849 331.353654 
L 675.850691 329.578215 
L 677.843323 327.995729 
L 680.500165 325.581303 
L 682.492796 323.49495 
L 684.485428 321.097101 
L 687.14227 317.498948 
L 693.784375 307.658252 
L 695.112796 305.454455 
L 696.441217 302.896247 
L 698.433849 298.391972 
L 706.404375 278.799246 
L 707.732796 274.689842 
L 709.725427 267.643516 
L 720.352795 227.153152 
L 725.002269 207.914214 
L 729.651743 187.696256 
L 731.644374 178.417686 
L 734.965427 161.474022 
L 737.622269 148.691018 
L 739.6149 140.002553 
L 748.913847 102.3864 
L 750.906479 95.917691 
L 754.891742 83.871412 
L 759.541216 70.609024 
L 760.869637 67.691916 
L 762.198058 65.619411 
L 763.526479 64.177354 
L 764.8549 63.020496 
L 766.183321 62.124222 
L 766.847531 61.822605 
L 767.511742 61.644038 
L 768.175952 61.6032 
L 769.504373 61.881814 
L 770.832794 62.456561 
L 774.153847 64.139894 
L 775.482268 65.026885 
L 776.810689 66.296832 
L 778.13911 68.0924 
L 779.467531 70.366562 
L 781.460162 74.313643 
L 783.452794 78.83982 
L 785.445425 84.054148 
L 788.102267 91.502231 
L 790.094899 97.894855 
L 792.08753 105.255536 
L 794.744372 116.129496 
L 799.393846 136.425638 
L 806.035951 167.431094 
L 808.692793 179.00101 
L 815.999109 211.958832 
L 819.984372 229.210436 
L 822.641214 239.386316 
L 825.962266 251.284078 
L 829.947529 264.712199 
L 831.940161 270.815118 
L 839.910687 293.456816 
L 841.239108 296.688302 
L 843.23174 300.817173 
L 847.217003 308.23602 
L 850.538055 314.033865 
L 852.530687 316.984772 
L 854.523318 319.415265 
L 859.172792 324.451529 
L 861.829634 327.131908 
L 863.822265 328.888539 
L 865.814897 330.328072 
L 869.13595 332.31843 
L 871.792792 333.696275 
L 874.449634 334.740111 
L 879.763318 336.445081 
L 883.08437 337.330487 
L 886.405423 337.932691 
L 891.054896 338.565377 
L 895.040159 338.899127 
L 906.331738 339.440658 
L 914.966475 339.701589 
L 933.564369 339.781614 
L 936.885421 339.775167 
L 936.885421 339.775167 
" clip-path="url(#p44cfca8b57)" style="fill: none; stroke: #1f77b4; stroke-width: 1.5; stroke-linecap: square"/>
   </g>
   <g id="line2d_16">
    <path d="M 698.637747 333.968832 
L 842.643022 333.968832 
" clip-path="url(#p44cfca8b57)" style="fill: none; stroke: #000000; stroke-width: 3"/>
   </g>
   <g id="patch_5">
    <path d="M 580.503273 353.7216 
L 953.856 353.7216 
" style="fill: none; stroke: #808080; stroke-width: 0.8; stroke-linejoin: miter; stroke-linecap: square"/>
   </g>
   <g id="text_18">
    <!-- 0.049  -->
    <g transform="translate(650.928372 319.362912) scale(0.15 -0.15)">
     <use xlink:href="#DejaVuSans-30"/>
     <use xlink:href="#DejaVuSans-2e" x="63.623047"/>
     <use xlink:href="#DejaVuSans-30" x="95.410156"/>
     <use xlink:href="#DejaVuSans-34" x="159.033203"/>
     <use xlink:href="#DejaVuSans-39" x="222.65625"/>
     <use xlink:href="#DejaVuSans-20" x="286.279297"/>
    </g>
   </g>
   <g id="text_19">
    <!--  0.051 -->
    <g transform="translate(842.643022 319.362912) scale(0.15 -0.15)">
     <use xlink:href="#DejaVuSans-20"/>
     <use xlink:href="#DejaVuSans-30" x="31.787109"/>
     <use xlink:href="#DejaVuSans-2e" x="95.410156"/>
     <use xlink:href="#DejaVuSans-30" x="127.197266"/>
     <use xlink:href="#DejaVuSans-35" x="190.820312"/>
     <use xlink:href="#DejaVuSans-31" x="254.443359"/>
    </g>
   </g>
   <g id="text_20">
    <!-- 95% HDI -->
    <g transform="translate(737.959134 252.17568) scale(0.15 -0.15)">
     <use xlink:href="#DejaVuSans-39"/>
     <use xlink:href="#DejaVuSans-35" x="63.623047"/>
     <use xlink:href="#DejaVuSans-25" x="127.246094"/>
     <use xlink:href="#DejaVuSans-20" x="222.265625"/>
     <use xlink:href="#DejaVuSans-48" x="254.052734"/>
     <use xlink:href="#DejaVuSans-44" x="329.248047"/>
     <use xlink:href="#DejaVuSans-49" x="406.25"/>
    </g>
   </g>
   <g id="text_21">
    <!-- mean=0.05 -->
    <g transform="translate(725.560308 106.11648) scale(0.15 -0.15)">
     <use xlink:href="#DejaVuSans-6d"/>
     <use xlink:href="#DejaVuSans-65" x="97.412109"/>
     <use xlink:href="#DejaVuSans-61" x="158.935547"/>
     <use xlink:href="#DejaVuSans-6e" x="220.214844"/>
     <use xlink:href="#DejaVuSans-3d" x="283.59375"/>
     <use xlink:href="#DejaVuSans-30" x="367.382812"/>
     <use xlink:href="#DejaVuSans-2e" x="431.005859"/>
     <use xlink:href="#DejaVuSans-30" x="462.792969"/>
     <use xlink:href="#DejaVuSans-35" x="526.416016"/>
    </g>
   </g>
   <g id="text_22">
    <!-- biased_θ -->
    <g transform="translate(731.912136 41.6928) scale(0.16 -0.16)">
     <defs>
      <path id="DejaVuSans-62" d="M 3116 1747 
Q 3116 2381 2855 2742 
Q 2594 3103 2138 3103 
Q 1681 3103 1420 2742 
Q 1159 2381 1159 1747 
Q 1159 1113 1420 752 
Q 1681 391 2138 391 
Q 2594 391 2855 752 
Q 3116 1113 3116 1747 
z
M 1159 2969 
Q 1341 3281 1617 3432 
Q 1894 3584 2278 3584 
Q 2916 3584 3314 3078 
Q 3713 2572 3713 1747 
Q 3713 922 3314 415 
Q 2916 -91 2278 -91 
Q 1894 -91 1617 61 
Q 1341 213 1159 525 
L 1159 0 
L 581 0 
L 581 4863 
L 1159 4863 
L 1159 2969 
z
" transform="scale(0.015625)"/>
      <path id="DejaVuSans-69" d="M 603 3500 
L 1178 3500 
L 1178 0 
L 603 0 
L 603 3500 
z
M 603 4863 
L 1178 4863 
L 1178 4134 
L 603 4134 
L 603 4863 
z
" transform="scale(0.015625)"/>
      <path id="DejaVuSans-73" d="M 2834 3397 
L 2834 2853 
Q 2591 2978 2328 3040 
Q 2066 3103 1784 3103 
Q 1356 3103 1142 2972 
Q 928 2841 928 2578 
Q 928 2378 1081 2264 
Q 1234 2150 1697 2047 
L 1894 2003 
Q 2506 1872 2764 1633 
Q 3022 1394 3022 966 
Q 3022 478 2636 193 
Q 2250 -91 1575 -91 
Q 1294 -91 989 -36 
Q 684 19 347 128 
L 347 722 
Q 666 556 975 473 
Q 1284 391 1588 391 
Q 1994 391 2212 530 
Q 2431 669 2431 922 
Q 2431 1156 2273 1281 
Q 2116 1406 1581 1522 
L 1381 1569 
Q 847 1681 609 1914 
Q 372 2147 372 2553 
Q 372 3047 722 3315 
Q 1072 3584 1716 3584 
Q 2034 3584 2315 3537 
Q 2597 3491 2834 3397 
z
" transform="scale(0.015625)"/>
      <path id="DejaVuSans-64" d="M 2906 2969 
L 2906 4863 
L 3481 4863 
L 3481 0 
L 2906 0 
L 2906 525 
Q 2725 213 2448 61 
Q 2172 -91 1784 -91 
Q 1150 -91 751 415 
Q 353 922 353 1747 
Q 353 2572 751 3078 
Q 1150 3584 1784 3584 
Q 2172 3584 2448 3432 
Q 2725 3281 2906 2969 
z
M 947 1747 
Q 947 1113 1208 752 
Q 1469 391 1925 391 
Q 2381 391 2643 752 
Q 2906 1113 2906 1747 
Q 2906 2381 2643 2742 
Q 2381 3103 1925 3103 
Q 1469 3103 1208 2742 
Q 947 2381 947 1747 
z
" transform="scale(0.015625)"/>
      <path id="DejaVuSans-5f" d="M 3263 -1063 
L 3263 -1509 
L -63 -1509 
L -63 -1063 
L 3263 -1063 
z
" transform="scale(0.015625)"/>
     </defs>
     <use xlink:href="#DejaVuSans-62"/>
     <use xlink:href="#DejaVuSans-69" x="63.476562"/>
     <use xlink:href="#DejaVuSans-61" x="91.259766"/>
     <use xlink:href="#DejaVuSans-73" x="152.539062"/>
     <use xlink:href="#DejaVuSans-65" x="204.638672"/>
     <use xlink:href="#DejaVuSans-64" x="266.162109"/>
     <use xlink:href="#DejaVuSans-5f" x="329.638672"/>
     <use xlink:href="#DejaVuSans-3b8" x="379.638672"/>
    </g>
   </g>
  </g>
 </g>
 <defs>
  <clipPath id="peaf8337aab">
   <rect x="132.48" y="47.6928" width="373.352727" height="306.0288"/>
  </clipPath>
  <clipPath id="p44cfca8b57">
   <rect x="580.503273" y="47.6928" width="373.352727" height="306.0288"/>
  </clipPath>
 </defs>
</svg>
