<?xml version="1.0" encoding="utf-8" standalone="no"?>
<!DOCTYPE svg PUBLIC "-//W3C//DTD SVG 1.1//EN"
  "http://www.w3.org/Graphics/SVG/1.1/DTD/svg11.dtd">
<svg xmlns:xlink="http://www.w3.org/1999/xlink" width="1059.84pt" height="397.44pt" viewBox="0 0 1059.84 397.44" xmlns="http://www.w3.org/2000/svg" version="1.1">
 <metadata>
  <rdf:RDF xmlns:dc="http://purl.org/dc/elements/1.1/" xmlns:cc="http://creativecommons.org/ns#" xmlns:rdf="http://www.w3.org/1999/02/22-rdf-syntax-ns#">
   <cc:Work>
    <dc:type rdf:resource="http://purl.org/dc/dcmitype/StillImage"/>
    <dc:format>image/svg+xml</dc:format>
   </cc:Work>
  </rdf:RDF>
 </metadata>
 <defs>
  <style type="text/css">*{stroke-linejoin: round; stroke-linecap: butt}</style>
 </defs>
 <g id="figure_1">
  <g id="patch_1">
   <path d="M 0 397.44 
L 1059.84 397.44 
L 1059.84 0 
L 0 0 
z
" style="fill: #ffffff"/>
  </g>
  <g id="axes_1">
   <g id="patch_2">
    <path d="M 132.48 353.7216 
L 505.832727 353.7216 
L 505.832727 47.6928 
L 132.48 47.6928 
z
" style="fill: #ffffff"/>
   </g>
   <g id="PolyCollection_1">
    <defs>
     <path id="mcf672e4757" d="M 149.450579 -57.6288 
L 149.450579 -57.639452 
L 150.114789 -57.638623 
L 150.779 -57.637153 
L 151.44321 -57.63535 
L 152.107421 -57.633537 
L 152.771631 -57.631958 
L 153.435842 -57.630742 
L 154.100052 -57.629901 
L 154.764263 -57.629462 
L 155.428473 -57.629268 
L 156.092684 -57.629272 
L 156.756894 -57.629516 
L 157.421105 -57.630026 
L 158.085315 -57.630732 
L 158.749526 -57.631604 
L 159.413736 -57.632546 
L 160.077947 -57.633581 
L 160.742157 -57.634397 
L 161.406368 -57.635006 
L 162.070578 -57.635448 
L 162.734789 -57.635859 
L 163.398999 -57.636411 
L 164.06321 -57.637213 
L 164.72742 -57.638225 
L 165.391631 -57.63924 
L 166.055841 -57.639947 
L 166.720052 -57.640144 
L 167.384262 -57.639699 
L 168.048473 -57.638676 
L 168.712683 -57.63748 
L 169.376894 -57.636801 
L 170.041104 -57.63678 
L 170.705315 -57.63786 
L 171.369525 -57.640156 
L 172.033736 -57.64362 
L 172.697946 -57.647883 
L 173.362157 -57.65262 
L 174.026367 -57.65723 
L 174.690578 -57.661501 
L 175.354788 -57.665252 
L 176.018999 -57.668935 
L 176.683209 -57.672867 
L 177.34742 -57.677876 
L 178.01163 -57.684291 
L 178.675841 -57.692184 
L 179.340051 -57.70112 
L 180.004262 -57.710325 
L 180.668472 -57.718627 
L 181.332683 -57.725725 
L 181.996893 -57.731999 
L 182.661104 -57.738035 
L 183.325314 -57.745486 
L 183.989525 -57.755721 
L 184.653736 -57.770246 
L 185.317946 -57.789563 
L 185.982157 -57.813913 
L 186.646367 -57.842529 
L 187.310578 -57.874562 
L 187.974788 -57.907533 
L 188.638999 -57.939763 
L 189.303209 -57.968308 
L 189.96742 -57.992224 
L 190.63163 -58.011358 
L 191.295841 -58.026546 
L 191.960051 -58.040489 
L 192.624262 -58.055817 
L 193.288472 -58.07491 
L 193.952683 -58.100704 
L 194.616893 -58.133714 
L 195.281104 -58.174991 
L 195.945314 -58.223457 
L 196.609525 -58.278532 
L 197.273735 -58.337584 
L 197.937946 -58.399102 
L 198.602156 -58.461251 
L 199.266367 -58.522575 
L 199.930577 -58.582388 
L 200.594788 -58.639972 
L 201.258998 -58.696089 
L 201.923209 -58.753024 
L 202.587419 -58.811195 
L 203.25163 -58.874671 
L 203.91584 -58.945889 
L 204.580051 -59.028845 
L 205.244261 -59.125114 
L 205.908472 -59.235669 
L 206.572682 -59.358507 
L 207.236893 -59.492852 
L 207.901103 -59.635383 
L 208.565314 -59.78719 
L 209.229524 -59.944493 
L 209.893735 -60.109104 
L 210.557945 -60.276777 
L 211.222156 -60.448512 
L 211.886366 -60.620867 
L 212.550577 -60.793589 
L 213.214787 -60.969394 
L 213.878998 -61.152175 
L 214.543208 -61.343331 
L 215.207419 -61.546232 
L 215.871629 -61.764451 
L 216.53584 -61.996214 
L 217.20005 -62.242532 
L 217.864261 -62.504208 
L 218.528471 -62.782311 
L 219.192682 -63.077347 
L 219.856892 -63.387754 
L 220.521103 -63.712655 
L 221.185314 -64.050829 
L 221.849524 -64.40358 
L 222.513735 -64.773506 
L 223.177945 -65.166744 
L 223.842156 -65.586799 
L 224.506366 -66.041914 
L 225.170577 -66.531958 
L 225.834787 -67.057612 
L 226.498998 -67.616704 
L 227.163208 -68.204177 
L 227.827419 -68.817137 
L 228.491629 -69.455233 
L 229.15584 -70.114649 
L 229.82005 -70.792338 
L 230.484261 -71.492353 
L 231.148471 -72.208704 
L 231.812682 -72.940533 
L 232.476892 -73.683627 
L 233.141103 -74.437975 
L 233.805313 -75.210634 
L 234.469524 -76.003887 
L 235.133734 -76.822076 
L 235.797945 -77.663343 
L 236.462155 -78.526227 
L 237.126366 -79.405207 
L 237.790576 -80.306483 
L 238.454787 -81.23343 
L 239.118997 -82.207963 
L 239.783208 -83.243919 
L 240.447418 -84.369401 
L 241.111629 -85.590815 
L 241.775839 -86.9049 
L 242.44005 -88.297759 
L 243.10426 -89.751351 
L 243.768471 -91.241269 
L 244.432681 -92.734479 
L 245.096892 -94.222843 
L 245.761102 -95.697829 
L 246.425313 -97.1678 
L 247.089523 -98.652181 
L 247.753734 -100.162284 
L 248.417944 -101.731654 
L 249.082155 -103.376055 
L 249.746365 -105.112724 
L 250.410576 -106.944284 
L 251.074786 -108.868957 
L 251.738997 -110.862604 
L 252.403207 -112.926865 
L 253.067418 -115.030953 
L 253.731628 -117.171236 
L 254.395839 -119.334465 
L 255.060049 -121.525835 
L 255.72426 -123.757209 
L 256.388471 -126.0203 
L 257.052681 -128.329737 
L 257.716892 -130.686589 
L 258.381102 -133.095615 
L 259.045313 -135.55945 
L 259.709523 -138.084931 
L 260.373734 -140.695538 
L 261.037944 -143.38256 
L 261.702155 -146.151076 
L 262.366365 -148.973753 
L 263.030576 -151.828914 
L 263.694786 -154.68585 
L 264.358997 -157.53559 
L 265.023207 -160.375453 
L 265.687418 -163.202514 
L 266.351628 -166.018685 
L 267.015839 -168.832676 
L 267.680049 -171.639359 
L 268.34426 -174.425995 
L 269.00847 -177.196846 
L 269.672681 -179.966651 
L 270.336891 -182.76032 
L 271.001102 -185.592347 
L 271.665312 -188.509817 
L 272.329523 -191.540415 
L 272.993733 -194.668539 
L 273.657944 -197.893943 
L 274.322154 -201.147307 
L 274.986365 -204.401368 
L 275.650575 -207.58909 
L 276.314786 -210.684469 
L 276.978996 -213.690819 
L 277.643207 -216.616937 
L 278.307417 -219.497925 
L 278.971628 -222.381138 
L 279.635838 -225.309798 
L 280.300049 -228.290261 
L 280.964259 -231.351811 
L 281.62847 -234.49567 
L 282.29268 -237.708051 
L 282.956891 -240.958573 
L 283.621101 -244.192406 
L 284.285312 -247.397559 
L 284.949522 -250.534983 
L 285.613733 -253.572648 
L 286.277943 -256.525559 
L 286.942154 -259.41314 
L 287.606364 -262.229392 
L 288.270575 -265.029977 
L 288.934785 -267.817139 
L 289.598996 -270.631925 
L 290.263206 -273.460714 
L 290.927417 -276.314021 
L 291.591628 -279.205808 
L 292.255838 -282.1229 
L 292.920049 -285.06895 
L 293.584259 -288.037261 
L 294.24847 -291.035216 
L 294.91268 -294.033952 
L 295.576891 -296.999376 
L 296.241101 -299.875797 
L 296.905312 -302.587073 
L 297.569522 -305.085413 
L 298.233733 -307.329493 
L 298.897943 -309.333833 
L 299.562154 -311.146127 
L 300.226364 -312.771618 
L 300.890575 -314.28306 
L 301.554785 -315.705659 
L 302.218996 -317.042899 
L 302.883206 -318.3351 
L 303.547417 -319.598324 
L 304.211627 -320.868938 
L 304.875838 -322.167499 
L 305.540048 -323.502467 
L 306.204259 -324.904204 
L 306.868469 -326.346001 
L 307.53268 -327.818417 
L 308.19689 -329.283624 
L 308.861101 -330.691204 
L 309.525311 -331.987684 
L 310.189522 -333.147501 
L 310.853732 -334.128292 
L 311.517943 -334.88966 
L 312.182153 -335.424958 
L 312.846364 -335.739101 
L 313.510574 -335.8368 
L 314.174785 -335.770062 
L 314.838995 -335.533553 
L 315.503206 -335.189793 
L 316.167416 -334.741677 
L 316.831627 -334.212991 
L 317.495837 -333.618283 
L 318.160048 -332.980473 
L 318.824258 -332.314118 
L 319.488469 -331.655945 
L 320.152679 -331.014995 
L 320.81689 -330.406319 
L 321.4811 -329.800266 
L 322.145311 -329.169495 
L 322.809521 -328.474871 
L 323.473732 -327.647098 
L 324.137942 -326.654044 
L 324.802153 -325.497976 
L 325.466363 -324.155716 
L 326.130574 -322.621281 
L 326.794784 -320.901364 
L 327.458995 -319.016469 
L 328.123206 -316.991413 
L 328.787416 -314.878217 
L 329.451627 -312.71808 
L 330.115837 -310.573623 
L 330.780048 -308.447357 
L 331.444258 -306.357763 
L 332.108469 -304.275781 
L 332.772679 -302.187377 
L 333.43689 -300.073782 
L 334.1011 -297.931329 
L 334.765311 -295.76305 
L 335.429521 -293.573298 
L 336.093732 -291.327709 
L 336.757942 -289.021479 
L 337.422153 -286.657444 
L 338.086363 -284.214031 
L 338.750574 -281.724487 
L 339.414784 -279.243678 
L 340.078995 -276.792351 
L 340.743205 -274.389039 
L 341.407416 -272.002554 
L 342.071626 -269.575776 
L 342.735837 -267.060441 
L 343.400047 -264.413216 
L 344.064258 -261.626471 
L 344.728468 -258.725657 
L 345.392679 -255.749048 
L 346.056889 -252.745645 
L 346.7211 -249.740597 
L 347.38531 -246.754934 
L 348.049521 -243.773508 
L 348.713731 -240.791655 
L 349.377942 -237.780897 
L 350.042152 -234.744893 
L 350.706363 -231.67739 
L 351.370573 -228.579966 
L 352.034784 -225.461177 
L 352.698994 -222.328862 
L 353.363205 -219.214489 
L 354.027415 -216.118663 
L 354.691626 -213.043513 
L 355.355836 -209.996328 
L 356.020047 -206.970151 
L 356.684257 -203.945649 
L 357.348468 -200.916066 
L 358.012678 -197.875865 
L 358.676889 -194.827133 
L 359.341099 -191.771836 
L 360.00531 -188.728014 
L 360.66952 -185.70564 
L 361.333731 -182.723396 
L 361.997941 -179.810798 
L 362.662152 -176.973545 
L 363.326363 -174.21387 
L 363.990573 -171.535819 
L 364.654784 -168.921096 
L 365.318994 -166.369428 
L 365.983205 -163.877403 
L 366.647415 -161.431304 
L 367.311626 -159.013886 
L 367.975836 -156.631764 
L 368.640047 -154.268952 
L 369.304257 -151.920511 
L 369.968468 -149.599438 
L 370.632678 -147.321063 
L 371.296889 -145.102992 
L 371.961099 -142.956273 
L 372.62531 -140.855557 
L 373.28952 -138.778216 
L 373.953731 -136.693495 
L 374.617941 -134.574489 
L 375.282152 -132.409414 
L 375.946362 -130.216629 
L 376.610573 -128.027144 
L 377.274783 -125.90449 
L 377.938994 -123.880107 
L 378.603204 -121.994787 
L 379.267415 -120.253098 
L 379.931625 -118.64508 
L 380.595836 -117.142106 
L 381.260046 -115.700185 
L 381.924257 -114.263205 
L 382.588467 -112.795874 
L 383.252678 -111.277061 
L 383.916888 -109.705025 
L 384.581099 -108.100987 
L 385.245309 -106.498923 
L 385.90952 -104.929989 
L 386.57373 -103.428144 
L 387.237941 -101.997545 
L 387.902151 -100.633348 
L 388.566362 -99.332038 
L 389.230572 -98.079617 
L 389.894783 -96.855463 
L 390.558993 -95.656281 
L 391.223204 -94.463932 
L 391.887414 -93.28208 
L 392.551625 -92.103337 
L 393.215835 -90.931276 
L 393.880046 -89.76619 
L 394.544256 -88.60494 
L 395.208467 -87.451105 
L 395.872677 -86.310811 
L 396.536888 -85.179713 
L 397.201098 -84.058466 
L 397.865309 -82.95167 
L 398.529519 -81.864936 
L 399.19373 -80.805859 
L 399.857941 -79.779241 
L 400.522151 -78.790168 
L 401.186362 -77.842844 
L 401.850572 -76.941221 
L 402.514783 -76.088577 
L 403.178993 -75.295288 
L 403.843204 -74.568054 
L 404.507414 -73.910553 
L 405.171625 -73.316955 
L 405.835835 -72.77073 
L 406.500046 -72.252449 
L 407.164256 -71.73699 
L 407.828467 -71.211393 
L 408.492677 -70.67032 
L 409.156888 -70.113424 
L 409.821098 -69.551956 
L 410.485309 -68.997853 
L 411.149519 -68.462867 
L 411.81373 -67.951149 
L 412.47794 -67.467835 
L 413.142151 -67.013253 
L 413.806361 -66.589242 
L 414.470572 -66.198768 
L 415.134782 -65.845552 
L 415.798993 -65.528905 
L 416.463203 -65.248253 
L 417.127414 -64.994617 
L 417.791624 -64.75844 
L 418.455835 -64.527438 
L 419.120045 -64.291633 
L 419.784256 -64.048212 
L 420.448466 -63.796918 
L 421.112677 -63.540605 
L 421.776887 -63.286557 
L 422.441098 -63.042926 
L 423.105308 -62.814753 
L 423.769519 -62.604631 
L 424.433729 -62.413057 
L 425.09794 -62.234945 
L 425.76215 -62.067447 
L 426.426361 -61.903641 
L 427.090571 -61.736509 
L 427.754782 -61.563315 
L 428.418992 -61.379798 
L 429.083203 -61.189671 
L 429.747413 -61.000908 
L 430.411624 -60.816589 
L 431.075834 -60.646341 
L 431.740045 -60.493692 
L 432.404255 -60.35837 
L 433.068466 -60.238526 
L 433.732676 -60.129624 
L 434.396887 -60.024597 
L 435.061098 -59.922182 
L 435.725308 -59.817205 
L 436.389519 -59.709001 
L 437.053729 -59.596925 
L 437.71794 -59.482305 
L 438.38215 -59.367068 
L 439.046361 -59.253317 
L 439.710571 -59.144094 
L 440.374782 -59.043471 
L 441.038992 -58.952019 
L 441.703203 -58.870716 
L 442.367413 -58.798647 
L 443.031624 -58.732246 
L 443.695834 -58.669283 
L 444.360045 -58.609548 
L 445.024255 -58.549919 
L 445.688466 -58.491637 
L 446.352676 -58.434912 
L 447.016887 -58.381134 
L 447.681097 -58.331048 
L 448.345308 -58.286576 
L 449.009518 -58.247484 
L 449.673729 -58.214513 
L 450.337939 -58.187954 
L 451.00215 -58.164931 
L 451.66636 -58.144813 
L 452.330571 -58.126897 
L 452.994781 -58.111097 
L 453.658992 -58.097484 
L 454.323202 -58.085724 
L 454.987413 -58.077118 
L 455.651623 -58.069942 
L 456.315834 -58.06294 
L 456.980044 -58.0548 
L 457.644255 -58.044441 
L 458.308465 -58.030989 
L 458.972676 -58.014379 
L 459.636886 -57.995056 
L 460.301097 -57.975137 
L 460.965307 -57.955942 
L 461.629518 -57.939337 
L 462.293728 -57.926216 
L 462.957939 -57.916582 
L 463.622149 -57.909616 
L 464.28636 -57.903149 
L 464.95057 -57.896838 
L 465.614781 -57.88812 
L 466.278991 -57.877098 
L 466.943202 -57.863794 
L 467.607412 -57.84881 
L 468.271623 -57.832845 
L 468.935833 -57.816566 
L 469.600044 -57.800429 
L 470.264255 -57.785038 
L 470.928465 -57.77087 
L 471.592676 -57.758575 
L 472.256886 -57.748627 
L 472.921097 -57.741265 
L 473.585307 -57.735765 
L 474.249518 -57.731214 
L 474.913728 -57.726686 
L 475.577939 -57.721139 
L 476.242149 -57.714901 
L 476.90636 -57.707972 
L 477.57057 -57.701626 
L 478.234781 -57.696941 
L 478.898991 -57.694531 
L 479.563202 -57.694633 
L 480.227412 -57.695846 
L 480.891623 -57.697096 
L 481.555833 -57.696914 
L 482.220044 -57.694678 
L 482.884254 -57.690061 
L 483.548465 -57.683679 
L 484.212675 -57.676484 
L 484.876886 -57.669347 
L 485.541096 -57.663252 
L 486.205307 -57.658376 
L 486.869517 -57.654828 
L 487.533728 -57.65248 
L 488.197938 -57.650992 
L 488.862149 -57.650506 
L 488.862149 -57.6288 
L 488.862149 -57.6288 
L 488.197938 -57.6288 
L 487.533728 -57.6288 
L 486.869517 -57.6288 
L 486.205307 -57.6288 
L 485.541096 -57.6288 
L 484.876886 -57.6288 
L 484.212675 -57.6288 
L 483.548465 -57.6288 
L 482.884254 -57.6288 
L 482.220044 -57.6288 
L 481.555833 -57.6288 
L 480.891623 -57.6288 
L 480.227412 -57.6288 
L 479.563202 -57.6288 
L 478.898991 -57.6288 
L 478.234781 -57.6288 
L 477.57057 -57.6288 
L 476.90636 -57.6288 
L 476.242149 -57.6288 
L 475.577939 -57.6288 
L 474.913728 -57.6288 
L 474.249518 -57.6288 
L 473.585307 -57.6288 
L 472.921097 -57.6288 
L 472.256886 -57.6288 
L 471.592676 -57.6288 
L 470.928465 -57.6288 
L 470.264255 -57.6288 
L 469.600044 -57.6288 
L 468.935833 -57.6288 
L 468.271623 -57.6288 
L 467.607412 -57.6288 
L 466.943202 -57.6288 
L 466.278991 -57.6288 
L 465.614781 -57.6288 
L 464.95057 -57.6288 
L 464.28636 -57.6288 
L 463.622149 -57.6288 
L 462.957939 -57.6288 
L 462.293728 -57.6288 
L 461.629518 -57.6288 
L 460.965307 -57.6288 
L 460.301097 -57.6288 
L 459.636886 -57.6288 
L 458.972676 -57.6288 
L 458.308465 -57.6288 
L 457.644255 -57.6288 
L 456.980044 -57.6288 
L 456.315834 -57.6288 
L 455.651623 -57.6288 
L 454.987413 -57.6288 
L 454.323202 -57.6288 
L 453.658992 -57.6288 
L 452.994781 -57.6288 
L 452.330571 -57.6288 
L 451.66636 -57.6288 
L 451.00215 -57.6288 
L 450.337939 -57.6288 
L 449.673729 -57.6288 
L 449.009518 -57.6288 
L 448.345308 -57.6288 
L 447.681097 -57.6288 
L 447.016887 -57.6288 
L 446.352676 -57.6288 
L 445.688466 -57.6288 
L 445.024255 -57.6288 
L 444.360045 -57.6288 
L 443.695834 -57.6288 
L 443.031624 -57.6288 
L 442.367413 -57.6288 
L 441.703203 -57.6288 
L 441.038992 -57.6288 
L 440.374782 -57.6288 
L 439.710571 -57.6288 
L 439.046361 -57.6288 
L 438.38215 -57.6288 
L 437.71794 -57.6288 
L 437.053729 -57.6288 
L 436.389519 -57.6288 
L 435.725308 -57.6288 
L 435.061098 -57.6288 
L 434.396887 -57.6288 
L 433.732676 -57.6288 
L 433.068466 -57.6288 
L 432.404255 -57.6288 
L 431.740045 -57.6288 
L 431.075834 -57.6288 
L 430.411624 -57.6288 
L 429.747413 -57.6288 
L 429.083203 -57.6288 
L 428.418992 -57.6288 
L 427.754782 -57.6288 
L 427.090571 -57.6288 
L 426.426361 -57.6288 
L 425.76215 -57.6288 
L 425.09794 -57.6288 
L 424.433729 -57.6288 
L 423.769519 -57.6288 
L 423.105308 -57.6288 
L 422.441098 -57.6288 
L 421.776887 -57.6288 
L 421.112677 -57.6288 
L 420.448466 -57.6288 
L 419.784256 -57.6288 
L 419.120045 -57.6288 
L 418.455835 -57.6288 
L 417.791624 -57.6288 
L 417.127414 -57.6288 
L 416.463203 -57.6288 
L 415.798993 -57.6288 
L 415.134782 -57.6288 
L 414.470572 -57.6288 
L 413.806361 -57.6288 
L 413.142151 -57.6288 
L 412.47794 -57.6288 
L 411.81373 -57.6288 
L 411.149519 -57.6288 
L 410.485309 -57.6288 
L 409.821098 -57.6288 
L 409.156888 -57.6288 
L 408.492677 -57.6288 
L 407.828467 -57.6288 
L 407.164256 -57.6288 
L 406.500046 -57.6288 
L 405.835835 -57.6288 
L 405.171625 -57.6288 
L 404.507414 -57.6288 
L 403.843204 -57.6288 
L 403.178993 -57.6288 
L 402.514783 -57.6288 
L 401.850572 -57.6288 
L 401.186362 -57.6288 
L 400.522151 -57.6288 
L 399.857941 -57.6288 
L 399.19373 -57.6288 
L 398.529519 -57.6288 
L 397.865309 -57.6288 
L 397.201098 -57.6288 
L 396.536888 -57.6288 
L 395.872677 -57.6288 
L 395.208467 -57.6288 
L 394.544256 -57.6288 
L 393.880046 -57.6288 
L 393.215835 -57.6288 
L 392.551625 -57.6288 
L 391.887414 -57.6288 
L 391.223204 -57.6288 
L 390.558993 -57.6288 
L 389.894783 -57.6288 
L 389.230572 -57.6288 
L 388.566362 -57.6288 
L 387.902151 -57.6288 
L 387.237941 -57.6288 
L 386.57373 -57.6288 
L 385.90952 -57.6288 
L 385.245309 -57.6288 
L 384.581099 -57.6288 
L 383.916888 -57.6288 
L 383.252678 -57.6288 
L 382.588467 -57.6288 
L 381.924257 -57.6288 
L 381.260046 -57.6288 
L 380.595836 -57.6288 
L 379.931625 -57.6288 
L 379.267415 -57.6288 
L 378.603204 -57.6288 
L 377.938994 -57.6288 
L 377.274783 -57.6288 
L 376.610573 -57.6288 
L 375.946362 -57.6288 
L 375.282152 -57.6288 
L 374.617941 -57.6288 
L 373.953731 -57.6288 
L 373.28952 -57.6288 
L 372.62531 -57.6288 
L 371.961099 -57.6288 
L 371.296889 -57.6288 
L 370.632678 -57.6288 
L 369.968468 -57.6288 
L 369.304257 -57.6288 
L 368.640047 -57.6288 
L 367.975836 -57.6288 
L 367.311626 -57.6288 
L 366.647415 -57.6288 
L 365.983205 -57.6288 
L 365.318994 -57.6288 
L 364.654784 -57.6288 
L 363.990573 -57.6288 
L 363.326363 -57.6288 
L 362.662152 -57.6288 
L 361.997941 -57.6288 
L 361.333731 -57.6288 
L 360.66952 -57.6288 
L 360.00531 -57.6288 
L 359.341099 -57.6288 
L 358.676889 -57.6288 
L 358.012678 -57.6288 
L 357.348468 -57.6288 
L 356.684257 -57.6288 
L 356.020047 -57.6288 
L 355.355836 -57.6288 
L 354.691626 -57.6288 
L 354.027415 -57.6288 
L 353.363205 -57.6288 
L 352.698994 -57.6288 
L 352.034784 -57.6288 
L 351.370573 -57.6288 
L 350.706363 -57.6288 
L 350.042152 -57.6288 
L 349.377942 -57.6288 
L 348.713731 -57.6288 
L 348.049521 -57.6288 
L 347.38531 -57.6288 
L 346.7211 -57.6288 
L 346.056889 -57.6288 
L 345.392679 -57.6288 
L 344.728468 -57.6288 
L 344.064258 -57.6288 
L 343.400047 -57.6288 
L 342.735837 -57.6288 
L 342.071626 -57.6288 
L 341.407416 -57.6288 
L 340.743205 -57.6288 
L 340.078995 -57.6288 
L 339.414784 -57.6288 
L 338.750574 -57.6288 
L 338.086363 -57.6288 
L 337.422153 -57.6288 
L 336.757942 -57.6288 
L 336.093732 -57.6288 
L 335.429521 -57.6288 
L 334.765311 -57.6288 
L 334.1011 -57.6288 
L 333.43689 -57.6288 
L 332.772679 -57.6288 
L 332.108469 -57.6288 
L 331.444258 -57.6288 
L 330.780048 -57.6288 
L 330.115837 -57.6288 
L 329.451627 -57.6288 
L 328.787416 -57.6288 
L 328.123206 -57.6288 
L 327.458995 -57.6288 
L 326.794784 -57.6288 
L 326.130574 -57.6288 
L 325.466363 -57.6288 
L 324.802153 -57.6288 
L 324.137942 -57.6288 
L 323.473732 -57.6288 
L 322.809521 -57.6288 
L 322.145311 -57.6288 
L 321.4811 -57.6288 
L 320.81689 -57.6288 
L 320.152679 -57.6288 
L 319.488469 -57.6288 
L 318.824258 -57.6288 
L 318.160048 -57.6288 
L 317.495837 -57.6288 
L 316.831627 -57.6288 
L 316.167416 -57.6288 
L 315.503206 -57.6288 
L 314.838995 -57.6288 
L 314.174785 -57.6288 
L 313.510574 -57.6288 
L 312.846364 -57.6288 
L 312.182153 -57.6288 
L 311.517943 -57.6288 
L 310.853732 -57.6288 
L 310.189522 -57.6288 
L 309.525311 -57.6288 
L 308.861101 -57.6288 
L 308.19689 -57.6288 
L 307.53268 -57.6288 
L 306.868469 -57.6288 
L 306.204259 -57.6288 
L 305.540048 -57.6288 
L 304.875838 -57.6288 
L 304.211627 -57.6288 
L 303.547417 -57.6288 
L 302.883206 -57.6288 
L 302.218996 -57.6288 
L 301.554785 -57.6288 
L 300.890575 -57.6288 
L 300.226364 -57.6288 
L 299.562154 -57.6288 
L 298.897943 -57.6288 
L 298.233733 -57.6288 
L 297.569522 -57.6288 
L 296.905312 -57.6288 
L 296.241101 -57.6288 
L 295.576891 -57.6288 
L 294.91268 -57.6288 
L 294.24847 -57.6288 
L 293.584259 -57.6288 
L 292.920049 -57.6288 
L 292.255838 -57.6288 
L 291.591628 -57.6288 
L 290.927417 -57.6288 
L 290.263206 -57.6288 
L 289.598996 -57.6288 
L 288.934785 -57.6288 
L 288.270575 -57.6288 
L 287.606364 -57.6288 
L 286.942154 -57.6288 
L 286.277943 -57.6288 
L 285.613733 -57.6288 
L 284.949522 -57.6288 
L 284.285312 -57.6288 
L 283.621101 -57.6288 
L 282.956891 -57.6288 
L 282.29268 -57.6288 
L 281.62847 -57.6288 
L 280.964259 -57.6288 
L 280.300049 -57.6288 
L 279.635838 -57.6288 
L 278.971628 -57.6288 
L 278.307417 -57.6288 
L 277.643207 -57.6288 
L 276.978996 -57.6288 
L 276.314786 -57.6288 
L 275.650575 -57.6288 
L 274.986365 -57.6288 
L 274.322154 -57.6288 
L 273.657944 -57.6288 
L 272.993733 -57.6288 
L 272.329523 -57.6288 
L 271.665312 -57.6288 
L 271.001102 -57.6288 
L 270.336891 -57.6288 
L 269.672681 -57.6288 
L 269.00847 -57.6288 
L 268.34426 -57.6288 
L 267.680049 -57.6288 
L 267.015839 -57.6288 
L 266.351628 -57.6288 
L 265.687418 -57.6288 
L 265.023207 -57.6288 
L 264.358997 -57.6288 
L 263.694786 -57.6288 
L 263.030576 -57.6288 
L 262.366365 -57.6288 
L 261.702155 -57.6288 
L 261.037944 -57.6288 
L 260.373734 -57.6288 
L 259.709523 -57.6288 
L 259.045313 -57.6288 
L 258.381102 -57.6288 
L 257.716892 -57.6288 
L 257.052681 -57.6288 
L 256.388471 -57.6288 
L 255.72426 -57.6288 
L 255.060049 -57.6288 
L 254.395839 -57.6288 
L 253.731628 -57.6288 
L 253.067418 -57.6288 
L 252.403207 -57.6288 
L 251.738997 -57.6288 
L 251.074786 -57.6288 
L 250.410576 -57.6288 
L 249.746365 -57.6288 
L 249.082155 -57.6288 
L 248.417944 -57.6288 
L 247.753734 -57.6288 
L 247.089523 -57.6288 
L 246.425313 -57.6288 
L 245.761102 -57.6288 
L 245.096892 -57.6288 
L 244.432681 -57.6288 
L 243.768471 -57.6288 
L 243.10426 -57.6288 
L 242.44005 -57.6288 
L 241.775839 -57.6288 
L 241.111629 -57.6288 
L 240.447418 -57.6288 
L 239.783208 -57.6288 
L 239.118997 -57.6288 
L 238.454787 -57.6288 
L 237.790576 -57.6288 
L 237.126366 -57.6288 
L 236.462155 -57.6288 
L 235.797945 -57.6288 
L 235.133734 -57.6288 
L 234.469524 -57.6288 
L 233.805313 -57.6288 
L 233.141103 -57.6288 
L 232.476892 -57.6288 
L 231.812682 -57.6288 
L 231.148471 -57.6288 
L 230.484261 -57.6288 
L 229.82005 -57.6288 
L 229.15584 -57.6288 
L 228.491629 -57.6288 
L 227.827419 -57.6288 
L 227.163208 -57.6288 
L 226.498998 -57.6288 
L 225.834787 -57.6288 
L 225.170577 -57.6288 
L 224.506366 -57.6288 
L 223.842156 -57.6288 
L 223.177945 -57.6288 
L 222.513735 -57.6288 
L 221.849524 -57.6288 
L 221.185314 -57.6288 
L 220.521103 -57.6288 
L 219.856892 -57.6288 
L 219.192682 -57.6288 
L 218.528471 -57.6288 
L 217.864261 -57.6288 
L 217.20005 -57.6288 
L 216.53584 -57.6288 
L 215.871629 -57.6288 
L 215.207419 -57.6288 
L 214.543208 -57.6288 
L 213.878998 -57.6288 
L 213.214787 -57.6288 
L 212.550577 -57.6288 
L 211.886366 -57.6288 
L 211.222156 -57.6288 
L 210.557945 -57.6288 
L 209.893735 -57.6288 
L 209.229524 -57.6288 
L 208.565314 -57.6288 
L 207.901103 -57.6288 
L 207.236893 -57.6288 
L 206.572682 -57.6288 
L 205.908472 -57.6288 
L 205.244261 -57.6288 
L 204.580051 -57.6288 
L 203.91584 -57.6288 
L 203.25163 -57.6288 
L 202.587419 -57.6288 
L 201.923209 -57.6288 
L 201.258998 -57.6288 
L 200.594788 -57.6288 
L 199.930577 -57.6288 
L 199.266367 -57.6288 
L 198.602156 -57.6288 
L 197.937946 -57.6288 
L 197.273735 -57.6288 
L 196.609525 -57.6288 
L 195.945314 -57.6288 
L 195.281104 -57.6288 
L 194.616893 -57.6288 
L 193.952683 -57.6288 
L 193.288472 -57.6288 
L 192.624262 -57.6288 
L 191.960051 -57.6288 
L 191.295841 -57.6288 
L 190.63163 -57.6288 
L 189.96742 -57.6288 
L 189.303209 -57.6288 
L 188.638999 -57.6288 
L 187.974788 -57.6288 
L 187.310578 -57.6288 
L 186.646367 -57.6288 
L 185.982157 -57.6288 
L 185.317946 -57.6288 
L 184.653736 -57.6288 
L 183.989525 -57.6288 
L 183.325314 -57.6288 
L 182.661104 -57.6288 
L 181.996893 -57.6288 
L 181.332683 -57.6288 
L 180.668472 -57.6288 
L 180.004262 -57.6288 
L 179.340051 -57.6288 
L 178.675841 -57.6288 
L 178.01163 -57.6288 
L 177.34742 -57.6288 
L 176.683209 -57.6288 
L 176.018999 -57.6288 
L 175.354788 -57.6288 
L 174.690578 -57.6288 
L 174.026367 -57.6288 
L 173.362157 -57.6288 
L 172.697946 -57.6288 
L 172.033736 -57.6288 
L 171.369525 -57.6288 
L 170.705315 -57.6288 
L 170.041104 -57.6288 
L 169.376894 -57.6288 
L 168.712683 -57.6288 
L 168.048473 -57.6288 
L 167.384262 -57.6288 
L 166.720052 -57.6288 
L 166.055841 -57.6288 
L 165.391631 -57.6288 
L 164.72742 -57.6288 
L 164.06321 -57.6288 
L 163.398999 -57.6288 
L 162.734789 -57.6288 
L 162.070578 -57.6288 
L 161.406368 -57.6288 
L 160.742157 -57.6288 
L 160.077947 -57.6288 
L 159.413736 -57.6288 
L 158.749526 -57.6288 
L 158.085315 -57.6288 
L 157.421105 -57.6288 
L 156.756894 -57.6288 
L 156.092684 -57.6288 
L 155.428473 -57.6288 
L 154.764263 -57.6288 
L 154.100052 -57.6288 
L 153.435842 -57.6288 
L 152.771631 -57.6288 
L 152.107421 -57.6288 
L 151.44321 -57.6288 
L 150.779 -57.6288 
L 150.114789 -57.6288 
L 149.450579 -57.6288 
z
" style="stroke: #1f77b4; stroke-opacity: 0"/>
    </defs>
    <g clip-path="url(#pcb442f819e)">
     <use xlink:href="#mcf672e4757" x="0" y="397.44" style="fill: #1f77b4; fill-opacity: 0; stroke: #1f77b4; stroke-opacity: 0"/>
    </g>
   </g>
   <g id="matplotlib.axis_1">
    <g id="xtick_1">
     <g id="line2d_1">
      <defs>
       <path id="m5ab9b9bf81" d="M 0 0 
L 0 3 
" style="stroke: #808080"/>
      </defs>
      <g>
       <use xlink:href="#m5ab9b9bf81" x="159.63079" y="353.7216" style="fill: #808080; stroke: #808080"/>
      </g>
     </g>
     <g id="text_1">
      <!-- 0.040 -->
      <g transform="translate(139.591102 370.859412) scale(0.14 -0.14)">
       <defs>
        <path id="DejaVuSans-30" d="M 2034 4250 
Q 1547 4250 1301 3770 
Q 1056 3291 1056 2328 
Q 1056 1369 1301 889 
Q 1547 409 2034 409 
Q 2525 409 2770 889 
Q 3016 1369 3016 2328 
Q 3016 3291 2770 3770 
Q 2525 4250 2034 4250 
z
M 2034 4750 
Q 2819 4750 3233 4129 
Q 3647 3509 3647 2328 
Q 3647 1150 3233 529 
Q 2819 -91 2034 -91 
Q 1250 -91 836 529 
Q 422 1150 422 2328 
Q 422 3509 836 4129 
Q 1250 4750 2034 4750 
z
" transform="scale(0.015625)"/>
        <path id="DejaVuSans-2e" d="M 684 794 
L 1344 794 
L 1344 0 
L 684 0 
L 684 794 
z
" transform="scale(0.015625)"/>
        <path id="DejaVuSans-34" d="M 2419 4116 
L 825 1625 
L 2419 1625 
L 2419 4116 
z
M 2253 4666 
L 3047 4666 
L 3047 1625 
L 3713 1625 
L 3713 1100 
L 3047 1100 
L 3047 0 
L 2419 0 
L 2419 1100 
L 313 1100 
L 313 1709 
L 2253 4666 
z
" transform="scale(0.015625)"/>
       </defs>
       <use xlink:href="#DejaVuSans-30"/>
       <use xlink:href="#DejaVuSans-2e" x="63.623047"/>
       <use xlink:href="#DejaVuSans-30" x="95.410156"/>
       <use xlink:href="#DejaVuSans-34" x="159.033203"/>
       <use xlink:href="#DejaVuSans-30" x="222.65625"/>
      </g>
     </g>
    </g>
    <g id="xtick_2">
     <g id="line2d_2">
      <g>
       <use xlink:href="#m5ab9b9bf81" x="237.141223" y="353.7216" style="fill: #808080; stroke: #808080"/>
      </g>
     </g>
     <g id="text_2">
      <!-- 0.045 -->
      <g transform="translate(217.101536 370.859412) scale(0.14 -0.14)">
       <defs>
        <path id="DejaVuSans-35" d="M 691 4666 
L 3169 4666 
L 3169 4134 
L 1269 4134 
L 1269 2991 
Q 1406 3038 1543 3061 
Q 1681 3084 1819 3084 
Q 2600 3084 3056 2656 
Q 3513 2228 3513 1497 
Q 3513 744 3044 326 
Q 2575 -91 1722 -91 
Q 1428 -91 1123 -41 
Q 819 9 494 109 
L 494 744 
Q 775 591 1075 516 
Q 1375 441 1709 441 
Q 2250 441 2565 725 
Q 2881 1009 2881 1497 
Q 2881 1984 2565 2268 
Q 2250 2553 1709 2553 
Q 1456 2553 1204 2497 
Q 953 2441 691 2322 
L 691 4666 
z
" transform="scale(0.015625)"/>
       </defs>
       <use xlink:href="#DejaVuSans-30"/>
       <use xlink:href="#DejaVuSans-2e" x="63.623047"/>
       <use xlink:href="#DejaVuSans-30" x="95.410156"/>
       <use xlink:href="#DejaVuSans-34" x="159.033203"/>
       <use xlink:href="#DejaVuSans-35" x="222.65625"/>
      </g>
     </g>
    </g>
    <g id="xtick_3">
     <g id="line2d_3">
      <g>
       <use xlink:href="#m5ab9b9bf81" x="314.651657" y="353.7216" style="fill: #808080; stroke: #808080"/>
      </g>
     </g>
     <g id="text_3">
      <!-- 0.050 -->
      <g transform="translate(294.61197 370.859412) scale(0.14 -0.14)">
       <use xlink:href="#DejaVuSans-30"/>
       <use xlink:href="#DejaVuSans-2e" x="63.623047"/>
       <use xlink:href="#DejaVuSans-30" x="95.410156"/>
       <use xlink:href="#DejaVuSans-35" x="159.033203"/>
       <use xlink:href="#DejaVuSans-30" x="222.65625"/>
      </g>
     </g>
    </g>
    <g id="xtick_4">
     <g id="line2d_4">
      <g>
       <use xlink:href="#m5ab9b9bf81" x="392.162091" y="353.7216" style="fill: #808080; stroke: #808080"/>
      </g>
     </g>
     <g id="text_4">
      <!-- 0.055 -->
      <g transform="translate(372.122403 370.859412) scale(0.14 -0.14)">
       <use xlink:href="#DejaVuSans-30"/>
       <use xlink:href="#DejaVuSans-2e" x="63.623047"/>
       <use xlink:href="#DejaVuSans-30" x="95.410156"/>
       <use xlink:href="#DejaVuSans-35" x="159.033203"/>
       <use xlink:href="#DejaVuSans-35" x="222.65625"/>
      </g>
     </g>
    </g>
    <g id="xtick_5">
     <g id="line2d_5">
      <g>
       <use xlink:href="#m5ab9b9bf81" x="469.672525" y="353.7216" style="fill: #808080; stroke: #808080"/>
      </g>
     </g>
     <g id="text_5">
      <!-- 0.060 -->
      <g transform="translate(449.632837 370.859412) scale(0.14 -0.14)">
       <defs>
        <path id="DejaVuSans-36" d="M 2113 2584 
Q 1688 2584 1439 2293 
Q 1191 2003 1191 1497 
Q 1191 994 1439 701 
Q 1688 409 2113 409 
Q 2538 409 2786 701 
Q 3034 994 3034 1497 
Q 3034 2003 2786 2293 
Q 2538 2584 2113 2584 
z
M 3366 4563 
L 3366 3988 
Q 3128 4100 2886 4159 
Q 2644 4219 2406 4219 
Q 1781 4219 1451 3797 
Q 1122 3375 1075 2522 
Q 1259 2794 1537 2939 
Q 1816 3084 2150 3084 
Q 2853 3084 3261 2657 
Q 3669 2231 3669 1497 
Q 3669 778 3244 343 
Q 2819 -91 2113 -91 
Q 1303 -91 875 529 
Q 447 1150 447 2328 
Q 447 3434 972 4092 
Q 1497 4750 2381 4750 
Q 2619 4750 2861 4703 
Q 3103 4656 3366 4563 
z
" transform="scale(0.015625)"/>
       </defs>
       <use xlink:href="#DejaVuSans-30"/>
       <use xlink:href="#DejaVuSans-2e" x="63.623047"/>
       <use xlink:href="#DejaVuSans-30" x="95.410156"/>
       <use xlink:href="#DejaVuSans-36" x="159.033203"/>
       <use xlink:href="#DejaVuSans-30" x="222.65625"/>
      </g>
     </g>
    </g>
   </g>
   <g id="matplotlib.axis_2"/>
   <g id="line2d_6">
    <path d="M 149.450579 339.800548 
L 180.004262 339.729675 
L 187.974788 339.532467 
L 199.930577 338.857612 
L 205.244261 338.314886 
L 208.565314 337.65281 
L 213.878998 336.287825 
L 216.53584 335.443786 
L 219.192682 334.362653 
L 221.849524 333.03642 
L 223.842156 331.853201 
L 225.834787 330.382388 
L 227.827419 328.622863 
L 230.484261 325.947647 
L 233.805313 322.229366 
L 236.462155 318.913773 
L 239.118997 315.232037 
L 240.447418 313.070599 
L 241.775839 310.5351 
L 243.768471 306.198731 
L 249.082155 294.063945 
L 251.074786 288.571043 
L 253.731628 280.268764 
L 257.052681 269.110263 
L 259.709523 259.355069 
L 262.366365 248.466247 
L 270.336891 214.67968 
L 272.329523 205.899585 
L 278.971628 175.058862 
L 281.62847 162.94433 
L 286.277943 140.914441 
L 296.905312 94.852927 
L 298.233733 90.110507 
L 299.562154 86.293873 
L 300.890575 83.15694 
L 302.883206 79.1049 
L 305.540048 73.937533 
L 310.189522 64.292499 
L 310.853732 63.311708 
L 311.517943 62.55034 
L 312.182153 62.015042 
L 312.846364 61.700899 
L 313.510574 61.6032 
L 314.174785 61.669938 
L 315.503206 62.250207 
L 316.831627 63.227009 
L 318.824258 65.125882 
L 323.473732 69.792902 
L 324.802153 71.942024 
L 326.130574 74.818719 
L 327.458995 78.423531 
L 330.115837 86.866377 
L 336.757942 108.418521 
L 340.078995 120.647649 
L 343.400047 133.026784 
L 345.392679 141.690952 
L 353.363205 178.225511 
L 360.00531 208.711986 
L 362.662152 220.466455 
L 365.318994 231.070572 
L 368.640047 243.171048 
L 371.296889 252.337008 
L 377.938994 273.559893 
L 379.267415 277.186902 
L 381.260046 281.739815 
L 383.916888 287.734975 
L 386.57373 294.011856 
L 388.566362 298.107962 
L 391.887414 304.15792 
L 397.201098 313.381534 
L 399.857941 317.660759 
L 401.850572 320.498779 
L 403.178993 322.144712 
L 404.507414 323.529447 
L 406.500046 325.187551 
L 409.821098 327.888044 
L 412.47794 329.972165 
L 414.470572 331.241232 
L 416.463203 332.191747 
L 423.105308 334.625247 
L 425.76215 335.372553 
L 434.396887 337.415403 
L 443.695834 338.770717 
L 449.673729 339.225487 
L 455.651623 339.370058 
L 468.271623 339.607155 
L 478.234781 339.743059 
L 488.862149 339.789494 
L 488.862149 339.789494 
" clip-path="url(#pcb442f819e)" style="fill: none; stroke: #1f77b4; stroke-width: 1.5; stroke-linecap: square"/>
   </g>
   <g id="line2d_7">
    <path d="M 246.751708 333.968832 
L 388.492643 333.968832 
" clip-path="url(#pcb442f819e)" style="fill: none; stroke: #000000; stroke-width: 3"/>
   </g>
   <g id="patch_3">
    <path d="M 132.48 353.7216 
L 505.832727 353.7216 
" style="fill: none; stroke: #808080; stroke-width: 0.8; stroke-linejoin: miter; stroke-linecap: square"/>
   </g>
   <g id="text_6">
    <!-- 0.046  -->
    <g transform="translate(199.042333 319.362912) scale(0.15 -0.15)">
     <defs>
      <path id="DejaVuSans-20" transform="scale(0.015625)"/>
     </defs>
     <use xlink:href="#DejaVuSans-30"/>
     <use xlink:href="#DejaVuSans-2e" x="63.623047"/>
     <use xlink:href="#DejaVuSans-30" x="95.410156"/>
     <use xlink:href="#DejaVuSans-34" x="159.033203"/>
     <use xlink:href="#DejaVuSans-36" x="222.65625"/>
     <use xlink:href="#DejaVuSans-20" x="286.279297"/>
    </g>
   </g>
   <g id="text_7">
    <!--  0.055 -->
    <g transform="translate(388.492643 319.362912) scale(0.15 -0.15)">
     <use xlink:href="#DejaVuSans-20"/>
     <use xlink:href="#DejaVuSans-30" x="31.787109"/>
     <use xlink:href="#DejaVuSans-2e" x="95.410156"/>
     <use xlink:href="#DejaVuSans-30" x="127.197266"/>
     <use xlink:href="#DejaVuSans-35" x="190.820312"/>
     <use xlink:href="#DejaVuSans-35" x="254.443359"/>
    </g>
   </g>
   <g id="text_8">
    <!-- 95% HDI -->
    <g transform="translate(284.940926 252.17568) scale(0.15 -0.15)">
     <defs>
      <path id="DejaVuSans-39" d="M 703 97 
L 703 672 
Q 941 559 1184 500 
Q 1428 441 1663 441 
Q 2288 441 2617 861 
Q 2947 1281 2994 2138 
Q 2813 1869 2534 1725 
Q 2256 1581 1919 1581 
Q 1219 1581 811 2004 
Q 403 2428 403 3163 
Q 403 3881 828 4315 
Q 1253 4750 1959 4750 
Q 2769 4750 3195 4129 
Q 3622 3509 3622 2328 
Q 3622 1225 3098 567 
Q 2575 -91 1691 -91 
Q 1453 -91 1209 -44 
Q 966 3 703 97 
z
M 1959 2075 
Q 2384 2075 2632 2365 
Q 2881 2656 2881 3163 
Q 2881 3666 2632 3958 
Q 2384 4250 1959 4250 
Q 1534 4250 1286 3958 
Q 1038 3666 1038 3163 
Q 1038 2656 1286 2365 
Q 1534 2075 1959 2075 
z
" transform="scale(0.015625)"/>
      <path id="DejaVuSans-25" d="M 4653 2053 
Q 4381 2053 4226 1822 
Q 4072 1591 4072 1178 
Q 4072 772 4226 539 
Q 4381 306 4653 306 
Q 4919 306 5073 539 
Q 5228 772 5228 1178 
Q 5228 1588 5073 1820 
Q 4919 2053 4653 2053 
z
M 4653 2450 
Q 5147 2450 5437 2106 
Q 5728 1763 5728 1178 
Q 5728 594 5436 251 
Q 5144 -91 4653 -91 
Q 4153 -91 3862 251 
Q 3572 594 3572 1178 
Q 3572 1766 3864 2108 
Q 4156 2450 4653 2450 
z
M 1428 4353 
Q 1159 4353 1004 4120 
Q 850 3888 850 3481 
Q 850 3069 1003 2837 
Q 1156 2606 1428 2606 
Q 1700 2606 1854 2837 
Q 2009 3069 2009 3481 
Q 2009 3884 1853 4118 
Q 1697 4353 1428 4353 
z
M 4250 4750 
L 4750 4750 
L 1831 -91 
L 1331 -91 
L 4250 4750 
z
M 1428 4750 
Q 1922 4750 2215 4408 
Q 2509 4066 2509 3481 
Q 2509 2891 2217 2550 
Q 1925 2209 1428 2209 
Q 931 2209 642 2551 
Q 353 2894 353 3481 
Q 353 4063 643 4406 
Q 934 4750 1428 4750 
z
" transform="scale(0.015625)"/>
      <path id="DejaVuSans-48" d="M 628 4666 
L 1259 4666 
L 1259 2753 
L 3553 2753 
L 3553 4666 
L 4184 4666 
L 4184 0 
L 3553 0 
L 3553 2222 
L 1259 2222 
L 1259 0 
L 628 0 
L 628 4666 
z
" transform="scale(0.015625)"/>
      <path id="DejaVuSans-44" d="M 1259 4147 
L 1259 519 
L 2022 519 
Q 2988 519 3436 956 
Q 3884 1394 3884 2338 
Q 3884 3275 3436 3711 
Q 2988 4147 2022 4147 
L 1259 4147 
z
M 628 4666 
L 1925 4666 
Q 3281 4666 3915 4102 
Q 4550 3538 4550 2338 
Q 4550 1131 3912 565 
Q 3275 0 1925 0 
L 628 0 
L 628 4666 
z
" transform="scale(0.015625)"/>
      <path id="DejaVuSans-49" d="M 628 4666 
L 1259 4666 
L 1259 0 
L 628 0 
L 628 4666 
z
" transform="scale(0.015625)"/>
     </defs>
     <use xlink:href="#DejaVuSans-39"/>
     <use xlink:href="#DejaVuSans-35" x="63.623047"/>
     <use xlink:href="#DejaVuSans-25" x="127.246094"/>
     <use xlink:href="#DejaVuSans-20" x="222.265625"/>
     <use xlink:href="#DejaVuSans-48" x="254.052734"/>
     <use xlink:href="#DejaVuSans-44" x="329.248047"/>
     <use xlink:href="#DejaVuSans-49" x="406.25"/>
    </g>
   </g>
   <g id="text_9">
    <!-- mean=0.05 -->
    <g transform="translate(272.860172 106.11648) scale(0.15 -0.15)">
     <defs>
      <path id="DejaVuSans-6d" d="M 3328 2828 
Q 3544 3216 3844 3400 
Q 4144 3584 4550 3584 
Q 5097 3584 5394 3201 
Q 5691 2819 5691 2113 
L 5691 0 
L 5113 0 
L 5113 2094 
Q 5113 2597 4934 2840 
Q 4756 3084 4391 3084 
Q 3944 3084 3684 2787 
Q 3425 2491 3425 1978 
L 3425 0 
L 2847 0 
L 2847 2094 
Q 2847 2600 2669 2842 
Q 2491 3084 2119 3084 
Q 1678 3084 1418 2786 
Q 1159 2488 1159 1978 
L 1159 0 
L 581 0 
L 581 3500 
L 1159 3500 
L 1159 2956 
Q 1356 3278 1631 3431 
Q 1906 3584 2284 3584 
Q 2666 3584 2933 3390 
Q 3200 3197 3328 2828 
z
" transform="scale(0.015625)"/>
      <path id="DejaVuSans-65" d="M 3597 1894 
L 3597 1613 
L 953 1613 
Q 991 1019 1311 708 
Q 1631 397 2203 397 
Q 2534 397 2845 478 
Q 3156 559 3463 722 
L 3463 178 
Q 3153 47 2828 -22 
Q 2503 -91 2169 -91 
Q 1331 -91 842 396 
Q 353 884 353 1716 
Q 353 2575 817 3079 
Q 1281 3584 2069 3584 
Q 2775 3584 3186 3129 
Q 3597 2675 3597 1894 
z
M 3022 2063 
Q 3016 2534 2758 2815 
Q 2500 3097 2075 3097 
Q 1594 3097 1305 2825 
Q 1016 2553 972 2059 
L 3022 2063 
z
" transform="scale(0.015625)"/>
      <path id="DejaVuSans-61" d="M 2194 1759 
Q 1497 1759 1228 1600 
Q 959 1441 959 1056 
Q 959 750 1161 570 
Q 1363 391 1709 391 
Q 2188 391 2477 730 
Q 2766 1069 2766 1631 
L 2766 1759 
L 2194 1759 
z
M 3341 1997 
L 3341 0 
L 2766 0 
L 2766 531 
Q 2569 213 2275 61 
Q 1981 -91 1556 -91 
Q 1019 -91 701 211 
Q 384 513 384 1019 
Q 384 1609 779 1909 
Q 1175 2209 1959 2209 
L 2766 2209 
L 2766 2266 
Q 2766 2663 2505 2880 
Q 2244 3097 1772 3097 
Q 1472 3097 1187 3025 
Q 903 2953 641 2809 
L 641 3341 
Q 956 3463 1253 3523 
Q 1550 3584 1831 3584 
Q 2591 3584 2966 3190 
Q 3341 2797 3341 1997 
z
" transform="scale(0.015625)"/>
      <path id="DejaVuSans-6e" d="M 3513 2113 
L 3513 0 
L 2938 0 
L 2938 2094 
Q 2938 2591 2744 2837 
Q 2550 3084 2163 3084 
Q 1697 3084 1428 2787 
Q 1159 2491 1159 1978 
L 1159 0 
L 581 0 
L 581 3500 
L 1159 3500 
L 1159 2956 
Q 1366 3272 1645 3428 
Q 1925 3584 2291 3584 
Q 2894 3584 3203 3211 
Q 3513 2838 3513 2113 
z
" transform="scale(0.015625)"/>
      <path id="DejaVuSans-3d" d="M 678 2906 
L 4684 2906 
L 4684 2381 
L 678 2381 
L 678 2906 
z
M 678 1631 
L 4684 1631 
L 4684 1100 
L 678 1100 
L 678 1631 
z
" transform="scale(0.015625)"/>
     </defs>
     <use xlink:href="#DejaVuSans-6d"/>
     <use xlink:href="#DejaVuSans-65" x="97.412109"/>
     <use xlink:href="#DejaVuSans-61" x="158.935547"/>
     <use xlink:href="#DejaVuSans-6e" x="220.214844"/>
     <use xlink:href="#DejaVuSans-3d" x="283.59375"/>
     <use xlink:href="#DejaVuSans-30" x="367.382812"/>
     <use xlink:href="#DejaVuSans-2e" x="431.005859"/>
     <use xlink:href="#DejaVuSans-30" x="462.792969"/>
     <use xlink:href="#DejaVuSans-35" x="526.416016"/>
    </g>
   </g>
   <g id="text_10">
    <!-- θ -->
    <g transform="translate(314.261364 41.6928) scale(0.16 -0.16)">
     <defs>
      <path id="DejaVuSans-3b8" d="M 2953 2219 
L 963 2219 
Q 1009 1284 1225 888 
Q 1494 400 1959 400 
Q 2428 400 2688 891 
Q 2916 1322 2953 2219 
z
M 2944 2750 
Q 2856 3638 2688 3950 
Q 2419 4444 1959 4444 
Q 1481 4444 1228 3956 
Q 1028 3563 969 2750 
L 2944 2750 
z
M 1959 4913 
Q 2709 4913 3138 4250 
Q 3566 3591 3566 2422 
Q 3566 1256 3138 594 
Q 2709 -72 1959 -72 
Q 1206 -72 781 594 
Q 353 1256 353 2422 
Q 353 3591 781 4250 
Q 1206 4913 1959 4913 
z
" transform="scale(0.015625)"/>
     </defs>
     <use xlink:href="#DejaVuSans-3b8"/>
    </g>
   </g>
  </g>
  <g id="axes_2">
   <g id="patch_4">
    <path d="M 580.503273 353.7216 
L 953.856 353.7216 
L 953.856 47.6928 
L 580.503273 47.6928 
z
" style="fill: #ffffff"/>
   </g>
   <g id="PolyCollection_2">
    <defs>
     <path id="m608869650a" d="M 597.473851 -57.6288 
L 597.473851 -57.649747 
L 598.138062 -57.649787 
L 598.802272 -57.649913 
L 599.466483 -57.650161 
L 600.130693 -57.650529 
L 600.794904 -57.65086 
L 601.459114 -57.651102 
L 602.123325 -57.651003 
L 602.787535 -57.650591 
L 603.451746 -57.650045 
L 604.115956 -57.649634 
L 604.780167 -57.649582 
L 605.444377 -57.65015 
L 606.108588 -57.651526 
L 606.772798 -57.653848 
L 607.437009 -57.656758 
L 608.101219 -57.660352 
L 608.76543 -57.66451 
L 609.42964 -57.66908 
L 610.093851 -57.674042 
L 610.758061 -57.679132 
L 611.422272 -57.683955 
L 612.086482 -57.687981 
L 612.750693 -57.690637 
L 613.414903 -57.691586 
L 614.079114 -57.690521 
L 614.743324 -57.687639 
L 615.407535 -57.683563 
L 616.071745 -57.679334 
L 616.735956 -57.676192 
L 617.400167 -57.674999 
L 618.064377 -57.676689 
L 618.728588 -57.681278 
L 619.392798 -57.688851 
L 620.057009 -57.698718 
L 620.721219 -57.709892 
L 621.38543 -57.721592 
L 622.04964 -57.733587 
L 622.713851 -57.74566 
L 623.378061 -57.757673 
L 624.042272 -57.770127 
L 624.706482 -57.783785 
L 625.370693 -57.798347 
L 626.034903 -57.814941 
L 626.699114 -57.833144 
L 627.363324 -57.853096 
L 628.027535 -57.875235 
L 628.691745 -57.898893 
L 629.355956 -57.924467 
L 630.020166 -57.951595 
L 630.684377 -57.980026 
L 631.348587 -58.009224 
L 632.012798 -58.039815 
L 632.677008 -58.071969 
L 633.341219 -58.10622 
L 634.005429 -58.141903 
L 634.66964 -58.179326 
L 635.33385 -58.217318 
L 635.998061 -58.254527 
L 636.662271 -58.290919 
L 637.326482 -58.325889 
L 637.990692 -58.360334 
L 638.654903 -58.396051 
L 639.319113 -58.435002 
L 639.983324 -58.478811 
L 640.647534 -58.527838 
L 641.311745 -58.583139 
L 641.975955 -58.643862 
L 642.640166 -58.710024 
L 643.304376 -58.781957 
L 643.968587 -58.857811 
L 644.632797 -58.937859 
L 645.297008 -59.021045 
L 645.961218 -59.1059 
L 646.625429 -59.191648 
L 647.289639 -59.276854 
L 647.95385 -59.363374 
L 648.61806 -59.453906 
L 649.282271 -59.549732 
L 649.946481 -59.656231 
L 650.610692 -59.775951 
L 651.274902 -59.909774 
L 651.939113 -60.057162 
L 652.603324 -60.215008 
L 653.267534 -60.380449 
L 653.931745 -60.550045 
L 654.595955 -60.724577 
L 655.260166 -60.906747 
L 655.924376 -61.101112 
L 656.588587 -61.311754 
L 657.252797 -61.538289 
L 657.917008 -61.778858 
L 658.581218 -62.027539 
L 659.245429 -62.278088 
L 659.909639 -62.525307 
L 660.57385 -62.772913 
L 661.23806 -63.0276 
L 661.902271 -63.300368 
L 662.566481 -63.600736 
L 663.230692 -63.937242 
L 663.894902 -64.310033 
L 664.559113 -64.711825 
L 665.223323 -65.129667 
L 665.887534 -65.549884 
L 666.551744 -65.962558 
L 667.215955 -66.362118 
L 667.880165 -66.75098 
L 668.544376 -67.140179 
L 669.208586 -67.54101 
L 669.872797 -67.969327 
L 670.537007 -68.432888 
L 671.201218 -68.938868 
L 671.865428 -69.484487 
L 672.529639 -70.064957 
L 673.193849 -70.678087 
L 673.85806 -71.318009 
L 674.52227 -71.982953 
L 675.186481 -72.6681 
L 675.850691 -73.372001 
L 676.514902 -74.091711 
L 677.179112 -74.826372 
L 677.843323 -75.573522 
L 678.507533 -76.340426 
L 679.171744 -77.130869 
L 679.835954 -77.954382 
L 680.500165 -78.820662 
L 681.164375 -79.730271 
L 681.828586 -80.678294 
L 682.492796 -81.654306 
L 683.157007 -82.647615 
L 683.821217 -83.643622 
L 684.485428 -84.635141 
L 685.149638 -85.626509 
L 685.813849 -86.628195 
L 686.478059 -87.669953 
L 687.14227 -88.770287 
L 687.806481 -89.944266 
L 688.470691 -91.201183 
L 689.134902 -92.540132 
L 689.799112 -93.946209 
L 690.463323 -95.402021 
L 691.127533 -96.889779 
L 691.791744 -98.386578 
L 692.455954 -99.885263 
L 693.120165 -101.374387 
L 693.784375 -102.866324 
L 694.448586 -104.366016 
L 695.112796 -105.89136 
L 695.777007 -107.460968 
L 696.441217 -109.086411 
L 697.105428 -110.767739 
L 697.769638 -112.491376 
L 698.433849 -114.256153 
L 699.098059 -116.058503 
L 699.76227 -117.909255 
L 700.42648 -119.831555 
L 701.090691 -121.84022 
L 701.754901 -123.957168 
L 702.419112 -126.178447 
L 703.083322 -128.487573 
L 703.747533 -130.848419 
L 704.411743 -133.233572 
L 705.075954 -135.600622 
L 705.740164 -137.934233 
L 706.404375 -140.238652 
L 707.068585 -142.519307 
L 707.732796 -144.80729 
L 708.397006 -147.122834 
L 709.061217 -149.492996 
L 709.725427 -151.928028 
L 710.389638 -154.419936 
L 711.053848 -156.954252 
L 711.718059 -159.522591 
L 712.382269 -162.126102 
L 713.04648 -164.773651 
L 713.71069 -167.494099 
L 714.374901 -170.299697 
L 715.039111 -173.211937 
L 715.703322 -176.216028 
L 716.367532 -179.293493 
L 717.031743 -182.393603 
L 717.695953 -185.485032 
L 718.360164 -188.550329 
L 719.024374 -191.577096 
L 719.688585 -194.58528 
L 720.352795 -197.581524 
L 721.017006 -200.580485 
L 721.681216 -203.593118 
L 722.345427 -206.603452 
L 723.009637 -209.611524 
L 723.673848 -212.615044 
L 724.338059 -215.606948 
L 725.002269 -218.6013 
L 725.66648 -221.605871 
L 726.33069 -224.627472 
L 726.994901 -227.684818 
L 727.659111 -230.782405 
L 728.323322 -233.93161 
L 728.987532 -237.130828 
L 729.651743 -240.351912 
L 730.315953 -243.587321 
L 730.980164 -246.78582 
L 731.644374 -249.926928 
L 732.308585 -252.971446 
L 732.972795 -255.919428 
L 733.637006 -258.79493 
L 734.301216 -261.625718 
L 734.965427 -264.437147 
L 735.629637 -267.262158 
L 736.293848 -270.103748 
L 736.958058 -272.978714 
L 737.622269 -275.864644 
L 738.286479 -278.770074 
L 738.95069 -281.691125 
L 739.6149 -284.619966 
L 740.279111 -287.527958 
L 740.943321 -290.380428 
L 741.607532 -293.113304 
L 742.271742 -295.686141 
L 742.935953 -298.040464 
L 743.600163 -300.182578 
L 744.264374 -302.133142 
L 744.928584 -303.936577 
L 745.592795 -305.651837 
L 746.257005 -307.340358 
L 746.921216 -309.045131 
L 747.585426 -310.776983 
L 748.249637 -312.529049 
L 748.913847 -314.272908 
L 749.578058 -315.986076 
L 750.242268 -317.62798 
L 750.906479 -319.176502 
L 751.570689 -320.628729 
L 752.2349 -322.011364 
L 752.89911 -323.33923 
L 753.563321 -324.64761 
L 754.227531 -325.970467 
L 754.891742 -327.324026 
L 755.555952 -328.698516 
L 756.220163 -330.08475 
L 756.884373 -331.435869 
L 757.548584 -332.715431 
L 758.212794 -333.837492 
L 758.877005 -334.739371 
L 759.541216 -335.380329 
L 760.205426 -335.742167 
L 760.869637 -335.8368 
L 761.533847 -335.72957 
L 762.198058 -335.481601 
L 762.862268 -335.151482 
L 763.526479 -334.782647 
L 764.190689 -334.376285 
L 764.8549 -333.92609 
L 765.51911 -333.429963 
L 766.183321 -332.896347 
L 766.847531 -332.3471 
L 767.511742 -331.824667 
L 768.175952 -331.348458 
L 768.840163 -330.905467 
L 769.504373 -330.45767 
L 770.168584 -329.942873 
L 770.832794 -329.2831 
L 771.497005 -328.423371 
L 772.161215 -327.337146 
L 772.825426 -326.033563 
L 773.489636 -324.541547 
L 774.153847 -322.909423 
L 774.818057 -321.184719 
L 775.482268 -319.411177 
L 776.146478 -317.620487 
L 776.810689 -315.826254 
L 777.474899 -314.025956 
L 778.13911 -312.191804 
L 778.80332 -310.300185 
L 779.467531 -308.316016 
L 780.131741 -306.204757 
L 780.795952 -303.956983 
L 781.460162 -301.570989 
L 782.124373 -299.061496 
L 782.788583 -296.45148 
L 783.452794 -293.768172 
L 784.117004 -291.029374 
L 784.781215 -288.253647 
L 785.445425 -285.45942 
L 786.109636 -282.655612 
L 786.773846 -279.859584 
L 787.438057 -277.07907 
L 788.102267 -274.312028 
L 788.766478 -271.557105 
L 789.430688 -268.813244 
L 790.094899 -266.054324 
L 790.759109 -263.276761 
L 791.42332 -260.481853 
L 792.08753 -257.665181 
L 792.751741 -254.835071 
L 793.415951 -251.99328 
L 794.080162 -249.143916 
L 794.744372 -246.282918 
L 795.408583 -243.392564 
L 796.072794 -240.479374 
L 796.737004 -237.529011 
L 797.401215 -234.545345 
L 798.065425 -231.52782 
L 798.729636 -228.483571 
L 799.393846 -225.410321 
L 800.058057 -222.306007 
L 800.722267 -219.173551 
L 801.386478 -216.009476 
L 802.050688 -212.827627 
L 802.714899 -209.65675 
L 803.379109 -206.505897 
L 804.04332 -203.396738 
L 804.70753 -200.339354 
L 805.371741 -197.329417 
L 806.035951 -194.365455 
L 806.700162 -191.44054 
L 807.364372 -188.549273 
L 808.028583 -185.700379 
L 808.692793 -182.894355 
L 809.357004 -180.126595 
L 810.021214 -177.39265 
L 810.685425 -174.677501 
L 811.349635 -171.968045 
L 812.013846 -169.250827 
L 812.678056 -166.520318 
L 813.342267 -163.792046 
L 814.006477 -161.07294 
L 814.670688 -158.381992 
L 815.334898 -155.726946 
L 815.999109 -153.121596 
L 816.663319 -150.571897 
L 817.32753 -148.069005 
L 817.99174 -145.623681 
L 818.655951 -143.231341 
L 819.320161 -140.901741 
L 819.984372 -138.630685 
L 820.648582 -136.423272 
L 821.312793 -134.274604 
L 821.977003 -132.179049 
L 822.641214 -130.120697 
L 823.305424 -128.090758 
L 823.969635 -126.071904 
L 824.633845 -124.052958 
L 825.298056 -122.038963 
L 825.962266 -120.037899 
L 826.626477 -118.068733 
L 827.290687 -116.151539 
L 827.954898 -114.29521 
L 828.619108 -112.511572 
L 829.283319 -110.796453 
L 829.947529 -109.149012 
L 830.61174 -107.550819 
L 831.275951 -105.988907 
L 831.940161 -104.453893 
L 832.604372 -102.93724 
L 833.268582 -101.42866 
L 833.932793 -99.919128 
L 834.597003 -98.419022 
L 835.261214 -96.932732 
L 835.925424 -95.472734 
L 836.589635 -94.048874 
L 837.253845 -92.665672 
L 837.918056 -91.328631 
L 838.582266 -90.034022 
L 839.246477 -88.772877 
L 839.910687 -87.543988 
L 840.574898 -86.347977 
L 841.239108 -85.190256 
L 841.903319 -84.076452 
L 842.567529 -83.008142 
L 843.23174 -81.988356 
L 843.89595 -81.020135 
L 844.560161 -80.097247 
L 845.224371 -79.221851 
L 845.888582 -78.387297 
L 846.552792 -77.582363 
L 847.217003 -76.791971 
L 847.881213 -76.006334 
L 848.545424 -75.217471 
L 849.209634 -74.421939 
L 849.873845 -73.633722 
L 850.538055 -72.868491 
L 851.202266 -72.145548 
L 851.866476 -71.477957 
L 852.530687 -70.867937 
L 853.194897 -70.316311 
L 853.859108 -69.813 
L 854.523318 -69.344136 
L 855.187529 -68.903491 
L 855.851739 -68.483011 
L 856.51595 -68.076799 
L 857.18016 -67.68395 
L 857.844371 -67.302755 
L 858.508581 -66.930339 
L 859.172792 -66.565542 
L 859.837002 -66.202856 
L 860.501213 -65.84051 
L 861.165423 -65.474044 
L 861.829634 -65.105628 
L 862.493844 -64.735739 
L 863.158055 -64.36632 
L 863.822265 -64.002778 
L 864.486476 -63.647225 
L 865.150686 -63.302239 
L 865.814897 -62.969926 
L 866.479108 -62.651371 
L 867.143318 -62.352793 
L 867.807529 -62.075652 
L 868.471739 -61.824937 
L 869.13595 -61.602933 
L 869.80016 -61.405036 
L 870.464371 -61.227783 
L 871.128581 -61.065316 
L 871.792792 -60.911181 
L 872.457002 -60.758448 
L 873.121213 -60.605753 
L 873.785423 -60.452658 
L 874.449634 -60.302324 
L 875.113844 -60.157375 
L 875.778055 -60.02164 
L 876.442265 -59.895313 
L 877.106476 -59.777781 
L 877.770686 -59.665709 
L 878.434897 -59.553377 
L 879.099107 -59.43785 
L 879.763318 -59.318245 
L 880.427528 -59.195308 
L 881.091739 -59.075171 
L 881.755949 -58.962892 
L 882.42016 -58.864763 
L 883.08437 -58.781485 
L 883.748581 -58.713525 
L 884.412791 -58.657287 
L 885.077002 -58.608411 
L 885.741212 -58.562165 
L 886.405423 -58.516713 
L 887.069633 -58.471019 
L 887.733844 -58.425915 
L 888.398054 -58.383185 
L 889.062265 -58.344092 
L 889.726475 -58.309363 
L 890.390686 -58.27863 
L 891.054896 -58.251841 
L 891.719107 -58.226975 
L 892.383317 -58.202938 
L 893.047528 -58.179341 
L 893.711738 -58.154742 
L 894.375949 -58.12976 
L 895.040159 -58.105046 
L 895.70437 -58.080667 
L 896.36858 -58.057579 
L 897.032791 -58.035254 
L 897.697001 -58.013091 
L 898.361212 -57.990014 
L 899.025422 -57.964872 
L 899.689633 -57.936979 
L 900.353843 -57.906909 
L 901.018054 -57.875686 
L 901.682264 -57.844956 
L 902.346475 -57.816781 
L 903.010686 -57.79212 
L 903.674896 -57.771774 
L 904.339107 -57.755988 
L 905.003317 -57.744431 
L 905.667528 -57.736444 
L 906.331738 -57.731366 
L 906.995949 -57.728288 
L 907.660159 -57.726497 
L 908.32437 -57.725069 
L 908.98858 -57.722824 
L 909.652791 -57.71934 
L 910.317001 -57.714269 
L 910.981212 -57.707964 
L 911.645422 -57.701 
L 912.309633 -57.69391 
L 912.973843 -57.687263 
L 913.638054 -57.681292 
L 914.302264 -57.676104 
L 914.966475 -57.671459 
L 915.630685 -57.667326 
L 916.294896 -57.66372 
L 916.959106 -57.660563 
L 917.623317 -57.657954 
L 918.287527 -57.655665 
L 918.951738 -57.653838 
L 919.615948 -57.652101 
L 920.280159 -57.650228 
L 920.944369 -57.648323 
L 921.60858 -57.646213 
L 922.27279 -57.644094 
L 922.937001 -57.642244 
L 923.601211 -57.640847 
L 924.265422 -57.639949 
L 924.929632 -57.639589 
L 925.593843 -57.639531 
L 926.258053 -57.639458 
L 926.922264 -57.639247 
L 927.586474 -57.638625 
L 928.250685 -57.637629 
L 928.914895 -57.636259 
L 929.579106 -57.634884 
L 930.243316 -57.633699 
L 930.907527 -57.632933 
L 931.571737 -57.632717 
L 932.235948 -57.633163 
L 932.900158 -57.634321 
L 933.564369 -57.636008 
L 934.228579 -57.638146 
L 934.89279 -57.640447 
L 935.557 -57.642618 
L 936.221211 -57.644452 
L 936.885421 -57.645658 
L 936.885421 -57.6288 
L 936.885421 -57.6288 
L 936.221211 -57.6288 
L 935.557 -57.6288 
L 934.89279 -57.6288 
L 934.228579 -57.6288 
L 933.564369 -57.6288 
L 932.900158 -57.6288 
L 932.235948 -57.6288 
L 931.571737 -57.6288 
L 930.907527 -57.6288 
L 930.243316 -57.6288 
L 929.579106 -57.6288 
L 928.914895 -57.6288 
L 928.250685 -57.6288 
L 927.586474 -57.6288 
L 926.922264 -57.6288 
L 926.258053 -57.6288 
L 925.593843 -57.6288 
L 924.929632 -57.6288 
L 924.265422 -57.6288 
L 923.601211 -57.6288 
L 922.937001 -57.6288 
L 922.27279 -57.6288 
L 921.60858 -57.6288 
L 920.944369 -57.6288 
L 920.280159 -57.6288 
L 919.615948 -57.6288 
L 918.951738 -57.6288 
L 918.287527 -57.6288 
L 917.623317 -57.6288 
L 916.959106 -57.6288 
L 916.294896 -57.6288 
L 915.630685 -57.6288 
L 914.966475 -57.6288 
L 914.302264 -57.6288 
L 913.638054 -57.6288 
L 912.973843 -57.6288 
L 912.309633 -57.6288 
L 911.645422 -57.6288 
L 910.981212 -57.6288 
L 910.317001 -57.6288 
L 909.652791 -57.6288 
L 908.98858 -57.6288 
L 908.32437 -57.6288 
L 907.660159 -57.6288 
L 906.995949 -57.6288 
L 906.331738 -57.6288 
L 905.667528 -57.6288 
L 905.003317 -57.6288 
L 904.339107 -57.6288 
L 903.674896 -57.6288 
L 903.010686 -57.6288 
L 902.346475 -57.6288 
L 901.682264 -57.6288 
L 901.018054 -57.6288 
L 900.353843 -57.6288 
L 899.689633 -57.6288 
L 899.025422 -57.6288 
L 898.361212 -57.6288 
L 897.697001 -57.6288 
L 897.032791 -57.6288 
L 896.36858 -57.6288 
L 895.70437 -57.6288 
L 895.040159 -57.6288 
L 894.375949 -57.6288 
L 893.711738 -57.6288 
L 893.047528 -57.6288 
L 892.383317 -57.6288 
L 891.719107 -57.6288 
L 891.054896 -57.6288 
L 890.390686 -57.6288 
L 889.726475 -57.6288 
L 889.062265 -57.6288 
L 888.398054 -57.6288 
L 887.733844 -57.6288 
L 887.069633 -57.6288 
L 886.405423 -57.6288 
L 885.741212 -57.6288 
L 885.077002 -57.6288 
L 884.412791 -57.6288 
L 883.748581 -57.6288 
L 883.08437 -57.6288 
L 882.42016 -57.6288 
L 881.755949 -57.6288 
L 881.091739 -57.6288 
L 880.427528 -57.6288 
L 879.763318 -57.6288 
L 879.099107 -57.6288 
L 878.434897 -57.6288 
L 877.770686 -57.6288 
L 877.106476 -57.6288 
L 876.442265 -57.6288 
L 875.778055 -57.6288 
L 875.113844 -57.6288 
L 874.449634 -57.6288 
L 873.785423 -57.6288 
L 873.121213 -57.6288 
L 872.457002 -57.6288 
L 871.792792 -57.6288 
L 871.128581 -57.6288 
L 870.464371 -57.6288 
L 869.80016 -57.6288 
L 869.13595 -57.6288 
L 868.471739 -57.6288 
L 867.807529 -57.6288 
L 867.143318 -57.6288 
L 866.479108 -57.6288 
L 865.814897 -57.6288 
L 865.150686 -57.6288 
L 864.486476 -57.6288 
L 863.822265 -57.6288 
L 863.158055 -57.6288 
L 862.493844 -57.6288 
L 861.829634 -57.6288 
L 861.165423 -57.6288 
L 860.501213 -57.6288 
L 859.837002 -57.6288 
L 859.172792 -57.6288 
L 858.508581 -57.6288 
L 857.844371 -57.6288 
L 857.18016 -57.6288 
L 856.51595 -57.6288 
L 855.851739 -57.6288 
L 855.187529 -57.6288 
L 854.523318 -57.6288 
L 853.859108 -57.6288 
L 853.194897 -57.6288 
L 852.530687 -57.6288 
L 851.866476 -57.6288 
L 851.202266 -57.6288 
L 850.538055 -57.6288 
L 849.873845 -57.6288 
L 849.209634 -57.6288 
L 848.545424 -57.6288 
L 847.881213 -57.6288 
L 847.217003 -57.6288 
L 846.552792 -57.6288 
L 845.888582 -57.6288 
L 845.224371 -57.6288 
L 844.560161 -57.6288 
L 843.89595 -57.6288 
L 843.23174 -57.6288 
L 842.567529 -57.6288 
L 841.903319 -57.6288 
L 841.239108 -57.6288 
L 840.574898 -57.6288 
L 839.910687 -57.6288 
L 839.246477 -57.6288 
L 838.582266 -57.6288 
L 837.918056 -57.6288 
L 837.253845 -57.6288 
L 836.589635 -57.6288 
L 835.925424 -57.6288 
L 835.261214 -57.6288 
L 834.597003 -57.6288 
L 833.932793 -57.6288 
L 833.268582 -57.6288 
L 832.604372 -57.6288 
L 831.940161 -57.6288 
L 831.275951 -57.6288 
L 830.61174 -57.6288 
L 829.947529 -57.6288 
L 829.283319 -57.6288 
L 828.619108 -57.6288 
L 827.954898 -57.6288 
L 827.290687 -57.6288 
L 826.626477 -57.6288 
L 825.962266 -57.6288 
L 825.298056 -57.6288 
L 824.633845 -57.6288 
L 823.969635 -57.6288 
L 823.305424 -57.6288 
L 822.641214 -57.6288 
L 821.977003 -57.6288 
L 821.312793 -57.6288 
L 820.648582 -57.6288 
L 819.984372 -57.6288 
L 819.320161 -57.6288 
L 818.655951 -57.6288 
L 817.99174 -57.6288 
L 817.32753 -57.6288 
L 816.663319 -57.6288 
L 815.999109 -57.6288 
L 815.334898 -57.6288 
L 814.670688 -57.6288 
L 814.006477 -57.6288 
L 813.342267 -57.6288 
L 812.678056 -57.6288 
L 812.013846 -57.6288 
L 811.349635 -57.6288 
L 810.685425 -57.6288 
L 810.021214 -57.6288 
L 809.357004 -57.6288 
L 808.692793 -57.6288 
L 808.028583 -57.6288 
L 807.364372 -57.6288 
L 806.700162 -57.6288 
L 806.035951 -57.6288 
L 805.371741 -57.6288 
L 804.70753 -57.6288 
L 804.04332 -57.6288 
L 803.379109 -57.6288 
L 802.714899 -57.6288 
L 802.050688 -57.6288 
L 801.386478 -57.6288 
L 800.722267 -57.6288 
L 800.058057 -57.6288 
L 799.393846 -57.6288 
L 798.729636 -57.6288 
L 798.065425 -57.6288 
L 797.401215 -57.6288 
L 796.737004 -57.6288 
L 796.072794 -57.6288 
L 795.408583 -57.6288 
L 794.744372 -57.6288 
L 794.080162 -57.6288 
L 793.415951 -57.6288 
L 792.751741 -57.6288 
L 792.08753 -57.6288 
L 791.42332 -57.6288 
L 790.759109 -57.6288 
L 790.094899 -57.6288 
L 789.430688 -57.6288 
L 788.766478 -57.6288 
L 788.102267 -57.6288 
L 787.438057 -57.6288 
L 786.773846 -57.6288 
L 786.109636 -57.6288 
L 785.445425 -57.6288 
L 784.781215 -57.6288 
L 784.117004 -57.6288 
L 783.452794 -57.6288 
L 782.788583 -57.6288 
L 782.124373 -57.6288 
L 781.460162 -57.6288 
L 780.795952 -57.6288 
L 780.131741 -57.6288 
L 779.467531 -57.6288 
L 778.80332 -57.6288 
L 778.13911 -57.6288 
L 777.474899 -57.6288 
L 776.810689 -57.6288 
L 776.146478 -57.6288 
L 775.482268 -57.6288 
L 774.818057 -57.6288 
L 774.153847 -57.6288 
L 773.489636 -57.6288 
L 772.825426 -57.6288 
L 772.161215 -57.6288 
L 771.497005 -57.6288 
L 770.832794 -57.6288 
L 770.168584 -57.6288 
L 769.504373 -57.6288 
L 768.840163 -57.6288 
L 768.175952 -57.6288 
L 767.511742 -57.6288 
L 766.847531 -57.6288 
L 766.183321 -57.6288 
L 765.51911 -57.6288 
L 764.8549 -57.6288 
L 764.190689 -57.6288 
L 763.526479 -57.6288 
L 762.862268 -57.6288 
L 762.198058 -57.6288 
L 761.533847 -57.6288 
L 760.869637 -57.6288 
L 760.205426 -57.6288 
L 759.541216 -57.6288 
L 758.877005 -57.6288 
L 758.212794 -57.6288 
L 757.548584 -57.6288 
L 756.884373 -57.6288 
L 756.220163 -57.6288 
L 755.555952 -57.6288 
L 754.891742 -57.6288 
L 754.227531 -57.6288 
L 753.563321 -57.6288 
L 752.89911 -57.6288 
L 752.2349 -57.6288 
L 751.570689 -57.6288 
L 750.906479 -57.6288 
L 750.242268 -57.6288 
L 749.578058 -57.6288 
L 748.913847 -57.6288 
L 748.249637 -57.6288 
L 747.585426 -57.6288 
L 746.921216 -57.6288 
L 746.257005 -57.6288 
L 745.592795 -57.6288 
L 744.928584 -57.6288 
L 744.264374 -57.6288 
L 743.600163 -57.6288 
L 742.935953 -57.6288 
L 742.271742 -57.6288 
L 741.607532 -57.6288 
L 740.943321 -57.6288 
L 740.279111 -57.6288 
L 739.6149 -57.6288 
L 738.95069 -57.6288 
L 738.286479 -57.6288 
L 737.622269 -57.6288 
L 736.958058 -57.6288 
L 736.293848 -57.6288 
L 735.629637 -57.6288 
L 734.965427 -57.6288 
L 734.301216 -57.6288 
L 733.637006 -57.6288 
L 732.972795 -57.6288 
L 732.308585 -57.6288 
L 731.644374 -57.6288 
L 730.980164 -57.6288 
L 730.315953 -57.6288 
L 729.651743 -57.6288 
L 728.987532 -57.6288 
L 728.323322 -57.6288 
L 727.659111 -57.6288 
L 726.994901 -57.6288 
L 726.33069 -57.6288 
L 725.66648 -57.6288 
L 725.002269 -57.6288 
L 724.338059 -57.6288 
L 723.673848 -57.6288 
L 723.009637 -57.6288 
L 722.345427 -57.6288 
L 721.681216 -57.6288 
L 721.017006 -57.6288 
L 720.352795 -57.6288 
L 719.688585 -57.6288 
L 719.024374 -57.6288 
L 718.360164 -57.6288 
L 717.695953 -57.6288 
L 717.031743 -57.6288 
L 716.367532 -57.6288 
L 715.703322 -57.6288 
L 715.039111 -57.6288 
L 714.374901 -57.6288 
L 713.71069 -57.6288 
L 713.04648 -57.6288 
L 712.382269 -57.6288 
L 711.718059 -57.6288 
L 711.053848 -57.6288 
L 710.389638 -57.6288 
L 709.725427 -57.6288 
L 709.061217 -57.6288 
L 708.397006 -57.6288 
L 707.732796 -57.6288 
L 707.068585 -57.6288 
L 706.404375 -57.6288 
L 705.740164 -57.6288 
L 705.075954 -57.6288 
L 704.411743 -57.6288 
L 703.747533 -57.6288 
L 703.083322 -57.6288 
L 702.419112 -57.6288 
L 701.754901 -57.6288 
L 701.090691 -57.6288 
L 700.42648 -57.6288 
L 699.76227 -57.6288 
L 699.098059 -57.6288 
L 698.433849 -57.6288 
L 697.769638 -57.6288 
L 697.105428 -57.6288 
L 696.441217 -57.6288 
L 695.777007 -57.6288 
L 695.112796 -57.6288 
L 694.448586 -57.6288 
L 693.784375 -57.6288 
L 693.120165 -57.6288 
L 692.455954 -57.6288 
L 691.791744 -57.6288 
L 691.127533 -57.6288 
L 690.463323 -57.6288 
L 689.799112 -57.6288 
L 689.134902 -57.6288 
L 688.470691 -57.6288 
L 687.806481 -57.6288 
L 687.14227 -57.6288 
L 686.478059 -57.6288 
L 685.813849 -57.6288 
L 685.149638 -57.6288 
L 684.485428 -57.6288 
L 683.821217 -57.6288 
L 683.157007 -57.6288 
L 682.492796 -57.6288 
L 681.828586 -57.6288 
L 681.164375 -57.6288 
L 680.500165 -57.6288 
L 679.835954 -57.6288 
L 679.171744 -57.6288 
L 678.507533 -57.6288 
L 677.843323 -57.6288 
L 677.179112 -57.6288 
L 676.514902 -57.6288 
L 675.850691 -57.6288 
L 675.186481 -57.6288 
L 674.52227 -57.6288 
L 673.85806 -57.6288 
L 673.193849 -57.6288 
L 672.529639 -57.6288 
L 671.865428 -57.6288 
L 671.201218 -57.6288 
L 670.537007 -57.6288 
L 669.872797 -57.6288 
L 669.208586 -57.6288 
L 668.544376 -57.6288 
L 667.880165 -57.6288 
L 667.215955 -57.6288 
L 666.551744 -57.6288 
L 665.887534 -57.6288 
L 665.223323 -57.6288 
L 664.559113 -57.6288 
L 663.894902 -57.6288 
L 663.230692 -57.6288 
L 662.566481 -57.6288 
L 661.902271 -57.6288 
L 661.23806 -57.6288 
L 660.57385 -57.6288 
L 659.909639 -57.6288 
L 659.245429 -57.6288 
L 658.581218 -57.6288 
L 657.917008 -57.6288 
L 657.252797 -57.6288 
L 656.588587 -57.6288 
L 655.924376 -57.6288 
L 655.260166 -57.6288 
L 654.595955 -57.6288 
L 653.931745 -57.6288 
L 653.267534 -57.6288 
L 652.603324 -57.6288 
L 651.939113 -57.6288 
L 651.274902 -57.6288 
L 650.610692 -57.6288 
L 649.946481 -57.6288 
L 649.282271 -57.6288 
L 648.61806 -57.6288 
L 647.95385 -57.6288 
L 647.289639 -57.6288 
L 646.625429 -57.6288 
L 645.961218 -57.6288 
L 645.297008 -57.6288 
L 644.632797 -57.6288 
L 643.968587 -57.6288 
L 643.304376 -57.6288 
L 642.640166 -57.6288 
L 641.975955 -57.6288 
L 641.311745 -57.6288 
L 640.647534 -57.6288 
L 639.983324 -57.6288 
L 639.319113 -57.6288 
L 638.654903 -57.6288 
L 637.990692 -57.6288 
L 637.326482 -57.6288 
L 636.662271 -57.6288 
L 635.998061 -57.6288 
L 635.33385 -57.6288 
L 634.66964 -57.6288 
L 634.005429 -57.6288 
L 633.341219 -57.6288 
L 632.677008 -57.6288 
L 632.012798 -57.6288 
L 631.348587 -57.6288 
L 630.684377 -57.6288 
L 630.020166 -57.6288 
L 629.355956 -57.6288 
L 628.691745 -57.6288 
L 628.027535 -57.6288 
L 627.363324 -57.6288 
L 626.699114 -57.6288 
L 626.034903 -57.6288 
L 625.370693 -57.6288 
L 624.706482 -57.6288 
L 624.042272 -57.6288 
L 623.378061 -57.6288 
L 622.713851 -57.6288 
L 622.04964 -57.6288 
L 621.38543 -57.6288 
L 620.721219 -57.6288 
L 620.057009 -57.6288 
L 619.392798 -57.6288 
L 618.728588 -57.6288 
L 618.064377 -57.6288 
L 617.400167 -57.6288 
L 616.735956 -57.6288 
L 616.071745 -57.6288 
L 615.407535 -57.6288 
L 614.743324 -57.6288 
L 614.079114 -57.6288 
L 613.414903 -57.6288 
L 612.750693 -57.6288 
L 612.086482 -57.6288 
L 611.422272 -57.6288 
L 610.758061 -57.6288 
L 610.093851 -57.6288 
L 609.42964 -57.6288 
L 608.76543 -57.6288 
L 608.101219 -57.6288 
L 607.437009 -57.6288 
L 606.772798 -57.6288 
L 606.108588 -57.6288 
L 605.444377 -57.6288 
L 604.780167 -57.6288 
L 604.115956 -57.6288 
L 603.451746 -57.6288 
L 602.787535 -57.6288 
L 602.123325 -57.6288 
L 601.459114 -57.6288 
L 600.794904 -57.6288 
L 600.130693 -57.6288 
L 599.466483 -57.6288 
L 598.802272 -57.6288 
L 598.138062 -57.6288 
L 597.473851 -57.6288 
z
" style="stroke: #1f77b4; stroke-opacity: 0"/>
    </defs>
    <g clip-path="url(#p1cb5ec49b0)">
     <use xlink:href="#m608869650a" x="0" y="397.44" style="fill: #1f77b4; fill-opacity: 0; stroke: #1f77b4; stroke-opacity: 0"/>
    </g>
   </g>
   <g id="matplotlib.axis_3">
    <g id="xtick_6">
     <g id="line2d_8">
      <g>
       <use xlink:href="#m5ab9b9bf81" x="585.716943" y="353.7216" style="fill: #808080; stroke: #808080"/>
      </g>
     </g>
     <g id="text_11">
      <!-- 0.0485 -->
      <g transform="translate(561.223506 370.859412) scale(0.14 -0.14)">
       <defs>
        <path id="DejaVuSans-38" d="M 2034 2216 
Q 1584 2216 1326 1975 
Q 1069 1734 1069 1313 
Q 1069 891 1326 650 
Q 1584 409 2034 409 
Q 2484 409 2743 651 
Q 3003 894 3003 1313 
Q 3003 1734 2745 1975 
Q 2488 2216 2034 2216 
z
M 1403 2484 
Q 997 2584 770 2862 
Q 544 3141 544 3541 
Q 544 4100 942 4425 
Q 1341 4750 2034 4750 
Q 2731 4750 3128 4425 
Q 3525 4100 3525 3541 
Q 3525 3141 3298 2862 
Q 3072 2584 2669 2484 
Q 3125 2378 3379 2068 
Q 3634 1759 3634 1313 
Q 3634 634 3220 271 
Q 2806 -91 2034 -91 
Q 1263 -91 848 271 
Q 434 634 434 1313 
Q 434 1759 690 2068 
Q 947 2378 1403 2484 
z
M 1172 3481 
Q 1172 3119 1398 2916 
Q 1625 2713 2034 2713 
Q 2441 2713 2670 2916 
Q 2900 3119 2900 3481 
Q 2900 3844 2670 4047 
Q 2441 4250 2034 4250 
Q 1625 4250 1398 4047 
Q 1172 3844 1172 3481 
z
" transform="scale(0.015625)"/>
       </defs>
       <use xlink:href="#DejaVuSans-30"/>
       <use xlink:href="#DejaVuSans-2e" x="63.623047"/>
       <use xlink:href="#DejaVuSans-30" x="95.410156"/>
       <use xlink:href="#DejaVuSans-34" x="159.033203"/>
       <use xlink:href="#DejaVuSans-38" x="222.65625"/>
       <use xlink:href="#DejaVuSans-35" x="286.279297"/>
      </g>
     </g>
    </g>
    <g id="xtick_7">
     <g id="line2d_9">
      <g>
       <use xlink:href="#m5ab9b9bf81" x="644.636967" y="353.7216" style="fill: #808080; stroke: #808080"/>
      </g>
     </g>
     <g id="text_12">
      <!-- 0.0490 -->
      <g transform="translate(620.143529 370.859412) scale(0.14 -0.14)">
       <use xlink:href="#DejaVuSans-30"/>
       <use xlink:href="#DejaVuSans-2e" x="63.623047"/>
       <use xlink:href="#DejaVuSans-30" x="95.410156"/>
       <use xlink:href="#DejaVuSans-34" x="159.033203"/>
       <use xlink:href="#DejaVuSans-39" x="222.65625"/>
       <use xlink:href="#DejaVuSans-30" x="286.279297"/>
      </g>
     </g>
    </g>
    <g id="xtick_8">
     <g id="line2d_10">
      <g>
       <use xlink:href="#m5ab9b9bf81" x="703.55699" y="353.7216" style="fill: #808080; stroke: #808080"/>
      </g>
     </g>
     <g id="text_13">
      <!-- 0.0495 -->
      <g transform="translate(679.063553 370.859412) scale(0.14 -0.14)">
       <use xlink:href="#DejaVuSans-30"/>
       <use xlink:href="#DejaVuSans-2e" x="63.623047"/>
       <use xlink:href="#DejaVuSans-30" x="95.410156"/>
       <use xlink:href="#DejaVuSans-34" x="159.033203"/>
       <use xlink:href="#DejaVuSans-39" x="222.65625"/>
       <use xlink:href="#DejaVuSans-35" x="286.279297"/>
      </g>
     </g>
    </g>
    <g id="xtick_9">
     <g id="line2d_11">
      <g>
       <use xlink:href="#m5ab9b9bf81" x="762.477013" y="353.7216" style="fill: #808080; stroke: #808080"/>
      </g>
     </g>
     <g id="text_14">
      <!-- 0.0500 -->
      <g transform="translate(737.983576 370.859412) scale(0.14 -0.14)">
       <use xlink:href="#DejaVuSans-30"/>
       <use xlink:href="#DejaVuSans-2e" x="63.623047"/>
       <use xlink:href="#DejaVuSans-30" x="95.410156"/>
       <use xlink:href="#DejaVuSans-35" x="159.033203"/>
       <use xlink:href="#DejaVuSans-30" x="222.65625"/>
       <use xlink:href="#DejaVuSans-30" x="286.279297"/>
      </g>
     </g>
    </g>
    <g id="xtick_10">
     <g id="line2d_12">
      <g>
       <use xlink:href="#m5ab9b9bf81" x="821.397037" y="353.7216" style="fill: #808080; stroke: #808080"/>
      </g>
     </g>
     <g id="text_15">
      <!-- 0.0505 -->
      <g transform="translate(796.903599 370.859412) scale(0.14 -0.14)">
       <use xlink:href="#DejaVuSans-30"/>
       <use xlink:href="#DejaVuSans-2e" x="63.623047"/>
       <use xlink:href="#DejaVuSans-30" x="95.410156"/>
       <use xlink:href="#DejaVuSans-35" x="159.033203"/>
       <use xlink:href="#DejaVuSans-30" x="222.65625"/>
       <use xlink:href="#DejaVuSans-35" x="286.279297"/>
      </g>
     </g>
    </g>
    <g id="xtick_11">
     <g id="line2d_13">
      <g>
       <use xlink:href="#m5ab9b9bf81" x="880.31706" y="353.7216" style="fill: #808080; stroke: #808080"/>
      </g>
     </g>
     <g id="text_16">
      <!-- 0.0510 -->
      <g transform="translate(855.823623 370.859412) scale(0.14 -0.14)">
       <defs>
        <path id="DejaVuSans-31" d="M 794 531 
L 1825 531 
L 1825 4091 
L 703 3866 
L 703 4441 
L 1819 4666 
L 2450 4666 
L 2450 531 
L 3481 531 
L 3481 0 
L 794 0 
L 794 531 
z
" transform="scale(0.015625)"/>
       </defs>
       <use xlink:href="#DejaVuSans-30"/>
       <use xlink:href="#DejaVuSans-2e" x="63.623047"/>
       <use xlink:href="#DejaVuSans-30" x="95.410156"/>
       <use xlink:href="#DejaVuSans-35" x="159.033203"/>
       <use xlink:href="#DejaVuSans-31" x="222.65625"/>
       <use xlink:href="#DejaVuSans-30" x="286.279297"/>
      </g>
     </g>
    </g>
    <g id="xtick_12">
     <g id="line2d_14">
      <g>
       <use xlink:href="#m5ab9b9bf81" x="939.237083" y="353.7216" style="fill: #808080; stroke: #808080"/>
      </g>
     </g>
     <g id="text_17">
      <!-- 0.0515 -->
      <g transform="translate(914.743646 370.859412) scale(0.14 -0.14)">
       <use xlink:href="#DejaVuSans-30"/>
       <use xlink:href="#DejaVuSans-2e" x="63.623047"/>
       <use xlink:href="#DejaVuSans-30" x="95.410156"/>
       <use xlink:href="#DejaVuSans-35" x="159.033203"/>
       <use xlink:href="#DejaVuSans-31" x="222.65625"/>
       <use xlink:href="#DejaVuSans-35" x="286.279297"/>
      </g>
     </g>
    </g>
   </g>
   <g id="matplotlib.axis_4"/>
   <g id="line2d_15">
    <path d="M 597.473851 339.790253 
L 623.378061 339.682327 
L 631.348587 339.430776 
L 640.647534 338.912162 
L 645.297008 338.418955 
L 650.610692 337.664049 
L 653.931745 336.889955 
L 656.588587 336.128246 
L 660.57385 334.667087 
L 662.566481 333.839264 
L 664.559113 332.728175 
L 671.201218 328.501132 
L 673.193849 326.761913 
L 675.850691 324.067999 
L 679.171744 320.309131 
L 681.164375 317.709729 
L 684.485428 312.804859 
L 687.14227 308.669713 
L 688.470691 306.238817 
L 690.463323 302.037979 
L 695.777007 289.979032 
L 698.433849 283.183847 
L 700.42648 277.608445 
L 702.419112 271.261553 
L 709.725427 245.511972 
L 713.04648 232.666349 
L 715.039111 224.228063 
L 727.659111 166.657595 
L 733.637006 138.64507 
L 742.935953 99.399536 
L 744.264374 95.306858 
L 746.921216 88.394869 
L 750.906479 78.263498 
L 752.89911 74.10077 
L 756.220163 67.35525 
L 757.548584 64.724569 
L 758.212794 63.602508 
L 758.877005 62.700629 
L 759.541216 62.059671 
L 760.205426 61.697833 
L 760.869637 61.6032 
L 761.533847 61.71043 
L 762.862268 62.288518 
L 764.8549 63.51391 
L 770.168584 67.497127 
L 770.832794 68.1569 
L 771.497005 69.016629 
L 772.161215 70.102854 
L 773.489636 72.898453 
L 775.482268 78.028823 
L 778.80332 87.139815 
L 780.131741 91.235243 
L 781.460162 95.869011 
L 783.452794 103.671828 
L 791.42332 136.958147 
L 796.737004 159.910989 
L 800.722267 178.266449 
L 806.035951 203.074545 
L 809.357004 217.313405 
L 815.999109 244.318404 
L 818.655951 254.208659 
L 821.312793 263.165396 
L 825.298056 275.401037 
L 827.954898 283.14479 
L 829.947529 288.290988 
L 833.268582 296.01134 
L 836.589635 303.391126 
L 838.582266 307.405978 
L 841.239108 312.249744 
L 843.23174 315.451644 
L 845.224371 318.218149 
L 848.545424 322.222529 
L 851.202266 325.294452 
L 852.530687 326.572063 
L 854.523318 328.095864 
L 857.18016 329.75605 
L 863.158055 333.07368 
L 866.479108 334.788629 
L 868.471739 335.615063 
L 870.464371 336.212217 
L 875.778055 337.41836 
L 882.42016 338.575237 
L 885.077002 338.831589 
L 892.383317 339.237062 
L 908.98858 339.717176 
L 936.885421 339.794342 
L 936.885421 339.794342 
" clip-path="url(#p1cb5ec49b0)" style="fill: none; stroke: #1f77b4; stroke-width: 1.5; stroke-linecap: square"/>
   </g>
   <g id="line2d_16">
    <path d="M 692.602601 333.968832 
L 834.979316 333.968832 
" clip-path="url(#p1cb5ec49b0)" style="fill: none; stroke: #000000; stroke-width: 3"/>
   </g>
   <g id="patch_5">
    <path d="M 580.503273 353.7216 
L 953.856 353.7216 
" style="fill: none; stroke: #808080; stroke-width: 0.8; stroke-linejoin: miter; stroke-linecap: square"/>
   </g>
   <g id="text_18">
    <!-- 0.049  -->
    <g transform="translate(644.893226 319.362912) scale(0.15 -0.15)">
     <use xlink:href="#DejaVuSans-30"/>
     <use xlink:href="#DejaVuSans-2e" x="63.623047"/>
     <use xlink:href="#DejaVuSans-30" x="95.410156"/>
     <use xlink:href="#DejaVuSans-34" x="159.033203"/>
     <use xlink:href="#DejaVuSans-39" x="222.65625"/>
     <use xlink:href="#DejaVuSans-20" x="286.279297"/>
    </g>
   </g>
   <g id="text_19">
    <!--  0.051 -->
    <g transform="translate(834.979316 319.362912) scale(0.15 -0.15)">
     <use xlink:href="#DejaVuSans-20"/>
     <use xlink:href="#DejaVuSans-30" x="31.787109"/>
     <use xlink:href="#DejaVuSans-2e" x="95.410156"/>
     <use xlink:href="#DejaVuSans-30" x="127.197266"/>
     <use xlink:href="#DejaVuSans-35" x="190.820312"/>
     <use xlink:href="#DejaVuSans-31" x="254.443359"/>
    </g>
   </g>
   <g id="text_20">
    <!-- 95% HDI -->
    <g transform="translate(731.109709 252.17568) scale(0.15 -0.15)">
     <use xlink:href="#DejaVuSans-39"/>
     <use xlink:href="#DejaVuSans-35" x="63.623047"/>
     <use xlink:href="#DejaVuSans-25" x="127.246094"/>
     <use xlink:href="#DejaVuSans-20" x="222.265625"/>
     <use xlink:href="#DejaVuSans-48" x="254.052734"/>
     <use xlink:href="#DejaVuSans-44" x="329.248047"/>
     <use xlink:href="#DejaVuSans-49" x="406.25"/>
    </g>
   </g>
   <g id="text_21">
    <!-- mean=0.05 -->
    <g transform="translate(718.460377 106.11648) scale(0.15 -0.15)">
     <use xlink:href="#DejaVuSans-6d"/>
     <use xlink:href="#DejaVuSans-65" x="97.412109"/>
     <use xlink:href="#DejaVuSans-61" x="158.935547"/>
     <use xlink:href="#DejaVuSans-6e" x="220.214844"/>
     <use xlink:href="#DejaVuSans-3d" x="283.59375"/>
     <use xlink:href="#DejaVuSans-30" x="367.382812"/>
     <use xlink:href="#DejaVuSans-2e" x="431.005859"/>
     <use xlink:href="#DejaVuSans-30" x="462.792969"/>
     <use xlink:href="#DejaVuSans-35" x="526.416016"/>
    </g>
   </g>
   <g id="text_22">
    <!-- biased_θ -->
    <g transform="translate(731.912136 41.6928) scale(0.16 -0.16)">
     <defs>
      <path id="DejaVuSans-62" d="M 3116 1747 
Q 3116 2381 2855 2742 
Q 2594 3103 2138 3103 
Q 1681 3103 1420 2742 
Q 1159 2381 1159 1747 
Q 1159 1113 1420 752 
Q 1681 391 2138 391 
Q 2594 391 2855 752 
Q 3116 1113 3116 1747 
z
M 1159 2969 
Q 1341 3281 1617 3432 
Q 1894 3584 2278 3584 
Q 2916 3584 3314 3078 
Q 3713 2572 3713 1747 
Q 3713 922 3314 415 
Q 2916 -91 2278 -91 
Q 1894 -91 1617 61 
Q 1341 213 1159 525 
L 1159 0 
L 581 0 
L 581 4863 
L 1159 4863 
L 1159 2969 
z
" transform="scale(0.015625)"/>
      <path id="DejaVuSans-69" d="M 603 3500 
L 1178 3500 
L 1178 0 
L 603 0 
L 603 3500 
z
M 603 4863 
L 1178 4863 
L 1178 4134 
L 603 4134 
L 603 4863 
z
" transform="scale(0.015625)"/>
      <path id="DejaVuSans-73" d="M 2834 3397 
L 2834 2853 
Q 2591 2978 2328 3040 
Q 2066 3103 1784 3103 
Q 1356 3103 1142 2972 
Q 928 2841 928 2578 
Q 928 2378 1081 2264 
Q 1234 2150 1697 2047 
L 1894 2003 
Q 2506 1872 2764 1633 
Q 3022 1394 3022 966 
Q 3022 478 2636 193 
Q 2250 -91 1575 -91 
Q 1294 -91 989 -36 
Q 684 19 347 128 
L 347 722 
Q 666 556 975 473 
Q 1284 391 1588 391 
Q 1994 391 2212 530 
Q 2431 669 2431 922 
Q 2431 1156 2273 1281 
Q 2116 1406 1581 1522 
L 1381 1569 
Q 847 1681 609 1914 
Q 372 2147 372 2553 
Q 372 3047 722 3315 
Q 1072 3584 1716 3584 
Q 2034 3584 2315 3537 
Q 2597 3491 2834 3397 
z
" transform="scale(0.015625)"/>
      <path id="DejaVuSans-64" d="M 2906 2969 
L 2906 4863 
L 3481 4863 
L 3481 0 
L 2906 0 
L 2906 525 
Q 2725 213 2448 61 
Q 2172 -91 1784 -91 
Q 1150 -91 751 415 
Q 353 922 353 1747 
Q 353 2572 751 3078 
Q 1150 3584 1784 3584 
Q 2172 3584 2448 3432 
Q 2725 3281 2906 2969 
z
M 947 1747 
Q 947 1113 1208 752 
Q 1469 391 1925 391 
Q 2381 391 2643 752 
Q 2906 1113 2906 1747 
Q 2906 2381 2643 2742 
Q 2381 3103 1925 3103 
Q 1469 3103 1208 2742 
Q 947 2381 947 1747 
z
" transform="scale(0.015625)"/>
      <path id="DejaVuSans-5f" d="M 3263 -1063 
L 3263 -1509 
L -63 -1509 
L -63 -1063 
L 3263 -1063 
z
" transform="scale(0.015625)"/>
     </defs>
     <use xlink:href="#DejaVuSans-62"/>
     <use xlink:href="#DejaVuSans-69" x="63.476562"/>
     <use xlink:href="#DejaVuSans-61" x="91.259766"/>
     <use xlink:href="#DejaVuSans-73" x="152.539062"/>
     <use xlink:href="#DejaVuSans-65" x="204.638672"/>
     <use xlink:href="#DejaVuSans-64" x="266.162109"/>
     <use xlink:href="#DejaVuSans-5f" x="329.638672"/>
     <use xlink:href="#DejaVuSans-3b8" x="379.638672"/>
    </g>
   </g>
  </g>
 </g>
 <defs>
  <clipPath id="pcb442f819e">
   <rect x="132.48" y="47.6928" width="373.352727" height="306.0288"/>
  </clipPath>
  <clipPath id="p1cb5ec49b0">
   <rect x="580.503273" y="47.6928" width="373.352727" height="306.0288"/>
  </clipPath>
 </defs>
</svg>
