<?xml version="1.0" encoding="utf-8" standalone="no"?>
<!DOCTYPE svg PUBLIC "-//W3C//DTD SVG 1.1//EN"
  "http://www.w3.org/Graphics/SVG/1.1/DTD/svg11.dtd">
<svg xmlns:xlink="http://www.w3.org/1999/xlink" width="1059.84pt" height="397.44pt" viewBox="0 0 1059.84 397.44" xmlns="http://www.w3.org/2000/svg" version="1.1">
 <metadata>
  <rdf:RDF xmlns:dc="http://purl.org/dc/elements/1.1/" xmlns:cc="http://creativecommons.org/ns#" xmlns:rdf="http://www.w3.org/1999/02/22-rdf-syntax-ns#">
   <cc:Work>
    <dc:type rdf:resource="http://purl.org/dc/dcmitype/StillImage"/>
    <dc:format>image/svg+xml</dc:format>
   </cc:Work>
  </rdf:RDF>
 </metadata>
 <defs>
  <style type="text/css">*{stroke-linejoin: round; stroke-linecap: butt}</style>
 </defs>
 <g id="figure_1">
  <g id="patch_1">
   <path d="M 0 397.44 
L 1059.84 397.44 
L 1059.84 0 
L 0 0 
z
" style="fill: #ffffff"/>
  </g>
  <g id="axes_1">
   <g id="patch_2">
    <path d="M 132.48 353.7216 
L 505.832727 353.7216 
L 505.832727 47.6928 
L 132.48 47.6928 
z
" style="fill: #ffffff"/>
   </g>
   <g id="PolyCollection_1">
    <defs>
     <path id="m0532a9b486" d="M 149.450579 -57.6288 
L 149.450579 -57.65906 
L 150.114789 -57.658364 
L 150.779 -57.656899 
L 151.44321 -57.654763 
L 152.107421 -57.652084 
L 152.771631 -57.649235 
L 153.435842 -57.646423 
L 154.100052 -57.643989 
L 154.764263 -57.642479 
L 155.428473 -57.641906 
L 156.092684 -57.642844 
L 156.756894 -57.644834 
L 157.421105 -57.647982 
L 158.085315 -57.652332 
L 158.749526 -57.65731 
L 159.413736 -57.66295 
L 160.077947 -57.668876 
L 160.742157 -57.675023 
L 161.406368 -57.681247 
L 162.070578 -57.687736 
L 162.734789 -57.694724 
L 163.398999 -57.702476 
L 164.06321 -57.711233 
L 164.72742 -57.721276 
L 165.391631 -57.732702 
L 166.055841 -57.744836 
L 166.720052 -57.757265 
L 167.384262 -57.76948 
L 168.048473 -57.780724 
L 168.712683 -57.791072 
L 169.376894 -57.800858 
L 170.041104 -57.809667 
L 170.705315 -57.817987 
L 171.369525 -57.826364 
L 172.033736 -57.836241 
L 172.697946 -57.847724 
L 173.362157 -57.86224 
L 174.026367 -57.880418 
L 174.690578 -57.903797 
L 175.354788 -57.932705 
L 176.018999 -57.967245 
L 176.683209 -58.00647 
L 177.34742 -58.050218 
L 178.01163 -58.096876 
L 178.675841 -58.145216 
L 179.340051 -58.193533 
L 180.004262 -58.23973 
L 180.668472 -58.282117 
L 181.332683 -58.321079 
L 181.996893 -58.355177 
L 182.661104 -58.386108 
L 183.325314 -58.417933 
L 183.989525 -58.453365 
L 184.653736 -58.497635 
L 185.317946 -58.554153 
L 185.982157 -58.626123 
L 186.646367 -58.714401 
L 187.310578 -58.817696 
L 187.974788 -58.934405 
L 188.638999 -59.059497 
L 189.303209 -59.190548 
L 189.96742 -59.322561 
L 190.63163 -59.454792 
L 191.295841 -59.585235 
L 191.960051 -59.717451 
L 192.624262 -59.852776 
L 193.288472 -59.992109 
L 193.952683 -60.135305 
L 194.616893 -60.281259 
L 195.281104 -60.428044 
L 195.945314 -60.571724 
L 196.609525 -60.707985 
L 197.273735 -60.838734 
L 197.937946 -60.96217 
L 198.602156 -61.079543 
L 199.266367 -61.193849 
L 199.930577 -61.307341 
L 200.594788 -61.42793 
L 201.258998 -61.562238 
L 201.923209 -61.720542 
L 202.587419 -61.914193 
L 203.25163 -62.152852 
L 203.91584 -62.445962 
L 204.580051 -62.795919 
L 205.244261 -63.202471 
L 205.908472 -63.658574 
L 206.572682 -64.153724 
L 207.236893 -64.673608 
L 207.901103 -65.205775 
L 208.565314 -65.743688 
L 209.229524 -66.279814 
L 209.893735 -66.813576 
L 210.557945 -67.34139 
L 211.222156 -67.865882 
L 211.886366 -68.385734 
L 212.550577 -68.900686 
L 213.214787 -69.411895 
L 213.878998 -69.925143 
L 214.543208 -70.445269 
L 215.207419 -70.981592 
L 215.871629 -71.539372 
L 216.53584 -72.129371 
L 217.20005 -72.755666 
L 217.864261 -73.421979 
L 218.528471 -74.123521 
L 219.192682 -74.860008 
L 219.856892 -75.623677 
L 220.521103 -76.41036 
L 221.185314 -77.21821 
L 221.849524 -78.049467 
L 222.513735 -78.899655 
L 223.177945 -79.779674 
L 223.842156 -80.694942 
L 224.506366 -81.656047 
L 225.170577 -82.668827 
L 225.834787 -83.744036 
L 226.498998 -84.884078 
L 227.163208 -86.086635 
L 227.827419 -87.346196 
L 228.491629 -88.657669 
L 229.15584 -90.001163 
L 229.82005 -91.364714 
L 230.484261 -92.736073 
L 231.148471 -94.11476 
L 231.812682 -95.505104 
L 232.476892 -96.915657 
L 233.141103 -98.365198 
L 233.805313 -99.872926 
L 234.469524 -101.435247 
L 235.133734 -103.051631 
L 235.797945 -104.716589 
L 236.462155 -106.418521 
L 237.126366 -108.15112 
L 237.790576 -109.922627 
L 238.454787 -111.731049 
L 239.118997 -113.57845 
L 239.783208 -115.45569 
L 240.447418 -117.368527 
L 241.111629 -119.300496 
L 241.775839 -121.248094 
L 242.44005 -123.217016 
L 243.10426 -125.218482 
L 243.768471 -127.262937 
L 244.432681 -129.37454 
L 245.096892 -131.553135 
L 245.761102 -133.80858 
L 246.425313 -136.122731 
L 247.089523 -138.501032 
L 247.753734 -140.9347 
L 248.417944 -143.405699 
L 249.082155 -145.918717 
L 249.746365 -148.458224 
L 250.410576 -151.014229 
L 251.074786 -153.569637 
L 251.738997 -156.1208 
L 252.403207 -158.661712 
L 253.067418 -161.195083 
L 253.731628 -163.737581 
L 254.395839 -166.294256 
L 255.060049 -168.865075 
L 255.72426 -171.43498 
L 256.388471 -174.010035 
L 257.052681 -176.591842 
L 257.716892 -179.166493 
L 258.381102 -181.761176 
L 259.045313 -184.388753 
L 259.709523 -187.070656 
L 260.373734 -189.844102 
L 261.037944 -192.705232 
L 261.702155 -195.689431 
L 262.366365 -198.785069 
L 263.030576 -201.98519 
L 263.694786 -205.279979 
L 264.358997 -208.626666 
L 265.023207 -212.001953 
L 265.687418 -215.351965 
L 266.351628 -218.658372 
L 267.015839 -221.88793 
L 267.680049 -225.046283 
L 268.34426 -228.136312 
L 269.00847 -231.186732 
L 269.672681 -234.231158 
L 270.336891 -237.289551 
L 271.001102 -240.346909 
L 271.665312 -243.397597 
L 272.329523 -246.425423 
L 272.993733 -249.408405 
L 273.657944 -252.32634 
L 274.322154 -255.190308 
L 274.986365 -258.003475 
L 275.650575 -260.772961 
L 276.314786 -263.526039 
L 276.978996 -266.259863 
L 277.643207 -268.975882 
L 278.307417 -271.671693 
L 278.971628 -274.348173 
L 279.635838 -276.993255 
L 280.300049 -279.613447 
L 280.964259 -282.216639 
L 281.62847 -284.789473 
L 282.29268 -287.358643 
L 282.956891 -289.890892 
L 283.621101 -292.377263 
L 284.285312 -294.777572 
L 284.949522 -297.065911 
L 285.613733 -299.237011 
L 286.277943 -301.292169 
L 286.942154 -303.232115 
L 287.606364 -305.102422 
L 288.270575 -306.946159 
L 288.934785 -308.791837 
L 289.598996 -310.657039 
L 290.263206 -312.566618 
L 290.927417 -314.51395 
L 291.591628 -316.470472 
L 292.255838 -318.410896 
L 292.920049 -320.313223 
L 293.584259 -322.145331 
L 294.24847 -323.868181 
L 294.91268 -325.465034 
L 295.576891 -326.929992 
L 296.241101 -328.279044 
L 296.905312 -329.528261 
L 297.569522 -330.671888 
L 298.233733 -331.751648 
L 298.897943 -332.744035 
L 299.562154 -333.647372 
L 300.226364 -334.427066 
L 300.890575 -335.040637 
L 301.554785 -335.48297 
L 302.218996 -335.746108 
L 302.883206 -335.8368 
L 303.547417 -335.803422 
L 304.211627 -335.703346 
L 304.875838 -335.590251 
L 305.540048 -335.493619 
L 306.204259 -335.441028 
L 306.868469 -335.433687 
L 307.53268 -335.408672 
L 308.19689 -335.292381 
L 308.861101 -335.043865 
L 309.525311 -334.615176 
L 310.189522 -334.025121 
L 310.853732 -333.286427 
L 311.517943 -332.481144 
L 312.182153 -331.683859 
L 312.846364 -330.949502 
L 313.510574 -330.273911 
L 314.174785 -329.650818 
L 314.838995 -329.021276 
L 315.503206 -328.325182 
L 316.167416 -327.538802 
L 316.831627 -326.6437 
L 317.495837 -325.642322 
L 318.160048 -324.570814 
L 318.824258 -323.455567 
L 319.488469 -322.309122 
L 320.152679 -321.1437 
L 320.81689 -319.935069 
L 321.4811 -318.64902 
L 322.145311 -317.267529 
L 322.809521 -315.779972 
L 323.473732 -314.188438 
L 324.137942 -312.48175 
L 324.802153 -310.681894 
L 325.466363 -308.812842 
L 326.130574 -306.884545 
L 326.794784 -304.897661 
L 327.458995 -302.857436 
L 328.123206 -300.751428 
L 328.787416 -298.570922 
L 329.451627 -296.304991 
L 330.115837 -293.959653 
L 330.780048 -291.548609 
L 331.444258 -289.068323 
L 332.108469 -286.572446 
L 332.772679 -284.087842 
L 333.43689 -281.61925 
L 334.1011 -279.18224 
L 334.765311 -276.764955 
L 335.429521 -274.362371 
L 336.093732 -271.956288 
L 336.757942 -269.53242 
L 337.422153 -267.059245 
L 338.086363 -264.534754 
L 338.750574 -261.935901 
L 339.414784 -259.27315 
L 340.078995 -256.554556 
L 340.743205 -253.76805 
L 341.407416 -250.942018 
L 342.071626 -248.092519 
L 342.735837 -245.230859 
L 343.400047 -242.373779 
L 344.064258 -239.527716 
L 344.728468 -236.704749 
L 345.392679 -233.902588 
L 346.056889 -231.142851 
L 346.7211 -228.397491 
L 347.38531 -225.651338 
L 348.049521 -222.893442 
L 348.713731 -220.107488 
L 349.377942 -217.277939 
L 350.042152 -214.413988 
L 350.706363 -211.512747 
L 351.370573 -208.597612 
L 352.034784 -205.676845 
L 352.698994 -202.761003 
L 353.363205 -199.853259 
L 354.027415 -196.968337 
L 354.691626 -194.103109 
L 355.355836 -191.276231 
L 356.020047 -188.502478 
L 356.684257 -185.791612 
L 357.348468 -183.148288 
L 358.012678 -180.581928 
L 358.676889 -178.08758 
L 359.341099 -175.654745 
L 360.00531 -173.270042 
L 360.66952 -170.92833 
L 361.333731 -168.60204 
L 361.997941 -166.307566 
L 362.662152 -164.02488 
L 363.326363 -161.769634 
L 363.990573 -159.538668 
L 364.654784 -157.345528 
L 365.318994 -155.179476 
L 365.983205 -153.031889 
L 366.647415 -150.887508 
L 367.311626 -148.727092 
L 367.975836 -146.543288 
L 368.640047 -144.329107 
L 369.304257 -142.088263 
L 369.968468 -139.858395 
L 370.632678 -137.663722 
L 371.296889 -135.535118 
L 371.961099 -133.496631 
L 372.62531 -131.549166 
L 373.28952 -129.693773 
L 373.953731 -127.909547 
L 374.617941 -126.172475 
L 375.282152 -124.456621 
L 375.946362 -122.740806 
L 376.610573 -121.02103 
L 377.274783 -119.296514 
L 377.938994 -117.577317 
L 378.603204 -115.881847 
L 379.267415 -114.226384 
L 379.931625 -112.619027 
L 380.595836 -111.08068 
L 381.260046 -109.613682 
L 381.924257 -108.215956 
L 382.588467 -106.888505 
L 383.252678 -105.61084 
L 383.916888 -104.373606 
L 384.581099 -103.159087 
L 385.245309 -101.94327 
L 385.90952 -100.727161 
L 386.57373 -99.504385 
L 387.237941 -98.272029 
L 387.902151 -97.04036 
L 388.566362 -95.803691 
L 389.230572 -94.563671 
L 389.894783 -93.323087 
L 390.558993 -92.083156 
L 391.223204 -90.848933 
L 391.887414 -89.632355 
L 392.551625 -88.450697 
L 393.215835 -87.321352 
L 393.880046 -86.254726 
L 394.544256 -85.260654 
L 395.208467 -84.342699 
L 395.872677 -83.488901 
L 396.536888 -82.692747 
L 397.201098 -81.929373 
L 397.865309 -81.184075 
L 398.529519 -80.440418 
L 399.19373 -79.686147 
L 399.857941 -78.917669 
L 400.522151 -78.141399 
L 401.186362 -77.369487 
L 401.850572 -76.620337 
L 402.514783 -75.907902 
L 403.178993 -75.23824 
L 403.843204 -74.615598 
L 404.507414 -74.035204 
L 405.171625 -73.485178 
L 405.835835 -72.956817 
L 406.500046 -72.442353 
L 407.164256 -71.933891 
L 407.828467 -71.427864 
L 408.492677 -70.925412 
L 409.156888 -70.430431 
L 409.821098 -69.943546 
L 410.485309 -69.464355 
L 411.149519 -68.996876 
L 411.81373 -68.53987 
L 412.47794 -68.097324 
L 413.142151 -67.66954 
L 413.806361 -67.259767 
L 414.470572 -66.868589 
L 415.134782 -66.502173 
L 415.798993 -66.164583 
L 416.463203 -65.859341 
L 417.127414 -65.588098 
L 417.791624 -65.349315 
L 418.455835 -65.139332 
L 419.120045 -64.949016 
L 419.784256 -64.763227 
L 420.448466 -64.574887 
L 421.112677 -64.373575 
L 421.776887 -64.153605 
L 422.441098 -63.915103 
L 423.105308 -63.661966 
L 423.769519 -63.399737 
L 424.433729 -63.135222 
L 425.09794 -62.876713 
L 425.76215 -62.630919 
L 426.426361 -62.399516 
L 427.090571 -62.18013 
L 427.754782 -61.970975 
L 428.418992 -61.768712 
L 429.083203 -61.570672 
L 429.747413 -61.376812 
L 430.411624 -61.187431 
L 431.075834 -61.007272 
L 431.740045 -60.8382 
L 432.404255 -60.682599 
L 433.068466 -60.5409 
L 433.732676 -60.413576 
L 434.396887 -60.296369 
L 435.061098 -60.189732 
L 435.725308 -60.089177 
L 436.389519 -59.995043 
L 437.053729 -59.906439 
L 437.71794 -59.823215 
L 438.38215 -59.743522 
L 439.046361 -59.666366 
L 439.710571 -59.589352 
L 440.374782 -59.511109 
L 441.038992 -59.42751 
L 441.703203 -59.33921 
L 442.367413 -59.244934 
L 443.031624 -59.145962 
L 443.695834 -59.043683 
L 444.360045 -58.943003 
L 445.024255 -58.846069 
L 445.688466 -58.757082 
L 446.352676 -58.676885 
L 447.016887 -58.606025 
L 447.681097 -58.54306 
L 448.345308 -58.485318 
L 449.009518 -58.431137 
L 449.673729 -58.3829 
L 450.337939 -58.338721 
L 451.00215 -58.299739 
L 451.66636 -58.265414 
L 452.330571 -58.235297 
L 452.994781 -58.207709 
L 453.658992 -58.180913 
L 454.323202 -58.153392 
L 454.987413 -58.124262 
L 455.651623 -58.094874 
L 456.315834 -58.066052 
L 456.980044 -58.038482 
L 457.644255 -58.013674 
L 458.308465 -57.991717 
L 458.972676 -57.972803 
L 459.636886 -57.955294 
L 460.301097 -57.939007 
L 460.965307 -57.922978 
L 461.629518 -57.906494 
L 462.293728 -57.889922 
L 462.957939 -57.873467 
L 463.622149 -57.857672 
L 464.28636 -57.843284 
L 464.95057 -57.83065 
L 465.614781 -57.820449 
L 466.278991 -57.812564 
L 466.943202 -57.805914 
L 467.607412 -57.800401 
L 468.271623 -57.794669 
L 468.935833 -57.788357 
L 469.600044 -57.781112 
L 470.264255 -57.772927 
L 470.928465 -57.764245 
L 471.592676 -57.755757 
L 472.256886 -57.747465 
L 472.921097 -57.739633 
L 473.585307 -57.731969 
L 474.249518 -57.72411 
L 474.913728 -57.715661 
L 475.577939 -57.706501 
L 476.242149 -57.696639 
L 476.90636 -57.686452 
L 477.57057 -57.676891 
L 478.234781 -57.668505 
L 478.898991 -57.661726 
L 479.563202 -57.656918 
L 480.227412 -57.65425 
L 480.891623 -57.653271 
L 481.555833 -57.653664 
L 482.220044 -57.6549 
L 482.884254 -57.656248 
L 483.548465 -57.65778 
L 484.212675 -57.659016 
L 484.876886 -57.659959 
L 485.541096 -57.660814 
L 486.205307 -57.661495 
L 486.869517 -57.66226 
L 487.533728 -57.662981 
L 488.197938 -57.663581 
L 488.862149 -57.663883 
L 488.862149 -57.6288 
L 488.862149 -57.6288 
L 488.197938 -57.6288 
L 487.533728 -57.6288 
L 486.869517 -57.6288 
L 486.205307 -57.6288 
L 485.541096 -57.6288 
L 484.876886 -57.6288 
L 484.212675 -57.6288 
L 483.548465 -57.6288 
L 482.884254 -57.6288 
L 482.220044 -57.6288 
L 481.555833 -57.6288 
L 480.891623 -57.6288 
L 480.227412 -57.6288 
L 479.563202 -57.6288 
L 478.898991 -57.6288 
L 478.234781 -57.6288 
L 477.57057 -57.6288 
L 476.90636 -57.6288 
L 476.242149 -57.6288 
L 475.577939 -57.6288 
L 474.913728 -57.6288 
L 474.249518 -57.6288 
L 473.585307 -57.6288 
L 472.921097 -57.6288 
L 472.256886 -57.6288 
L 471.592676 -57.6288 
L 470.928465 -57.6288 
L 470.264255 -57.6288 
L 469.600044 -57.6288 
L 468.935833 -57.6288 
L 468.271623 -57.6288 
L 467.607412 -57.6288 
L 466.943202 -57.6288 
L 466.278991 -57.6288 
L 465.614781 -57.6288 
L 464.95057 -57.6288 
L 464.28636 -57.6288 
L 463.622149 -57.6288 
L 462.957939 -57.6288 
L 462.293728 -57.6288 
L 461.629518 -57.6288 
L 460.965307 -57.6288 
L 460.301097 -57.6288 
L 459.636886 -57.6288 
L 458.972676 -57.6288 
L 458.308465 -57.6288 
L 457.644255 -57.6288 
L 456.980044 -57.6288 
L 456.315834 -57.6288 
L 455.651623 -57.6288 
L 454.987413 -57.6288 
L 454.323202 -57.6288 
L 453.658992 -57.6288 
L 452.994781 -57.6288 
L 452.330571 -57.6288 
L 451.66636 -57.6288 
L 451.00215 -57.6288 
L 450.337939 -57.6288 
L 449.673729 -57.6288 
L 449.009518 -57.6288 
L 448.345308 -57.6288 
L 447.681097 -57.6288 
L 447.016887 -57.6288 
L 446.352676 -57.6288 
L 445.688466 -57.6288 
L 445.024255 -57.6288 
L 444.360045 -57.6288 
L 443.695834 -57.6288 
L 443.031624 -57.6288 
L 442.367413 -57.6288 
L 441.703203 -57.6288 
L 441.038992 -57.6288 
L 440.374782 -57.6288 
L 439.710571 -57.6288 
L 439.046361 -57.6288 
L 438.38215 -57.6288 
L 437.71794 -57.6288 
L 437.053729 -57.6288 
L 436.389519 -57.6288 
L 435.725308 -57.6288 
L 435.061098 -57.6288 
L 434.396887 -57.6288 
L 433.732676 -57.6288 
L 433.068466 -57.6288 
L 432.404255 -57.6288 
L 431.740045 -57.6288 
L 431.075834 -57.6288 
L 430.411624 -57.6288 
L 429.747413 -57.6288 
L 429.083203 -57.6288 
L 428.418992 -57.6288 
L 427.754782 -57.6288 
L 427.090571 -57.6288 
L 426.426361 -57.6288 
L 425.76215 -57.6288 
L 425.09794 -57.6288 
L 424.433729 -57.6288 
L 423.769519 -57.6288 
L 423.105308 -57.6288 
L 422.441098 -57.6288 
L 421.776887 -57.6288 
L 421.112677 -57.6288 
L 420.448466 -57.6288 
L 419.784256 -57.6288 
L 419.120045 -57.6288 
L 418.455835 -57.6288 
L 417.791624 -57.6288 
L 417.127414 -57.6288 
L 416.463203 -57.6288 
L 415.798993 -57.6288 
L 415.134782 -57.6288 
L 414.470572 -57.6288 
L 413.806361 -57.6288 
L 413.142151 -57.6288 
L 412.47794 -57.6288 
L 411.81373 -57.6288 
L 411.149519 -57.6288 
L 410.485309 -57.6288 
L 409.821098 -57.6288 
L 409.156888 -57.6288 
L 408.492677 -57.6288 
L 407.828467 -57.6288 
L 407.164256 -57.6288 
L 406.500046 -57.6288 
L 405.835835 -57.6288 
L 405.171625 -57.6288 
L 404.507414 -57.6288 
L 403.843204 -57.6288 
L 403.178993 -57.6288 
L 402.514783 -57.6288 
L 401.850572 -57.6288 
L 401.186362 -57.6288 
L 400.522151 -57.6288 
L 399.857941 -57.6288 
L 399.19373 -57.6288 
L 398.529519 -57.6288 
L 397.865309 -57.6288 
L 397.201098 -57.6288 
L 396.536888 -57.6288 
L 395.872677 -57.6288 
L 395.208467 -57.6288 
L 394.544256 -57.6288 
L 393.880046 -57.6288 
L 393.215835 -57.6288 
L 392.551625 -57.6288 
L 391.887414 -57.6288 
L 391.223204 -57.6288 
L 390.558993 -57.6288 
L 389.894783 -57.6288 
L 389.230572 -57.6288 
L 388.566362 -57.6288 
L 387.902151 -57.6288 
L 387.237941 -57.6288 
L 386.57373 -57.6288 
L 385.90952 -57.6288 
L 385.245309 -57.6288 
L 384.581099 -57.6288 
L 383.916888 -57.6288 
L 383.252678 -57.6288 
L 382.588467 -57.6288 
L 381.924257 -57.6288 
L 381.260046 -57.6288 
L 380.595836 -57.6288 
L 379.931625 -57.6288 
L 379.267415 -57.6288 
L 378.603204 -57.6288 
L 377.938994 -57.6288 
L 377.274783 -57.6288 
L 376.610573 -57.6288 
L 375.946362 -57.6288 
L 375.282152 -57.6288 
L 374.617941 -57.6288 
L 373.953731 -57.6288 
L 373.28952 -57.6288 
L 372.62531 -57.6288 
L 371.961099 -57.6288 
L 371.296889 -57.6288 
L 370.632678 -57.6288 
L 369.968468 -57.6288 
L 369.304257 -57.6288 
L 368.640047 -57.6288 
L 367.975836 -57.6288 
L 367.311626 -57.6288 
L 366.647415 -57.6288 
L 365.983205 -57.6288 
L 365.318994 -57.6288 
L 364.654784 -57.6288 
L 363.990573 -57.6288 
L 363.326363 -57.6288 
L 362.662152 -57.6288 
L 361.997941 -57.6288 
L 361.333731 -57.6288 
L 360.66952 -57.6288 
L 360.00531 -57.6288 
L 359.341099 -57.6288 
L 358.676889 -57.6288 
L 358.012678 -57.6288 
L 357.348468 -57.6288 
L 356.684257 -57.6288 
L 356.020047 -57.6288 
L 355.355836 -57.6288 
L 354.691626 -57.6288 
L 354.027415 -57.6288 
L 353.363205 -57.6288 
L 352.698994 -57.6288 
L 352.034784 -57.6288 
L 351.370573 -57.6288 
L 350.706363 -57.6288 
L 350.042152 -57.6288 
L 349.377942 -57.6288 
L 348.713731 -57.6288 
L 348.049521 -57.6288 
L 347.38531 -57.6288 
L 346.7211 -57.6288 
L 346.056889 -57.6288 
L 345.392679 -57.6288 
L 344.728468 -57.6288 
L 344.064258 -57.6288 
L 343.400047 -57.6288 
L 342.735837 -57.6288 
L 342.071626 -57.6288 
L 341.407416 -57.6288 
L 340.743205 -57.6288 
L 340.078995 -57.6288 
L 339.414784 -57.6288 
L 338.750574 -57.6288 
L 338.086363 -57.6288 
L 337.422153 -57.6288 
L 336.757942 -57.6288 
L 336.093732 -57.6288 
L 335.429521 -57.6288 
L 334.765311 -57.6288 
L 334.1011 -57.6288 
L 333.43689 -57.6288 
L 332.772679 -57.6288 
L 332.108469 -57.6288 
L 331.444258 -57.6288 
L 330.780048 -57.6288 
L 330.115837 -57.6288 
L 329.451627 -57.6288 
L 328.787416 -57.6288 
L 328.123206 -57.6288 
L 327.458995 -57.6288 
L 326.794784 -57.6288 
L 326.130574 -57.6288 
L 325.466363 -57.6288 
L 324.802153 -57.6288 
L 324.137942 -57.6288 
L 323.473732 -57.6288 
L 322.809521 -57.6288 
L 322.145311 -57.6288 
L 321.4811 -57.6288 
L 320.81689 -57.6288 
L 320.152679 -57.6288 
L 319.488469 -57.6288 
L 318.824258 -57.6288 
L 318.160048 -57.6288 
L 317.495837 -57.6288 
L 316.831627 -57.6288 
L 316.167416 -57.6288 
L 315.503206 -57.6288 
L 314.838995 -57.6288 
L 314.174785 -57.6288 
L 313.510574 -57.6288 
L 312.846364 -57.6288 
L 312.182153 -57.6288 
L 311.517943 -57.6288 
L 310.853732 -57.6288 
L 310.189522 -57.6288 
L 309.525311 -57.6288 
L 308.861101 -57.6288 
L 308.19689 -57.6288 
L 307.53268 -57.6288 
L 306.868469 -57.6288 
L 306.204259 -57.6288 
L 305.540048 -57.6288 
L 304.875838 -57.6288 
L 304.211627 -57.6288 
L 303.547417 -57.6288 
L 302.883206 -57.6288 
L 302.218996 -57.6288 
L 301.554785 -57.6288 
L 300.890575 -57.6288 
L 300.226364 -57.6288 
L 299.562154 -57.6288 
L 298.897943 -57.6288 
L 298.233733 -57.6288 
L 297.569522 -57.6288 
L 296.905312 -57.6288 
L 296.241101 -57.6288 
L 295.576891 -57.6288 
L 294.91268 -57.6288 
L 294.24847 -57.6288 
L 293.584259 -57.6288 
L 292.920049 -57.6288 
L 292.255838 -57.6288 
L 291.591628 -57.6288 
L 290.927417 -57.6288 
L 290.263206 -57.6288 
L 289.598996 -57.6288 
L 288.934785 -57.6288 
L 288.270575 -57.6288 
L 287.606364 -57.6288 
L 286.942154 -57.6288 
L 286.277943 -57.6288 
L 285.613733 -57.6288 
L 284.949522 -57.6288 
L 284.285312 -57.6288 
L 283.621101 -57.6288 
L 282.956891 -57.6288 
L 282.29268 -57.6288 
L 281.62847 -57.6288 
L 280.964259 -57.6288 
L 280.300049 -57.6288 
L 279.635838 -57.6288 
L 278.971628 -57.6288 
L 278.307417 -57.6288 
L 277.643207 -57.6288 
L 276.978996 -57.6288 
L 276.314786 -57.6288 
L 275.650575 -57.6288 
L 274.986365 -57.6288 
L 274.322154 -57.6288 
L 273.657944 -57.6288 
L 272.993733 -57.6288 
L 272.329523 -57.6288 
L 271.665312 -57.6288 
L 271.001102 -57.6288 
L 270.336891 -57.6288 
L 269.672681 -57.6288 
L 269.00847 -57.6288 
L 268.34426 -57.6288 
L 267.680049 -57.6288 
L 267.015839 -57.6288 
L 266.351628 -57.6288 
L 265.687418 -57.6288 
L 265.023207 -57.6288 
L 264.358997 -57.6288 
L 263.694786 -57.6288 
L 263.030576 -57.6288 
L 262.366365 -57.6288 
L 261.702155 -57.6288 
L 261.037944 -57.6288 
L 260.373734 -57.6288 
L 259.709523 -57.6288 
L 259.045313 -57.6288 
L 258.381102 -57.6288 
L 257.716892 -57.6288 
L 257.052681 -57.6288 
L 256.388471 -57.6288 
L 255.72426 -57.6288 
L 255.060049 -57.6288 
L 254.395839 -57.6288 
L 253.731628 -57.6288 
L 253.067418 -57.6288 
L 252.403207 -57.6288 
L 251.738997 -57.6288 
L 251.074786 -57.6288 
L 250.410576 -57.6288 
L 249.746365 -57.6288 
L 249.082155 -57.6288 
L 248.417944 -57.6288 
L 247.753734 -57.6288 
L 247.089523 -57.6288 
L 246.425313 -57.6288 
L 245.761102 -57.6288 
L 245.096892 -57.6288 
L 244.432681 -57.6288 
L 243.768471 -57.6288 
L 243.10426 -57.6288 
L 242.44005 -57.6288 
L 241.775839 -57.6288 
L 241.111629 -57.6288 
L 240.447418 -57.6288 
L 239.783208 -57.6288 
L 239.118997 -57.6288 
L 238.454787 -57.6288 
L 237.790576 -57.6288 
L 237.126366 -57.6288 
L 236.462155 -57.6288 
L 235.797945 -57.6288 
L 235.133734 -57.6288 
L 234.469524 -57.6288 
L 233.805313 -57.6288 
L 233.141103 -57.6288 
L 232.476892 -57.6288 
L 231.812682 -57.6288 
L 231.148471 -57.6288 
L 230.484261 -57.6288 
L 229.82005 -57.6288 
L 229.15584 -57.6288 
L 228.491629 -57.6288 
L 227.827419 -57.6288 
L 227.163208 -57.6288 
L 226.498998 -57.6288 
L 225.834787 -57.6288 
L 225.170577 -57.6288 
L 224.506366 -57.6288 
L 223.842156 -57.6288 
L 223.177945 -57.6288 
L 222.513735 -57.6288 
L 221.849524 -57.6288 
L 221.185314 -57.6288 
L 220.521103 -57.6288 
L 219.856892 -57.6288 
L 219.192682 -57.6288 
L 218.528471 -57.6288 
L 217.864261 -57.6288 
L 217.20005 -57.6288 
L 216.53584 -57.6288 
L 215.871629 -57.6288 
L 215.207419 -57.6288 
L 214.543208 -57.6288 
L 213.878998 -57.6288 
L 213.214787 -57.6288 
L 212.550577 -57.6288 
L 211.886366 -57.6288 
L 211.222156 -57.6288 
L 210.557945 -57.6288 
L 209.893735 -57.6288 
L 209.229524 -57.6288 
L 208.565314 -57.6288 
L 207.901103 -57.6288 
L 207.236893 -57.6288 
L 206.572682 -57.6288 
L 205.908472 -57.6288 
L 205.244261 -57.6288 
L 204.580051 -57.6288 
L 203.91584 -57.6288 
L 203.25163 -57.6288 
L 202.587419 -57.6288 
L 201.923209 -57.6288 
L 201.258998 -57.6288 
L 200.594788 -57.6288 
L 199.930577 -57.6288 
L 199.266367 -57.6288 
L 198.602156 -57.6288 
L 197.937946 -57.6288 
L 197.273735 -57.6288 
L 196.609525 -57.6288 
L 195.945314 -57.6288 
L 195.281104 -57.6288 
L 194.616893 -57.6288 
L 193.952683 -57.6288 
L 193.288472 -57.6288 
L 192.624262 -57.6288 
L 191.960051 -57.6288 
L 191.295841 -57.6288 
L 190.63163 -57.6288 
L 189.96742 -57.6288 
L 189.303209 -57.6288 
L 188.638999 -57.6288 
L 187.974788 -57.6288 
L 187.310578 -57.6288 
L 186.646367 -57.6288 
L 185.982157 -57.6288 
L 185.317946 -57.6288 
L 184.653736 -57.6288 
L 183.989525 -57.6288 
L 183.325314 -57.6288 
L 182.661104 -57.6288 
L 181.996893 -57.6288 
L 181.332683 -57.6288 
L 180.668472 -57.6288 
L 180.004262 -57.6288 
L 179.340051 -57.6288 
L 178.675841 -57.6288 
L 178.01163 -57.6288 
L 177.34742 -57.6288 
L 176.683209 -57.6288 
L 176.018999 -57.6288 
L 175.354788 -57.6288 
L 174.690578 -57.6288 
L 174.026367 -57.6288 
L 173.362157 -57.6288 
L 172.697946 -57.6288 
L 172.033736 -57.6288 
L 171.369525 -57.6288 
L 170.705315 -57.6288 
L 170.041104 -57.6288 
L 169.376894 -57.6288 
L 168.712683 -57.6288 
L 168.048473 -57.6288 
L 167.384262 -57.6288 
L 166.720052 -57.6288 
L 166.055841 -57.6288 
L 165.391631 -57.6288 
L 164.72742 -57.6288 
L 164.06321 -57.6288 
L 163.398999 -57.6288 
L 162.734789 -57.6288 
L 162.070578 -57.6288 
L 161.406368 -57.6288 
L 160.742157 -57.6288 
L 160.077947 -57.6288 
L 159.413736 -57.6288 
L 158.749526 -57.6288 
L 158.085315 -57.6288 
L 157.421105 -57.6288 
L 156.756894 -57.6288 
L 156.092684 -57.6288 
L 155.428473 -57.6288 
L 154.764263 -57.6288 
L 154.100052 -57.6288 
L 153.435842 -57.6288 
L 152.771631 -57.6288 
L 152.107421 -57.6288 
L 151.44321 -57.6288 
L 150.779 -57.6288 
L 150.114789 -57.6288 
L 149.450579 -57.6288 
z
" style="stroke: #1f77b4; stroke-opacity: 0"/>
    </defs>
    <g clip-path="url(#pfea7a5ddbc)">
     <use xlink:href="#m0532a9b486" x="0" y="397.44" style="fill: #1f77b4; fill-opacity: 0; stroke: #1f77b4; stroke-opacity: 0"/>
    </g>
   </g>
   <g id="matplotlib.axis_1">
    <g id="xtick_1">
     <g id="line2d_1">
      <defs>
       <path id="m3d5249e93f" d="M 0 0 
L 0 3 
" style="stroke: #808080"/>
      </defs>
      <g>
       <use xlink:href="#m3d5249e93f" x="139.011579" y="353.7216" style="fill: #808080; stroke: #808080"/>
      </g>
     </g>
     <g id="text_1">
      <!-- 0.040 -->
      <g transform="translate(118.971891 370.859412) scale(0.14 -0.14)">
       <defs>
        <path id="DejaVuSans-30" d="M 2034 4250 
Q 1547 4250 1301 3770 
Q 1056 3291 1056 2328 
Q 1056 1369 1301 889 
Q 1547 409 2034 409 
Q 2525 409 2770 889 
Q 3016 1369 3016 2328 
Q 3016 3291 2770 3770 
Q 2525 4250 2034 4250 
z
M 2034 4750 
Q 2819 4750 3233 4129 
Q 3647 3509 3647 2328 
Q 3647 1150 3233 529 
Q 2819 -91 2034 -91 
Q 1250 -91 836 529 
Q 422 1150 422 2328 
Q 422 3509 836 4129 
Q 1250 4750 2034 4750 
z
" transform="scale(0.015625)"/>
        <path id="DejaVuSans-2e" d="M 684 794 
L 1344 794 
L 1344 0 
L 684 0 
L 684 794 
z
" transform="scale(0.015625)"/>
        <path id="DejaVuSans-34" d="M 2419 4116 
L 825 1625 
L 2419 1625 
L 2419 4116 
z
M 2253 4666 
L 3047 4666 
L 3047 1625 
L 3713 1625 
L 3713 1100 
L 3047 1100 
L 3047 0 
L 2419 0 
L 2419 1100 
L 313 1100 
L 313 1709 
L 2253 4666 
z
" transform="scale(0.015625)"/>
       </defs>
       <use xlink:href="#DejaVuSans-30"/>
       <use xlink:href="#DejaVuSans-2e" x="63.623047"/>
       <use xlink:href="#DejaVuSans-30" x="95.410156"/>
       <use xlink:href="#DejaVuSans-34" x="159.033203"/>
       <use xlink:href="#DejaVuSans-30" x="222.65625"/>
      </g>
     </g>
    </g>
    <g id="xtick_2">
     <g id="line2d_2">
      <g>
       <use xlink:href="#m3d5249e93f" x="222.884869" y="353.7216" style="fill: #808080; stroke: #808080"/>
      </g>
     </g>
     <g id="text_2">
      <!-- 0.045 -->
      <g transform="translate(202.845182 370.859412) scale(0.14 -0.14)">
       <defs>
        <path id="DejaVuSans-35" d="M 691 4666 
L 3169 4666 
L 3169 4134 
L 1269 4134 
L 1269 2991 
Q 1406 3038 1543 3061 
Q 1681 3084 1819 3084 
Q 2600 3084 3056 2656 
Q 3513 2228 3513 1497 
Q 3513 744 3044 326 
Q 2575 -91 1722 -91 
Q 1428 -91 1123 -41 
Q 819 9 494 109 
L 494 744 
Q 775 591 1075 516 
Q 1375 441 1709 441 
Q 2250 441 2565 725 
Q 2881 1009 2881 1497 
Q 2881 1984 2565 2268 
Q 2250 2553 1709 2553 
Q 1456 2553 1204 2497 
Q 953 2441 691 2322 
L 691 4666 
z
" transform="scale(0.015625)"/>
       </defs>
       <use xlink:href="#DejaVuSans-30"/>
       <use xlink:href="#DejaVuSans-2e" x="63.623047"/>
       <use xlink:href="#DejaVuSans-30" x="95.410156"/>
       <use xlink:href="#DejaVuSans-34" x="159.033203"/>
       <use xlink:href="#DejaVuSans-35" x="222.65625"/>
      </g>
     </g>
    </g>
    <g id="xtick_3">
     <g id="line2d_3">
      <g>
       <use xlink:href="#m3d5249e93f" x="306.75816" y="353.7216" style="fill: #808080; stroke: #808080"/>
      </g>
     </g>
     <g id="text_3">
      <!-- 0.050 -->
      <g transform="translate(286.718473 370.859412) scale(0.14 -0.14)">
       <use xlink:href="#DejaVuSans-30"/>
       <use xlink:href="#DejaVuSans-2e" x="63.623047"/>
       <use xlink:href="#DejaVuSans-30" x="95.410156"/>
       <use xlink:href="#DejaVuSans-35" x="159.033203"/>
       <use xlink:href="#DejaVuSans-30" x="222.65625"/>
      </g>
     </g>
    </g>
    <g id="xtick_4">
     <g id="line2d_4">
      <g>
       <use xlink:href="#m3d5249e93f" x="390.631451" y="353.7216" style="fill: #808080; stroke: #808080"/>
      </g>
     </g>
     <g id="text_4">
      <!-- 0.055 -->
      <g transform="translate(370.591763 370.859412) scale(0.14 -0.14)">
       <use xlink:href="#DejaVuSans-30"/>
       <use xlink:href="#DejaVuSans-2e" x="63.623047"/>
       <use xlink:href="#DejaVuSans-30" x="95.410156"/>
       <use xlink:href="#DejaVuSans-35" x="159.033203"/>
       <use xlink:href="#DejaVuSans-35" x="222.65625"/>
      </g>
     </g>
    </g>
    <g id="xtick_5">
     <g id="line2d_5">
      <g>
       <use xlink:href="#m3d5249e93f" x="474.504742" y="353.7216" style="fill: #808080; stroke: #808080"/>
      </g>
     </g>
     <g id="text_5">
      <!-- 0.060 -->
      <g transform="translate(454.465054 370.859412) scale(0.14 -0.14)">
       <defs>
        <path id="DejaVuSans-36" d="M 2113 2584 
Q 1688 2584 1439 2293 
Q 1191 2003 1191 1497 
Q 1191 994 1439 701 
Q 1688 409 2113 409 
Q 2538 409 2786 701 
Q 3034 994 3034 1497 
Q 3034 2003 2786 2293 
Q 2538 2584 2113 2584 
z
M 3366 4563 
L 3366 3988 
Q 3128 4100 2886 4159 
Q 2644 4219 2406 4219 
Q 1781 4219 1451 3797 
Q 1122 3375 1075 2522 
Q 1259 2794 1537 2939 
Q 1816 3084 2150 3084 
Q 2853 3084 3261 2657 
Q 3669 2231 3669 1497 
Q 3669 778 3244 343 
Q 2819 -91 2113 -91 
Q 1303 -91 875 529 
Q 447 1150 447 2328 
Q 447 3434 972 4092 
Q 1497 4750 2381 4750 
Q 2619 4750 2861 4703 
Q 3103 4656 3366 4563 
z
" transform="scale(0.015625)"/>
       </defs>
       <use xlink:href="#DejaVuSans-30"/>
       <use xlink:href="#DejaVuSans-2e" x="63.623047"/>
       <use xlink:href="#DejaVuSans-30" x="95.410156"/>
       <use xlink:href="#DejaVuSans-36" x="159.033203"/>
       <use xlink:href="#DejaVuSans-30" x="222.65625"/>
      </g>
     </g>
    </g>
   </g>
   <g id="matplotlib.axis_2"/>
   <g id="line2d_6">
    <path d="M 149.450579 339.78094 
L 166.055841 339.695164 
L 177.34742 339.389782 
L 187.310578 338.622304 
L 192.624262 337.587224 
L 203.25163 335.287148 
L 204.580051 334.644081 
L 205.908472 333.781426 
L 208.565314 331.696312 
L 217.20005 324.684334 
L 219.192682 322.579992 
L 221.849524 319.390533 
L 223.842156 316.745058 
L 225.834787 313.695964 
L 227.827419 310.093804 
L 231.148471 303.32524 
L 233.805313 297.567074 
L 235.797945 292.723411 
L 238.454787 285.708951 
L 241.775839 276.191906 
L 244.432681 268.06546 
L 246.425313 261.317269 
L 249.082155 251.521283 
L 259.045313 213.051247 
L 261.037944 204.734768 
L 263.030576 195.45481 
L 269.00847 166.253268 
L 274.322154 142.249692 
L 278.307417 125.768307 
L 282.29268 110.081357 
L 284.949522 100.374089 
L 286.942154 94.207885 
L 294.91268 71.974966 
L 296.241101 69.160956 
L 297.569522 66.768112 
L 298.897943 64.695965 
L 300.226364 63.012934 
L 300.890575 62.399363 
L 301.554785 61.95703 
L 302.218996 61.693892 
L 302.883206 61.6032 
L 304.211627 61.736654 
L 306.204259 61.998972 
L 307.53268 62.031328 
L 308.19689 62.147619 
L 308.861101 62.396135 
L 309.525311 62.824824 
L 310.189522 63.414879 
L 314.174785 67.789182 
L 315.503206 69.114818 
L 316.831627 70.7963 
L 318.824258 73.984433 
L 321.4811 78.79098 
L 322.809521 81.660028 
L 324.137942 84.95825 
L 326.130574 90.555455 
L 328.123206 96.688572 
L 330.115837 103.480347 
L 337.422153 130.380755 
L 340.078995 140.885444 
L 350.706363 185.927253 
L 356.020047 208.937522 
L 358.676889 219.35242 
L 361.997941 231.132434 
L 365.318994 242.260524 
L 373.28952 267.746227 
L 377.274783 278.143486 
L 379.931625 284.820973 
L 381.924257 289.224044 
L 383.916888 293.066394 
L 393.880046 311.185274 
L 395.208467 313.097301 
L 397.201098 315.510627 
L 403.843204 322.824402 
L 405.835835 324.483183 
L 410.485309 327.975645 
L 413.806361 330.180233 
L 415.798993 331.275417 
L 417.791624 332.090685 
L 424.433729 334.304778 
L 427.090571 335.25987 
L 431.075834 336.432728 
L 433.732676 337.026424 
L 437.053729 337.533561 
L 450.337939 339.101279 
L 457.644255 339.426326 
L 466.943202 339.634086 
L 488.862149 339.776117 
L 488.862149 339.776117 
" clip-path="url(#pfea7a5ddbc)" style="fill: none; stroke: #1f77b4; stroke-width: 1.5; stroke-linecap: square"/>
   </g>
   <g id="line2d_7">
    <path d="M 233.741383 333.968832 
L 386.666653 333.968832 
" clip-path="url(#pfea7a5ddbc)" style="fill: none; stroke: #000000; stroke-width: 3"/>
   </g>
   <g id="patch_3">
    <path d="M 132.48 353.7216 
L 505.832727 353.7216 
" style="fill: none; stroke: #808080; stroke-width: 0.8; stroke-linejoin: miter; stroke-linecap: square"/>
   </g>
   <g id="text_6">
    <!-- 0.046  -->
    <g transform="translate(186.032008 319.362912) scale(0.15 -0.15)">
     <defs>
      <path id="DejaVuSans-20" transform="scale(0.015625)"/>
     </defs>
     <use xlink:href="#DejaVuSans-30"/>
     <use xlink:href="#DejaVuSans-2e" x="63.623047"/>
     <use xlink:href="#DejaVuSans-30" x="95.410156"/>
     <use xlink:href="#DejaVuSans-34" x="159.033203"/>
     <use xlink:href="#DejaVuSans-36" x="222.65625"/>
     <use xlink:href="#DejaVuSans-20" x="286.279297"/>
    </g>
   </g>
   <g id="text_7">
    <!--  0.055 -->
    <g transform="translate(386.666653 319.362912) scale(0.15 -0.15)">
     <use xlink:href="#DejaVuSans-20"/>
     <use xlink:href="#DejaVuSans-30" x="31.787109"/>
     <use xlink:href="#DejaVuSans-2e" x="95.410156"/>
     <use xlink:href="#DejaVuSans-30" x="127.197266"/>
     <use xlink:href="#DejaVuSans-35" x="190.820312"/>
     <use xlink:href="#DejaVuSans-35" x="254.443359"/>
    </g>
   </g>
   <g id="text_8">
    <!-- 95% HDI -->
    <g transform="translate(277.522768 252.17568) scale(0.15 -0.15)">
     <defs>
      <path id="DejaVuSans-39" d="M 703 97 
L 703 672 
Q 941 559 1184 500 
Q 1428 441 1663 441 
Q 2288 441 2617 861 
Q 2947 1281 2994 2138 
Q 2813 1869 2534 1725 
Q 2256 1581 1919 1581 
Q 1219 1581 811 2004 
Q 403 2428 403 3163 
Q 403 3881 828 4315 
Q 1253 4750 1959 4750 
Q 2769 4750 3195 4129 
Q 3622 3509 3622 2328 
Q 3622 1225 3098 567 
Q 2575 -91 1691 -91 
Q 1453 -91 1209 -44 
Q 966 3 703 97 
z
M 1959 2075 
Q 2384 2075 2632 2365 
Q 2881 2656 2881 3163 
Q 2881 3666 2632 3958 
Q 2384 4250 1959 4250 
Q 1534 4250 1286 3958 
Q 1038 3666 1038 3163 
Q 1038 2656 1286 2365 
Q 1534 2075 1959 2075 
z
" transform="scale(0.015625)"/>
      <path id="DejaVuSans-25" d="M 4653 2053 
Q 4381 2053 4226 1822 
Q 4072 1591 4072 1178 
Q 4072 772 4226 539 
Q 4381 306 4653 306 
Q 4919 306 5073 539 
Q 5228 772 5228 1178 
Q 5228 1588 5073 1820 
Q 4919 2053 4653 2053 
z
M 4653 2450 
Q 5147 2450 5437 2106 
Q 5728 1763 5728 1178 
Q 5728 594 5436 251 
Q 5144 -91 4653 -91 
Q 4153 -91 3862 251 
Q 3572 594 3572 1178 
Q 3572 1766 3864 2108 
Q 4156 2450 4653 2450 
z
M 1428 4353 
Q 1159 4353 1004 4120 
Q 850 3888 850 3481 
Q 850 3069 1003 2837 
Q 1156 2606 1428 2606 
Q 1700 2606 1854 2837 
Q 2009 3069 2009 3481 
Q 2009 3884 1853 4118 
Q 1697 4353 1428 4353 
z
M 4250 4750 
L 4750 4750 
L 1831 -91 
L 1331 -91 
L 4250 4750 
z
M 1428 4750 
Q 1922 4750 2215 4408 
Q 2509 4066 2509 3481 
Q 2509 2891 2217 2550 
Q 1925 2209 1428 2209 
Q 931 2209 642 2551 
Q 353 2894 353 3481 
Q 353 4063 643 4406 
Q 934 4750 1428 4750 
z
" transform="scale(0.015625)"/>
      <path id="DejaVuSans-48" d="M 628 4666 
L 1259 4666 
L 1259 2753 
L 3553 2753 
L 3553 4666 
L 4184 4666 
L 4184 0 
L 3553 0 
L 3553 2222 
L 1259 2222 
L 1259 0 
L 628 0 
L 628 4666 
z
" transform="scale(0.015625)"/>
      <path id="DejaVuSans-44" d="M 1259 4147 
L 1259 519 
L 2022 519 
Q 2988 519 3436 956 
Q 3884 1394 3884 2338 
Q 3884 3275 3436 3711 
Q 2988 4147 2022 4147 
L 1259 4147 
z
M 628 4666 
L 1925 4666 
Q 3281 4666 3915 4102 
Q 4550 3538 4550 2338 
Q 4550 1131 3912 565 
Q 3275 0 1925 0 
L 628 0 
L 628 4666 
z
" transform="scale(0.015625)"/>
      <path id="DejaVuSans-49" d="M 628 4666 
L 1259 4666 
L 1259 0 
L 628 0 
L 628 4666 
z
" transform="scale(0.015625)"/>
     </defs>
     <use xlink:href="#DejaVuSans-39"/>
     <use xlink:href="#DejaVuSans-35" x="63.623047"/>
     <use xlink:href="#DejaVuSans-25" x="127.246094"/>
     <use xlink:href="#DejaVuSans-20" x="222.265625"/>
     <use xlink:href="#DejaVuSans-48" x="254.052734"/>
     <use xlink:href="#DejaVuSans-44" x="329.248047"/>
     <use xlink:href="#DejaVuSans-49" x="406.25"/>
    </g>
   </g>
   <g id="text_9">
    <!-- mean=0.05 -->
    <g transform="translate(265.028205 106.11648) scale(0.15 -0.15)">
     <defs>
      <path id="DejaVuSans-6d" d="M 3328 2828 
Q 3544 3216 3844 3400 
Q 4144 3584 4550 3584 
Q 5097 3584 5394 3201 
Q 5691 2819 5691 2113 
L 5691 0 
L 5113 0 
L 5113 2094 
Q 5113 2597 4934 2840 
Q 4756 3084 4391 3084 
Q 3944 3084 3684 2787 
Q 3425 2491 3425 1978 
L 3425 0 
L 2847 0 
L 2847 2094 
Q 2847 2600 2669 2842 
Q 2491 3084 2119 3084 
Q 1678 3084 1418 2786 
Q 1159 2488 1159 1978 
L 1159 0 
L 581 0 
L 581 3500 
L 1159 3500 
L 1159 2956 
Q 1356 3278 1631 3431 
Q 1906 3584 2284 3584 
Q 2666 3584 2933 3390 
Q 3200 3197 3328 2828 
z
" transform="scale(0.015625)"/>
      <path id="DejaVuSans-65" d="M 3597 1894 
L 3597 1613 
L 953 1613 
Q 991 1019 1311 708 
Q 1631 397 2203 397 
Q 2534 397 2845 478 
Q 3156 559 3463 722 
L 3463 178 
Q 3153 47 2828 -22 
Q 2503 -91 2169 -91 
Q 1331 -91 842 396 
Q 353 884 353 1716 
Q 353 2575 817 3079 
Q 1281 3584 2069 3584 
Q 2775 3584 3186 3129 
Q 3597 2675 3597 1894 
z
M 3022 2063 
Q 3016 2534 2758 2815 
Q 2500 3097 2075 3097 
Q 1594 3097 1305 2825 
Q 1016 2553 972 2059 
L 3022 2063 
z
" transform="scale(0.015625)"/>
      <path id="DejaVuSans-61" d="M 2194 1759 
Q 1497 1759 1228 1600 
Q 959 1441 959 1056 
Q 959 750 1161 570 
Q 1363 391 1709 391 
Q 2188 391 2477 730 
Q 2766 1069 2766 1631 
L 2766 1759 
L 2194 1759 
z
M 3341 1997 
L 3341 0 
L 2766 0 
L 2766 531 
Q 2569 213 2275 61 
Q 1981 -91 1556 -91 
Q 1019 -91 701 211 
Q 384 513 384 1019 
Q 384 1609 779 1909 
Q 1175 2209 1959 2209 
L 2766 2209 
L 2766 2266 
Q 2766 2663 2505 2880 
Q 2244 3097 1772 3097 
Q 1472 3097 1187 3025 
Q 903 2953 641 2809 
L 641 3341 
Q 956 3463 1253 3523 
Q 1550 3584 1831 3584 
Q 2591 3584 2966 3190 
Q 3341 2797 3341 1997 
z
" transform="scale(0.015625)"/>
      <path id="DejaVuSans-6e" d="M 3513 2113 
L 3513 0 
L 2938 0 
L 2938 2094 
Q 2938 2591 2744 2837 
Q 2550 3084 2163 3084 
Q 1697 3084 1428 2787 
Q 1159 2491 1159 1978 
L 1159 0 
L 581 0 
L 581 3500 
L 1159 3500 
L 1159 2956 
Q 1366 3272 1645 3428 
Q 1925 3584 2291 3584 
Q 2894 3584 3203 3211 
Q 3513 2838 3513 2113 
z
" transform="scale(0.015625)"/>
      <path id="DejaVuSans-3d" d="M 678 2906 
L 4684 2906 
L 4684 2381 
L 678 2381 
L 678 2906 
z
M 678 1631 
L 4684 1631 
L 4684 1100 
L 678 1100 
L 678 1631 
z
" transform="scale(0.015625)"/>
     </defs>
     <use xlink:href="#DejaVuSans-6d"/>
     <use xlink:href="#DejaVuSans-65" x="97.412109"/>
     <use xlink:href="#DejaVuSans-61" x="158.935547"/>
     <use xlink:href="#DejaVuSans-6e" x="220.214844"/>
     <use xlink:href="#DejaVuSans-3d" x="283.59375"/>
     <use xlink:href="#DejaVuSans-30" x="367.382812"/>
     <use xlink:href="#DejaVuSans-2e" x="431.005859"/>
     <use xlink:href="#DejaVuSans-30" x="462.792969"/>
     <use xlink:href="#DejaVuSans-35" x="526.416016"/>
    </g>
   </g>
   <g id="text_10">
    <!-- θ -->
    <g transform="translate(314.261364 41.6928) scale(0.16 -0.16)">
     <defs>
      <path id="DejaVuSans-3b8" d="M 2953 2219 
L 963 2219 
Q 1009 1284 1225 888 
Q 1494 400 1959 400 
Q 2428 400 2688 891 
Q 2916 1322 2953 2219 
z
M 2944 2750 
Q 2856 3638 2688 3950 
Q 2419 4444 1959 4444 
Q 1481 4444 1228 3956 
Q 1028 3563 969 2750 
L 2944 2750 
z
M 1959 4913 
Q 2709 4913 3138 4250 
Q 3566 3591 3566 2422 
Q 3566 1256 3138 594 
Q 2709 -72 1959 -72 
Q 1206 -72 781 594 
Q 353 1256 353 2422 
Q 353 3591 781 4250 
Q 1206 4913 1959 4913 
z
" transform="scale(0.015625)"/>
     </defs>
     <use xlink:href="#DejaVuSans-3b8"/>
    </g>
   </g>
  </g>
  <g id="axes_2">
   <g id="patch_4">
    <path d="M 580.503273 353.7216 
L 953.856 353.7216 
L 953.856 47.6928 
L 580.503273 47.6928 
z
" style="fill: #ffffff"/>
   </g>
   <g id="PolyCollection_2">
    <defs>
     <path id="m20b6a58ce7" d="M 597.473851 -57.6288 
L 597.473851 -57.641491 
L 598.138062 -57.641437 
L 598.802272 -57.641398 
L 599.466483 -57.641563 
L 600.130693 -57.642169 
L 600.794904 -57.643391 
L 601.459114 -57.64506 
L 602.123325 -57.646863 
L 602.787535 -57.648488 
L 603.451746 -57.64965 
L 604.115956 -57.650286 
L 604.780167 -57.650334 
L 605.444377 -57.650086 
L 606.108588 -57.649729 
L 606.772798 -57.649374 
L 607.437009 -57.649147 
L 608.101219 -57.649153 
L 608.76543 -57.649518 
L 609.42964 -57.650607 
L 610.093851 -57.652288 
L 610.758061 -57.655048 
L 611.422272 -57.658682 
L 612.086482 -57.66334 
L 612.750693 -57.668745 
L 613.414903 -57.674624 
L 614.079114 -57.680681 
L 614.743324 -57.6868 
L 615.407535 -57.692352 
L 616.071745 -57.697364 
L 616.735956 -57.701926 
L 617.400167 -57.705994 
L 618.064377 -57.70978 
L 618.728588 -57.71366 
L 619.392798 -57.717759 
L 620.057009 -57.722137 
L 620.721219 -57.726473 
L 621.38543 -57.730634 
L 622.04964 -57.734799 
L 622.713851 -57.73903 
L 623.378061 -57.744691 
L 624.042272 -57.752875 
L 624.706482 -57.764929 
L 625.370693 -57.781604 
L 626.034903 -57.803385 
L 626.699114 -57.829794 
L 627.363324 -57.859232 
L 628.027535 -57.889572 
L 628.691745 -57.919303 
L 629.355956 -57.9466 
L 630.020166 -57.970628 
L 630.684377 -57.99068 
L 631.348587 -58.006903 
L 632.012798 -58.020868 
L 632.677008 -58.03356 
L 633.341219 -58.046845 
L 634.005429 -58.062143 
L 634.66964 -58.081199 
L 635.33385 -58.104465 
L 635.998061 -58.131646 
L 636.662271 -58.162932 
L 637.326482 -58.19933 
L 637.990692 -58.240353 
L 638.654903 -58.286325 
L 639.319113 -58.338603 
L 639.983324 -58.396938 
L 640.647534 -58.460417 
L 641.311745 -58.527928 
L 641.975955 -58.597832 
L 642.640166 -58.670106 
L 643.304376 -58.743038 
L 643.968587 -58.818063 
L 644.632797 -58.894714 
L 645.297008 -58.972934 
L 645.961218 -59.054442 
L 646.625429 -59.138353 
L 647.289639 -59.225312 
L 647.95385 -59.315104 
L 648.61806 -59.408545 
L 649.282271 -59.505433 
L 649.946481 -59.60814 
L 650.610692 -59.718271 
L 651.274902 -59.835506 
L 651.939113 -59.960479 
L 652.603324 -60.094454 
L 653.267534 -60.235959 
L 653.931745 -60.382021 
L 654.595955 -60.530838 
L 655.260166 -60.679449 
L 655.924376 -60.827464 
L 656.588587 -60.976481 
L 657.252797 -61.131478 
L 657.917008 -61.303154 
L 658.581218 -61.49736 
L 659.245429 -61.722639 
L 659.909639 -61.981232 
L 660.57385 -62.268454 
L 661.23806 -62.576512 
L 661.902271 -62.894751 
L 662.566481 -63.216263 
L 663.230692 -63.537762 
L 663.894902 -63.861602 
L 664.559113 -64.191846 
L 665.223323 -64.536667 
L 665.887534 -64.897508 
L 666.551744 -65.276045 
L 667.215955 -65.668324 
L 667.880165 -66.068985 
L 668.544376 -66.474577 
L 669.208586 -66.884256 
L 669.872797 -67.298293 
L 670.537007 -67.719249 
L 671.201218 -68.157675 
L 671.865428 -68.618006 
L 672.529639 -69.107354 
L 673.193849 -69.631535 
L 673.85806 -70.19687 
L 674.52227 -70.799671 
L 675.186481 -71.439951 
L 675.850691 -72.114355 
L 676.514902 -72.818075 
L 677.179112 -73.547786 
L 677.843323 -74.29246 
L 678.507533 -75.048729 
L 679.171744 -75.803302 
L 679.835954 -76.55181 
L 680.500165 -77.297267 
L 681.164375 -78.04464 
L 681.828586 -78.815068 
L 682.492796 -79.630005 
L 683.157007 -80.509314 
L 683.821217 -81.464293 
L 684.485428 -82.491927 
L 685.149638 -83.575538 
L 685.813849 -84.690709 
L 686.478059 -85.817827 
L 687.14227 -86.936867 
L 687.806481 -88.038467 
L 688.470691 -89.126947 
L 689.134902 -90.213342 
L 689.799112 -91.309466 
L 690.463323 -92.428255 
L 691.127533 -93.582656 
L 691.791744 -94.773047 
L 692.455954 -96.007736 
L 693.120165 -97.291003 
L 693.784375 -98.636927 
L 694.448586 -100.048344 
L 695.112796 -101.539319 
L 695.777007 -103.119458 
L 696.441217 -104.788464 
L 697.105428 -106.541444 
L 697.769638 -108.360201 
L 698.433849 -110.228018 
L 699.098059 -112.124135 
L 699.76227 -114.029101 
L 700.42648 -115.921601 
L 701.090691 -117.801914 
L 701.754901 -119.680194 
L 702.419112 -121.570166 
L 703.083322 -123.494397 
L 703.747533 -125.471509 
L 704.411743 -127.522659 
L 705.075954 -129.654357 
L 705.740164 -131.856142 
L 706.404375 -134.133641 
L 707.068585 -136.476593 
L 707.732796 -138.873998 
L 708.397006 -141.320763 
L 709.061217 -143.796799 
L 709.725427 -146.285521 
L 710.389638 -148.768863 
L 711.053848 -151.235796 
L 711.718059 -153.702824 
L 712.382269 -156.184876 
L 713.04648 -158.696308 
L 713.71069 -161.249656 
L 714.374901 -163.858124 
L 715.039111 -166.515702 
L 715.703322 -169.206147 
L 716.367532 -171.926321 
L 717.031743 -174.678398 
L 717.695953 -177.470344 
L 718.360164 -180.291805 
L 719.024374 -183.128751 
L 719.688585 -185.975192 
L 720.352795 -188.834136 
L 721.017006 -191.694656 
L 721.681216 -194.566178 
L 722.345427 -197.45794 
L 723.009637 -200.391084 
L 723.673848 -203.368787 
L 724.338059 -206.38598 
L 725.002269 -209.441078 
L 725.66648 -212.518679 
L 726.33069 -215.607884 
L 726.994901 -218.704674 
L 727.659111 -221.804139 
L 728.323322 -224.898464 
L 728.987532 -227.971403 
L 729.651743 -231.0262 
L 730.315953 -234.061368 
L 730.980164 -237.060889 
L 731.644374 -240.038295 
L 732.308585 -242.993124 
L 732.972795 -245.949162 
L 733.637006 -248.911205 
L 734.301216 -251.878716 
L 734.965427 -254.853286 
L 735.629637 -257.818074 
L 736.293848 -260.755676 
L 736.958058 -263.646187 
L 737.622269 -266.456901 
L 738.286479 -269.193085 
L 738.95069 -271.854333 
L 739.6149 -274.465093 
L 740.279111 -277.032278 
L 740.943321 -279.567482 
L 741.607532 -282.088532 
L 742.271742 -284.592044 
L 742.935953 -287.089441 
L 743.600163 -289.589894 
L 744.264374 -292.088627 
L 744.928584 -294.591975 
L 745.592795 -297.102434 
L 746.257005 -299.588796 
L 746.921216 -302.02678 
L 747.585426 -304.387102 
L 748.249637 -306.636055 
L 748.913847 -308.774833 
L 749.578058 -310.80529 
L 750.242268 -312.738056 
L 750.906479 -314.582587 
L 751.570689 -316.321437 
L 752.2349 -317.966886 
L 752.89911 -319.478188 
L 753.563321 -320.853388 
L 754.227531 -322.109045 
L 754.891742 -323.287132 
L 755.555952 -324.448693 
L 756.220163 -325.635607 
L 756.884373 -326.865715 
L 757.548584 -328.14132 
L 758.212794 -329.433425 
L 758.877005 -330.712323 
L 759.541216 -331.931701 
L 760.205426 -333.045313 
L 760.869637 -334.012163 
L 761.533847 -334.804295 
L 762.198058 -335.37618 
L 762.862268 -335.730083 
L 763.526479 -335.8368 
L 764.190689 -335.719391 
L 764.8549 -335.443672 
L 765.51911 -335.040252 
L 766.183321 -334.5707 
L 766.847531 -334.066856 
L 767.511742 -333.584832 
L 768.175952 -333.110524 
L 768.840163 -332.633268 
L 769.504373 -332.116123 
L 770.168584 -331.490584 
L 770.832794 -330.7182 
L 771.497005 -329.76358 
L 772.161215 -328.611341 
L 772.825426 -327.300044 
L 773.489636 -325.867026 
L 774.153847 -324.371221 
L 774.818057 -322.872822 
L 775.482268 -321.391038 
L 776.146478 -319.912844 
L 776.810689 -318.450633 
L 777.474899 -316.95824 
L 778.13911 -315.426903 
L 778.80332 -313.831328 
L 779.467531 -312.12125 
L 780.131741 -310.294467 
L 780.795952 -308.339953 
L 781.460162 -306.254932 
L 782.124373 -304.043911 
L 782.788583 -301.74858 
L 783.452794 -299.378013 
L 784.117004 -296.943393 
L 784.781215 -294.438469 
L 785.445425 -291.85899 
L 786.109636 -289.21604 
L 786.773846 -286.515029 
L 787.438057 -283.783654 
L 788.102267 -281.059726 
L 788.766478 -278.339982 
L 789.430688 -275.639268 
L 790.094899 -272.942257 
L 790.759109 -270.233088 
L 791.42332 -267.491746 
L 792.08753 -264.729692 
L 792.751741 -261.966884 
L 793.415951 -259.210055 
L 794.080162 -256.492386 
L 794.744372 -253.810424 
L 795.408583 -251.154775 
L 796.072794 -248.519052 
L 796.737004 -245.90914 
L 797.401215 -243.293649 
L 798.065425 -240.65867 
L 798.729636 -237.984159 
L 799.393846 -235.233418 
L 800.058057 -232.394244 
L 800.722267 -229.457522 
L 801.386478 -226.440845 
L 802.050688 -223.389037 
L 802.714899 -220.335205 
L 803.379109 -217.304697 
L 804.04332 -214.289716 
L 804.70753 -211.280567 
L 805.371741 -208.244666 
L 806.035951 -205.166416 
L 806.700162 -202.053859 
L 807.364372 -198.932583 
L 808.028583 -195.846468 
L 808.692793 -192.829682 
L 809.357004 -189.905937 
L 810.021214 -187.072009 
L 810.685425 -184.306678 
L 811.349635 -181.556752 
L 812.013846 -178.808592 
L 812.678056 -176.032794 
L 813.342267 -173.221846 
L 814.006477 -170.393893 
L 814.670688 -167.572811 
L 815.334898 -164.801952 
L 815.999109 -162.107564 
L 816.663319 -159.497559 
L 817.32753 -156.967875 
L 817.99174 -154.500651 
L 818.655951 -152.059387 
L 819.320161 -149.621882 
L 819.984372 -147.169998 
L 820.648582 -144.69852 
L 821.312793 -142.227118 
L 821.977003 -139.77604 
L 822.641214 -137.372274 
L 823.305424 -135.038657 
L 823.969635 -132.796836 
L 824.633845 -130.646458 
L 825.298056 -128.581699 
L 825.962266 -126.588244 
L 826.626477 -124.632016 
L 827.290687 -122.696678 
L 827.954898 -120.772738 
L 828.619108 -118.851363 
L 829.283319 -116.941534 
L 829.947529 -115.062177 
L 830.61174 -113.221744 
L 831.275951 -111.435376 
L 831.940161 -109.717022 
L 832.604372 -108.062471 
L 833.268582 -106.475047 
L 833.932793 -104.94905 
L 834.597003 -103.480118 
L 835.261214 -102.063664 
L 835.925424 -100.686908 
L 836.589635 -99.342668 
L 837.253845 -98.022881 
L 837.918056 -96.719404 
L 838.582266 -95.424666 
L 839.246477 -94.143421 
L 839.910687 -92.867507 
L 840.574898 -91.601981 
L 841.239108 -90.36027 
L 841.903319 -89.149764 
L 842.567529 -87.982339 
L 843.23174 -86.867057 
L 843.89595 -85.8043 
L 844.560161 -84.78489 
L 845.224371 -83.803977 
L 845.888582 -82.836772 
L 846.552792 -81.870656 
L 847.217003 -80.903484 
L 847.881213 -79.936879 
L 848.545424 -78.987324 
L 849.209634 -78.069671 
L 849.873845 -77.194123 
L 850.538055 -76.373348 
L 851.202266 -75.606311 
L 851.866476 -74.883806 
L 852.530687 -74.194076 
L 853.194897 -73.521924 
L 853.859108 -72.859499 
L 854.523318 -72.205074 
L 855.187529 -71.559845 
L 855.851739 -70.922532 
L 856.51595 -70.306471 
L 857.18016 -69.715091 
L 857.844371 -69.158054 
L 858.508581 -68.636617 
L 859.172792 -68.152083 
L 859.837002 -67.700517 
L 860.501213 -67.271382 
L 861.165423 -66.859575 
L 861.829634 -66.458436 
L 862.493844 -66.062879 
L 863.158055 -65.673721 
L 863.822265 -65.290655 
L 864.486476 -64.917863 
L 865.150686 -64.553046 
L 865.814897 -64.19748 
L 866.479108 -63.852051 
L 867.143318 -63.517974 
L 867.807529 -63.202277 
L 868.471739 -62.908588 
L 869.13595 -62.639673 
L 869.80016 -62.395498 
L 870.464371 -62.17451 
L 871.128581 -61.972565 
L 871.792792 -61.781331 
L 872.457002 -61.597578 
L 873.121213 -61.41566 
L 873.785423 -61.236118 
L 874.449634 -61.055841 
L 875.113844 -60.87732 
L 875.778055 -60.698765 
L 876.442265 -60.521696 
L 877.106476 -60.349737 
L 877.770686 -60.185545 
L 878.434897 -60.033082 
L 879.099107 -59.894511 
L 879.763318 -59.77278 
L 880.427528 -59.666057 
L 881.091739 -59.573905 
L 881.755949 -59.492695 
L 882.42016 -59.418021 
L 883.08437 -59.346154 
L 883.748581 -59.275221 
L 884.412791 -59.202528 
L 885.077002 -59.125114 
L 885.741212 -59.042839 
L 886.405423 -58.957051 
L 887.069633 -58.868793 
L 887.733844 -58.782457 
L 888.398054 -58.701036 
L 889.062265 -58.627972 
L 889.726475 -58.564429 
L 890.390686 -58.510111 
L 891.054896 -58.462308 
L 891.719107 -58.418743 
L 892.383317 -58.376252 
L 893.047528 -58.333977 
L 893.711738 -58.291466 
L 894.375949 -58.249357 
L 895.040159 -58.208829 
L 895.70437 -58.170705 
L 896.36858 -58.135412 
L 897.032791 -58.102573 
L 897.697001 -58.072283 
L 898.361212 -58.04306 
L 899.025422 -58.015239 
L 899.689633 -57.989151 
L 900.353843 -57.965135 
L 901.018054 -57.943655 
L 901.682264 -57.925651 
L 902.346475 -57.910189 
L 903.010686 -57.896586 
L 903.674896 -57.883502 
L 904.339107 -57.869527 
L 905.003317 -57.854146 
L 905.667528 -57.83748 
L 906.331738 -57.819844 
L 906.995949 -57.802178 
L 907.660159 -57.785068 
L 908.32437 -57.768973 
L 908.98858 -57.753598 
L 909.652791 -57.738852 
L 910.317001 -57.725036 
L 910.981212 -57.711999 
L 911.645422 -57.700827 
L 912.309633 -57.691961 
L 912.973843 -57.685839 
L 913.638054 -57.682224 
L 914.302264 -57.680742 
L 914.966475 -57.680416 
L 915.630685 -57.680619 
L 916.294896 -57.680353 
L 916.959106 -57.679624 
L 917.623317 -57.678117 
L 918.287527 -57.67622 
L 918.951738 -57.674157 
L 919.615948 -57.672434 
L 920.280159 -57.671012 
L 920.944369 -57.669952 
L 921.60858 -57.668995 
L 922.27279 -57.667646 
L 922.937001 -57.665707 
L 923.601211 -57.663049 
L 924.265422 -57.659718 
L 924.929632 -57.655985 
L 925.593843 -57.652324 
L 926.258053 -57.648891 
L 926.922264 -57.645855 
L 927.586474 -57.643297 
L 928.250685 -57.640998 
L 928.914895 -57.638831 
L 929.579106 -57.636865 
L 930.243316 -57.635127 
L 930.907527 -57.633725 
L 931.571737 -57.63292 
L 932.235948 -57.632808 
L 932.900158 -57.633511 
L 933.564369 -57.635097 
L 934.228579 -57.63747 
L 934.89279 -57.640477 
L 935.557 -57.643659 
L 936.221211 -57.64647 
L 936.885421 -57.648461 
L 936.885421 -57.6288 
L 936.885421 -57.6288 
L 936.221211 -57.6288 
L 935.557 -57.6288 
L 934.89279 -57.6288 
L 934.228579 -57.6288 
L 933.564369 -57.6288 
L 932.900158 -57.6288 
L 932.235948 -57.6288 
L 931.571737 -57.6288 
L 930.907527 -57.6288 
L 930.243316 -57.6288 
L 929.579106 -57.6288 
L 928.914895 -57.6288 
L 928.250685 -57.6288 
L 927.586474 -57.6288 
L 926.922264 -57.6288 
L 926.258053 -57.6288 
L 925.593843 -57.6288 
L 924.929632 -57.6288 
L 924.265422 -57.6288 
L 923.601211 -57.6288 
L 922.937001 -57.6288 
L 922.27279 -57.6288 
L 921.60858 -57.6288 
L 920.944369 -57.6288 
L 920.280159 -57.6288 
L 919.615948 -57.6288 
L 918.951738 -57.6288 
L 918.287527 -57.6288 
L 917.623317 -57.6288 
L 916.959106 -57.6288 
L 916.294896 -57.6288 
L 915.630685 -57.6288 
L 914.966475 -57.6288 
L 914.302264 -57.6288 
L 913.638054 -57.6288 
L 912.973843 -57.6288 
L 912.309633 -57.6288 
L 911.645422 -57.6288 
L 910.981212 -57.6288 
L 910.317001 -57.6288 
L 909.652791 -57.6288 
L 908.98858 -57.6288 
L 908.32437 -57.6288 
L 907.660159 -57.6288 
L 906.995949 -57.6288 
L 906.331738 -57.6288 
L 905.667528 -57.6288 
L 905.003317 -57.6288 
L 904.339107 -57.6288 
L 903.674896 -57.6288 
L 903.010686 -57.6288 
L 902.346475 -57.6288 
L 901.682264 -57.6288 
L 901.018054 -57.6288 
L 900.353843 -57.6288 
L 899.689633 -57.6288 
L 899.025422 -57.6288 
L 898.361212 -57.6288 
L 897.697001 -57.6288 
L 897.032791 -57.6288 
L 896.36858 -57.6288 
L 895.70437 -57.6288 
L 895.040159 -57.6288 
L 894.375949 -57.6288 
L 893.711738 -57.6288 
L 893.047528 -57.6288 
L 892.383317 -57.6288 
L 891.719107 -57.6288 
L 891.054896 -57.6288 
L 890.390686 -57.6288 
L 889.726475 -57.6288 
L 889.062265 -57.6288 
L 888.398054 -57.6288 
L 887.733844 -57.6288 
L 887.069633 -57.6288 
L 886.405423 -57.6288 
L 885.741212 -57.6288 
L 885.077002 -57.6288 
L 884.412791 -57.6288 
L 883.748581 -57.6288 
L 883.08437 -57.6288 
L 882.42016 -57.6288 
L 881.755949 -57.6288 
L 881.091739 -57.6288 
L 880.427528 -57.6288 
L 879.763318 -57.6288 
L 879.099107 -57.6288 
L 878.434897 -57.6288 
L 877.770686 -57.6288 
L 877.106476 -57.6288 
L 876.442265 -57.6288 
L 875.778055 -57.6288 
L 875.113844 -57.6288 
L 874.449634 -57.6288 
L 873.785423 -57.6288 
L 873.121213 -57.6288 
L 872.457002 -57.6288 
L 871.792792 -57.6288 
L 871.128581 -57.6288 
L 870.464371 -57.6288 
L 869.80016 -57.6288 
L 869.13595 -57.6288 
L 868.471739 -57.6288 
L 867.807529 -57.6288 
L 867.143318 -57.6288 
L 866.479108 -57.6288 
L 865.814897 -57.6288 
L 865.150686 -57.6288 
L 864.486476 -57.6288 
L 863.822265 -57.6288 
L 863.158055 -57.6288 
L 862.493844 -57.6288 
L 861.829634 -57.6288 
L 861.165423 -57.6288 
L 860.501213 -57.6288 
L 859.837002 -57.6288 
L 859.172792 -57.6288 
L 858.508581 -57.6288 
L 857.844371 -57.6288 
L 857.18016 -57.6288 
L 856.51595 -57.6288 
L 855.851739 -57.6288 
L 855.187529 -57.6288 
L 854.523318 -57.6288 
L 853.859108 -57.6288 
L 853.194897 -57.6288 
L 852.530687 -57.6288 
L 851.866476 -57.6288 
L 851.202266 -57.6288 
L 850.538055 -57.6288 
L 849.873845 -57.6288 
L 849.209634 -57.6288 
L 848.545424 -57.6288 
L 847.881213 -57.6288 
L 847.217003 -57.6288 
L 846.552792 -57.6288 
L 845.888582 -57.6288 
L 845.224371 -57.6288 
L 844.560161 -57.6288 
L 843.89595 -57.6288 
L 843.23174 -57.6288 
L 842.567529 -57.6288 
L 841.903319 -57.6288 
L 841.239108 -57.6288 
L 840.574898 -57.6288 
L 839.910687 -57.6288 
L 839.246477 -57.6288 
L 838.582266 -57.6288 
L 837.918056 -57.6288 
L 837.253845 -57.6288 
L 836.589635 -57.6288 
L 835.925424 -57.6288 
L 835.261214 -57.6288 
L 834.597003 -57.6288 
L 833.932793 -57.6288 
L 833.268582 -57.6288 
L 832.604372 -57.6288 
L 831.940161 -57.6288 
L 831.275951 -57.6288 
L 830.61174 -57.6288 
L 829.947529 -57.6288 
L 829.283319 -57.6288 
L 828.619108 -57.6288 
L 827.954898 -57.6288 
L 827.290687 -57.6288 
L 826.626477 -57.6288 
L 825.962266 -57.6288 
L 825.298056 -57.6288 
L 824.633845 -57.6288 
L 823.969635 -57.6288 
L 823.305424 -57.6288 
L 822.641214 -57.6288 
L 821.977003 -57.6288 
L 821.312793 -57.6288 
L 820.648582 -57.6288 
L 819.984372 -57.6288 
L 819.320161 -57.6288 
L 818.655951 -57.6288 
L 817.99174 -57.6288 
L 817.32753 -57.6288 
L 816.663319 -57.6288 
L 815.999109 -57.6288 
L 815.334898 -57.6288 
L 814.670688 -57.6288 
L 814.006477 -57.6288 
L 813.342267 -57.6288 
L 812.678056 -57.6288 
L 812.013846 -57.6288 
L 811.349635 -57.6288 
L 810.685425 -57.6288 
L 810.021214 -57.6288 
L 809.357004 -57.6288 
L 808.692793 -57.6288 
L 808.028583 -57.6288 
L 807.364372 -57.6288 
L 806.700162 -57.6288 
L 806.035951 -57.6288 
L 805.371741 -57.6288 
L 804.70753 -57.6288 
L 804.04332 -57.6288 
L 803.379109 -57.6288 
L 802.714899 -57.6288 
L 802.050688 -57.6288 
L 801.386478 -57.6288 
L 800.722267 -57.6288 
L 800.058057 -57.6288 
L 799.393846 -57.6288 
L 798.729636 -57.6288 
L 798.065425 -57.6288 
L 797.401215 -57.6288 
L 796.737004 -57.6288 
L 796.072794 -57.6288 
L 795.408583 -57.6288 
L 794.744372 -57.6288 
L 794.080162 -57.6288 
L 793.415951 -57.6288 
L 792.751741 -57.6288 
L 792.08753 -57.6288 
L 791.42332 -57.6288 
L 790.759109 -57.6288 
L 790.094899 -57.6288 
L 789.430688 -57.6288 
L 788.766478 -57.6288 
L 788.102267 -57.6288 
L 787.438057 -57.6288 
L 786.773846 -57.6288 
L 786.109636 -57.6288 
L 785.445425 -57.6288 
L 784.781215 -57.6288 
L 784.117004 -57.6288 
L 783.452794 -57.6288 
L 782.788583 -57.6288 
L 782.124373 -57.6288 
L 781.460162 -57.6288 
L 780.795952 -57.6288 
L 780.131741 -57.6288 
L 779.467531 -57.6288 
L 778.80332 -57.6288 
L 778.13911 -57.6288 
L 777.474899 -57.6288 
L 776.810689 -57.6288 
L 776.146478 -57.6288 
L 775.482268 -57.6288 
L 774.818057 -57.6288 
L 774.153847 -57.6288 
L 773.489636 -57.6288 
L 772.825426 -57.6288 
L 772.161215 -57.6288 
L 771.497005 -57.6288 
L 770.832794 -57.6288 
L 770.168584 -57.6288 
L 769.504373 -57.6288 
L 768.840163 -57.6288 
L 768.175952 -57.6288 
L 767.511742 -57.6288 
L 766.847531 -57.6288 
L 766.183321 -57.6288 
L 765.51911 -57.6288 
L 764.8549 -57.6288 
L 764.190689 -57.6288 
L 763.526479 -57.6288 
L 762.862268 -57.6288 
L 762.198058 -57.6288 
L 761.533847 -57.6288 
L 760.869637 -57.6288 
L 760.205426 -57.6288 
L 759.541216 -57.6288 
L 758.877005 -57.6288 
L 758.212794 -57.6288 
L 757.548584 -57.6288 
L 756.884373 -57.6288 
L 756.220163 -57.6288 
L 755.555952 -57.6288 
L 754.891742 -57.6288 
L 754.227531 -57.6288 
L 753.563321 -57.6288 
L 752.89911 -57.6288 
L 752.2349 -57.6288 
L 751.570689 -57.6288 
L 750.906479 -57.6288 
L 750.242268 -57.6288 
L 749.578058 -57.6288 
L 748.913847 -57.6288 
L 748.249637 -57.6288 
L 747.585426 -57.6288 
L 746.921216 -57.6288 
L 746.257005 -57.6288 
L 745.592795 -57.6288 
L 744.928584 -57.6288 
L 744.264374 -57.6288 
L 743.600163 -57.6288 
L 742.935953 -57.6288 
L 742.271742 -57.6288 
L 741.607532 -57.6288 
L 740.943321 -57.6288 
L 740.279111 -57.6288 
L 739.6149 -57.6288 
L 738.95069 -57.6288 
L 738.286479 -57.6288 
L 737.622269 -57.6288 
L 736.958058 -57.6288 
L 736.293848 -57.6288 
L 735.629637 -57.6288 
L 734.965427 -57.6288 
L 734.301216 -57.6288 
L 733.637006 -57.6288 
L 732.972795 -57.6288 
L 732.308585 -57.6288 
L 731.644374 -57.6288 
L 730.980164 -57.6288 
L 730.315953 -57.6288 
L 729.651743 -57.6288 
L 728.987532 -57.6288 
L 728.323322 -57.6288 
L 727.659111 -57.6288 
L 726.994901 -57.6288 
L 726.33069 -57.6288 
L 725.66648 -57.6288 
L 725.002269 -57.6288 
L 724.338059 -57.6288 
L 723.673848 -57.6288 
L 723.009637 -57.6288 
L 722.345427 -57.6288 
L 721.681216 -57.6288 
L 721.017006 -57.6288 
L 720.352795 -57.6288 
L 719.688585 -57.6288 
L 719.024374 -57.6288 
L 718.360164 -57.6288 
L 717.695953 -57.6288 
L 717.031743 -57.6288 
L 716.367532 -57.6288 
L 715.703322 -57.6288 
L 715.039111 -57.6288 
L 714.374901 -57.6288 
L 713.71069 -57.6288 
L 713.04648 -57.6288 
L 712.382269 -57.6288 
L 711.718059 -57.6288 
L 711.053848 -57.6288 
L 710.389638 -57.6288 
L 709.725427 -57.6288 
L 709.061217 -57.6288 
L 708.397006 -57.6288 
L 707.732796 -57.6288 
L 707.068585 -57.6288 
L 706.404375 -57.6288 
L 705.740164 -57.6288 
L 705.075954 -57.6288 
L 704.411743 -57.6288 
L 703.747533 -57.6288 
L 703.083322 -57.6288 
L 702.419112 -57.6288 
L 701.754901 -57.6288 
L 701.090691 -57.6288 
L 700.42648 -57.6288 
L 699.76227 -57.6288 
L 699.098059 -57.6288 
L 698.433849 -57.6288 
L 697.769638 -57.6288 
L 697.105428 -57.6288 
L 696.441217 -57.6288 
L 695.777007 -57.6288 
L 695.112796 -57.6288 
L 694.448586 -57.6288 
L 693.784375 -57.6288 
L 693.120165 -57.6288 
L 692.455954 -57.6288 
L 691.791744 -57.6288 
L 691.127533 -57.6288 
L 690.463323 -57.6288 
L 689.799112 -57.6288 
L 689.134902 -57.6288 
L 688.470691 -57.6288 
L 687.806481 -57.6288 
L 687.14227 -57.6288 
L 686.478059 -57.6288 
L 685.813849 -57.6288 
L 685.149638 -57.6288 
L 684.485428 -57.6288 
L 683.821217 -57.6288 
L 683.157007 -57.6288 
L 682.492796 -57.6288 
L 681.828586 -57.6288 
L 681.164375 -57.6288 
L 680.500165 -57.6288 
L 679.835954 -57.6288 
L 679.171744 -57.6288 
L 678.507533 -57.6288 
L 677.843323 -57.6288 
L 677.179112 -57.6288 
L 676.514902 -57.6288 
L 675.850691 -57.6288 
L 675.186481 -57.6288 
L 674.52227 -57.6288 
L 673.85806 -57.6288 
L 673.193849 -57.6288 
L 672.529639 -57.6288 
L 671.865428 -57.6288 
L 671.201218 -57.6288 
L 670.537007 -57.6288 
L 669.872797 -57.6288 
L 669.208586 -57.6288 
L 668.544376 -57.6288 
L 667.880165 -57.6288 
L 667.215955 -57.6288 
L 666.551744 -57.6288 
L 665.887534 -57.6288 
L 665.223323 -57.6288 
L 664.559113 -57.6288 
L 663.894902 -57.6288 
L 663.230692 -57.6288 
L 662.566481 -57.6288 
L 661.902271 -57.6288 
L 661.23806 -57.6288 
L 660.57385 -57.6288 
L 659.909639 -57.6288 
L 659.245429 -57.6288 
L 658.581218 -57.6288 
L 657.917008 -57.6288 
L 657.252797 -57.6288 
L 656.588587 -57.6288 
L 655.924376 -57.6288 
L 655.260166 -57.6288 
L 654.595955 -57.6288 
L 653.931745 -57.6288 
L 653.267534 -57.6288 
L 652.603324 -57.6288 
L 651.939113 -57.6288 
L 651.274902 -57.6288 
L 650.610692 -57.6288 
L 649.946481 -57.6288 
L 649.282271 -57.6288 
L 648.61806 -57.6288 
L 647.95385 -57.6288 
L 647.289639 -57.6288 
L 646.625429 -57.6288 
L 645.961218 -57.6288 
L 645.297008 -57.6288 
L 644.632797 -57.6288 
L 643.968587 -57.6288 
L 643.304376 -57.6288 
L 642.640166 -57.6288 
L 641.975955 -57.6288 
L 641.311745 -57.6288 
L 640.647534 -57.6288 
L 639.983324 -57.6288 
L 639.319113 -57.6288 
L 638.654903 -57.6288 
L 637.990692 -57.6288 
L 637.326482 -57.6288 
L 636.662271 -57.6288 
L 635.998061 -57.6288 
L 635.33385 -57.6288 
L 634.66964 -57.6288 
L 634.005429 -57.6288 
L 633.341219 -57.6288 
L 632.677008 -57.6288 
L 632.012798 -57.6288 
L 631.348587 -57.6288 
L 630.684377 -57.6288 
L 630.020166 -57.6288 
L 629.355956 -57.6288 
L 628.691745 -57.6288 
L 628.027535 -57.6288 
L 627.363324 -57.6288 
L 626.699114 -57.6288 
L 626.034903 -57.6288 
L 625.370693 -57.6288 
L 624.706482 -57.6288 
L 624.042272 -57.6288 
L 623.378061 -57.6288 
L 622.713851 -57.6288 
L 622.04964 -57.6288 
L 621.38543 -57.6288 
L 620.721219 -57.6288 
L 620.057009 -57.6288 
L 619.392798 -57.6288 
L 618.728588 -57.6288 
L 618.064377 -57.6288 
L 617.400167 -57.6288 
L 616.735956 -57.6288 
L 616.071745 -57.6288 
L 615.407535 -57.6288 
L 614.743324 -57.6288 
L 614.079114 -57.6288 
L 613.414903 -57.6288 
L 612.750693 -57.6288 
L 612.086482 -57.6288 
L 611.422272 -57.6288 
L 610.758061 -57.6288 
L 610.093851 -57.6288 
L 609.42964 -57.6288 
L 608.76543 -57.6288 
L 608.101219 -57.6288 
L 607.437009 -57.6288 
L 606.772798 -57.6288 
L 606.108588 -57.6288 
L 605.444377 -57.6288 
L 604.780167 -57.6288 
L 604.115956 -57.6288 
L 603.451746 -57.6288 
L 602.787535 -57.6288 
L 602.123325 -57.6288 
L 601.459114 -57.6288 
L 600.794904 -57.6288 
L 600.130693 -57.6288 
L 599.466483 -57.6288 
L 598.802272 -57.6288 
L 598.138062 -57.6288 
L 597.473851 -57.6288 
z
" style="stroke: #1f77b4; stroke-opacity: 0"/>
    </defs>
    <g clip-path="url(#pc5f0e93a89)">
     <use xlink:href="#m20b6a58ce7" x="0" y="397.44" style="fill: #1f77b4; fill-opacity: 0; stroke: #1f77b4; stroke-opacity: 0"/>
    </g>
   </g>
   <g id="matplotlib.axis_3">
    <g id="xtick_6">
     <g id="line2d_8">
      <g>
       <use xlink:href="#m3d5249e93f" x="586.092257" y="353.7216" style="fill: #808080; stroke: #808080"/>
      </g>
     </g>
     <g id="text_11">
      <!-- 0.0485 -->
      <g transform="translate(561.59882 370.859412) scale(0.14 -0.14)">
       <defs>
        <path id="DejaVuSans-38" d="M 2034 2216 
Q 1584 2216 1326 1975 
Q 1069 1734 1069 1313 
Q 1069 891 1326 650 
Q 1584 409 2034 409 
Q 2484 409 2743 651 
Q 3003 894 3003 1313 
Q 3003 1734 2745 1975 
Q 2488 2216 2034 2216 
z
M 1403 2484 
Q 997 2584 770 2862 
Q 544 3141 544 3541 
Q 544 4100 942 4425 
Q 1341 4750 2034 4750 
Q 2731 4750 3128 4425 
Q 3525 4100 3525 3541 
Q 3525 3141 3298 2862 
Q 3072 2584 2669 2484 
Q 3125 2378 3379 2068 
Q 3634 1759 3634 1313 
Q 3634 634 3220 271 
Q 2806 -91 2034 -91 
Q 1263 -91 848 271 
Q 434 634 434 1313 
Q 434 1759 690 2068 
Q 947 2378 1403 2484 
z
M 1172 3481 
Q 1172 3119 1398 2916 
Q 1625 2713 2034 2713 
Q 2441 2713 2670 2916 
Q 2900 3119 2900 3481 
Q 2900 3844 2670 4047 
Q 2441 4250 2034 4250 
Q 1625 4250 1398 4047 
Q 1172 3844 1172 3481 
z
" transform="scale(0.015625)"/>
       </defs>
       <use xlink:href="#DejaVuSans-30"/>
       <use xlink:href="#DejaVuSans-2e" x="63.623047"/>
       <use xlink:href="#DejaVuSans-30" x="95.410156"/>
       <use xlink:href="#DejaVuSans-34" x="159.033203"/>
       <use xlink:href="#DejaVuSans-38" x="222.65625"/>
       <use xlink:href="#DejaVuSans-35" x="286.279297"/>
      </g>
     </g>
    </g>
    <g id="xtick_7">
     <g id="line2d_9">
      <g>
       <use xlink:href="#m3d5249e93f" x="645.559881" y="353.7216" style="fill: #808080; stroke: #808080"/>
      </g>
     </g>
     <g id="text_12">
      <!-- 0.0490 -->
      <g transform="translate(621.066444 370.859412) scale(0.14 -0.14)">
       <use xlink:href="#DejaVuSans-30"/>
       <use xlink:href="#DejaVuSans-2e" x="63.623047"/>
       <use xlink:href="#DejaVuSans-30" x="95.410156"/>
       <use xlink:href="#DejaVuSans-34" x="159.033203"/>
       <use xlink:href="#DejaVuSans-39" x="222.65625"/>
       <use xlink:href="#DejaVuSans-30" x="286.279297"/>
      </g>
     </g>
    </g>
    <g id="xtick_8">
     <g id="line2d_10">
      <g>
       <use xlink:href="#m3d5249e93f" x="705.027505" y="353.7216" style="fill: #808080; stroke: #808080"/>
      </g>
     </g>
     <g id="text_13">
      <!-- 0.0495 -->
      <g transform="translate(680.534068 370.859412) scale(0.14 -0.14)">
       <use xlink:href="#DejaVuSans-30"/>
       <use xlink:href="#DejaVuSans-2e" x="63.623047"/>
       <use xlink:href="#DejaVuSans-30" x="95.410156"/>
       <use xlink:href="#DejaVuSans-34" x="159.033203"/>
       <use xlink:href="#DejaVuSans-39" x="222.65625"/>
       <use xlink:href="#DejaVuSans-35" x="286.279297"/>
      </g>
     </g>
    </g>
    <g id="xtick_9">
     <g id="line2d_11">
      <g>
       <use xlink:href="#m3d5249e93f" x="764.495129" y="353.7216" style="fill: #808080; stroke: #808080"/>
      </g>
     </g>
     <g id="text_14">
      <!-- 0.0500 -->
      <g transform="translate(740.001692 370.859412) scale(0.14 -0.14)">
       <use xlink:href="#DejaVuSans-30"/>
       <use xlink:href="#DejaVuSans-2e" x="63.623047"/>
       <use xlink:href="#DejaVuSans-30" x="95.410156"/>
       <use xlink:href="#DejaVuSans-35" x="159.033203"/>
       <use xlink:href="#DejaVuSans-30" x="222.65625"/>
       <use xlink:href="#DejaVuSans-30" x="286.279297"/>
      </g>
     </g>
    </g>
    <g id="xtick_10">
     <g id="line2d_12">
      <g>
       <use xlink:href="#m3d5249e93f" x="823.962753" y="353.7216" style="fill: #808080; stroke: #808080"/>
      </g>
     </g>
     <g id="text_15">
      <!-- 0.0505 -->
      <g transform="translate(799.469315 370.859412) scale(0.14 -0.14)">
       <use xlink:href="#DejaVuSans-30"/>
       <use xlink:href="#DejaVuSans-2e" x="63.623047"/>
       <use xlink:href="#DejaVuSans-30" x="95.410156"/>
       <use xlink:href="#DejaVuSans-35" x="159.033203"/>
       <use xlink:href="#DejaVuSans-30" x="222.65625"/>
       <use xlink:href="#DejaVuSans-35" x="286.279297"/>
      </g>
     </g>
    </g>
    <g id="xtick_11">
     <g id="line2d_13">
      <g>
       <use xlink:href="#m3d5249e93f" x="883.430377" y="353.7216" style="fill: #808080; stroke: #808080"/>
      </g>
     </g>
     <g id="text_16">
      <!-- 0.0510 -->
      <g transform="translate(858.936939 370.859412) scale(0.14 -0.14)">
       <defs>
        <path id="DejaVuSans-31" d="M 794 531 
L 1825 531 
L 1825 4091 
L 703 3866 
L 703 4441 
L 1819 4666 
L 2450 4666 
L 2450 531 
L 3481 531 
L 3481 0 
L 794 0 
L 794 531 
z
" transform="scale(0.015625)"/>
       </defs>
       <use xlink:href="#DejaVuSans-30"/>
       <use xlink:href="#DejaVuSans-2e" x="63.623047"/>
       <use xlink:href="#DejaVuSans-30" x="95.410156"/>
       <use xlink:href="#DejaVuSans-35" x="159.033203"/>
       <use xlink:href="#DejaVuSans-31" x="222.65625"/>
       <use xlink:href="#DejaVuSans-30" x="286.279297"/>
      </g>
     </g>
    </g>
    <g id="xtick_12">
     <g id="line2d_14">
      <g>
       <use xlink:href="#m3d5249e93f" x="942.898001" y="353.7216" style="fill: #808080; stroke: #808080"/>
      </g>
     </g>
     <g id="text_17">
      <!-- 0.0515 -->
      <g transform="translate(918.404563 370.859412) scale(0.14 -0.14)">
       <use xlink:href="#DejaVuSans-30"/>
       <use xlink:href="#DejaVuSans-2e" x="63.623047"/>
       <use xlink:href="#DejaVuSans-30" x="95.410156"/>
       <use xlink:href="#DejaVuSans-35" x="159.033203"/>
       <use xlink:href="#DejaVuSans-31" x="222.65625"/>
       <use xlink:href="#DejaVuSans-35" x="286.279297"/>
      </g>
     </g>
    </g>
   </g>
   <g id="matplotlib.axis_4"/>
   <g id="line2d_15">
    <path d="M 597.473851 339.798509 
L 623.378061 339.695309 
L 628.691745 339.520697 
L 641.311745 338.912072 
L 648.61806 338.031455 
L 652.603324 337.345546 
L 657.917008 336.136846 
L 659.909639 335.458768 
L 663.230692 333.902238 
L 666.551744 332.163955 
L 670.537007 329.720751 
L 672.529639 328.332646 
L 674.52227 326.640329 
L 676.514902 324.621925 
L 681.828586 318.624932 
L 683.157007 316.930686 
L 684.485428 314.948073 
L 690.463323 305.011745 
L 692.455954 301.432264 
L 694.448586 297.391656 
L 696.441217 292.651536 
L 698.433849 287.211982 
L 704.411743 269.917341 
L 706.404375 263.306359 
L 709.061217 253.643201 
L 715.039111 230.924298 
L 718.360164 217.148195 
L 723.673848 194.071213 
L 729.651743 166.4138 
L 734.965427 142.586714 
L 738.286479 128.246915 
L 741.607532 115.351468 
L 747.585426 93.052898 
L 749.578058 86.63471 
L 751.570689 81.118563 
L 752.89911 77.961812 
L 754.227531 75.330955 
L 757.548584 69.29868 
L 759.541216 65.508299 
L 760.869637 63.427837 
L 761.533847 62.635705 
L 762.198058 62.06382 
L 762.862268 61.709917 
L 763.526479 61.6032 
L 764.190689 61.720609 
L 764.8549 61.996328 
L 766.183321 62.8693 
L 770.168584 65.949416 
L 770.832794 66.7218 
L 771.497005 67.67642 
L 772.825426 70.139956 
L 776.810689 78.989367 
L 778.80332 83.608672 
L 780.131741 87.145533 
L 781.460162 91.185068 
L 783.452794 98.061987 
L 785.445425 105.58101 
L 790.094899 124.497743 
L 801.386478 170.999155 
L 810.021214 210.367991 
L 817.32753 240.472125 
L 823.305424 262.401343 
L 825.298056 268.858301 
L 829.283319 280.498466 
L 831.940161 287.722978 
L 833.932793 292.49095 
L 836.589635 298.097332 
L 840.574898 305.838019 
L 843.23174 310.572943 
L 845.224371 313.636023 
L 849.873845 320.245877 
L 851.866476 322.556194 
L 855.187529 325.880155 
L 857.844371 328.281946 
L 859.837002 329.739483 
L 863.158055 331.766279 
L 866.479108 333.587949 
L 869.13595 334.800327 
L 871.792792 335.658669 
L 878.434897 337.406918 
L 881.091739 337.866095 
L 891.054896 338.977692 
L 899.689633 339.450849 
L 909.652791 339.701148 
L 917.623317 339.761883 
L 936.885421 339.791539 
L 936.885421 339.791539 
" clip-path="url(#pc5f0e93a89)" style="fill: none; stroke: #1f77b4; stroke-width: 1.5; stroke-linecap: square"/>
   </g>
   <g id="line2d_16">
    <path d="M 692.829364 333.968832 
L 836.846948 333.968832 
" clip-path="url(#pc5f0e93a89)" style="fill: none; stroke: #000000; stroke-width: 3"/>
   </g>
   <g id="patch_5">
    <path d="M 580.503273 353.7216 
L 953.856 353.7216 
" style="fill: none; stroke: #808080; stroke-width: 0.8; stroke-linejoin: miter; stroke-linecap: square"/>
   </g>
   <g id="text_18">
    <!-- 0.049  -->
    <g transform="translate(645.119989 319.362912) scale(0.15 -0.15)">
     <use xlink:href="#DejaVuSans-30"/>
     <use xlink:href="#DejaVuSans-2e" x="63.623047"/>
     <use xlink:href="#DejaVuSans-30" x="95.410156"/>
     <use xlink:href="#DejaVuSans-34" x="159.033203"/>
     <use xlink:href="#DejaVuSans-39" x="222.65625"/>
     <use xlink:href="#DejaVuSans-20" x="286.279297"/>
    </g>
   </g>
   <g id="text_19">
    <!--  0.051 -->
    <g transform="translate(836.846948 319.362912) scale(0.15 -0.15)">
     <use xlink:href="#DejaVuSans-20"/>
     <use xlink:href="#DejaVuSans-30" x="31.787109"/>
     <use xlink:href="#DejaVuSans-2e" x="95.410156"/>
     <use xlink:href="#DejaVuSans-30" x="127.197266"/>
     <use xlink:href="#DejaVuSans-35" x="190.820312"/>
     <use xlink:href="#DejaVuSans-31" x="254.443359"/>
    </g>
   </g>
   <g id="text_20">
    <!-- 95% HDI -->
    <g transform="translate(732.156906 252.17568) scale(0.15 -0.15)">
     <use xlink:href="#DejaVuSans-39"/>
     <use xlink:href="#DejaVuSans-35" x="63.623047"/>
     <use xlink:href="#DejaVuSans-25" x="127.246094"/>
     <use xlink:href="#DejaVuSans-20" x="222.265625"/>
     <use xlink:href="#DejaVuSans-48" x="254.052734"/>
     <use xlink:href="#DejaVuSans-44" x="329.248047"/>
     <use xlink:href="#DejaVuSans-49" x="406.25"/>
    </g>
   </g>
   <g id="text_21">
    <!-- mean=0.05 -->
    <g transform="translate(720.477636 106.11648) scale(0.15 -0.15)">
     <use xlink:href="#DejaVuSans-6d"/>
     <use xlink:href="#DejaVuSans-65" x="97.412109"/>
     <use xlink:href="#DejaVuSans-61" x="158.935547"/>
     <use xlink:href="#DejaVuSans-6e" x="220.214844"/>
     <use xlink:href="#DejaVuSans-3d" x="283.59375"/>
     <use xlink:href="#DejaVuSans-30" x="367.382812"/>
     <use xlink:href="#DejaVuSans-2e" x="431.005859"/>
     <use xlink:href="#DejaVuSans-30" x="462.792969"/>
     <use xlink:href="#DejaVuSans-35" x="526.416016"/>
    </g>
   </g>
   <g id="text_22">
    <!-- biased_θ -->
    <g transform="translate(731.912136 41.6928) scale(0.16 -0.16)">
     <defs>
      <path id="DejaVuSans-62" d="M 3116 1747 
Q 3116 2381 2855 2742 
Q 2594 3103 2138 3103 
Q 1681 3103 1420 2742 
Q 1159 2381 1159 1747 
Q 1159 1113 1420 752 
Q 1681 391 2138 391 
Q 2594 391 2855 752 
Q 3116 1113 3116 1747 
z
M 1159 2969 
Q 1341 3281 1617 3432 
Q 1894 3584 2278 3584 
Q 2916 3584 3314 3078 
Q 3713 2572 3713 1747 
Q 3713 922 3314 415 
Q 2916 -91 2278 -91 
Q 1894 -91 1617 61 
Q 1341 213 1159 525 
L 1159 0 
L 581 0 
L 581 4863 
L 1159 4863 
L 1159 2969 
z
" transform="scale(0.015625)"/>
      <path id="DejaVuSans-69" d="M 603 3500 
L 1178 3500 
L 1178 0 
L 603 0 
L 603 3500 
z
M 603 4863 
L 1178 4863 
L 1178 4134 
L 603 4134 
L 603 4863 
z
" transform="scale(0.015625)"/>
      <path id="DejaVuSans-73" d="M 2834 3397 
L 2834 2853 
Q 2591 2978 2328 3040 
Q 2066 3103 1784 3103 
Q 1356 3103 1142 2972 
Q 928 2841 928 2578 
Q 928 2378 1081 2264 
Q 1234 2150 1697 2047 
L 1894 2003 
Q 2506 1872 2764 1633 
Q 3022 1394 3022 966 
Q 3022 478 2636 193 
Q 2250 -91 1575 -91 
Q 1294 -91 989 -36 
Q 684 19 347 128 
L 347 722 
Q 666 556 975 473 
Q 1284 391 1588 391 
Q 1994 391 2212 530 
Q 2431 669 2431 922 
Q 2431 1156 2273 1281 
Q 2116 1406 1581 1522 
L 1381 1569 
Q 847 1681 609 1914 
Q 372 2147 372 2553 
Q 372 3047 722 3315 
Q 1072 3584 1716 3584 
Q 2034 3584 2315 3537 
Q 2597 3491 2834 3397 
z
" transform="scale(0.015625)"/>
      <path id="DejaVuSans-64" d="M 2906 2969 
L 2906 4863 
L 3481 4863 
L 3481 0 
L 2906 0 
L 2906 525 
Q 2725 213 2448 61 
Q 2172 -91 1784 -91 
Q 1150 -91 751 415 
Q 353 922 353 1747 
Q 353 2572 751 3078 
Q 1150 3584 1784 3584 
Q 2172 3584 2448 3432 
Q 2725 3281 2906 2969 
z
M 947 1747 
Q 947 1113 1208 752 
Q 1469 391 1925 391 
Q 2381 391 2643 752 
Q 2906 1113 2906 1747 
Q 2906 2381 2643 2742 
Q 2381 3103 1925 3103 
Q 1469 3103 1208 2742 
Q 947 2381 947 1747 
z
" transform="scale(0.015625)"/>
      <path id="DejaVuSans-5f" d="M 3263 -1063 
L 3263 -1509 
L -63 -1509 
L -63 -1063 
L 3263 -1063 
z
" transform="scale(0.015625)"/>
     </defs>
     <use xlink:href="#DejaVuSans-62"/>
     <use xlink:href="#DejaVuSans-69" x="63.476562"/>
     <use xlink:href="#DejaVuSans-61" x="91.259766"/>
     <use xlink:href="#DejaVuSans-73" x="152.539062"/>
     <use xlink:href="#DejaVuSans-65" x="204.638672"/>
     <use xlink:href="#DejaVuSans-64" x="266.162109"/>
     <use xlink:href="#DejaVuSans-5f" x="329.638672"/>
     <use xlink:href="#DejaVuSans-3b8" x="379.638672"/>
    </g>
   </g>
  </g>
 </g>
 <defs>
  <clipPath id="pfea7a5ddbc">
   <rect x="132.48" y="47.6928" width="373.352727" height="306.0288"/>
  </clipPath>
  <clipPath id="pc5f0e93a89">
   <rect x="580.503273" y="47.6928" width="373.352727" height="306.0288"/>
  </clipPath>
 </defs>
</svg>
