<?xml version="1.0" encoding="utf-8" standalone="no"?>
<!DOCTYPE svg PUBLIC "-//W3C//DTD SVG 1.1//EN"
  "http://www.w3.org/Graphics/SVG/1.1/DTD/svg11.dtd">
<svg xmlns:xlink="http://www.w3.org/1999/xlink" width="1059.84pt" height="397.44pt" viewBox="0 0 1059.84 397.44" xmlns="http://www.w3.org/2000/svg" version="1.1">
 <metadata>
  <rdf:RDF xmlns:dc="http://purl.org/dc/elements/1.1/" xmlns:cc="http://creativecommons.org/ns#" xmlns:rdf="http://www.w3.org/1999/02/22-rdf-syntax-ns#">
   <cc:Work>
    <dc:type rdf:resource="http://purl.org/dc/dcmitype/StillImage"/>
    <dc:format>image/svg+xml</dc:format>
   </cc:Work>
  </rdf:RDF>
 </metadata>
 <defs>
  <style type="text/css">*{stroke-linejoin: round; stroke-linecap: butt}</style>
 </defs>
 <g id="figure_1">
  <g id="patch_1">
   <path d="M 0 397.44 
L 1059.84 397.44 
L 1059.84 0 
L 0 0 
z
" style="fill: #ffffff"/>
  </g>
  <g id="axes_1">
   <g id="patch_2">
    <path d="M 132.48 353.7216 
L 505.832727 353.7216 
L 505.832727 47.6928 
L 132.48 47.6928 
z
" style="fill: #ffffff"/>
   </g>
   <g id="PolyCollection_1">
    <defs>
     <path id="m34740af265" d="M 149.450579 -57.6288 
L 149.450579 -57.674934 
L 150.114789 -57.675437 
L 150.779 -57.676309 
L 151.44321 -57.678148 
L 152.107421 -57.681299 
L 152.771631 -57.686305 
L 153.435842 -57.693618 
L 154.100052 -57.703982 
L 154.764263 -57.717424 
L 155.428473 -57.733892 
L 156.092684 -57.752275 
L 156.756894 -57.772729 
L 157.421105 -57.796131 
L 158.085315 -57.823033 
L 158.749526 -57.854804 
L 159.413736 -57.893733 
L 160.077947 -57.939248 
L 160.742157 -57.992163 
L 161.406368 -58.051217 
L 162.070578 -58.115893 
L 162.734789 -58.186628 
L 163.398999 -58.263636 
L 164.06321 -58.350081 
L 164.72742 -58.450177 
L 165.391631 -58.566119 
L 166.055841 -58.701027 
L 166.720052 -58.856341 
L 167.384262 -59.032713 
L 168.048473 -59.228736 
L 168.712683 -59.444515 
L 169.376894 -59.6754 
L 170.041104 -59.921241 
L 170.705315 -60.182223 
L 171.369525 -60.458068 
L 172.033736 -60.753411 
L 172.697946 -61.076395 
L 173.362157 -61.432118 
L 174.026367 -61.828065 
L 174.690578 -62.268084 
L 175.354788 -62.748608 
L 176.018999 -63.263783 
L 176.683209 -63.806767 
L 177.34742 -64.370569 
L 178.01163 -64.952434 
L 178.675841 -65.55351 
L 179.340051 -66.178947 
L 180.004262 -66.835873 
L 180.668472 -67.532285 
L 181.332683 -68.271842 
L 181.996893 -69.064861 
L 182.661104 -69.913227 
L 183.325314 -70.832306 
L 183.989525 -71.824735 
L 184.653736 -72.894317 
L 185.317946 -74.043928 
L 185.982157 -75.266522 
L 186.646367 -76.549664 
L 187.310578 -77.884423 
L 187.974788 -79.261176 
L 188.638999 -80.675241 
L 189.303209 -82.125415 
L 189.96742 -83.614622 
L 190.63163 -85.147195 
L 191.295841 -86.725617 
L 191.960051 -88.357204 
L 192.624262 -90.050205 
L 193.288472 -91.818588 
L 193.952683 -93.67757 
L 194.616893 -95.64383 
L 195.281104 -97.733309 
L 195.945314 -99.94947 
L 196.609525 -102.28413 
L 197.273735 -104.713546 
L 197.937946 -107.205323 
L 198.602156 -109.729139 
L 199.266367 -112.260837 
L 199.930577 -114.785876 
L 200.594788 -117.310179 
L 201.258998 -119.844677 
L 201.923209 -122.416046 
L 202.587419 -125.0387 
L 203.25163 -127.72326 
L 203.91584 -130.470772 
L 204.580051 -133.28123 
L 205.244261 -136.160123 
L 205.908472 -139.107639 
L 206.572682 -142.141511 
L 207.236893 -145.279221 
L 207.901103 -148.560577 
L 208.565314 -151.997152 
L 209.229524 -155.591959 
L 209.893735 -159.325248 
L 210.557945 -163.159407 
L 211.222156 -167.046105 
L 211.886366 -170.935698 
L 212.550577 -174.792888 
L 213.214787 -178.596366 
L 213.878998 -182.351971 
L 214.543208 -186.064108 
L 215.207419 -189.745803 
L 215.871629 -193.397319 
L 216.53584 -197.036689 
L 217.20005 -200.663939 
L 217.864261 -204.287515 
L 218.528471 -207.899189 
L 219.192682 -211.503334 
L 219.856892 -215.106255 
L 220.521103 -218.695312 
L 221.185314 -222.277288 
L 221.849524 -225.861137 
L 222.513735 -229.467151 
L 223.177945 -233.102221 
L 223.842156 -236.766975 
L 224.506366 -240.442136 
L 225.170577 -244.098777 
L 225.834787 -247.723526 
L 226.498998 -251.289116 
L 227.163208 -254.796009 
L 227.827419 -258.253224 
L 228.491629 -261.668778 
L 229.15584 -265.043622 
L 229.82005 -268.381389 
L 230.484261 -271.648493 
L 231.148471 -274.838285 
L 231.812682 -277.922958 
L 232.476892 -280.884533 
L 233.141103 -283.713382 
L 233.805313 -286.411773 
L 234.469524 -289.012461 
L 235.133734 -291.543032 
L 235.797945 -294.053502 
L 236.462155 -296.596858 
L 237.126366 -299.203657 
L 237.790576 -301.875577 
L 238.454787 -304.588418 
L 239.118997 -307.283982 
L 239.783208 -309.871755 
L 240.447418 -312.305135 
L 241.111629 -314.532736 
L 241.775839 -316.553934 
L 242.44005 -318.378749 
L 243.10426 -320.053948 
L 243.768471 -321.590624 
L 244.432681 -323.009064 
L 245.096892 -324.312425 
L 245.761102 -325.499019 
L 246.425313 -326.607162 
L 247.089523 -327.668711 
L 247.753734 -328.742527 
L 248.417944 -329.857305 
L 249.082155 -331.025479 
L 249.746365 -332.205766 
L 250.410576 -333.329013 
L 251.074786 -334.303351 
L 251.738997 -335.053866 
L 252.403207 -335.554909 
L 253.067418 -335.789917 
L 253.731628 -335.8368 
L 254.395839 -335.747148 
L 255.060049 -335.597009 
L 255.72426 -335.441011 
L 256.388471 -335.287047 
L 257.052681 -335.109049 
L 257.716892 -334.854619 
L 258.381102 -334.474987 
L 259.045313 -333.903645 
L 259.709523 -333.139448 
L 260.373734 -332.180176 
L 261.037944 -331.073068 
L 261.702155 -329.888111 
L 262.366365 -328.672949 
L 263.030576 -327.451274 
L 263.694786 -326.245956 
L 264.358997 -325.043961 
L 265.023207 -323.818014 
L 265.687418 -322.531274 
L 266.351628 -321.141577 
L 267.015839 -319.661784 
L 267.680049 -318.073368 
L 268.34426 -316.410337 
L 269.00847 -314.716462 
L 269.672681 -313.00713 
L 270.336891 -311.318477 
L 271.001102 -309.629512 
L 271.665312 -307.918068 
L 272.329523 -306.132286 
L 272.993733 -304.247819 
L 273.657944 -302.242652 
L 274.322154 -300.107832 
L 274.986365 -297.876229 
L 275.650575 -295.552745 
L 276.314786 -293.183571 
L 276.978996 -290.78461 
L 277.643207 -288.358954 
L 278.307417 -285.90694 
L 278.971628 -283.433034 
L 279.635838 -280.93643 
L 280.300049 -278.442027 
L 280.964259 -275.940034 
L 281.62847 -273.455216 
L 282.29268 -270.980862 
L 282.956891 -268.537116 
L 283.621101 -266.113758 
L 284.285312 -263.705989 
L 284.949522 -261.307614 
L 285.613733 -258.905434 
L 286.277943 -256.473315 
L 286.942154 -253.981144 
L 287.606364 -251.403228 
L 288.270575 -248.721345 
L 288.934785 -245.903042 
L 289.598996 -242.983469 
L 290.263206 -239.993407 
L 290.927417 -236.992709 
L 291.591628 -234.037887 
L 292.255838 -231.196426 
L 292.920049 -228.49349 
L 293.584259 -225.917255 
L 294.24847 -223.417255 
L 294.91268 -220.970802 
L 295.576891 -218.514166 
L 296.241101 -216.017425 
L 296.905312 -213.450254 
L 297.569522 -210.835322 
L 298.233733 -208.191135 
L 298.897943 -205.531455 
L 299.562154 -202.893076 
L 300.226364 -200.28604 
L 300.890575 -197.723975 
L 301.554785 -195.209564 
L 302.218996 -192.759125 
L 302.883206 -190.370481 
L 303.547417 -188.019469 
L 304.211627 -185.707383 
L 304.875838 -183.419905 
L 305.540048 -181.141258 
L 306.204259 -178.853962 
L 306.868469 -176.548291 
L 307.53268 -174.237973 
L 308.19689 -171.90498 
L 308.861101 -169.540721 
L 309.525311 -167.154131 
L 310.189522 -164.750326 
L 310.853732 -162.347617 
L 311.517943 -159.961134 
L 312.182153 -157.624771 
L 312.846364 -155.380549 
L 313.510574 -153.233426 
L 314.174785 -151.192281 
L 314.838995 -149.256343 
L 315.503206 -147.403385 
L 316.167416 -145.612254 
L 316.831627 -143.85725 
L 317.495837 -142.12573 
L 318.160048 -140.385202 
L 318.824258 -138.635841 
L 319.488469 -136.870348 
L 320.152679 -135.08297 
L 320.81689 -133.280653 
L 321.4811 -131.47449 
L 322.145311 -129.694211 
L 322.809521 -127.953641 
L 323.473732 -126.270105 
L 324.137942 -124.655785 
L 324.802153 -123.10213 
L 325.466363 -121.605688 
L 326.130574 -120.130324 
L 326.794784 -118.659866 
L 327.458995 -117.188417 
L 328.123206 -115.714386 
L 328.787416 -114.24158 
L 329.451627 -112.796062 
L 330.115837 -111.390386 
L 330.780048 -110.04163 
L 331.444258 -108.739078 
L 332.108469 -107.475021 
L 332.772679 -106.22434 
L 333.43689 -104.980619 
L 334.1011 -103.7292 
L 334.765311 -102.466235 
L 335.429521 -101.201777 
L 336.093732 -99.949277 
L 336.757942 -98.731515 
L 337.422153 -97.572829 
L 338.086363 -96.487976 
L 338.750574 -95.483843 
L 339.414784 -94.556081 
L 340.078995 -93.68996 
L 340.743205 -92.852567 
L 341.407416 -92.014725 
L 342.071626 -91.143605 
L 342.735837 -90.225904 
L 343.400047 -89.258005 
L 344.064258 -88.253412 
L 344.728468 -87.233467 
L 345.392679 -86.22408 
L 346.056889 -85.244506 
L 346.7211 -84.315376 
L 347.38531 -83.443808 
L 348.049521 -82.643024 
L 348.713731 -81.917565 
L 349.377942 -81.260182 
L 350.042152 -80.669843 
L 350.706363 -80.129418 
L 351.370573 -79.621512 
L 352.034784 -79.129787 
L 352.698994 -78.633007 
L 353.363205 -78.117292 
L 354.027415 -77.571105 
L 354.691626 -76.990608 
L 355.355836 -76.376165 
L 356.020047 -75.738822 
L 356.684257 -75.092482 
L 357.348468 -74.460778 
L 358.012678 -73.859521 
L 358.676889 -73.302938 
L 359.341099 -72.791933 
L 360.00531 -72.325282 
L 360.66952 -71.895037 
L 361.333731 -71.487481 
L 361.997941 -71.095167 
L 362.662152 -70.711789 
L 363.326363 -70.331552 
L 363.990573 -69.949925 
L 364.654784 -69.566284 
L 365.318994 -69.180751 
L 365.983205 -68.799063 
L 366.647415 -68.424201 
L 367.311626 -68.056727 
L 367.975836 -67.69651 
L 368.640047 -67.34249 
L 369.304257 -66.989336 
L 369.968468 -66.638189 
L 370.632678 -66.289171 
L 371.296889 -65.94759 
L 371.961099 -65.621301 
L 372.62531 -65.314953 
L 373.28952 -65.034891 
L 373.953731 -64.778656 
L 374.617941 -64.54462 
L 375.282152 -64.334353 
L 375.946362 -64.137655 
L 376.610573 -63.950744 
L 377.274783 -63.77331 
L 377.938994 -63.600221 
L 378.603204 -63.431544 
L 379.267415 -63.265911 
L 379.931625 -63.099661 
L 380.595836 -62.935646 
L 381.260046 -62.771568 
L 381.924257 -62.605959 
L 382.588467 -62.44016 
L 383.252678 -62.278551 
L 383.916888 -62.123895 
L 384.581099 -61.980279 
L 385.245309 -61.851727 
L 385.90952 -61.737686 
L 386.57373 -61.63315 
L 387.237941 -61.53588 
L 387.902151 -61.436842 
L 388.566362 -61.330832 
L 389.230572 -61.210786 
L 389.894783 -61.077179 
L 390.558993 -60.930665 
L 391.223204 -60.774252 
L 391.887414 -60.612406 
L 392.551625 -60.450045 
L 393.215835 -60.29203 
L 393.880046 -60.142627 
L 394.544256 -60.005221 
L 395.208467 -59.882099 
L 395.872677 -59.775864 
L 396.536888 -59.684766 
L 397.201098 -59.605135 
L 397.865309 -59.534455 
L 398.529519 -59.468236 
L 399.19373 -59.404322 
L 399.857941 -59.343032 
L 400.522151 -59.287096 
L 401.186362 -59.236899 
L 401.850572 -59.196143 
L 402.514783 -59.162445 
L 403.178993 -59.133882 
L 403.843204 -59.106514 
L 404.507414 -59.075088 
L 405.171625 -59.037294 
L 405.835835 -58.99287 
L 406.500046 -58.942548 
L 407.164256 -58.890088 
L 407.828467 -58.838631 
L 408.492677 -58.793176 
L 409.156888 -58.755811 
L 409.821098 -58.725181 
L 410.485309 -58.699256 
L 411.149519 -58.674235 
L 411.81373 -58.646469 
L 412.47794 -58.613924 
L 413.142151 -58.575802 
L 413.806361 -58.533904 
L 414.470572 -58.490736 
L 415.134782 -58.44895 
L 415.798993 -58.409833 
L 416.463203 -58.373795 
L 417.127414 -58.340273 
L 417.791624 -58.308368 
L 418.455835 -58.277931 
L 419.120045 -58.247726 
L 419.784256 -58.218312 
L 420.448466 -58.188889 
L 421.112677 -58.15895 
L 421.776887 -58.12869 
L 422.441098 -58.097935 
L 423.105308 -58.067418 
L 423.769519 -58.038136 
L 424.433729 -58.011535 
L 425.09794 -57.988914 
L 425.76215 -57.970558 
L 426.426361 -57.957048 
L 427.090571 -57.947925 
L 427.754782 -57.942187 
L 428.418992 -57.938182 
L 429.083203 -57.933852 
L 429.747413 -57.928192 
L 430.411624 -57.919773 
L 431.075834 -57.908862 
L 431.740045 -57.895756 
L 432.404255 -57.882212 
L 433.068466 -57.869213 
L 433.732676 -57.858011 
L 434.396887 -57.84865 
L 435.061098 -57.840741 
L 435.725308 -57.833566 
L 436.389519 -57.826924 
L 437.053729 -57.820622 
L 437.71794 -57.814672 
L 438.38215 -57.80957 
L 439.046361 -57.805413 
L 439.710571 -57.802656 
L 440.374782 -57.80122 
L 441.038992 -57.800724 
L 441.703203 -57.800763 
L 442.367413 -57.800785 
L 443.031624 -57.799914 
L 443.695834 -57.796899 
L 444.360045 -57.791547 
L 445.024255 -57.783298 
L 445.688466 -57.772427 
L 446.352676 -57.75943 
L 447.016887 -57.745423 
L 447.681097 -57.731564 
L 448.345308 -57.718861 
L 449.009518 -57.707968 
L 449.673729 -57.699105 
L 450.337939 -57.692286 
L 451.00215 -57.686991 
L 451.66636 -57.682647 
L 452.330571 -57.678885 
L 452.994781 -57.675586 
L 453.658992 -57.672867 
L 454.323202 -57.670963 
L 454.987413 -57.670428 
L 455.651623 -57.671499 
L 456.315834 -57.674464 
L 456.980044 -57.679212 
L 457.644255 -57.68519 
L 458.308465 -57.691538 
L 458.972676 -57.697101 
L 459.636886 -57.700559 
L 460.301097 -57.700768 
L 460.965307 -57.697507 
L 461.629518 -57.690928 
L 462.293728 -57.682263 
L 462.957939 -57.672557 
L 463.622149 -57.663252 
L 464.28636 -57.655079 
L 464.95057 -57.648849 
L 465.614781 -57.64458 
L 466.278991 -57.642073 
L 466.943202 -57.641008 
L 467.607412 -57.641245 
L 468.271623 -57.642389 
L 468.935833 -57.644102 
L 469.600044 -57.646085 
L 470.264255 -57.648168 
L 470.928465 -57.649984 
L 471.592676 -57.651365 
L 472.256886 -57.652177 
L 472.921097 -57.652309 
L 473.585307 -57.65164 
L 474.249518 -57.650229 
L 474.913728 -57.648051 
L 475.577939 -57.645274 
L 476.242149 -57.642162 
L 476.90636 -57.639028 
L 477.57057 -57.636176 
L 478.234781 -57.633931 
L 478.898991 -57.632311 
L 479.563202 -57.63141 
L 480.227412 -57.631216 
L 480.891623 -57.631593 
L 481.555833 -57.632512 
L 482.220044 -57.633944 
L 482.884254 -57.635612 
L 483.548465 -57.637387 
L 484.212675 -57.639072 
L 484.876886 -57.640552 
L 485.541096 -57.641854 
L 486.205307 -57.642895 
L 486.869517 -57.643741 
L 487.533728 -57.64448 
L 488.197938 -57.644995 
L 488.862149 -57.645272 
L 488.862149 -57.6288 
L 488.862149 -57.6288 
L 488.197938 -57.6288 
L 487.533728 -57.6288 
L 486.869517 -57.6288 
L 486.205307 -57.6288 
L 485.541096 -57.6288 
L 484.876886 -57.6288 
L 484.212675 -57.6288 
L 483.548465 -57.6288 
L 482.884254 -57.6288 
L 482.220044 -57.6288 
L 481.555833 -57.6288 
L 480.891623 -57.6288 
L 480.227412 -57.6288 
L 479.563202 -57.6288 
L 478.898991 -57.6288 
L 478.234781 -57.6288 
L 477.57057 -57.6288 
L 476.90636 -57.6288 
L 476.242149 -57.6288 
L 475.577939 -57.6288 
L 474.913728 -57.6288 
L 474.249518 -57.6288 
L 473.585307 -57.6288 
L 472.921097 -57.6288 
L 472.256886 -57.6288 
L 471.592676 -57.6288 
L 470.928465 -57.6288 
L 470.264255 -57.6288 
L 469.600044 -57.6288 
L 468.935833 -57.6288 
L 468.271623 -57.6288 
L 467.607412 -57.6288 
L 466.943202 -57.6288 
L 466.278991 -57.6288 
L 465.614781 -57.6288 
L 464.95057 -57.6288 
L 464.28636 -57.6288 
L 463.622149 -57.6288 
L 462.957939 -57.6288 
L 462.293728 -57.6288 
L 461.629518 -57.6288 
L 460.965307 -57.6288 
L 460.301097 -57.6288 
L 459.636886 -57.6288 
L 458.972676 -57.6288 
L 458.308465 -57.6288 
L 457.644255 -57.6288 
L 456.980044 -57.6288 
L 456.315834 -57.6288 
L 455.651623 -57.6288 
L 454.987413 -57.6288 
L 454.323202 -57.6288 
L 453.658992 -57.6288 
L 452.994781 -57.6288 
L 452.330571 -57.6288 
L 451.66636 -57.6288 
L 451.00215 -57.6288 
L 450.337939 -57.6288 
L 449.673729 -57.6288 
L 449.009518 -57.6288 
L 448.345308 -57.6288 
L 447.681097 -57.6288 
L 447.016887 -57.6288 
L 446.352676 -57.6288 
L 445.688466 -57.6288 
L 445.024255 -57.6288 
L 444.360045 -57.6288 
L 443.695834 -57.6288 
L 443.031624 -57.6288 
L 442.367413 -57.6288 
L 441.703203 -57.6288 
L 441.038992 -57.6288 
L 440.374782 -57.6288 
L 439.710571 -57.6288 
L 439.046361 -57.6288 
L 438.38215 -57.6288 
L 437.71794 -57.6288 
L 437.053729 -57.6288 
L 436.389519 -57.6288 
L 435.725308 -57.6288 
L 435.061098 -57.6288 
L 434.396887 -57.6288 
L 433.732676 -57.6288 
L 433.068466 -57.6288 
L 432.404255 -57.6288 
L 431.740045 -57.6288 
L 431.075834 -57.6288 
L 430.411624 -57.6288 
L 429.747413 -57.6288 
L 429.083203 -57.6288 
L 428.418992 -57.6288 
L 427.754782 -57.6288 
L 427.090571 -57.6288 
L 426.426361 -57.6288 
L 425.76215 -57.6288 
L 425.09794 -57.6288 
L 424.433729 -57.6288 
L 423.769519 -57.6288 
L 423.105308 -57.6288 
L 422.441098 -57.6288 
L 421.776887 -57.6288 
L 421.112677 -57.6288 
L 420.448466 -57.6288 
L 419.784256 -57.6288 
L 419.120045 -57.6288 
L 418.455835 -57.6288 
L 417.791624 -57.6288 
L 417.127414 -57.6288 
L 416.463203 -57.6288 
L 415.798993 -57.6288 
L 415.134782 -57.6288 
L 414.470572 -57.6288 
L 413.806361 -57.6288 
L 413.142151 -57.6288 
L 412.47794 -57.6288 
L 411.81373 -57.6288 
L 411.149519 -57.6288 
L 410.485309 -57.6288 
L 409.821098 -57.6288 
L 409.156888 -57.6288 
L 408.492677 -57.6288 
L 407.828467 -57.6288 
L 407.164256 -57.6288 
L 406.500046 -57.6288 
L 405.835835 -57.6288 
L 405.171625 -57.6288 
L 404.507414 -57.6288 
L 403.843204 -57.6288 
L 403.178993 -57.6288 
L 402.514783 -57.6288 
L 401.850572 -57.6288 
L 401.186362 -57.6288 
L 400.522151 -57.6288 
L 399.857941 -57.6288 
L 399.19373 -57.6288 
L 398.529519 -57.6288 
L 397.865309 -57.6288 
L 397.201098 -57.6288 
L 396.536888 -57.6288 
L 395.872677 -57.6288 
L 395.208467 -57.6288 
L 394.544256 -57.6288 
L 393.880046 -57.6288 
L 393.215835 -57.6288 
L 392.551625 -57.6288 
L 391.887414 -57.6288 
L 391.223204 -57.6288 
L 390.558993 -57.6288 
L 389.894783 -57.6288 
L 389.230572 -57.6288 
L 388.566362 -57.6288 
L 387.902151 -57.6288 
L 387.237941 -57.6288 
L 386.57373 -57.6288 
L 385.90952 -57.6288 
L 385.245309 -57.6288 
L 384.581099 -57.6288 
L 383.916888 -57.6288 
L 383.252678 -57.6288 
L 382.588467 -57.6288 
L 381.924257 -57.6288 
L 381.260046 -57.6288 
L 380.595836 -57.6288 
L 379.931625 -57.6288 
L 379.267415 -57.6288 
L 378.603204 -57.6288 
L 377.938994 -57.6288 
L 377.274783 -57.6288 
L 376.610573 -57.6288 
L 375.946362 -57.6288 
L 375.282152 -57.6288 
L 374.617941 -57.6288 
L 373.953731 -57.6288 
L 373.28952 -57.6288 
L 372.62531 -57.6288 
L 371.961099 -57.6288 
L 371.296889 -57.6288 
L 370.632678 -57.6288 
L 369.968468 -57.6288 
L 369.304257 -57.6288 
L 368.640047 -57.6288 
L 367.975836 -57.6288 
L 367.311626 -57.6288 
L 366.647415 -57.6288 
L 365.983205 -57.6288 
L 365.318994 -57.6288 
L 364.654784 -57.6288 
L 363.990573 -57.6288 
L 363.326363 -57.6288 
L 362.662152 -57.6288 
L 361.997941 -57.6288 
L 361.333731 -57.6288 
L 360.66952 -57.6288 
L 360.00531 -57.6288 
L 359.341099 -57.6288 
L 358.676889 -57.6288 
L 358.012678 -57.6288 
L 357.348468 -57.6288 
L 356.684257 -57.6288 
L 356.020047 -57.6288 
L 355.355836 -57.6288 
L 354.691626 -57.6288 
L 354.027415 -57.6288 
L 353.363205 -57.6288 
L 352.698994 -57.6288 
L 352.034784 -57.6288 
L 351.370573 -57.6288 
L 350.706363 -57.6288 
L 350.042152 -57.6288 
L 349.377942 -57.6288 
L 348.713731 -57.6288 
L 348.049521 -57.6288 
L 347.38531 -57.6288 
L 346.7211 -57.6288 
L 346.056889 -57.6288 
L 345.392679 -57.6288 
L 344.728468 -57.6288 
L 344.064258 -57.6288 
L 343.400047 -57.6288 
L 342.735837 -57.6288 
L 342.071626 -57.6288 
L 341.407416 -57.6288 
L 340.743205 -57.6288 
L 340.078995 -57.6288 
L 339.414784 -57.6288 
L 338.750574 -57.6288 
L 338.086363 -57.6288 
L 337.422153 -57.6288 
L 336.757942 -57.6288 
L 336.093732 -57.6288 
L 335.429521 -57.6288 
L 334.765311 -57.6288 
L 334.1011 -57.6288 
L 333.43689 -57.6288 
L 332.772679 -57.6288 
L 332.108469 -57.6288 
L 331.444258 -57.6288 
L 330.780048 -57.6288 
L 330.115837 -57.6288 
L 329.451627 -57.6288 
L 328.787416 -57.6288 
L 328.123206 -57.6288 
L 327.458995 -57.6288 
L 326.794784 -57.6288 
L 326.130574 -57.6288 
L 325.466363 -57.6288 
L 324.802153 -57.6288 
L 324.137942 -57.6288 
L 323.473732 -57.6288 
L 322.809521 -57.6288 
L 322.145311 -57.6288 
L 321.4811 -57.6288 
L 320.81689 -57.6288 
L 320.152679 -57.6288 
L 319.488469 -57.6288 
L 318.824258 -57.6288 
L 318.160048 -57.6288 
L 317.495837 -57.6288 
L 316.831627 -57.6288 
L 316.167416 -57.6288 
L 315.503206 -57.6288 
L 314.838995 -57.6288 
L 314.174785 -57.6288 
L 313.510574 -57.6288 
L 312.846364 -57.6288 
L 312.182153 -57.6288 
L 311.517943 -57.6288 
L 310.853732 -57.6288 
L 310.189522 -57.6288 
L 309.525311 -57.6288 
L 308.861101 -57.6288 
L 308.19689 -57.6288 
L 307.53268 -57.6288 
L 306.868469 -57.6288 
L 306.204259 -57.6288 
L 305.540048 -57.6288 
L 304.875838 -57.6288 
L 304.211627 -57.6288 
L 303.547417 -57.6288 
L 302.883206 -57.6288 
L 302.218996 -57.6288 
L 301.554785 -57.6288 
L 300.890575 -57.6288 
L 300.226364 -57.6288 
L 299.562154 -57.6288 
L 298.897943 -57.6288 
L 298.233733 -57.6288 
L 297.569522 -57.6288 
L 296.905312 -57.6288 
L 296.241101 -57.6288 
L 295.576891 -57.6288 
L 294.91268 -57.6288 
L 294.24847 -57.6288 
L 293.584259 -57.6288 
L 292.920049 -57.6288 
L 292.255838 -57.6288 
L 291.591628 -57.6288 
L 290.927417 -57.6288 
L 290.263206 -57.6288 
L 289.598996 -57.6288 
L 288.934785 -57.6288 
L 288.270575 -57.6288 
L 287.606364 -57.6288 
L 286.942154 -57.6288 
L 286.277943 -57.6288 
L 285.613733 -57.6288 
L 284.949522 -57.6288 
L 284.285312 -57.6288 
L 283.621101 -57.6288 
L 282.956891 -57.6288 
L 282.29268 -57.6288 
L 281.62847 -57.6288 
L 280.964259 -57.6288 
L 280.300049 -57.6288 
L 279.635838 -57.6288 
L 278.971628 -57.6288 
L 278.307417 -57.6288 
L 277.643207 -57.6288 
L 276.978996 -57.6288 
L 276.314786 -57.6288 
L 275.650575 -57.6288 
L 274.986365 -57.6288 
L 274.322154 -57.6288 
L 273.657944 -57.6288 
L 272.993733 -57.6288 
L 272.329523 -57.6288 
L 271.665312 -57.6288 
L 271.001102 -57.6288 
L 270.336891 -57.6288 
L 269.672681 -57.6288 
L 269.00847 -57.6288 
L 268.34426 -57.6288 
L 267.680049 -57.6288 
L 267.015839 -57.6288 
L 266.351628 -57.6288 
L 265.687418 -57.6288 
L 265.023207 -57.6288 
L 264.358997 -57.6288 
L 263.694786 -57.6288 
L 263.030576 -57.6288 
L 262.366365 -57.6288 
L 261.702155 -57.6288 
L 261.037944 -57.6288 
L 260.373734 -57.6288 
L 259.709523 -57.6288 
L 259.045313 -57.6288 
L 258.381102 -57.6288 
L 257.716892 -57.6288 
L 257.052681 -57.6288 
L 256.388471 -57.6288 
L 255.72426 -57.6288 
L 255.060049 -57.6288 
L 254.395839 -57.6288 
L 253.731628 -57.6288 
L 253.067418 -57.6288 
L 252.403207 -57.6288 
L 251.738997 -57.6288 
L 251.074786 -57.6288 
L 250.410576 -57.6288 
L 249.746365 -57.6288 
L 249.082155 -57.6288 
L 248.417944 -57.6288 
L 247.753734 -57.6288 
L 247.089523 -57.6288 
L 246.425313 -57.6288 
L 245.761102 -57.6288 
L 245.096892 -57.6288 
L 244.432681 -57.6288 
L 243.768471 -57.6288 
L 243.10426 -57.6288 
L 242.44005 -57.6288 
L 241.775839 -57.6288 
L 241.111629 -57.6288 
L 240.447418 -57.6288 
L 239.783208 -57.6288 
L 239.118997 -57.6288 
L 238.454787 -57.6288 
L 237.790576 -57.6288 
L 237.126366 -57.6288 
L 236.462155 -57.6288 
L 235.797945 -57.6288 
L 235.133734 -57.6288 
L 234.469524 -57.6288 
L 233.805313 -57.6288 
L 233.141103 -57.6288 
L 232.476892 -57.6288 
L 231.812682 -57.6288 
L 231.148471 -57.6288 
L 230.484261 -57.6288 
L 229.82005 -57.6288 
L 229.15584 -57.6288 
L 228.491629 -57.6288 
L 227.827419 -57.6288 
L 227.163208 -57.6288 
L 226.498998 -57.6288 
L 225.834787 -57.6288 
L 225.170577 -57.6288 
L 224.506366 -57.6288 
L 223.842156 -57.6288 
L 223.177945 -57.6288 
L 222.513735 -57.6288 
L 221.849524 -57.6288 
L 221.185314 -57.6288 
L 220.521103 -57.6288 
L 219.856892 -57.6288 
L 219.192682 -57.6288 
L 218.528471 -57.6288 
L 217.864261 -57.6288 
L 217.20005 -57.6288 
L 216.53584 -57.6288 
L 215.871629 -57.6288 
L 215.207419 -57.6288 
L 214.543208 -57.6288 
L 213.878998 -57.6288 
L 213.214787 -57.6288 
L 212.550577 -57.6288 
L 211.886366 -57.6288 
L 211.222156 -57.6288 
L 210.557945 -57.6288 
L 209.893735 -57.6288 
L 209.229524 -57.6288 
L 208.565314 -57.6288 
L 207.901103 -57.6288 
L 207.236893 -57.6288 
L 206.572682 -57.6288 
L 205.908472 -57.6288 
L 205.244261 -57.6288 
L 204.580051 -57.6288 
L 203.91584 -57.6288 
L 203.25163 -57.6288 
L 202.587419 -57.6288 
L 201.923209 -57.6288 
L 201.258998 -57.6288 
L 200.594788 -57.6288 
L 199.930577 -57.6288 
L 199.266367 -57.6288 
L 198.602156 -57.6288 
L 197.937946 -57.6288 
L 197.273735 -57.6288 
L 196.609525 -57.6288 
L 195.945314 -57.6288 
L 195.281104 -57.6288 
L 194.616893 -57.6288 
L 193.952683 -57.6288 
L 193.288472 -57.6288 
L 192.624262 -57.6288 
L 191.960051 -57.6288 
L 191.295841 -57.6288 
L 190.63163 -57.6288 
L 189.96742 -57.6288 
L 189.303209 -57.6288 
L 188.638999 -57.6288 
L 187.974788 -57.6288 
L 187.310578 -57.6288 
L 186.646367 -57.6288 
L 185.982157 -57.6288 
L 185.317946 -57.6288 
L 184.653736 -57.6288 
L 183.989525 -57.6288 
L 183.325314 -57.6288 
L 182.661104 -57.6288 
L 181.996893 -57.6288 
L 181.332683 -57.6288 
L 180.668472 -57.6288 
L 180.004262 -57.6288 
L 179.340051 -57.6288 
L 178.675841 -57.6288 
L 178.01163 -57.6288 
L 177.34742 -57.6288 
L 176.683209 -57.6288 
L 176.018999 -57.6288 
L 175.354788 -57.6288 
L 174.690578 -57.6288 
L 174.026367 -57.6288 
L 173.362157 -57.6288 
L 172.697946 -57.6288 
L 172.033736 -57.6288 
L 171.369525 -57.6288 
L 170.705315 -57.6288 
L 170.041104 -57.6288 
L 169.376894 -57.6288 
L 168.712683 -57.6288 
L 168.048473 -57.6288 
L 167.384262 -57.6288 
L 166.720052 -57.6288 
L 166.055841 -57.6288 
L 165.391631 -57.6288 
L 164.72742 -57.6288 
L 164.06321 -57.6288 
L 163.398999 -57.6288 
L 162.734789 -57.6288 
L 162.070578 -57.6288 
L 161.406368 -57.6288 
L 160.742157 -57.6288 
L 160.077947 -57.6288 
L 159.413736 -57.6288 
L 158.749526 -57.6288 
L 158.085315 -57.6288 
L 157.421105 -57.6288 
L 156.756894 -57.6288 
L 156.092684 -57.6288 
L 155.428473 -57.6288 
L 154.764263 -57.6288 
L 154.100052 -57.6288 
L 153.435842 -57.6288 
L 152.771631 -57.6288 
L 152.107421 -57.6288 
L 151.44321 -57.6288 
L 150.779 -57.6288 
L 150.114789 -57.6288 
L 149.450579 -57.6288 
z
" style="stroke: #1f77b4; stroke-opacity: 0"/>
    </defs>
    <g clip-path="url(#p46d2c6a9dc)">
     <use xlink:href="#m34740af265" x="0" y="397.44" style="fill: #1f77b4; fill-opacity: 0; stroke: #1f77b4; stroke-opacity: 0"/>
    </g>
   </g>
   <g id="matplotlib.axis_1">
    <g id="xtick_1">
     <g id="line2d_1">
      <defs>
       <path id="m74b60b590a" d="M 0 0 
L 0 3 
" style="stroke: #808080"/>
      </defs>
      <g>
       <use xlink:href="#m74b60b590a" x="170.417681" y="353.7216" style="fill: #808080; stroke: #808080"/>
      </g>
     </g>
     <g id="text_1">
      <!-- 0.02 -->
      <g transform="translate(154.831744 370.859412) scale(0.14 -0.14)">
       <defs>
        <path id="DejaVuSans-30" d="M 2034 4250 
Q 1547 4250 1301 3770 
Q 1056 3291 1056 2328 
Q 1056 1369 1301 889 
Q 1547 409 2034 409 
Q 2525 409 2770 889 
Q 3016 1369 3016 2328 
Q 3016 3291 2770 3770 
Q 2525 4250 2034 4250 
z
M 2034 4750 
Q 2819 4750 3233 4129 
Q 3647 3509 3647 2328 
Q 3647 1150 3233 529 
Q 2819 -91 2034 -91 
Q 1250 -91 836 529 
Q 422 1150 422 2328 
Q 422 3509 836 4129 
Q 1250 4750 2034 4750 
z
" transform="scale(0.015625)"/>
        <path id="DejaVuSans-2e" d="M 684 794 
L 1344 794 
L 1344 0 
L 684 0 
L 684 794 
z
" transform="scale(0.015625)"/>
        <path id="DejaVuSans-32" d="M 1228 531 
L 3431 531 
L 3431 0 
L 469 0 
L 469 531 
Q 828 903 1448 1529 
Q 2069 2156 2228 2338 
Q 2531 2678 2651 2914 
Q 2772 3150 2772 3378 
Q 2772 3750 2511 3984 
Q 2250 4219 1831 4219 
Q 1534 4219 1204 4116 
Q 875 4013 500 3803 
L 500 4441 
Q 881 4594 1212 4672 
Q 1544 4750 1819 4750 
Q 2544 4750 2975 4387 
Q 3406 4025 3406 3419 
Q 3406 3131 3298 2873 
Q 3191 2616 2906 2266 
Q 2828 2175 2409 1742 
Q 1991 1309 1228 531 
z
" transform="scale(0.015625)"/>
       </defs>
       <use xlink:href="#DejaVuSans-30"/>
       <use xlink:href="#DejaVuSans-2e" x="63.623047"/>
       <use xlink:href="#DejaVuSans-30" x="95.410156"/>
       <use xlink:href="#DejaVuSans-32" x="159.033203"/>
      </g>
     </g>
    </g>
    <g id="xtick_2">
     <g id="line2d_2">
      <g>
       <use xlink:href="#m74b60b590a" x="226.781496" y="353.7216" style="fill: #808080; stroke: #808080"/>
      </g>
     </g>
     <g id="text_2">
      <!-- 0.04 -->
      <g transform="translate(211.195558 370.859412) scale(0.14 -0.14)">
       <defs>
        <path id="DejaVuSans-34" d="M 2419 4116 
L 825 1625 
L 2419 1625 
L 2419 4116 
z
M 2253 4666 
L 3047 4666 
L 3047 1625 
L 3713 1625 
L 3713 1100 
L 3047 1100 
L 3047 0 
L 2419 0 
L 2419 1100 
L 313 1100 
L 313 1709 
L 2253 4666 
z
" transform="scale(0.015625)"/>
       </defs>
       <use xlink:href="#DejaVuSans-30"/>
       <use xlink:href="#DejaVuSans-2e" x="63.623047"/>
       <use xlink:href="#DejaVuSans-30" x="95.410156"/>
       <use xlink:href="#DejaVuSans-34" x="159.033203"/>
      </g>
     </g>
    </g>
    <g id="xtick_3">
     <g id="line2d_3">
      <g>
       <use xlink:href="#m74b60b590a" x="283.14531" y="353.7216" style="fill: #808080; stroke: #808080"/>
      </g>
     </g>
     <g id="text_3">
      <!-- 0.06 -->
      <g transform="translate(267.559373 370.859412) scale(0.14 -0.14)">
       <defs>
        <path id="DejaVuSans-36" d="M 2113 2584 
Q 1688 2584 1439 2293 
Q 1191 2003 1191 1497 
Q 1191 994 1439 701 
Q 1688 409 2113 409 
Q 2538 409 2786 701 
Q 3034 994 3034 1497 
Q 3034 2003 2786 2293 
Q 2538 2584 2113 2584 
z
M 3366 4563 
L 3366 3988 
Q 3128 4100 2886 4159 
Q 2644 4219 2406 4219 
Q 1781 4219 1451 3797 
Q 1122 3375 1075 2522 
Q 1259 2794 1537 2939 
Q 1816 3084 2150 3084 
Q 2853 3084 3261 2657 
Q 3669 2231 3669 1497 
Q 3669 778 3244 343 
Q 2819 -91 2113 -91 
Q 1303 -91 875 529 
Q 447 1150 447 2328 
Q 447 3434 972 4092 
Q 1497 4750 2381 4750 
Q 2619 4750 2861 4703 
Q 3103 4656 3366 4563 
z
" transform="scale(0.015625)"/>
       </defs>
       <use xlink:href="#DejaVuSans-30"/>
       <use xlink:href="#DejaVuSans-2e" x="63.623047"/>
       <use xlink:href="#DejaVuSans-30" x="95.410156"/>
       <use xlink:href="#DejaVuSans-36" x="159.033203"/>
      </g>
     </g>
    </g>
    <g id="xtick_4">
     <g id="line2d_4">
      <g>
       <use xlink:href="#m74b60b590a" x="339.509125" y="353.7216" style="fill: #808080; stroke: #808080"/>
      </g>
     </g>
     <g id="text_4">
      <!-- 0.08 -->
      <g transform="translate(323.923187 370.859412) scale(0.14 -0.14)">
       <defs>
        <path id="DejaVuSans-38" d="M 2034 2216 
Q 1584 2216 1326 1975 
Q 1069 1734 1069 1313 
Q 1069 891 1326 650 
Q 1584 409 2034 409 
Q 2484 409 2743 651 
Q 3003 894 3003 1313 
Q 3003 1734 2745 1975 
Q 2488 2216 2034 2216 
z
M 1403 2484 
Q 997 2584 770 2862 
Q 544 3141 544 3541 
Q 544 4100 942 4425 
Q 1341 4750 2034 4750 
Q 2731 4750 3128 4425 
Q 3525 4100 3525 3541 
Q 3525 3141 3298 2862 
Q 3072 2584 2669 2484 
Q 3125 2378 3379 2068 
Q 3634 1759 3634 1313 
Q 3634 634 3220 271 
Q 2806 -91 2034 -91 
Q 1263 -91 848 271 
Q 434 634 434 1313 
Q 434 1759 690 2068 
Q 947 2378 1403 2484 
z
M 1172 3481 
Q 1172 3119 1398 2916 
Q 1625 2713 2034 2713 
Q 2441 2713 2670 2916 
Q 2900 3119 2900 3481 
Q 2900 3844 2670 4047 
Q 2441 4250 2034 4250 
Q 1625 4250 1398 4047 
Q 1172 3844 1172 3481 
z
" transform="scale(0.015625)"/>
       </defs>
       <use xlink:href="#DejaVuSans-30"/>
       <use xlink:href="#DejaVuSans-2e" x="63.623047"/>
       <use xlink:href="#DejaVuSans-30" x="95.410156"/>
       <use xlink:href="#DejaVuSans-38" x="159.033203"/>
      </g>
     </g>
    </g>
    <g id="xtick_5">
     <g id="line2d_5">
      <g>
       <use xlink:href="#m74b60b590a" x="395.872939" y="353.7216" style="fill: #808080; stroke: #808080"/>
      </g>
     </g>
     <g id="text_5">
      <!-- 0.10 -->
      <g transform="translate(380.287001 370.859412) scale(0.14 -0.14)">
       <defs>
        <path id="DejaVuSans-31" d="M 794 531 
L 1825 531 
L 1825 4091 
L 703 3866 
L 703 4441 
L 1819 4666 
L 2450 4666 
L 2450 531 
L 3481 531 
L 3481 0 
L 794 0 
L 794 531 
z
" transform="scale(0.015625)"/>
       </defs>
       <use xlink:href="#DejaVuSans-30"/>
       <use xlink:href="#DejaVuSans-2e" x="63.623047"/>
       <use xlink:href="#DejaVuSans-31" x="95.410156"/>
       <use xlink:href="#DejaVuSans-30" x="159.033203"/>
      </g>
     </g>
    </g>
    <g id="xtick_6">
     <g id="line2d_6">
      <g>
       <use xlink:href="#m74b60b590a" x="452.236753" y="353.7216" style="fill: #808080; stroke: #808080"/>
      </g>
     </g>
     <g id="text_6">
      <!-- 0.12 -->
      <g transform="translate(436.650816 370.859412) scale(0.14 -0.14)">
       <use xlink:href="#DejaVuSans-30"/>
       <use xlink:href="#DejaVuSans-2e" x="63.623047"/>
       <use xlink:href="#DejaVuSans-31" x="95.410156"/>
       <use xlink:href="#DejaVuSans-32" x="159.033203"/>
      </g>
     </g>
    </g>
   </g>
   <g id="matplotlib.axis_2"/>
   <g id="line2d_7">
    <path d="M 149.450579 339.765066 
L 156.756894 339.667271 
L 160.742157 339.447837 
L 164.72742 338.989823 
L 166.720052 338.583659 
L 169.376894 337.7646 
L 172.033736 336.686589 
L 174.026367 335.611935 
L 176.018999 334.176217 
L 178.675841 331.88649 
L 180.668472 329.907715 
L 182.661104 327.526773 
L 183.989525 325.615265 
L 185.317946 323.396072 
L 187.310578 319.555577 
L 189.96742 313.825378 
L 191.960051 309.082796 
L 193.952683 303.76243 
L 195.281104 299.706691 
L 197.273735 292.726454 
L 202.587419 272.4013 
L 205.244261 261.279877 
L 207.236893 252.160779 
L 209.229524 241.848041 
L 221.185314 175.162712 
L 229.82005 129.058611 
L 231.812682 119.517042 
L 233.805313 111.028227 
L 240.447418 85.134865 
L 241.775839 80.886066 
L 243.10426 77.386052 
L 244.432681 74.430936 
L 245.761102 71.940981 
L 251.074786 63.136649 
L 251.738997 62.386134 
L 252.403207 61.885091 
L 253.067418 61.650083 
L 253.731628 61.6032 
L 255.060049 61.842991 
L 257.052681 62.330951 
L 257.716892 62.585381 
L 258.381102 62.965013 
L 259.045313 63.536355 
L 259.709523 64.300552 
L 261.037944 66.366932 
L 265.023207 73.621986 
L 266.351628 76.298423 
L 267.680049 79.366632 
L 271.665312 89.521932 
L 273.657944 95.197348 
L 275.650575 101.887255 
L 279.635838 116.50357 
L 285.613733 138.534566 
L 287.606364 146.036772 
L 289.598996 154.456531 
L 292.920049 168.94651 
L 302.218996 204.680875 
L 305.540048 216.298742 
L 310.189522 232.689674 
L 312.846364 242.059451 
L 314.838995 248.183657 
L 317.495837 255.31427 
L 324.802153 274.33787 
L 330.115837 286.049614 
L 332.772679 291.21566 
L 338.086363 300.952024 
L 339.414784 302.883919 
L 343.400047 308.181995 
L 346.7211 313.124624 
L 348.049521 314.796976 
L 349.377942 316.179818 
L 351.370573 317.818488 
L 354.027415 319.868895 
L 356.020047 321.701178 
L 358.676889 324.137062 
L 360.66952 325.544963 
L 364.654784 327.873716 
L 369.304257 330.450664 
L 372.62531 332.125047 
L 374.617941 332.89538 
L 377.938994 333.839779 
L 385.245309 335.588273 
L 391.887414 336.827594 
L 395.208467 337.557901 
L 397.865309 337.905545 
L 402.514783 338.277555 
L 407.828467 338.601369 
L 415.134782 338.99105 
L 424.433729 339.428465 
L 429.747413 339.511808 
L 457.644255 339.75481 
L 464.95057 339.791151 
L 483.548465 339.802613 
L 488.862149 339.794728 
L 488.862149 339.794728 
" clip-path="url(#p46d2c6a9dc)" style="fill: none; stroke: #1f77b4; stroke-width: 1.5; stroke-linecap: square"/>
   </g>
   <g id="line2d_8">
    <path d="M 195.150032 333.968832 
L 337.242549 333.968832 
" clip-path="url(#p46d2c6a9dc)" style="fill: none; stroke: #000000; stroke-width: 3"/>
   </g>
   <g id="patch_3">
    <path d="M 132.48 353.7216 
L 505.832727 353.7216 
" style="fill: none; stroke: #808080; stroke-width: 0.8; stroke-linejoin: miter; stroke-linecap: square"/>
   </g>
   <g id="text_7">
    <!-- 0.029  -->
    <g transform="translate(147.440657 319.362912) scale(0.15 -0.15)">
     <defs>
      <path id="DejaVuSans-39" d="M 703 97 
L 703 672 
Q 941 559 1184 500 
Q 1428 441 1663 441 
Q 2288 441 2617 861 
Q 2947 1281 2994 2138 
Q 2813 1869 2534 1725 
Q 2256 1581 1919 1581 
Q 1219 1581 811 2004 
Q 403 2428 403 3163 
Q 403 3881 828 4315 
Q 1253 4750 1959 4750 
Q 2769 4750 3195 4129 
Q 3622 3509 3622 2328 
Q 3622 1225 3098 567 
Q 2575 -91 1691 -91 
Q 1453 -91 1209 -44 
Q 966 3 703 97 
z
M 1959 2075 
Q 2384 2075 2632 2365 
Q 2881 2656 2881 3163 
Q 2881 3666 2632 3958 
Q 2384 4250 1959 4250 
Q 1534 4250 1286 3958 
Q 1038 3666 1038 3163 
Q 1038 2656 1286 2365 
Q 1534 2075 1959 2075 
z
" transform="scale(0.015625)"/>
      <path id="DejaVuSans-20" transform="scale(0.015625)"/>
     </defs>
     <use xlink:href="#DejaVuSans-30"/>
     <use xlink:href="#DejaVuSans-2e" x="63.623047"/>
     <use xlink:href="#DejaVuSans-30" x="95.410156"/>
     <use xlink:href="#DejaVuSans-32" x="159.033203"/>
     <use xlink:href="#DejaVuSans-39" x="222.65625"/>
     <use xlink:href="#DejaVuSans-20" x="286.279297"/>
    </g>
   </g>
   <g id="text_8">
    <!--  0.079 -->
    <g transform="translate(337.242549 319.362912) scale(0.15 -0.15)">
     <defs>
      <path id="DejaVuSans-37" d="M 525 4666 
L 3525 4666 
L 3525 4397 
L 1831 0 
L 1172 0 
L 2766 4134 
L 525 4134 
L 525 4666 
z
" transform="scale(0.015625)"/>
     </defs>
     <use xlink:href="#DejaVuSans-20"/>
     <use xlink:href="#DejaVuSans-30" x="31.787109"/>
     <use xlink:href="#DejaVuSans-2e" x="95.410156"/>
     <use xlink:href="#DejaVuSans-30" x="127.197266"/>
     <use xlink:href="#DejaVuSans-37" x="190.820312"/>
     <use xlink:href="#DejaVuSans-39" x="254.443359"/>
    </g>
   </g>
   <g id="text_9">
    <!-- 95% HDI -->
    <g transform="translate(233.515041 252.17568) scale(0.15 -0.15)">
     <defs>
      <path id="DejaVuSans-35" d="M 691 4666 
L 3169 4666 
L 3169 4134 
L 1269 4134 
L 1269 2991 
Q 1406 3038 1543 3061 
Q 1681 3084 1819 3084 
Q 2600 3084 3056 2656 
Q 3513 2228 3513 1497 
Q 3513 744 3044 326 
Q 2575 -91 1722 -91 
Q 1428 -91 1123 -41 
Q 819 9 494 109 
L 494 744 
Q 775 591 1075 516 
Q 1375 441 1709 441 
Q 2250 441 2565 725 
Q 2881 1009 2881 1497 
Q 2881 1984 2565 2268 
Q 2250 2553 1709 2553 
Q 1456 2553 1204 2497 
Q 953 2441 691 2322 
L 691 4666 
z
" transform="scale(0.015625)"/>
      <path id="DejaVuSans-25" d="M 4653 2053 
Q 4381 2053 4226 1822 
Q 4072 1591 4072 1178 
Q 4072 772 4226 539 
Q 4381 306 4653 306 
Q 4919 306 5073 539 
Q 5228 772 5228 1178 
Q 5228 1588 5073 1820 
Q 4919 2053 4653 2053 
z
M 4653 2450 
Q 5147 2450 5437 2106 
Q 5728 1763 5728 1178 
Q 5728 594 5436 251 
Q 5144 -91 4653 -91 
Q 4153 -91 3862 251 
Q 3572 594 3572 1178 
Q 3572 1766 3864 2108 
Q 4156 2450 4653 2450 
z
M 1428 4353 
Q 1159 4353 1004 4120 
Q 850 3888 850 3481 
Q 850 3069 1003 2837 
Q 1156 2606 1428 2606 
Q 1700 2606 1854 2837 
Q 2009 3069 2009 3481 
Q 2009 3884 1853 4118 
Q 1697 4353 1428 4353 
z
M 4250 4750 
L 4750 4750 
L 1831 -91 
L 1331 -91 
L 4250 4750 
z
M 1428 4750 
Q 1922 4750 2215 4408 
Q 2509 4066 2509 3481 
Q 2509 2891 2217 2550 
Q 1925 2209 1428 2209 
Q 931 2209 642 2551 
Q 353 2894 353 3481 
Q 353 4063 643 4406 
Q 934 4750 1428 4750 
z
" transform="scale(0.015625)"/>
      <path id="DejaVuSans-48" d="M 628 4666 
L 1259 4666 
L 1259 2753 
L 3553 2753 
L 3553 4666 
L 4184 4666 
L 4184 0 
L 3553 0 
L 3553 2222 
L 1259 2222 
L 1259 0 
L 628 0 
L 628 4666 
z
" transform="scale(0.015625)"/>
      <path id="DejaVuSans-44" d="M 1259 4147 
L 1259 519 
L 2022 519 
Q 2988 519 3436 956 
Q 3884 1394 3884 2338 
Q 3884 3275 3436 3711 
Q 2988 4147 2022 4147 
L 1259 4147 
z
M 628 4666 
L 1925 4666 
Q 3281 4666 3915 4102 
Q 4550 3538 4550 2338 
Q 4550 1131 3912 565 
Q 3275 0 1925 0 
L 628 0 
L 628 4666 
z
" transform="scale(0.015625)"/>
      <path id="DejaVuSans-49" d="M 628 4666 
L 1259 4666 
L 1259 0 
L 628 0 
L 628 4666 
z
" transform="scale(0.015625)"/>
     </defs>
     <use xlink:href="#DejaVuSans-39"/>
     <use xlink:href="#DejaVuSans-35" x="63.623047"/>
     <use xlink:href="#DejaVuSans-25" x="127.246094"/>
     <use xlink:href="#DejaVuSans-20" x="222.265625"/>
     <use xlink:href="#DejaVuSans-48" x="254.052734"/>
     <use xlink:href="#DejaVuSans-44" x="329.248047"/>
     <use xlink:href="#DejaVuSans-49" x="406.25"/>
    </g>
   </g>
   <g id="text_10">
    <!-- mean=0.053 -->
    <g transform="translate(214.724884 106.11648) scale(0.15 -0.15)">
     <defs>
      <path id="DejaVuSans-6d" d="M 3328 2828 
Q 3544 3216 3844 3400 
Q 4144 3584 4550 3584 
Q 5097 3584 5394 3201 
Q 5691 2819 5691 2113 
L 5691 0 
L 5113 0 
L 5113 2094 
Q 5113 2597 4934 2840 
Q 4756 3084 4391 3084 
Q 3944 3084 3684 2787 
Q 3425 2491 3425 1978 
L 3425 0 
L 2847 0 
L 2847 2094 
Q 2847 2600 2669 2842 
Q 2491 3084 2119 3084 
Q 1678 3084 1418 2786 
Q 1159 2488 1159 1978 
L 1159 0 
L 581 0 
L 581 3500 
L 1159 3500 
L 1159 2956 
Q 1356 3278 1631 3431 
Q 1906 3584 2284 3584 
Q 2666 3584 2933 3390 
Q 3200 3197 3328 2828 
z
" transform="scale(0.015625)"/>
      <path id="DejaVuSans-65" d="M 3597 1894 
L 3597 1613 
L 953 1613 
Q 991 1019 1311 708 
Q 1631 397 2203 397 
Q 2534 397 2845 478 
Q 3156 559 3463 722 
L 3463 178 
Q 3153 47 2828 -22 
Q 2503 -91 2169 -91 
Q 1331 -91 842 396 
Q 353 884 353 1716 
Q 353 2575 817 3079 
Q 1281 3584 2069 3584 
Q 2775 3584 3186 3129 
Q 3597 2675 3597 1894 
z
M 3022 2063 
Q 3016 2534 2758 2815 
Q 2500 3097 2075 3097 
Q 1594 3097 1305 2825 
Q 1016 2553 972 2059 
L 3022 2063 
z
" transform="scale(0.015625)"/>
      <path id="DejaVuSans-61" d="M 2194 1759 
Q 1497 1759 1228 1600 
Q 959 1441 959 1056 
Q 959 750 1161 570 
Q 1363 391 1709 391 
Q 2188 391 2477 730 
Q 2766 1069 2766 1631 
L 2766 1759 
L 2194 1759 
z
M 3341 1997 
L 3341 0 
L 2766 0 
L 2766 531 
Q 2569 213 2275 61 
Q 1981 -91 1556 -91 
Q 1019 -91 701 211 
Q 384 513 384 1019 
Q 384 1609 779 1909 
Q 1175 2209 1959 2209 
L 2766 2209 
L 2766 2266 
Q 2766 2663 2505 2880 
Q 2244 3097 1772 3097 
Q 1472 3097 1187 3025 
Q 903 2953 641 2809 
L 641 3341 
Q 956 3463 1253 3523 
Q 1550 3584 1831 3584 
Q 2591 3584 2966 3190 
Q 3341 2797 3341 1997 
z
" transform="scale(0.015625)"/>
      <path id="DejaVuSans-6e" d="M 3513 2113 
L 3513 0 
L 2938 0 
L 2938 2094 
Q 2938 2591 2744 2837 
Q 2550 3084 2163 3084 
Q 1697 3084 1428 2787 
Q 1159 2491 1159 1978 
L 1159 0 
L 581 0 
L 581 3500 
L 1159 3500 
L 1159 2956 
Q 1366 3272 1645 3428 
Q 1925 3584 2291 3584 
Q 2894 3584 3203 3211 
Q 3513 2838 3513 2113 
z
" transform="scale(0.015625)"/>
      <path id="DejaVuSans-3d" d="M 678 2906 
L 4684 2906 
L 4684 2381 
L 678 2381 
L 678 2906 
z
M 678 1631 
L 4684 1631 
L 4684 1100 
L 678 1100 
L 678 1631 
z
" transform="scale(0.015625)"/>
      <path id="DejaVuSans-33" d="M 2597 2516 
Q 3050 2419 3304 2112 
Q 3559 1806 3559 1356 
Q 3559 666 3084 287 
Q 2609 -91 1734 -91 
Q 1441 -91 1130 -33 
Q 819 25 488 141 
L 488 750 
Q 750 597 1062 519 
Q 1375 441 1716 441 
Q 2309 441 2620 675 
Q 2931 909 2931 1356 
Q 2931 1769 2642 2001 
Q 2353 2234 1838 2234 
L 1294 2234 
L 1294 2753 
L 1863 2753 
Q 2328 2753 2575 2939 
Q 2822 3125 2822 3475 
Q 2822 3834 2567 4026 
Q 2313 4219 1838 4219 
Q 1578 4219 1281 4162 
Q 984 4106 628 3988 
L 628 4550 
Q 988 4650 1302 4700 
Q 1616 4750 1894 4750 
Q 2613 4750 3031 4423 
Q 3450 4097 3450 3541 
Q 3450 3153 3228 2886 
Q 3006 2619 2597 2516 
z
" transform="scale(0.015625)"/>
     </defs>
     <use xlink:href="#DejaVuSans-6d"/>
     <use xlink:href="#DejaVuSans-65" x="97.412109"/>
     <use xlink:href="#DejaVuSans-61" x="158.935547"/>
     <use xlink:href="#DejaVuSans-6e" x="220.214844"/>
     <use xlink:href="#DejaVuSans-3d" x="283.59375"/>
     <use xlink:href="#DejaVuSans-30" x="367.382812"/>
     <use xlink:href="#DejaVuSans-2e" x="431.005859"/>
     <use xlink:href="#DejaVuSans-30" x="462.792969"/>
     <use xlink:href="#DejaVuSans-35" x="526.416016"/>
     <use xlink:href="#DejaVuSans-33" x="590.039062"/>
    </g>
   </g>
   <g id="text_11">
    <!-- θ -->
    <g transform="translate(314.261364 41.6928) scale(0.16 -0.16)">
     <defs>
      <path id="DejaVuSans-3b8" d="M 2953 2219 
L 963 2219 
Q 1009 1284 1225 888 
Q 1494 400 1959 400 
Q 2428 400 2688 891 
Q 2916 1322 2953 2219 
z
M 2944 2750 
Q 2856 3638 2688 3950 
Q 2419 4444 1959 4444 
Q 1481 4444 1228 3956 
Q 1028 3563 969 2750 
L 2944 2750 
z
M 1959 4913 
Q 2709 4913 3138 4250 
Q 3566 3591 3566 2422 
Q 3566 1256 3138 594 
Q 2709 -72 1959 -72 
Q 1206 -72 781 594 
Q 353 1256 353 2422 
Q 353 3591 781 4250 
Q 1206 4913 1959 4913 
z
" transform="scale(0.015625)"/>
     </defs>
     <use xlink:href="#DejaVuSans-3b8"/>
    </g>
   </g>
  </g>
  <g id="axes_2">
   <g id="patch_4">
    <path d="M 580.503273 353.7216 
L 953.856 353.7216 
L 953.856 47.6928 
L 580.503273 47.6928 
z
" style="fill: #ffffff"/>
   </g>
   <g id="PolyCollection_2">
    <defs>
     <path id="m14f71a60cd" d="M 597.473851 -57.6288 
L 597.473851 -57.673823 
L 598.138062 -57.675602 
L 598.802272 -57.679131 
L 599.466483 -57.683801 
L 600.130693 -57.689587 
L 600.794904 -57.69633 
L 601.459114 -57.703775 
L 602.123325 -57.712886 
L 602.787535 -57.724354 
L 603.451746 -57.739051 
L 604.115956 -57.758536 
L 604.780167 -57.78372 
L 605.444377 -57.815118 
L 606.108588 -57.85379 
L 606.772798 -57.89806 
L 607.437009 -57.947409 
L 608.101219 -57.999574 
L 608.76543 -58.053901 
L 609.42964 -58.109424 
L 610.093851 -58.166109 
L 610.758061 -58.225397 
L 611.422272 -58.289971 
L 612.086482 -58.363269 
L 612.750693 -58.448765 
L 613.414903 -58.548916 
L 614.079114 -58.666157 
L 614.743324 -58.801992 
L 615.407535 -58.95641 
L 616.071745 -59.129518 
L 616.735956 -59.32144 
L 617.400167 -59.531654 
L 618.064377 -59.761504 
L 618.728588 -60.010904 
L 619.392798 -60.280208 
L 620.057009 -60.568349 
L 620.721219 -60.875423 
L 621.38543 -61.19614 
L 622.04964 -61.530511 
L 622.713851 -61.877273 
L 623.378061 -62.239553 
L 624.042272 -62.617765 
L 624.706482 -63.017958 
L 625.370693 -63.444164 
L 626.034903 -63.899464 
L 626.699114 -64.389691 
L 627.363324 -64.914844 
L 628.027535 -65.481546 
L 628.691745 -66.0957 
L 629.355956 -66.760651 
L 630.020166 -67.480906 
L 630.684377 -68.257523 
L 631.348587 -69.086786 
L 632.012798 -69.961167 
L 632.677008 -70.876286 
L 633.341219 -71.828588 
L 634.005429 -72.816841 
L 634.66964 -73.840993 
L 635.33385 -74.907142 
L 635.998061 -76.018322 
L 636.662271 -77.18118 
L 637.326482 -78.395669 
L 637.990692 -79.66749 
L 638.654903 -80.991486 
L 639.319113 -82.372687 
L 639.983324 -83.804091 
L 640.647534 -85.288635 
L 641.311745 -86.824134 
L 641.975955 -88.409618 
L 642.640166 -90.058973 
L 643.304376 -91.768345 
L 643.968587 -93.550746 
L 644.632797 -95.415533 
L 645.297008 -97.366578 
L 645.961218 -99.406541 
L 646.625429 -101.527832 
L 647.289639 -103.721288 
L 647.95385 -105.963563 
L 648.61806 -108.229533 
L 649.282271 -110.499026 
L 649.946481 -112.760574 
L 650.610692 -115.013098 
L 651.274902 -117.277201 
L 651.939113 -119.581412 
L 652.603324 -121.955619 
L 653.267534 -124.422766 
L 653.931745 -127.001061 
L 654.595955 -129.677356 
L 655.260166 -132.441982 
L 655.924376 -135.274615 
L 656.588587 -138.165907 
L 657.252797 -141.111316 
L 657.917008 -144.109646 
L 658.581218 -147.179288 
L 659.245429 -150.312425 
L 659.909639 -153.508797 
L 660.57385 -156.76161 
L 661.23806 -160.059831 
L 661.902271 -163.398956 
L 662.566481 -166.770179 
L 663.230692 -170.164917 
L 663.894902 -173.583457 
L 664.559113 -177.014507 
L 665.223323 -180.453087 
L 665.887534 -183.898271 
L 666.551744 -187.349448 
L 667.215955 -190.810604 
L 667.880165 -194.297263 
L 668.544376 -197.803712 
L 669.208586 -201.325474 
L 669.872797 -204.862213 
L 670.537007 -208.387226 
L 671.201218 -211.882085 
L 671.865428 -215.33126 
L 672.529639 -218.734426 
L 673.193849 -222.092802 
L 673.85806 -225.407881 
L 674.52227 -228.699931 
L 675.186481 -231.971812 
L 675.850691 -235.225301 
L 676.514902 -238.481548 
L 677.179112 -241.73738 
L 677.843323 -245.012229 
L 678.507533 -248.327404 
L 679.171744 -251.672774 
L 679.835954 -255.051538 
L 680.500165 -258.437162 
L 681.164375 -261.785927 
L 681.828586 -265.054789 
L 682.492796 -268.214551 
L 683.157007 -271.244911 
L 683.821217 -274.159943 
L 684.485428 -276.990092 
L 685.149638 -279.753706 
L 685.813849 -282.513629 
L 686.478059 -285.287951 
L 687.14227 -288.082018 
L 687.806481 -290.880399 
L 688.470691 -293.663976 
L 689.134902 -296.405809 
L 689.799112 -299.069994 
L 690.463323 -301.659666 
L 691.127533 -304.15921 
L 691.791744 -306.573908 
L 692.455954 -308.911057 
L 693.120165 -311.174321 
L 693.784375 -313.354805 
L 694.448586 -315.446393 
L 695.112796 -317.432441 
L 695.777007 -319.309851 
L 696.441217 -321.071243 
L 697.105428 -322.725283 
L 697.769638 -324.281499 
L 698.433849 -325.728044 
L 699.098059 -327.065696 
L 699.76227 -328.276028 
L 700.42648 -329.367711 
L 701.090691 -330.307737 
L 701.754901 -331.102151 
L 702.419112 -331.769121 
L 703.083322 -332.325317 
L 703.747533 -332.785557 
L 704.411743 -333.191683 
L 705.075954 -333.56296 
L 705.740164 -333.910175 
L 706.404375 -334.259516 
L 707.068585 -334.607238 
L 707.732796 -334.954606 
L 708.397006 -335.278767 
L 709.061217 -335.553699 
L 709.725427 -335.753913 
L 710.389638 -335.8368 
L 711.053848 -335.777885 
L 711.718059 -335.562562 
L 712.382269 -335.156429 
L 713.04648 -334.572033 
L 713.71069 -333.83907 
L 714.374901 -332.972687 
L 715.039111 -332.025566 
L 715.703322 -331.013892 
L 716.367532 -329.966382 
L 717.031743 -328.887189 
L 717.695953 -327.7658 
L 718.360164 -326.570762 
L 719.024374 -325.292401 
L 719.688585 -323.900322 
L 720.352795 -322.410345 
L 721.017006 -320.833318 
L 721.681216 -319.200606 
L 722.345427 -317.534096 
L 723.009637 -315.866032 
L 723.673848 -314.198023 
L 724.338059 -312.534496 
L 725.002269 -310.860821 
L 725.66648 -309.177409 
L 726.33069 -307.452956 
L 726.994901 -305.694098 
L 727.659111 -303.895123 
L 728.323322 -302.041201 
L 728.987532 -300.129339 
L 729.651743 -298.156072 
L 730.315953 -296.120736 
L 730.980164 -294.04605 
L 731.644374 -291.95168 
L 732.308585 -289.842914 
L 732.972795 -287.738258 
L 733.637006 -285.642082 
L 734.301216 -283.536347 
L 734.965427 -281.413213 
L 735.629637 -279.261233 
L 736.293848 -277.073821 
L 736.958058 -274.849759 
L 737.622269 -272.591809 
L 738.286479 -270.293468 
L 738.95069 -267.944376 
L 739.6149 -265.518671 
L 740.279111 -262.998884 
L 740.943321 -260.379938 
L 741.607532 -257.687054 
L 742.271742 -254.945262 
L 742.935953 -252.219828 
L 743.600163 -249.546296 
L 744.264374 -246.949429 
L 744.928584 -244.434636 
L 745.592795 -241.972545 
L 746.257005 -239.536828 
L 746.921216 -237.088898 
L 747.585426 -234.616198 
L 748.249637 -232.110822 
L 748.913847 -229.590011 
L 749.578058 -227.064347 
L 750.242268 -224.541404 
L 750.906479 -222.024485 
L 751.570689 -219.514052 
L 752.2349 -216.995415 
L 752.89911 -214.467582 
L 753.563321 -211.92296 
L 754.227531 -209.357061 
L 754.891742 -206.772007 
L 755.555952 -204.172566 
L 756.220163 -201.570382 
L 756.884373 -198.986965 
L 757.548584 -196.450094 
L 758.212794 -193.973379 
L 758.877005 -191.583793 
L 759.541216 -189.281001 
L 760.205426 -187.045606 
L 760.869637 -184.849366 
L 761.533847 -182.666445 
L 762.198058 -180.474793 
L 762.862268 -178.258742 
L 763.526479 -176.016278 
L 764.190689 -173.757213 
L 764.8549 -171.502879 
L 765.51911 -169.27259 
L 766.183321 -167.079828 
L 766.847531 -164.929347 
L 767.511742 -162.836276 
L 768.175952 -160.790949 
L 768.840163 -158.784276 
L 769.504373 -156.8197 
L 770.168584 -154.883351 
L 770.832794 -152.968821 
L 771.497005 -151.066762 
L 772.161215 -149.167545 
L 772.825426 -147.257791 
L 773.489636 -145.336522 
L 774.153847 -143.393734 
L 774.818057 -141.433137 
L 775.482268 -139.460467 
L 776.146478 -137.496891 
L 776.810689 -135.561057 
L 777.474899 -133.667704 
L 778.13911 -131.832034 
L 778.80332 -130.062684 
L 779.467531 -128.367525 
L 780.131741 -126.738743 
L 780.795952 -125.180996 
L 781.460162 -123.688099 
L 782.124373 -122.259903 
L 782.788583 -120.878691 
L 783.452794 -119.543312 
L 784.117004 -118.242844 
L 784.781215 -116.961718 
L 785.445425 -115.693036 
L 786.109636 -114.428982 
L 786.773846 -113.170935 
L 787.438057 -111.914597 
L 788.102267 -110.657881 
L 788.766478 -109.400657 
L 789.430688 -108.150132 
L 790.094899 -106.916393 
L 790.759109 -105.705254 
L 791.42332 -104.523 
L 792.08753 -103.375335 
L 792.751741 -102.266726 
L 793.415951 -101.18753 
L 794.080162 -100.125707 
L 794.744372 -99.073153 
L 795.408583 -98.021105 
L 796.072794 -96.967242 
L 796.737004 -95.916175 
L 797.401215 -94.866464 
L 798.065425 -93.829373 
L 798.729636 -92.807624 
L 799.393846 -91.813005 
L 800.058057 -90.853112 
L 800.722267 -89.940886 
L 801.386478 -89.079572 
L 802.050688 -88.269449 
L 802.714899 -87.500009 
L 803.379109 -86.757313 
L 804.04332 -86.025414 
L 804.70753 -85.289906 
L 805.371741 -84.539901 
L 806.035951 -83.782806 
L 806.700162 -83.02195 
L 807.364372 -82.266338 
L 808.028583 -81.530361 
L 808.692793 -80.820536 
L 809.357004 -80.145454 
L 810.021214 -79.507629 
L 810.685425 -78.908114 
L 811.349635 -78.340124 
L 812.013846 -77.794652 
L 812.678056 -77.26679 
L 813.342267 -76.74442 
L 814.006477 -76.226551 
L 814.670688 -75.711344 
L 815.334898 -75.204064 
L 815.999109 -74.711327 
L 816.663319 -74.235621 
L 817.32753 -73.774391 
L 817.99174 -73.326125 
L 818.655951 -72.880538 
L 819.320161 -72.433043 
L 819.984372 -71.975693 
L 820.648582 -71.513394 
L 821.312793 -71.045877 
L 821.977003 -70.583325 
L 822.641214 -70.132079 
L 823.305424 -69.700043 
L 823.969635 -69.294619 
L 824.633845 -68.918213 
L 825.298056 -68.570538 
L 825.962266 -68.249889 
L 826.626477 -67.95217 
L 827.290687 -67.669657 
L 827.954898 -67.390621 
L 828.619108 -67.109383 
L 829.283319 -66.81743 
L 829.947529 -66.51285 
L 830.61174 -66.196254 
L 831.275951 -65.871871 
L 831.940161 -65.549642 
L 832.604372 -65.239802 
L 833.268582 -64.948283 
L 833.932793 -64.678354 
L 834.597003 -64.431127 
L 835.261214 -64.203994 
L 835.925424 -63.992701 
L 836.589635 -63.793832 
L 837.253845 -63.60446 
L 837.918056 -63.424118 
L 838.582266 -63.25124 
L 839.246477 -63.083726 
L 839.910687 -62.919355 
L 840.574898 -62.756883 
L 841.239108 -62.594692 
L 841.903319 -62.433389 
L 842.567529 -62.276479 
L 843.23174 -62.12712 
L 843.89595 -61.988746 
L 844.560161 -61.86434 
L 845.224371 -61.752574 
L 845.888582 -61.649155 
L 846.552792 -61.549655 
L 847.217003 -61.446795 
L 847.881213 -61.336093 
L 848.545424 -61.21537 
L 849.209634 -61.086844 
L 849.873845 -60.9531 
L 850.538055 -60.820193 
L 851.202266 -60.690807 
L 851.866476 -60.568414 
L 852.530687 -60.45152 
L 853.194897 -60.338154 
L 853.859108 -60.226413 
L 854.523318 -60.114813 
L 855.187529 -60.002733 
L 855.851739 -59.893183 
L 856.51595 -59.78693 
L 857.18016 -59.687164 
L 857.844371 -59.595029 
L 858.508581 -59.511742 
L 859.172792 -59.436128 
L 859.837002 -59.367949 
L 860.501213 -59.306158 
L 861.165423 -59.25022 
L 861.829634 -59.199125 
L 862.493844 -59.15169 
L 863.158055 -59.105099 
L 863.822265 -59.058876 
L 864.486476 -59.011912 
L 865.150686 -58.963216 
L 865.814897 -58.913006 
L 866.479108 -58.862917 
L 867.143318 -58.813462 
L 867.807529 -58.766363 
L 868.471739 -58.722261 
L 869.13595 -58.680246 
L 869.80016 -58.640344 
L 870.464371 -58.602874 
L 871.128581 -58.565614 
L 871.792792 -58.529736 
L 872.457002 -58.494555 
L 873.121213 -58.460751 
L 873.785423 -58.427846 
L 874.449634 -58.396078 
L 875.113844 -58.364225 
L 875.778055 -58.332281 
L 876.442265 -58.300105 
L 877.106476 -58.267981 
L 877.770686 -58.236476 
L 878.434897 -58.207086 
L 879.099107 -58.180823 
L 879.763318 -58.157566 
L 880.427528 -58.137968 
L 881.091739 -58.121318 
L 881.755949 -58.106542 
L 882.42016 -58.093242 
L 883.08437 -58.0815 
L 883.748581 -58.070507 
L 884.412791 -58.061214 
L 885.077002 -58.052688 
L 885.741212 -58.044041 
L 886.405423 -58.035493 
L 887.069633 -58.025352 
L 887.733844 -58.013338 
L 888.398054 -57.998917 
L 889.062265 -57.982611 
L 889.726475 -57.96457 
L 890.390686 -57.946073 
L 891.054896 -57.927818 
L 891.719107 -57.911364 
L 892.383317 -57.897529 
L 893.047528 -57.887209 
L 893.711738 -57.879967 
L 894.375949 -57.874895 
L 895.040159 -57.870949 
L 895.70437 -57.866403 
L 896.36858 -57.86022 
L 897.032791 -57.851854 
L 897.697001 -57.841897 
L 898.361212 -57.830931 
L 899.025422 -57.820561 
L 899.689633 -57.811465 
L 900.353843 -57.804261 
L 901.018054 -57.798862 
L 901.682264 -57.794989 
L 902.346475 -57.792278 
L 903.010686 -57.789796 
L 903.674896 -57.78755 
L 904.339107 -57.785128 
L 905.003317 -57.782625 
L 905.667528 -57.780238 
L 906.331738 -57.778263 
L 906.995949 -57.776668 
L 907.660159 -57.775441 
L 908.32437 -57.774406 
L 908.98858 -57.772981 
L 909.652791 -57.770748 
L 910.317001 -57.767557 
L 910.981212 -57.7633 
L 911.645422 -57.758215 
L 912.309633 -57.752533 
L 912.973843 -57.746671 
L 913.638054 -57.740689 
L 914.302264 -57.734411 
L 914.966475 -57.72803 
L 915.630685 -57.721492 
L 916.294896 -57.714498 
L 916.959106 -57.70726 
L 917.623317 -57.699803 
L 918.287527 -57.692555 
L 918.951738 -57.685551 
L 919.615948 -57.679153 
L 920.280159 -57.673583 
L 920.944369 -57.668922 
L 921.60858 -57.665395 
L 922.27279 -57.662975 
L 922.937001 -57.661528 
L 923.601211 -57.660631 
L 924.265422 -57.660254 
L 924.929632 -57.659887 
L 925.593843 -57.659414 
L 926.258053 -57.658652 
L 926.922264 -57.657544 
L 927.586474 -57.656355 
L 928.250685 -57.654997 
L 928.914895 -57.653647 
L 929.579106 -57.652475 
L 930.243316 -57.651565 
L 930.907527 -57.650998 
L 931.571737 -57.650915 
L 932.235948 -57.651228 
L 932.900158 -57.651909 
L 933.564369 -57.652927 
L 934.228579 -57.654148 
L 934.89279 -57.655402 
L 935.557 -57.656619 
L 936.221211 -57.657488 
L 936.885421 -57.657973 
L 936.885421 -57.6288 
L 936.885421 -57.6288 
L 936.221211 -57.6288 
L 935.557 -57.6288 
L 934.89279 -57.6288 
L 934.228579 -57.6288 
L 933.564369 -57.6288 
L 932.900158 -57.6288 
L 932.235948 -57.6288 
L 931.571737 -57.6288 
L 930.907527 -57.6288 
L 930.243316 -57.6288 
L 929.579106 -57.6288 
L 928.914895 -57.6288 
L 928.250685 -57.6288 
L 927.586474 -57.6288 
L 926.922264 -57.6288 
L 926.258053 -57.6288 
L 925.593843 -57.6288 
L 924.929632 -57.6288 
L 924.265422 -57.6288 
L 923.601211 -57.6288 
L 922.937001 -57.6288 
L 922.27279 -57.6288 
L 921.60858 -57.6288 
L 920.944369 -57.6288 
L 920.280159 -57.6288 
L 919.615948 -57.6288 
L 918.951738 -57.6288 
L 918.287527 -57.6288 
L 917.623317 -57.6288 
L 916.959106 -57.6288 
L 916.294896 -57.6288 
L 915.630685 -57.6288 
L 914.966475 -57.6288 
L 914.302264 -57.6288 
L 913.638054 -57.6288 
L 912.973843 -57.6288 
L 912.309633 -57.6288 
L 911.645422 -57.6288 
L 910.981212 -57.6288 
L 910.317001 -57.6288 
L 909.652791 -57.6288 
L 908.98858 -57.6288 
L 908.32437 -57.6288 
L 907.660159 -57.6288 
L 906.995949 -57.6288 
L 906.331738 -57.6288 
L 905.667528 -57.6288 
L 905.003317 -57.6288 
L 904.339107 -57.6288 
L 903.674896 -57.6288 
L 903.010686 -57.6288 
L 902.346475 -57.6288 
L 901.682264 -57.6288 
L 901.018054 -57.6288 
L 900.353843 -57.6288 
L 899.689633 -57.6288 
L 899.025422 -57.6288 
L 898.361212 -57.6288 
L 897.697001 -57.6288 
L 897.032791 -57.6288 
L 896.36858 -57.6288 
L 895.70437 -57.6288 
L 895.040159 -57.6288 
L 894.375949 -57.6288 
L 893.711738 -57.6288 
L 893.047528 -57.6288 
L 892.383317 -57.6288 
L 891.719107 -57.6288 
L 891.054896 -57.6288 
L 890.390686 -57.6288 
L 889.726475 -57.6288 
L 889.062265 -57.6288 
L 888.398054 -57.6288 
L 887.733844 -57.6288 
L 887.069633 -57.6288 
L 886.405423 -57.6288 
L 885.741212 -57.6288 
L 885.077002 -57.6288 
L 884.412791 -57.6288 
L 883.748581 -57.6288 
L 883.08437 -57.6288 
L 882.42016 -57.6288 
L 881.755949 -57.6288 
L 881.091739 -57.6288 
L 880.427528 -57.6288 
L 879.763318 -57.6288 
L 879.099107 -57.6288 
L 878.434897 -57.6288 
L 877.770686 -57.6288 
L 877.106476 -57.6288 
L 876.442265 -57.6288 
L 875.778055 -57.6288 
L 875.113844 -57.6288 
L 874.449634 -57.6288 
L 873.785423 -57.6288 
L 873.121213 -57.6288 
L 872.457002 -57.6288 
L 871.792792 -57.6288 
L 871.128581 -57.6288 
L 870.464371 -57.6288 
L 869.80016 -57.6288 
L 869.13595 -57.6288 
L 868.471739 -57.6288 
L 867.807529 -57.6288 
L 867.143318 -57.6288 
L 866.479108 -57.6288 
L 865.814897 -57.6288 
L 865.150686 -57.6288 
L 864.486476 -57.6288 
L 863.822265 -57.6288 
L 863.158055 -57.6288 
L 862.493844 -57.6288 
L 861.829634 -57.6288 
L 861.165423 -57.6288 
L 860.501213 -57.6288 
L 859.837002 -57.6288 
L 859.172792 -57.6288 
L 858.508581 -57.6288 
L 857.844371 -57.6288 
L 857.18016 -57.6288 
L 856.51595 -57.6288 
L 855.851739 -57.6288 
L 855.187529 -57.6288 
L 854.523318 -57.6288 
L 853.859108 -57.6288 
L 853.194897 -57.6288 
L 852.530687 -57.6288 
L 851.866476 -57.6288 
L 851.202266 -57.6288 
L 850.538055 -57.6288 
L 849.873845 -57.6288 
L 849.209634 -57.6288 
L 848.545424 -57.6288 
L 847.881213 -57.6288 
L 847.217003 -57.6288 
L 846.552792 -57.6288 
L 845.888582 -57.6288 
L 845.224371 -57.6288 
L 844.560161 -57.6288 
L 843.89595 -57.6288 
L 843.23174 -57.6288 
L 842.567529 -57.6288 
L 841.903319 -57.6288 
L 841.239108 -57.6288 
L 840.574898 -57.6288 
L 839.910687 -57.6288 
L 839.246477 -57.6288 
L 838.582266 -57.6288 
L 837.918056 -57.6288 
L 837.253845 -57.6288 
L 836.589635 -57.6288 
L 835.925424 -57.6288 
L 835.261214 -57.6288 
L 834.597003 -57.6288 
L 833.932793 -57.6288 
L 833.268582 -57.6288 
L 832.604372 -57.6288 
L 831.940161 -57.6288 
L 831.275951 -57.6288 
L 830.61174 -57.6288 
L 829.947529 -57.6288 
L 829.283319 -57.6288 
L 828.619108 -57.6288 
L 827.954898 -57.6288 
L 827.290687 -57.6288 
L 826.626477 -57.6288 
L 825.962266 -57.6288 
L 825.298056 -57.6288 
L 824.633845 -57.6288 
L 823.969635 -57.6288 
L 823.305424 -57.6288 
L 822.641214 -57.6288 
L 821.977003 -57.6288 
L 821.312793 -57.6288 
L 820.648582 -57.6288 
L 819.984372 -57.6288 
L 819.320161 -57.6288 
L 818.655951 -57.6288 
L 817.99174 -57.6288 
L 817.32753 -57.6288 
L 816.663319 -57.6288 
L 815.999109 -57.6288 
L 815.334898 -57.6288 
L 814.670688 -57.6288 
L 814.006477 -57.6288 
L 813.342267 -57.6288 
L 812.678056 -57.6288 
L 812.013846 -57.6288 
L 811.349635 -57.6288 
L 810.685425 -57.6288 
L 810.021214 -57.6288 
L 809.357004 -57.6288 
L 808.692793 -57.6288 
L 808.028583 -57.6288 
L 807.364372 -57.6288 
L 806.700162 -57.6288 
L 806.035951 -57.6288 
L 805.371741 -57.6288 
L 804.70753 -57.6288 
L 804.04332 -57.6288 
L 803.379109 -57.6288 
L 802.714899 -57.6288 
L 802.050688 -57.6288 
L 801.386478 -57.6288 
L 800.722267 -57.6288 
L 800.058057 -57.6288 
L 799.393846 -57.6288 
L 798.729636 -57.6288 
L 798.065425 -57.6288 
L 797.401215 -57.6288 
L 796.737004 -57.6288 
L 796.072794 -57.6288 
L 795.408583 -57.6288 
L 794.744372 -57.6288 
L 794.080162 -57.6288 
L 793.415951 -57.6288 
L 792.751741 -57.6288 
L 792.08753 -57.6288 
L 791.42332 -57.6288 
L 790.759109 -57.6288 
L 790.094899 -57.6288 
L 789.430688 -57.6288 
L 788.766478 -57.6288 
L 788.102267 -57.6288 
L 787.438057 -57.6288 
L 786.773846 -57.6288 
L 786.109636 -57.6288 
L 785.445425 -57.6288 
L 784.781215 -57.6288 
L 784.117004 -57.6288 
L 783.452794 -57.6288 
L 782.788583 -57.6288 
L 782.124373 -57.6288 
L 781.460162 -57.6288 
L 780.795952 -57.6288 
L 780.131741 -57.6288 
L 779.467531 -57.6288 
L 778.80332 -57.6288 
L 778.13911 -57.6288 
L 777.474899 -57.6288 
L 776.810689 -57.6288 
L 776.146478 -57.6288 
L 775.482268 -57.6288 
L 774.818057 -57.6288 
L 774.153847 -57.6288 
L 773.489636 -57.6288 
L 772.825426 -57.6288 
L 772.161215 -57.6288 
L 771.497005 -57.6288 
L 770.832794 -57.6288 
L 770.168584 -57.6288 
L 769.504373 -57.6288 
L 768.840163 -57.6288 
L 768.175952 -57.6288 
L 767.511742 -57.6288 
L 766.847531 -57.6288 
L 766.183321 -57.6288 
L 765.51911 -57.6288 
L 764.8549 -57.6288 
L 764.190689 -57.6288 
L 763.526479 -57.6288 
L 762.862268 -57.6288 
L 762.198058 -57.6288 
L 761.533847 -57.6288 
L 760.869637 -57.6288 
L 760.205426 -57.6288 
L 759.541216 -57.6288 
L 758.877005 -57.6288 
L 758.212794 -57.6288 
L 757.548584 -57.6288 
L 756.884373 -57.6288 
L 756.220163 -57.6288 
L 755.555952 -57.6288 
L 754.891742 -57.6288 
L 754.227531 -57.6288 
L 753.563321 -57.6288 
L 752.89911 -57.6288 
L 752.2349 -57.6288 
L 751.570689 -57.6288 
L 750.906479 -57.6288 
L 750.242268 -57.6288 
L 749.578058 -57.6288 
L 748.913847 -57.6288 
L 748.249637 -57.6288 
L 747.585426 -57.6288 
L 746.921216 -57.6288 
L 746.257005 -57.6288 
L 745.592795 -57.6288 
L 744.928584 -57.6288 
L 744.264374 -57.6288 
L 743.600163 -57.6288 
L 742.935953 -57.6288 
L 742.271742 -57.6288 
L 741.607532 -57.6288 
L 740.943321 -57.6288 
L 740.279111 -57.6288 
L 739.6149 -57.6288 
L 738.95069 -57.6288 
L 738.286479 -57.6288 
L 737.622269 -57.6288 
L 736.958058 -57.6288 
L 736.293848 -57.6288 
L 735.629637 -57.6288 
L 734.965427 -57.6288 
L 734.301216 -57.6288 
L 733.637006 -57.6288 
L 732.972795 -57.6288 
L 732.308585 -57.6288 
L 731.644374 -57.6288 
L 730.980164 -57.6288 
L 730.315953 -57.6288 
L 729.651743 -57.6288 
L 728.987532 -57.6288 
L 728.323322 -57.6288 
L 727.659111 -57.6288 
L 726.994901 -57.6288 
L 726.33069 -57.6288 
L 725.66648 -57.6288 
L 725.002269 -57.6288 
L 724.338059 -57.6288 
L 723.673848 -57.6288 
L 723.009637 -57.6288 
L 722.345427 -57.6288 
L 721.681216 -57.6288 
L 721.017006 -57.6288 
L 720.352795 -57.6288 
L 719.688585 -57.6288 
L 719.024374 -57.6288 
L 718.360164 -57.6288 
L 717.695953 -57.6288 
L 717.031743 -57.6288 
L 716.367532 -57.6288 
L 715.703322 -57.6288 
L 715.039111 -57.6288 
L 714.374901 -57.6288 
L 713.71069 -57.6288 
L 713.04648 -57.6288 
L 712.382269 -57.6288 
L 711.718059 -57.6288 
L 711.053848 -57.6288 
L 710.389638 -57.6288 
L 709.725427 -57.6288 
L 709.061217 -57.6288 
L 708.397006 -57.6288 
L 707.732796 -57.6288 
L 707.068585 -57.6288 
L 706.404375 -57.6288 
L 705.740164 -57.6288 
L 705.075954 -57.6288 
L 704.411743 -57.6288 
L 703.747533 -57.6288 
L 703.083322 -57.6288 
L 702.419112 -57.6288 
L 701.754901 -57.6288 
L 701.090691 -57.6288 
L 700.42648 -57.6288 
L 699.76227 -57.6288 
L 699.098059 -57.6288 
L 698.433849 -57.6288 
L 697.769638 -57.6288 
L 697.105428 -57.6288 
L 696.441217 -57.6288 
L 695.777007 -57.6288 
L 695.112796 -57.6288 
L 694.448586 -57.6288 
L 693.784375 -57.6288 
L 693.120165 -57.6288 
L 692.455954 -57.6288 
L 691.791744 -57.6288 
L 691.127533 -57.6288 
L 690.463323 -57.6288 
L 689.799112 -57.6288 
L 689.134902 -57.6288 
L 688.470691 -57.6288 
L 687.806481 -57.6288 
L 687.14227 -57.6288 
L 686.478059 -57.6288 
L 685.813849 -57.6288 
L 685.149638 -57.6288 
L 684.485428 -57.6288 
L 683.821217 -57.6288 
L 683.157007 -57.6288 
L 682.492796 -57.6288 
L 681.828586 -57.6288 
L 681.164375 -57.6288 
L 680.500165 -57.6288 
L 679.835954 -57.6288 
L 679.171744 -57.6288 
L 678.507533 -57.6288 
L 677.843323 -57.6288 
L 677.179112 -57.6288 
L 676.514902 -57.6288 
L 675.850691 -57.6288 
L 675.186481 -57.6288 
L 674.52227 -57.6288 
L 673.85806 -57.6288 
L 673.193849 -57.6288 
L 672.529639 -57.6288 
L 671.865428 -57.6288 
L 671.201218 -57.6288 
L 670.537007 -57.6288 
L 669.872797 -57.6288 
L 669.208586 -57.6288 
L 668.544376 -57.6288 
L 667.880165 -57.6288 
L 667.215955 -57.6288 
L 666.551744 -57.6288 
L 665.887534 -57.6288 
L 665.223323 -57.6288 
L 664.559113 -57.6288 
L 663.894902 -57.6288 
L 663.230692 -57.6288 
L 662.566481 -57.6288 
L 661.902271 -57.6288 
L 661.23806 -57.6288 
L 660.57385 -57.6288 
L 659.909639 -57.6288 
L 659.245429 -57.6288 
L 658.581218 -57.6288 
L 657.917008 -57.6288 
L 657.252797 -57.6288 
L 656.588587 -57.6288 
L 655.924376 -57.6288 
L 655.260166 -57.6288 
L 654.595955 -57.6288 
L 653.931745 -57.6288 
L 653.267534 -57.6288 
L 652.603324 -57.6288 
L 651.939113 -57.6288 
L 651.274902 -57.6288 
L 650.610692 -57.6288 
L 649.946481 -57.6288 
L 649.282271 -57.6288 
L 648.61806 -57.6288 
L 647.95385 -57.6288 
L 647.289639 -57.6288 
L 646.625429 -57.6288 
L 645.961218 -57.6288 
L 645.297008 -57.6288 
L 644.632797 -57.6288 
L 643.968587 -57.6288 
L 643.304376 -57.6288 
L 642.640166 -57.6288 
L 641.975955 -57.6288 
L 641.311745 -57.6288 
L 640.647534 -57.6288 
L 639.983324 -57.6288 
L 639.319113 -57.6288 
L 638.654903 -57.6288 
L 637.990692 -57.6288 
L 637.326482 -57.6288 
L 636.662271 -57.6288 
L 635.998061 -57.6288 
L 635.33385 -57.6288 
L 634.66964 -57.6288 
L 634.005429 -57.6288 
L 633.341219 -57.6288 
L 632.677008 -57.6288 
L 632.012798 -57.6288 
L 631.348587 -57.6288 
L 630.684377 -57.6288 
L 630.020166 -57.6288 
L 629.355956 -57.6288 
L 628.691745 -57.6288 
L 628.027535 -57.6288 
L 627.363324 -57.6288 
L 626.699114 -57.6288 
L 626.034903 -57.6288 
L 625.370693 -57.6288 
L 624.706482 -57.6288 
L 624.042272 -57.6288 
L 623.378061 -57.6288 
L 622.713851 -57.6288 
L 622.04964 -57.6288 
L 621.38543 -57.6288 
L 620.721219 -57.6288 
L 620.057009 -57.6288 
L 619.392798 -57.6288 
L 618.728588 -57.6288 
L 618.064377 -57.6288 
L 617.400167 -57.6288 
L 616.735956 -57.6288 
L 616.071745 -57.6288 
L 615.407535 -57.6288 
L 614.743324 -57.6288 
L 614.079114 -57.6288 
L 613.414903 -57.6288 
L 612.750693 -57.6288 
L 612.086482 -57.6288 
L 611.422272 -57.6288 
L 610.758061 -57.6288 
L 610.093851 -57.6288 
L 609.42964 -57.6288 
L 608.76543 -57.6288 
L 608.101219 -57.6288 
L 607.437009 -57.6288 
L 606.772798 -57.6288 
L 606.108588 -57.6288 
L 605.444377 -57.6288 
L 604.780167 -57.6288 
L 604.115956 -57.6288 
L 603.451746 -57.6288 
L 602.787535 -57.6288 
L 602.123325 -57.6288 
L 601.459114 -57.6288 
L 600.794904 -57.6288 
L 600.130693 -57.6288 
L 599.466483 -57.6288 
L 598.802272 -57.6288 
L 598.138062 -57.6288 
L 597.473851 -57.6288 
z
" style="stroke: #1f77b4; stroke-opacity: 0"/>
    </defs>
    <g clip-path="url(#p44a1226a6f)">
     <use xlink:href="#m14f71a60cd" x="0" y="397.44" style="fill: #1f77b4; fill-opacity: 0; stroke: #1f77b4; stroke-opacity: 0"/>
    </g>
   </g>
   <g id="matplotlib.axis_3">
    <g id="xtick_7">
     <g id="line2d_9">
      <g>
       <use xlink:href="#m74b60b590a" x="618.205642" y="353.7216" style="fill: #808080; stroke: #808080"/>
      </g>
     </g>
     <g id="text_12">
      <!-- 0.02 -->
      <g transform="translate(602.619705 370.859412) scale(0.14 -0.14)">
       <use xlink:href="#DejaVuSans-30"/>
       <use xlink:href="#DejaVuSans-2e" x="63.623047"/>
       <use xlink:href="#DejaVuSans-30" x="95.410156"/>
       <use xlink:href="#DejaVuSans-32" x="159.033203"/>
      </g>
     </g>
    </g>
    <g id="xtick_8">
     <g id="line2d_10">
      <g>
       <use xlink:href="#m74b60b590a" x="678.652281" y="353.7216" style="fill: #808080; stroke: #808080"/>
      </g>
     </g>
     <g id="text_13">
      <!-- 0.04 -->
      <g transform="translate(663.066344 370.859412) scale(0.14 -0.14)">
       <use xlink:href="#DejaVuSans-30"/>
       <use xlink:href="#DejaVuSans-2e" x="63.623047"/>
       <use xlink:href="#DejaVuSans-30" x="95.410156"/>
       <use xlink:href="#DejaVuSans-34" x="159.033203"/>
      </g>
     </g>
    </g>
    <g id="xtick_9">
     <g id="line2d_11">
      <g>
       <use xlink:href="#m74b60b590a" x="739.09892" y="353.7216" style="fill: #808080; stroke: #808080"/>
      </g>
     </g>
     <g id="text_14">
      <!-- 0.06 -->
      <g transform="translate(723.512983 370.859412) scale(0.14 -0.14)">
       <use xlink:href="#DejaVuSans-30"/>
       <use xlink:href="#DejaVuSans-2e" x="63.623047"/>
       <use xlink:href="#DejaVuSans-30" x="95.410156"/>
       <use xlink:href="#DejaVuSans-36" x="159.033203"/>
      </g>
     </g>
    </g>
    <g id="xtick_10">
     <g id="line2d_12">
      <g>
       <use xlink:href="#m74b60b590a" x="799.54556" y="353.7216" style="fill: #808080; stroke: #808080"/>
      </g>
     </g>
     <g id="text_15">
      <!-- 0.08 -->
      <g transform="translate(783.959622 370.859412) scale(0.14 -0.14)">
       <use xlink:href="#DejaVuSans-30"/>
       <use xlink:href="#DejaVuSans-2e" x="63.623047"/>
       <use xlink:href="#DejaVuSans-30" x="95.410156"/>
       <use xlink:href="#DejaVuSans-38" x="159.033203"/>
      </g>
     </g>
    </g>
    <g id="xtick_11">
     <g id="line2d_13">
      <g>
       <use xlink:href="#m74b60b590a" x="859.992199" y="353.7216" style="fill: #808080; stroke: #808080"/>
      </g>
     </g>
     <g id="text_16">
      <!-- 0.10 -->
      <g transform="translate(844.406261 370.859412) scale(0.14 -0.14)">
       <use xlink:href="#DejaVuSans-30"/>
       <use xlink:href="#DejaVuSans-2e" x="63.623047"/>
       <use xlink:href="#DejaVuSans-31" x="95.410156"/>
       <use xlink:href="#DejaVuSans-30" x="159.033203"/>
      </g>
     </g>
    </g>
    <g id="xtick_12">
     <g id="line2d_14">
      <g>
       <use xlink:href="#m74b60b590a" x="920.438838" y="353.7216" style="fill: #808080; stroke: #808080"/>
      </g>
     </g>
     <g id="text_17">
      <!-- 0.12 -->
      <g transform="translate(904.852901 370.859412) scale(0.14 -0.14)">
       <use xlink:href="#DejaVuSans-30"/>
       <use xlink:href="#DejaVuSans-2e" x="63.623047"/>
       <use xlink:href="#DejaVuSans-31" x="95.410156"/>
       <use xlink:href="#DejaVuSans-32" x="159.033203"/>
      </g>
     </g>
    </g>
   </g>
   <g id="matplotlib.axis_4"/>
   <g id="line2d_15">
    <path d="M 597.473851 339.766177 
L 604.780167 339.65628 
L 609.42964 339.330576 
L 613.414903 338.891084 
L 616.071745 338.310482 
L 618.728588 337.429096 
L 621.38543 336.24386 
L 624.042272 334.822235 
L 626.034903 333.540536 
L 628.027535 331.958454 
L 629.355956 330.679349 
L 630.684377 329.182477 
L 632.677008 326.563714 
L 634.66964 323.599007 
L 636.662271 320.25882 
L 638.654903 316.448514 
L 640.647534 312.151365 
L 642.640166 307.381027 
L 644.632797 302.024467 
L 646.625429 295.912168 
L 650.610692 282.426902 
L 653.267534 273.017234 
L 655.260166 264.998018 
L 657.917008 253.330354 
L 660.57385 240.67839 
L 664.559113 220.425493 
L 676.514902 158.958452 
L 683.821217 123.280057 
L 689.134902 101.034191 
L 691.127533 93.28079 
L 693.120165 86.265679 
L 695.112796 80.007559 
L 696.441217 76.368757 
L 697.769638 73.158501 
L 699.098059 70.374304 
L 700.42648 68.072289 
L 701.754901 66.337849 
L 703.083322 65.114683 
L 704.411743 64.248317 
L 707.732796 62.485394 
L 709.061217 61.886301 
L 709.725427 61.686087 
L 710.389638 61.6032 
L 711.053848 61.662115 
L 711.718059 61.877438 
L 712.382269 62.283571 
L 713.04648 62.867967 
L 714.374901 64.467313 
L 716.367532 67.473618 
L 718.360164 70.869238 
L 719.688585 73.539678 
L 721.681216 78.239394 
L 726.994901 91.745902 
L 728.987532 97.310661 
L 731.644374 105.48832 
L 736.958058 122.590241 
L 739.6149 131.921329 
L 741.607532 139.752946 
L 744.928584 153.005364 
L 752.89911 182.972418 
L 759.541216 208.158999 
L 767.511742 234.603724 
L 770.832794 244.471179 
L 779.467531 269.072475 
L 781.460162 273.751901 
L 783.452794 277.896688 
L 788.102267 286.782119 
L 791.42332 292.917 
L 794.080162 297.314293 
L 800.058057 306.586888 
L 802.050688 309.170551 
L 807.364372 315.173662 
L 809.357004 317.294546 
L 811.349635 319.099876 
L 815.334898 322.235936 
L 817.99174 324.113875 
L 824.633845 328.521787 
L 826.626477 329.48783 
L 831.275951 331.568129 
L 833.932793 332.761646 
L 836.589635 333.646168 
L 840.574898 334.683117 
L 844.560161 335.57566 
L 859.837002 338.072051 
L 865.814897 338.526994 
L 873.121213 338.979249 
L 882.42016 339.346758 
L 906.331738 339.661737 
L 936.885421 339.782027 
L 936.885421 339.782027 
" clip-path="url(#p44a1226a6f)" style="fill: none; stroke: #1f77b4; stroke-width: 1.5; stroke-linecap: square"/>
   </g>
   <g id="line2d_16">
    <path d="M 646.044768 333.968832 
L 795.687936 333.968832 
" clip-path="url(#p44a1226a6f)" style="fill: none; stroke: #000000; stroke-width: 3"/>
   </g>
   <g id="patch_5">
    <path d="M 580.503273 353.7216 
L 953.856 353.7216 
" style="fill: none; stroke: #808080; stroke-width: 0.8; stroke-linejoin: miter; stroke-linecap: square"/>
   </g>
   <g id="text_18">
    <!-- 0.029  -->
    <g transform="translate(598.335393 319.362912) scale(0.15 -0.15)">
     <use xlink:href="#DejaVuSans-30"/>
     <use xlink:href="#DejaVuSans-2e" x="63.623047"/>
     <use xlink:href="#DejaVuSans-30" x="95.410156"/>
     <use xlink:href="#DejaVuSans-32" x="159.033203"/>
     <use xlink:href="#DejaVuSans-39" x="222.65625"/>
     <use xlink:href="#DejaVuSans-20" x="286.279297"/>
    </g>
   </g>
   <g id="text_19">
    <!--  0.079 -->
    <g transform="translate(795.687936 319.362912) scale(0.15 -0.15)">
     <use xlink:href="#DejaVuSans-20"/>
     <use xlink:href="#DejaVuSans-30" x="31.787109"/>
     <use xlink:href="#DejaVuSans-2e" x="95.410156"/>
     <use xlink:href="#DejaVuSans-30" x="127.197266"/>
     <use xlink:href="#DejaVuSans-37" x="190.820312"/>
     <use xlink:href="#DejaVuSans-39" x="254.443359"/>
    </g>
   </g>
   <g id="text_20">
    <!-- 95% HDI -->
    <g transform="translate(688.185102 252.17568) scale(0.15 -0.15)">
     <use xlink:href="#DejaVuSans-39"/>
     <use xlink:href="#DejaVuSans-35" x="63.623047"/>
     <use xlink:href="#DejaVuSans-25" x="127.246094"/>
     <use xlink:href="#DejaVuSans-20" x="222.265625"/>
     <use xlink:href="#DejaVuSans-48" x="254.052734"/>
     <use xlink:href="#DejaVuSans-44" x="329.248047"/>
     <use xlink:href="#DejaVuSans-49" x="406.25"/>
    </g>
   </g>
   <g id="text_21">
    <!-- mean=0.053 -->
    <g transform="translate(668.800553 106.11648) scale(0.15 -0.15)">
     <use xlink:href="#DejaVuSans-6d"/>
     <use xlink:href="#DejaVuSans-65" x="97.412109"/>
     <use xlink:href="#DejaVuSans-61" x="158.935547"/>
     <use xlink:href="#DejaVuSans-6e" x="220.214844"/>
     <use xlink:href="#DejaVuSans-3d" x="283.59375"/>
     <use xlink:href="#DejaVuSans-30" x="367.382812"/>
     <use xlink:href="#DejaVuSans-2e" x="431.005859"/>
     <use xlink:href="#DejaVuSans-30" x="462.792969"/>
     <use xlink:href="#DejaVuSans-35" x="526.416016"/>
     <use xlink:href="#DejaVuSans-33" x="590.039062"/>
    </g>
   </g>
   <g id="text_22">
    <!-- biased_θ -->
    <g transform="translate(731.912136 41.6928) scale(0.16 -0.16)">
     <defs>
      <path id="DejaVuSans-62" d="M 3116 1747 
Q 3116 2381 2855 2742 
Q 2594 3103 2138 3103 
Q 1681 3103 1420 2742 
Q 1159 2381 1159 1747 
Q 1159 1113 1420 752 
Q 1681 391 2138 391 
Q 2594 391 2855 752 
Q 3116 1113 3116 1747 
z
M 1159 2969 
Q 1341 3281 1617 3432 
Q 1894 3584 2278 3584 
Q 2916 3584 3314 3078 
Q 3713 2572 3713 1747 
Q 3713 922 3314 415 
Q 2916 -91 2278 -91 
Q 1894 -91 1617 61 
Q 1341 213 1159 525 
L 1159 0 
L 581 0 
L 581 4863 
L 1159 4863 
L 1159 2969 
z
" transform="scale(0.015625)"/>
      <path id="DejaVuSans-69" d="M 603 3500 
L 1178 3500 
L 1178 0 
L 603 0 
L 603 3500 
z
M 603 4863 
L 1178 4863 
L 1178 4134 
L 603 4134 
L 603 4863 
z
" transform="scale(0.015625)"/>
      <path id="DejaVuSans-73" d="M 2834 3397 
L 2834 2853 
Q 2591 2978 2328 3040 
Q 2066 3103 1784 3103 
Q 1356 3103 1142 2972 
Q 928 2841 928 2578 
Q 928 2378 1081 2264 
Q 1234 2150 1697 2047 
L 1894 2003 
Q 2506 1872 2764 1633 
Q 3022 1394 3022 966 
Q 3022 478 2636 193 
Q 2250 -91 1575 -91 
Q 1294 -91 989 -36 
Q 684 19 347 128 
L 347 722 
Q 666 556 975 473 
Q 1284 391 1588 391 
Q 1994 391 2212 530 
Q 2431 669 2431 922 
Q 2431 1156 2273 1281 
Q 2116 1406 1581 1522 
L 1381 1569 
Q 847 1681 609 1914 
Q 372 2147 372 2553 
Q 372 3047 722 3315 
Q 1072 3584 1716 3584 
Q 2034 3584 2315 3537 
Q 2597 3491 2834 3397 
z
" transform="scale(0.015625)"/>
      <path id="DejaVuSans-64" d="M 2906 2969 
L 2906 4863 
L 3481 4863 
L 3481 0 
L 2906 0 
L 2906 525 
Q 2725 213 2448 61 
Q 2172 -91 1784 -91 
Q 1150 -91 751 415 
Q 353 922 353 1747 
Q 353 2572 751 3078 
Q 1150 3584 1784 3584 
Q 2172 3584 2448 3432 
Q 2725 3281 2906 2969 
z
M 947 1747 
Q 947 1113 1208 752 
Q 1469 391 1925 391 
Q 2381 391 2643 752 
Q 2906 1113 2906 1747 
Q 2906 2381 2643 2742 
Q 2381 3103 1925 3103 
Q 1469 3103 1208 2742 
Q 947 2381 947 1747 
z
" transform="scale(0.015625)"/>
      <path id="DejaVuSans-5f" d="M 3263 -1063 
L 3263 -1509 
L -63 -1509 
L -63 -1063 
L 3263 -1063 
z
" transform="scale(0.015625)"/>
     </defs>
     <use xlink:href="#DejaVuSans-62"/>
     <use xlink:href="#DejaVuSans-69" x="63.476562"/>
     <use xlink:href="#DejaVuSans-61" x="91.259766"/>
     <use xlink:href="#DejaVuSans-73" x="152.539062"/>
     <use xlink:href="#DejaVuSans-65" x="204.638672"/>
     <use xlink:href="#DejaVuSans-64" x="266.162109"/>
     <use xlink:href="#DejaVuSans-5f" x="329.638672"/>
     <use xlink:href="#DejaVuSans-3b8" x="379.638672"/>
    </g>
   </g>
  </g>
 </g>
 <defs>
  <clipPath id="p46d2c6a9dc">
   <rect x="132.48" y="47.6928" width="373.352727" height="306.0288"/>
  </clipPath>
  <clipPath id="p44a1226a6f">
   <rect x="580.503273" y="47.6928" width="373.352727" height="306.0288"/>
  </clipPath>
 </defs>
</svg>
