<?xml version="1.0" encoding="utf-8" standalone="no"?>
<!DOCTYPE svg PUBLIC "-//W3C//DTD SVG 1.1//EN"
  "http://www.w3.org/Graphics/SVG/1.1/DTD/svg11.dtd">
<svg xmlns:xlink="http://www.w3.org/1999/xlink" width="1059.84pt" height="397.44pt" viewBox="0 0 1059.84 397.44" xmlns="http://www.w3.org/2000/svg" version="1.1">
 <metadata>
  <rdf:RDF xmlns:dc="http://purl.org/dc/elements/1.1/" xmlns:cc="http://creativecommons.org/ns#" xmlns:rdf="http://www.w3.org/1999/02/22-rdf-syntax-ns#">
   <cc:Work>
    <dc:type rdf:resource="http://purl.org/dc/dcmitype/StillImage"/>
    <dc:format>image/svg+xml</dc:format>
   </cc:Work>
  </rdf:RDF>
 </metadata>
 <defs>
  <style type="text/css">*{stroke-linejoin: round; stroke-linecap: butt}</style>
 </defs>
 <g id="figure_1">
  <g id="patch_1">
   <path d="M 0 397.44 
L 1059.84 397.44 
L 1059.84 0 
L 0 0 
z
" style="fill: #ffffff"/>
  </g>
  <g id="axes_1">
   <g id="patch_2">
    <path d="M 132.48 353.7216 
L 505.832727 353.7216 
L 505.832727 47.6928 
L 132.48 47.6928 
z
" style="fill: #ffffff"/>
   </g>
   <g id="PolyCollection_1">
    <defs>
     <path id="m5c584d9883" d="M 149.450579 -57.6288 
L 149.450579 -57.651924 
L 150.114789 -57.651539 
L 150.779 -57.650744 
L 151.44321 -57.649631 
L 152.107421 -57.648561 
L 152.771631 -57.647859 
L 153.435842 -57.647656 
L 154.100052 -57.647892 
L 154.764263 -57.64809 
L 155.428473 -57.647858 
L 156.092684 -57.646673 
L 156.756894 -57.644629 
L 157.421105 -57.642042 
L 158.085315 -57.639545 
L 158.749526 -57.637839 
L 159.413736 -57.637361 
L 160.077947 -57.638356 
L 160.742157 -57.640678 
L 161.406368 -57.644171 
L 162.070578 -57.648689 
L 162.734789 -57.654037 
L 163.398999 -57.660412 
L 164.06321 -57.667518 
L 164.72742 -57.675186 
L 165.391631 -57.68361 
L 166.055841 -57.692805 
L 166.720052 -57.702845 
L 167.384262 -57.713818 
L 168.048473 -57.725439 
L 168.712683 -57.737221 
L 169.376894 -57.748522 
L 170.041104 -57.758887 
L 170.705315 -57.768205 
L 171.369525 -57.777367 
L 172.033736 -57.787152 
L 172.697946 -57.799016 
L 173.362157 -57.813293 
L 174.026367 -57.830766 
L 174.690578 -57.85189 
L 175.354788 -57.877144 
L 176.018999 -57.907177 
L 176.683209 -57.942564 
L 177.34742 -57.983225 
L 178.01163 -58.029146 
L 178.675841 -58.079722 
L 179.340051 -58.135571 
L 180.004262 -58.197069 
L 180.668472 -58.265386 
L 181.332683 -58.340427 
L 181.996893 -58.420502 
L 182.661104 -58.503345 
L 183.325314 -58.584512 
L 183.989525 -58.660629 
L 184.653736 -58.730522 
L 185.317946 -58.792917 
L 185.982157 -58.850908 
L 186.646367 -58.908816 
L 187.310578 -58.972125 
L 187.974788 -59.046647 
L 188.638999 -59.136254 
L 189.303209 -59.24531 
L 189.96742 -59.375643 
L 190.63163 -59.528661 
L 191.295841 -59.70425 
L 191.960051 -59.90086 
L 192.624262 -60.115936 
L 193.288472 -60.346588 
L 193.952683 -60.586809 
L 194.616893 -60.834287 
L 195.281104 -61.08751 
L 195.945314 -61.350052 
L 196.609525 -61.624795 
L 197.273735 -61.919449 
L 197.937946 -62.239255 
L 198.602156 -62.590114 
L 199.266367 -62.96975 
L 199.930577 -63.375735 
L 200.594788 -63.802028 
L 201.258998 -64.243514 
L 201.923209 -64.696555 
L 202.587419 -65.16188 
L 203.25163 -65.644678 
L 203.91584 -66.154407 
L 204.580051 -66.700739 
L 205.244261 -67.291744 
L 205.908472 -67.930793 
L 206.572682 -68.618439 
L 207.236893 -69.351142 
L 207.901103 -70.123586 
L 208.565314 -70.931123 
L 209.229524 -71.769201 
L 209.893735 -72.64426 
L 210.557945 -73.554117 
L 211.222156 -74.504479 
L 211.886366 -75.503907 
L 212.550577 -76.544017 
L 213.214787 -77.614723 
L 213.878998 -78.708287 
L 214.543208 -79.819328 
L 215.207419 -80.94926 
L 215.871629 -82.116249 
L 216.53584 -83.339162 
L 217.20005 -84.63556 
L 217.864261 -86.016467 
L 218.528471 -87.480823 
L 219.192682 -89.025418 
L 219.856892 -90.639026 
L 220.521103 -92.310955 
L 221.185314 -94.018647 
L 221.849524 -95.744084 
L 222.513735 -97.467109 
L 223.177945 -99.185737 
L 223.842156 -100.911423 
L 224.506366 -102.673996 
L 225.170577 -104.503171 
L 225.834787 -106.424583 
L 226.498998 -108.436046 
L 227.163208 -110.521571 
L 227.827419 -112.667989 
L 228.491629 -114.866767 
L 229.15584 -117.121744 
L 229.82005 -119.44747 
L 230.484261 -121.853385 
L 231.148471 -124.337509 
L 231.812682 -126.895952 
L 232.476892 -129.518447 
L 233.141103 -132.196434 
L 233.805313 -134.926476 
L 234.469524 -137.71159 
L 235.133734 -140.532082 
L 235.797945 -143.391442 
L 236.462155 -146.299489 
L 237.126366 -149.281419 
L 237.790576 -152.370626 
L 238.454787 -155.601391 
L 239.118997 -158.980947 
L 239.783208 -162.490613 
L 240.447418 -166.066398 
L 241.111629 -169.649573 
L 241.775839 -173.174659 
L 242.44005 -176.590757 
L 243.10426 -179.891718 
L 243.768471 -183.089275 
L 244.432681 -186.236454 
L 245.096892 -189.379386 
L 245.761102 -192.58285 
L 246.425313 -195.886957 
L 247.089523 -199.294879 
L 247.753734 -202.802159 
L 248.417944 -206.41047 
L 249.082155 -210.099758 
L 249.746365 -213.859292 
L 250.410576 -217.685057 
L 251.074786 -221.520739 
L 251.738997 -225.324981 
L 252.403207 -229.05002 
L 253.067418 -232.675842 
L 253.731628 -236.218837 
L 254.395839 -239.711869 
L 255.060049 -243.197545 
L 255.72426 -246.697053 
L 256.388471 -250.197391 
L 257.052681 -253.689544 
L 257.716892 -257.137362 
L 258.381102 -260.540386 
L 259.045313 -263.879918 
L 259.709523 -267.162311 
L 260.373734 -270.397898 
L 261.037944 -273.593354 
L 261.702155 -276.760483 
L 262.366365 -279.932207 
L 263.030576 -283.11838 
L 263.694786 -286.336504 
L 264.358997 -289.587865 
L 265.023207 -292.841085 
L 265.687418 -296.062738 
L 266.351628 -299.181816 
L 267.015839 -302.129917 
L 267.680049 -304.830928 
L 268.34426 -307.245755 
L 269.00847 -309.39765 
L 269.672681 -311.360373 
L 270.336891 -313.213998 
L 271.001102 -315.084406 
L 271.665312 -317.014432 
L 272.329523 -319.01801 
L 272.993733 -321.054932 
L 273.657944 -323.063895 
L 274.322154 -324.976278 
L 274.986365 -326.763342 
L 275.650575 -328.396513 
L 276.314786 -329.877133 
L 276.978996 -331.185302 
L 277.643207 -332.332851 
L 278.307417 -333.315084 
L 278.971628 -334.134611 
L 279.635838 -334.791257 
L 280.300049 -335.281901 
L 280.964259 -335.612172 
L 281.62847 -335.796205 
L 282.29268 -335.8368 
L 282.956891 -335.792385 
L 283.621101 -335.716491 
L 284.285312 -335.655761 
L 284.949522 -335.631059 
L 285.613733 -335.606411 
L 286.277943 -335.538448 
L 286.942154 -335.365865 
L 287.606364 -335.041151 
L 288.270575 -334.550824 
L 288.934785 -333.902246 
L 289.598996 -333.121894 
L 290.263206 -332.23436 
L 290.927417 -331.230352 
L 291.591628 -330.102551 
L 292.255838 -328.817282 
L 292.920049 -327.351827 
L 293.584259 -325.678063 
L 294.24847 -323.786852 
L 294.91268 -321.709729 
L 295.576891 -319.508158 
L 296.241101 -317.247714 
L 296.905312 -315.019932 
L 297.569522 -312.840889 
L 298.233733 -310.742567 
L 298.897943 -308.688508 
L 299.562154 -306.645769 
L 300.226364 -304.584068 
L 300.890575 -302.498489 
L 301.554785 -300.338859 
L 302.218996 -298.095757 
L 302.883206 -295.701794 
L 303.547417 -293.108571 
L 304.211627 -290.294861 
L 304.875838 -287.288395 
L 305.540048 -284.168669 
L 306.204259 -281.035083 
L 306.868469 -277.977422 
L 307.53268 -275.041822 
L 308.19689 -272.215151 
L 308.861101 -269.4382 
L 309.525311 -266.630926 
L 310.189522 -263.703176 
L 310.853732 -260.628469 
L 311.517943 -257.398188 
L 312.182153 -254.058199 
L 312.846364 -250.654875 
L 313.510574 -247.258668 
L 314.174785 -243.89606 
L 314.838995 -240.602026 
L 315.503206 -237.366545 
L 316.167416 -234.195115 
L 316.831627 -231.081161 
L 317.495837 -228.02235 
L 318.160048 -225.008701 
L 318.824258 -222.030838 
L 319.488469 -219.069923 
L 320.152679 -216.108629 
L 320.81689 -213.132658 
L 321.4811 -210.131179 
L 322.145311 -207.105907 
L 322.809521 -204.055932 
L 323.473732 -200.981328 
L 324.137942 -197.879818 
L 324.802153 -194.755483 
L 325.466363 -191.623884 
L 326.130574 -188.504124 
L 326.794784 -185.425096 
L 327.458995 -182.395959 
L 328.123206 -179.415489 
L 328.787416 -176.460587 
L 329.451627 -173.513333 
L 330.115837 -170.557457 
L 330.780048 -167.605442 
L 331.444258 -164.685606 
L 332.108469 -161.837198 
L 332.772679 -159.090655 
L 333.43689 -156.456273 
L 334.1011 -153.918876 
L 334.765311 -151.449251 
L 335.429521 -148.994307 
L 336.093732 -146.522857 
L 336.757942 -144.028291 
L 337.422153 -141.51487 
L 338.086363 -139.020938 
L 338.750574 -136.58307 
L 339.414784 -134.232899 
L 340.078995 -131.978947 
L 340.743205 -129.824165 
L 341.407416 -127.73795 
L 342.071626 -125.706493 
L 342.735837 -123.713974 
L 343.400047 -121.746984 
L 344.064258 -119.797559 
L 344.728468 -117.858401 
L 345.392679 -115.926308 
L 346.056889 -114.004293 
L 346.7211 -112.114576 
L 347.38531 -110.275538 
L 348.049521 -108.508185 
L 348.713731 -106.828683 
L 349.377942 -105.22039 
L 350.042152 -103.677796 
L 350.706363 -102.176466 
L 351.370573 -100.698351 
L 352.034784 -99.240842 
L 352.698994 -97.800909 
L 353.363205 -96.384141 
L 354.027415 -94.995813 
L 354.691626 -93.647435 
L 355.355836 -92.33821 
L 356.020047 -91.071611 
L 356.684257 -89.848372 
L 357.348468 -88.66628 
L 358.012678 -87.527604 
L 358.676889 -86.437203 
L 359.341099 -85.400721 
L 360.00531 -84.429371 
L 360.66952 -83.53069 
L 361.333731 -82.697997 
L 361.997941 -81.914436 
L 362.662152 -81.156438 
L 363.326363 -80.393872 
L 363.990573 -79.618596 
L 364.654784 -78.827893 
L 365.318994 -78.028385 
L 365.983205 -77.233669 
L 366.647415 -76.450604 
L 367.311626 -75.680351 
L 367.975836 -74.920826 
L 368.640047 -74.175147 
L 369.304257 -73.450363 
L 369.968468 -72.758918 
L 370.632678 -72.109765 
L 371.296889 -71.511286 
L 371.961099 -70.962137 
L 372.62531 -70.454851 
L 373.28952 -69.976711 
L 373.953731 -69.513151 
L 374.617941 -69.052566 
L 375.282152 -68.582831 
L 375.946362 -68.097522 
L 376.610573 -67.600332 
L 377.274783 -67.103589 
L 377.938994 -66.622605 
L 378.603204 -66.171828 
L 379.267415 -65.762237 
L 379.931625 -65.390414 
L 380.595836 -65.04789 
L 381.260046 -64.720156 
L 381.924257 -64.398207 
L 382.588467 -64.076597 
L 383.252678 -63.761053 
L 383.916888 -63.458362 
L 384.581099 -63.176963 
L 385.245309 -62.922996 
L 385.90952 -62.695477 
L 386.57373 -62.48869 
L 387.237941 -62.298819 
L 387.902151 -62.118475 
L 388.566362 -61.945694 
L 389.230572 -61.779036 
L 389.894783 -61.615829 
L 390.558993 -61.456598 
L 391.223204 -61.299494 
L 391.887414 -61.142303 
L 392.551625 -60.978985 
L 393.215835 -60.805889 
L 393.880046 -60.622259 
L 394.544256 -60.429705 
L 395.208467 -60.234243 
L 395.872677 -60.046438 
L 396.536888 -59.874468 
L 397.201098 -59.725831 
L 397.865309 -59.601746 
L 398.529519 -59.498742 
L 399.19373 -59.411433 
L 399.857941 -59.331805 
L 400.522151 -59.254815 
L 401.186362 -59.176401 
L 401.850572 -59.096784 
L 402.514783 -59.0165 
L 403.178993 -58.938102 
L 403.843204 -58.863163 
L 404.507414 -58.792684 
L 405.171625 -58.727013 
L 405.835835 -58.665929 
L 406.500046 -58.607364 
L 407.164256 -58.549861 
L 407.828467 -58.49436 
L 408.492677 -58.440511 
L 409.156888 -58.389096 
L 409.821098 -58.342796 
L 410.485309 -58.302788 
L 411.149519 -58.268955 
L 411.81373 -58.240385 
L 412.47794 -58.214963 
L 413.142151 -58.190849 
L 413.806361 -58.166328 
L 414.470572 -58.141656 
L 415.134782 -58.117011 
L 415.798993 -58.093597 
L 416.463203 -58.071955 
L 417.127414 -58.051764 
L 417.791624 -58.032373 
L 418.455835 -58.011991 
L 419.120045 -57.989896 
L 419.784256 -57.966657 
L 420.448466 -57.942809 
L 421.112677 -57.919333 
L 421.776887 -57.898122 
L 422.441098 -57.879526 
L 423.105308 -57.862868 
L 423.769519 -57.847778 
L 424.433729 -57.83363 
L 425.09794 -57.819858 
L 425.76215 -57.806303 
L 426.426361 -57.793168 
L 427.090571 -57.781474 
L 427.754782 -57.77212 
L 428.418992 -57.765836 
L 429.083203 -57.7629 
L 429.747413 -57.763234 
L 430.411624 -57.765395 
L 431.075834 -57.767865 
L 431.740045 -57.769147 
L 432.404255 -57.767787 
L 433.068466 -57.763259 
L 433.732676 -57.755544 
L 434.396887 -57.745531 
L 435.061098 -57.733931 
L 435.725308 -57.721917 
L 436.389519 -57.710666 
L 437.053729 -57.70097 
L 437.71794 -57.693332 
L 438.38215 -57.687702 
L 439.046361 -57.683673 
L 439.710571 -57.680549 
L 440.374782 -57.677694 
L 441.038992 -57.674538 
L 441.703203 -57.670898 
L 442.367413 -57.666773 
L 443.031624 -57.662282 
L 443.695834 -57.657605 
L 444.360045 -57.653101 
L 445.024255 -57.649092 
L 445.688466 -57.645929 
L 446.352676 -57.643869 
L 447.016887 -57.642828 
L 447.681097 -57.642424 
L 448.345308 -57.642445 
L 449.009518 -57.642498 
L 449.673729 -57.642286 
L 450.337939 -57.642011 
L 451.00215 -57.64185 
L 451.66636 -57.641968 
L 452.330571 -57.642401 
L 452.994781 -57.643052 
L 453.658992 -57.643542 
L 454.323202 -57.643511 
L 454.987413 -57.642714 
L 455.651623 -57.641092 
L 456.315834 -57.638887 
L 456.980044 -57.636461 
L 457.644255 -57.634141 
L 458.308465 -57.632276 
L 458.972676 -57.630949 
L 459.636886 -57.630182 
L 460.301097 -57.629993 
L 460.965307 -57.630261 
L 461.629518 -57.630947 
L 462.293728 -57.631938 
L 462.957939 -57.633141 
L 463.622149 -57.634344 
L 464.28636 -57.635391 
L 464.95057 -57.63617 
L 465.614781 -57.636636 
L 466.278991 -57.636788 
L 466.943202 -57.636636 
L 467.607412 -57.63617 
L 468.271623 -57.635391 
L 468.935833 -57.634344 
L 469.600044 -57.633141 
L 470.264255 -57.631938 
L 470.928465 -57.630881 
L 471.592676 -57.630036 
L 472.256886 -57.629488 
L 472.921097 -57.629147 
L 473.585307 -57.628959 
L 474.249518 -57.628866 
L 474.913728 -57.6288 
L 475.577939 -57.6288 
L 476.242149 -57.6288 
L 476.90636 -57.6288 
L 477.57057 -57.6288 
L 478.234781 -57.6288 
L 478.898991 -57.6288 
L 479.563202 -57.6288 
L 480.227412 -57.6288 
L 480.891623 -57.6288 
L 481.555833 -57.6288 
L 482.220044 -57.6288 
L 482.884254 -57.628866 
L 483.548465 -57.629025 
L 484.212675 -57.629306 
L 484.876886 -57.629835 
L 485.541096 -57.630724 
L 486.205307 -57.632051 
L 486.869517 -57.633794 
L 487.533728 -57.635773 
L 488.197938 -57.637651 
L 488.862149 -57.639011 
L 488.862149 -57.6288 
L 488.862149 -57.6288 
L 488.197938 -57.6288 
L 487.533728 -57.6288 
L 486.869517 -57.6288 
L 486.205307 -57.6288 
L 485.541096 -57.6288 
L 484.876886 -57.6288 
L 484.212675 -57.6288 
L 483.548465 -57.6288 
L 482.884254 -57.6288 
L 482.220044 -57.6288 
L 481.555833 -57.6288 
L 480.891623 -57.6288 
L 480.227412 -57.6288 
L 479.563202 -57.6288 
L 478.898991 -57.6288 
L 478.234781 -57.6288 
L 477.57057 -57.6288 
L 476.90636 -57.6288 
L 476.242149 -57.6288 
L 475.577939 -57.6288 
L 474.913728 -57.6288 
L 474.249518 -57.6288 
L 473.585307 -57.6288 
L 472.921097 -57.6288 
L 472.256886 -57.6288 
L 471.592676 -57.6288 
L 470.928465 -57.6288 
L 470.264255 -57.6288 
L 469.600044 -57.6288 
L 468.935833 -57.6288 
L 468.271623 -57.6288 
L 467.607412 -57.6288 
L 466.943202 -57.6288 
L 466.278991 -57.6288 
L 465.614781 -57.6288 
L 464.95057 -57.6288 
L 464.28636 -57.6288 
L 463.622149 -57.6288 
L 462.957939 -57.6288 
L 462.293728 -57.6288 
L 461.629518 -57.6288 
L 460.965307 -57.6288 
L 460.301097 -57.6288 
L 459.636886 -57.6288 
L 458.972676 -57.6288 
L 458.308465 -57.6288 
L 457.644255 -57.6288 
L 456.980044 -57.6288 
L 456.315834 -57.6288 
L 455.651623 -57.6288 
L 454.987413 -57.6288 
L 454.323202 -57.6288 
L 453.658992 -57.6288 
L 452.994781 -57.6288 
L 452.330571 -57.6288 
L 451.66636 -57.6288 
L 451.00215 -57.6288 
L 450.337939 -57.6288 
L 449.673729 -57.6288 
L 449.009518 -57.6288 
L 448.345308 -57.6288 
L 447.681097 -57.6288 
L 447.016887 -57.6288 
L 446.352676 -57.6288 
L 445.688466 -57.6288 
L 445.024255 -57.6288 
L 444.360045 -57.6288 
L 443.695834 -57.6288 
L 443.031624 -57.6288 
L 442.367413 -57.6288 
L 441.703203 -57.6288 
L 441.038992 -57.6288 
L 440.374782 -57.6288 
L 439.710571 -57.6288 
L 439.046361 -57.6288 
L 438.38215 -57.6288 
L 437.71794 -57.6288 
L 437.053729 -57.6288 
L 436.389519 -57.6288 
L 435.725308 -57.6288 
L 435.061098 -57.6288 
L 434.396887 -57.6288 
L 433.732676 -57.6288 
L 433.068466 -57.6288 
L 432.404255 -57.6288 
L 431.740045 -57.6288 
L 431.075834 -57.6288 
L 430.411624 -57.6288 
L 429.747413 -57.6288 
L 429.083203 -57.6288 
L 428.418992 -57.6288 
L 427.754782 -57.6288 
L 427.090571 -57.6288 
L 426.426361 -57.6288 
L 425.76215 -57.6288 
L 425.09794 -57.6288 
L 424.433729 -57.6288 
L 423.769519 -57.6288 
L 423.105308 -57.6288 
L 422.441098 -57.6288 
L 421.776887 -57.6288 
L 421.112677 -57.6288 
L 420.448466 -57.6288 
L 419.784256 -57.6288 
L 419.120045 -57.6288 
L 418.455835 -57.6288 
L 417.791624 -57.6288 
L 417.127414 -57.6288 
L 416.463203 -57.6288 
L 415.798993 -57.6288 
L 415.134782 -57.6288 
L 414.470572 -57.6288 
L 413.806361 -57.6288 
L 413.142151 -57.6288 
L 412.47794 -57.6288 
L 411.81373 -57.6288 
L 411.149519 -57.6288 
L 410.485309 -57.6288 
L 409.821098 -57.6288 
L 409.156888 -57.6288 
L 408.492677 -57.6288 
L 407.828467 -57.6288 
L 407.164256 -57.6288 
L 406.500046 -57.6288 
L 405.835835 -57.6288 
L 405.171625 -57.6288 
L 404.507414 -57.6288 
L 403.843204 -57.6288 
L 403.178993 -57.6288 
L 402.514783 -57.6288 
L 401.850572 -57.6288 
L 401.186362 -57.6288 
L 400.522151 -57.6288 
L 399.857941 -57.6288 
L 399.19373 -57.6288 
L 398.529519 -57.6288 
L 397.865309 -57.6288 
L 397.201098 -57.6288 
L 396.536888 -57.6288 
L 395.872677 -57.6288 
L 395.208467 -57.6288 
L 394.544256 -57.6288 
L 393.880046 -57.6288 
L 393.215835 -57.6288 
L 392.551625 -57.6288 
L 391.887414 -57.6288 
L 391.223204 -57.6288 
L 390.558993 -57.6288 
L 389.894783 -57.6288 
L 389.230572 -57.6288 
L 388.566362 -57.6288 
L 387.902151 -57.6288 
L 387.237941 -57.6288 
L 386.57373 -57.6288 
L 385.90952 -57.6288 
L 385.245309 -57.6288 
L 384.581099 -57.6288 
L 383.916888 -57.6288 
L 383.252678 -57.6288 
L 382.588467 -57.6288 
L 381.924257 -57.6288 
L 381.260046 -57.6288 
L 380.595836 -57.6288 
L 379.931625 -57.6288 
L 379.267415 -57.6288 
L 378.603204 -57.6288 
L 377.938994 -57.6288 
L 377.274783 -57.6288 
L 376.610573 -57.6288 
L 375.946362 -57.6288 
L 375.282152 -57.6288 
L 374.617941 -57.6288 
L 373.953731 -57.6288 
L 373.28952 -57.6288 
L 372.62531 -57.6288 
L 371.961099 -57.6288 
L 371.296889 -57.6288 
L 370.632678 -57.6288 
L 369.968468 -57.6288 
L 369.304257 -57.6288 
L 368.640047 -57.6288 
L 367.975836 -57.6288 
L 367.311626 -57.6288 
L 366.647415 -57.6288 
L 365.983205 -57.6288 
L 365.318994 -57.6288 
L 364.654784 -57.6288 
L 363.990573 -57.6288 
L 363.326363 -57.6288 
L 362.662152 -57.6288 
L 361.997941 -57.6288 
L 361.333731 -57.6288 
L 360.66952 -57.6288 
L 360.00531 -57.6288 
L 359.341099 -57.6288 
L 358.676889 -57.6288 
L 358.012678 -57.6288 
L 357.348468 -57.6288 
L 356.684257 -57.6288 
L 356.020047 -57.6288 
L 355.355836 -57.6288 
L 354.691626 -57.6288 
L 354.027415 -57.6288 
L 353.363205 -57.6288 
L 352.698994 -57.6288 
L 352.034784 -57.6288 
L 351.370573 -57.6288 
L 350.706363 -57.6288 
L 350.042152 -57.6288 
L 349.377942 -57.6288 
L 348.713731 -57.6288 
L 348.049521 -57.6288 
L 347.38531 -57.6288 
L 346.7211 -57.6288 
L 346.056889 -57.6288 
L 345.392679 -57.6288 
L 344.728468 -57.6288 
L 344.064258 -57.6288 
L 343.400047 -57.6288 
L 342.735837 -57.6288 
L 342.071626 -57.6288 
L 341.407416 -57.6288 
L 340.743205 -57.6288 
L 340.078995 -57.6288 
L 339.414784 -57.6288 
L 338.750574 -57.6288 
L 338.086363 -57.6288 
L 337.422153 -57.6288 
L 336.757942 -57.6288 
L 336.093732 -57.6288 
L 335.429521 -57.6288 
L 334.765311 -57.6288 
L 334.1011 -57.6288 
L 333.43689 -57.6288 
L 332.772679 -57.6288 
L 332.108469 -57.6288 
L 331.444258 -57.6288 
L 330.780048 -57.6288 
L 330.115837 -57.6288 
L 329.451627 -57.6288 
L 328.787416 -57.6288 
L 328.123206 -57.6288 
L 327.458995 -57.6288 
L 326.794784 -57.6288 
L 326.130574 -57.6288 
L 325.466363 -57.6288 
L 324.802153 -57.6288 
L 324.137942 -57.6288 
L 323.473732 -57.6288 
L 322.809521 -57.6288 
L 322.145311 -57.6288 
L 321.4811 -57.6288 
L 320.81689 -57.6288 
L 320.152679 -57.6288 
L 319.488469 -57.6288 
L 318.824258 -57.6288 
L 318.160048 -57.6288 
L 317.495837 -57.6288 
L 316.831627 -57.6288 
L 316.167416 -57.6288 
L 315.503206 -57.6288 
L 314.838995 -57.6288 
L 314.174785 -57.6288 
L 313.510574 -57.6288 
L 312.846364 -57.6288 
L 312.182153 -57.6288 
L 311.517943 -57.6288 
L 310.853732 -57.6288 
L 310.189522 -57.6288 
L 309.525311 -57.6288 
L 308.861101 -57.6288 
L 308.19689 -57.6288 
L 307.53268 -57.6288 
L 306.868469 -57.6288 
L 306.204259 -57.6288 
L 305.540048 -57.6288 
L 304.875838 -57.6288 
L 304.211627 -57.6288 
L 303.547417 -57.6288 
L 302.883206 -57.6288 
L 302.218996 -57.6288 
L 301.554785 -57.6288 
L 300.890575 -57.6288 
L 300.226364 -57.6288 
L 299.562154 -57.6288 
L 298.897943 -57.6288 
L 298.233733 -57.6288 
L 297.569522 -57.6288 
L 296.905312 -57.6288 
L 296.241101 -57.6288 
L 295.576891 -57.6288 
L 294.91268 -57.6288 
L 294.24847 -57.6288 
L 293.584259 -57.6288 
L 292.920049 -57.6288 
L 292.255838 -57.6288 
L 291.591628 -57.6288 
L 290.927417 -57.6288 
L 290.263206 -57.6288 
L 289.598996 -57.6288 
L 288.934785 -57.6288 
L 288.270575 -57.6288 
L 287.606364 -57.6288 
L 286.942154 -57.6288 
L 286.277943 -57.6288 
L 285.613733 -57.6288 
L 284.949522 -57.6288 
L 284.285312 -57.6288 
L 283.621101 -57.6288 
L 282.956891 -57.6288 
L 282.29268 -57.6288 
L 281.62847 -57.6288 
L 280.964259 -57.6288 
L 280.300049 -57.6288 
L 279.635838 -57.6288 
L 278.971628 -57.6288 
L 278.307417 -57.6288 
L 277.643207 -57.6288 
L 276.978996 -57.6288 
L 276.314786 -57.6288 
L 275.650575 -57.6288 
L 274.986365 -57.6288 
L 274.322154 -57.6288 
L 273.657944 -57.6288 
L 272.993733 -57.6288 
L 272.329523 -57.6288 
L 271.665312 -57.6288 
L 271.001102 -57.6288 
L 270.336891 -57.6288 
L 269.672681 -57.6288 
L 269.00847 -57.6288 
L 268.34426 -57.6288 
L 267.680049 -57.6288 
L 267.015839 -57.6288 
L 266.351628 -57.6288 
L 265.687418 -57.6288 
L 265.023207 -57.6288 
L 264.358997 -57.6288 
L 263.694786 -57.6288 
L 263.030576 -57.6288 
L 262.366365 -57.6288 
L 261.702155 -57.6288 
L 261.037944 -57.6288 
L 260.373734 -57.6288 
L 259.709523 -57.6288 
L 259.045313 -57.6288 
L 258.381102 -57.6288 
L 257.716892 -57.6288 
L 257.052681 -57.6288 
L 256.388471 -57.6288 
L 255.72426 -57.6288 
L 255.060049 -57.6288 
L 254.395839 -57.6288 
L 253.731628 -57.6288 
L 253.067418 -57.6288 
L 252.403207 -57.6288 
L 251.738997 -57.6288 
L 251.074786 -57.6288 
L 250.410576 -57.6288 
L 249.746365 -57.6288 
L 249.082155 -57.6288 
L 248.417944 -57.6288 
L 247.753734 -57.6288 
L 247.089523 -57.6288 
L 246.425313 -57.6288 
L 245.761102 -57.6288 
L 245.096892 -57.6288 
L 244.432681 -57.6288 
L 243.768471 -57.6288 
L 243.10426 -57.6288 
L 242.44005 -57.6288 
L 241.775839 -57.6288 
L 241.111629 -57.6288 
L 240.447418 -57.6288 
L 239.783208 -57.6288 
L 239.118997 -57.6288 
L 238.454787 -57.6288 
L 237.790576 -57.6288 
L 237.126366 -57.6288 
L 236.462155 -57.6288 
L 235.797945 -57.6288 
L 235.133734 -57.6288 
L 234.469524 -57.6288 
L 233.805313 -57.6288 
L 233.141103 -57.6288 
L 232.476892 -57.6288 
L 231.812682 -57.6288 
L 231.148471 -57.6288 
L 230.484261 -57.6288 
L 229.82005 -57.6288 
L 229.15584 -57.6288 
L 228.491629 -57.6288 
L 227.827419 -57.6288 
L 227.163208 -57.6288 
L 226.498998 -57.6288 
L 225.834787 -57.6288 
L 225.170577 -57.6288 
L 224.506366 -57.6288 
L 223.842156 -57.6288 
L 223.177945 -57.6288 
L 222.513735 -57.6288 
L 221.849524 -57.6288 
L 221.185314 -57.6288 
L 220.521103 -57.6288 
L 219.856892 -57.6288 
L 219.192682 -57.6288 
L 218.528471 -57.6288 
L 217.864261 -57.6288 
L 217.20005 -57.6288 
L 216.53584 -57.6288 
L 215.871629 -57.6288 
L 215.207419 -57.6288 
L 214.543208 -57.6288 
L 213.878998 -57.6288 
L 213.214787 -57.6288 
L 212.550577 -57.6288 
L 211.886366 -57.6288 
L 211.222156 -57.6288 
L 210.557945 -57.6288 
L 209.893735 -57.6288 
L 209.229524 -57.6288 
L 208.565314 -57.6288 
L 207.901103 -57.6288 
L 207.236893 -57.6288 
L 206.572682 -57.6288 
L 205.908472 -57.6288 
L 205.244261 -57.6288 
L 204.580051 -57.6288 
L 203.91584 -57.6288 
L 203.25163 -57.6288 
L 202.587419 -57.6288 
L 201.923209 -57.6288 
L 201.258998 -57.6288 
L 200.594788 -57.6288 
L 199.930577 -57.6288 
L 199.266367 -57.6288 
L 198.602156 -57.6288 
L 197.937946 -57.6288 
L 197.273735 -57.6288 
L 196.609525 -57.6288 
L 195.945314 -57.6288 
L 195.281104 -57.6288 
L 194.616893 -57.6288 
L 193.952683 -57.6288 
L 193.288472 -57.6288 
L 192.624262 -57.6288 
L 191.960051 -57.6288 
L 191.295841 -57.6288 
L 190.63163 -57.6288 
L 189.96742 -57.6288 
L 189.303209 -57.6288 
L 188.638999 -57.6288 
L 187.974788 -57.6288 
L 187.310578 -57.6288 
L 186.646367 -57.6288 
L 185.982157 -57.6288 
L 185.317946 -57.6288 
L 184.653736 -57.6288 
L 183.989525 -57.6288 
L 183.325314 -57.6288 
L 182.661104 -57.6288 
L 181.996893 -57.6288 
L 181.332683 -57.6288 
L 180.668472 -57.6288 
L 180.004262 -57.6288 
L 179.340051 -57.6288 
L 178.675841 -57.6288 
L 178.01163 -57.6288 
L 177.34742 -57.6288 
L 176.683209 -57.6288 
L 176.018999 -57.6288 
L 175.354788 -57.6288 
L 174.690578 -57.6288 
L 174.026367 -57.6288 
L 173.362157 -57.6288 
L 172.697946 -57.6288 
L 172.033736 -57.6288 
L 171.369525 -57.6288 
L 170.705315 -57.6288 
L 170.041104 -57.6288 
L 169.376894 -57.6288 
L 168.712683 -57.6288 
L 168.048473 -57.6288 
L 167.384262 -57.6288 
L 166.720052 -57.6288 
L 166.055841 -57.6288 
L 165.391631 -57.6288 
L 164.72742 -57.6288 
L 164.06321 -57.6288 
L 163.398999 -57.6288 
L 162.734789 -57.6288 
L 162.070578 -57.6288 
L 161.406368 -57.6288 
L 160.742157 -57.6288 
L 160.077947 -57.6288 
L 159.413736 -57.6288 
L 158.749526 -57.6288 
L 158.085315 -57.6288 
L 157.421105 -57.6288 
L 156.756894 -57.6288 
L 156.092684 -57.6288 
L 155.428473 -57.6288 
L 154.764263 -57.6288 
L 154.100052 -57.6288 
L 153.435842 -57.6288 
L 152.771631 -57.6288 
L 152.107421 -57.6288 
L 151.44321 -57.6288 
L 150.779 -57.6288 
L 150.114789 -57.6288 
L 149.450579 -57.6288 
z
" style="stroke: #1f77b4; stroke-opacity: 0"/>
    </defs>
    <g clip-path="url(#pd710cf9019)">
     <use xlink:href="#m5c584d9883" x="0" y="397.44" style="fill: #1f77b4; fill-opacity: 0; stroke: #1f77b4; stroke-opacity: 0"/>
    </g>
   </g>
   <g id="matplotlib.axis_1">
    <g id="xtick_1">
     <g id="line2d_1">
      <defs>
       <path id="m7c97c96c3e" d="M 0 0 
L 0 3 
" style="stroke: #808080"/>
      </defs>
      <g>
       <use xlink:href="#m7c97c96c3e" x="198.458729" y="353.7216" style="fill: #808080; stroke: #808080"/>
      </g>
     </g>
     <g id="text_1">
      <!-- 0.04 -->
      <g transform="translate(182.872791 370.859412) scale(0.14 -0.14)">
       <defs>
        <path id="DejaVuSans-30" d="M 2034 4250 
Q 1547 4250 1301 3770 
Q 1056 3291 1056 2328 
Q 1056 1369 1301 889 
Q 1547 409 2034 409 
Q 2525 409 2770 889 
Q 3016 1369 3016 2328 
Q 3016 3291 2770 3770 
Q 2525 4250 2034 4250 
z
M 2034 4750 
Q 2819 4750 3233 4129 
Q 3647 3509 3647 2328 
Q 3647 1150 3233 529 
Q 2819 -91 2034 -91 
Q 1250 -91 836 529 
Q 422 1150 422 2328 
Q 422 3509 836 4129 
Q 1250 4750 2034 4750 
z
" transform="scale(0.015625)"/>
        <path id="DejaVuSans-2e" d="M 684 794 
L 1344 794 
L 1344 0 
L 684 0 
L 684 794 
z
" transform="scale(0.015625)"/>
        <path id="DejaVuSans-34" d="M 2419 4116 
L 825 1625 
L 2419 1625 
L 2419 4116 
z
M 2253 4666 
L 3047 4666 
L 3047 1625 
L 3713 1625 
L 3713 1100 
L 3047 1100 
L 3047 0 
L 2419 0 
L 2419 1100 
L 313 1100 
L 313 1709 
L 2253 4666 
z
" transform="scale(0.015625)"/>
       </defs>
       <use xlink:href="#DejaVuSans-30"/>
       <use xlink:href="#DejaVuSans-2e" x="63.623047"/>
       <use xlink:href="#DejaVuSans-30" x="95.410156"/>
       <use xlink:href="#DejaVuSans-34" x="159.033203"/>
      </g>
     </g>
    </g>
    <g id="xtick_2">
     <g id="line2d_2">
      <g>
       <use xlink:href="#m7c97c96c3e" x="283.857766" y="353.7216" style="fill: #808080; stroke: #808080"/>
      </g>
     </g>
     <g id="text_2">
      <!-- 0.05 -->
      <g transform="translate(268.271828 370.859412) scale(0.14 -0.14)">
       <defs>
        <path id="DejaVuSans-35" d="M 691 4666 
L 3169 4666 
L 3169 4134 
L 1269 4134 
L 1269 2991 
Q 1406 3038 1543 3061 
Q 1681 3084 1819 3084 
Q 2600 3084 3056 2656 
Q 3513 2228 3513 1497 
Q 3513 744 3044 326 
Q 2575 -91 1722 -91 
Q 1428 -91 1123 -41 
Q 819 9 494 109 
L 494 744 
Q 775 591 1075 516 
Q 1375 441 1709 441 
Q 2250 441 2565 725 
Q 2881 1009 2881 1497 
Q 2881 1984 2565 2268 
Q 2250 2553 1709 2553 
Q 1456 2553 1204 2497 
Q 953 2441 691 2322 
L 691 4666 
z
" transform="scale(0.015625)"/>
       </defs>
       <use xlink:href="#DejaVuSans-30"/>
       <use xlink:href="#DejaVuSans-2e" x="63.623047"/>
       <use xlink:href="#DejaVuSans-30" x="95.410156"/>
       <use xlink:href="#DejaVuSans-35" x="159.033203"/>
      </g>
     </g>
    </g>
    <g id="xtick_3">
     <g id="line2d_3">
      <g>
       <use xlink:href="#m7c97c96c3e" x="369.256803" y="353.7216" style="fill: #808080; stroke: #808080"/>
      </g>
     </g>
     <g id="text_3">
      <!-- 0.06 -->
      <g transform="translate(353.670865 370.859412) scale(0.14 -0.14)">
       <defs>
        <path id="DejaVuSans-36" d="M 2113 2584 
Q 1688 2584 1439 2293 
Q 1191 2003 1191 1497 
Q 1191 994 1439 701 
Q 1688 409 2113 409 
Q 2538 409 2786 701 
Q 3034 994 3034 1497 
Q 3034 2003 2786 2293 
Q 2538 2584 2113 2584 
z
M 3366 4563 
L 3366 3988 
Q 3128 4100 2886 4159 
Q 2644 4219 2406 4219 
Q 1781 4219 1451 3797 
Q 1122 3375 1075 2522 
Q 1259 2794 1537 2939 
Q 1816 3084 2150 3084 
Q 2853 3084 3261 2657 
Q 3669 2231 3669 1497 
Q 3669 778 3244 343 
Q 2819 -91 2113 -91 
Q 1303 -91 875 529 
Q 447 1150 447 2328 
Q 447 3434 972 4092 
Q 1497 4750 2381 4750 
Q 2619 4750 2861 4703 
Q 3103 4656 3366 4563 
z
" transform="scale(0.015625)"/>
       </defs>
       <use xlink:href="#DejaVuSans-30"/>
       <use xlink:href="#DejaVuSans-2e" x="63.623047"/>
       <use xlink:href="#DejaVuSans-30" x="95.410156"/>
       <use xlink:href="#DejaVuSans-36" x="159.033203"/>
      </g>
     </g>
    </g>
    <g id="xtick_4">
     <g id="line2d_4">
      <g>
       <use xlink:href="#m7c97c96c3e" x="454.65584" y="353.7216" style="fill: #808080; stroke: #808080"/>
      </g>
     </g>
     <g id="text_4">
      <!-- 0.07 -->
      <g transform="translate(439.069902 370.859412) scale(0.14 -0.14)">
       <defs>
        <path id="DejaVuSans-37" d="M 525 4666 
L 3525 4666 
L 3525 4397 
L 1831 0 
L 1172 0 
L 2766 4134 
L 525 4134 
L 525 4666 
z
" transform="scale(0.015625)"/>
       </defs>
       <use xlink:href="#DejaVuSans-30"/>
       <use xlink:href="#DejaVuSans-2e" x="63.623047"/>
       <use xlink:href="#DejaVuSans-30" x="95.410156"/>
       <use xlink:href="#DejaVuSans-37" x="159.033203"/>
      </g>
     </g>
    </g>
   </g>
   <g id="matplotlib.axis_2"/>
   <g id="line2d_5">
    <path d="M 149.450579 339.788076 
L 169.376894 339.691478 
L 177.34742 339.456775 
L 181.332683 339.099573 
L 190.63163 337.911339 
L 192.624262 337.324064 
L 195.945314 336.089948 
L 197.937946 335.200745 
L 199.930577 334.064265 
L 202.587419 332.27812 
L 204.580051 330.739261 
L 206.572682 328.821561 
L 208.565314 326.508877 
L 210.557945 323.885883 
L 212.550577 320.895983 
L 215.207419 316.49074 
L 217.20005 312.80444 
L 219.192682 308.414582 
L 221.849524 301.695916 
L 225.170577 292.936829 
L 227.163208 286.918429 
L 229.82005 277.99253 
L 231.812682 270.544048 
L 234.469524 259.72841 
L 237.126366 248.158581 
L 239.118997 238.459053 
L 243.768471 214.350725 
L 247.089523 198.145121 
L 249.746365 183.580708 
L 253.731628 161.221163 
L 259.709523 130.277689 
L 266.351628 98.258184 
L 267.680049 92.609072 
L 269.00847 88.04235 
L 274.986365 70.676658 
L 276.314786 67.562867 
L 277.643207 65.107149 
L 278.971628 63.305389 
L 279.635838 62.648743 
L 280.300049 62.158099 
L 280.964259 61.827828 
L 281.62847 61.643795 
L 282.956891 61.647615 
L 284.949522 61.808941 
L 286.277943 61.901552 
L 286.942154 62.074135 
L 287.606364 62.398849 
L 288.270575 62.889176 
L 289.598996 64.318106 
L 290.927417 66.209648 
L 292.255838 68.622718 
L 293.584259 71.761937 
L 294.91268 75.730271 
L 299.562154 90.794231 
L 302.218996 99.344243 
L 303.547417 104.331429 
L 304.875838 110.151605 
L 308.19689 125.224849 
L 310.189522 133.736824 
L 312.182153 143.381801 
L 316.167416 163.244885 
L 319.488469 178.370077 
L 324.137942 199.560182 
L 328.787416 220.979413 
L 332.772679 238.349345 
L 335.429521 248.445693 
L 340.078995 265.461053 
L 342.735837 273.726026 
L 347.38531 287.164462 
L 349.377942 292.21961 
L 352.034784 298.199158 
L 354.691626 303.792565 
L 356.684257 307.591628 
L 358.676889 311.002797 
L 360.66952 313.90931 
L 362.662152 316.283562 
L 370.632678 325.330235 
L 372.62531 326.985149 
L 379.267415 331.677763 
L 381.924257 333.041793 
L 384.581099 334.263037 
L 386.57373 334.95131 
L 390.558993 335.983402 
L 394.544256 337.010295 
L 397.201098 337.714169 
L 399.857941 338.108195 
L 408.492677 338.999489 
L 413.142151 339.249151 
L 427.090571 339.658526 
L 443.695834 339.782395 
L 462.957939 339.806859 
L 488.862149 339.800989 
L 488.862149 339.800989 
" clip-path="url(#pd710cf9019)" style="fill: none; stroke: #1f77b4; stroke-width: 1.5; stroke-linecap: square"/>
   </g>
   <g id="line2d_6">
    <path d="M 222.060194 333.968832 
L 351.558492 333.968832 
" clip-path="url(#pd710cf9019)" style="fill: none; stroke: #000000; stroke-width: 3"/>
   </g>
   <g id="patch_3">
    <path d="M 132.48 353.7216 
L 505.832727 353.7216 
" style="fill: none; stroke: #808080; stroke-width: 0.8; stroke-linejoin: miter; stroke-linecap: square"/>
   </g>
   <g id="text_5">
    <!-- 0.043  -->
    <g transform="translate(174.350819 319.362912) scale(0.15 -0.15)">
     <defs>
      <path id="DejaVuSans-33" d="M 2597 2516 
Q 3050 2419 3304 2112 
Q 3559 1806 3559 1356 
Q 3559 666 3084 287 
Q 2609 -91 1734 -91 
Q 1441 -91 1130 -33 
Q 819 25 488 141 
L 488 750 
Q 750 597 1062 519 
Q 1375 441 1716 441 
Q 2309 441 2620 675 
Q 2931 909 2931 1356 
Q 2931 1769 2642 2001 
Q 2353 2234 1838 2234 
L 1294 2234 
L 1294 2753 
L 1863 2753 
Q 2328 2753 2575 2939 
Q 2822 3125 2822 3475 
Q 2822 3834 2567 4026 
Q 2313 4219 1838 4219 
Q 1578 4219 1281 4162 
Q 984 4106 628 3988 
L 628 4550 
Q 988 4650 1302 4700 
Q 1616 4750 1894 4750 
Q 2613 4750 3031 4423 
Q 3450 4097 3450 3541 
Q 3450 3153 3228 2886 
Q 3006 2619 2597 2516 
z
" transform="scale(0.015625)"/>
      <path id="DejaVuSans-20" transform="scale(0.015625)"/>
     </defs>
     <use xlink:href="#DejaVuSans-30"/>
     <use xlink:href="#DejaVuSans-2e" x="63.623047"/>
     <use xlink:href="#DejaVuSans-30" x="95.410156"/>
     <use xlink:href="#DejaVuSans-34" x="159.033203"/>
     <use xlink:href="#DejaVuSans-33" x="222.65625"/>
     <use xlink:href="#DejaVuSans-20" x="286.279297"/>
    </g>
   </g>
   <g id="text_6">
    <!--  0.058 -->
    <g transform="translate(351.558492 319.362912) scale(0.15 -0.15)">
     <defs>
      <path id="DejaVuSans-38" d="M 2034 2216 
Q 1584 2216 1326 1975 
Q 1069 1734 1069 1313 
Q 1069 891 1326 650 
Q 1584 409 2034 409 
Q 2484 409 2743 651 
Q 3003 894 3003 1313 
Q 3003 1734 2745 1975 
Q 2488 2216 2034 2216 
z
M 1403 2484 
Q 997 2584 770 2862 
Q 544 3141 544 3541 
Q 544 4100 942 4425 
Q 1341 4750 2034 4750 
Q 2731 4750 3128 4425 
Q 3525 4100 3525 3541 
Q 3525 3141 3298 2862 
Q 3072 2584 2669 2484 
Q 3125 2378 3379 2068 
Q 3634 1759 3634 1313 
Q 3634 634 3220 271 
Q 2806 -91 2034 -91 
Q 1263 -91 848 271 
Q 434 634 434 1313 
Q 434 1759 690 2068 
Q 947 2378 1403 2484 
z
M 1172 3481 
Q 1172 3119 1398 2916 
Q 1625 2713 2034 2713 
Q 2441 2713 2670 2916 
Q 2900 3119 2900 3481 
Q 2900 3844 2670 4047 
Q 2441 4250 2034 4250 
Q 1625 4250 1398 4047 
Q 1172 3844 1172 3481 
z
" transform="scale(0.015625)"/>
     </defs>
     <use xlink:href="#DejaVuSans-20"/>
     <use xlink:href="#DejaVuSans-30" x="31.787109"/>
     <use xlink:href="#DejaVuSans-2e" x="95.410156"/>
     <use xlink:href="#DejaVuSans-30" x="127.197266"/>
     <use xlink:href="#DejaVuSans-35" x="190.820312"/>
     <use xlink:href="#DejaVuSans-38" x="254.443359"/>
    </g>
   </g>
   <g id="text_7">
    <!-- 95% HDI -->
    <g transform="translate(254.128093 252.17568) scale(0.15 -0.15)">
     <defs>
      <path id="DejaVuSans-39" d="M 703 97 
L 703 672 
Q 941 559 1184 500 
Q 1428 441 1663 441 
Q 2288 441 2617 861 
Q 2947 1281 2994 2138 
Q 2813 1869 2534 1725 
Q 2256 1581 1919 1581 
Q 1219 1581 811 2004 
Q 403 2428 403 3163 
Q 403 3881 828 4315 
Q 1253 4750 1959 4750 
Q 2769 4750 3195 4129 
Q 3622 3509 3622 2328 
Q 3622 1225 3098 567 
Q 2575 -91 1691 -91 
Q 1453 -91 1209 -44 
Q 966 3 703 97 
z
M 1959 2075 
Q 2384 2075 2632 2365 
Q 2881 2656 2881 3163 
Q 2881 3666 2632 3958 
Q 2384 4250 1959 4250 
Q 1534 4250 1286 3958 
Q 1038 3666 1038 3163 
Q 1038 2656 1286 2365 
Q 1534 2075 1959 2075 
z
" transform="scale(0.015625)"/>
      <path id="DejaVuSans-25" d="M 4653 2053 
Q 4381 2053 4226 1822 
Q 4072 1591 4072 1178 
Q 4072 772 4226 539 
Q 4381 306 4653 306 
Q 4919 306 5073 539 
Q 5228 772 5228 1178 
Q 5228 1588 5073 1820 
Q 4919 2053 4653 2053 
z
M 4653 2450 
Q 5147 2450 5437 2106 
Q 5728 1763 5728 1178 
Q 5728 594 5436 251 
Q 5144 -91 4653 -91 
Q 4153 -91 3862 251 
Q 3572 594 3572 1178 
Q 3572 1766 3864 2108 
Q 4156 2450 4653 2450 
z
M 1428 4353 
Q 1159 4353 1004 4120 
Q 850 3888 850 3481 
Q 850 3069 1003 2837 
Q 1156 2606 1428 2606 
Q 1700 2606 1854 2837 
Q 2009 3069 2009 3481 
Q 2009 3884 1853 4118 
Q 1697 4353 1428 4353 
z
M 4250 4750 
L 4750 4750 
L 1831 -91 
L 1331 -91 
L 4250 4750 
z
M 1428 4750 
Q 1922 4750 2215 4408 
Q 2509 4066 2509 3481 
Q 2509 2891 2217 2550 
Q 1925 2209 1428 2209 
Q 931 2209 642 2551 
Q 353 2894 353 3481 
Q 353 4063 643 4406 
Q 934 4750 1428 4750 
z
" transform="scale(0.015625)"/>
      <path id="DejaVuSans-48" d="M 628 4666 
L 1259 4666 
L 1259 2753 
L 3553 2753 
L 3553 4666 
L 4184 4666 
L 4184 0 
L 3553 0 
L 3553 2222 
L 1259 2222 
L 1259 0 
L 628 0 
L 628 4666 
z
" transform="scale(0.015625)"/>
      <path id="DejaVuSans-44" d="M 1259 4147 
L 1259 519 
L 2022 519 
Q 2988 519 3436 956 
Q 3884 1394 3884 2338 
Q 3884 3275 3436 3711 
Q 2988 4147 2022 4147 
L 1259 4147 
z
M 628 4666 
L 1925 4666 
Q 3281 4666 3915 4102 
Q 4550 3538 4550 2338 
Q 4550 1131 3912 565 
Q 3275 0 1925 0 
L 628 0 
L 628 4666 
z
" transform="scale(0.015625)"/>
      <path id="DejaVuSans-49" d="M 628 4666 
L 1259 4666 
L 1259 0 
L 628 0 
L 628 4666 
z
" transform="scale(0.015625)"/>
     </defs>
     <use xlink:href="#DejaVuSans-39"/>
     <use xlink:href="#DejaVuSans-35" x="63.623047"/>
     <use xlink:href="#DejaVuSans-25" x="127.246094"/>
     <use xlink:href="#DejaVuSans-20" x="222.265625"/>
     <use xlink:href="#DejaVuSans-48" x="254.052734"/>
     <use xlink:href="#DejaVuSans-44" x="329.248047"/>
     <use xlink:href="#DejaVuSans-49" x="406.25"/>
    </g>
   </g>
   <g id="text_8">
    <!-- mean=0.05 -->
    <g transform="translate(242.417361 106.11648) scale(0.15 -0.15)">
     <defs>
      <path id="DejaVuSans-6d" d="M 3328 2828 
Q 3544 3216 3844 3400 
Q 4144 3584 4550 3584 
Q 5097 3584 5394 3201 
Q 5691 2819 5691 2113 
L 5691 0 
L 5113 0 
L 5113 2094 
Q 5113 2597 4934 2840 
Q 4756 3084 4391 3084 
Q 3944 3084 3684 2787 
Q 3425 2491 3425 1978 
L 3425 0 
L 2847 0 
L 2847 2094 
Q 2847 2600 2669 2842 
Q 2491 3084 2119 3084 
Q 1678 3084 1418 2786 
Q 1159 2488 1159 1978 
L 1159 0 
L 581 0 
L 581 3500 
L 1159 3500 
L 1159 2956 
Q 1356 3278 1631 3431 
Q 1906 3584 2284 3584 
Q 2666 3584 2933 3390 
Q 3200 3197 3328 2828 
z
" transform="scale(0.015625)"/>
      <path id="DejaVuSans-65" d="M 3597 1894 
L 3597 1613 
L 953 1613 
Q 991 1019 1311 708 
Q 1631 397 2203 397 
Q 2534 397 2845 478 
Q 3156 559 3463 722 
L 3463 178 
Q 3153 47 2828 -22 
Q 2503 -91 2169 -91 
Q 1331 -91 842 396 
Q 353 884 353 1716 
Q 353 2575 817 3079 
Q 1281 3584 2069 3584 
Q 2775 3584 3186 3129 
Q 3597 2675 3597 1894 
z
M 3022 2063 
Q 3016 2534 2758 2815 
Q 2500 3097 2075 3097 
Q 1594 3097 1305 2825 
Q 1016 2553 972 2059 
L 3022 2063 
z
" transform="scale(0.015625)"/>
      <path id="DejaVuSans-61" d="M 2194 1759 
Q 1497 1759 1228 1600 
Q 959 1441 959 1056 
Q 959 750 1161 570 
Q 1363 391 1709 391 
Q 2188 391 2477 730 
Q 2766 1069 2766 1631 
L 2766 1759 
L 2194 1759 
z
M 3341 1997 
L 3341 0 
L 2766 0 
L 2766 531 
Q 2569 213 2275 61 
Q 1981 -91 1556 -91 
Q 1019 -91 701 211 
Q 384 513 384 1019 
Q 384 1609 779 1909 
Q 1175 2209 1959 2209 
L 2766 2209 
L 2766 2266 
Q 2766 2663 2505 2880 
Q 2244 3097 1772 3097 
Q 1472 3097 1187 3025 
Q 903 2953 641 2809 
L 641 3341 
Q 956 3463 1253 3523 
Q 1550 3584 1831 3584 
Q 2591 3584 2966 3190 
Q 3341 2797 3341 1997 
z
" transform="scale(0.015625)"/>
      <path id="DejaVuSans-6e" d="M 3513 2113 
L 3513 0 
L 2938 0 
L 2938 2094 
Q 2938 2591 2744 2837 
Q 2550 3084 2163 3084 
Q 1697 3084 1428 2787 
Q 1159 2491 1159 1978 
L 1159 0 
L 581 0 
L 581 3500 
L 1159 3500 
L 1159 2956 
Q 1366 3272 1645 3428 
Q 1925 3584 2291 3584 
Q 2894 3584 3203 3211 
Q 3513 2838 3513 2113 
z
" transform="scale(0.015625)"/>
      <path id="DejaVuSans-3d" d="M 678 2906 
L 4684 2906 
L 4684 2381 
L 678 2381 
L 678 2906 
z
M 678 1631 
L 4684 1631 
L 4684 1100 
L 678 1100 
L 678 1631 
z
" transform="scale(0.015625)"/>
     </defs>
     <use xlink:href="#DejaVuSans-6d"/>
     <use xlink:href="#DejaVuSans-65" x="97.412109"/>
     <use xlink:href="#DejaVuSans-61" x="158.935547"/>
     <use xlink:href="#DejaVuSans-6e" x="220.214844"/>
     <use xlink:href="#DejaVuSans-3d" x="283.59375"/>
     <use xlink:href="#DejaVuSans-30" x="367.382812"/>
     <use xlink:href="#DejaVuSans-2e" x="431.005859"/>
     <use xlink:href="#DejaVuSans-30" x="462.792969"/>
     <use xlink:href="#DejaVuSans-35" x="526.416016"/>
    </g>
   </g>
   <g id="text_9">
    <!-- θ -->
    <g transform="translate(314.261364 41.6928) scale(0.16 -0.16)">
     <defs>
      <path id="DejaVuSans-3b8" d="M 2953 2219 
L 963 2219 
Q 1009 1284 1225 888 
Q 1494 400 1959 400 
Q 2428 400 2688 891 
Q 2916 1322 2953 2219 
z
M 2944 2750 
Q 2856 3638 2688 3950 
Q 2419 4444 1959 4444 
Q 1481 4444 1228 3956 
Q 1028 3563 969 2750 
L 2944 2750 
z
M 1959 4913 
Q 2709 4913 3138 4250 
Q 3566 3591 3566 2422 
Q 3566 1256 3138 594 
Q 2709 -72 1959 -72 
Q 1206 -72 781 594 
Q 353 1256 353 2422 
Q 353 3591 781 4250 
Q 1206 4913 1959 4913 
z
" transform="scale(0.015625)"/>
     </defs>
     <use xlink:href="#DejaVuSans-3b8"/>
    </g>
   </g>
  </g>
  <g id="axes_2">
   <g id="patch_4">
    <path d="M 580.503273 353.7216 
L 953.856 353.7216 
L 953.856 47.6928 
L 580.503273 47.6928 
z
" style="fill: #ffffff"/>
   </g>
   <g id="PolyCollection_2">
    <defs>
     <path id="m7ebabb2d38" d="M 597.473851 -57.6288 
L 597.473851 -57.641297 
L 598.138062 -57.640847 
L 598.802272 -57.640061 
L 599.466483 -57.639104 
L 600.130693 -57.638072 
L 600.794904 -57.63711 
L 601.459114 -57.636121 
L 602.123325 -57.635068 
L 602.787535 -57.633943 
L 603.451746 -57.632793 
L 604.115956 -57.631755 
L 604.780167 -57.630907 
L 605.444377 -57.630399 
L 606.108588 -57.630308 
L 606.772798 -57.630588 
L 607.437009 -57.631289 
L 608.101219 -57.632466 
L 608.76543 -57.63401 
L 609.42964 -57.635861 
L 610.093851 -57.637937 
L 610.758061 -57.640114 
L 611.422272 -57.642253 
L 612.086482 -57.644513 
L 612.750693 -57.64689 
L 613.414903 -57.64941 
L 614.079114 -57.652284 
L 614.743324 -57.655678 
L 615.407535 -57.659808 
L 616.071745 -57.664622 
L 616.735956 -57.67061 
L 617.400167 -57.677667 
L 618.064377 -57.68573 
L 618.728588 -57.694762 
L 619.392798 -57.704279 
L 620.057009 -57.713517 
L 620.721219 -57.722049 
L 621.38543 -57.728904 
L 622.04964 -57.733903 
L 622.713851 -57.737032 
L 623.378061 -57.738779 
L 624.042272 -57.739879 
L 624.706482 -57.741145 
L 625.370693 -57.743126 
L 626.034903 -57.746544 
L 626.699114 -57.751836 
L 627.363324 -57.758909 
L 628.027535 -57.767644 
L 628.691745 -57.777506 
L 629.355956 -57.788267 
L 630.020166 -57.799552 
L 630.684377 -57.811912 
L 631.348587 -57.824975 
L 632.012798 -57.839769 
L 632.677008 -57.85728 
L 633.341219 -57.877835 
L 634.005429 -57.902496 
L 634.66964 -57.931188 
L 635.33385 -57.963175 
L 635.998061 -57.997392 
L 636.662271 -58.033344 
L 637.326482 -58.070144 
L 637.990692 -58.108411 
L 638.654903 -58.148986 
L 639.319113 -58.19288 
L 639.983324 -58.239553 
L 640.647534 -58.290467 
L 641.311745 -58.344195 
L 641.975955 -58.399799 
L 642.640166 -58.458055 
L 643.304376 -58.519294 
L 643.968587 -58.585444 
L 644.632797 -58.658093 
L 645.297008 -58.740039 
L 645.961218 -58.830928 
L 646.625429 -58.929932 
L 647.289639 -59.035672 
L 647.95385 -59.147722 
L 648.61806 -59.266943 
L 649.282271 -59.395333 
L 649.946481 -59.533817 
L 650.610692 -59.682724 
L 651.274902 -59.842036 
L 651.939113 -60.007671 
L 652.603324 -60.177647 
L 653.267534 -60.349031 
L 653.931745 -60.522948 
L 654.595955 -60.700744 
L 655.260166 -60.88671 
L 655.924376 -61.083727 
L 656.588587 -61.293299 
L 657.252797 -61.518938 
L 657.917008 -61.761904 
L 658.581218 -62.021702 
L 659.245429 -62.30117 
L 659.909639 -62.595957 
L 660.57385 -62.905542 
L 661.23806 -63.225916 
L 661.902271 -63.55113 
L 662.566481 -63.877435 
L 663.230692 -64.204391 
L 663.894902 -64.532081 
L 664.559113 -64.863108 
L 665.223323 -65.200441 
L 665.887534 -65.556403 
L 666.551744 -65.932521 
L 667.215955 -66.340012 
L 667.880165 -66.780985 
L 668.544376 -67.261002 
L 669.208586 -67.78897 
L 669.872797 -68.370258 
L 670.537007 -69.008993 
L 671.201218 -69.701489 
L 671.865428 -70.45031 
L 672.529639 -71.246909 
L 673.193849 -72.079855 
L 673.85806 -72.941841 
L 674.52227 -73.828967 
L 675.186481 -74.731283 
L 675.850691 -75.652619 
L 676.514902 -76.581162 
L 677.179112 -77.510618 
L 677.843323 -78.43348 
L 678.507533 -79.34484 
L 679.171744 -80.244623 
L 679.835954 -81.136253 
L 680.500165 -82.041215 
L 681.164375 -82.972225 
L 681.828586 -83.947794 
L 682.492796 -84.984006 
L 683.157007 -86.093569 
L 683.821217 -87.289856 
L 684.485428 -88.582958 
L 685.149638 -89.971855 
L 685.813849 -91.43531 
L 686.478059 -92.947342 
L 687.14227 -94.487952 
L 687.806481 -96.024978 
L 688.470691 -97.548104 
L 689.134902 -99.070936 
L 689.799112 -100.600148 
L 690.463323 -102.178066 
L 691.127533 -103.81696 
L 691.791744 -105.540489 
L 692.455954 -107.352139 
L 693.120165 -109.245417 
L 693.784375 -111.217596 
L 694.448586 -113.260828 
L 695.112796 -115.394856 
L 695.777007 -117.623447 
L 696.441217 -119.940065 
L 697.105428 -122.339029 
L 697.769638 -124.794398 
L 698.433849 -127.277003 
L 699.098059 -129.756587 
L 699.76227 -132.217199 
L 700.42648 -134.6569 
L 701.090691 -137.065738 
L 701.754901 -139.460288 
L 702.419112 -141.827366 
L 703.083322 -144.196733 
L 703.747533 -146.582019 
L 704.411743 -149.002334 
L 705.075954 -151.493981 
L 705.740164 -154.074467 
L 706.404375 -156.765389 
L 707.068585 -159.570462 
L 707.732796 -162.476941 
L 708.397006 -165.469278 
L 709.061217 -168.514618 
L 709.725427 -171.596448 
L 710.389638 -174.689561 
L 711.053848 -177.765916 
L 711.718059 -180.823517 
L 712.382269 -183.854129 
L 713.04648 -186.878279 
L 713.71069 -189.919677 
L 714.374901 -192.984587 
L 715.039111 -196.088901 
L 715.703322 -199.242975 
L 716.367532 -202.453102 
L 717.031743 -205.685602 
L 717.695953 -208.962099 
L 718.360164 -212.264721 
L 719.024374 -215.589571 
L 719.688585 -218.907048 
L 720.352795 -222.2298 
L 721.017006 -225.530032 
L 721.681216 -228.797241 
L 722.345427 -232.020538 
L 723.009637 -235.207234 
L 723.673848 -238.38698 
L 724.338059 -241.592182 
L 725.002269 -244.846321 
L 725.66648 -248.168088 
L 726.33069 -251.548581 
L 726.994901 -254.925046 
L 727.659111 -258.217935 
L 728.323322 -261.385569 
L 728.987532 -264.37896 
L 729.651743 -267.203779 
L 730.315953 -269.917561 
L 730.980164 -272.610407 
L 731.644374 -275.328107 
L 732.308585 -278.129044 
L 732.972795 -281.03232 
L 733.637006 -284.01392 
L 734.301216 -286.998224 
L 734.965427 -289.96839 
L 735.629637 -292.862049 
L 736.293848 -295.620821 
L 736.958058 -298.21069 
L 737.622269 -300.636741 
L 738.286479 -302.915796 
L 738.95069 -305.08374 
L 739.6149 -307.146772 
L 740.279111 -309.140922 
L 740.943321 -311.070166 
L 741.607532 -312.931295 
L 742.271742 -314.669497 
L 742.935953 -316.281962 
L 743.600163 -317.754927 
L 744.264374 -319.097894 
L 744.928584 -320.323851 
L 745.592795 -321.507068 
L 746.257005 -322.671974 
L 746.921216 -323.841009 
L 747.585426 -325.047402 
L 748.249637 -326.275936 
L 748.913847 -327.483681 
L 749.578058 -328.624452 
L 750.242268 -329.708855 
L 750.906479 -330.700471 
L 751.570689 -331.613986 
L 752.2349 -332.46131 
L 752.89911 -333.23487 
L 753.563321 -333.938435 
L 754.227531 -334.550454 
L 754.891742 -335.0462 
L 755.555952 -335.404941 
L 756.220163 -335.662047 
L 756.884373 -335.799343 
L 757.548584 -335.8368 
L 758.212794 -335.76968 
L 758.877005 -335.597381 
L 759.541216 -335.27333 
L 760.205426 -334.819206 
L 760.869637 -334.248248 
L 761.533847 -333.560933 
L 762.198058 -332.782841 
L 762.862268 -331.899946 
L 763.526479 -330.921693 
L 764.190689 -329.79988 
L 764.8549 -328.552578 
L 765.51911 -327.162293 
L 766.183321 -325.695468 
L 766.847531 -324.175788 
L 767.511742 -322.607941 
L 768.175952 -320.991924 
L 768.840163 -319.334059 
L 769.504373 -317.59867 
L 770.168584 -315.781789 
L 770.832794 -313.89295 
L 771.497005 -311.94169 
L 772.161215 -309.944479 
L 772.825426 -307.907381 
L 773.489636 -305.845254 
L 774.153847 -303.730472 
L 774.818057 -301.549166 
L 775.482268 -299.303706 
L 776.146478 -296.975204 
L 776.810689 -294.57219 
L 777.474899 -292.082069 
L 778.13911 -289.511877 
L 778.80332 -286.876057 
L 779.467531 -284.208485 
L 780.131741 -281.510469 
L 780.795952 -278.820495 
L 781.460162 -276.148537 
L 782.124373 -273.484464 
L 782.788583 -270.81774 
L 783.452794 -268.156706 
L 784.117004 -265.456332 
L 784.781215 -262.704685 
L 785.445425 -259.892429 
L 786.109636 -257.01106 
L 786.773846 -254.053709 
L 787.438057 -251.0321 
L 788.102267 -247.946574 
L 788.766478 -244.800672 
L 789.430688 -241.594259 
L 790.094899 -238.34419 
L 790.759109 -235.065159 
L 791.42332 -231.7989 
L 792.08753 -228.585129 
L 792.751741 -225.450669 
L 793.415951 -222.409086 
L 794.080162 -219.448927 
L 794.744372 -216.54214 
L 795.408583 -213.649424 
L 796.072794 -210.738622 
L 796.737004 -207.808815 
L 797.401215 -204.850538 
L 798.065425 -201.901137 
L 798.729636 -198.966069 
L 799.393846 -196.057382 
L 800.058057 -193.179564 
L 800.722267 -190.318798 
L 801.386478 -187.463492 
L 802.050688 -184.612285 
L 802.714899 -181.763895 
L 803.379109 -178.926468 
L 804.04332 -176.113889 
L 804.70753 -173.347314 
L 805.371741 -170.633847 
L 806.035951 -167.978908 
L 806.700162 -165.380032 
L 807.364372 -162.820292 
L 808.028583 -160.282473 
L 808.692793 -157.750604 
L 809.357004 -155.228487 
L 810.021214 -152.72214 
L 810.685425 -150.224176 
L 811.349635 -147.760294 
L 812.013846 -145.327328 
L 812.678056 -142.943428 
L 813.342267 -140.579729 
L 814.006477 -138.241197 
L 814.670688 -135.91957 
L 815.334898 -133.611646 
L 815.999109 -131.333523 
L 816.663319 -129.094909 
L 817.32753 -126.923617 
L 817.99174 -124.831617 
L 818.655951 -122.840915 
L 819.320161 -120.954813 
L 819.984372 -119.177903 
L 820.648582 -117.495043 
L 821.312793 -115.903491 
L 821.977003 -114.385408 
L 822.641214 -112.919621 
L 823.305424 -111.47755 
L 823.969635 -110.03165 
L 824.633845 -108.552594 
L 825.298056 -107.015307 
L 825.962266 -105.42137 
L 826.626477 -103.780146 
L 827.290687 -102.134334 
L 827.954898 -100.531033 
L 828.619108 -99.010351 
L 829.283319 -97.597733 
L 829.947529 -96.303845 
L 830.61174 -95.114713 
L 831.275951 -93.998133 
L 831.940161 -92.926586 
L 832.604372 -91.860689 
L 833.268582 -90.783128 
L 833.932793 -89.684701 
L 834.597003 -88.567645 
L 835.261214 -87.437139 
L 835.925424 -86.314377 
L 836.589635 -85.205166 
L 837.253845 -84.123277 
L 837.918056 -83.071362 
L 838.582266 -82.055384 
L 839.246477 -81.06656 
L 839.910687 -80.102552 
L 840.574898 -79.1686 
L 841.239108 -78.267811 
L 841.903319 -77.402588 
L 842.567529 -76.585257 
L 843.23174 -75.823065 
L 843.89595 -75.118812 
L 844.560161 -74.473852 
L 845.224371 -73.881469 
L 845.888582 -73.33415 
L 846.552792 -72.825644 
L 847.217003 -72.344873 
L 847.881213 -71.880423 
L 848.545424 -71.420966 
L 849.209634 -70.956845 
L 849.873845 -70.477818 
L 850.538055 -69.981186 
L 851.202266 -69.460888 
L 851.866476 -68.924103 
L 852.530687 -68.375256 
L 853.194897 -67.830858 
L 853.859108 -67.303405 
L 854.523318 -66.801228 
L 855.187529 -66.332409 
L 855.851739 -65.899053 
L 856.51595 -65.500106 
L 857.18016 -65.13083 
L 857.844371 -64.787931 
L 858.508581 -64.467258 
L 859.172792 -64.165854 
L 859.837002 -63.880898 
L 860.501213 -63.606597 
L 861.165423 -63.341599 
L 861.829634 -63.08334 
L 862.493844 -62.833635 
L 863.158055 -62.592694 
L 863.822265 -62.36321 
L 864.486476 -62.146909 
L 865.150686 -61.94646 
L 865.814897 -61.757133 
L 866.479108 -61.575384 
L 867.143318 -61.397 
L 867.807529 -61.220036 
L 868.471739 -61.046321 
L 869.13595 -60.878753 
L 869.80016 -60.720171 
L 870.464371 -60.574032 
L 871.128581 -60.440263 
L 871.792792 -60.317652 
L 872.457002 -60.202535 
L 873.121213 -60.091653 
L 873.785423 -59.979047 
L 874.449634 -59.865693 
L 875.113844 -59.750307 
L 875.778055 -59.634037 
L 876.442265 -59.51799 
L 877.106476 -59.405786 
L 877.770686 -59.298474 
L 878.434897 -59.197855 
L 879.099107 -59.103663 
L 879.763318 -59.01736 
L 880.427528 -58.939956 
L 881.091739 -58.870406 
L 881.755949 -58.808722 
L 882.42016 -58.754201 
L 883.08437 -58.705382 
L 883.748581 -58.659693 
L 884.412791 -58.614793 
L 885.077002 -58.569307 
L 885.741212 -58.521823 
L 886.405423 -58.472637 
L 887.069633 -58.421614 
L 887.733844 -58.370943 
L 888.398054 -58.321035 
L 889.062265 -58.273655 
L 889.726475 -58.228997 
L 890.390686 -58.188285 
L 891.054896 -58.150293 
L 891.719107 -58.115124 
L 892.383317 -58.082152 
L 893.047528 -58.050852 
L 893.711738 -58.020382 
L 894.375949 -57.990953 
L 895.040159 -57.963729 
L 895.70437 -57.939348 
L 896.36858 -57.91886 
L 897.032791 -57.902466 
L 897.697001 -57.890169 
L 898.361212 -57.880943 
L 899.025422 -57.872742 
L 899.689633 -57.864266 
L 900.353843 -57.853292 
L 901.018054 -57.839138 
L 901.682264 -57.821919 
L 902.346475 -57.802898 
L 903.010686 -57.783685 
L 903.674896 -57.766211 
L 904.339107 -57.751761 
L 905.003317 -57.741248 
L 905.667528 -57.734403 
L 906.331738 -57.73029 
L 906.995949 -57.728339 
L 907.660159 -57.727086 
L 908.32437 -57.726324 
L 908.98858 -57.72512 
L 909.652791 -57.723863 
L 910.317001 -57.722276 
L 910.981212 -57.720252 
L 911.645422 -57.717651 
L 912.309633 -57.714464 
L 912.973843 -57.710919 
L 913.638054 -57.707103 
L 914.302264 -57.703308 
L 914.966475 -57.699706 
L 915.630685 -57.696528 
L 916.294896 -57.693293 
L 916.959106 -57.690093 
L 917.623317 -57.686818 
L 918.287527 -57.683449 
L 918.951738 -57.68032 
L 919.615948 -57.677546 
L 920.280159 -57.675313 
L 920.944369 -57.673117 
L 921.60858 -57.671065 
L 922.27279 -57.668638 
L 922.937001 -57.665754 
L 923.601211 -57.66248 
L 924.265422 -57.659146 
L 924.929632 -57.656077 
L 925.593843 -57.653376 
L 926.258053 -57.651098 
L 926.922264 -57.649063 
L 927.586474 -57.647039 
L 928.250685 -57.645043 
L 928.914895 -57.64313 
L 929.579106 -57.641396 
L 930.243316 -57.640525 
L 930.907527 -57.640286 
L 931.571737 -57.640671 
L 932.235948 -57.641428 
L 932.900158 -57.642283 
L 933.564369 -57.642972 
L 934.228579 -57.643523 
L 934.89279 -57.64395 
L 935.557 -57.64416 
L 936.221211 -57.64434 
L 936.885421 -57.644431 
L 936.885421 -57.6288 
L 936.885421 -57.6288 
L 936.221211 -57.6288 
L 935.557 -57.6288 
L 934.89279 -57.6288 
L 934.228579 -57.6288 
L 933.564369 -57.6288 
L 932.900158 -57.6288 
L 932.235948 -57.6288 
L 931.571737 -57.6288 
L 930.907527 -57.6288 
L 930.243316 -57.6288 
L 929.579106 -57.6288 
L 928.914895 -57.6288 
L 928.250685 -57.6288 
L 927.586474 -57.6288 
L 926.922264 -57.6288 
L 926.258053 -57.6288 
L 925.593843 -57.6288 
L 924.929632 -57.6288 
L 924.265422 -57.6288 
L 923.601211 -57.6288 
L 922.937001 -57.6288 
L 922.27279 -57.6288 
L 921.60858 -57.6288 
L 920.944369 -57.6288 
L 920.280159 -57.6288 
L 919.615948 -57.6288 
L 918.951738 -57.6288 
L 918.287527 -57.6288 
L 917.623317 -57.6288 
L 916.959106 -57.6288 
L 916.294896 -57.6288 
L 915.630685 -57.6288 
L 914.966475 -57.6288 
L 914.302264 -57.6288 
L 913.638054 -57.6288 
L 912.973843 -57.6288 
L 912.309633 -57.6288 
L 911.645422 -57.6288 
L 910.981212 -57.6288 
L 910.317001 -57.6288 
L 909.652791 -57.6288 
L 908.98858 -57.6288 
L 908.32437 -57.6288 
L 907.660159 -57.6288 
L 906.995949 -57.6288 
L 906.331738 -57.6288 
L 905.667528 -57.6288 
L 905.003317 -57.6288 
L 904.339107 -57.6288 
L 903.674896 -57.6288 
L 903.010686 -57.6288 
L 902.346475 -57.6288 
L 901.682264 -57.6288 
L 901.018054 -57.6288 
L 900.353843 -57.6288 
L 899.689633 -57.6288 
L 899.025422 -57.6288 
L 898.361212 -57.6288 
L 897.697001 -57.6288 
L 897.032791 -57.6288 
L 896.36858 -57.6288 
L 895.70437 -57.6288 
L 895.040159 -57.6288 
L 894.375949 -57.6288 
L 893.711738 -57.6288 
L 893.047528 -57.6288 
L 892.383317 -57.6288 
L 891.719107 -57.6288 
L 891.054896 -57.6288 
L 890.390686 -57.6288 
L 889.726475 -57.6288 
L 889.062265 -57.6288 
L 888.398054 -57.6288 
L 887.733844 -57.6288 
L 887.069633 -57.6288 
L 886.405423 -57.6288 
L 885.741212 -57.6288 
L 885.077002 -57.6288 
L 884.412791 -57.6288 
L 883.748581 -57.6288 
L 883.08437 -57.6288 
L 882.42016 -57.6288 
L 881.755949 -57.6288 
L 881.091739 -57.6288 
L 880.427528 -57.6288 
L 879.763318 -57.6288 
L 879.099107 -57.6288 
L 878.434897 -57.6288 
L 877.770686 -57.6288 
L 877.106476 -57.6288 
L 876.442265 -57.6288 
L 875.778055 -57.6288 
L 875.113844 -57.6288 
L 874.449634 -57.6288 
L 873.785423 -57.6288 
L 873.121213 -57.6288 
L 872.457002 -57.6288 
L 871.792792 -57.6288 
L 871.128581 -57.6288 
L 870.464371 -57.6288 
L 869.80016 -57.6288 
L 869.13595 -57.6288 
L 868.471739 -57.6288 
L 867.807529 -57.6288 
L 867.143318 -57.6288 
L 866.479108 -57.6288 
L 865.814897 -57.6288 
L 865.150686 -57.6288 
L 864.486476 -57.6288 
L 863.822265 -57.6288 
L 863.158055 -57.6288 
L 862.493844 -57.6288 
L 861.829634 -57.6288 
L 861.165423 -57.6288 
L 860.501213 -57.6288 
L 859.837002 -57.6288 
L 859.172792 -57.6288 
L 858.508581 -57.6288 
L 857.844371 -57.6288 
L 857.18016 -57.6288 
L 856.51595 -57.6288 
L 855.851739 -57.6288 
L 855.187529 -57.6288 
L 854.523318 -57.6288 
L 853.859108 -57.6288 
L 853.194897 -57.6288 
L 852.530687 -57.6288 
L 851.866476 -57.6288 
L 851.202266 -57.6288 
L 850.538055 -57.6288 
L 849.873845 -57.6288 
L 849.209634 -57.6288 
L 848.545424 -57.6288 
L 847.881213 -57.6288 
L 847.217003 -57.6288 
L 846.552792 -57.6288 
L 845.888582 -57.6288 
L 845.224371 -57.6288 
L 844.560161 -57.6288 
L 843.89595 -57.6288 
L 843.23174 -57.6288 
L 842.567529 -57.6288 
L 841.903319 -57.6288 
L 841.239108 -57.6288 
L 840.574898 -57.6288 
L 839.910687 -57.6288 
L 839.246477 -57.6288 
L 838.582266 -57.6288 
L 837.918056 -57.6288 
L 837.253845 -57.6288 
L 836.589635 -57.6288 
L 835.925424 -57.6288 
L 835.261214 -57.6288 
L 834.597003 -57.6288 
L 833.932793 -57.6288 
L 833.268582 -57.6288 
L 832.604372 -57.6288 
L 831.940161 -57.6288 
L 831.275951 -57.6288 
L 830.61174 -57.6288 
L 829.947529 -57.6288 
L 829.283319 -57.6288 
L 828.619108 -57.6288 
L 827.954898 -57.6288 
L 827.290687 -57.6288 
L 826.626477 -57.6288 
L 825.962266 -57.6288 
L 825.298056 -57.6288 
L 824.633845 -57.6288 
L 823.969635 -57.6288 
L 823.305424 -57.6288 
L 822.641214 -57.6288 
L 821.977003 -57.6288 
L 821.312793 -57.6288 
L 820.648582 -57.6288 
L 819.984372 -57.6288 
L 819.320161 -57.6288 
L 818.655951 -57.6288 
L 817.99174 -57.6288 
L 817.32753 -57.6288 
L 816.663319 -57.6288 
L 815.999109 -57.6288 
L 815.334898 -57.6288 
L 814.670688 -57.6288 
L 814.006477 -57.6288 
L 813.342267 -57.6288 
L 812.678056 -57.6288 
L 812.013846 -57.6288 
L 811.349635 -57.6288 
L 810.685425 -57.6288 
L 810.021214 -57.6288 
L 809.357004 -57.6288 
L 808.692793 -57.6288 
L 808.028583 -57.6288 
L 807.364372 -57.6288 
L 806.700162 -57.6288 
L 806.035951 -57.6288 
L 805.371741 -57.6288 
L 804.70753 -57.6288 
L 804.04332 -57.6288 
L 803.379109 -57.6288 
L 802.714899 -57.6288 
L 802.050688 -57.6288 
L 801.386478 -57.6288 
L 800.722267 -57.6288 
L 800.058057 -57.6288 
L 799.393846 -57.6288 
L 798.729636 -57.6288 
L 798.065425 -57.6288 
L 797.401215 -57.6288 
L 796.737004 -57.6288 
L 796.072794 -57.6288 
L 795.408583 -57.6288 
L 794.744372 -57.6288 
L 794.080162 -57.6288 
L 793.415951 -57.6288 
L 792.751741 -57.6288 
L 792.08753 -57.6288 
L 791.42332 -57.6288 
L 790.759109 -57.6288 
L 790.094899 -57.6288 
L 789.430688 -57.6288 
L 788.766478 -57.6288 
L 788.102267 -57.6288 
L 787.438057 -57.6288 
L 786.773846 -57.6288 
L 786.109636 -57.6288 
L 785.445425 -57.6288 
L 784.781215 -57.6288 
L 784.117004 -57.6288 
L 783.452794 -57.6288 
L 782.788583 -57.6288 
L 782.124373 -57.6288 
L 781.460162 -57.6288 
L 780.795952 -57.6288 
L 780.131741 -57.6288 
L 779.467531 -57.6288 
L 778.80332 -57.6288 
L 778.13911 -57.6288 
L 777.474899 -57.6288 
L 776.810689 -57.6288 
L 776.146478 -57.6288 
L 775.482268 -57.6288 
L 774.818057 -57.6288 
L 774.153847 -57.6288 
L 773.489636 -57.6288 
L 772.825426 -57.6288 
L 772.161215 -57.6288 
L 771.497005 -57.6288 
L 770.832794 -57.6288 
L 770.168584 -57.6288 
L 769.504373 -57.6288 
L 768.840163 -57.6288 
L 768.175952 -57.6288 
L 767.511742 -57.6288 
L 766.847531 -57.6288 
L 766.183321 -57.6288 
L 765.51911 -57.6288 
L 764.8549 -57.6288 
L 764.190689 -57.6288 
L 763.526479 -57.6288 
L 762.862268 -57.6288 
L 762.198058 -57.6288 
L 761.533847 -57.6288 
L 760.869637 -57.6288 
L 760.205426 -57.6288 
L 759.541216 -57.6288 
L 758.877005 -57.6288 
L 758.212794 -57.6288 
L 757.548584 -57.6288 
L 756.884373 -57.6288 
L 756.220163 -57.6288 
L 755.555952 -57.6288 
L 754.891742 -57.6288 
L 754.227531 -57.6288 
L 753.563321 -57.6288 
L 752.89911 -57.6288 
L 752.2349 -57.6288 
L 751.570689 -57.6288 
L 750.906479 -57.6288 
L 750.242268 -57.6288 
L 749.578058 -57.6288 
L 748.913847 -57.6288 
L 748.249637 -57.6288 
L 747.585426 -57.6288 
L 746.921216 -57.6288 
L 746.257005 -57.6288 
L 745.592795 -57.6288 
L 744.928584 -57.6288 
L 744.264374 -57.6288 
L 743.600163 -57.6288 
L 742.935953 -57.6288 
L 742.271742 -57.6288 
L 741.607532 -57.6288 
L 740.943321 -57.6288 
L 740.279111 -57.6288 
L 739.6149 -57.6288 
L 738.95069 -57.6288 
L 738.286479 -57.6288 
L 737.622269 -57.6288 
L 736.958058 -57.6288 
L 736.293848 -57.6288 
L 735.629637 -57.6288 
L 734.965427 -57.6288 
L 734.301216 -57.6288 
L 733.637006 -57.6288 
L 732.972795 -57.6288 
L 732.308585 -57.6288 
L 731.644374 -57.6288 
L 730.980164 -57.6288 
L 730.315953 -57.6288 
L 729.651743 -57.6288 
L 728.987532 -57.6288 
L 728.323322 -57.6288 
L 727.659111 -57.6288 
L 726.994901 -57.6288 
L 726.33069 -57.6288 
L 725.66648 -57.6288 
L 725.002269 -57.6288 
L 724.338059 -57.6288 
L 723.673848 -57.6288 
L 723.009637 -57.6288 
L 722.345427 -57.6288 
L 721.681216 -57.6288 
L 721.017006 -57.6288 
L 720.352795 -57.6288 
L 719.688585 -57.6288 
L 719.024374 -57.6288 
L 718.360164 -57.6288 
L 717.695953 -57.6288 
L 717.031743 -57.6288 
L 716.367532 -57.6288 
L 715.703322 -57.6288 
L 715.039111 -57.6288 
L 714.374901 -57.6288 
L 713.71069 -57.6288 
L 713.04648 -57.6288 
L 712.382269 -57.6288 
L 711.718059 -57.6288 
L 711.053848 -57.6288 
L 710.389638 -57.6288 
L 709.725427 -57.6288 
L 709.061217 -57.6288 
L 708.397006 -57.6288 
L 707.732796 -57.6288 
L 707.068585 -57.6288 
L 706.404375 -57.6288 
L 705.740164 -57.6288 
L 705.075954 -57.6288 
L 704.411743 -57.6288 
L 703.747533 -57.6288 
L 703.083322 -57.6288 
L 702.419112 -57.6288 
L 701.754901 -57.6288 
L 701.090691 -57.6288 
L 700.42648 -57.6288 
L 699.76227 -57.6288 
L 699.098059 -57.6288 
L 698.433849 -57.6288 
L 697.769638 -57.6288 
L 697.105428 -57.6288 
L 696.441217 -57.6288 
L 695.777007 -57.6288 
L 695.112796 -57.6288 
L 694.448586 -57.6288 
L 693.784375 -57.6288 
L 693.120165 -57.6288 
L 692.455954 -57.6288 
L 691.791744 -57.6288 
L 691.127533 -57.6288 
L 690.463323 -57.6288 
L 689.799112 -57.6288 
L 689.134902 -57.6288 
L 688.470691 -57.6288 
L 687.806481 -57.6288 
L 687.14227 -57.6288 
L 686.478059 -57.6288 
L 685.813849 -57.6288 
L 685.149638 -57.6288 
L 684.485428 -57.6288 
L 683.821217 -57.6288 
L 683.157007 -57.6288 
L 682.492796 -57.6288 
L 681.828586 -57.6288 
L 681.164375 -57.6288 
L 680.500165 -57.6288 
L 679.835954 -57.6288 
L 679.171744 -57.6288 
L 678.507533 -57.6288 
L 677.843323 -57.6288 
L 677.179112 -57.6288 
L 676.514902 -57.6288 
L 675.850691 -57.6288 
L 675.186481 -57.6288 
L 674.52227 -57.6288 
L 673.85806 -57.6288 
L 673.193849 -57.6288 
L 672.529639 -57.6288 
L 671.865428 -57.6288 
L 671.201218 -57.6288 
L 670.537007 -57.6288 
L 669.872797 -57.6288 
L 669.208586 -57.6288 
L 668.544376 -57.6288 
L 667.880165 -57.6288 
L 667.215955 -57.6288 
L 666.551744 -57.6288 
L 665.887534 -57.6288 
L 665.223323 -57.6288 
L 664.559113 -57.6288 
L 663.894902 -57.6288 
L 663.230692 -57.6288 
L 662.566481 -57.6288 
L 661.902271 -57.6288 
L 661.23806 -57.6288 
L 660.57385 -57.6288 
L 659.909639 -57.6288 
L 659.245429 -57.6288 
L 658.581218 -57.6288 
L 657.917008 -57.6288 
L 657.252797 -57.6288 
L 656.588587 -57.6288 
L 655.924376 -57.6288 
L 655.260166 -57.6288 
L 654.595955 -57.6288 
L 653.931745 -57.6288 
L 653.267534 -57.6288 
L 652.603324 -57.6288 
L 651.939113 -57.6288 
L 651.274902 -57.6288 
L 650.610692 -57.6288 
L 649.946481 -57.6288 
L 649.282271 -57.6288 
L 648.61806 -57.6288 
L 647.95385 -57.6288 
L 647.289639 -57.6288 
L 646.625429 -57.6288 
L 645.961218 -57.6288 
L 645.297008 -57.6288 
L 644.632797 -57.6288 
L 643.968587 -57.6288 
L 643.304376 -57.6288 
L 642.640166 -57.6288 
L 641.975955 -57.6288 
L 641.311745 -57.6288 
L 640.647534 -57.6288 
L 639.983324 -57.6288 
L 639.319113 -57.6288 
L 638.654903 -57.6288 
L 637.990692 -57.6288 
L 637.326482 -57.6288 
L 636.662271 -57.6288 
L 635.998061 -57.6288 
L 635.33385 -57.6288 
L 634.66964 -57.6288 
L 634.005429 -57.6288 
L 633.341219 -57.6288 
L 632.677008 -57.6288 
L 632.012798 -57.6288 
L 631.348587 -57.6288 
L 630.684377 -57.6288 
L 630.020166 -57.6288 
L 629.355956 -57.6288 
L 628.691745 -57.6288 
L 628.027535 -57.6288 
L 627.363324 -57.6288 
L 626.699114 -57.6288 
L 626.034903 -57.6288 
L 625.370693 -57.6288 
L 624.706482 -57.6288 
L 624.042272 -57.6288 
L 623.378061 -57.6288 
L 622.713851 -57.6288 
L 622.04964 -57.6288 
L 621.38543 -57.6288 
L 620.721219 -57.6288 
L 620.057009 -57.6288 
L 619.392798 -57.6288 
L 618.728588 -57.6288 
L 618.064377 -57.6288 
L 617.400167 -57.6288 
L 616.735956 -57.6288 
L 616.071745 -57.6288 
L 615.407535 -57.6288 
L 614.743324 -57.6288 
L 614.079114 -57.6288 
L 613.414903 -57.6288 
L 612.750693 -57.6288 
L 612.086482 -57.6288 
L 611.422272 -57.6288 
L 610.758061 -57.6288 
L 610.093851 -57.6288 
L 609.42964 -57.6288 
L 608.76543 -57.6288 
L 608.101219 -57.6288 
L 607.437009 -57.6288 
L 606.772798 -57.6288 
L 606.108588 -57.6288 
L 605.444377 -57.6288 
L 604.780167 -57.6288 
L 604.115956 -57.6288 
L 603.451746 -57.6288 
L 602.787535 -57.6288 
L 602.123325 -57.6288 
L 601.459114 -57.6288 
L 600.794904 -57.6288 
L 600.130693 -57.6288 
L 599.466483 -57.6288 
L 598.802272 -57.6288 
L 598.138062 -57.6288 
L 597.473851 -57.6288 
z
" style="stroke: #1f77b4; stroke-opacity: 0"/>
    </defs>
    <g clip-path="url(#pf54bb35a8a)">
     <use xlink:href="#m7ebabb2d38" x="0" y="397.44" style="fill: #1f77b4; fill-opacity: 0; stroke: #1f77b4; stroke-opacity: 0"/>
    </g>
   </g>
   <g id="matplotlib.axis_3">
    <g id="xtick_5">
     <g id="line2d_7">
      <g>
       <use xlink:href="#m7c97c96c3e" x="582.250209" y="353.7216" style="fill: #808080; stroke: #808080"/>
      </g>
     </g>
     <g id="text_10">
      <!-- 0.035 -->
      <g transform="translate(562.210522 370.859412) scale(0.14 -0.14)">
       <use xlink:href="#DejaVuSans-30"/>
       <use xlink:href="#DejaVuSans-2e" x="63.623047"/>
       <use xlink:href="#DejaVuSans-30" x="95.410156"/>
       <use xlink:href="#DejaVuSans-33" x="159.033203"/>
       <use xlink:href="#DejaVuSans-35" x="222.65625"/>
      </g>
     </g>
    </g>
    <g id="xtick_6">
     <g id="line2d_8">
      <g>
       <use xlink:href="#m7c97c96c3e" x="640.232588" y="353.7216" style="fill: #808080; stroke: #808080"/>
      </g>
     </g>
     <g id="text_11">
      <!-- 0.040 -->
      <g transform="translate(620.192901 370.859412) scale(0.14 -0.14)">
       <use xlink:href="#DejaVuSans-30"/>
       <use xlink:href="#DejaVuSans-2e" x="63.623047"/>
       <use xlink:href="#DejaVuSans-30" x="95.410156"/>
       <use xlink:href="#DejaVuSans-34" x="159.033203"/>
       <use xlink:href="#DejaVuSans-30" x="222.65625"/>
      </g>
     </g>
    </g>
    <g id="xtick_7">
     <g id="line2d_9">
      <g>
       <use xlink:href="#m7c97c96c3e" x="698.214967" y="353.7216" style="fill: #808080; stroke: #808080"/>
      </g>
     </g>
     <g id="text_12">
      <!-- 0.045 -->
      <g transform="translate(678.175279 370.859412) scale(0.14 -0.14)">
       <use xlink:href="#DejaVuSans-30"/>
       <use xlink:href="#DejaVuSans-2e" x="63.623047"/>
       <use xlink:href="#DejaVuSans-30" x="95.410156"/>
       <use xlink:href="#DejaVuSans-34" x="159.033203"/>
       <use xlink:href="#DejaVuSans-35" x="222.65625"/>
      </g>
     </g>
    </g>
    <g id="xtick_8">
     <g id="line2d_10">
      <g>
       <use xlink:href="#m7c97c96c3e" x="756.197346" y="353.7216" style="fill: #808080; stroke: #808080"/>
      </g>
     </g>
     <g id="text_13">
      <!-- 0.050 -->
      <g transform="translate(736.157658 370.859412) scale(0.14 -0.14)">
       <use xlink:href="#DejaVuSans-30"/>
       <use xlink:href="#DejaVuSans-2e" x="63.623047"/>
       <use xlink:href="#DejaVuSans-30" x="95.410156"/>
       <use xlink:href="#DejaVuSans-35" x="159.033203"/>
       <use xlink:href="#DejaVuSans-30" x="222.65625"/>
      </g>
     </g>
    </g>
    <g id="xtick_9">
     <g id="line2d_11">
      <g>
       <use xlink:href="#m7c97c96c3e" x="814.179724" y="353.7216" style="fill: #808080; stroke: #808080"/>
      </g>
     </g>
     <g id="text_14">
      <!-- 0.055 -->
      <g transform="translate(794.140037 370.859412) scale(0.14 -0.14)">
       <use xlink:href="#DejaVuSans-30"/>
       <use xlink:href="#DejaVuSans-2e" x="63.623047"/>
       <use xlink:href="#DejaVuSans-30" x="95.410156"/>
       <use xlink:href="#DejaVuSans-35" x="159.033203"/>
       <use xlink:href="#DejaVuSans-35" x="222.65625"/>
      </g>
     </g>
    </g>
    <g id="xtick_10">
     <g id="line2d_12">
      <g>
       <use xlink:href="#m7c97c96c3e" x="872.162103" y="353.7216" style="fill: #808080; stroke: #808080"/>
      </g>
     </g>
     <g id="text_15">
      <!-- 0.060 -->
      <g transform="translate(852.122416 370.859412) scale(0.14 -0.14)">
       <use xlink:href="#DejaVuSans-30"/>
       <use xlink:href="#DejaVuSans-2e" x="63.623047"/>
       <use xlink:href="#DejaVuSans-30" x="95.410156"/>
       <use xlink:href="#DejaVuSans-36" x="159.033203"/>
       <use xlink:href="#DejaVuSans-30" x="222.65625"/>
      </g>
     </g>
    </g>
    <g id="xtick_11">
     <g id="line2d_13">
      <g>
       <use xlink:href="#m7c97c96c3e" x="930.144482" y="353.7216" style="fill: #808080; stroke: #808080"/>
      </g>
     </g>
     <g id="text_16">
      <!-- 0.065 -->
      <g transform="translate(910.104794 370.859412) scale(0.14 -0.14)">
       <use xlink:href="#DejaVuSans-30"/>
       <use xlink:href="#DejaVuSans-2e" x="63.623047"/>
       <use xlink:href="#DejaVuSans-30" x="95.410156"/>
       <use xlink:href="#DejaVuSans-36" x="159.033203"/>
       <use xlink:href="#DejaVuSans-35" x="222.65625"/>
      </g>
     </g>
    </g>
   </g>
   <g id="matplotlib.axis_4"/>
   <g id="line2d_14">
    <path d="M 597.473851 339.798703 
L 622.04964 339.706097 
L 633.341219 339.562165 
L 639.319113 339.24712 
L 644.632797 338.781907 
L 647.95385 338.292278 
L 651.274902 337.597964 
L 655.924376 336.356273 
L 658.581218 335.418298 
L 661.23806 334.214084 
L 666.551744 331.507479 
L 668.544376 330.178998 
L 669.872797 329.069742 
L 671.201218 327.738511 
L 673.193849 325.360145 
L 675.850691 321.787381 
L 682.492796 312.455994 
L 683.821217 310.150144 
L 685.149638 307.468145 
L 688.470691 299.891896 
L 691.127533 293.62304 
L 693.120165 288.194583 
L 695.112796 282.045144 
L 697.105428 275.100971 
L 707.068585 237.869538 
L 709.725427 225.843552 
L 718.360164 185.175279 
L 723.673848 159.05302 
L 726.994901 142.514954 
L 728.987532 133.06104 
L 737.622269 96.803259 
L 739.6149 90.293228 
L 741.607532 84.508705 
L 742.935953 81.158038 
L 744.264374 78.342106 
L 748.913847 69.956319 
L 750.906479 66.739529 
L 752.2349 64.97869 
L 753.563321 63.501565 
L 754.891742 62.3938 
L 756.220163 61.777953 
L 757.548584 61.6032 
L 758.877005 61.842619 
L 759.541216 62.16667 
L 760.869637 63.191752 
L 762.198058 64.657159 
L 763.526479 66.518307 
L 764.8549 68.887422 
L 766.847531 73.264212 
L 768.840163 78.105941 
L 770.832794 83.54705 
L 773.489636 91.594746 
L 775.482268 98.136294 
L 777.474899 105.357931 
L 780.795952 118.619505 
L 786.109636 140.42894 
L 788.766478 152.639328 
L 794.080162 177.991073 
L 804.70753 224.092686 
L 807.364372 234.619708 
L 812.678056 254.496572 
L 816.663319 268.345091 
L 818.655951 274.599085 
L 820.648582 279.944957 
L 822.641214 284.520379 
L 825.298056 290.424693 
L 829.283319 299.842267 
L 830.61174 302.325287 
L 837.253845 313.316723 
L 839.910687 317.337448 
L 841.903319 320.037412 
L 843.89595 322.321188 
L 845.888582 324.10585 
L 848.545424 326.019034 
L 851.202266 327.979112 
L 855.187529 331.107591 
L 857.18016 332.30917 
L 859.837002 333.559102 
L 863.158055 334.847306 
L 865.814897 335.682867 
L 870.464371 336.865968 
L 875.113844 337.689693 
L 879.763318 338.42264 
L 883.748581 338.780307 
L 895.70437 339.500652 
L 905.667528 339.705597 
L 936.885421 339.795569 
L 936.885421 339.795569 
" clip-path="url(#pf54bb35a8a)" style="fill: none; stroke: #1f77b4; stroke-width: 1.5; stroke-linecap: square"/>
   </g>
   <g id="line2d_15">
    <path d="M 688.412663 333.968832 
L 828.516247 333.968832 
" clip-path="url(#pf54bb35a8a)" style="fill: none; stroke: #000000; stroke-width: 3"/>
   </g>
   <g id="patch_5">
    <path d="M 580.503273 353.7216 
L 953.856 353.7216 
" style="fill: none; stroke: #808080; stroke-width: 0.8; stroke-linejoin: miter; stroke-linecap: square"/>
   </g>
   <g id="text_17">
    <!-- 0.044  -->
    <g transform="translate(640.703288 319.362912) scale(0.15 -0.15)">
     <use xlink:href="#DejaVuSans-30"/>
     <use xlink:href="#DejaVuSans-2e" x="63.623047"/>
     <use xlink:href="#DejaVuSans-30" x="95.410156"/>
     <use xlink:href="#DejaVuSans-34" x="159.033203"/>
     <use xlink:href="#DejaVuSans-34" x="222.65625"/>
     <use xlink:href="#DejaVuSans-20" x="286.279297"/>
    </g>
   </g>
   <g id="text_18">
    <!--  0.056 -->
    <g transform="translate(828.516247 319.362912) scale(0.15 -0.15)">
     <use xlink:href="#DejaVuSans-20"/>
     <use xlink:href="#DejaVuSans-30" x="31.787109"/>
     <use xlink:href="#DejaVuSans-2e" x="95.410156"/>
     <use xlink:href="#DejaVuSans-30" x="127.197266"/>
     <use xlink:href="#DejaVuSans-35" x="190.820312"/>
     <use xlink:href="#DejaVuSans-36" x="254.443359"/>
    </g>
   </g>
   <g id="text_19">
    <!-- 95% HDI -->
    <g transform="translate(725.783205 252.17568) scale(0.15 -0.15)">
     <use xlink:href="#DejaVuSans-39"/>
     <use xlink:href="#DejaVuSans-35" x="63.623047"/>
     <use xlink:href="#DejaVuSans-25" x="127.246094"/>
     <use xlink:href="#DejaVuSans-20" x="222.265625"/>
     <use xlink:href="#DejaVuSans-48" x="254.052734"/>
     <use xlink:href="#DejaVuSans-44" x="329.248047"/>
     <use xlink:href="#DejaVuSans-49" x="406.25"/>
    </g>
   </g>
   <g id="text_20">
    <!-- mean=0.05 -->
    <g transform="translate(714.039969 106.11648) scale(0.15 -0.15)">
     <use xlink:href="#DejaVuSans-6d"/>
     <use xlink:href="#DejaVuSans-65" x="97.412109"/>
     <use xlink:href="#DejaVuSans-61" x="158.935547"/>
     <use xlink:href="#DejaVuSans-6e" x="220.214844"/>
     <use xlink:href="#DejaVuSans-3d" x="283.59375"/>
     <use xlink:href="#DejaVuSans-30" x="367.382812"/>
     <use xlink:href="#DejaVuSans-2e" x="431.005859"/>
     <use xlink:href="#DejaVuSans-30" x="462.792969"/>
     <use xlink:href="#DejaVuSans-35" x="526.416016"/>
    </g>
   </g>
   <g id="text_21">
    <!-- biased_θ -->
    <g transform="translate(731.912136 41.6928) scale(0.16 -0.16)">
     <defs>
      <path id="DejaVuSans-62" d="M 3116 1747 
Q 3116 2381 2855 2742 
Q 2594 3103 2138 3103 
Q 1681 3103 1420 2742 
Q 1159 2381 1159 1747 
Q 1159 1113 1420 752 
Q 1681 391 2138 391 
Q 2594 391 2855 752 
Q 3116 1113 3116 1747 
z
M 1159 2969 
Q 1341 3281 1617 3432 
Q 1894 3584 2278 3584 
Q 2916 3584 3314 3078 
Q 3713 2572 3713 1747 
Q 3713 922 3314 415 
Q 2916 -91 2278 -91 
Q 1894 -91 1617 61 
Q 1341 213 1159 525 
L 1159 0 
L 581 0 
L 581 4863 
L 1159 4863 
L 1159 2969 
z
" transform="scale(0.015625)"/>
      <path id="DejaVuSans-69" d="M 603 3500 
L 1178 3500 
L 1178 0 
L 603 0 
L 603 3500 
z
M 603 4863 
L 1178 4863 
L 1178 4134 
L 603 4134 
L 603 4863 
z
" transform="scale(0.015625)"/>
      <path id="DejaVuSans-73" d="M 2834 3397 
L 2834 2853 
Q 2591 2978 2328 3040 
Q 2066 3103 1784 3103 
Q 1356 3103 1142 2972 
Q 928 2841 928 2578 
Q 928 2378 1081 2264 
Q 1234 2150 1697 2047 
L 1894 2003 
Q 2506 1872 2764 1633 
Q 3022 1394 3022 966 
Q 3022 478 2636 193 
Q 2250 -91 1575 -91 
Q 1294 -91 989 -36 
Q 684 19 347 128 
L 347 722 
Q 666 556 975 473 
Q 1284 391 1588 391 
Q 1994 391 2212 530 
Q 2431 669 2431 922 
Q 2431 1156 2273 1281 
Q 2116 1406 1581 1522 
L 1381 1569 
Q 847 1681 609 1914 
Q 372 2147 372 2553 
Q 372 3047 722 3315 
Q 1072 3584 1716 3584 
Q 2034 3584 2315 3537 
Q 2597 3491 2834 3397 
z
" transform="scale(0.015625)"/>
      <path id="DejaVuSans-64" d="M 2906 2969 
L 2906 4863 
L 3481 4863 
L 3481 0 
L 2906 0 
L 2906 525 
Q 2725 213 2448 61 
Q 2172 -91 1784 -91 
Q 1150 -91 751 415 
Q 353 922 353 1747 
Q 353 2572 751 3078 
Q 1150 3584 1784 3584 
Q 2172 3584 2448 3432 
Q 2725 3281 2906 2969 
z
M 947 1747 
Q 947 1113 1208 752 
Q 1469 391 1925 391 
Q 2381 391 2643 752 
Q 2906 1113 2906 1747 
Q 2906 2381 2643 2742 
Q 2381 3103 1925 3103 
Q 1469 3103 1208 2742 
Q 947 2381 947 1747 
z
" transform="scale(0.015625)"/>
      <path id="DejaVuSans-5f" d="M 3263 -1063 
L 3263 -1509 
L -63 -1509 
L -63 -1063 
L 3263 -1063 
z
" transform="scale(0.015625)"/>
     </defs>
     <use xlink:href="#DejaVuSans-62"/>
     <use xlink:href="#DejaVuSans-69" x="63.476562"/>
     <use xlink:href="#DejaVuSans-61" x="91.259766"/>
     <use xlink:href="#DejaVuSans-73" x="152.539062"/>
     <use xlink:href="#DejaVuSans-65" x="204.638672"/>
     <use xlink:href="#DejaVuSans-64" x="266.162109"/>
     <use xlink:href="#DejaVuSans-5f" x="329.638672"/>
     <use xlink:href="#DejaVuSans-3b8" x="379.638672"/>
    </g>
   </g>
  </g>
 </g>
 <defs>
  <clipPath id="pd710cf9019">
   <rect x="132.48" y="47.6928" width="373.352727" height="306.0288"/>
  </clipPath>
  <clipPath id="pf54bb35a8a">
   <rect x="580.503273" y="47.6928" width="373.352727" height="306.0288"/>
  </clipPath>
 </defs>
</svg>
