<?xml version="1.0" encoding="utf-8" standalone="no"?>
<!DOCTYPE svg PUBLIC "-//W3C//DTD SVG 1.1//EN"
  "http://www.w3.org/Graphics/SVG/1.1/DTD/svg11.dtd">
<svg xmlns:xlink="http://www.w3.org/1999/xlink" width="1059.84pt" height="397.44pt" viewBox="0 0 1059.84 397.44" xmlns="http://www.w3.org/2000/svg" version="1.1">
 <metadata>
  <rdf:RDF xmlns:dc="http://purl.org/dc/elements/1.1/" xmlns:cc="http://creativecommons.org/ns#" xmlns:rdf="http://www.w3.org/1999/02/22-rdf-syntax-ns#">
   <cc:Work>
    <dc:type rdf:resource="http://purl.org/dc/dcmitype/StillImage"/>
    <dc:format>image/svg+xml</dc:format>
   </cc:Work>
  </rdf:RDF>
 </metadata>
 <defs>
  <style type="text/css">*{stroke-linejoin: round; stroke-linecap: butt}</style>
 </defs>
 <g id="figure_1">
  <g id="patch_1">
   <path d="M 0 397.44 
L 1059.84 397.44 
L 1059.84 0 
L 0 0 
z
" style="fill: #ffffff"/>
  </g>
  <g id="axes_1">
   <g id="patch_2">
    <path d="M 132.48 353.7216 
L 505.832727 353.7216 
L 505.832727 47.6928 
L 132.48 47.6928 
z
" style="fill: #ffffff"/>
   </g>
   <g id="PolyCollection_1">
    <defs>
     <path id="maba3170975" d="M 149.450579 -57.6288 
L 149.450579 -57.644276 
L 150.114789 -57.644698 
L 150.779 -57.645782 
L 151.44321 -57.647932 
L 152.107421 -57.651346 
L 152.771631 -57.656352 
L 153.435842 -57.662915 
L 154.100052 -57.671693 
L 154.764263 -57.682584 
L 155.428473 -57.695408 
L 156.092684 -57.709697 
L 156.756894 -57.725875 
L 157.421105 -57.743097 
L 158.085315 -57.762219 
L 158.749526 -57.78391 
L 159.413736 -57.810603 
L 160.077947 -57.84419 
L 160.742157 -57.886645 
L 161.406368 -57.937587 
L 162.070578 -57.996182 
L 162.734789 -58.060835 
L 163.398999 -58.130293 
L 164.06321 -58.205034 
L 164.72742 -58.286907 
L 165.391631 -58.37879 
L 166.055841 -58.483633 
L 166.720052 -58.604276 
L 167.384262 -58.746394 
L 168.048473 -58.912139 
L 168.712683 -59.104441 
L 169.376894 -59.32623 
L 170.041104 -59.577717 
L 170.705315 -59.856295 
L 171.369525 -60.158368 
L 172.033736 -60.480927 
L 172.697946 -60.818316 
L 173.362157 -61.172493 
L 174.026367 -61.547168 
L 174.690578 -61.948919 
L 175.354788 -62.389772 
L 176.018999 -62.871701 
L 176.683209 -63.39608 
L 177.34742 -63.957661 
L 178.01163 -64.552471 
L 178.675841 -65.175021 
L 179.340051 -65.826552 
L 180.004262 -66.516142 
L 180.668472 -67.258624 
L 181.332683 -68.0658 
L 181.996893 -68.948133 
L 182.661104 -69.910442 
L 183.325314 -70.953648 
L 183.989525 -72.077644 
L 184.653736 -73.278357 
L 185.317946 -74.557223 
L 185.982157 -75.910537 
L 186.646367 -77.335702 
L 187.310578 -78.819795 
L 187.974788 -80.350875 
L 188.638999 -81.930131 
L 189.303209 -83.554696 
L 189.96742 -85.230932 
L 190.63163 -86.979092 
L 191.295841 -88.8149 
L 191.960051 -90.761497 
L 192.624262 -92.823171 
L 193.288472 -95.007694 
L 193.952683 -97.324274 
L 194.616893 -99.771232 
L 195.281104 -102.344323 
L 195.945314 -105.024503 
L 196.609525 -107.787626 
L 197.273735 -110.609103 
L 197.937946 -113.460688 
L 198.602156 -116.332188 
L 199.266367 -119.213107 
L 199.930577 -122.107575 
L 200.594788 -125.030114 
L 201.258998 -127.992763 
L 201.923209 -131.021383 
L 202.587419 -134.137551 
L 203.25163 -137.373195 
L 203.91584 -140.749948 
L 204.580051 -144.300538 
L 205.244261 -148.049038 
L 205.908472 -151.985546 
L 206.572682 -156.088231 
L 207.236893 -160.312836 
L 207.901103 -164.558351 
L 208.565314 -168.752846 
L 209.229524 -172.79589 
L 209.893735 -176.648042 
L 210.557945 -180.298796 
L 211.222156 -183.786576 
L 211.886366 -187.171048 
L 212.550577 -190.517868 
L 213.214787 -193.883685 
L 213.878998 -197.34522 
L 214.543208 -200.948931 
L 215.207419 -204.733733 
L 215.871629 -208.713903 
L 216.53584 -212.884383 
L 217.20005 -217.181186 
L 217.864261 -221.557541 
L 218.528471 -225.939576 
L 219.192682 -230.265809 
L 219.856892 -234.48256 
L 220.521103 -238.571762 
L 221.185314 -242.505089 
L 221.849524 -246.317885 
L 222.513735 -250.008377 
L 223.177945 -253.621935 
L 223.842156 -257.212435 
L 224.506366 -260.801038 
L 225.170577 -264.392047 
L 225.834787 -267.949558 
L 226.498998 -271.420728 
L 227.163208 -274.776643 
L 227.827419 -277.98734 
L 228.491629 -281.049045 
L 229.15584 -283.998989 
L 229.82005 -286.87554 
L 230.484261 -289.704359 
L 231.148471 -292.516718 
L 231.812682 -295.335393 
L 232.476892 -298.162835 
L 233.141103 -301.019517 
L 233.805313 -303.889231 
L 234.469524 -306.750727 
L 235.133734 -309.586329 
L 235.797945 -312.311877 
L 236.462155 -314.863479 
L 237.126366 -317.179255 
L 237.790576 -319.230465 
L 238.454787 -321.039476 
L 239.118997 -322.626519 
L 239.783208 -324.068385 
L 240.447418 -325.429833 
L 241.111629 -326.749094 
L 241.775839 -328.03821 
L 242.44005 -329.310017 
L 243.10426 -330.536705 
L 243.768471 -331.697113 
L 244.432681 -332.759495 
L 245.096892 -333.698955 
L 245.761102 -334.44403 
L 246.425313 -334.999661 
L 247.089523 -335.365908 
L 247.753734 -335.558606 
L 248.417944 -335.679609 
L 249.082155 -335.738981 
L 249.746365 -335.806393 
L 250.410576 -335.8368 
L 251.074786 -335.804123 
L 251.738997 -335.651916 
L 252.403207 -335.347346 
L 253.067418 -334.857909 
L 253.731628 -334.178961 
L 254.395839 -333.297894 
L 255.060049 -332.211405 
L 255.72426 -330.934012 
L 256.388471 -329.468732 
L 257.052681 -327.843032 
L 257.716892 -326.100839 
L 258.381102 -324.330928 
L 259.045313 -322.576473 
L 259.709523 -320.902876 
L 260.373734 -319.360595 
L 261.037944 -317.91094 
L 261.702155 -316.559455 
L 262.366365 -315.210757 
L 263.030576 -313.817521 
L 263.694786 -312.288863 
L 264.358997 -310.578255 
L 265.023207 -308.630962 
L 265.687418 -306.448832 
L 266.351628 -304.043767 
L 267.015839 -301.441285 
L 267.680049 -298.699208 
L 268.34426 -295.875257 
L 269.00847 -293.034776 
L 269.672681 -290.21422 
L 270.336891 -287.45589 
L 271.001102 -284.736024 
L 271.665312 -282.050087 
L 272.329523 -279.420639 
L 272.993733 -276.807303 
L 273.657944 -274.223943 
L 274.322154 -271.636044 
L 274.986365 -269.018194 
L 275.650575 -266.346587 
L 276.314786 -263.588225 
L 276.978996 -260.753027 
L 277.643207 -257.852542 
L 278.307417 -254.935031 
L 278.971628 -252.031638 
L 279.635838 -249.16224 
L 280.300049 -246.313778 
L 280.964259 -243.45454 
L 281.62847 -240.543541 
L 282.29268 -237.561666 
L 282.956891 -234.507504 
L 283.621101 -231.420299 
L 284.285312 -228.346723 
L 284.949522 -225.296157 
L 285.613733 -222.337559 
L 286.277943 -219.465755 
L 286.942154 -216.683996 
L 287.606364 -213.973969 
L 288.270575 -211.319458 
L 288.934785 -208.73128 
L 289.598996 -206.186823 
L 290.263206 -203.684288 
L 290.927417 -201.187419 
L 291.591628 -198.675229 
L 292.255838 -196.130422 
L 292.920049 -193.546536 
L 293.584259 -190.942225 
L 294.24847 -188.325618 
L 294.91268 -185.706744 
L 295.576891 -183.083788 
L 296.241101 -180.453147 
L 296.905312 -177.800016 
L 297.569522 -175.13582 
L 298.233733 -172.452306 
L 298.897943 -169.767473 
L 299.562154 -167.112307 
L 300.226364 -164.503202 
L 300.890575 -161.96888 
L 301.554785 -159.523332 
L 302.218996 -157.194289 
L 302.883206 -154.972459 
L 303.547417 -152.861208 
L 304.211627 -150.819637 
L 304.875838 -148.812773 
L 305.540048 -146.807864 
L 306.204259 -144.775671 
L 306.868469 -142.71051 
L 307.53268 -140.608188 
L 308.19689 -138.490666 
L 308.861101 -136.384765 
L 309.525311 -134.323041 
L 310.189522 -132.338533 
L 310.853732 -130.452049 
L 311.517943 -128.659323 
L 312.182153 -126.952312 
L 312.846364 -125.326652 
L 313.510574 -123.748819 
L 314.174785 -122.202454 
L 314.838995 -120.6567 
L 315.503206 -119.102553 
L 316.167416 -117.523684 
L 316.831627 -115.924498 
L 317.495837 -114.333806 
L 318.160048 -112.766216 
L 318.824258 -111.251906 
L 319.488469 -109.799977 
L 320.152679 -108.402495 
L 320.81689 -107.045143 
L 321.4811 -105.704843 
L 322.145311 -104.357705 
L 322.809521 -102.994238 
L 323.473732 -101.623315 
L 324.137942 -100.249623 
L 324.802153 -98.87846 
L 325.466363 -97.510997 
L 326.130574 -96.168057 
L 326.794784 -94.856828 
L 327.458995 -93.594176 
L 328.123206 -92.393252 
L 328.787416 -91.253632 
L 329.451627 -90.165155 
L 330.115837 -89.100615 
L 330.780048 -88.043221 
L 331.444258 -86.988745 
L 332.108469 -85.951659 
L 332.772679 -84.972001 
L 333.43689 -84.075623 
L 334.1011 -83.28971 
L 334.765311 -82.61365 
L 335.429521 -82.011967 
L 336.093732 -81.446031 
L 336.757942 -80.884022 
L 337.422153 -80.297129 
L 338.086363 -79.682995 
L 338.750574 -79.040818 
L 339.414784 -78.390069 
L 340.078995 -77.73592 
L 340.743205 -77.080222 
L 341.407416 -76.419968 
L 342.071626 -75.749618 
L 342.735837 -75.069657 
L 343.400047 -74.398065 
L 344.064258 -73.756201 
L 344.728468 -73.167237 
L 345.392679 -72.64171 
L 346.056889 -72.175544 
L 346.7211 -71.748554 
L 347.38531 -71.332812 
L 348.049521 -70.914516 
L 348.713731 -70.490541 
L 349.377942 -70.060683 
L 350.042152 -69.64062 
L 350.706363 -69.234269 
L 351.370573 -68.839076 
L 352.034784 -68.450966 
L 352.698994 -68.062025 
L 353.363205 -67.67958 
L 354.027415 -67.302041 
L 354.691626 -66.939647 
L 355.355836 -66.594676 
L 356.020047 -66.268361 
L 356.684257 -65.955645 
L 357.348468 -65.656318 
L 358.012678 -65.373137 
L 358.676889 -65.105657 
L 359.341099 -64.857184 
L 360.00531 -64.62855 
L 360.66952 -64.414192 
L 361.333731 -64.208955 
L 361.997941 -64.006889 
L 362.662152 -63.796139 
L 363.326363 -63.574968 
L 363.990573 -63.341075 
L 364.654784 -63.097889 
L 365.318994 -62.852432 
L 365.983205 -62.60888 
L 366.647415 -62.380074 
L 367.311626 -62.167652 
L 367.975836 -61.974714 
L 368.640047 -61.798633 
L 369.304257 -61.634496 
L 369.968468 -61.474613 
L 370.632678 -61.315246 
L 371.296889 -61.153875 
L 371.961099 -60.994244 
L 372.62531 -60.841075 
L 373.28952 -60.702472 
L 373.953731 -60.582007 
L 374.617941 -60.481664 
L 375.282152 -60.399116 
L 375.946362 -60.327347 
L 376.610573 -60.26073 
L 377.274783 -60.191451 
L 377.938994 -60.114097 
L 378.603204 -60.027248 
L 379.267415 -59.929148 
L 379.931625 -59.824714 
L 380.595836 -59.718832 
L 381.260046 -59.61662 
L 381.924257 -59.522835 
L 382.588467 -59.439535 
L 383.252678 -59.367137 
L 383.916888 -59.30594 
L 384.581099 -59.254771 
L 385.245309 -59.212463 
L 385.90952 -59.176183 
L 386.57373 -59.14327 
L 387.237941 -59.108054 
L 387.902151 -59.068318 
L 388.566362 -59.022116 
L 389.230572 -58.969492 
L 389.894783 -58.910445 
L 390.558993 -58.846918 
L 391.223204 -58.780685 
L 391.887414 -58.714209 
L 392.551625 -58.652292 
L 393.215835 -58.598595 
L 393.880046 -58.555845 
L 394.544256 -58.522963 
L 395.208467 -58.496917 
L 395.872677 -58.47205 
L 396.536888 -58.44608 
L 397.201098 -58.417553 
L 397.865309 -58.388889 
L 398.529519 -58.361179 
L 399.19373 -58.33562 
L 399.857941 -58.31166 
L 400.522151 -58.287792 
L 401.186362 -58.263393 
L 401.850572 -58.238613 
L 402.514783 -58.216577 
L 403.178993 -58.196525 
L 403.843204 -58.17909 
L 404.507414 -58.163492 
L 405.171625 -58.146686 
L 405.835835 -58.126929 
L 406.500046 -58.102876 
L 407.164256 -58.075646 
L 407.828467 -58.04634 
L 408.492677 -58.018493 
L 409.156888 -57.992761 
L 409.821098 -57.970013 
L 410.485309 -57.950385 
L 411.149519 -57.932421 
L 411.81373 -57.914659 
L 412.47794 -57.89683 
L 413.142151 -57.87816 
L 413.806361 -57.859671 
L 414.470572 -57.842197 
L 415.134782 -57.826815 
L 415.798993 -57.814945 
L 416.463203 -57.80639 
L 417.127414 -57.800739 
L 417.791624 -57.797807 
L 418.455835 -57.796038 
L 419.120045 -57.79438 
L 419.784256 -57.792153 
L 420.448466 -57.788401 
L 421.112677 -57.782906 
L 421.776887 -57.775667 
L 422.441098 -57.766757 
L 423.105308 -57.757075 
L 423.769519 -57.74798 
L 424.433729 -57.73984 
L 425.09794 -57.733165 
L 425.76215 -57.728117 
L 426.426361 -57.724217 
L 427.090571 -57.720993 
L 427.754782 -57.717882 
L 428.418992 -57.714553 
L 429.083203 -57.710262 
L 429.747413 -57.704484 
L 430.411624 -57.696984 
L 431.075834 -57.688444 
L 431.740045 -57.679824 
L 432.404255 -57.672439 
L 433.068466 -57.667541 
L 433.732676 -57.665732 
L 434.396887 -57.666385 
L 435.061098 -57.668437 
L 435.725308 -57.670327 
L 436.389519 -57.670958 
L 437.053729 -57.670091 
L 437.71794 -57.667678 
L 438.38215 -57.664175 
L 439.046361 -57.660438 
L 439.710571 -57.65671 
L 440.374782 -57.653385 
L 441.038992 -57.650803 
L 441.703203 -57.649257 
L 442.367413 -57.64895 
L 443.031624 -57.64975 
L 443.695834 -57.651105 
L 444.360045 -57.652321 
L 445.024255 -57.652422 
L 445.688466 -57.651433 
L 446.352676 -57.649725 
L 447.016887 -57.648247 
L 447.681097 -57.647773 
L 448.345308 -57.648678 
L 449.009518 -57.650627 
L 449.673729 -57.652947 
L 450.337939 -57.654777 
L 451.00215 -57.65541 
L 451.66636 -57.654561 
L 452.330571 -57.652682 
L 452.994781 -57.649857 
L 453.658992 -57.646662 
L 454.323202 -57.643668 
L 454.987413 -57.641144 
L 455.651623 -57.639466 
L 456.315834 -57.638607 
L 456.980044 -57.638596 
L 457.644255 -57.639371 
L 458.308465 -57.640437 
L 458.972676 -57.641518 
L 459.636886 -57.642294 
L 460.301097 -57.642428 
L 460.965307 -57.641754 
L 461.629518 -57.640402 
L 462.293728 -57.638478 
L 462.957939 -57.636285 
L 463.622149 -57.634246 
L 464.28636 -57.632545 
L 464.95057 -57.631366 
L 465.614781 -57.63088 
L 466.278991 -57.63098 
L 466.943202 -57.631521 
L 467.607412 -57.63242 
L 468.271623 -57.63331 
L 468.935833 -57.634032 
L 469.600044 -57.634298 
L 470.264255 -57.634032 
L 470.928465 -57.63331 
L 471.592676 -57.632321 
L 472.256886 -57.631289 
L 472.921097 -57.630394 
L 473.585307 -57.629725 
L 474.249518 -57.629286 
L 474.913728 -57.629031 
L 475.577939 -57.6289 
L 476.242149 -57.6288 
L 476.90636 -57.6289 
L 477.57057 -57.629031 
L 478.234781 -57.629286 
L 478.898991 -57.629725 
L 479.563202 -57.630394 
L 480.227412 -57.631289 
L 480.891623 -57.632321 
L 481.555833 -57.63331 
L 482.220044 -57.634032 
L 482.884254 -57.634398 
L 483.548465 -57.634363 
L 484.212675 -57.634027 
L 484.876886 -57.633731 
L 485.541096 -57.633808 
L 486.205307 -57.634478 
L 486.869517 -57.635735 
L 487.533728 -57.637317 
L 488.197938 -57.638773 
L 488.862149 -57.63963 
L 488.862149 -57.6288 
L 488.862149 -57.6288 
L 488.197938 -57.6288 
L 487.533728 -57.6288 
L 486.869517 -57.6288 
L 486.205307 -57.6288 
L 485.541096 -57.6288 
L 484.876886 -57.6288 
L 484.212675 -57.6288 
L 483.548465 -57.6288 
L 482.884254 -57.6288 
L 482.220044 -57.6288 
L 481.555833 -57.6288 
L 480.891623 -57.6288 
L 480.227412 -57.6288 
L 479.563202 -57.6288 
L 478.898991 -57.6288 
L 478.234781 -57.6288 
L 477.57057 -57.6288 
L 476.90636 -57.6288 
L 476.242149 -57.6288 
L 475.577939 -57.6288 
L 474.913728 -57.6288 
L 474.249518 -57.6288 
L 473.585307 -57.6288 
L 472.921097 -57.6288 
L 472.256886 -57.6288 
L 471.592676 -57.6288 
L 470.928465 -57.6288 
L 470.264255 -57.6288 
L 469.600044 -57.6288 
L 468.935833 -57.6288 
L 468.271623 -57.6288 
L 467.607412 -57.6288 
L 466.943202 -57.6288 
L 466.278991 -57.6288 
L 465.614781 -57.6288 
L 464.95057 -57.6288 
L 464.28636 -57.6288 
L 463.622149 -57.6288 
L 462.957939 -57.6288 
L 462.293728 -57.6288 
L 461.629518 -57.6288 
L 460.965307 -57.6288 
L 460.301097 -57.6288 
L 459.636886 -57.6288 
L 458.972676 -57.6288 
L 458.308465 -57.6288 
L 457.644255 -57.6288 
L 456.980044 -57.6288 
L 456.315834 -57.6288 
L 455.651623 -57.6288 
L 454.987413 -57.6288 
L 454.323202 -57.6288 
L 453.658992 -57.6288 
L 452.994781 -57.6288 
L 452.330571 -57.6288 
L 451.66636 -57.6288 
L 451.00215 -57.6288 
L 450.337939 -57.6288 
L 449.673729 -57.6288 
L 449.009518 -57.6288 
L 448.345308 -57.6288 
L 447.681097 -57.6288 
L 447.016887 -57.6288 
L 446.352676 -57.6288 
L 445.688466 -57.6288 
L 445.024255 -57.6288 
L 444.360045 -57.6288 
L 443.695834 -57.6288 
L 443.031624 -57.6288 
L 442.367413 -57.6288 
L 441.703203 -57.6288 
L 441.038992 -57.6288 
L 440.374782 -57.6288 
L 439.710571 -57.6288 
L 439.046361 -57.6288 
L 438.38215 -57.6288 
L 437.71794 -57.6288 
L 437.053729 -57.6288 
L 436.389519 -57.6288 
L 435.725308 -57.6288 
L 435.061098 -57.6288 
L 434.396887 -57.6288 
L 433.732676 -57.6288 
L 433.068466 -57.6288 
L 432.404255 -57.6288 
L 431.740045 -57.6288 
L 431.075834 -57.6288 
L 430.411624 -57.6288 
L 429.747413 -57.6288 
L 429.083203 -57.6288 
L 428.418992 -57.6288 
L 427.754782 -57.6288 
L 427.090571 -57.6288 
L 426.426361 -57.6288 
L 425.76215 -57.6288 
L 425.09794 -57.6288 
L 424.433729 -57.6288 
L 423.769519 -57.6288 
L 423.105308 -57.6288 
L 422.441098 -57.6288 
L 421.776887 -57.6288 
L 421.112677 -57.6288 
L 420.448466 -57.6288 
L 419.784256 -57.6288 
L 419.120045 -57.6288 
L 418.455835 -57.6288 
L 417.791624 -57.6288 
L 417.127414 -57.6288 
L 416.463203 -57.6288 
L 415.798993 -57.6288 
L 415.134782 -57.6288 
L 414.470572 -57.6288 
L 413.806361 -57.6288 
L 413.142151 -57.6288 
L 412.47794 -57.6288 
L 411.81373 -57.6288 
L 411.149519 -57.6288 
L 410.485309 -57.6288 
L 409.821098 -57.6288 
L 409.156888 -57.6288 
L 408.492677 -57.6288 
L 407.828467 -57.6288 
L 407.164256 -57.6288 
L 406.500046 -57.6288 
L 405.835835 -57.6288 
L 405.171625 -57.6288 
L 404.507414 -57.6288 
L 403.843204 -57.6288 
L 403.178993 -57.6288 
L 402.514783 -57.6288 
L 401.850572 -57.6288 
L 401.186362 -57.6288 
L 400.522151 -57.6288 
L 399.857941 -57.6288 
L 399.19373 -57.6288 
L 398.529519 -57.6288 
L 397.865309 -57.6288 
L 397.201098 -57.6288 
L 396.536888 -57.6288 
L 395.872677 -57.6288 
L 395.208467 -57.6288 
L 394.544256 -57.6288 
L 393.880046 -57.6288 
L 393.215835 -57.6288 
L 392.551625 -57.6288 
L 391.887414 -57.6288 
L 391.223204 -57.6288 
L 390.558993 -57.6288 
L 389.894783 -57.6288 
L 389.230572 -57.6288 
L 388.566362 -57.6288 
L 387.902151 -57.6288 
L 387.237941 -57.6288 
L 386.57373 -57.6288 
L 385.90952 -57.6288 
L 385.245309 -57.6288 
L 384.581099 -57.6288 
L 383.916888 -57.6288 
L 383.252678 -57.6288 
L 382.588467 -57.6288 
L 381.924257 -57.6288 
L 381.260046 -57.6288 
L 380.595836 -57.6288 
L 379.931625 -57.6288 
L 379.267415 -57.6288 
L 378.603204 -57.6288 
L 377.938994 -57.6288 
L 377.274783 -57.6288 
L 376.610573 -57.6288 
L 375.946362 -57.6288 
L 375.282152 -57.6288 
L 374.617941 -57.6288 
L 373.953731 -57.6288 
L 373.28952 -57.6288 
L 372.62531 -57.6288 
L 371.961099 -57.6288 
L 371.296889 -57.6288 
L 370.632678 -57.6288 
L 369.968468 -57.6288 
L 369.304257 -57.6288 
L 368.640047 -57.6288 
L 367.975836 -57.6288 
L 367.311626 -57.6288 
L 366.647415 -57.6288 
L 365.983205 -57.6288 
L 365.318994 -57.6288 
L 364.654784 -57.6288 
L 363.990573 -57.6288 
L 363.326363 -57.6288 
L 362.662152 -57.6288 
L 361.997941 -57.6288 
L 361.333731 -57.6288 
L 360.66952 -57.6288 
L 360.00531 -57.6288 
L 359.341099 -57.6288 
L 358.676889 -57.6288 
L 358.012678 -57.6288 
L 357.348468 -57.6288 
L 356.684257 -57.6288 
L 356.020047 -57.6288 
L 355.355836 -57.6288 
L 354.691626 -57.6288 
L 354.027415 -57.6288 
L 353.363205 -57.6288 
L 352.698994 -57.6288 
L 352.034784 -57.6288 
L 351.370573 -57.6288 
L 350.706363 -57.6288 
L 350.042152 -57.6288 
L 349.377942 -57.6288 
L 348.713731 -57.6288 
L 348.049521 -57.6288 
L 347.38531 -57.6288 
L 346.7211 -57.6288 
L 346.056889 -57.6288 
L 345.392679 -57.6288 
L 344.728468 -57.6288 
L 344.064258 -57.6288 
L 343.400047 -57.6288 
L 342.735837 -57.6288 
L 342.071626 -57.6288 
L 341.407416 -57.6288 
L 340.743205 -57.6288 
L 340.078995 -57.6288 
L 339.414784 -57.6288 
L 338.750574 -57.6288 
L 338.086363 -57.6288 
L 337.422153 -57.6288 
L 336.757942 -57.6288 
L 336.093732 -57.6288 
L 335.429521 -57.6288 
L 334.765311 -57.6288 
L 334.1011 -57.6288 
L 333.43689 -57.6288 
L 332.772679 -57.6288 
L 332.108469 -57.6288 
L 331.444258 -57.6288 
L 330.780048 -57.6288 
L 330.115837 -57.6288 
L 329.451627 -57.6288 
L 328.787416 -57.6288 
L 328.123206 -57.6288 
L 327.458995 -57.6288 
L 326.794784 -57.6288 
L 326.130574 -57.6288 
L 325.466363 -57.6288 
L 324.802153 -57.6288 
L 324.137942 -57.6288 
L 323.473732 -57.6288 
L 322.809521 -57.6288 
L 322.145311 -57.6288 
L 321.4811 -57.6288 
L 320.81689 -57.6288 
L 320.152679 -57.6288 
L 319.488469 -57.6288 
L 318.824258 -57.6288 
L 318.160048 -57.6288 
L 317.495837 -57.6288 
L 316.831627 -57.6288 
L 316.167416 -57.6288 
L 315.503206 -57.6288 
L 314.838995 -57.6288 
L 314.174785 -57.6288 
L 313.510574 -57.6288 
L 312.846364 -57.6288 
L 312.182153 -57.6288 
L 311.517943 -57.6288 
L 310.853732 -57.6288 
L 310.189522 -57.6288 
L 309.525311 -57.6288 
L 308.861101 -57.6288 
L 308.19689 -57.6288 
L 307.53268 -57.6288 
L 306.868469 -57.6288 
L 306.204259 -57.6288 
L 305.540048 -57.6288 
L 304.875838 -57.6288 
L 304.211627 -57.6288 
L 303.547417 -57.6288 
L 302.883206 -57.6288 
L 302.218996 -57.6288 
L 301.554785 -57.6288 
L 300.890575 -57.6288 
L 300.226364 -57.6288 
L 299.562154 -57.6288 
L 298.897943 -57.6288 
L 298.233733 -57.6288 
L 297.569522 -57.6288 
L 296.905312 -57.6288 
L 296.241101 -57.6288 
L 295.576891 -57.6288 
L 294.91268 -57.6288 
L 294.24847 -57.6288 
L 293.584259 -57.6288 
L 292.920049 -57.6288 
L 292.255838 -57.6288 
L 291.591628 -57.6288 
L 290.927417 -57.6288 
L 290.263206 -57.6288 
L 289.598996 -57.6288 
L 288.934785 -57.6288 
L 288.270575 -57.6288 
L 287.606364 -57.6288 
L 286.942154 -57.6288 
L 286.277943 -57.6288 
L 285.613733 -57.6288 
L 284.949522 -57.6288 
L 284.285312 -57.6288 
L 283.621101 -57.6288 
L 282.956891 -57.6288 
L 282.29268 -57.6288 
L 281.62847 -57.6288 
L 280.964259 -57.6288 
L 280.300049 -57.6288 
L 279.635838 -57.6288 
L 278.971628 -57.6288 
L 278.307417 -57.6288 
L 277.643207 -57.6288 
L 276.978996 -57.6288 
L 276.314786 -57.6288 
L 275.650575 -57.6288 
L 274.986365 -57.6288 
L 274.322154 -57.6288 
L 273.657944 -57.6288 
L 272.993733 -57.6288 
L 272.329523 -57.6288 
L 271.665312 -57.6288 
L 271.001102 -57.6288 
L 270.336891 -57.6288 
L 269.672681 -57.6288 
L 269.00847 -57.6288 
L 268.34426 -57.6288 
L 267.680049 -57.6288 
L 267.015839 -57.6288 
L 266.351628 -57.6288 
L 265.687418 -57.6288 
L 265.023207 -57.6288 
L 264.358997 -57.6288 
L 263.694786 -57.6288 
L 263.030576 -57.6288 
L 262.366365 -57.6288 
L 261.702155 -57.6288 
L 261.037944 -57.6288 
L 260.373734 -57.6288 
L 259.709523 -57.6288 
L 259.045313 -57.6288 
L 258.381102 -57.6288 
L 257.716892 -57.6288 
L 257.052681 -57.6288 
L 256.388471 -57.6288 
L 255.72426 -57.6288 
L 255.060049 -57.6288 
L 254.395839 -57.6288 
L 253.731628 -57.6288 
L 253.067418 -57.6288 
L 252.403207 -57.6288 
L 251.738997 -57.6288 
L 251.074786 -57.6288 
L 250.410576 -57.6288 
L 249.746365 -57.6288 
L 249.082155 -57.6288 
L 248.417944 -57.6288 
L 247.753734 -57.6288 
L 247.089523 -57.6288 
L 246.425313 -57.6288 
L 245.761102 -57.6288 
L 245.096892 -57.6288 
L 244.432681 -57.6288 
L 243.768471 -57.6288 
L 243.10426 -57.6288 
L 242.44005 -57.6288 
L 241.775839 -57.6288 
L 241.111629 -57.6288 
L 240.447418 -57.6288 
L 239.783208 -57.6288 
L 239.118997 -57.6288 
L 238.454787 -57.6288 
L 237.790576 -57.6288 
L 237.126366 -57.6288 
L 236.462155 -57.6288 
L 235.797945 -57.6288 
L 235.133734 -57.6288 
L 234.469524 -57.6288 
L 233.805313 -57.6288 
L 233.141103 -57.6288 
L 232.476892 -57.6288 
L 231.812682 -57.6288 
L 231.148471 -57.6288 
L 230.484261 -57.6288 
L 229.82005 -57.6288 
L 229.15584 -57.6288 
L 228.491629 -57.6288 
L 227.827419 -57.6288 
L 227.163208 -57.6288 
L 226.498998 -57.6288 
L 225.834787 -57.6288 
L 225.170577 -57.6288 
L 224.506366 -57.6288 
L 223.842156 -57.6288 
L 223.177945 -57.6288 
L 222.513735 -57.6288 
L 221.849524 -57.6288 
L 221.185314 -57.6288 
L 220.521103 -57.6288 
L 219.856892 -57.6288 
L 219.192682 -57.6288 
L 218.528471 -57.6288 
L 217.864261 -57.6288 
L 217.20005 -57.6288 
L 216.53584 -57.6288 
L 215.871629 -57.6288 
L 215.207419 -57.6288 
L 214.543208 -57.6288 
L 213.878998 -57.6288 
L 213.214787 -57.6288 
L 212.550577 -57.6288 
L 211.886366 -57.6288 
L 211.222156 -57.6288 
L 210.557945 -57.6288 
L 209.893735 -57.6288 
L 209.229524 -57.6288 
L 208.565314 -57.6288 
L 207.901103 -57.6288 
L 207.236893 -57.6288 
L 206.572682 -57.6288 
L 205.908472 -57.6288 
L 205.244261 -57.6288 
L 204.580051 -57.6288 
L 203.91584 -57.6288 
L 203.25163 -57.6288 
L 202.587419 -57.6288 
L 201.923209 -57.6288 
L 201.258998 -57.6288 
L 200.594788 -57.6288 
L 199.930577 -57.6288 
L 199.266367 -57.6288 
L 198.602156 -57.6288 
L 197.937946 -57.6288 
L 197.273735 -57.6288 
L 196.609525 -57.6288 
L 195.945314 -57.6288 
L 195.281104 -57.6288 
L 194.616893 -57.6288 
L 193.952683 -57.6288 
L 193.288472 -57.6288 
L 192.624262 -57.6288 
L 191.960051 -57.6288 
L 191.295841 -57.6288 
L 190.63163 -57.6288 
L 189.96742 -57.6288 
L 189.303209 -57.6288 
L 188.638999 -57.6288 
L 187.974788 -57.6288 
L 187.310578 -57.6288 
L 186.646367 -57.6288 
L 185.982157 -57.6288 
L 185.317946 -57.6288 
L 184.653736 -57.6288 
L 183.989525 -57.6288 
L 183.325314 -57.6288 
L 182.661104 -57.6288 
L 181.996893 -57.6288 
L 181.332683 -57.6288 
L 180.668472 -57.6288 
L 180.004262 -57.6288 
L 179.340051 -57.6288 
L 178.675841 -57.6288 
L 178.01163 -57.6288 
L 177.34742 -57.6288 
L 176.683209 -57.6288 
L 176.018999 -57.6288 
L 175.354788 -57.6288 
L 174.690578 -57.6288 
L 174.026367 -57.6288 
L 173.362157 -57.6288 
L 172.697946 -57.6288 
L 172.033736 -57.6288 
L 171.369525 -57.6288 
L 170.705315 -57.6288 
L 170.041104 -57.6288 
L 169.376894 -57.6288 
L 168.712683 -57.6288 
L 168.048473 -57.6288 
L 167.384262 -57.6288 
L 166.720052 -57.6288 
L 166.055841 -57.6288 
L 165.391631 -57.6288 
L 164.72742 -57.6288 
L 164.06321 -57.6288 
L 163.398999 -57.6288 
L 162.734789 -57.6288 
L 162.070578 -57.6288 
L 161.406368 -57.6288 
L 160.742157 -57.6288 
L 160.077947 -57.6288 
L 159.413736 -57.6288 
L 158.749526 -57.6288 
L 158.085315 -57.6288 
L 157.421105 -57.6288 
L 156.756894 -57.6288 
L 156.092684 -57.6288 
L 155.428473 -57.6288 
L 154.764263 -57.6288 
L 154.100052 -57.6288 
L 153.435842 -57.6288 
L 152.771631 -57.6288 
L 152.107421 -57.6288 
L 151.44321 -57.6288 
L 150.779 -57.6288 
L 150.114789 -57.6288 
L 149.450579 -57.6288 
z
" style="stroke: #1f77b4; stroke-opacity: 0"/>
    </defs>
    <g clip-path="url(#p867180daef)">
     <use xlink:href="#maba3170975" x="0" y="397.44" style="fill: #1f77b4; fill-opacity: 0; stroke: #1f77b4; stroke-opacity: 0"/>
    </g>
   </g>
   <g id="matplotlib.axis_1">
    <g id="xtick_1">
     <g id="line2d_1">
      <defs>
       <path id="m69c2a062fa" d="M 0 0 
L 0 3 
" style="stroke: #808080"/>
      </defs>
      <g>
       <use xlink:href="#m69c2a062fa" x="171.279711" y="353.7216" style="fill: #808080; stroke: #808080"/>
      </g>
     </g>
     <g id="text_1">
      <!-- 0.02 -->
      <g transform="translate(155.693774 370.859412) scale(0.14 -0.14)">
       <defs>
        <path id="DejaVuSans-30" d="M 2034 4250 
Q 1547 4250 1301 3770 
Q 1056 3291 1056 2328 
Q 1056 1369 1301 889 
Q 1547 409 2034 409 
Q 2525 409 2770 889 
Q 3016 1369 3016 2328 
Q 3016 3291 2770 3770 
Q 2525 4250 2034 4250 
z
M 2034 4750 
Q 2819 4750 3233 4129 
Q 3647 3509 3647 2328 
Q 3647 1150 3233 529 
Q 2819 -91 2034 -91 
Q 1250 -91 836 529 
Q 422 1150 422 2328 
Q 422 3509 836 4129 
Q 1250 4750 2034 4750 
z
" transform="scale(0.015625)"/>
        <path id="DejaVuSans-2e" d="M 684 794 
L 1344 794 
L 1344 0 
L 684 0 
L 684 794 
z
" transform="scale(0.015625)"/>
        <path id="DejaVuSans-32" d="M 1228 531 
L 3431 531 
L 3431 0 
L 469 0 
L 469 531 
Q 828 903 1448 1529 
Q 2069 2156 2228 2338 
Q 2531 2678 2651 2914 
Q 2772 3150 2772 3378 
Q 2772 3750 2511 3984 
Q 2250 4219 1831 4219 
Q 1534 4219 1204 4116 
Q 875 4013 500 3803 
L 500 4441 
Q 881 4594 1212 4672 
Q 1544 4750 1819 4750 
Q 2544 4750 2975 4387 
Q 3406 4025 3406 3419 
Q 3406 3131 3298 2873 
Q 3191 2616 2906 2266 
Q 2828 2175 2409 1742 
Q 1991 1309 1228 531 
z
" transform="scale(0.015625)"/>
       </defs>
       <use xlink:href="#DejaVuSans-30"/>
       <use xlink:href="#DejaVuSans-2e" x="63.623047"/>
       <use xlink:href="#DejaVuSans-30" x="95.410156"/>
       <use xlink:href="#DejaVuSans-32" x="159.033203"/>
      </g>
     </g>
    </g>
    <g id="xtick_2">
     <g id="line2d_2">
      <g>
       <use xlink:href="#m69c2a062fa" x="223.172011" y="353.7216" style="fill: #808080; stroke: #808080"/>
      </g>
     </g>
     <g id="text_2">
      <!-- 0.04 -->
      <g transform="translate(207.586073 370.859412) scale(0.14 -0.14)">
       <defs>
        <path id="DejaVuSans-34" d="M 2419 4116 
L 825 1625 
L 2419 1625 
L 2419 4116 
z
M 2253 4666 
L 3047 4666 
L 3047 1625 
L 3713 1625 
L 3713 1100 
L 3047 1100 
L 3047 0 
L 2419 0 
L 2419 1100 
L 313 1100 
L 313 1709 
L 2253 4666 
z
" transform="scale(0.015625)"/>
       </defs>
       <use xlink:href="#DejaVuSans-30"/>
       <use xlink:href="#DejaVuSans-2e" x="63.623047"/>
       <use xlink:href="#DejaVuSans-30" x="95.410156"/>
       <use xlink:href="#DejaVuSans-34" x="159.033203"/>
      </g>
     </g>
    </g>
    <g id="xtick_3">
     <g id="line2d_3">
      <g>
       <use xlink:href="#m69c2a062fa" x="275.06431" y="353.7216" style="fill: #808080; stroke: #808080"/>
      </g>
     </g>
     <g id="text_3">
      <!-- 0.06 -->
      <g transform="translate(259.478372 370.859412) scale(0.14 -0.14)">
       <defs>
        <path id="DejaVuSans-36" d="M 2113 2584 
Q 1688 2584 1439 2293 
Q 1191 2003 1191 1497 
Q 1191 994 1439 701 
Q 1688 409 2113 409 
Q 2538 409 2786 701 
Q 3034 994 3034 1497 
Q 3034 2003 2786 2293 
Q 2538 2584 2113 2584 
z
M 3366 4563 
L 3366 3988 
Q 3128 4100 2886 4159 
Q 2644 4219 2406 4219 
Q 1781 4219 1451 3797 
Q 1122 3375 1075 2522 
Q 1259 2794 1537 2939 
Q 1816 3084 2150 3084 
Q 2853 3084 3261 2657 
Q 3669 2231 3669 1497 
Q 3669 778 3244 343 
Q 2819 -91 2113 -91 
Q 1303 -91 875 529 
Q 447 1150 447 2328 
Q 447 3434 972 4092 
Q 1497 4750 2381 4750 
Q 2619 4750 2861 4703 
Q 3103 4656 3366 4563 
z
" transform="scale(0.015625)"/>
       </defs>
       <use xlink:href="#DejaVuSans-30"/>
       <use xlink:href="#DejaVuSans-2e" x="63.623047"/>
       <use xlink:href="#DejaVuSans-30" x="95.410156"/>
       <use xlink:href="#DejaVuSans-36" x="159.033203"/>
      </g>
     </g>
    </g>
    <g id="xtick_4">
     <g id="line2d_4">
      <g>
       <use xlink:href="#m69c2a062fa" x="326.956609" y="353.7216" style="fill: #808080; stroke: #808080"/>
      </g>
     </g>
     <g id="text_4">
      <!-- 0.08 -->
      <g transform="translate(311.370671 370.859412) scale(0.14 -0.14)">
       <defs>
        <path id="DejaVuSans-38" d="M 2034 2216 
Q 1584 2216 1326 1975 
Q 1069 1734 1069 1313 
Q 1069 891 1326 650 
Q 1584 409 2034 409 
Q 2484 409 2743 651 
Q 3003 894 3003 1313 
Q 3003 1734 2745 1975 
Q 2488 2216 2034 2216 
z
M 1403 2484 
Q 997 2584 770 2862 
Q 544 3141 544 3541 
Q 544 4100 942 4425 
Q 1341 4750 2034 4750 
Q 2731 4750 3128 4425 
Q 3525 4100 3525 3541 
Q 3525 3141 3298 2862 
Q 3072 2584 2669 2484 
Q 3125 2378 3379 2068 
Q 3634 1759 3634 1313 
Q 3634 634 3220 271 
Q 2806 -91 2034 -91 
Q 1263 -91 848 271 
Q 434 634 434 1313 
Q 434 1759 690 2068 
Q 947 2378 1403 2484 
z
M 1172 3481 
Q 1172 3119 1398 2916 
Q 1625 2713 2034 2713 
Q 2441 2713 2670 2916 
Q 2900 3119 2900 3481 
Q 2900 3844 2670 4047 
Q 2441 4250 2034 4250 
Q 1625 4250 1398 4047 
Q 1172 3844 1172 3481 
z
" transform="scale(0.015625)"/>
       </defs>
       <use xlink:href="#DejaVuSans-30"/>
       <use xlink:href="#DejaVuSans-2e" x="63.623047"/>
       <use xlink:href="#DejaVuSans-30" x="95.410156"/>
       <use xlink:href="#DejaVuSans-38" x="159.033203"/>
      </g>
     </g>
    </g>
    <g id="xtick_5">
     <g id="line2d_5">
      <g>
       <use xlink:href="#m69c2a062fa" x="378.848908" y="353.7216" style="fill: #808080; stroke: #808080"/>
      </g>
     </g>
     <g id="text_5">
      <!-- 0.10 -->
      <g transform="translate(363.26297 370.859412) scale(0.14 -0.14)">
       <defs>
        <path id="DejaVuSans-31" d="M 794 531 
L 1825 531 
L 1825 4091 
L 703 3866 
L 703 4441 
L 1819 4666 
L 2450 4666 
L 2450 531 
L 3481 531 
L 3481 0 
L 794 0 
L 794 531 
z
" transform="scale(0.015625)"/>
       </defs>
       <use xlink:href="#DejaVuSans-30"/>
       <use xlink:href="#DejaVuSans-2e" x="63.623047"/>
       <use xlink:href="#DejaVuSans-31" x="95.410156"/>
       <use xlink:href="#DejaVuSans-30" x="159.033203"/>
      </g>
     </g>
    </g>
    <g id="xtick_6">
     <g id="line2d_6">
      <g>
       <use xlink:href="#m69c2a062fa" x="430.741207" y="353.7216" style="fill: #808080; stroke: #808080"/>
      </g>
     </g>
     <g id="text_6">
      <!-- 0.12 -->
      <g transform="translate(415.155269 370.859412) scale(0.14 -0.14)">
       <use xlink:href="#DejaVuSans-30"/>
       <use xlink:href="#DejaVuSans-2e" x="63.623047"/>
       <use xlink:href="#DejaVuSans-31" x="95.410156"/>
       <use xlink:href="#DejaVuSans-32" x="159.033203"/>
      </g>
     </g>
    </g>
    <g id="xtick_7">
     <g id="line2d_7">
      <g>
       <use xlink:href="#m69c2a062fa" x="482.633506" y="353.7216" style="fill: #808080; stroke: #808080"/>
      </g>
     </g>
     <g id="text_7">
      <!-- 0.14 -->
      <g transform="translate(467.047569 370.859412) scale(0.14 -0.14)">
       <use xlink:href="#DejaVuSans-30"/>
       <use xlink:href="#DejaVuSans-2e" x="63.623047"/>
       <use xlink:href="#DejaVuSans-31" x="95.410156"/>
       <use xlink:href="#DejaVuSans-34" x="159.033203"/>
      </g>
     </g>
    </g>
   </g>
   <g id="matplotlib.axis_2"/>
   <g id="line2d_8">
    <path d="M 149.450579 339.795724 
L 157.421105 339.696903 
L 161.406368 339.502413 
L 165.391631 339.06121 
L 167.384262 338.693606 
L 169.376894 338.11377 
L 171.369525 337.281632 
L 174.026367 335.892832 
L 176.018999 334.568299 
L 178.01163 332.887529 
L 180.004262 330.923858 
L 181.332683 329.3742 
L 182.661104 327.529558 
L 183.989525 325.362356 
L 185.317946 322.882777 
L 187.310578 318.620205 
L 189.303209 313.885304 
L 191.295841 308.6251 
L 192.624262 304.616829 
L 193.952683 300.115726 
L 195.945314 292.415497 
L 199.266367 278.226893 
L 202.587419 263.302449 
L 204.580051 253.139462 
L 206.572682 241.351769 
L 209.893735 220.791958 
L 211.886366 210.268952 
L 214.543208 196.491069 
L 216.53584 184.555617 
L 221.185314 154.934911 
L 223.842156 140.227565 
L 227.163208 122.663357 
L 229.15584 113.441011 
L 235.797945 85.128123 
L 237.126366 80.260745 
L 238.454787 76.400524 
L 239.783208 73.371615 
L 242.44005 68.129983 
L 244.432681 64.680505 
L 245.096892 63.741045 
L 245.761102 62.99597 
L 246.425313 62.440339 
L 247.089523 62.074092 
L 248.417944 61.760391 
L 250.410576 61.6032 
L 251.074786 61.635877 
L 251.738997 61.788084 
L 252.403207 62.092654 
L 253.067418 62.582091 
L 253.731628 63.261039 
L 254.395839 64.142106 
L 255.72426 66.505988 
L 257.052681 69.596968 
L 260.373734 78.079405 
L 264.358997 86.861745 
L 265.687418 90.991168 
L 267.015839 95.998715 
L 274.322154 125.803956 
L 276.978996 136.686973 
L 283.621101 166.019701 
L 286.277943 177.974245 
L 288.934785 188.70872 
L 296.905312 219.639984 
L 301.554785 237.916668 
L 303.547417 244.578792 
L 311.517943 268.780677 
L 313.510574 273.691181 
L 320.152679 289.037505 
L 327.458995 303.845824 
L 329.451627 307.274845 
L 332.772679 312.467999 
L 334.1011 314.15029 
L 335.429521 315.428033 
L 338.750574 318.399182 
L 345.392679 324.79829 
L 347.38531 326.107188 
L 353.363205 329.76042 
L 356.020047 331.171639 
L 358.676889 332.334343 
L 361.333731 333.231045 
L 364.654784 334.342111 
L 367.975836 335.465286 
L 372.62531 336.598925 
L 375.282152 337.040884 
L 380.595836 337.721168 
L 383.916888 338.13406 
L 395.872677 338.96795 
L 415.134782 339.613185 
L 427.090571 339.719007 
L 468.935833 339.805968 
L 488.862149 339.80037 
L 488.862149 339.80037 
" clip-path="url(#p867180daef)" style="fill: none; stroke: #1f77b4; stroke-width: 1.5; stroke-linecap: square"/>
   </g>
   <g id="line2d_9">
    <path d="M 194.166824 333.968832 
L 324.830009 333.968832 
" clip-path="url(#p867180daef)" style="fill: none; stroke: #000000; stroke-width: 3"/>
   </g>
   <g id="patch_3">
    <path d="M 132.48 353.7216 
L 505.832727 353.7216 
" style="fill: none; stroke: #808080; stroke-width: 0.8; stroke-linejoin: miter; stroke-linecap: square"/>
   </g>
   <g id="text_8">
    <!-- 0.029  -->
    <g transform="translate(146.457449 319.362912) scale(0.15 -0.15)">
     <defs>
      <path id="DejaVuSans-39" d="M 703 97 
L 703 672 
Q 941 559 1184 500 
Q 1428 441 1663 441 
Q 2288 441 2617 861 
Q 2947 1281 2994 2138 
Q 2813 1869 2534 1725 
Q 2256 1581 1919 1581 
Q 1219 1581 811 2004 
Q 403 2428 403 3163 
Q 403 3881 828 4315 
Q 1253 4750 1959 4750 
Q 2769 4750 3195 4129 
Q 3622 3509 3622 2328 
Q 3622 1225 3098 567 
Q 2575 -91 1691 -91 
Q 1453 -91 1209 -44 
Q 966 3 703 97 
z
M 1959 2075 
Q 2384 2075 2632 2365 
Q 2881 2656 2881 3163 
Q 2881 3666 2632 3958 
Q 2384 4250 1959 4250 
Q 1534 4250 1286 3958 
Q 1038 3666 1038 3163 
Q 1038 2656 1286 2365 
Q 1534 2075 1959 2075 
z
" transform="scale(0.015625)"/>
      <path id="DejaVuSans-20" transform="scale(0.015625)"/>
     </defs>
     <use xlink:href="#DejaVuSans-30"/>
     <use xlink:href="#DejaVuSans-2e" x="63.623047"/>
     <use xlink:href="#DejaVuSans-30" x="95.410156"/>
     <use xlink:href="#DejaVuSans-32" x="159.033203"/>
     <use xlink:href="#DejaVuSans-39" x="222.65625"/>
     <use xlink:href="#DejaVuSans-20" x="286.279297"/>
    </g>
   </g>
   <g id="text_9">
    <!--  0.079 -->
    <g transform="translate(324.830009 319.362912) scale(0.15 -0.15)">
     <defs>
      <path id="DejaVuSans-37" d="M 525 4666 
L 3525 4666 
L 3525 4397 
L 1831 0 
L 1172 0 
L 2766 4134 
L 525 4134 
L 525 4666 
z
" transform="scale(0.015625)"/>
     </defs>
     <use xlink:href="#DejaVuSans-20"/>
     <use xlink:href="#DejaVuSans-30" x="31.787109"/>
     <use xlink:href="#DejaVuSans-2e" x="95.410156"/>
     <use xlink:href="#DejaVuSans-30" x="127.197266"/>
     <use xlink:href="#DejaVuSans-37" x="190.820312"/>
     <use xlink:href="#DejaVuSans-39" x="254.443359"/>
    </g>
   </g>
   <g id="text_10">
    <!-- 95% HDI -->
    <g transform="translate(226.817166 252.17568) scale(0.15 -0.15)">
     <defs>
      <path id="DejaVuSans-35" d="M 691 4666 
L 3169 4666 
L 3169 4134 
L 1269 4134 
L 1269 2991 
Q 1406 3038 1543 3061 
Q 1681 3084 1819 3084 
Q 2600 3084 3056 2656 
Q 3513 2228 3513 1497 
Q 3513 744 3044 326 
Q 2575 -91 1722 -91 
Q 1428 -91 1123 -41 
Q 819 9 494 109 
L 494 744 
Q 775 591 1075 516 
Q 1375 441 1709 441 
Q 2250 441 2565 725 
Q 2881 1009 2881 1497 
Q 2881 1984 2565 2268 
Q 2250 2553 1709 2553 
Q 1456 2553 1204 2497 
Q 953 2441 691 2322 
L 691 4666 
z
" transform="scale(0.015625)"/>
      <path id="DejaVuSans-25" d="M 4653 2053 
Q 4381 2053 4226 1822 
Q 4072 1591 4072 1178 
Q 4072 772 4226 539 
Q 4381 306 4653 306 
Q 4919 306 5073 539 
Q 5228 772 5228 1178 
Q 5228 1588 5073 1820 
Q 4919 2053 4653 2053 
z
M 4653 2450 
Q 5147 2450 5437 2106 
Q 5728 1763 5728 1178 
Q 5728 594 5436 251 
Q 5144 -91 4653 -91 
Q 4153 -91 3862 251 
Q 3572 594 3572 1178 
Q 3572 1766 3864 2108 
Q 4156 2450 4653 2450 
z
M 1428 4353 
Q 1159 4353 1004 4120 
Q 850 3888 850 3481 
Q 850 3069 1003 2837 
Q 1156 2606 1428 2606 
Q 1700 2606 1854 2837 
Q 2009 3069 2009 3481 
Q 2009 3884 1853 4118 
Q 1697 4353 1428 4353 
z
M 4250 4750 
L 4750 4750 
L 1831 -91 
L 1331 -91 
L 4250 4750 
z
M 1428 4750 
Q 1922 4750 2215 4408 
Q 2509 4066 2509 3481 
Q 2509 2891 2217 2550 
Q 1925 2209 1428 2209 
Q 931 2209 642 2551 
Q 353 2894 353 3481 
Q 353 4063 643 4406 
Q 934 4750 1428 4750 
z
" transform="scale(0.015625)"/>
      <path id="DejaVuSans-48" d="M 628 4666 
L 1259 4666 
L 1259 2753 
L 3553 2753 
L 3553 4666 
L 4184 4666 
L 4184 0 
L 3553 0 
L 3553 2222 
L 1259 2222 
L 1259 0 
L 628 0 
L 628 4666 
z
" transform="scale(0.015625)"/>
      <path id="DejaVuSans-44" d="M 1259 4147 
L 1259 519 
L 2022 519 
Q 2988 519 3436 956 
Q 3884 1394 3884 2338 
Q 3884 3275 3436 3711 
Q 2988 4147 2022 4147 
L 1259 4147 
z
M 628 4666 
L 1925 4666 
Q 3281 4666 3915 4102 
Q 4550 3538 4550 2338 
Q 4550 1131 3912 565 
Q 3275 0 1925 0 
L 628 0 
L 628 4666 
z
" transform="scale(0.015625)"/>
      <path id="DejaVuSans-49" d="M 628 4666 
L 1259 4666 
L 1259 0 
L 628 0 
L 628 4666 
z
" transform="scale(0.015625)"/>
     </defs>
     <use xlink:href="#DejaVuSans-39"/>
     <use xlink:href="#DejaVuSans-35" x="63.623047"/>
     <use xlink:href="#DejaVuSans-25" x="127.246094"/>
     <use xlink:href="#DejaVuSans-20" x="222.265625"/>
     <use xlink:href="#DejaVuSans-48" x="254.052734"/>
     <use xlink:href="#DejaVuSans-44" x="329.248047"/>
     <use xlink:href="#DejaVuSans-49" x="406.25"/>
    </g>
   </g>
   <g id="text_11">
    <!-- mean=0.053 -->
    <g transform="translate(208.205354 106.11648) scale(0.15 -0.15)">
     <defs>
      <path id="DejaVuSans-6d" d="M 3328 2828 
Q 3544 3216 3844 3400 
Q 4144 3584 4550 3584 
Q 5097 3584 5394 3201 
Q 5691 2819 5691 2113 
L 5691 0 
L 5113 0 
L 5113 2094 
Q 5113 2597 4934 2840 
Q 4756 3084 4391 3084 
Q 3944 3084 3684 2787 
Q 3425 2491 3425 1978 
L 3425 0 
L 2847 0 
L 2847 2094 
Q 2847 2600 2669 2842 
Q 2491 3084 2119 3084 
Q 1678 3084 1418 2786 
Q 1159 2488 1159 1978 
L 1159 0 
L 581 0 
L 581 3500 
L 1159 3500 
L 1159 2956 
Q 1356 3278 1631 3431 
Q 1906 3584 2284 3584 
Q 2666 3584 2933 3390 
Q 3200 3197 3328 2828 
z
" transform="scale(0.015625)"/>
      <path id="DejaVuSans-65" d="M 3597 1894 
L 3597 1613 
L 953 1613 
Q 991 1019 1311 708 
Q 1631 397 2203 397 
Q 2534 397 2845 478 
Q 3156 559 3463 722 
L 3463 178 
Q 3153 47 2828 -22 
Q 2503 -91 2169 -91 
Q 1331 -91 842 396 
Q 353 884 353 1716 
Q 353 2575 817 3079 
Q 1281 3584 2069 3584 
Q 2775 3584 3186 3129 
Q 3597 2675 3597 1894 
z
M 3022 2063 
Q 3016 2534 2758 2815 
Q 2500 3097 2075 3097 
Q 1594 3097 1305 2825 
Q 1016 2553 972 2059 
L 3022 2063 
z
" transform="scale(0.015625)"/>
      <path id="DejaVuSans-61" d="M 2194 1759 
Q 1497 1759 1228 1600 
Q 959 1441 959 1056 
Q 959 750 1161 570 
Q 1363 391 1709 391 
Q 2188 391 2477 730 
Q 2766 1069 2766 1631 
L 2766 1759 
L 2194 1759 
z
M 3341 1997 
L 3341 0 
L 2766 0 
L 2766 531 
Q 2569 213 2275 61 
Q 1981 -91 1556 -91 
Q 1019 -91 701 211 
Q 384 513 384 1019 
Q 384 1609 779 1909 
Q 1175 2209 1959 2209 
L 2766 2209 
L 2766 2266 
Q 2766 2663 2505 2880 
Q 2244 3097 1772 3097 
Q 1472 3097 1187 3025 
Q 903 2953 641 2809 
L 641 3341 
Q 956 3463 1253 3523 
Q 1550 3584 1831 3584 
Q 2591 3584 2966 3190 
Q 3341 2797 3341 1997 
z
" transform="scale(0.015625)"/>
      <path id="DejaVuSans-6e" d="M 3513 2113 
L 3513 0 
L 2938 0 
L 2938 2094 
Q 2938 2591 2744 2837 
Q 2550 3084 2163 3084 
Q 1697 3084 1428 2787 
Q 1159 2491 1159 1978 
L 1159 0 
L 581 0 
L 581 3500 
L 1159 3500 
L 1159 2956 
Q 1366 3272 1645 3428 
Q 1925 3584 2291 3584 
Q 2894 3584 3203 3211 
Q 3513 2838 3513 2113 
z
" transform="scale(0.015625)"/>
      <path id="DejaVuSans-3d" d="M 678 2906 
L 4684 2906 
L 4684 2381 
L 678 2381 
L 678 2906 
z
M 678 1631 
L 4684 1631 
L 4684 1100 
L 678 1100 
L 678 1631 
z
" transform="scale(0.015625)"/>
      <path id="DejaVuSans-33" d="M 2597 2516 
Q 3050 2419 3304 2112 
Q 3559 1806 3559 1356 
Q 3559 666 3084 287 
Q 2609 -91 1734 -91 
Q 1441 -91 1130 -33 
Q 819 25 488 141 
L 488 750 
Q 750 597 1062 519 
Q 1375 441 1716 441 
Q 2309 441 2620 675 
Q 2931 909 2931 1356 
Q 2931 1769 2642 2001 
Q 2353 2234 1838 2234 
L 1294 2234 
L 1294 2753 
L 1863 2753 
Q 2328 2753 2575 2939 
Q 2822 3125 2822 3475 
Q 2822 3834 2567 4026 
Q 2313 4219 1838 4219 
Q 1578 4219 1281 4162 
Q 984 4106 628 3988 
L 628 4550 
Q 988 4650 1302 4700 
Q 1616 4750 1894 4750 
Q 2613 4750 3031 4423 
Q 3450 4097 3450 3541 
Q 3450 3153 3228 2886 
Q 3006 2619 2597 2516 
z
" transform="scale(0.015625)"/>
     </defs>
     <use xlink:href="#DejaVuSans-6d"/>
     <use xlink:href="#DejaVuSans-65" x="97.412109"/>
     <use xlink:href="#DejaVuSans-61" x="158.935547"/>
     <use xlink:href="#DejaVuSans-6e" x="220.214844"/>
     <use xlink:href="#DejaVuSans-3d" x="283.59375"/>
     <use xlink:href="#DejaVuSans-30" x="367.382812"/>
     <use xlink:href="#DejaVuSans-2e" x="431.005859"/>
     <use xlink:href="#DejaVuSans-30" x="462.792969"/>
     <use xlink:href="#DejaVuSans-35" x="526.416016"/>
     <use xlink:href="#DejaVuSans-33" x="590.039062"/>
    </g>
   </g>
   <g id="text_12">
    <!-- θ -->
    <g transform="translate(314.261364 41.6928) scale(0.16 -0.16)">
     <defs>
      <path id="DejaVuSans-3b8" d="M 2953 2219 
L 963 2219 
Q 1009 1284 1225 888 
Q 1494 400 1959 400 
Q 2428 400 2688 891 
Q 2916 1322 2953 2219 
z
M 2944 2750 
Q 2856 3638 2688 3950 
Q 2419 4444 1959 4444 
Q 1481 4444 1228 3956 
Q 1028 3563 969 2750 
L 2944 2750 
z
M 1959 4913 
Q 2709 4913 3138 4250 
Q 3566 3591 3566 2422 
Q 3566 1256 3138 594 
Q 2709 -72 1959 -72 
Q 1206 -72 781 594 
Q 353 1256 353 2422 
Q 353 3591 781 4250 
Q 1206 4913 1959 4913 
z
" transform="scale(0.015625)"/>
     </defs>
     <use xlink:href="#DejaVuSans-3b8"/>
    </g>
   </g>
  </g>
  <g id="axes_2">
   <g id="patch_4">
    <path d="M 580.503273 353.7216 
L 953.856 353.7216 
L 953.856 47.6928 
L 580.503273 47.6928 
z
" style="fill: #ffffff"/>
   </g>
   <g id="PolyCollection_2">
    <defs>
     <path id="ma4a80f65c6" d="M 597.473851 -57.6288 
L 597.473851 -57.643339 
L 598.138062 -57.642891 
L 598.802272 -57.642137 
L 599.466483 -57.641411 
L 600.130693 -57.641178 
L 600.794904 -57.641976 
L 601.459114 -57.644122 
L 602.123325 -57.647971 
L 602.787535 -57.654011 
L 603.451746 -57.662002 
L 604.115956 -57.6724 
L 604.780167 -57.684861 
L 605.444377 -57.699905 
L 606.108588 -57.718159 
L 606.772798 -57.740365 
L 607.437009 -57.768011 
L 608.101219 -57.801686 
L 608.76543 -57.841628 
L 609.42964 -57.886547 
L 610.093851 -57.937462 
L 610.758061 -57.994445 
L 611.422272 -58.060051 
L 612.086482 -58.136608 
L 612.750693 -58.225603 
L 613.414903 -58.326794 
L 614.079114 -58.438207 
L 614.743324 -58.556627 
L 615.407535 -58.680722 
L 616.071745 -58.811177 
L 616.735956 -58.951053 
L 617.400167 -59.108448 
L 618.064377 -59.289716 
L 618.728588 -59.503974 
L 619.392798 -59.755661 
L 620.057009 -60.048342 
L 620.721219 -60.380984 
L 621.38543 -60.749619 
L 622.04964 -61.148759 
L 622.713851 -61.570611 
L 623.378061 -62.010358 
L 624.042272 -62.466137 
L 624.706482 -62.935773 
L 625.370693 -63.422195 
L 626.034903 -63.93273 
L 626.699114 -64.477553 
L 627.363324 -65.069794 
L 628.027535 -65.724168 
L 628.691745 -66.454484 
L 629.355956 -67.273472 
L 630.020166 -68.18384 
L 630.684377 -69.185064 
L 631.348587 -70.264121 
L 632.012798 -71.405891 
L 632.677008 -72.593399 
L 633.341219 -73.814838 
L 634.005429 -75.067188 
L 634.66964 -76.353549 
L 635.33385 -77.686619 
L 635.998061 -79.084528 
L 636.662271 -80.567716 
L 637.326482 -82.169086 
L 637.990692 -83.906069 
L 638.654903 -85.787859 
L 639.319113 -87.805919 
L 639.983324 -89.940454 
L 640.647534 -92.166494 
L 641.311745 -94.458879 
L 641.975955 -96.810808 
L 642.640166 -99.227764 
L 643.304376 -101.724571 
L 643.968587 -104.309667 
L 644.632797 -106.986275 
L 645.297008 -109.748701 
L 645.961218 -112.580126 
L 646.625429 -115.466794 
L 647.289639 -118.390155 
L 647.95385 -121.337639 
L 648.61806 -124.306474 
L 649.282271 -127.30563 
L 649.946481 -130.344259 
L 650.610692 -133.465243 
L 651.274902 -136.70318 
L 651.939113 -140.094571 
L 652.603324 -143.651486 
L 653.267534 -147.374075 
L 653.931745 -151.22892 
L 654.595955 -155.178496 
L 655.260166 -159.176892 
L 655.924376 -163.188004 
L 656.588587 -167.206397 
L 657.252797 -171.219097 
L 657.917008 -175.238926 
L 658.581218 -179.261774 
L 659.245429 -183.293127 
L 659.909639 -187.339931 
L 660.57385 -191.407182 
L 661.23806 -195.495757 
L 661.902271 -199.613143 
L 662.566481 -203.76087 
L 663.230692 -207.912784 
L 663.894902 -212.042079 
L 664.559113 -216.128303 
L 665.223323 -220.153846 
L 665.887534 -224.114164 
L 666.551744 -228.025724 
L 667.215955 -231.91549 
L 667.880165 -235.796172 
L 668.544376 -239.688382 
L 669.208586 -243.592366 
L 669.872797 -247.525375 
L 670.537007 -251.474967 
L 671.201218 -255.429228 
L 671.865428 -259.341719 
L 672.529639 -263.160243 
L 673.193849 -266.82106 
L 673.85806 -270.283639 
L 674.52227 -273.535455 
L 675.186481 -276.598773 
L 675.850691 -279.534932 
L 676.514902 -282.44261 
L 677.179112 -285.405155 
L 677.843323 -288.487484 
L 678.507533 -291.705789 
L 679.171744 -295.041723 
L 679.835954 -298.414416 
L 680.500165 -301.770791 
L 681.164375 -305.013889 
L 681.828586 -308.100656 
L 682.492796 -310.974115 
L 683.157007 -313.618755 
L 683.821217 -316.027431 
L 684.485428 -318.229787 
L 685.149638 -320.26949 
L 685.813849 -322.206941 
L 686.478059 -324.062313 
L 687.14227 -325.814073 
L 687.806481 -327.420936 
L 688.470691 -328.820739 
L 689.134902 -329.966041 
L 689.799112 -330.880432 
L 690.463323 -331.622372 
L 691.127533 -332.262059 
L 691.791744 -332.866685 
L 692.455954 -333.476001 
L 693.120165 -334.080732 
L 693.784375 -334.654326 
L 694.448586 -335.144 
L 695.112796 -335.515774 
L 695.777007 -335.748876 
L 696.441217 -335.8368 
L 697.105428 -335.754472 
L 697.769638 -335.489839 
L 698.433849 -335.002314 
L 699.098059 -334.307894 
L 699.76227 -333.438415 
L 700.42648 -332.46731 
L 701.090691 -331.469869 
L 701.754901 -330.49481 
L 702.419112 -329.506186 
L 703.083322 -328.440519 
L 703.747533 -327.199752 
L 704.411743 -325.716499 
L 705.075954 -323.996178 
L 705.740164 -322.082516 
L 706.404375 -320.064325 
L 707.068585 -318.042767 
L 707.732796 -316.104891 
L 708.397006 -314.281106 
L 709.061217 -312.583292 
L 709.725427 -310.981239 
L 710.389638 -309.396084 
L 711.053848 -307.748035 
L 711.718059 -305.958146 
L 712.382269 -303.971926 
L 713.04648 -301.732788 
L 713.71069 -299.233972 
L 714.374901 -296.476966 
L 715.039111 -293.494195 
L 715.703322 -290.368398 
L 716.367532 -287.204359 
L 717.031743 -284.10855 
L 717.695953 -281.171019 
L 718.360164 -278.447792 
L 719.024374 -275.912131 
L 719.688585 -273.476747 
L 720.352795 -271.027878 
L 721.017006 -268.447154 
L 721.681216 -265.650542 
L 722.345427 -262.633268 
L 723.009637 -259.484434 
L 723.673848 -256.320346 
L 724.338059 -253.256422 
L 725.002269 -250.370783 
L 725.66648 -247.644333 
L 726.33069 -244.967746 
L 726.994901 -242.237764 
L 727.659111 -239.377445 
L 728.323322 -236.344261 
L 728.987532 -233.191768 
L 729.651743 -229.988014 
L 730.315953 -226.811759 
L 730.980164 -223.695569 
L 731.644374 -220.66324 
L 732.308585 -217.697032 
L 732.972795 -214.78597 
L 733.637006 -211.909005 
L 734.301216 -209.054524 
L 734.965427 -206.207672 
L 735.629637 -203.340346 
L 736.293848 -200.445804 
L 736.958058 -197.489431 
L 737.622269 -194.479598 
L 738.286479 -191.436229 
L 738.95069 -188.402087 
L 739.6149 -185.4244 
L 740.279111 -182.539376 
L 740.943321 -179.775725 
L 741.607532 -177.125926 
L 742.271742 -174.578264 
L 742.935953 -172.097357 
L 743.600163 -169.656725 
L 744.264374 -167.229708 
L 744.928584 -164.801023 
L 745.592795 -162.358833 
L 746.257005 -159.916618 
L 746.921216 -157.488591 
L 747.585426 -155.09436 
L 748.249637 -152.763816 
L 748.913847 -150.504267 
L 749.578058 -148.317845 
L 750.242268 -146.18303 
L 750.906479 -144.091104 
L 751.570689 -142.009742 
L 752.2349 -139.922082 
L 752.89911 -137.822854 
L 753.563321 -135.707556 
L 754.227531 -133.577197 
L 754.891742 -131.434688 
L 755.555952 -129.305427 
L 756.220163 -127.220267 
L 756.884373 -125.209561 
L 757.548584 -123.291497 
L 758.212794 -121.482203 
L 758.877005 -119.760123 
L 759.541216 -118.094013 
L 760.205426 -116.452468 
L 760.869637 -114.817602 
L 761.533847 -113.191369 
L 762.198058 -111.59682 
L 762.862268 -110.045058 
L 763.526479 -108.543977 
L 764.190689 -107.10394 
L 764.8549 -105.711845 
L 765.51911 -104.370659 
L 766.183321 -103.08228 
L 766.847531 -101.851469 
L 767.511742 -100.662964 
L 768.175952 -99.483467 
L 768.840163 -98.284847 
L 769.504373 -97.035338 
L 770.168584 -95.747025 
L 770.832794 -94.429026 
L 771.497005 -93.12456 
L 772.161215 -91.867324 
L 772.825426 -90.685074 
L 773.489636 -89.578677 
L 774.153847 -88.548146 
L 774.818057 -87.570165 
L 775.482268 -86.627081 
L 776.146478 -85.702158 
L 776.810689 -84.784083 
L 777.474899 -83.875892 
L 778.13911 -82.99153 
L 778.80332 -82.137504 
L 779.467531 -81.325999 
L 780.131741 -80.55168 
L 780.795952 -79.810075 
L 781.460162 -79.089068 
L 782.124373 -78.390901 
L 782.788583 -77.708745 
L 783.452794 -77.049482 
L 784.117004 -76.413489 
L 784.781215 -75.800325 
L 785.445425 -75.205972 
L 786.109636 -74.632422 
L 786.773846 -74.078161 
L 787.438057 -73.548366 
L 788.102267 -73.037959 
L 788.766478 -72.545826 
L 789.430688 -72.064537 
L 790.094899 -71.586958 
L 790.759109 -71.097336 
L 791.42332 -70.596401 
L 792.08753 -70.080436 
L 792.751741 -69.564441 
L 793.415951 -69.060544 
L 794.080162 -68.591142 
L 794.744372 -68.166101 
L 795.408583 -67.787931 
L 796.072794 -67.44237 
L 796.737004 -67.113745 
L 797.401215 -66.778276 
L 798.065425 -66.426937 
L 798.729636 -66.056475 
L 799.393846 -65.675028 
L 800.058057 -65.296753 
L 800.722267 -64.938496 
L 801.386478 -64.605261 
L 802.050688 -64.300591 
L 802.714899 -64.01982 
L 803.379109 -63.755578 
L 804.04332 -63.500073 
L 804.70753 -63.254355 
L 805.371741 -63.015518 
L 806.035951 -62.789281 
L 806.700162 -62.579388 
L 807.364372 -62.393397 
L 808.028583 -62.231429 
L 808.692793 -62.092177 
L 809.357004 -61.968771 
L 810.021214 -61.854879 
L 810.685425 -61.743269 
L 811.349635 -61.629151 
L 812.013846 -61.510826 
L 812.678056 -61.387835 
L 813.342267 -61.256416 
L 814.006477 -61.120307 
L 814.670688 -60.978586 
L 815.334898 -60.836238 
L 815.999109 -60.699653 
L 816.663319 -60.572125 
L 817.32753 -60.453807 
L 817.99174 -60.344795 
L 818.655951 -60.237109 
L 819.320161 -60.123588 
L 819.984372 -59.999723 
L 820.648582 -59.866422 
L 821.312793 -59.726956 
L 821.977003 -59.588493 
L 822.641214 -59.459447 
L 823.305424 -59.345835 
L 823.969635 -59.251176 
L 824.633845 -59.174546 
L 825.298056 -59.112027 
L 825.962266 -59.059667 
L 826.626477 -59.011588 
L 827.290687 -58.966348 
L 827.954898 -58.922074 
L 828.619108 -58.880009 
L 829.283319 -58.841358 
L 829.947529 -58.805757 
L 830.61174 -58.772231 
L 831.275951 -58.742284 
L 831.940161 -58.71486 
L 832.604372 -58.689759 
L 833.268582 -58.666559 
L 833.932793 -58.641256 
L 834.597003 -58.610553 
L 835.261214 -58.5709 
L 835.925424 -58.520764 
L 836.589635 -58.462723 
L 837.253845 -58.400769 
L 837.918056 -58.339795 
L 838.582266 -58.284074 
L 839.246477 -58.236074 
L 839.910687 -58.196255 
L 840.574898 -58.164089 
L 841.239108 -58.137364 
L 841.903319 -58.11507 
L 842.567529 -58.095659 
L 843.23174 -58.07843 
L 843.89595 -58.061131 
L 844.560161 -58.044192 
L 845.224371 -58.02692 
L 845.888582 -58.010018 
L 846.552792 -57.99479 
L 847.217003 -57.981305 
L 847.881213 -57.969537 
L 848.545424 -57.958365 
L 849.209634 -57.946806 
L 849.873845 -57.934677 
L 850.538055 -57.923273 
L 851.202266 -57.913639 
L 851.866476 -57.906741 
L 852.530687 -57.901786 
L 853.194897 -57.89732 
L 853.859108 -57.891798 
L 854.523318 -57.884145 
L 855.187529 -57.874745 
L 855.851739 -57.863526 
L 856.51595 -57.851557 
L 857.18016 -57.837957 
L 857.844371 -57.822752 
L 858.508581 -57.806601 
L 859.172792 -57.790843 
L 859.837002 -57.776723 
L 860.501213 -57.765333 
L 861.165423 -57.756492 
L 861.829634 -57.749436 
L 862.493844 -57.743236 
L 863.158055 -57.736778 
L 863.822265 -57.730106 
L 864.486476 -57.723188 
L 865.150686 -57.716538 
L 865.814897 -57.710125 
L 866.479108 -57.704141 
L 867.143318 -57.698311 
L 867.807529 -57.692558 
L 868.471739 -57.687314 
L 869.13595 -57.683272 
L 869.80016 -57.680984 
L 870.464371 -57.680743 
L 871.128581 -57.682187 
L 871.792792 -57.684321 
L 872.457002 -57.686035 
L 873.121213 -57.686284 
L 873.785423 -57.685135 
L 874.449634 -57.682696 
L 875.113844 -57.679659 
L 875.778055 -57.676799 
L 876.442265 -57.674225 
L 877.106476 -57.671892 
L 877.770686 -57.669918 
L 878.434897 -57.66837 
L 879.099107 -57.66724 
L 879.763318 -57.66665 
L 880.427528 -57.666263 
L 881.091739 -57.665405 
L 881.755949 -57.663638 
L 882.42016 -57.661043 
L 883.08437 -57.657919 
L 883.748581 -57.654762 
L 884.412791 -57.652037 
L 885.077002 -57.649934 
L 885.741212 -57.648183 
L 886.405423 -57.646496 
L 887.069633 -57.64473 
L 887.733844 -57.642926 
L 888.398054 -57.641104 
L 889.062265 -57.639506 
L 889.726475 -57.638191 
L 890.390686 -57.637156 
L 891.054896 -57.636397 
L 891.719107 -57.635971 
L 892.383317 -57.635727 
L 893.047528 -57.635447 
L 893.711738 -57.635085 
L 894.375949 -57.634398 
L 895.040159 -57.633413 
L 895.70437 -57.632275 
L 896.36858 -57.631149 
L 897.032791 -57.63026 
L 897.697001 -57.629617 
L 898.361212 -57.629211 
L 899.025422 -57.628986 
L 899.689633 -57.628876 
L 900.353843 -57.628876 
L 901.018054 -57.628986 
L 901.682264 -57.629211 
L 902.346475 -57.629617 
L 903.010686 -57.63026 
L 903.674896 -57.631149 
L 904.339107 -57.632199 
L 905.003317 -57.633227 
L 905.667528 -57.633987 
L 906.331738 -57.634268 
L 906.995949 -57.633987 
L 907.660159 -57.633227 
L 908.32437 -57.632199 
L 908.98858 -57.631149 
L 909.652791 -57.63026 
L 910.317001 -57.629617 
L 910.981212 -57.629211 
L 911.645422 -57.628986 
L 912.309633 -57.628876 
L 912.973843 -57.6288 
L 913.638054 -57.6288 
L 914.302264 -57.6288 
L 914.966475 -57.6288 
L 915.630685 -57.6288 
L 916.294896 -57.6288 
L 916.959106 -57.6288 
L 917.623317 -57.6288 
L 918.287527 -57.6288 
L 918.951738 -57.6288 
L 919.615948 -57.6288 
L 920.280159 -57.6288 
L 920.944369 -57.6288 
L 921.60858 -57.6288 
L 922.27279 -57.6288 
L 922.937001 -57.6288 
L 923.601211 -57.6288 
L 924.265422 -57.6288 
L 924.929632 -57.6288 
L 925.593843 -57.6288 
L 926.258053 -57.6288 
L 926.922264 -57.6288 
L 927.586474 -57.6288 
L 928.250685 -57.6288 
L 928.914895 -57.6288 
L 929.579106 -57.6288 
L 930.243316 -57.6288 
L 930.907527 -57.628876 
L 931.571737 -57.629062 
L 932.235948 -57.629397 
L 932.900158 -57.630028 
L 933.564369 -57.631077 
L 934.228579 -57.632609 
L 934.89279 -57.634548 
L 935.557 -57.636626 
L 936.221211 -57.638413 
L 936.885421 -57.639455 
L 936.885421 -57.6288 
L 936.885421 -57.6288 
L 936.221211 -57.6288 
L 935.557 -57.6288 
L 934.89279 -57.6288 
L 934.228579 -57.6288 
L 933.564369 -57.6288 
L 932.900158 -57.6288 
L 932.235948 -57.6288 
L 931.571737 -57.6288 
L 930.907527 -57.6288 
L 930.243316 -57.6288 
L 929.579106 -57.6288 
L 928.914895 -57.6288 
L 928.250685 -57.6288 
L 927.586474 -57.6288 
L 926.922264 -57.6288 
L 926.258053 -57.6288 
L 925.593843 -57.6288 
L 924.929632 -57.6288 
L 924.265422 -57.6288 
L 923.601211 -57.6288 
L 922.937001 -57.6288 
L 922.27279 -57.6288 
L 921.60858 -57.6288 
L 920.944369 -57.6288 
L 920.280159 -57.6288 
L 919.615948 -57.6288 
L 918.951738 -57.6288 
L 918.287527 -57.6288 
L 917.623317 -57.6288 
L 916.959106 -57.6288 
L 916.294896 -57.6288 
L 915.630685 -57.6288 
L 914.966475 -57.6288 
L 914.302264 -57.6288 
L 913.638054 -57.6288 
L 912.973843 -57.6288 
L 912.309633 -57.6288 
L 911.645422 -57.6288 
L 910.981212 -57.6288 
L 910.317001 -57.6288 
L 909.652791 -57.6288 
L 908.98858 -57.6288 
L 908.32437 -57.6288 
L 907.660159 -57.6288 
L 906.995949 -57.6288 
L 906.331738 -57.6288 
L 905.667528 -57.6288 
L 905.003317 -57.6288 
L 904.339107 -57.6288 
L 903.674896 -57.6288 
L 903.010686 -57.6288 
L 902.346475 -57.6288 
L 901.682264 -57.6288 
L 901.018054 -57.6288 
L 900.353843 -57.6288 
L 899.689633 -57.6288 
L 899.025422 -57.6288 
L 898.361212 -57.6288 
L 897.697001 -57.6288 
L 897.032791 -57.6288 
L 896.36858 -57.6288 
L 895.70437 -57.6288 
L 895.040159 -57.6288 
L 894.375949 -57.6288 
L 893.711738 -57.6288 
L 893.047528 -57.6288 
L 892.383317 -57.6288 
L 891.719107 -57.6288 
L 891.054896 -57.6288 
L 890.390686 -57.6288 
L 889.726475 -57.6288 
L 889.062265 -57.6288 
L 888.398054 -57.6288 
L 887.733844 -57.6288 
L 887.069633 -57.6288 
L 886.405423 -57.6288 
L 885.741212 -57.6288 
L 885.077002 -57.6288 
L 884.412791 -57.6288 
L 883.748581 -57.6288 
L 883.08437 -57.6288 
L 882.42016 -57.6288 
L 881.755949 -57.6288 
L 881.091739 -57.6288 
L 880.427528 -57.6288 
L 879.763318 -57.6288 
L 879.099107 -57.6288 
L 878.434897 -57.6288 
L 877.770686 -57.6288 
L 877.106476 -57.6288 
L 876.442265 -57.6288 
L 875.778055 -57.6288 
L 875.113844 -57.6288 
L 874.449634 -57.6288 
L 873.785423 -57.6288 
L 873.121213 -57.6288 
L 872.457002 -57.6288 
L 871.792792 -57.6288 
L 871.128581 -57.6288 
L 870.464371 -57.6288 
L 869.80016 -57.6288 
L 869.13595 -57.6288 
L 868.471739 -57.6288 
L 867.807529 -57.6288 
L 867.143318 -57.6288 
L 866.479108 -57.6288 
L 865.814897 -57.6288 
L 865.150686 -57.6288 
L 864.486476 -57.6288 
L 863.822265 -57.6288 
L 863.158055 -57.6288 
L 862.493844 -57.6288 
L 861.829634 -57.6288 
L 861.165423 -57.6288 
L 860.501213 -57.6288 
L 859.837002 -57.6288 
L 859.172792 -57.6288 
L 858.508581 -57.6288 
L 857.844371 -57.6288 
L 857.18016 -57.6288 
L 856.51595 -57.6288 
L 855.851739 -57.6288 
L 855.187529 -57.6288 
L 854.523318 -57.6288 
L 853.859108 -57.6288 
L 853.194897 -57.6288 
L 852.530687 -57.6288 
L 851.866476 -57.6288 
L 851.202266 -57.6288 
L 850.538055 -57.6288 
L 849.873845 -57.6288 
L 849.209634 -57.6288 
L 848.545424 -57.6288 
L 847.881213 -57.6288 
L 847.217003 -57.6288 
L 846.552792 -57.6288 
L 845.888582 -57.6288 
L 845.224371 -57.6288 
L 844.560161 -57.6288 
L 843.89595 -57.6288 
L 843.23174 -57.6288 
L 842.567529 -57.6288 
L 841.903319 -57.6288 
L 841.239108 -57.6288 
L 840.574898 -57.6288 
L 839.910687 -57.6288 
L 839.246477 -57.6288 
L 838.582266 -57.6288 
L 837.918056 -57.6288 
L 837.253845 -57.6288 
L 836.589635 -57.6288 
L 835.925424 -57.6288 
L 835.261214 -57.6288 
L 834.597003 -57.6288 
L 833.932793 -57.6288 
L 833.268582 -57.6288 
L 832.604372 -57.6288 
L 831.940161 -57.6288 
L 831.275951 -57.6288 
L 830.61174 -57.6288 
L 829.947529 -57.6288 
L 829.283319 -57.6288 
L 828.619108 -57.6288 
L 827.954898 -57.6288 
L 827.290687 -57.6288 
L 826.626477 -57.6288 
L 825.962266 -57.6288 
L 825.298056 -57.6288 
L 824.633845 -57.6288 
L 823.969635 -57.6288 
L 823.305424 -57.6288 
L 822.641214 -57.6288 
L 821.977003 -57.6288 
L 821.312793 -57.6288 
L 820.648582 -57.6288 
L 819.984372 -57.6288 
L 819.320161 -57.6288 
L 818.655951 -57.6288 
L 817.99174 -57.6288 
L 817.32753 -57.6288 
L 816.663319 -57.6288 
L 815.999109 -57.6288 
L 815.334898 -57.6288 
L 814.670688 -57.6288 
L 814.006477 -57.6288 
L 813.342267 -57.6288 
L 812.678056 -57.6288 
L 812.013846 -57.6288 
L 811.349635 -57.6288 
L 810.685425 -57.6288 
L 810.021214 -57.6288 
L 809.357004 -57.6288 
L 808.692793 -57.6288 
L 808.028583 -57.6288 
L 807.364372 -57.6288 
L 806.700162 -57.6288 
L 806.035951 -57.6288 
L 805.371741 -57.6288 
L 804.70753 -57.6288 
L 804.04332 -57.6288 
L 803.379109 -57.6288 
L 802.714899 -57.6288 
L 802.050688 -57.6288 
L 801.386478 -57.6288 
L 800.722267 -57.6288 
L 800.058057 -57.6288 
L 799.393846 -57.6288 
L 798.729636 -57.6288 
L 798.065425 -57.6288 
L 797.401215 -57.6288 
L 796.737004 -57.6288 
L 796.072794 -57.6288 
L 795.408583 -57.6288 
L 794.744372 -57.6288 
L 794.080162 -57.6288 
L 793.415951 -57.6288 
L 792.751741 -57.6288 
L 792.08753 -57.6288 
L 791.42332 -57.6288 
L 790.759109 -57.6288 
L 790.094899 -57.6288 
L 789.430688 -57.6288 
L 788.766478 -57.6288 
L 788.102267 -57.6288 
L 787.438057 -57.6288 
L 786.773846 -57.6288 
L 786.109636 -57.6288 
L 785.445425 -57.6288 
L 784.781215 -57.6288 
L 784.117004 -57.6288 
L 783.452794 -57.6288 
L 782.788583 -57.6288 
L 782.124373 -57.6288 
L 781.460162 -57.6288 
L 780.795952 -57.6288 
L 780.131741 -57.6288 
L 779.467531 -57.6288 
L 778.80332 -57.6288 
L 778.13911 -57.6288 
L 777.474899 -57.6288 
L 776.810689 -57.6288 
L 776.146478 -57.6288 
L 775.482268 -57.6288 
L 774.818057 -57.6288 
L 774.153847 -57.6288 
L 773.489636 -57.6288 
L 772.825426 -57.6288 
L 772.161215 -57.6288 
L 771.497005 -57.6288 
L 770.832794 -57.6288 
L 770.168584 -57.6288 
L 769.504373 -57.6288 
L 768.840163 -57.6288 
L 768.175952 -57.6288 
L 767.511742 -57.6288 
L 766.847531 -57.6288 
L 766.183321 -57.6288 
L 765.51911 -57.6288 
L 764.8549 -57.6288 
L 764.190689 -57.6288 
L 763.526479 -57.6288 
L 762.862268 -57.6288 
L 762.198058 -57.6288 
L 761.533847 -57.6288 
L 760.869637 -57.6288 
L 760.205426 -57.6288 
L 759.541216 -57.6288 
L 758.877005 -57.6288 
L 758.212794 -57.6288 
L 757.548584 -57.6288 
L 756.884373 -57.6288 
L 756.220163 -57.6288 
L 755.555952 -57.6288 
L 754.891742 -57.6288 
L 754.227531 -57.6288 
L 753.563321 -57.6288 
L 752.89911 -57.6288 
L 752.2349 -57.6288 
L 751.570689 -57.6288 
L 750.906479 -57.6288 
L 750.242268 -57.6288 
L 749.578058 -57.6288 
L 748.913847 -57.6288 
L 748.249637 -57.6288 
L 747.585426 -57.6288 
L 746.921216 -57.6288 
L 746.257005 -57.6288 
L 745.592795 -57.6288 
L 744.928584 -57.6288 
L 744.264374 -57.6288 
L 743.600163 -57.6288 
L 742.935953 -57.6288 
L 742.271742 -57.6288 
L 741.607532 -57.6288 
L 740.943321 -57.6288 
L 740.279111 -57.6288 
L 739.6149 -57.6288 
L 738.95069 -57.6288 
L 738.286479 -57.6288 
L 737.622269 -57.6288 
L 736.958058 -57.6288 
L 736.293848 -57.6288 
L 735.629637 -57.6288 
L 734.965427 -57.6288 
L 734.301216 -57.6288 
L 733.637006 -57.6288 
L 732.972795 -57.6288 
L 732.308585 -57.6288 
L 731.644374 -57.6288 
L 730.980164 -57.6288 
L 730.315953 -57.6288 
L 729.651743 -57.6288 
L 728.987532 -57.6288 
L 728.323322 -57.6288 
L 727.659111 -57.6288 
L 726.994901 -57.6288 
L 726.33069 -57.6288 
L 725.66648 -57.6288 
L 725.002269 -57.6288 
L 724.338059 -57.6288 
L 723.673848 -57.6288 
L 723.009637 -57.6288 
L 722.345427 -57.6288 
L 721.681216 -57.6288 
L 721.017006 -57.6288 
L 720.352795 -57.6288 
L 719.688585 -57.6288 
L 719.024374 -57.6288 
L 718.360164 -57.6288 
L 717.695953 -57.6288 
L 717.031743 -57.6288 
L 716.367532 -57.6288 
L 715.703322 -57.6288 
L 715.039111 -57.6288 
L 714.374901 -57.6288 
L 713.71069 -57.6288 
L 713.04648 -57.6288 
L 712.382269 -57.6288 
L 711.718059 -57.6288 
L 711.053848 -57.6288 
L 710.389638 -57.6288 
L 709.725427 -57.6288 
L 709.061217 -57.6288 
L 708.397006 -57.6288 
L 707.732796 -57.6288 
L 707.068585 -57.6288 
L 706.404375 -57.6288 
L 705.740164 -57.6288 
L 705.075954 -57.6288 
L 704.411743 -57.6288 
L 703.747533 -57.6288 
L 703.083322 -57.6288 
L 702.419112 -57.6288 
L 701.754901 -57.6288 
L 701.090691 -57.6288 
L 700.42648 -57.6288 
L 699.76227 -57.6288 
L 699.098059 -57.6288 
L 698.433849 -57.6288 
L 697.769638 -57.6288 
L 697.105428 -57.6288 
L 696.441217 -57.6288 
L 695.777007 -57.6288 
L 695.112796 -57.6288 
L 694.448586 -57.6288 
L 693.784375 -57.6288 
L 693.120165 -57.6288 
L 692.455954 -57.6288 
L 691.791744 -57.6288 
L 691.127533 -57.6288 
L 690.463323 -57.6288 
L 689.799112 -57.6288 
L 689.134902 -57.6288 
L 688.470691 -57.6288 
L 687.806481 -57.6288 
L 687.14227 -57.6288 
L 686.478059 -57.6288 
L 685.813849 -57.6288 
L 685.149638 -57.6288 
L 684.485428 -57.6288 
L 683.821217 -57.6288 
L 683.157007 -57.6288 
L 682.492796 -57.6288 
L 681.828586 -57.6288 
L 681.164375 -57.6288 
L 680.500165 -57.6288 
L 679.835954 -57.6288 
L 679.171744 -57.6288 
L 678.507533 -57.6288 
L 677.843323 -57.6288 
L 677.179112 -57.6288 
L 676.514902 -57.6288 
L 675.850691 -57.6288 
L 675.186481 -57.6288 
L 674.52227 -57.6288 
L 673.85806 -57.6288 
L 673.193849 -57.6288 
L 672.529639 -57.6288 
L 671.865428 -57.6288 
L 671.201218 -57.6288 
L 670.537007 -57.6288 
L 669.872797 -57.6288 
L 669.208586 -57.6288 
L 668.544376 -57.6288 
L 667.880165 -57.6288 
L 667.215955 -57.6288 
L 666.551744 -57.6288 
L 665.887534 -57.6288 
L 665.223323 -57.6288 
L 664.559113 -57.6288 
L 663.894902 -57.6288 
L 663.230692 -57.6288 
L 662.566481 -57.6288 
L 661.902271 -57.6288 
L 661.23806 -57.6288 
L 660.57385 -57.6288 
L 659.909639 -57.6288 
L 659.245429 -57.6288 
L 658.581218 -57.6288 
L 657.917008 -57.6288 
L 657.252797 -57.6288 
L 656.588587 -57.6288 
L 655.924376 -57.6288 
L 655.260166 -57.6288 
L 654.595955 -57.6288 
L 653.931745 -57.6288 
L 653.267534 -57.6288 
L 652.603324 -57.6288 
L 651.939113 -57.6288 
L 651.274902 -57.6288 
L 650.610692 -57.6288 
L 649.946481 -57.6288 
L 649.282271 -57.6288 
L 648.61806 -57.6288 
L 647.95385 -57.6288 
L 647.289639 -57.6288 
L 646.625429 -57.6288 
L 645.961218 -57.6288 
L 645.297008 -57.6288 
L 644.632797 -57.6288 
L 643.968587 -57.6288 
L 643.304376 -57.6288 
L 642.640166 -57.6288 
L 641.975955 -57.6288 
L 641.311745 -57.6288 
L 640.647534 -57.6288 
L 639.983324 -57.6288 
L 639.319113 -57.6288 
L 638.654903 -57.6288 
L 637.990692 -57.6288 
L 637.326482 -57.6288 
L 636.662271 -57.6288 
L 635.998061 -57.6288 
L 635.33385 -57.6288 
L 634.66964 -57.6288 
L 634.005429 -57.6288 
L 633.341219 -57.6288 
L 632.677008 -57.6288 
L 632.012798 -57.6288 
L 631.348587 -57.6288 
L 630.684377 -57.6288 
L 630.020166 -57.6288 
L 629.355956 -57.6288 
L 628.691745 -57.6288 
L 628.027535 -57.6288 
L 627.363324 -57.6288 
L 626.699114 -57.6288 
L 626.034903 -57.6288 
L 625.370693 -57.6288 
L 624.706482 -57.6288 
L 624.042272 -57.6288 
L 623.378061 -57.6288 
L 622.713851 -57.6288 
L 622.04964 -57.6288 
L 621.38543 -57.6288 
L 620.721219 -57.6288 
L 620.057009 -57.6288 
L 619.392798 -57.6288 
L 618.728588 -57.6288 
L 618.064377 -57.6288 
L 617.400167 -57.6288 
L 616.735956 -57.6288 
L 616.071745 -57.6288 
L 615.407535 -57.6288 
L 614.743324 -57.6288 
L 614.079114 -57.6288 
L 613.414903 -57.6288 
L 612.750693 -57.6288 
L 612.086482 -57.6288 
L 611.422272 -57.6288 
L 610.758061 -57.6288 
L 610.093851 -57.6288 
L 609.42964 -57.6288 
L 608.76543 -57.6288 
L 608.101219 -57.6288 
L 607.437009 -57.6288 
L 606.772798 -57.6288 
L 606.108588 -57.6288 
L 605.444377 -57.6288 
L 604.780167 -57.6288 
L 604.115956 -57.6288 
L 603.451746 -57.6288 
L 602.787535 -57.6288 
L 602.123325 -57.6288 
L 601.459114 -57.6288 
L 600.794904 -57.6288 
L 600.130693 -57.6288 
L 599.466483 -57.6288 
L 598.802272 -57.6288 
L 598.138062 -57.6288 
L 597.473851 -57.6288 
z
" style="stroke: #1f77b4; stroke-opacity: 0"/>
    </defs>
    <g clip-path="url(#pa562656ebb)">
     <use xlink:href="#ma4a80f65c6" x="0" y="397.44" style="fill: #1f77b4; fill-opacity: 0; stroke: #1f77b4; stroke-opacity: 0"/>
    </g>
   </g>
   <g id="matplotlib.axis_3">
    <g id="xtick_8">
     <g id="line2d_10">
      <g>
       <use xlink:href="#m69c2a062fa" x="619.430717" y="353.7216" style="fill: #808080; stroke: #808080"/>
      </g>
     </g>
     <g id="text_13">
      <!-- 0.02 -->
      <g transform="translate(603.844779 370.859412) scale(0.14 -0.14)">
       <use xlink:href="#DejaVuSans-30"/>
       <use xlink:href="#DejaVuSans-2e" x="63.623047"/>
       <use xlink:href="#DejaVuSans-30" x="95.410156"/>
       <use xlink:href="#DejaVuSans-32" x="159.033203"/>
      </g>
     </g>
    </g>
    <g id="xtick_9">
     <g id="line2d_11">
      <g>
       <use xlink:href="#m69c2a062fa" x="670.357297" y="353.7216" style="fill: #808080; stroke: #808080"/>
      </g>
     </g>
     <g id="text_14">
      <!-- 0.04 -->
      <g transform="translate(654.77136 370.859412) scale(0.14 -0.14)">
       <use xlink:href="#DejaVuSans-30"/>
       <use xlink:href="#DejaVuSans-2e" x="63.623047"/>
       <use xlink:href="#DejaVuSans-30" x="95.410156"/>
       <use xlink:href="#DejaVuSans-34" x="159.033203"/>
      </g>
     </g>
    </g>
    <g id="xtick_10">
     <g id="line2d_12">
      <g>
       <use xlink:href="#m69c2a062fa" x="721.283878" y="353.7216" style="fill: #808080; stroke: #808080"/>
      </g>
     </g>
     <g id="text_15">
      <!-- 0.06 -->
      <g transform="translate(705.69794 370.859412) scale(0.14 -0.14)">
       <use xlink:href="#DejaVuSans-30"/>
       <use xlink:href="#DejaVuSans-2e" x="63.623047"/>
       <use xlink:href="#DejaVuSans-30" x="95.410156"/>
       <use xlink:href="#DejaVuSans-36" x="159.033203"/>
      </g>
     </g>
    </g>
    <g id="xtick_11">
     <g id="line2d_13">
      <g>
       <use xlink:href="#m69c2a062fa" x="772.210458" y="353.7216" style="fill: #808080; stroke: #808080"/>
      </g>
     </g>
     <g id="text_16">
      <!-- 0.08 -->
      <g transform="translate(756.624521 370.859412) scale(0.14 -0.14)">
       <use xlink:href="#DejaVuSans-30"/>
       <use xlink:href="#DejaVuSans-2e" x="63.623047"/>
       <use xlink:href="#DejaVuSans-30" x="95.410156"/>
       <use xlink:href="#DejaVuSans-38" x="159.033203"/>
      </g>
     </g>
    </g>
    <g id="xtick_12">
     <g id="line2d_14">
      <g>
       <use xlink:href="#m69c2a062fa" x="823.137039" y="353.7216" style="fill: #808080; stroke: #808080"/>
      </g>
     </g>
     <g id="text_17">
      <!-- 0.10 -->
      <g transform="translate(807.551101 370.859412) scale(0.14 -0.14)">
       <use xlink:href="#DejaVuSans-30"/>
       <use xlink:href="#DejaVuSans-2e" x="63.623047"/>
       <use xlink:href="#DejaVuSans-31" x="95.410156"/>
       <use xlink:href="#DejaVuSans-30" x="159.033203"/>
      </g>
     </g>
    </g>
    <g id="xtick_13">
     <g id="line2d_15">
      <g>
       <use xlink:href="#m69c2a062fa" x="874.063619" y="353.7216" style="fill: #808080; stroke: #808080"/>
      </g>
     </g>
     <g id="text_18">
      <!-- 0.12 -->
      <g transform="translate(858.477682 370.859412) scale(0.14 -0.14)">
       <use xlink:href="#DejaVuSans-30"/>
       <use xlink:href="#DejaVuSans-2e" x="63.623047"/>
       <use xlink:href="#DejaVuSans-31" x="95.410156"/>
       <use xlink:href="#DejaVuSans-32" x="159.033203"/>
      </g>
     </g>
    </g>
    <g id="xtick_14">
     <g id="line2d_16">
      <g>
       <use xlink:href="#m69c2a062fa" x="924.990199" y="353.7216" style="fill: #808080; stroke: #808080"/>
      </g>
     </g>
     <g id="text_19">
      <!-- 0.14 -->
      <g transform="translate(909.404262 370.859412) scale(0.14 -0.14)">
       <use xlink:href="#DejaVuSans-30"/>
       <use xlink:href="#DejaVuSans-2e" x="63.623047"/>
       <use xlink:href="#DejaVuSans-31" x="95.410156"/>
       <use xlink:href="#DejaVuSans-34" x="159.033203"/>
      </g>
     </g>
    </g>
   </g>
   <g id="matplotlib.axis_4"/>
   <g id="line2d_17">
    <path d="M 597.473851 339.796661 
L 606.772798 339.699635 
L 610.758061 339.445555 
L 613.414903 339.113206 
L 616.735956 338.488947 
L 618.728588 337.936026 
L 620.057009 337.391658 
L 622.04964 336.291241 
L 624.706482 334.504227 
L 626.699114 332.962447 
L 628.027535 331.715832 
L 629.355956 330.166528 
L 630.684377 328.254936 
L 632.677008 324.846601 
L 635.33385 319.753381 
L 636.662271 316.872284 
L 637.990692 313.533931 
L 639.319113 309.634081 
L 641.311745 302.981121 
L 643.304376 295.715429 
L 645.297008 287.691299 
L 648.61806 273.133526 
L 651.274902 260.73682 
L 653.267534 250.065925 
L 656.588587 230.233603 
L 663.230692 189.527216 
L 666.551744 169.414276 
L 673.85806 127.156361 
L 675.850691 117.905068 
L 677.843323 108.952516 
L 682.492796 86.465885 
L 683.821217 81.412569 
L 685.149638 77.17051 
L 687.14227 71.625927 
L 688.470691 68.619261 
L 689.134902 67.473959 
L 690.463323 65.817628 
L 693.120165 63.359268 
L 694.448586 62.296 
L 695.112796 61.924226 
L 695.777007 61.691124 
L 696.441217 61.6032 
L 697.105428 61.685528 
L 697.769638 61.950161 
L 698.433849 62.437686 
L 699.098059 63.132106 
L 700.42648 64.97269 
L 703.083322 68.999481 
L 703.747533 70.240248 
L 705.075954 73.443822 
L 709.061217 84.856708 
L 711.718059 91.481854 
L 713.04648 95.707212 
L 714.374901 100.963034 
L 719.024374 121.527869 
L 721.017006 128.992846 
L 722.345427 134.806732 
L 725.002269 147.069217 
L 728.323322 161.095739 
L 732.972795 182.65403 
L 738.95069 209.037913 
L 740.943321 217.664275 
L 742.935953 225.342643 
L 748.913847 246.935733 
L 752.2349 257.517918 
L 757.548584 274.148503 
L 759.541216 279.345987 
L 762.862268 287.394942 
L 764.8549 291.728155 
L 766.847531 295.588531 
L 770.168584 301.692975 
L 772.825426 306.754926 
L 774.818057 309.869835 
L 778.13911 314.44847 
L 780.131741 316.88832 
L 782.788583 319.731255 
L 785.445425 322.234028 
L 788.102267 324.402041 
L 794.744372 329.273899 
L 797.401215 330.661724 
L 802.714899 333.42018 
L 806.035951 334.650719 
L 808.028583 335.208571 
L 811.349635 335.810849 
L 820.648582 337.573578 
L 823.969635 338.188824 
L 827.290687 338.473652 
L 833.268582 338.773441 
L 836.589635 338.977277 
L 841.239108 339.302636 
L 851.202266 339.526361 
L 887.733844 339.797074 
L 932.900158 339.809972 
L 936.885421 339.800545 
L 936.885421 339.800545 
" clip-path="url(#pa562656ebb)" style="fill: none; stroke: #1f77b4; stroke-width: 1.5; stroke-linecap: square"/>
   </g>
   <g id="line2d_18">
    <path d="M 643.199461 333.968832 
L 769.243107 333.968832 
" clip-path="url(#pa562656ebb)" style="fill: none; stroke: #000000; stroke-width: 3"/>
   </g>
   <g id="patch_5">
    <path d="M 580.503273 353.7216 
L 953.856 353.7216 
" style="fill: none; stroke: #808080; stroke-width: 0.8; stroke-linejoin: miter; stroke-linecap: square"/>
   </g>
   <g id="text_20">
    <!-- 0.029  -->
    <g transform="translate(595.490086 319.362912) scale(0.15 -0.15)">
     <use xlink:href="#DejaVuSans-30"/>
     <use xlink:href="#DejaVuSans-2e" x="63.623047"/>
     <use xlink:href="#DejaVuSans-30" x="95.410156"/>
     <use xlink:href="#DejaVuSans-32" x="159.033203"/>
     <use xlink:href="#DejaVuSans-39" x="222.65625"/>
     <use xlink:href="#DejaVuSans-20" x="286.279297"/>
    </g>
   </g>
   <g id="text_21">
    <!--  0.079 -->
    <g transform="translate(769.243107 319.362912) scale(0.15 -0.15)">
     <use xlink:href="#DejaVuSans-20"/>
     <use xlink:href="#DejaVuSans-30" x="31.787109"/>
     <use xlink:href="#DejaVuSans-2e" x="95.410156"/>
     <use xlink:href="#DejaVuSans-30" x="127.197266"/>
     <use xlink:href="#DejaVuSans-37" x="190.820312"/>
     <use xlink:href="#DejaVuSans-39" x="254.443359"/>
    </g>
   </g>
   <g id="text_22">
    <!-- 95% HDI -->
    <g transform="translate(673.540034 252.17568) scale(0.15 -0.15)">
     <use xlink:href="#DejaVuSans-39"/>
     <use xlink:href="#DejaVuSans-35" x="63.623047"/>
     <use xlink:href="#DejaVuSans-25" x="127.246094"/>
     <use xlink:href="#DejaVuSans-20" x="222.265625"/>
     <use xlink:href="#DejaVuSans-48" x="254.052734"/>
     <use xlink:href="#DejaVuSans-44" x="329.248047"/>
     <use xlink:href="#DejaVuSans-49" x="406.25"/>
    </g>
   </g>
   <g id="text_23">
    <!-- mean=0.053 -->
    <g transform="translate(654.354786 106.11648) scale(0.15 -0.15)">
     <use xlink:href="#DejaVuSans-6d"/>
     <use xlink:href="#DejaVuSans-65" x="97.412109"/>
     <use xlink:href="#DejaVuSans-61" x="158.935547"/>
     <use xlink:href="#DejaVuSans-6e" x="220.214844"/>
     <use xlink:href="#DejaVuSans-3d" x="283.59375"/>
     <use xlink:href="#DejaVuSans-30" x="367.382812"/>
     <use xlink:href="#DejaVuSans-2e" x="431.005859"/>
     <use xlink:href="#DejaVuSans-30" x="462.792969"/>
     <use xlink:href="#DejaVuSans-35" x="526.416016"/>
     <use xlink:href="#DejaVuSans-33" x="590.039062"/>
    </g>
   </g>
   <g id="text_24">
    <!-- biased_θ -->
    <g transform="translate(731.912136 41.6928) scale(0.16 -0.16)">
     <defs>
      <path id="DejaVuSans-62" d="M 3116 1747 
Q 3116 2381 2855 2742 
Q 2594 3103 2138 3103 
Q 1681 3103 1420 2742 
Q 1159 2381 1159 1747 
Q 1159 1113 1420 752 
Q 1681 391 2138 391 
Q 2594 391 2855 752 
Q 3116 1113 3116 1747 
z
M 1159 2969 
Q 1341 3281 1617 3432 
Q 1894 3584 2278 3584 
Q 2916 3584 3314 3078 
Q 3713 2572 3713 1747 
Q 3713 922 3314 415 
Q 2916 -91 2278 -91 
Q 1894 -91 1617 61 
Q 1341 213 1159 525 
L 1159 0 
L 581 0 
L 581 4863 
L 1159 4863 
L 1159 2969 
z
" transform="scale(0.015625)"/>
      <path id="DejaVuSans-69" d="M 603 3500 
L 1178 3500 
L 1178 0 
L 603 0 
L 603 3500 
z
M 603 4863 
L 1178 4863 
L 1178 4134 
L 603 4134 
L 603 4863 
z
" transform="scale(0.015625)"/>
      <path id="DejaVuSans-73" d="M 2834 3397 
L 2834 2853 
Q 2591 2978 2328 3040 
Q 2066 3103 1784 3103 
Q 1356 3103 1142 2972 
Q 928 2841 928 2578 
Q 928 2378 1081 2264 
Q 1234 2150 1697 2047 
L 1894 2003 
Q 2506 1872 2764 1633 
Q 3022 1394 3022 966 
Q 3022 478 2636 193 
Q 2250 -91 1575 -91 
Q 1294 -91 989 -36 
Q 684 19 347 128 
L 347 722 
Q 666 556 975 473 
Q 1284 391 1588 391 
Q 1994 391 2212 530 
Q 2431 669 2431 922 
Q 2431 1156 2273 1281 
Q 2116 1406 1581 1522 
L 1381 1569 
Q 847 1681 609 1914 
Q 372 2147 372 2553 
Q 372 3047 722 3315 
Q 1072 3584 1716 3584 
Q 2034 3584 2315 3537 
Q 2597 3491 2834 3397 
z
" transform="scale(0.015625)"/>
      <path id="DejaVuSans-64" d="M 2906 2969 
L 2906 4863 
L 3481 4863 
L 3481 0 
L 2906 0 
L 2906 525 
Q 2725 213 2448 61 
Q 2172 -91 1784 -91 
Q 1150 -91 751 415 
Q 353 922 353 1747 
Q 353 2572 751 3078 
Q 1150 3584 1784 3584 
Q 2172 3584 2448 3432 
Q 2725 3281 2906 2969 
z
M 947 1747 
Q 947 1113 1208 752 
Q 1469 391 1925 391 
Q 2381 391 2643 752 
Q 2906 1113 2906 1747 
Q 2906 2381 2643 2742 
Q 2381 3103 1925 3103 
Q 1469 3103 1208 2742 
Q 947 2381 947 1747 
z
" transform="scale(0.015625)"/>
      <path id="DejaVuSans-5f" d="M 3263 -1063 
L 3263 -1509 
L -63 -1509 
L -63 -1063 
L 3263 -1063 
z
" transform="scale(0.015625)"/>
     </defs>
     <use xlink:href="#DejaVuSans-62"/>
     <use xlink:href="#DejaVuSans-69" x="63.476562"/>
     <use xlink:href="#DejaVuSans-61" x="91.259766"/>
     <use xlink:href="#DejaVuSans-73" x="152.539062"/>
     <use xlink:href="#DejaVuSans-65" x="204.638672"/>
     <use xlink:href="#DejaVuSans-64" x="266.162109"/>
     <use xlink:href="#DejaVuSans-5f" x="329.638672"/>
     <use xlink:href="#DejaVuSans-3b8" x="379.638672"/>
    </g>
   </g>
  </g>
 </g>
 <defs>
  <clipPath id="p867180daef">
   <rect x="132.48" y="47.6928" width="373.352727" height="306.0288"/>
  </clipPath>
  <clipPath id="pa562656ebb">
   <rect x="580.503273" y="47.6928" width="373.352727" height="306.0288"/>
  </clipPath>
 </defs>
</svg>
