<?xml version="1.0" encoding="utf-8" standalone="no"?>
<!DOCTYPE svg PUBLIC "-//W3C//DTD SVG 1.1//EN"
  "http://www.w3.org/Graphics/SVG/1.1/DTD/svg11.dtd">
<svg xmlns:xlink="http://www.w3.org/1999/xlink" width="1059.84pt" height="397.44pt" viewBox="0 0 1059.84 397.44" xmlns="http://www.w3.org/2000/svg" version="1.1">
 <metadata>
  <rdf:RDF xmlns:dc="http://purl.org/dc/elements/1.1/" xmlns:cc="http://creativecommons.org/ns#" xmlns:rdf="http://www.w3.org/1999/02/22-rdf-syntax-ns#">
   <cc:Work>
    <dc:type rdf:resource="http://purl.org/dc/dcmitype/StillImage"/>
    <dc:format>image/svg+xml</dc:format>
   </cc:Work>
  </rdf:RDF>
 </metadata>
 <defs>
  <style type="text/css">*{stroke-linejoin: round; stroke-linecap: butt}</style>
 </defs>
 <g id="figure_1">
  <g id="patch_1">
   <path d="M 0 397.44 
L 1059.84 397.44 
L 1059.84 0 
L 0 0 
z
" style="fill: #ffffff"/>
  </g>
  <g id="axes_1">
   <g id="patch_2">
    <path d="M 132.48 353.7216 
L 505.832727 353.7216 
L 505.832727 47.6928 
L 132.48 47.6928 
z
" style="fill: #ffffff"/>
   </g>
   <g id="PolyCollection_1">
    <defs>
     <path id="m13422ecd82" d="M 149.450579 -57.6288 
L 149.450579 -57.671612 
L 150.114789 -57.672998 
L 150.779 -57.676632 
L 151.44321 -57.682626 
L 152.107421 -57.691578 
L 152.771631 -57.703697 
L 153.435842 -57.71836 
L 154.100052 -57.736276 
L 154.764263 -57.75651 
L 155.428473 -57.779447 
L 156.092684 -57.805413 
L 156.756894 -57.835213 
L 157.421105 -57.869906 
L 158.085315 -57.910065 
L 158.749526 -57.956329 
L 159.413736 -58.008063 
L 160.077947 -58.065546 
L 160.742157 -58.128214 
L 161.406368 -58.197814 
L 162.070578 -58.275263 
L 162.734789 -58.363797 
L 163.398999 -58.464865 
L 164.06321 -58.580791 
L 164.72742 -58.712783 
L 165.391631 -58.862681 
L 166.055841 -59.032603 
L 166.720052 -59.222424 
L 167.384262 -59.43352 
L 168.048473 -59.663571 
L 168.712683 -59.910875 
L 169.376894 -60.174315 
L 170.041104 -60.452295 
L 170.705315 -60.746899 
L 171.369525 -61.060693 
L 172.033736 -61.396049 
L 172.697946 -61.760052 
L 173.362157 -62.158325 
L 174.026367 -62.596149 
L 174.690578 -63.079657 
L 175.354788 -63.617446 
L 176.018999 -64.21344 
L 176.683209 -64.867953 
L 177.34742 -65.581394 
L 178.01163 -66.355282 
L 178.675841 -67.187073 
L 179.340051 -68.077634 
L 180.004262 -69.025115 
L 180.668472 -70.027845 
L 181.332683 -71.08101 
L 181.996893 -72.181165 
L 182.661104 -73.326689 
L 183.325314 -74.513954 
L 183.989525 -75.750026 
L 184.653736 -77.044566 
L 185.317946 -78.402892 
L 185.982157 -79.835745 
L 186.646367 -81.34297 
L 187.310578 -82.925407 
L 187.974788 -84.574753 
L 188.638999 -86.285606 
L 189.303209 -88.059602 
L 189.96742 -89.910388 
L 190.63163 -91.84887 
L 191.295841 -93.889331 
L 191.960051 -96.043968 
L 192.624262 -98.308447 
L 193.288472 -100.672334 
L 193.952683 -103.105065 
L 194.616893 -105.592762 
L 195.281104 -108.10883 
L 195.945314 -110.64939 
L 196.609525 -113.239043 
L 197.273735 -115.887451 
L 197.937946 -118.629321 
L 198.602156 -121.49541 
L 199.266367 -124.484196 
L 199.930577 -127.595834 
L 200.594788 -130.814687 
L 201.258998 -134.126646 
L 201.923209 -137.504027 
L 202.587419 -140.930112 
L 203.25163 -144.375709 
L 203.91584 -147.832825 
L 204.580051 -151.27675 
L 205.244261 -154.695429 
L 205.908472 -158.110145 
L 206.572682 -161.54427 
L 207.236893 -165.021794 
L 207.901103 -168.569395 
L 208.565314 -172.21385 
L 209.229524 -175.972599 
L 209.893735 -179.823017 
L 210.557945 -183.762205 
L 211.222156 -187.761146 
L 211.886366 -191.787589 
L 212.550577 -195.823202 
L 213.214787 -199.844745 
L 213.878998 -203.834687 
L 214.543208 -207.807454 
L 215.207419 -211.765523 
L 215.871629 -215.727998 
L 216.53584 -219.702465 
L 217.20005 -223.69955 
L 217.864261 -227.736272 
L 218.528471 -231.818473 
L 219.192682 -235.934288 
L 219.856892 -240.073716 
L 220.521103 -244.239093 
L 221.185314 -248.378113 
L 221.849524 -252.462112 
L 222.513735 -256.432738 
L 223.177945 -260.253448 
L 223.842156 -263.886746 
L 224.506366 -267.319847 
L 225.170577 -270.56892 
L 225.834787 -273.673282 
L 226.498998 -276.635728 
L 227.163208 -279.472302 
L 227.827419 -282.174207 
L 228.491629 -284.771413 
L 229.15584 -287.286243 
L 229.82005 -289.785164 
L 230.484261 -292.328158 
L 231.148471 -294.961061 
L 231.812682 -297.696035 
L 232.476892 -300.485746 
L 233.141103 -303.256733 
L 233.805313 -305.921831 
L 234.469524 -308.455672 
L 235.133734 -310.83608 
L 235.797945 -313.109757 
L 236.462155 -315.325274 
L 237.126366 -317.491839 
L 237.790576 -319.605723 
L 238.454787 -321.635813 
L 239.118997 -323.536327 
L 239.783208 -325.282815 
L 240.447418 -326.852657 
L 241.111629 -328.261971 
L 241.775839 -329.51474 
L 242.44005 -330.640342 
L 243.10426 -331.65151 
L 243.768471 -332.555333 
L 244.432681 -333.364884 
L 245.096892 -334.06612 
L 245.761102 -334.669545 
L 246.425313 -335.158365 
L 247.089523 -335.522936 
L 247.753734 -335.744748 
L 248.417944 -335.8368 
L 249.082155 -335.806601 
L 249.746365 -335.652345 
L 250.410576 -335.428762 
L 251.074786 -335.149632 
L 251.738997 -334.807391 
L 252.403207 -334.421931 
L 253.067418 -333.982153 
L 253.731628 -333.462323 
L 254.395839 -332.816547 
L 255.060049 -332.00862 
L 255.72426 -331.005864 
L 256.388471 -329.817195 
L 257.052681 -328.44808 
L 257.716892 -326.947843 
L 258.381102 -325.350626 
L 259.045313 -323.67354 
L 259.709523 -321.946278 
L 260.373734 -320.148821 
L 261.037944 -318.291946 
L 261.702155 -316.372421 
L 262.366365 -314.412828 
L 263.030576 -312.456909 
L 263.694786 -310.483558 
L 264.358997 -308.505719 
L 265.023207 -306.514782 
L 265.687418 -304.449333 
L 266.351628 -302.285815 
L 267.015839 -299.984498 
L 267.680049 -297.555085 
L 268.34426 -295.025535 
L 269.00847 -292.433663 
L 269.672681 -289.825782 
L 270.336891 -287.247854 
L 271.001102 -284.722282 
L 271.665312 -282.282233 
L 272.329523 -279.925529 
L 272.993733 -277.631019 
L 273.657944 -275.36976 
L 274.322154 -273.086037 
L 274.986365 -270.722878 
L 275.650575 -268.242438 
L 276.314786 -265.644315 
L 276.978996 -262.966913 
L 277.643207 -260.248741 
L 278.307417 -257.54494 
L 278.971628 -254.870592 
L 279.635838 -252.239263 
L 280.300049 -249.617974 
L 280.964259 -246.967042 
L 281.62847 -244.263781 
L 282.29268 -241.505581 
L 282.956891 -238.691289 
L 283.621101 -235.849713 
L 284.285312 -232.999694 
L 284.949522 -230.149594 
L 285.613733 -227.32275 
L 286.277943 -224.504691 
L 286.942154 -221.697441 
L 287.606364 -218.895162 
L 288.270575 -216.093711 
L 288.934785 -213.319701 
L 289.598996 -210.589161 
L 290.263206 -207.93227 
L 290.927417 -205.36766 
L 291.591628 -202.875947 
L 292.255838 -200.441667 
L 292.920049 -198.017864 
L 293.584259 -195.585824 
L 294.24847 -193.111416 
L 294.91268 -190.587091 
L 295.576891 -188.006002 
L 296.241101 -185.395285 
L 296.905312 -182.767905 
L 297.569522 -180.140024 
L 298.233733 -177.55161 
L 298.897943 -175.004028 
L 299.562154 -172.534724 
L 300.226364 -170.123246 
L 300.890575 -167.746434 
L 301.554785 -165.380928 
L 302.218996 -162.972112 
L 302.883206 -160.523939 
L 303.547417 -158.03864 
L 304.211627 -155.551295 
L 304.875838 -153.130051 
L 305.540048 -150.810631 
L 306.204259 -148.60791 
L 306.868469 -146.530265 
L 307.53268 -144.558559 
L 308.19689 -142.653903 
L 308.861101 -140.798309 
L 309.525311 -138.966878 
L 310.189522 -137.135191 
L 310.853732 -135.301546 
L 311.517943 -133.439494 
L 312.182153 -131.557358 
L 312.846364 -129.648497 
L 313.510574 -127.74362 
L 314.174785 -125.860624 
L 314.838995 -124.028435 
L 315.503206 -122.255635 
L 316.167416 -120.538933 
L 316.831627 -118.885189 
L 317.495837 -117.291231 
L 318.160048 -115.738977 
L 318.824258 -114.242044 
L 319.488469 -112.788873 
L 320.152679 -111.368922 
L 320.81689 -109.964953 
L 321.4811 -108.561789 
L 322.145311 -107.154254 
L 322.809521 -105.746793 
L 323.473732 -104.354869 
L 324.137942 -102.997179 
L 324.802153 -101.704251 
L 325.466363 -100.486501 
L 326.130574 -99.350553 
L 326.794784 -98.292327 
L 327.458995 -97.302175 
L 328.123206 -96.365739 
L 328.787416 -95.477076 
L 329.451627 -94.617563 
L 330.115837 -93.768126 
L 330.780048 -92.902877 
L 331.444258 -92.010863 
L 332.108469 -91.075034 
L 332.772679 -90.099678 
L 333.43689 -89.096036 
L 334.1011 -88.090755 
L 334.765311 -87.104762 
L 335.429521 -86.149679 
L 336.093732 -85.24092 
L 336.757942 -84.381063 
L 337.422153 -83.551657 
L 338.086363 -82.739399 
L 338.750574 -81.925839 
L 339.414784 -81.096545 
L 340.078995 -80.240374 
L 340.743205 -79.368532 
L 341.407416 -78.498523 
L 342.071626 -77.667651 
L 342.735837 -76.907203 
L 343.400047 -76.241685 
L 344.064258 -75.682859 
L 344.728468 -75.210467 
L 345.392679 -74.795959 
L 346.056889 -74.399592 
L 346.7211 -73.980698 
L 347.38531 -73.519488 
L 348.049521 -73.007035 
L 348.713731 -72.459771 
L 349.377942 -71.898144 
L 350.042152 -71.347624 
L 350.706363 -70.831903 
L 351.370573 -70.352496 
L 352.034784 -69.906062 
L 352.698994 -69.487053 
L 353.363205 -69.087932 
L 354.027415 -68.704549 
L 354.691626 -68.342557 
L 355.355836 -67.999013 
L 356.020047 -67.676755 
L 356.684257 -67.371559 
L 357.348468 -67.072804 
L 358.012678 -66.774023 
L 358.676889 -66.467027 
L 359.341099 -66.149119 
L 360.00531 -65.824387 
L 360.66952 -65.497246 
L 361.333731 -65.183376 
L 361.997941 -64.888229 
L 362.662152 -64.623894 
L 363.326363 -64.391402 
L 363.990573 -64.184094 
L 364.654784 -63.997882 
L 365.318994 -63.821019 
L 365.983205 -63.645455 
L 366.647415 -63.466681 
L 367.311626 -63.280153 
L 367.975836 -63.086811 
L 368.640047 -62.887799 
L 369.304257 -62.684442 
L 369.968468 -62.475868 
L 370.632678 -62.270669 
L 371.296889 -62.074079 
L 371.961099 -61.888271 
L 372.62531 -61.721119 
L 373.28952 -61.572057 
L 373.953731 -61.441539 
L 374.617941 -61.32404 
L 375.282152 -61.216276 
L 375.946362 -61.109232 
L 376.610573 -60.998039 
L 377.274783 -60.880843 
L 377.938994 -60.759805 
L 378.603204 -60.640951 
L 379.267415 -60.528421 
L 379.931625 -60.427762 
L 380.595836 -60.338166 
L 381.260046 -60.254287 
L 381.924257 -60.170135 
L 382.588467 -60.083291 
L 383.252678 -59.993643 
L 383.916888 -59.900419 
L 384.581099 -59.807171 
L 385.245309 -59.71458 
L 385.90952 -59.621397 
L 386.57373 -59.525805 
L 387.237941 -59.427656 
L 387.902151 -59.326986 
L 388.566362 -59.227775 
L 389.230572 -59.134698 
L 389.894783 -59.05264 
L 390.558993 -58.981303 
L 391.223204 -58.920537 
L 391.887414 -58.868179 
L 392.551625 -58.819275 
L 393.215835 -58.769062 
L 393.880046 -58.715024 
L 394.544256 -58.657283 
L 395.208467 -58.597778 
L 395.872677 -58.538297 
L 396.536888 -58.483577 
L 397.201098 -58.436019 
L 397.865309 -58.396207 
L 398.529519 -58.365837 
L 399.19373 -58.343423 
L 399.857941 -58.326955 
L 400.522151 -58.313968 
L 401.186362 -58.301925 
L 401.850572 -58.289081 
L 402.514783 -58.275438 
L 403.178993 -58.261414 
L 403.843204 -58.249344 
L 404.507414 -58.239494 
L 405.171625 -58.230741 
L 405.835835 -58.220931 
L 406.500046 -58.206908 
L 407.164256 -58.187426 
L 407.828467 -58.162279 
L 408.492677 -58.133269 
L 409.156888 -58.10387 
L 409.821098 -58.07583 
L 410.485309 -58.051767 
L 411.149519 -58.032383 
L 411.81373 -58.016715 
L 412.47794 -58.003958 
L 413.142151 -57.992019 
L 413.806361 -57.979673 
L 414.470572 -57.966758 
L 415.134782 -57.95278 
L 415.798993 -57.938599 
L 416.463203 -57.925468 
L 417.127414 -57.913362 
L 417.791624 -57.901679 
L 418.455835 -57.889493 
L 419.120045 -57.875439 
L 419.784256 -57.858792 
L 420.448466 -57.840364 
L 421.112677 -57.821658 
L 421.776887 -57.805435 
L 422.441098 -57.792019 
L 423.105308 -57.782671 
L 423.769519 -57.775047 
L 424.433729 -57.768319 
L 425.09794 -57.761406 
L 425.76215 -57.754092 
L 426.426361 -57.747731 
L 427.090571 -57.742852 
L 427.754782 -57.740366 
L 428.418992 -57.739681 
L 429.083203 -57.739726 
L 429.747413 -57.73954 
L 430.411624 -57.738475 
L 431.075834 -57.737074 
L 431.740045 -57.735742 
L 432.404255 -57.73589 
L 433.068466 -57.737621 
L 433.732676 -57.740314 
L 434.396887 -57.742669 
L 435.061098 -57.7431 
L 435.725308 -57.740227 
L 436.389519 -57.733 
L 437.053729 -57.722475 
L 437.71794 -57.708899 
L 438.38215 -57.694381 
L 439.046361 -57.680591 
L 439.710571 -57.668686 
L 440.374782 -57.659646 
L 441.038992 -57.653358 
L 441.703203 -57.649323 
L 442.367413 -57.647008 
L 443.031624 -57.645358 
L 443.695834 -57.644293 
L 444.360045 -57.643449 
L 445.024255 -57.643088 
L 445.688466 -57.64324 
L 446.352676 -57.644211 
L 447.016887 -57.645906 
L 447.681097 -57.648102 
L 448.345308 -57.650522 
L 449.009518 -57.652574 
L 449.673729 -57.653921 
L 450.337939 -57.654448 
L 451.00215 -57.654608 
L 451.66636 -57.654628 
L 452.330571 -57.654844 
L 452.994781 -57.65546 
L 453.658992 -57.656406 
L 454.323202 -57.657183 
L 454.987413 -57.657504 
L 455.651623 -57.657003 
L 456.315834 -57.655749 
L 456.980044 -57.65379 
L 457.644255 -57.651456 
L 458.308465 -57.648977 
L 458.972676 -57.646503 
L 459.636886 -57.644127 
L 460.301097 -57.642076 
L 460.965307 -57.640504 
L 461.629518 -57.639561 
L 462.293728 -57.639316 
L 462.957939 -57.639549 
L 463.622149 -57.639881 
L 464.28636 -57.639926 
L 464.95057 -57.639468 
L 465.614781 -57.638435 
L 466.278991 -57.636876 
L 466.943202 -57.635022 
L 467.607412 -57.633255 
L 468.271623 -57.631732 
L 468.935833 -57.630573 
L 469.600044 -57.629784 
L 470.264255 -57.629301 
L 470.928465 -57.628999 
L 471.592676 -57.628887 
L 472.256886 -57.6288 
L 472.921097 -57.6288 
L 473.585307 -57.6288 
L 474.249518 -57.6288 
L 474.913728 -57.6288 
L 475.577939 -57.6288 
L 476.242149 -57.628887 
L 476.90636 -57.629086 
L 477.57057 -57.629413 
L 478.234781 -57.629998 
L 478.898991 -57.630944 
L 479.563202 -57.632306 
L 480.227412 -57.634044 
L 480.891623 -57.635971 
L 481.555833 -57.637767 
L 482.220044 -57.639054 
L 482.884254 -57.63961 
L 483.548465 -57.63934 
L 484.212675 -57.638379 
L 484.876886 -57.637169 
L 485.541096 -57.636187 
L 486.205307 -57.635812 
L 486.869517 -57.636187 
L 487.533728 -57.637169 
L 488.197938 -57.638379 
L 488.862149 -57.63934 
L 488.862149 -57.6288 
L 488.862149 -57.6288 
L 488.197938 -57.6288 
L 487.533728 -57.6288 
L 486.869517 -57.6288 
L 486.205307 -57.6288 
L 485.541096 -57.6288 
L 484.876886 -57.6288 
L 484.212675 -57.6288 
L 483.548465 -57.6288 
L 482.884254 -57.6288 
L 482.220044 -57.6288 
L 481.555833 -57.6288 
L 480.891623 -57.6288 
L 480.227412 -57.6288 
L 479.563202 -57.6288 
L 478.898991 -57.6288 
L 478.234781 -57.6288 
L 477.57057 -57.6288 
L 476.90636 -57.6288 
L 476.242149 -57.6288 
L 475.577939 -57.6288 
L 474.913728 -57.6288 
L 474.249518 -57.6288 
L 473.585307 -57.6288 
L 472.921097 -57.6288 
L 472.256886 -57.6288 
L 471.592676 -57.6288 
L 470.928465 -57.6288 
L 470.264255 -57.6288 
L 469.600044 -57.6288 
L 468.935833 -57.6288 
L 468.271623 -57.6288 
L 467.607412 -57.6288 
L 466.943202 -57.6288 
L 466.278991 -57.6288 
L 465.614781 -57.6288 
L 464.95057 -57.6288 
L 464.28636 -57.6288 
L 463.622149 -57.6288 
L 462.957939 -57.6288 
L 462.293728 -57.6288 
L 461.629518 -57.6288 
L 460.965307 -57.6288 
L 460.301097 -57.6288 
L 459.636886 -57.6288 
L 458.972676 -57.6288 
L 458.308465 -57.6288 
L 457.644255 -57.6288 
L 456.980044 -57.6288 
L 456.315834 -57.6288 
L 455.651623 -57.6288 
L 454.987413 -57.6288 
L 454.323202 -57.6288 
L 453.658992 -57.6288 
L 452.994781 -57.6288 
L 452.330571 -57.6288 
L 451.66636 -57.6288 
L 451.00215 -57.6288 
L 450.337939 -57.6288 
L 449.673729 -57.6288 
L 449.009518 -57.6288 
L 448.345308 -57.6288 
L 447.681097 -57.6288 
L 447.016887 -57.6288 
L 446.352676 -57.6288 
L 445.688466 -57.6288 
L 445.024255 -57.6288 
L 444.360045 -57.6288 
L 443.695834 -57.6288 
L 443.031624 -57.6288 
L 442.367413 -57.6288 
L 441.703203 -57.6288 
L 441.038992 -57.6288 
L 440.374782 -57.6288 
L 439.710571 -57.6288 
L 439.046361 -57.6288 
L 438.38215 -57.6288 
L 437.71794 -57.6288 
L 437.053729 -57.6288 
L 436.389519 -57.6288 
L 435.725308 -57.6288 
L 435.061098 -57.6288 
L 434.396887 -57.6288 
L 433.732676 -57.6288 
L 433.068466 -57.6288 
L 432.404255 -57.6288 
L 431.740045 -57.6288 
L 431.075834 -57.6288 
L 430.411624 -57.6288 
L 429.747413 -57.6288 
L 429.083203 -57.6288 
L 428.418992 -57.6288 
L 427.754782 -57.6288 
L 427.090571 -57.6288 
L 426.426361 -57.6288 
L 425.76215 -57.6288 
L 425.09794 -57.6288 
L 424.433729 -57.6288 
L 423.769519 -57.6288 
L 423.105308 -57.6288 
L 422.441098 -57.6288 
L 421.776887 -57.6288 
L 421.112677 -57.6288 
L 420.448466 -57.6288 
L 419.784256 -57.6288 
L 419.120045 -57.6288 
L 418.455835 -57.6288 
L 417.791624 -57.6288 
L 417.127414 -57.6288 
L 416.463203 -57.6288 
L 415.798993 -57.6288 
L 415.134782 -57.6288 
L 414.470572 -57.6288 
L 413.806361 -57.6288 
L 413.142151 -57.6288 
L 412.47794 -57.6288 
L 411.81373 -57.6288 
L 411.149519 -57.6288 
L 410.485309 -57.6288 
L 409.821098 -57.6288 
L 409.156888 -57.6288 
L 408.492677 -57.6288 
L 407.828467 -57.6288 
L 407.164256 -57.6288 
L 406.500046 -57.6288 
L 405.835835 -57.6288 
L 405.171625 -57.6288 
L 404.507414 -57.6288 
L 403.843204 -57.6288 
L 403.178993 -57.6288 
L 402.514783 -57.6288 
L 401.850572 -57.6288 
L 401.186362 -57.6288 
L 400.522151 -57.6288 
L 399.857941 -57.6288 
L 399.19373 -57.6288 
L 398.529519 -57.6288 
L 397.865309 -57.6288 
L 397.201098 -57.6288 
L 396.536888 -57.6288 
L 395.872677 -57.6288 
L 395.208467 -57.6288 
L 394.544256 -57.6288 
L 393.880046 -57.6288 
L 393.215835 -57.6288 
L 392.551625 -57.6288 
L 391.887414 -57.6288 
L 391.223204 -57.6288 
L 390.558993 -57.6288 
L 389.894783 -57.6288 
L 389.230572 -57.6288 
L 388.566362 -57.6288 
L 387.902151 -57.6288 
L 387.237941 -57.6288 
L 386.57373 -57.6288 
L 385.90952 -57.6288 
L 385.245309 -57.6288 
L 384.581099 -57.6288 
L 383.916888 -57.6288 
L 383.252678 -57.6288 
L 382.588467 -57.6288 
L 381.924257 -57.6288 
L 381.260046 -57.6288 
L 380.595836 -57.6288 
L 379.931625 -57.6288 
L 379.267415 -57.6288 
L 378.603204 -57.6288 
L 377.938994 -57.6288 
L 377.274783 -57.6288 
L 376.610573 -57.6288 
L 375.946362 -57.6288 
L 375.282152 -57.6288 
L 374.617941 -57.6288 
L 373.953731 -57.6288 
L 373.28952 -57.6288 
L 372.62531 -57.6288 
L 371.961099 -57.6288 
L 371.296889 -57.6288 
L 370.632678 -57.6288 
L 369.968468 -57.6288 
L 369.304257 -57.6288 
L 368.640047 -57.6288 
L 367.975836 -57.6288 
L 367.311626 -57.6288 
L 366.647415 -57.6288 
L 365.983205 -57.6288 
L 365.318994 -57.6288 
L 364.654784 -57.6288 
L 363.990573 -57.6288 
L 363.326363 -57.6288 
L 362.662152 -57.6288 
L 361.997941 -57.6288 
L 361.333731 -57.6288 
L 360.66952 -57.6288 
L 360.00531 -57.6288 
L 359.341099 -57.6288 
L 358.676889 -57.6288 
L 358.012678 -57.6288 
L 357.348468 -57.6288 
L 356.684257 -57.6288 
L 356.020047 -57.6288 
L 355.355836 -57.6288 
L 354.691626 -57.6288 
L 354.027415 -57.6288 
L 353.363205 -57.6288 
L 352.698994 -57.6288 
L 352.034784 -57.6288 
L 351.370573 -57.6288 
L 350.706363 -57.6288 
L 350.042152 -57.6288 
L 349.377942 -57.6288 
L 348.713731 -57.6288 
L 348.049521 -57.6288 
L 347.38531 -57.6288 
L 346.7211 -57.6288 
L 346.056889 -57.6288 
L 345.392679 -57.6288 
L 344.728468 -57.6288 
L 344.064258 -57.6288 
L 343.400047 -57.6288 
L 342.735837 -57.6288 
L 342.071626 -57.6288 
L 341.407416 -57.6288 
L 340.743205 -57.6288 
L 340.078995 -57.6288 
L 339.414784 -57.6288 
L 338.750574 -57.6288 
L 338.086363 -57.6288 
L 337.422153 -57.6288 
L 336.757942 -57.6288 
L 336.093732 -57.6288 
L 335.429521 -57.6288 
L 334.765311 -57.6288 
L 334.1011 -57.6288 
L 333.43689 -57.6288 
L 332.772679 -57.6288 
L 332.108469 -57.6288 
L 331.444258 -57.6288 
L 330.780048 -57.6288 
L 330.115837 -57.6288 
L 329.451627 -57.6288 
L 328.787416 -57.6288 
L 328.123206 -57.6288 
L 327.458995 -57.6288 
L 326.794784 -57.6288 
L 326.130574 -57.6288 
L 325.466363 -57.6288 
L 324.802153 -57.6288 
L 324.137942 -57.6288 
L 323.473732 -57.6288 
L 322.809521 -57.6288 
L 322.145311 -57.6288 
L 321.4811 -57.6288 
L 320.81689 -57.6288 
L 320.152679 -57.6288 
L 319.488469 -57.6288 
L 318.824258 -57.6288 
L 318.160048 -57.6288 
L 317.495837 -57.6288 
L 316.831627 -57.6288 
L 316.167416 -57.6288 
L 315.503206 -57.6288 
L 314.838995 -57.6288 
L 314.174785 -57.6288 
L 313.510574 -57.6288 
L 312.846364 -57.6288 
L 312.182153 -57.6288 
L 311.517943 -57.6288 
L 310.853732 -57.6288 
L 310.189522 -57.6288 
L 309.525311 -57.6288 
L 308.861101 -57.6288 
L 308.19689 -57.6288 
L 307.53268 -57.6288 
L 306.868469 -57.6288 
L 306.204259 -57.6288 
L 305.540048 -57.6288 
L 304.875838 -57.6288 
L 304.211627 -57.6288 
L 303.547417 -57.6288 
L 302.883206 -57.6288 
L 302.218996 -57.6288 
L 301.554785 -57.6288 
L 300.890575 -57.6288 
L 300.226364 -57.6288 
L 299.562154 -57.6288 
L 298.897943 -57.6288 
L 298.233733 -57.6288 
L 297.569522 -57.6288 
L 296.905312 -57.6288 
L 296.241101 -57.6288 
L 295.576891 -57.6288 
L 294.91268 -57.6288 
L 294.24847 -57.6288 
L 293.584259 -57.6288 
L 292.920049 -57.6288 
L 292.255838 -57.6288 
L 291.591628 -57.6288 
L 290.927417 -57.6288 
L 290.263206 -57.6288 
L 289.598996 -57.6288 
L 288.934785 -57.6288 
L 288.270575 -57.6288 
L 287.606364 -57.6288 
L 286.942154 -57.6288 
L 286.277943 -57.6288 
L 285.613733 -57.6288 
L 284.949522 -57.6288 
L 284.285312 -57.6288 
L 283.621101 -57.6288 
L 282.956891 -57.6288 
L 282.29268 -57.6288 
L 281.62847 -57.6288 
L 280.964259 -57.6288 
L 280.300049 -57.6288 
L 279.635838 -57.6288 
L 278.971628 -57.6288 
L 278.307417 -57.6288 
L 277.643207 -57.6288 
L 276.978996 -57.6288 
L 276.314786 -57.6288 
L 275.650575 -57.6288 
L 274.986365 -57.6288 
L 274.322154 -57.6288 
L 273.657944 -57.6288 
L 272.993733 -57.6288 
L 272.329523 -57.6288 
L 271.665312 -57.6288 
L 271.001102 -57.6288 
L 270.336891 -57.6288 
L 269.672681 -57.6288 
L 269.00847 -57.6288 
L 268.34426 -57.6288 
L 267.680049 -57.6288 
L 267.015839 -57.6288 
L 266.351628 -57.6288 
L 265.687418 -57.6288 
L 265.023207 -57.6288 
L 264.358997 -57.6288 
L 263.694786 -57.6288 
L 263.030576 -57.6288 
L 262.366365 -57.6288 
L 261.702155 -57.6288 
L 261.037944 -57.6288 
L 260.373734 -57.6288 
L 259.709523 -57.6288 
L 259.045313 -57.6288 
L 258.381102 -57.6288 
L 257.716892 -57.6288 
L 257.052681 -57.6288 
L 256.388471 -57.6288 
L 255.72426 -57.6288 
L 255.060049 -57.6288 
L 254.395839 -57.6288 
L 253.731628 -57.6288 
L 253.067418 -57.6288 
L 252.403207 -57.6288 
L 251.738997 -57.6288 
L 251.074786 -57.6288 
L 250.410576 -57.6288 
L 249.746365 -57.6288 
L 249.082155 -57.6288 
L 248.417944 -57.6288 
L 247.753734 -57.6288 
L 247.089523 -57.6288 
L 246.425313 -57.6288 
L 245.761102 -57.6288 
L 245.096892 -57.6288 
L 244.432681 -57.6288 
L 243.768471 -57.6288 
L 243.10426 -57.6288 
L 242.44005 -57.6288 
L 241.775839 -57.6288 
L 241.111629 -57.6288 
L 240.447418 -57.6288 
L 239.783208 -57.6288 
L 239.118997 -57.6288 
L 238.454787 -57.6288 
L 237.790576 -57.6288 
L 237.126366 -57.6288 
L 236.462155 -57.6288 
L 235.797945 -57.6288 
L 235.133734 -57.6288 
L 234.469524 -57.6288 
L 233.805313 -57.6288 
L 233.141103 -57.6288 
L 232.476892 -57.6288 
L 231.812682 -57.6288 
L 231.148471 -57.6288 
L 230.484261 -57.6288 
L 229.82005 -57.6288 
L 229.15584 -57.6288 
L 228.491629 -57.6288 
L 227.827419 -57.6288 
L 227.163208 -57.6288 
L 226.498998 -57.6288 
L 225.834787 -57.6288 
L 225.170577 -57.6288 
L 224.506366 -57.6288 
L 223.842156 -57.6288 
L 223.177945 -57.6288 
L 222.513735 -57.6288 
L 221.849524 -57.6288 
L 221.185314 -57.6288 
L 220.521103 -57.6288 
L 219.856892 -57.6288 
L 219.192682 -57.6288 
L 218.528471 -57.6288 
L 217.864261 -57.6288 
L 217.20005 -57.6288 
L 216.53584 -57.6288 
L 215.871629 -57.6288 
L 215.207419 -57.6288 
L 214.543208 -57.6288 
L 213.878998 -57.6288 
L 213.214787 -57.6288 
L 212.550577 -57.6288 
L 211.886366 -57.6288 
L 211.222156 -57.6288 
L 210.557945 -57.6288 
L 209.893735 -57.6288 
L 209.229524 -57.6288 
L 208.565314 -57.6288 
L 207.901103 -57.6288 
L 207.236893 -57.6288 
L 206.572682 -57.6288 
L 205.908472 -57.6288 
L 205.244261 -57.6288 
L 204.580051 -57.6288 
L 203.91584 -57.6288 
L 203.25163 -57.6288 
L 202.587419 -57.6288 
L 201.923209 -57.6288 
L 201.258998 -57.6288 
L 200.594788 -57.6288 
L 199.930577 -57.6288 
L 199.266367 -57.6288 
L 198.602156 -57.6288 
L 197.937946 -57.6288 
L 197.273735 -57.6288 
L 196.609525 -57.6288 
L 195.945314 -57.6288 
L 195.281104 -57.6288 
L 194.616893 -57.6288 
L 193.952683 -57.6288 
L 193.288472 -57.6288 
L 192.624262 -57.6288 
L 191.960051 -57.6288 
L 191.295841 -57.6288 
L 190.63163 -57.6288 
L 189.96742 -57.6288 
L 189.303209 -57.6288 
L 188.638999 -57.6288 
L 187.974788 -57.6288 
L 187.310578 -57.6288 
L 186.646367 -57.6288 
L 185.982157 -57.6288 
L 185.317946 -57.6288 
L 184.653736 -57.6288 
L 183.989525 -57.6288 
L 183.325314 -57.6288 
L 182.661104 -57.6288 
L 181.996893 -57.6288 
L 181.332683 -57.6288 
L 180.668472 -57.6288 
L 180.004262 -57.6288 
L 179.340051 -57.6288 
L 178.675841 -57.6288 
L 178.01163 -57.6288 
L 177.34742 -57.6288 
L 176.683209 -57.6288 
L 176.018999 -57.6288 
L 175.354788 -57.6288 
L 174.690578 -57.6288 
L 174.026367 -57.6288 
L 173.362157 -57.6288 
L 172.697946 -57.6288 
L 172.033736 -57.6288 
L 171.369525 -57.6288 
L 170.705315 -57.6288 
L 170.041104 -57.6288 
L 169.376894 -57.6288 
L 168.712683 -57.6288 
L 168.048473 -57.6288 
L 167.384262 -57.6288 
L 166.720052 -57.6288 
L 166.055841 -57.6288 
L 165.391631 -57.6288 
L 164.72742 -57.6288 
L 164.06321 -57.6288 
L 163.398999 -57.6288 
L 162.734789 -57.6288 
L 162.070578 -57.6288 
L 161.406368 -57.6288 
L 160.742157 -57.6288 
L 160.077947 -57.6288 
L 159.413736 -57.6288 
L 158.749526 -57.6288 
L 158.085315 -57.6288 
L 157.421105 -57.6288 
L 156.756894 -57.6288 
L 156.092684 -57.6288 
L 155.428473 -57.6288 
L 154.764263 -57.6288 
L 154.100052 -57.6288 
L 153.435842 -57.6288 
L 152.771631 -57.6288 
L 152.107421 -57.6288 
L 151.44321 -57.6288 
L 150.779 -57.6288 
L 150.114789 -57.6288 
L 149.450579 -57.6288 
z
" style="stroke: #1f77b4; stroke-opacity: 0"/>
    </defs>
    <g clip-path="url(#pbb3c3e19c7)">
     <use xlink:href="#m13422ecd82" x="0" y="397.44" style="fill: #1f77b4; fill-opacity: 0; stroke: #1f77b4; stroke-opacity: 0"/>
    </g>
   </g>
   <g id="matplotlib.axis_1">
    <g id="xtick_1">
     <g id="line2d_1">
      <defs>
       <path id="mb91ea32c56" d="M 0 0 
L 0 3 
" style="stroke: #808080"/>
      </defs>
      <g>
       <use xlink:href="#mb91ea32c56" x="168.779987" y="353.7216" style="fill: #808080; stroke: #808080"/>
      </g>
     </g>
     <g id="text_1">
      <!-- 0.02 -->
      <g transform="translate(153.19405 370.859412) scale(0.14 -0.14)">
       <defs>
        <path id="DejaVuSans-30" d="M 2034 4250 
Q 1547 4250 1301 3770 
Q 1056 3291 1056 2328 
Q 1056 1369 1301 889 
Q 1547 409 2034 409 
Q 2525 409 2770 889 
Q 3016 1369 3016 2328 
Q 3016 3291 2770 3770 
Q 2525 4250 2034 4250 
z
M 2034 4750 
Q 2819 4750 3233 4129 
Q 3647 3509 3647 2328 
Q 3647 1150 3233 529 
Q 2819 -91 2034 -91 
Q 1250 -91 836 529 
Q 422 1150 422 2328 
Q 422 3509 836 4129 
Q 1250 4750 2034 4750 
z
" transform="scale(0.015625)"/>
        <path id="DejaVuSans-2e" d="M 684 794 
L 1344 794 
L 1344 0 
L 684 0 
L 684 794 
z
" transform="scale(0.015625)"/>
        <path id="DejaVuSans-32" d="M 1228 531 
L 3431 531 
L 3431 0 
L 469 0 
L 469 531 
Q 828 903 1448 1529 
Q 2069 2156 2228 2338 
Q 2531 2678 2651 2914 
Q 2772 3150 2772 3378 
Q 2772 3750 2511 3984 
Q 2250 4219 1831 4219 
Q 1534 4219 1204 4116 
Q 875 4013 500 3803 
L 500 4441 
Q 881 4594 1212 4672 
Q 1544 4750 1819 4750 
Q 2544 4750 2975 4387 
Q 3406 4025 3406 3419 
Q 3406 3131 3298 2873 
Q 3191 2616 2906 2266 
Q 2828 2175 2409 1742 
Q 1991 1309 1228 531 
z
" transform="scale(0.015625)"/>
       </defs>
       <use xlink:href="#DejaVuSans-30"/>
       <use xlink:href="#DejaVuSans-2e" x="63.623047"/>
       <use xlink:href="#DejaVuSans-30" x="95.410156"/>
       <use xlink:href="#DejaVuSans-32" x="159.033203"/>
      </g>
     </g>
    </g>
    <g id="xtick_2">
     <g id="line2d_2">
      <g>
       <use xlink:href="#mb91ea32c56" x="222.031237" y="353.7216" style="fill: #808080; stroke: #808080"/>
      </g>
     </g>
     <g id="text_2">
      <!-- 0.04 -->
      <g transform="translate(206.445299 370.859412) scale(0.14 -0.14)">
       <defs>
        <path id="DejaVuSans-34" d="M 2419 4116 
L 825 1625 
L 2419 1625 
L 2419 4116 
z
M 2253 4666 
L 3047 4666 
L 3047 1625 
L 3713 1625 
L 3713 1100 
L 3047 1100 
L 3047 0 
L 2419 0 
L 2419 1100 
L 313 1100 
L 313 1709 
L 2253 4666 
z
" transform="scale(0.015625)"/>
       </defs>
       <use xlink:href="#DejaVuSans-30"/>
       <use xlink:href="#DejaVuSans-2e" x="63.623047"/>
       <use xlink:href="#DejaVuSans-30" x="95.410156"/>
       <use xlink:href="#DejaVuSans-34" x="159.033203"/>
      </g>
     </g>
    </g>
    <g id="xtick_3">
     <g id="line2d_3">
      <g>
       <use xlink:href="#mb91ea32c56" x="275.282486" y="353.7216" style="fill: #808080; stroke: #808080"/>
      </g>
     </g>
     <g id="text_3">
      <!-- 0.06 -->
      <g transform="translate(259.696549 370.859412) scale(0.14 -0.14)">
       <defs>
        <path id="DejaVuSans-36" d="M 2113 2584 
Q 1688 2584 1439 2293 
Q 1191 2003 1191 1497 
Q 1191 994 1439 701 
Q 1688 409 2113 409 
Q 2538 409 2786 701 
Q 3034 994 3034 1497 
Q 3034 2003 2786 2293 
Q 2538 2584 2113 2584 
z
M 3366 4563 
L 3366 3988 
Q 3128 4100 2886 4159 
Q 2644 4219 2406 4219 
Q 1781 4219 1451 3797 
Q 1122 3375 1075 2522 
Q 1259 2794 1537 2939 
Q 1816 3084 2150 3084 
Q 2853 3084 3261 2657 
Q 3669 2231 3669 1497 
Q 3669 778 3244 343 
Q 2819 -91 2113 -91 
Q 1303 -91 875 529 
Q 447 1150 447 2328 
Q 447 3434 972 4092 
Q 1497 4750 2381 4750 
Q 2619 4750 2861 4703 
Q 3103 4656 3366 4563 
z
" transform="scale(0.015625)"/>
       </defs>
       <use xlink:href="#DejaVuSans-30"/>
       <use xlink:href="#DejaVuSans-2e" x="63.623047"/>
       <use xlink:href="#DejaVuSans-30" x="95.410156"/>
       <use xlink:href="#DejaVuSans-36" x="159.033203"/>
      </g>
     </g>
    </g>
    <g id="xtick_4">
     <g id="line2d_4">
      <g>
       <use xlink:href="#mb91ea32c56" x="328.533736" y="353.7216" style="fill: #808080; stroke: #808080"/>
      </g>
     </g>
     <g id="text_4">
      <!-- 0.08 -->
      <g transform="translate(312.947799 370.859412) scale(0.14 -0.14)">
       <defs>
        <path id="DejaVuSans-38" d="M 2034 2216 
Q 1584 2216 1326 1975 
Q 1069 1734 1069 1313 
Q 1069 891 1326 650 
Q 1584 409 2034 409 
Q 2484 409 2743 651 
Q 3003 894 3003 1313 
Q 3003 1734 2745 1975 
Q 2488 2216 2034 2216 
z
M 1403 2484 
Q 997 2584 770 2862 
Q 544 3141 544 3541 
Q 544 4100 942 4425 
Q 1341 4750 2034 4750 
Q 2731 4750 3128 4425 
Q 3525 4100 3525 3541 
Q 3525 3141 3298 2862 
Q 3072 2584 2669 2484 
Q 3125 2378 3379 2068 
Q 3634 1759 3634 1313 
Q 3634 634 3220 271 
Q 2806 -91 2034 -91 
Q 1263 -91 848 271 
Q 434 634 434 1313 
Q 434 1759 690 2068 
Q 947 2378 1403 2484 
z
M 1172 3481 
Q 1172 3119 1398 2916 
Q 1625 2713 2034 2713 
Q 2441 2713 2670 2916 
Q 2900 3119 2900 3481 
Q 2900 3844 2670 4047 
Q 2441 4250 2034 4250 
Q 1625 4250 1398 4047 
Q 1172 3844 1172 3481 
z
" transform="scale(0.015625)"/>
       </defs>
       <use xlink:href="#DejaVuSans-30"/>
       <use xlink:href="#DejaVuSans-2e" x="63.623047"/>
       <use xlink:href="#DejaVuSans-30" x="95.410156"/>
       <use xlink:href="#DejaVuSans-38" x="159.033203"/>
      </g>
     </g>
    </g>
    <g id="xtick_5">
     <g id="line2d_5">
      <g>
       <use xlink:href="#mb91ea32c56" x="381.784986" y="353.7216" style="fill: #808080; stroke: #808080"/>
      </g>
     </g>
     <g id="text_5">
      <!-- 0.10 -->
      <g transform="translate(366.199048 370.859412) scale(0.14 -0.14)">
       <defs>
        <path id="DejaVuSans-31" d="M 794 531 
L 1825 531 
L 1825 4091 
L 703 3866 
L 703 4441 
L 1819 4666 
L 2450 4666 
L 2450 531 
L 3481 531 
L 3481 0 
L 794 0 
L 794 531 
z
" transform="scale(0.015625)"/>
       </defs>
       <use xlink:href="#DejaVuSans-30"/>
       <use xlink:href="#DejaVuSans-2e" x="63.623047"/>
       <use xlink:href="#DejaVuSans-31" x="95.410156"/>
       <use xlink:href="#DejaVuSans-30" x="159.033203"/>
      </g>
     </g>
    </g>
    <g id="xtick_6">
     <g id="line2d_6">
      <g>
       <use xlink:href="#mb91ea32c56" x="435.036235" y="353.7216" style="fill: #808080; stroke: #808080"/>
      </g>
     </g>
     <g id="text_6">
      <!-- 0.12 -->
      <g transform="translate(419.450298 370.859412) scale(0.14 -0.14)">
       <use xlink:href="#DejaVuSans-30"/>
       <use xlink:href="#DejaVuSans-2e" x="63.623047"/>
       <use xlink:href="#DejaVuSans-31" x="95.410156"/>
       <use xlink:href="#DejaVuSans-32" x="159.033203"/>
      </g>
     </g>
    </g>
    <g id="xtick_7">
     <g id="line2d_7">
      <g>
       <use xlink:href="#mb91ea32c56" x="488.287485" y="353.7216" style="fill: #808080; stroke: #808080"/>
      </g>
     </g>
     <g id="text_7">
      <!-- 0.14 -->
      <g transform="translate(472.701547 370.859412) scale(0.14 -0.14)">
       <use xlink:href="#DejaVuSans-30"/>
       <use xlink:href="#DejaVuSans-2e" x="63.623047"/>
       <use xlink:href="#DejaVuSans-31" x="95.410156"/>
       <use xlink:href="#DejaVuSans-34" x="159.033203"/>
      </g>
     </g>
    </g>
   </g>
   <g id="matplotlib.axis_2"/>
   <g id="line2d_8">
    <path d="M 149.450579 339.768388 
L 155.428473 339.660553 
L 160.077947 339.374454 
L 163.398999 338.975135 
L 166.055841 338.407397 
L 168.048473 337.776429 
L 170.705315 336.693101 
L 172.697946 335.679948 
L 174.690578 334.360343 
L 176.018999 333.22656 
L 177.34742 331.858606 
L 178.675841 330.252927 
L 180.668472 327.412155 
L 182.661104 324.113311 
L 184.653736 320.395434 
L 186.646367 316.09703 
L 188.638999 311.154394 
L 190.63163 305.59113 
L 192.624262 299.131553 
L 195.281104 289.33117 
L 197.937946 278.810679 
L 199.930577 269.844166 
L 202.587419 256.509888 
L 209.229524 221.467401 
L 212.550577 201.616798 
L 223.842156 133.553254 
L 225.834787 123.766718 
L 227.827419 115.265793 
L 235.797945 84.330243 
L 238.454787 75.804187 
L 239.783208 72.157185 
L 241.111629 69.178029 
L 242.44005 66.799658 
L 243.768471 64.884667 
L 245.096892 63.37388 
L 246.425313 62.281635 
L 247.089523 61.917064 
L 247.753734 61.695252 
L 248.417944 61.6032 
L 249.082155 61.633399 
L 250.410576 62.011238 
L 251.738997 62.632609 
L 253.067418 63.457847 
L 254.395839 64.623453 
L 255.060049 65.43138 
L 256.388471 67.622805 
L 257.716892 70.492157 
L 259.709523 75.493722 
L 261.702155 81.067579 
L 265.687418 92.990667 
L 267.015839 97.455502 
L 269.00847 105.006337 
L 271.665312 115.157767 
L 276.314786 131.795685 
L 283.621101 161.590287 
L 289.598996 186.850839 
L 291.591628 194.564053 
L 295.576891 209.433998 
L 300.226364 227.316754 
L 306.868469 250.909735 
L 309.525311 258.473122 
L 317.495837 280.148769 
L 319.488469 284.651127 
L 324.137942 294.442821 
L 326.130574 298.089447 
L 328.123206 301.074261 
L 333.43689 308.343964 
L 336.093732 312.19908 
L 342.071626 319.772349 
L 343.400047 321.198315 
L 344.728468 322.229533 
L 348.049521 324.432965 
L 351.370573 327.087504 
L 353.363205 328.352068 
L 356.020047 329.763245 
L 363.326363 333.048598 
L 366.647415 333.973319 
L 374.617941 336.11596 
L 384.581099 337.632829 
L 391.887414 338.571821 
L 400.522151 339.126032 
L 419.784256 339.581208 
L 427.754782 339.699634 
L 488.862149 339.80066 
L 488.862149 339.80066 
" clip-path="url(#pbb3c3e19c7)" style="fill: none; stroke: #1f77b4; stroke-width: 1.5; stroke-linecap: square"/>
   </g>
   <g id="line2d_9">
    <path d="M 192.358915 333.968832 
L 327.007352 333.968832 
" clip-path="url(#pbb3c3e19c7)" style="fill: none; stroke: #000000; stroke-width: 3"/>
   </g>
   <g id="patch_3">
    <path d="M 132.48 353.7216 
L 505.832727 353.7216 
" style="fill: none; stroke: #808080; stroke-width: 0.8; stroke-linejoin: miter; stroke-linecap: square"/>
   </g>
   <g id="text_8">
    <!-- 0.029  -->
    <g transform="translate(144.64954 319.362912) scale(0.15 -0.15)">
     <defs>
      <path id="DejaVuSans-39" d="M 703 97 
L 703 672 
Q 941 559 1184 500 
Q 1428 441 1663 441 
Q 2288 441 2617 861 
Q 2947 1281 2994 2138 
Q 2813 1869 2534 1725 
Q 2256 1581 1919 1581 
Q 1219 1581 811 2004 
Q 403 2428 403 3163 
Q 403 3881 828 4315 
Q 1253 4750 1959 4750 
Q 2769 4750 3195 4129 
Q 3622 3509 3622 2328 
Q 3622 1225 3098 567 
Q 2575 -91 1691 -91 
Q 1453 -91 1209 -44 
Q 966 3 703 97 
z
M 1959 2075 
Q 2384 2075 2632 2365 
Q 2881 2656 2881 3163 
Q 2881 3666 2632 3958 
Q 2384 4250 1959 4250 
Q 1534 4250 1286 3958 
Q 1038 3666 1038 3163 
Q 1038 2656 1286 2365 
Q 1534 2075 1959 2075 
z
" transform="scale(0.015625)"/>
      <path id="DejaVuSans-20" transform="scale(0.015625)"/>
     </defs>
     <use xlink:href="#DejaVuSans-30"/>
     <use xlink:href="#DejaVuSans-2e" x="63.623047"/>
     <use xlink:href="#DejaVuSans-30" x="95.410156"/>
     <use xlink:href="#DejaVuSans-32" x="159.033203"/>
     <use xlink:href="#DejaVuSans-39" x="222.65625"/>
     <use xlink:href="#DejaVuSans-20" x="286.279297"/>
    </g>
   </g>
   <g id="text_9">
    <!--  0.079 -->
    <g transform="translate(327.007352 319.362912) scale(0.15 -0.15)">
     <defs>
      <path id="DejaVuSans-37" d="M 525 4666 
L 3525 4666 
L 3525 4397 
L 1831 0 
L 1172 0 
L 2766 4134 
L 525 4134 
L 525 4666 
z
" transform="scale(0.015625)"/>
     </defs>
     <use xlink:href="#DejaVuSans-20"/>
     <use xlink:href="#DejaVuSans-30" x="31.787109"/>
     <use xlink:href="#DejaVuSans-2e" x="95.410156"/>
     <use xlink:href="#DejaVuSans-30" x="127.197266"/>
     <use xlink:href="#DejaVuSans-37" x="190.820312"/>
     <use xlink:href="#DejaVuSans-39" x="254.443359"/>
    </g>
   </g>
   <g id="text_10">
    <!-- 95% HDI -->
    <g transform="translate(227.001884 252.17568) scale(0.15 -0.15)">
     <defs>
      <path id="DejaVuSans-35" d="M 691 4666 
L 3169 4666 
L 3169 4134 
L 1269 4134 
L 1269 2991 
Q 1406 3038 1543 3061 
Q 1681 3084 1819 3084 
Q 2600 3084 3056 2656 
Q 3513 2228 3513 1497 
Q 3513 744 3044 326 
Q 2575 -91 1722 -91 
Q 1428 -91 1123 -41 
Q 819 9 494 109 
L 494 744 
Q 775 591 1075 516 
Q 1375 441 1709 441 
Q 2250 441 2565 725 
Q 2881 1009 2881 1497 
Q 2881 1984 2565 2268 
Q 2250 2553 1709 2553 
Q 1456 2553 1204 2497 
Q 953 2441 691 2322 
L 691 4666 
z
" transform="scale(0.015625)"/>
      <path id="DejaVuSans-25" d="M 4653 2053 
Q 4381 2053 4226 1822 
Q 4072 1591 4072 1178 
Q 4072 772 4226 539 
Q 4381 306 4653 306 
Q 4919 306 5073 539 
Q 5228 772 5228 1178 
Q 5228 1588 5073 1820 
Q 4919 2053 4653 2053 
z
M 4653 2450 
Q 5147 2450 5437 2106 
Q 5728 1763 5728 1178 
Q 5728 594 5436 251 
Q 5144 -91 4653 -91 
Q 4153 -91 3862 251 
Q 3572 594 3572 1178 
Q 3572 1766 3864 2108 
Q 4156 2450 4653 2450 
z
M 1428 4353 
Q 1159 4353 1004 4120 
Q 850 3888 850 3481 
Q 850 3069 1003 2837 
Q 1156 2606 1428 2606 
Q 1700 2606 1854 2837 
Q 2009 3069 2009 3481 
Q 2009 3884 1853 4118 
Q 1697 4353 1428 4353 
z
M 4250 4750 
L 4750 4750 
L 1831 -91 
L 1331 -91 
L 4250 4750 
z
M 1428 4750 
Q 1922 4750 2215 4408 
Q 2509 4066 2509 3481 
Q 2509 2891 2217 2550 
Q 1925 2209 1428 2209 
Q 931 2209 642 2551 
Q 353 2894 353 3481 
Q 353 4063 643 4406 
Q 934 4750 1428 4750 
z
" transform="scale(0.015625)"/>
      <path id="DejaVuSans-48" d="M 628 4666 
L 1259 4666 
L 1259 2753 
L 3553 2753 
L 3553 4666 
L 4184 4666 
L 4184 0 
L 3553 0 
L 3553 2222 
L 1259 2222 
L 1259 0 
L 628 0 
L 628 4666 
z
" transform="scale(0.015625)"/>
      <path id="DejaVuSans-44" d="M 1259 4147 
L 1259 519 
L 2022 519 
Q 2988 519 3436 956 
Q 3884 1394 3884 2338 
Q 3884 3275 3436 3711 
Q 2988 4147 2022 4147 
L 1259 4147 
z
M 628 4666 
L 1925 4666 
Q 3281 4666 3915 4102 
Q 4550 3538 4550 2338 
Q 4550 1131 3912 565 
Q 3275 0 1925 0 
L 628 0 
L 628 4666 
z
" transform="scale(0.015625)"/>
      <path id="DejaVuSans-49" d="M 628 4666 
L 1259 4666 
L 1259 0 
L 628 0 
L 628 4666 
z
" transform="scale(0.015625)"/>
     </defs>
     <use xlink:href="#DejaVuSans-39"/>
     <use xlink:href="#DejaVuSans-35" x="63.623047"/>
     <use xlink:href="#DejaVuSans-25" x="127.246094"/>
     <use xlink:href="#DejaVuSans-20" x="222.265625"/>
     <use xlink:href="#DejaVuSans-48" x="254.052734"/>
     <use xlink:href="#DejaVuSans-44" x="329.248047"/>
     <use xlink:href="#DejaVuSans-49" x="406.25"/>
    </g>
   </g>
   <g id="text_11">
    <!-- mean=0.053 -->
    <g transform="translate(208.047425 106.11648) scale(0.15 -0.15)">
     <defs>
      <path id="DejaVuSans-6d" d="M 3328 2828 
Q 3544 3216 3844 3400 
Q 4144 3584 4550 3584 
Q 5097 3584 5394 3201 
Q 5691 2819 5691 2113 
L 5691 0 
L 5113 0 
L 5113 2094 
Q 5113 2597 4934 2840 
Q 4756 3084 4391 3084 
Q 3944 3084 3684 2787 
Q 3425 2491 3425 1978 
L 3425 0 
L 2847 0 
L 2847 2094 
Q 2847 2600 2669 2842 
Q 2491 3084 2119 3084 
Q 1678 3084 1418 2786 
Q 1159 2488 1159 1978 
L 1159 0 
L 581 0 
L 581 3500 
L 1159 3500 
L 1159 2956 
Q 1356 3278 1631 3431 
Q 1906 3584 2284 3584 
Q 2666 3584 2933 3390 
Q 3200 3197 3328 2828 
z
" transform="scale(0.015625)"/>
      <path id="DejaVuSans-65" d="M 3597 1894 
L 3597 1613 
L 953 1613 
Q 991 1019 1311 708 
Q 1631 397 2203 397 
Q 2534 397 2845 478 
Q 3156 559 3463 722 
L 3463 178 
Q 3153 47 2828 -22 
Q 2503 -91 2169 -91 
Q 1331 -91 842 396 
Q 353 884 353 1716 
Q 353 2575 817 3079 
Q 1281 3584 2069 3584 
Q 2775 3584 3186 3129 
Q 3597 2675 3597 1894 
z
M 3022 2063 
Q 3016 2534 2758 2815 
Q 2500 3097 2075 3097 
Q 1594 3097 1305 2825 
Q 1016 2553 972 2059 
L 3022 2063 
z
" transform="scale(0.015625)"/>
      <path id="DejaVuSans-61" d="M 2194 1759 
Q 1497 1759 1228 1600 
Q 959 1441 959 1056 
Q 959 750 1161 570 
Q 1363 391 1709 391 
Q 2188 391 2477 730 
Q 2766 1069 2766 1631 
L 2766 1759 
L 2194 1759 
z
M 3341 1997 
L 3341 0 
L 2766 0 
L 2766 531 
Q 2569 213 2275 61 
Q 1981 -91 1556 -91 
Q 1019 -91 701 211 
Q 384 513 384 1019 
Q 384 1609 779 1909 
Q 1175 2209 1959 2209 
L 2766 2209 
L 2766 2266 
Q 2766 2663 2505 2880 
Q 2244 3097 1772 3097 
Q 1472 3097 1187 3025 
Q 903 2953 641 2809 
L 641 3341 
Q 956 3463 1253 3523 
Q 1550 3584 1831 3584 
Q 2591 3584 2966 3190 
Q 3341 2797 3341 1997 
z
" transform="scale(0.015625)"/>
      <path id="DejaVuSans-6e" d="M 3513 2113 
L 3513 0 
L 2938 0 
L 2938 2094 
Q 2938 2591 2744 2837 
Q 2550 3084 2163 3084 
Q 1697 3084 1428 2787 
Q 1159 2491 1159 1978 
L 1159 0 
L 581 0 
L 581 3500 
L 1159 3500 
L 1159 2956 
Q 1366 3272 1645 3428 
Q 1925 3584 2291 3584 
Q 2894 3584 3203 3211 
Q 3513 2838 3513 2113 
z
" transform="scale(0.015625)"/>
      <path id="DejaVuSans-3d" d="M 678 2906 
L 4684 2906 
L 4684 2381 
L 678 2381 
L 678 2906 
z
M 678 1631 
L 4684 1631 
L 4684 1100 
L 678 1100 
L 678 1631 
z
" transform="scale(0.015625)"/>
      <path id="DejaVuSans-33" d="M 2597 2516 
Q 3050 2419 3304 2112 
Q 3559 1806 3559 1356 
Q 3559 666 3084 287 
Q 2609 -91 1734 -91 
Q 1441 -91 1130 -33 
Q 819 25 488 141 
L 488 750 
Q 750 597 1062 519 
Q 1375 441 1716 441 
Q 2309 441 2620 675 
Q 2931 909 2931 1356 
Q 2931 1769 2642 2001 
Q 2353 2234 1838 2234 
L 1294 2234 
L 1294 2753 
L 1863 2753 
Q 2328 2753 2575 2939 
Q 2822 3125 2822 3475 
Q 2822 3834 2567 4026 
Q 2313 4219 1838 4219 
Q 1578 4219 1281 4162 
Q 984 4106 628 3988 
L 628 4550 
Q 988 4650 1302 4700 
Q 1616 4750 1894 4750 
Q 2613 4750 3031 4423 
Q 3450 4097 3450 3541 
Q 3450 3153 3228 2886 
Q 3006 2619 2597 2516 
z
" transform="scale(0.015625)"/>
     </defs>
     <use xlink:href="#DejaVuSans-6d"/>
     <use xlink:href="#DejaVuSans-65" x="97.412109"/>
     <use xlink:href="#DejaVuSans-61" x="158.935547"/>
     <use xlink:href="#DejaVuSans-6e" x="220.214844"/>
     <use xlink:href="#DejaVuSans-3d" x="283.59375"/>
     <use xlink:href="#DejaVuSans-30" x="367.382812"/>
     <use xlink:href="#DejaVuSans-2e" x="431.005859"/>
     <use xlink:href="#DejaVuSans-30" x="462.792969"/>
     <use xlink:href="#DejaVuSans-35" x="526.416016"/>
     <use xlink:href="#DejaVuSans-33" x="590.039062"/>
    </g>
   </g>
   <g id="text_12">
    <!-- θ -->
    <g transform="translate(314.261364 41.6928) scale(0.16 -0.16)">
     <defs>
      <path id="DejaVuSans-3b8" d="M 2953 2219 
L 963 2219 
Q 1009 1284 1225 888 
Q 1494 400 1959 400 
Q 2428 400 2688 891 
Q 2916 1322 2953 2219 
z
M 2944 2750 
Q 2856 3638 2688 3950 
Q 2419 4444 1959 4444 
Q 1481 4444 1228 3956 
Q 1028 3563 969 2750 
L 2944 2750 
z
M 1959 4913 
Q 2709 4913 3138 4250 
Q 3566 3591 3566 2422 
Q 3566 1256 3138 594 
Q 2709 -72 1959 -72 
Q 1206 -72 781 594 
Q 353 1256 353 2422 
Q 353 3591 781 4250 
Q 1206 4913 1959 4913 
z
" transform="scale(0.015625)"/>
     </defs>
     <use xlink:href="#DejaVuSans-3b8"/>
    </g>
   </g>
  </g>
  <g id="axes_2">
   <g id="patch_4">
    <path d="M 580.503273 353.7216 
L 953.856 353.7216 
L 953.856 47.6928 
L 580.503273 47.6928 
z
" style="fill: #ffffff"/>
   </g>
   <g id="PolyCollection_2">
    <defs>
     <path id="m50fcf06f1a" d="M 597.473851 -57.6288 
L 597.473851 -57.652397 
L 598.138062 -57.65302 
L 598.802272 -57.654923 
L 599.466483 -57.65848 
L 600.130693 -57.663744 
L 600.794904 -57.670671 
L 601.459114 -57.679744 
L 602.123325 -57.691114 
L 602.787535 -57.704552 
L 603.451746 -57.720772 
L 604.115956 -57.739311 
L 604.780167 -57.761063 
L 605.444377 -57.786133 
L 606.108588 -57.815142 
L 606.772798 -57.848912 
L 607.437009 -57.888313 
L 608.101219 -57.933457 
L 608.76543 -57.983759 
L 609.42964 -58.038301 
L 610.093851 -58.095803 
L 610.758061 -58.157272 
L 611.422272 -58.22375 
L 612.086482 -58.299342 
L 612.750693 -58.388727 
L 613.414903 -58.496023 
L 614.079114 -58.623632 
L 614.743324 -58.771047 
L 615.407535 -58.93648 
L 616.071745 -59.115241 
L 616.735956 -59.305227 
L 617.400167 -59.50544 
L 618.064377 -59.716875 
L 618.728588 -59.943488 
L 619.392798 -60.187191 
L 620.057009 -60.452092 
L 620.721219 -60.739835 
L 621.38543 -61.055032 
L 622.04964 -61.398727 
L 622.713851 -61.775097 
L 623.378061 -62.184634 
L 624.042272 -62.628446 
L 624.706482 -63.10921 
L 625.370693 -63.626378 
L 626.034903 -64.187806 
L 626.699114 -64.800859 
L 627.363324 -65.472311 
L 628.027535 -66.21182 
L 628.691745 -67.023918 
L 629.355956 -67.910446 
L 630.020166 -68.867755 
L 630.684377 -69.890258 
L 631.348587 -70.96653 
L 632.012798 -72.087496 
L 632.677008 -73.244672 
L 633.341219 -74.433312 
L 634.005429 -75.65143 
L 634.66964 -76.909579 
L 635.33385 -78.211679 
L 635.998061 -79.568003 
L 636.662271 -80.986599 
L 637.326482 -82.480926 
L 637.990692 -84.064596 
L 638.654903 -85.749649 
L 639.319113 -87.543168 
L 639.983324 -89.446626 
L 640.647534 -91.444692 
L 641.311745 -93.520569 
L 641.975955 -95.659593 
L 642.640166 -97.848347 
L 643.304376 -100.075582 
L 643.968587 -102.340964 
L 644.632797 -104.657085 
L 645.297008 -107.032994 
L 645.961218 -109.493329 
L 646.625429 -112.066955 
L 647.289639 -114.775219 
L 647.95385 -117.625734 
L 648.61806 -120.619946 
L 649.282271 -123.730935 
L 649.946481 -126.929652 
L 650.610692 -130.18068 
L 651.274902 -133.456289 
L 651.939113 -136.736642 
L 652.603324 -139.997985 
L 653.267534 -143.24135 
L 653.931745 -146.471929 
L 654.595955 -149.691422 
L 655.260166 -152.92027 
L 655.924376 -156.184414 
L 656.588587 -159.515008 
L 657.252797 -162.952459 
L 657.917008 -166.512852 
L 658.581218 -170.217805 
L 659.245429 -174.048672 
L 659.909639 -177.958265 
L 660.57385 -181.895821 
L 661.23806 -185.805043 
L 661.902271 -189.648475 
L 662.566481 -193.425557 
L 663.230692 -197.163422 
L 663.894902 -200.880265 
L 664.559113 -204.618672 
L 665.223323 -208.397425 
L 665.887534 -212.241655 
L 666.551744 -216.153683 
L 667.215955 -220.147761 
L 667.880165 -224.234743 
L 668.544376 -228.394089 
L 669.208586 -232.61021 
L 669.872797 -236.834893 
L 670.537007 -240.995206 
L 671.201218 -245.053034 
L 671.865428 -248.9454 
L 672.529639 -252.659785 
L 673.193849 -256.219554 
L 673.85806 -259.676272 
L 674.52227 -263.089239 
L 675.186481 -266.52948 
L 675.850691 -270.01997 
L 676.514902 -273.554961 
L 677.179112 -277.107501 
L 677.843323 -280.62081 
L 678.507533 -284.036843 
L 679.171744 -287.313209 
L 679.835954 -290.416293 
L 680.500165 -293.336746 
L 681.164375 -296.057891 
L 681.828586 -298.598379 
L 682.492796 -300.96412 
L 683.157007 -303.178655 
L 683.821217 -305.280005 
L 684.485428 -307.303462 
L 685.149638 -309.312355 
L 685.813849 -311.336766 
L 686.478059 -313.413179 
L 687.14227 -315.553421 
L 687.806481 -317.761001 
L 688.470691 -319.994311 
L 689.134902 -322.21412 
L 689.799112 -324.366958 
L 690.463323 -326.373183 
L 691.127533 -328.158875 
L 691.791744 -329.674212 
L 692.455954 -330.901726 
L 693.120165 -331.857701 
L 693.784375 -332.592027 
L 694.448586 -333.208233 
L 695.112796 -333.760674 
L 695.777007 -334.288494 
L 696.441217 -334.791078 
L 697.105428 -335.225628 
L 697.769638 -335.553972 
L 698.433849 -335.750889 
L 699.098059 -335.8368 
L 699.76227 -335.830407 
L 700.42648 -335.760597 
L 701.090691 -335.626871 
L 701.754901 -335.423381 
L 702.419112 -335.132985 
L 703.083322 -334.736749 
L 703.747533 -334.255155 
L 704.411743 -333.676804 
L 705.075954 -332.99294 
L 705.740164 -332.165339 
L 706.404375 -331.165805 
L 707.068585 -329.957256 
L 707.732796 -328.524319 
L 708.397006 -326.919734 
L 709.061217 -325.212824 
L 709.725427 -323.482615 
L 710.389638 -321.786782 
L 711.053848 -320.151559 
L 711.718059 -318.560133 
L 712.382269 -316.977404 
L 713.04648 -315.356702 
L 713.71069 -313.66051 
L 714.374901 -311.880555 
L 715.039111 -310.00371 
L 715.703322 -308.02647 
L 716.367532 -305.934697 
L 717.031743 -303.711699 
L 717.695953 -301.36505 
L 718.360164 -298.915825 
L 719.024374 -296.402044 
L 719.688585 -293.868371 
L 720.352795 -291.354094 
L 721.017006 -288.866223 
L 721.681216 -286.382557 
L 722.345427 -283.852738 
L 723.009637 -281.243065 
L 723.673848 -278.540055 
L 724.338059 -275.727032 
L 725.002269 -272.826995 
L 725.66648 -269.870488 
L 726.33069 -266.912516 
L 726.994901 -263.992932 
L 727.659111 -261.145843 
L 728.323322 -258.389818 
L 728.987532 -255.708079 
L 729.651743 -253.078457 
L 730.315953 -250.458878 
L 730.980164 -247.844791 
L 731.644374 -245.250245 
L 732.308585 -242.714661 
L 732.972795 -240.258956 
L 733.637006 -237.858012 
L 734.301216 -235.473754 
L 734.965427 -233.047988 
L 735.629637 -230.524233 
L 736.293848 -227.879974 
L 736.958058 -225.147585 
L 737.622269 -222.368326 
L 738.286479 -219.591964 
L 738.95069 -216.844262 
L 739.6149 -214.115615 
L 740.279111 -211.390091 
L 740.943321 -208.621953 
L 741.607532 -205.765016 
L 742.271742 -202.802524 
L 742.935953 -199.728323 
L 743.600163 -196.566198 
L 744.264374 -193.352517 
L 744.928584 -190.154242 
L 745.592795 -187.037407 
L 746.257005 -184.072914 
L 746.921216 -181.308423 
L 747.585426 -178.75422 
L 748.249637 -176.398967 
L 748.913847 -174.214356 
L 749.578058 -172.139768 
L 750.242268 -170.116443 
L 750.906479 -168.105973 
L 751.570689 -166.051203 
L 752.2349 -163.930642 
L 752.89911 -161.735178 
L 753.563321 -159.44845 
L 754.227531 -157.097896 
L 754.891742 -154.713178 
L 755.555952 -152.327347 
L 756.220163 -149.993042 
L 756.884373 -147.74479 
L 757.548584 -145.602859 
L 758.212794 -143.557448 
L 758.877005 -141.594809 
L 759.541216 -139.689732 
L 760.205426 -137.819681 
L 760.869637 -135.971802 
L 761.533847 -134.133329 
L 762.198058 -132.302996 
L 762.862268 -130.467142 
L 763.526479 -128.619184 
L 764.190689 -126.755388 
L 764.8549 -124.880185 
L 765.51911 -123.001964 
L 766.183321 -121.149829 
L 766.847531 -119.349478 
L 767.511742 -117.616213 
L 768.175952 -115.968845 
L 768.840163 -114.407221 
L 769.504373 -112.914124 
L 770.168584 -111.465032 
L 770.832794 -110.033318 
L 771.497005 -108.602088 
L 772.161215 -107.160422 
L 772.825426 -105.715299 
L 773.489636 -104.288497 
L 774.153847 -102.901342 
L 774.818057 -101.579128 
L 775.482268 -100.326628 
L 776.146478 -99.151647 
L 776.810689 -98.038231 
L 777.474899 -96.972882 
L 778.13911 -95.934289 
L 778.80332 -94.912771 
L 779.467531 -93.893641 
L 780.131741 -92.879043 
L 780.795952 -91.869501 
L 781.460162 -90.873605 
L 782.124373 -89.888202 
L 782.788583 -88.924267 
L 783.452794 -87.988175 
L 784.117004 -87.082799 
L 784.781215 -86.218979 
L 785.445425 -85.396482 
L 786.109636 -84.614873 
L 786.773846 -83.861176 
L 787.438057 -83.119332 
L 788.102267 -82.376285 
L 788.766478 -81.623682 
L 789.430688 -80.866977 
L 790.094899 -80.125048 
L 790.759109 -79.412997 
L 791.42332 -78.743252 
L 792.08753 -78.108303 
L 792.751741 -77.495539 
L 793.415951 -76.880119 
L 794.080162 -76.240187 
L 794.744372 -75.570735 
L 795.408583 -74.889264 
L 796.072794 -74.211054 
L 796.737004 -73.57079 
L 797.401215 -72.990483 
L 798.065425 -72.47926 
L 798.729636 -72.030756 
L 799.393846 -71.6251 
L 800.058057 -71.234268 
L 800.722267 -70.833091 
L 801.386478 -70.400872 
L 802.050688 -69.938491 
L 802.714899 -69.448179 
L 803.379109 -68.950817 
L 804.04332 -68.469142 
L 804.70753 -68.017077 
L 805.371741 -67.605454 
L 806.035951 -67.234737 
L 806.700162 -66.899042 
L 807.364372 -66.596293 
L 808.028583 -66.315227 
L 808.692793 -66.04475 
L 809.357004 -65.779253 
L 810.021214 -65.506091 
L 810.685425 -65.221594 
L 811.349635 -64.929604 
L 812.013846 -64.637559 
L 812.678056 -64.353748 
L 813.342267 -64.086794 
L 814.006477 -63.837854 
L 814.670688 -63.605227 
L 815.334898 -63.381516 
L 815.999109 -63.164318 
L 816.663319 -62.947255 
L 817.32753 -62.732958 
L 817.99174 -62.526383 
L 818.655951 -62.32815 
L 819.320161 -62.141003 
L 819.984372 -61.967697 
L 820.648582 -61.807285 
L 821.312793 -61.661299 
L 821.977003 -61.529645 
L 822.641214 -61.41187 
L 823.305424 -61.304278 
L 823.969635 -61.203762 
L 824.633845 -61.104502 
L 825.298056 -61.005174 
L 825.962266 -60.901935 
L 826.626477 -60.794697 
L 827.290687 -60.681701 
L 827.954898 -60.564339 
L 828.619108 -60.443144 
L 829.283319 -60.319029 
L 829.947529 -60.195445 
L 830.61174 -60.071978 
L 831.275951 -59.95092 
L 831.940161 -59.837546 
L 832.604372 -59.732706 
L 833.268582 -59.639178 
L 833.932793 -59.557606 
L 834.597003 -59.486407 
L 835.261214 -59.423143 
L 835.925424 -59.363505 
L 836.589635 -59.307299 
L 837.253845 -59.254031 
L 837.918056 -59.205899 
L 838.582266 -59.163677 
L 839.246477 -59.127463 
L 839.910687 -59.094961 
L 840.574898 -59.061449 
L 841.239108 -59.021537 
L 841.903319 -58.974009 
L 842.567529 -58.91848 
L 843.23174 -58.857491 
L 843.89595 -58.794172 
L 844.560161 -58.731914 
L 845.224371 -58.670612 
L 845.888582 -58.611665 
L 846.552792 -58.553602 
L 847.217003 -58.496597 
L 847.881213 -58.439766 
L 848.545424 -58.382962 
L 849.209634 -58.329042 
L 849.873845 -58.27896 
L 850.538055 -58.235318 
L 851.202266 -58.200971 
L 851.866476 -58.177721 
L 852.530687 -58.164091 
L 853.194897 -58.15742 
L 853.859108 -58.152835 
L 854.523318 -58.146065 
L 855.187529 -58.132883 
L 855.851739 -58.11216 
L 856.51595 -58.084233 
L 857.18016 -58.051133 
L 857.844371 -58.015257 
L 858.508581 -57.979882 
L 859.172792 -57.947968 
L 859.837002 -57.921934 
L 860.501213 -57.903581 
L 861.165423 -57.892363 
L 861.829634 -57.887818 
L 862.493844 -57.886493 
L 863.158055 -57.886989 
L 863.822265 -57.887658 
L 864.486476 -57.887663 
L 865.150686 -57.886705 
L 865.814897 -57.884651 
L 866.479108 -57.881119 
L 867.143318 -57.876066 
L 867.807529 -57.869579 
L 868.471739 -57.862725 
L 869.13595 -57.856808 
L 869.80016 -57.851893 
L 870.464371 -57.848273 
L 871.128581 -57.844607 
L 871.792792 -57.839389 
L 872.457002 -57.832075 
L 873.121213 -57.822467 
L 873.785423 -57.811129 
L 874.449634 -57.799096 
L 875.113844 -57.786621 
L 875.778055 -57.77463 
L 876.442265 -57.763193 
L 877.106476 -57.752629 
L 877.770686 -57.742671 
L 878.434897 -57.733516 
L 879.099107 -57.724666 
L 879.763318 -57.715952 
L 880.427528 -57.707966 
L 881.091739 -57.701185 
L 881.755949 -57.696066 
L 882.42016 -57.692758 
L 883.08437 -57.690985 
L 883.748581 -57.689734 
L 884.412791 -57.687971 
L 885.077002 -57.684965 
L 885.741212 -57.680656 
L 886.405423 -57.67564 
L 887.069633 -57.670604 
L 887.733844 -57.66618 
L 888.398054 -57.662567 
L 889.062265 -57.659674 
L 889.726475 -57.657199 
L 890.390686 -57.654947 
L 891.054896 -57.652908 
L 891.719107 -57.651021 
L 892.383317 -57.649589 
L 893.047528 -57.648396 
L 893.711738 -57.647329 
L 894.375949 -57.646446 
L 895.040159 -57.645688 
L 895.70437 -57.645114 
L 896.36858 -57.644923 
L 897.032791 -57.64514 
L 897.697001 -57.64571 
L 898.361212 -57.646417 
L 899.025422 -57.647062 
L 899.689633 -57.647674 
L 900.353843 -57.648037 
L 901.018054 -57.648095 
L 901.682264 -57.647902 
L 902.346475 -57.647419 
L 903.010686 -57.646588 
L 903.674896 -57.645699 
L 904.339107 -57.645029 
L 905.003317 -57.644789 
L 905.667528 -57.64531 
L 906.331738 -57.646525 
L 906.995949 -57.64821 
L 907.660159 -57.65001 
L 908.32437 -57.651618 
L 908.98858 -57.652596 
L 909.652791 -57.652607 
L 910.317001 -57.651676 
L 910.981212 -57.649702 
L 911.645422 -57.646891 
L 912.309633 -57.643573 
L 912.973843 -57.640103 
L 913.638054 -57.636927 
L 914.302264 -57.634245 
L 914.966475 -57.632156 
L 915.630685 -57.63071 
L 916.294896 -57.629824 
L 916.959106 -57.629274 
L 917.623317 -57.628986 
L 918.287527 -57.62888 
L 918.951738 -57.6288 
L 919.615948 -57.6288 
L 920.280159 -57.6288 
L 920.944369 -57.62888 
L 921.60858 -57.628986 
L 922.27279 -57.629194 
L 922.937001 -57.629558 
L 923.601211 -57.63013 
L 924.265422 -57.630925 
L 924.929632 -57.63189 
L 925.593843 -57.632893 
L 926.258053 -57.633736 
L 926.922264 -57.634221 
L 927.586474 -57.634221 
L 928.250685 -57.633736 
L 928.914895 -57.632893 
L 929.579106 -57.63189 
L 930.243316 -57.631005 
L 930.907527 -57.630396 
L 931.571737 -57.630218 
L 932.235948 -57.630611 
L 932.900158 -57.631654 
L 933.564369 -57.633486 
L 934.228579 -57.636103 
L 934.89279 -57.639438 
L 935.557 -57.643044 
L 936.221211 -57.646341 
L 936.885421 -57.648671 
L 936.885421 -57.6288 
L 936.885421 -57.6288 
L 936.221211 -57.6288 
L 935.557 -57.6288 
L 934.89279 -57.6288 
L 934.228579 -57.6288 
L 933.564369 -57.6288 
L 932.900158 -57.6288 
L 932.235948 -57.6288 
L 931.571737 -57.6288 
L 930.907527 -57.6288 
L 930.243316 -57.6288 
L 929.579106 -57.6288 
L 928.914895 -57.6288 
L 928.250685 -57.6288 
L 927.586474 -57.6288 
L 926.922264 -57.6288 
L 926.258053 -57.6288 
L 925.593843 -57.6288 
L 924.929632 -57.6288 
L 924.265422 -57.6288 
L 923.601211 -57.6288 
L 922.937001 -57.6288 
L 922.27279 -57.6288 
L 921.60858 -57.6288 
L 920.944369 -57.6288 
L 920.280159 -57.6288 
L 919.615948 -57.6288 
L 918.951738 -57.6288 
L 918.287527 -57.6288 
L 917.623317 -57.6288 
L 916.959106 -57.6288 
L 916.294896 -57.6288 
L 915.630685 -57.6288 
L 914.966475 -57.6288 
L 914.302264 -57.6288 
L 913.638054 -57.6288 
L 912.973843 -57.6288 
L 912.309633 -57.6288 
L 911.645422 -57.6288 
L 910.981212 -57.6288 
L 910.317001 -57.6288 
L 909.652791 -57.6288 
L 908.98858 -57.6288 
L 908.32437 -57.6288 
L 907.660159 -57.6288 
L 906.995949 -57.6288 
L 906.331738 -57.6288 
L 905.667528 -57.6288 
L 905.003317 -57.6288 
L 904.339107 -57.6288 
L 903.674896 -57.6288 
L 903.010686 -57.6288 
L 902.346475 -57.6288 
L 901.682264 -57.6288 
L 901.018054 -57.6288 
L 900.353843 -57.6288 
L 899.689633 -57.6288 
L 899.025422 -57.6288 
L 898.361212 -57.6288 
L 897.697001 -57.6288 
L 897.032791 -57.6288 
L 896.36858 -57.6288 
L 895.70437 -57.6288 
L 895.040159 -57.6288 
L 894.375949 -57.6288 
L 893.711738 -57.6288 
L 893.047528 -57.6288 
L 892.383317 -57.6288 
L 891.719107 -57.6288 
L 891.054896 -57.6288 
L 890.390686 -57.6288 
L 889.726475 -57.6288 
L 889.062265 -57.6288 
L 888.398054 -57.6288 
L 887.733844 -57.6288 
L 887.069633 -57.6288 
L 886.405423 -57.6288 
L 885.741212 -57.6288 
L 885.077002 -57.6288 
L 884.412791 -57.6288 
L 883.748581 -57.6288 
L 883.08437 -57.6288 
L 882.42016 -57.6288 
L 881.755949 -57.6288 
L 881.091739 -57.6288 
L 880.427528 -57.6288 
L 879.763318 -57.6288 
L 879.099107 -57.6288 
L 878.434897 -57.6288 
L 877.770686 -57.6288 
L 877.106476 -57.6288 
L 876.442265 -57.6288 
L 875.778055 -57.6288 
L 875.113844 -57.6288 
L 874.449634 -57.6288 
L 873.785423 -57.6288 
L 873.121213 -57.6288 
L 872.457002 -57.6288 
L 871.792792 -57.6288 
L 871.128581 -57.6288 
L 870.464371 -57.6288 
L 869.80016 -57.6288 
L 869.13595 -57.6288 
L 868.471739 -57.6288 
L 867.807529 -57.6288 
L 867.143318 -57.6288 
L 866.479108 -57.6288 
L 865.814897 -57.6288 
L 865.150686 -57.6288 
L 864.486476 -57.6288 
L 863.822265 -57.6288 
L 863.158055 -57.6288 
L 862.493844 -57.6288 
L 861.829634 -57.6288 
L 861.165423 -57.6288 
L 860.501213 -57.6288 
L 859.837002 -57.6288 
L 859.172792 -57.6288 
L 858.508581 -57.6288 
L 857.844371 -57.6288 
L 857.18016 -57.6288 
L 856.51595 -57.6288 
L 855.851739 -57.6288 
L 855.187529 -57.6288 
L 854.523318 -57.6288 
L 853.859108 -57.6288 
L 853.194897 -57.6288 
L 852.530687 -57.6288 
L 851.866476 -57.6288 
L 851.202266 -57.6288 
L 850.538055 -57.6288 
L 849.873845 -57.6288 
L 849.209634 -57.6288 
L 848.545424 -57.6288 
L 847.881213 -57.6288 
L 847.217003 -57.6288 
L 846.552792 -57.6288 
L 845.888582 -57.6288 
L 845.224371 -57.6288 
L 844.560161 -57.6288 
L 843.89595 -57.6288 
L 843.23174 -57.6288 
L 842.567529 -57.6288 
L 841.903319 -57.6288 
L 841.239108 -57.6288 
L 840.574898 -57.6288 
L 839.910687 -57.6288 
L 839.246477 -57.6288 
L 838.582266 -57.6288 
L 837.918056 -57.6288 
L 837.253845 -57.6288 
L 836.589635 -57.6288 
L 835.925424 -57.6288 
L 835.261214 -57.6288 
L 834.597003 -57.6288 
L 833.932793 -57.6288 
L 833.268582 -57.6288 
L 832.604372 -57.6288 
L 831.940161 -57.6288 
L 831.275951 -57.6288 
L 830.61174 -57.6288 
L 829.947529 -57.6288 
L 829.283319 -57.6288 
L 828.619108 -57.6288 
L 827.954898 -57.6288 
L 827.290687 -57.6288 
L 826.626477 -57.6288 
L 825.962266 -57.6288 
L 825.298056 -57.6288 
L 824.633845 -57.6288 
L 823.969635 -57.6288 
L 823.305424 -57.6288 
L 822.641214 -57.6288 
L 821.977003 -57.6288 
L 821.312793 -57.6288 
L 820.648582 -57.6288 
L 819.984372 -57.6288 
L 819.320161 -57.6288 
L 818.655951 -57.6288 
L 817.99174 -57.6288 
L 817.32753 -57.6288 
L 816.663319 -57.6288 
L 815.999109 -57.6288 
L 815.334898 -57.6288 
L 814.670688 -57.6288 
L 814.006477 -57.6288 
L 813.342267 -57.6288 
L 812.678056 -57.6288 
L 812.013846 -57.6288 
L 811.349635 -57.6288 
L 810.685425 -57.6288 
L 810.021214 -57.6288 
L 809.357004 -57.6288 
L 808.692793 -57.6288 
L 808.028583 -57.6288 
L 807.364372 -57.6288 
L 806.700162 -57.6288 
L 806.035951 -57.6288 
L 805.371741 -57.6288 
L 804.70753 -57.6288 
L 804.04332 -57.6288 
L 803.379109 -57.6288 
L 802.714899 -57.6288 
L 802.050688 -57.6288 
L 801.386478 -57.6288 
L 800.722267 -57.6288 
L 800.058057 -57.6288 
L 799.393846 -57.6288 
L 798.729636 -57.6288 
L 798.065425 -57.6288 
L 797.401215 -57.6288 
L 796.737004 -57.6288 
L 796.072794 -57.6288 
L 795.408583 -57.6288 
L 794.744372 -57.6288 
L 794.080162 -57.6288 
L 793.415951 -57.6288 
L 792.751741 -57.6288 
L 792.08753 -57.6288 
L 791.42332 -57.6288 
L 790.759109 -57.6288 
L 790.094899 -57.6288 
L 789.430688 -57.6288 
L 788.766478 -57.6288 
L 788.102267 -57.6288 
L 787.438057 -57.6288 
L 786.773846 -57.6288 
L 786.109636 -57.6288 
L 785.445425 -57.6288 
L 784.781215 -57.6288 
L 784.117004 -57.6288 
L 783.452794 -57.6288 
L 782.788583 -57.6288 
L 782.124373 -57.6288 
L 781.460162 -57.6288 
L 780.795952 -57.6288 
L 780.131741 -57.6288 
L 779.467531 -57.6288 
L 778.80332 -57.6288 
L 778.13911 -57.6288 
L 777.474899 -57.6288 
L 776.810689 -57.6288 
L 776.146478 -57.6288 
L 775.482268 -57.6288 
L 774.818057 -57.6288 
L 774.153847 -57.6288 
L 773.489636 -57.6288 
L 772.825426 -57.6288 
L 772.161215 -57.6288 
L 771.497005 -57.6288 
L 770.832794 -57.6288 
L 770.168584 -57.6288 
L 769.504373 -57.6288 
L 768.840163 -57.6288 
L 768.175952 -57.6288 
L 767.511742 -57.6288 
L 766.847531 -57.6288 
L 766.183321 -57.6288 
L 765.51911 -57.6288 
L 764.8549 -57.6288 
L 764.190689 -57.6288 
L 763.526479 -57.6288 
L 762.862268 -57.6288 
L 762.198058 -57.6288 
L 761.533847 -57.6288 
L 760.869637 -57.6288 
L 760.205426 -57.6288 
L 759.541216 -57.6288 
L 758.877005 -57.6288 
L 758.212794 -57.6288 
L 757.548584 -57.6288 
L 756.884373 -57.6288 
L 756.220163 -57.6288 
L 755.555952 -57.6288 
L 754.891742 -57.6288 
L 754.227531 -57.6288 
L 753.563321 -57.6288 
L 752.89911 -57.6288 
L 752.2349 -57.6288 
L 751.570689 -57.6288 
L 750.906479 -57.6288 
L 750.242268 -57.6288 
L 749.578058 -57.6288 
L 748.913847 -57.6288 
L 748.249637 -57.6288 
L 747.585426 -57.6288 
L 746.921216 -57.6288 
L 746.257005 -57.6288 
L 745.592795 -57.6288 
L 744.928584 -57.6288 
L 744.264374 -57.6288 
L 743.600163 -57.6288 
L 742.935953 -57.6288 
L 742.271742 -57.6288 
L 741.607532 -57.6288 
L 740.943321 -57.6288 
L 740.279111 -57.6288 
L 739.6149 -57.6288 
L 738.95069 -57.6288 
L 738.286479 -57.6288 
L 737.622269 -57.6288 
L 736.958058 -57.6288 
L 736.293848 -57.6288 
L 735.629637 -57.6288 
L 734.965427 -57.6288 
L 734.301216 -57.6288 
L 733.637006 -57.6288 
L 732.972795 -57.6288 
L 732.308585 -57.6288 
L 731.644374 -57.6288 
L 730.980164 -57.6288 
L 730.315953 -57.6288 
L 729.651743 -57.6288 
L 728.987532 -57.6288 
L 728.323322 -57.6288 
L 727.659111 -57.6288 
L 726.994901 -57.6288 
L 726.33069 -57.6288 
L 725.66648 -57.6288 
L 725.002269 -57.6288 
L 724.338059 -57.6288 
L 723.673848 -57.6288 
L 723.009637 -57.6288 
L 722.345427 -57.6288 
L 721.681216 -57.6288 
L 721.017006 -57.6288 
L 720.352795 -57.6288 
L 719.688585 -57.6288 
L 719.024374 -57.6288 
L 718.360164 -57.6288 
L 717.695953 -57.6288 
L 717.031743 -57.6288 
L 716.367532 -57.6288 
L 715.703322 -57.6288 
L 715.039111 -57.6288 
L 714.374901 -57.6288 
L 713.71069 -57.6288 
L 713.04648 -57.6288 
L 712.382269 -57.6288 
L 711.718059 -57.6288 
L 711.053848 -57.6288 
L 710.389638 -57.6288 
L 709.725427 -57.6288 
L 709.061217 -57.6288 
L 708.397006 -57.6288 
L 707.732796 -57.6288 
L 707.068585 -57.6288 
L 706.404375 -57.6288 
L 705.740164 -57.6288 
L 705.075954 -57.6288 
L 704.411743 -57.6288 
L 703.747533 -57.6288 
L 703.083322 -57.6288 
L 702.419112 -57.6288 
L 701.754901 -57.6288 
L 701.090691 -57.6288 
L 700.42648 -57.6288 
L 699.76227 -57.6288 
L 699.098059 -57.6288 
L 698.433849 -57.6288 
L 697.769638 -57.6288 
L 697.105428 -57.6288 
L 696.441217 -57.6288 
L 695.777007 -57.6288 
L 695.112796 -57.6288 
L 694.448586 -57.6288 
L 693.784375 -57.6288 
L 693.120165 -57.6288 
L 692.455954 -57.6288 
L 691.791744 -57.6288 
L 691.127533 -57.6288 
L 690.463323 -57.6288 
L 689.799112 -57.6288 
L 689.134902 -57.6288 
L 688.470691 -57.6288 
L 687.806481 -57.6288 
L 687.14227 -57.6288 
L 686.478059 -57.6288 
L 685.813849 -57.6288 
L 685.149638 -57.6288 
L 684.485428 -57.6288 
L 683.821217 -57.6288 
L 683.157007 -57.6288 
L 682.492796 -57.6288 
L 681.828586 -57.6288 
L 681.164375 -57.6288 
L 680.500165 -57.6288 
L 679.835954 -57.6288 
L 679.171744 -57.6288 
L 678.507533 -57.6288 
L 677.843323 -57.6288 
L 677.179112 -57.6288 
L 676.514902 -57.6288 
L 675.850691 -57.6288 
L 675.186481 -57.6288 
L 674.52227 -57.6288 
L 673.85806 -57.6288 
L 673.193849 -57.6288 
L 672.529639 -57.6288 
L 671.865428 -57.6288 
L 671.201218 -57.6288 
L 670.537007 -57.6288 
L 669.872797 -57.6288 
L 669.208586 -57.6288 
L 668.544376 -57.6288 
L 667.880165 -57.6288 
L 667.215955 -57.6288 
L 666.551744 -57.6288 
L 665.887534 -57.6288 
L 665.223323 -57.6288 
L 664.559113 -57.6288 
L 663.894902 -57.6288 
L 663.230692 -57.6288 
L 662.566481 -57.6288 
L 661.902271 -57.6288 
L 661.23806 -57.6288 
L 660.57385 -57.6288 
L 659.909639 -57.6288 
L 659.245429 -57.6288 
L 658.581218 -57.6288 
L 657.917008 -57.6288 
L 657.252797 -57.6288 
L 656.588587 -57.6288 
L 655.924376 -57.6288 
L 655.260166 -57.6288 
L 654.595955 -57.6288 
L 653.931745 -57.6288 
L 653.267534 -57.6288 
L 652.603324 -57.6288 
L 651.939113 -57.6288 
L 651.274902 -57.6288 
L 650.610692 -57.6288 
L 649.946481 -57.6288 
L 649.282271 -57.6288 
L 648.61806 -57.6288 
L 647.95385 -57.6288 
L 647.289639 -57.6288 
L 646.625429 -57.6288 
L 645.961218 -57.6288 
L 645.297008 -57.6288 
L 644.632797 -57.6288 
L 643.968587 -57.6288 
L 643.304376 -57.6288 
L 642.640166 -57.6288 
L 641.975955 -57.6288 
L 641.311745 -57.6288 
L 640.647534 -57.6288 
L 639.983324 -57.6288 
L 639.319113 -57.6288 
L 638.654903 -57.6288 
L 637.990692 -57.6288 
L 637.326482 -57.6288 
L 636.662271 -57.6288 
L 635.998061 -57.6288 
L 635.33385 -57.6288 
L 634.66964 -57.6288 
L 634.005429 -57.6288 
L 633.341219 -57.6288 
L 632.677008 -57.6288 
L 632.012798 -57.6288 
L 631.348587 -57.6288 
L 630.684377 -57.6288 
L 630.020166 -57.6288 
L 629.355956 -57.6288 
L 628.691745 -57.6288 
L 628.027535 -57.6288 
L 627.363324 -57.6288 
L 626.699114 -57.6288 
L 626.034903 -57.6288 
L 625.370693 -57.6288 
L 624.706482 -57.6288 
L 624.042272 -57.6288 
L 623.378061 -57.6288 
L 622.713851 -57.6288 
L 622.04964 -57.6288 
L 621.38543 -57.6288 
L 620.721219 -57.6288 
L 620.057009 -57.6288 
L 619.392798 -57.6288 
L 618.728588 -57.6288 
L 618.064377 -57.6288 
L 617.400167 -57.6288 
L 616.735956 -57.6288 
L 616.071745 -57.6288 
L 615.407535 -57.6288 
L 614.743324 -57.6288 
L 614.079114 -57.6288 
L 613.414903 -57.6288 
L 612.750693 -57.6288 
L 612.086482 -57.6288 
L 611.422272 -57.6288 
L 610.758061 -57.6288 
L 610.093851 -57.6288 
L 609.42964 -57.6288 
L 608.76543 -57.6288 
L 608.101219 -57.6288 
L 607.437009 -57.6288 
L 606.772798 -57.6288 
L 606.108588 -57.6288 
L 605.444377 -57.6288 
L 604.780167 -57.6288 
L 604.115956 -57.6288 
L 603.451746 -57.6288 
L 602.787535 -57.6288 
L 602.123325 -57.6288 
L 601.459114 -57.6288 
L 600.794904 -57.6288 
L 600.130693 -57.6288 
L 599.466483 -57.6288 
L 598.802272 -57.6288 
L 598.138062 -57.6288 
L 597.473851 -57.6288 
z
" style="stroke: #1f77b4; stroke-opacity: 0"/>
    </defs>
    <g clip-path="url(#pb8bf345bb5)">
     <use xlink:href="#m50fcf06f1a" x="0" y="397.44" style="fill: #1f77b4; fill-opacity: 0; stroke: #1f77b4; stroke-opacity: 0"/>
    </g>
   </g>
   <g id="matplotlib.axis_3">
    <g id="xtick_8">
     <g id="line2d_10">
      <g>
       <use xlink:href="#mb91ea32c56" x="618.044702" y="353.7216" style="fill: #808080; stroke: #808080"/>
      </g>
     </g>
     <g id="text_13">
      <!-- 0.02 -->
      <g transform="translate(602.458764 370.859412) scale(0.14 -0.14)">
       <use xlink:href="#DejaVuSans-30"/>
       <use xlink:href="#DejaVuSans-2e" x="63.623047"/>
       <use xlink:href="#DejaVuSans-30" x="95.410156"/>
       <use xlink:href="#DejaVuSans-32" x="159.033203"/>
      </g>
     </g>
    </g>
    <g id="xtick_9">
     <g id="line2d_11">
      <g>
       <use xlink:href="#mb91ea32c56" x="672.099615" y="353.7216" style="fill: #808080; stroke: #808080"/>
      </g>
     </g>
     <g id="text_14">
      <!-- 0.04 -->
      <g transform="translate(656.513677 370.859412) scale(0.14 -0.14)">
       <use xlink:href="#DejaVuSans-30"/>
       <use xlink:href="#DejaVuSans-2e" x="63.623047"/>
       <use xlink:href="#DejaVuSans-30" x="95.410156"/>
       <use xlink:href="#DejaVuSans-34" x="159.033203"/>
      </g>
     </g>
    </g>
    <g id="xtick_10">
     <g id="line2d_12">
      <g>
       <use xlink:href="#mb91ea32c56" x="726.154528" y="353.7216" style="fill: #808080; stroke: #808080"/>
      </g>
     </g>
     <g id="text_15">
      <!-- 0.06 -->
      <g transform="translate(710.56859 370.859412) scale(0.14 -0.14)">
       <use xlink:href="#DejaVuSans-30"/>
       <use xlink:href="#DejaVuSans-2e" x="63.623047"/>
       <use xlink:href="#DejaVuSans-30" x="95.410156"/>
       <use xlink:href="#DejaVuSans-36" x="159.033203"/>
      </g>
     </g>
    </g>
    <g id="xtick_11">
     <g id="line2d_13">
      <g>
       <use xlink:href="#mb91ea32c56" x="780.20944" y="353.7216" style="fill: #808080; stroke: #808080"/>
      </g>
     </g>
     <g id="text_16">
      <!-- 0.08 -->
      <g transform="translate(764.623503 370.859412) scale(0.14 -0.14)">
       <use xlink:href="#DejaVuSans-30"/>
       <use xlink:href="#DejaVuSans-2e" x="63.623047"/>
       <use xlink:href="#DejaVuSans-30" x="95.410156"/>
       <use xlink:href="#DejaVuSans-38" x="159.033203"/>
      </g>
     </g>
    </g>
    <g id="xtick_12">
     <g id="line2d_14">
      <g>
       <use xlink:href="#mb91ea32c56" x="834.264353" y="353.7216" style="fill: #808080; stroke: #808080"/>
      </g>
     </g>
     <g id="text_17">
      <!-- 0.10 -->
      <g transform="translate(818.678416 370.859412) scale(0.14 -0.14)">
       <use xlink:href="#DejaVuSans-30"/>
       <use xlink:href="#DejaVuSans-2e" x="63.623047"/>
       <use xlink:href="#DejaVuSans-31" x="95.410156"/>
       <use xlink:href="#DejaVuSans-30" x="159.033203"/>
      </g>
     </g>
    </g>
    <g id="xtick_13">
     <g id="line2d_15">
      <g>
       <use xlink:href="#mb91ea32c56" x="888.319266" y="353.7216" style="fill: #808080; stroke: #808080"/>
      </g>
     </g>
     <g id="text_18">
      <!-- 0.12 -->
      <g transform="translate(872.733329 370.859412) scale(0.14 -0.14)">
       <use xlink:href="#DejaVuSans-30"/>
       <use xlink:href="#DejaVuSans-2e" x="63.623047"/>
       <use xlink:href="#DejaVuSans-31" x="95.410156"/>
       <use xlink:href="#DejaVuSans-32" x="159.033203"/>
      </g>
     </g>
    </g>
    <g id="xtick_14">
     <g id="line2d_16">
      <g>
       <use xlink:href="#mb91ea32c56" x="942.374179" y="353.7216" style="fill: #808080; stroke: #808080"/>
      </g>
     </g>
     <g id="text_19">
      <!-- 0.14 -->
      <g transform="translate(926.788242 370.859412) scale(0.14 -0.14)">
       <use xlink:href="#DejaVuSans-30"/>
       <use xlink:href="#DejaVuSans-2e" x="63.623047"/>
       <use xlink:href="#DejaVuSans-31" x="95.410156"/>
       <use xlink:href="#DejaVuSans-34" x="159.033203"/>
      </g>
     </g>
    </g>
   </g>
   <g id="matplotlib.axis_4"/>
   <g id="line2d_17">
    <path d="M 597.473851 339.787603 
L 604.780167 339.678937 
L 609.42964 339.401699 
L 612.750693 339.051273 
L 614.743324 338.668953 
L 617.400167 337.93456 
L 620.057009 336.987908 
L 622.04964 336.041273 
L 624.042272 334.811554 
L 626.034903 333.252194 
L 627.363324 331.967689 
L 628.691745 330.416082 
L 630.020166 328.572245 
L 632.012798 325.352504 
L 634.66964 320.530421 
L 636.662271 316.453401 
L 637.990692 313.375404 
L 639.319113 309.896832 
L 641.311745 303.919431 
L 643.968587 295.099036 
L 645.961218 287.946671 
L 647.95385 279.814266 
L 649.946481 270.510348 
L 657.252797 234.487541 
L 659.245429 223.391328 
L 663.894902 196.559735 
L 667.215955 177.292239 
L 672.529639 144.780215 
L 677.843323 116.81919 
L 679.835954 107.023707 
L 681.164375 101.382109 
L 682.492796 96.47588 
L 684.485428 90.136538 
L 687.14227 81.886579 
L 690.463323 71.066817 
L 691.791744 67.765788 
L 692.455954 66.538274 
L 693.120165 65.582299 
L 694.448586 64.231767 
L 696.441217 62.648922 
L 697.769638 61.886028 
L 699.098059 61.6032 
L 700.42648 61.679403 
L 701.754901 62.016619 
L 703.083322 62.703251 
L 704.411743 63.763196 
L 705.740164 65.274661 
L 706.404375 66.274195 
L 707.732796 68.915681 
L 709.725427 73.957385 
L 712.382269 80.462596 
L 714.374901 85.559445 
L 716.367532 91.505303 
L 718.360164 98.524175 
L 723.673848 118.899945 
L 726.994901 133.447068 
L 729.651743 144.361543 
L 732.972795 157.181044 
L 736.293848 169.560026 
L 741.607532 191.674984 
L 743.600163 200.873802 
L 746.257005 213.367086 
L 747.585426 218.68578 
L 748.913847 223.225644 
L 753.563321 237.99155 
L 757.548584 251.837141 
L 759.541216 257.750268 
L 766.847531 278.090522 
L 768.840163 283.032779 
L 772.825426 291.724701 
L 774.818057 295.860872 
L 776.810689 299.401769 
L 780.131741 304.560957 
L 783.452794 309.451825 
L 785.445425 312.043518 
L 789.430688 316.573023 
L 791.42332 318.696748 
L 798.065425 324.96074 
L 800.058057 326.205732 
L 802.050688 327.501509 
L 805.371741 329.834546 
L 807.364372 330.843707 
L 814.670688 333.834773 
L 819.320161 335.298997 
L 821.977003 335.910355 
L 833.268582 337.800822 
L 837.253845 338.185969 
L 853.859108 339.287165 
L 857.844371 339.424743 
L 861.829634 339.552182 
L 877.106476 339.687371 
L 891.054896 339.787092 
L 934.89279 339.800562 
L 936.885421 339.791329 
L 936.885421 339.791329 
" clip-path="url(#pb8bf345bb5)" style="fill: none; stroke: #1f77b4; stroke-width: 1.5; stroke-linecap: square"/>
   </g>
   <g id="line2d_18">
    <path d="M 641.900941 333.968832 
L 775.945291 333.968832 
" clip-path="url(#pb8bf345bb5)" style="fill: none; stroke: #000000; stroke-width: 3"/>
   </g>
   <g id="patch_5">
    <path d="M 580.503273 353.7216 
L 953.856 353.7216 
" style="fill: none; stroke: #808080; stroke-width: 0.8; stroke-linejoin: miter; stroke-linecap: square"/>
   </g>
   <g id="text_20">
    <!-- 0.029  -->
    <g transform="translate(594.191566 319.362912) scale(0.15 -0.15)">
     <use xlink:href="#DejaVuSans-30"/>
     <use xlink:href="#DejaVuSans-2e" x="63.623047"/>
     <use xlink:href="#DejaVuSans-30" x="95.410156"/>
     <use xlink:href="#DejaVuSans-32" x="159.033203"/>
     <use xlink:href="#DejaVuSans-39" x="222.65625"/>
     <use xlink:href="#DejaVuSans-20" x="286.279297"/>
    </g>
   </g>
   <g id="text_21">
    <!--  0.078 -->
    <g transform="translate(775.945291 319.362912) scale(0.15 -0.15)">
     <use xlink:href="#DejaVuSans-20"/>
     <use xlink:href="#DejaVuSans-30" x="31.787109"/>
     <use xlink:href="#DejaVuSans-2e" x="95.410156"/>
     <use xlink:href="#DejaVuSans-30" x="127.197266"/>
     <use xlink:href="#DejaVuSans-37" x="190.820312"/>
     <use xlink:href="#DejaVuSans-38" x="254.443359"/>
    </g>
   </g>
   <g id="text_22">
    <!-- 95% HDI -->
    <g transform="translate(676.241866 252.17568) scale(0.15 -0.15)">
     <use xlink:href="#DejaVuSans-39"/>
     <use xlink:href="#DejaVuSans-35" x="63.623047"/>
     <use xlink:href="#DejaVuSans-25" x="127.246094"/>
     <use xlink:href="#DejaVuSans-20" x="222.265625"/>
     <use xlink:href="#DejaVuSans-48" x="254.052734"/>
     <use xlink:href="#DejaVuSans-44" x="329.248047"/>
     <use xlink:href="#DejaVuSans-49" x="406.25"/>
    </g>
   </g>
   <g id="text_23">
    <!-- mean=0.053 -->
    <g transform="translate(658.220319 106.11648) scale(0.15 -0.15)">
     <use xlink:href="#DejaVuSans-6d"/>
     <use xlink:href="#DejaVuSans-65" x="97.412109"/>
     <use xlink:href="#DejaVuSans-61" x="158.935547"/>
     <use xlink:href="#DejaVuSans-6e" x="220.214844"/>
     <use xlink:href="#DejaVuSans-3d" x="283.59375"/>
     <use xlink:href="#DejaVuSans-30" x="367.382812"/>
     <use xlink:href="#DejaVuSans-2e" x="431.005859"/>
     <use xlink:href="#DejaVuSans-30" x="462.792969"/>
     <use xlink:href="#DejaVuSans-35" x="526.416016"/>
     <use xlink:href="#DejaVuSans-33" x="590.039062"/>
    </g>
   </g>
   <g id="text_24">
    <!-- biased_θ -->
    <g transform="translate(731.912136 41.6928) scale(0.16 -0.16)">
     <defs>
      <path id="DejaVuSans-62" d="M 3116 1747 
Q 3116 2381 2855 2742 
Q 2594 3103 2138 3103 
Q 1681 3103 1420 2742 
Q 1159 2381 1159 1747 
Q 1159 1113 1420 752 
Q 1681 391 2138 391 
Q 2594 391 2855 752 
Q 3116 1113 3116 1747 
z
M 1159 2969 
Q 1341 3281 1617 3432 
Q 1894 3584 2278 3584 
Q 2916 3584 3314 3078 
Q 3713 2572 3713 1747 
Q 3713 922 3314 415 
Q 2916 -91 2278 -91 
Q 1894 -91 1617 61 
Q 1341 213 1159 525 
L 1159 0 
L 581 0 
L 581 4863 
L 1159 4863 
L 1159 2969 
z
" transform="scale(0.015625)"/>
      <path id="DejaVuSans-69" d="M 603 3500 
L 1178 3500 
L 1178 0 
L 603 0 
L 603 3500 
z
M 603 4863 
L 1178 4863 
L 1178 4134 
L 603 4134 
L 603 4863 
z
" transform="scale(0.015625)"/>
      <path id="DejaVuSans-73" d="M 2834 3397 
L 2834 2853 
Q 2591 2978 2328 3040 
Q 2066 3103 1784 3103 
Q 1356 3103 1142 2972 
Q 928 2841 928 2578 
Q 928 2378 1081 2264 
Q 1234 2150 1697 2047 
L 1894 2003 
Q 2506 1872 2764 1633 
Q 3022 1394 3022 966 
Q 3022 478 2636 193 
Q 2250 -91 1575 -91 
Q 1294 -91 989 -36 
Q 684 19 347 128 
L 347 722 
Q 666 556 975 473 
Q 1284 391 1588 391 
Q 1994 391 2212 530 
Q 2431 669 2431 922 
Q 2431 1156 2273 1281 
Q 2116 1406 1581 1522 
L 1381 1569 
Q 847 1681 609 1914 
Q 372 2147 372 2553 
Q 372 3047 722 3315 
Q 1072 3584 1716 3584 
Q 2034 3584 2315 3537 
Q 2597 3491 2834 3397 
z
" transform="scale(0.015625)"/>
      <path id="DejaVuSans-64" d="M 2906 2969 
L 2906 4863 
L 3481 4863 
L 3481 0 
L 2906 0 
L 2906 525 
Q 2725 213 2448 61 
Q 2172 -91 1784 -91 
Q 1150 -91 751 415 
Q 353 922 353 1747 
Q 353 2572 751 3078 
Q 1150 3584 1784 3584 
Q 2172 3584 2448 3432 
Q 2725 3281 2906 2969 
z
M 947 1747 
Q 947 1113 1208 752 
Q 1469 391 1925 391 
Q 2381 391 2643 752 
Q 2906 1113 2906 1747 
Q 2906 2381 2643 2742 
Q 2381 3103 1925 3103 
Q 1469 3103 1208 2742 
Q 947 2381 947 1747 
z
" transform="scale(0.015625)"/>
      <path id="DejaVuSans-5f" d="M 3263 -1063 
L 3263 -1509 
L -63 -1509 
L -63 -1063 
L 3263 -1063 
z
" transform="scale(0.015625)"/>
     </defs>
     <use xlink:href="#DejaVuSans-62"/>
     <use xlink:href="#DejaVuSans-69" x="63.476562"/>
     <use xlink:href="#DejaVuSans-61" x="91.259766"/>
     <use xlink:href="#DejaVuSans-73" x="152.539062"/>
     <use xlink:href="#DejaVuSans-65" x="204.638672"/>
     <use xlink:href="#DejaVuSans-64" x="266.162109"/>
     <use xlink:href="#DejaVuSans-5f" x="329.638672"/>
     <use xlink:href="#DejaVuSans-3b8" x="379.638672"/>
    </g>
   </g>
  </g>
 </g>
 <defs>
  <clipPath id="pbb3c3e19c7">
   <rect x="132.48" y="47.6928" width="373.352727" height="306.0288"/>
  </clipPath>
  <clipPath id="pb8bf345bb5">
   <rect x="580.503273" y="47.6928" width="373.352727" height="306.0288"/>
  </clipPath>
 </defs>
</svg>
