<?xml version="1.0" encoding="utf-8" standalone="no"?>
<!DOCTYPE svg PUBLIC "-//W3C//DTD SVG 1.1//EN"
  "http://www.w3.org/Graphics/SVG/1.1/DTD/svg11.dtd">
<svg xmlns:xlink="http://www.w3.org/1999/xlink" width="1059.84pt" height="397.44pt" viewBox="0 0 1059.84 397.44" xmlns="http://www.w3.org/2000/svg" version="1.1">
 <metadata>
  <rdf:RDF xmlns:dc="http://purl.org/dc/elements/1.1/" xmlns:cc="http://creativecommons.org/ns#" xmlns:rdf="http://www.w3.org/1999/02/22-rdf-syntax-ns#">
   <cc:Work>
    <dc:type rdf:resource="http://purl.org/dc/dcmitype/StillImage"/>
    <dc:format>image/svg+xml</dc:format>
   </cc:Work>
  </rdf:RDF>
 </metadata>
 <defs>
  <style type="text/css">*{stroke-linejoin: round; stroke-linecap: butt}</style>
 </defs>
 <g id="figure_1">
  <g id="patch_1">
   <path d="M 0 397.44 
L 1059.84 397.44 
L 1059.84 0 
L 0 0 
z
" style="fill: #ffffff"/>
  </g>
  <g id="axes_1">
   <g id="patch_2">
    <path d="M 132.48 353.7216 
L 505.832727 353.7216 
L 505.832727 47.6928 
L 132.48 47.6928 
z
" style="fill: #ffffff"/>
   </g>
   <g id="PolyCollection_1">
    <defs>
     <path id="m2bd8fdd2d0" d="M 149.450579 -57.6288 
L 149.450579 -57.65169 
L 150.114789 -57.65107 
L 150.779 -57.649418 
L 151.44321 -57.647034 
L 152.107421 -57.644542 
L 152.771631 -57.642287 
L 153.435842 -57.640837 
L 154.100052 -57.640341 
L 154.764263 -57.641103 
L 155.428473 -57.643198 
L 156.092684 -57.646662 
L 156.756894 -57.651051 
L 157.421105 -57.655681 
L 158.085315 -57.65992 
L 158.749526 -57.663226 
L 159.413736 -57.665509 
L 160.077947 -57.667113 
L 160.742157 -57.668643 
L 161.406368 -57.670473 
L 162.070578 -57.673252 
L 162.734789 -57.676856 
L 163.398999 -57.68142 
L 164.06321 -57.68743 
L 164.72742 -57.695321 
L 165.391631 -57.705849 
L 166.055841 -57.720048 
L 166.720052 -57.737091 
L 167.384262 -57.756368 
L 168.048473 -57.777196 
L 168.712683 -57.798154 
L 169.376894 -57.819073 
L 170.041104 -57.840005 
L 170.705315 -57.862413 
L 171.369525 -57.88693 
L 172.033736 -57.914569 
L 172.697946 -57.945783 
L 173.362157 -57.980271 
L 174.026367 -58.01773 
L 174.690578 -58.056779 
L 175.354788 -58.096755 
L 176.018999 -58.138483 
L 176.683209 -58.18315 
L 177.34742 -58.231442 
L 178.01163 -58.28613 
L 178.675841 -58.346266 
L 179.340051 -58.411689 
L 180.004262 -58.481265 
L 180.668472 -58.554132 
L 181.332683 -58.629654 
L 181.996893 -58.709096 
L 182.661104 -58.794234 
L 183.325314 -58.887301 
L 183.989525 -58.992261 
L 184.653736 -59.112092 
L 185.317946 -59.250201 
L 185.982157 -59.40614 
L 186.646367 -59.578045 
L 187.310578 -59.762038 
L 187.974788 -59.952364 
L 188.638999 -60.143929 
L 189.303209 -60.333881 
L 189.96742 -60.523029 
L 190.63163 -60.713298 
L 191.295841 -60.908445 
L 191.960051 -61.115442 
L 192.624262 -61.335979 
L 193.288472 -61.572831 
L 193.952683 -61.827573 
L 194.616893 -62.102387 
L 195.281104 -62.397829 
L 195.945314 -62.719379 
L 196.609525 -63.072672 
L 197.273735 -63.465169 
L 197.937946 -63.902269 
L 198.602156 -64.384644 
L 199.266367 -64.905071 
L 199.930577 -65.452985 
L 200.594788 -66.014614 
L 201.258998 -66.585368 
L 201.923209 -67.162593 
L 202.587419 -67.753582 
L 203.25163 -68.368182 
L 203.91584 -69.01412 
L 204.580051 -69.693137 
L 205.244261 -70.400667 
L 205.908472 -71.134669 
L 206.572682 -71.889712 
L 207.236893 -72.66301 
L 207.901103 -73.459375 
L 208.565314 -74.282333 
L 209.229524 -75.13727 
L 209.893735 -76.034029 
L 210.557945 -76.981255 
L 211.222156 -77.99265 
L 211.886366 -79.076377 
L 212.550577 -80.237606 
L 213.214787 -81.473574 
L 213.878998 -82.780504 
L 214.543208 -84.14534 
L 215.207419 -85.558394 
L 215.871629 -87.01147 
L 216.53584 -88.503144 
L 217.20005 -90.050436 
L 217.864261 -91.672596 
L 218.528471 -93.386252 
L 219.192682 -95.198681 
L 219.856892 -97.10172 
L 220.521103 -99.067948 
L 221.185314 -101.052331 
L 221.849524 -103.030222 
L 222.513735 -104.974825 
L 223.177945 -106.892413 
L 223.842156 -108.804027 
L 224.506366 -110.734556 
L 225.170577 -112.706162 
L 225.834787 -114.751568 
L 226.498998 -116.8943 
L 227.163208 -119.150657 
L 227.827419 -121.53432 
L 228.491629 -124.044152 
L 229.15584 -126.661544 
L 229.82005 -129.356572 
L 230.484261 -132.087494 
L 231.148471 -134.825029 
L 231.812682 -137.564493 
L 232.476892 -140.309996 
L 233.141103 -143.076478 
L 233.805313 -145.887755 
L 234.469524 -148.758967 
L 235.133734 -151.689655 
L 235.797945 -154.677344 
L 236.462155 -157.717167 
L 237.126366 -160.817089 
L 237.790576 -163.988264 
L 238.454787 -167.23054 
L 239.118997 -170.531582 
L 239.783208 -173.885457 
L 240.447418 -177.282073 
L 241.111629 -180.70923 
L 241.775839 -184.157786 
L 242.44005 -187.622441 
L 243.10426 -191.097108 
L 243.768471 -194.559928 
L 244.432681 -198.001579 
L 245.096892 -201.398489 
L 245.761102 -204.760651 
L 246.425313 -208.120638 
L 247.089523 -211.503508 
L 247.753734 -214.952216 
L 248.417944 -218.500466 
L 249.082155 -222.158235 
L 249.746365 -225.90608 
L 250.410576 -229.72511 
L 251.074786 -233.555239 
L 251.738997 -237.364285 
L 252.403207 -241.09688 
L 253.067418 -244.737246 
L 253.731628 -248.268159 
L 254.395839 -251.705693 
L 255.060049 -255.053846 
L 255.72426 -258.313031 
L 256.388471 -261.513939 
L 257.052681 -264.656808 
L 257.716892 -267.761885 
L 258.381102 -270.862013 
L 259.045313 -273.950992 
L 259.709523 -277.042741 
L 260.373734 -280.129551 
L 261.037944 -283.205418 
L 261.702155 -286.276216 
L 262.366365 -289.339829 
L 263.030576 -292.390939 
L 263.694786 -295.396717 
L 264.358997 -298.343445 
L 265.023207 -301.170379 
L 265.687418 -303.869634 
L 266.351628 -306.429348 
L 267.015839 -308.869217 
L 267.680049 -311.207425 
L 268.34426 -313.45354 
L 269.00847 -315.606439 
L 269.672681 -317.658547 
L 270.336891 -319.638422 
L 271.001102 -321.537101 
L 271.665312 -323.355402 
L 272.329523 -325.077671 
L 272.993733 -326.661589 
L 273.657944 -328.063419 
L 274.322154 -329.242978 
L 274.986365 -330.190968 
L 275.650575 -330.941147 
L 276.314786 -331.524356 
L 276.978996 -331.99594 
L 277.643207 -332.407338 
L 278.307417 -332.822418 
L 278.971628 -333.276909 
L 279.635838 -333.781313 
L 280.300049 -334.334167 
L 280.964259 -334.886373 
L 281.62847 -335.361582 
L 282.29268 -335.694835 
L 282.956891 -335.8368 
L 283.621101 -335.766653 
L 284.285312 -335.473234 
L 284.949522 -334.967301 
L 285.613733 -334.258006 
L 286.277943 -333.337535 
L 286.942154 -332.259475 
L 287.606364 -331.073373 
L 288.270575 -329.813499 
L 288.934785 -328.526542 
L 289.598996 -327.233735 
L 290.263206 -325.923837 
L 290.927417 -324.582397 
L 291.591628 -323.190626 
L 292.255838 -321.752766 
L 292.920049 -320.286594 
L 293.584259 -318.79702 
L 294.24847 -317.279157 
L 294.91268 -315.719229 
L 295.576891 -314.040536 
L 296.241101 -312.160407 
L 296.905312 -310.03572 
L 297.569522 -307.645125 
L 298.233733 -305.012974 
L 298.897943 -302.234576 
L 299.562154 -299.426569 
L 300.226364 -296.667178 
L 300.890575 -293.996422 
L 301.554785 -291.417228 
L 302.218996 -288.862367 
L 302.883206 -286.268864 
L 303.547417 -283.610888 
L 304.211627 -280.857978 
L 304.875838 -278.023042 
L 305.540048 -275.121452 
L 306.204259 -272.163564 
L 306.868469 -269.147406 
L 307.53268 -266.110022 
L 308.19689 -263.075168 
L 308.861101 -260.071678 
L 309.525311 -257.130876 
L 310.189522 -254.241895 
L 310.853732 -251.383798 
L 311.517943 -248.503303 
L 312.182153 -245.547445 
L 312.846364 -242.466935 
L 313.510574 -239.244344 
L 314.174785 -235.896266 
L 314.838995 -232.430365 
L 315.503206 -228.9107 
L 316.167416 -225.391157 
L 316.831627 -221.920316 
L 317.495837 -218.57347 
L 318.160048 -215.378309 
L 318.824258 -212.327762 
L 319.488469 -209.392542 
L 320.152679 -206.517522 
L 320.81689 -203.619403 
L 321.4811 -200.656179 
L 322.145311 -197.625483 
L 322.809521 -194.541041 
L 323.473732 -191.447825 
L 324.137942 -188.401801 
L 324.802153 -185.448736 
L 325.466363 -182.586142 
L 326.130574 -179.802375 
L 326.794784 -177.036662 
L 327.458995 -174.25002 
L 328.123206 -171.415734 
L 328.787416 -168.507077 
L 329.451627 -165.559695 
L 330.115837 -162.627766 
L 330.780048 -159.760083 
L 331.444258 -157.00979 
L 332.108469 -154.406994 
L 332.772679 -151.948271 
L 333.43689 -149.604264 
L 334.1011 -147.336288 
L 334.765311 -145.103981 
L 335.429521 -142.86299 
L 336.093732 -140.608576 
L 336.757942 -138.348677 
L 337.422153 -136.112928 
L 338.086363 -133.923868 
L 338.750574 -131.806913 
L 339.414784 -129.751836 
L 340.078995 -127.743192 
L 340.743205 -125.737784 
L 341.407416 -123.727832 
L 342.071626 -121.713637 
L 342.735837 -119.712719 
L 343.400047 -117.751034 
L 344.064258 -115.854414 
L 344.728468 -114.026244 
L 345.392679 -112.265421 
L 346.056889 -110.552502 
L 346.7211 -108.881637 
L 347.38531 -107.24474 
L 348.049521 -105.645793 
L 348.713731 -104.095993 
L 349.377942 -102.597836 
L 350.042152 -101.151057 
L 350.706363 -99.741832 
L 351.370573 -98.365333 
L 352.034784 -97.005632 
L 352.698994 -95.652153 
L 353.363205 -94.303232 
L 354.027415 -92.966369 
L 354.691626 -91.650811 
L 355.355836 -90.378209 
L 356.020047 -89.170195 
L 356.684257 -88.040308 
L 357.348468 -86.997497 
L 358.012678 -86.033508 
L 358.676889 -85.12311 
L 359.341099 -84.241119 
L 360.00531 -83.353981 
L 360.66952 -82.440496 
L 361.333731 -81.487949 
L 361.997941 -80.498321 
L 362.662152 -79.483954 
L 363.326363 -78.469328 
L 363.990573 -77.481783 
L 364.654784 -76.549348 
L 365.318994 -75.700274 
L 365.983205 -74.94775 
L 366.647415 -74.286335 
L 367.311626 -73.699084 
L 367.975836 -73.159259 
L 368.640047 -72.634729 
L 369.304257 -72.108674 
L 369.968468 -71.57083 
L 370.632678 -71.01997 
L 371.296889 -70.467203 
L 371.961099 -69.920058 
L 372.62531 -69.381199 
L 373.28952 -68.850488 
L 373.953731 -68.327416 
L 374.617941 -67.808652 
L 375.282152 -67.29614 
L 375.946362 -66.795599 
L 376.610573 -66.314554 
L 377.274783 -65.865608 
L 377.938994 -65.457303 
L 378.603204 -65.094745 
L 379.267415 -64.776283 
L 379.931625 -64.492973 
L 380.595836 -64.231456 
L 381.260046 -63.981011 
L 381.924257 -63.733715 
L 382.588467 -63.487992 
L 383.252678 -63.248757 
L 383.916888 -63.019467 
L 384.581099 -62.801435 
L 385.245309 -62.593358 
L 385.90952 -62.391514 
L 386.57373 -62.191528 
L 387.237941 -61.988381 
L 387.902151 -61.78232 
L 388.566362 -61.574606 
L 389.230572 -61.368119 
L 389.894783 -61.165819 
L 390.558993 -60.971369 
L 391.223204 -60.790823 
L 391.887414 -60.624696 
L 392.551625 -60.475 
L 393.215835 -60.339287 
L 393.880046 -60.211703 
L 394.544256 -60.085935 
L 395.208467 -59.959133 
L 395.872677 -59.82945 
L 396.536888 -59.700487 
L 397.201098 -59.576157 
L 397.865309 -59.458464 
L 398.529519 -59.349 
L 399.19373 -59.246724 
L 399.857941 -59.149343 
L 400.522151 -59.057 
L 401.186362 -58.970389 
L 401.850572 -58.893164 
L 402.514783 -58.827788 
L 403.178993 -58.776794 
L 403.843204 -58.739028 
L 404.507414 -58.710626 
L 405.171625 -58.687484 
L 405.835835 -58.662958 
L 406.500046 -58.632259 
L 407.164256 -58.591668 
L 407.828467 -58.540721 
L 408.492677 -58.48115 
L 409.156888 -58.417217 
L 409.821098 -58.353928 
L 410.485309 -58.295333 
L 411.149519 -58.243544 
L 411.81373 -58.198082 
L 412.47794 -58.157349 
L 413.142151 -58.11998 
L 413.806361 -58.084437 
L 414.470572 -58.05022 
L 415.134782 -58.017944 
L 415.798993 -57.989275 
L 416.463203 -57.964549 
L 417.127414 -57.944845 
L 417.791624 -57.930096 
L 418.455835 -57.919967 
L 419.120045 -57.914162 
L 419.784256 -57.91095 
L 420.448466 -57.909286 
L 421.112677 -57.906935 
L 421.776887 -57.903093 
L 422.441098 -57.897723 
L 423.105308 -57.890944 
L 423.769519 -57.883952 
L 424.433729 -57.877401 
L 425.09794 -57.871812 
L 425.76215 -57.86639 
L 426.426361 -57.860419 
L 427.090571 -57.852644 
L 427.754782 -57.842296 
L 428.418992 -57.828942 
L 429.083203 -57.812952 
L 429.747413 -57.79505 
L 430.411624 -57.77603 
L 431.075834 -57.757403 
L 431.740045 -57.739576 
L 432.404255 -57.723292 
L 433.068466 -57.708938 
L 433.732676 -57.696547 
L 434.396887 -57.686452 
L 435.061098 -57.678433 
L 435.725308 -57.671903 
L 436.389519 -57.667048 
L 437.053729 -57.663226 
L 437.71794 -57.660477 
L 438.38215 -57.658499 
L 439.046361 -57.657188 
L 439.710571 -57.656381 
L 440.374782 -57.656012 
L 441.038992 -57.656067 
L 441.703203 -57.656214 
L 442.367413 -57.656322 
L 443.031624 -57.656123 
L 443.695834 -57.655401 
L 444.360045 -57.653975 
L 445.024255 -57.651998 
L 445.688466 -57.649781 
L 446.352676 -57.647681 
L 447.016887 -57.645976 
L 447.681097 -57.644653 
L 448.345308 -57.643669 
L 449.009518 -57.642766 
L 449.673729 -57.641802 
L 450.337939 -57.640928 
L 451.00215 -57.640287 
L 451.66636 -57.640026 
L 452.330571 -57.640204 
L 452.994781 -57.640711 
L 453.658992 -57.641372 
L 454.323202 -57.642152 
L 454.987413 -57.643111 
L 455.651623 -57.644132 
L 456.315834 -57.645326 
L 456.980044 -57.646408 
L 457.644255 -57.647144 
L 458.308465 -57.647306 
L 458.972676 -57.646765 
L 459.636886 -57.6455 
L 460.301097 -57.643708 
L 460.965307 -57.641519 
L 461.629518 -57.639115 
L 462.293728 -57.636771 
L 462.957939 -57.634604 
L 463.622149 -57.632757 
L 464.28636 -57.631283 
L 464.95057 -57.630238 
L 465.614781 -57.629586 
L 466.278991 -57.629165 
L 466.943202 -57.62897 
L 467.607412 -57.628872 
L 468.271623 -57.6288 
L 468.935833 -57.6288 
L 469.600044 -57.6288 
L 470.264255 -57.6288 
L 470.928465 -57.6288 
L 471.592676 -57.6288 
L 472.256886 -57.6288 
L 472.921097 -57.6288 
L 473.585307 -57.6288 
L 474.249518 -57.6288 
L 474.913728 -57.6288 
L 475.577939 -57.6288 
L 476.242149 -57.6288 
L 476.90636 -57.6288 
L 477.57057 -57.6288 
L 478.234781 -57.6288 
L 478.898991 -57.6288 
L 479.563202 -57.6288 
L 480.227412 -57.6288 
L 480.891623 -57.6288 
L 481.555833 -57.6288 
L 482.220044 -57.6288 
L 482.884254 -57.628872 
L 483.548465 -57.629041 
L 484.212675 -57.629335 
L 484.876886 -57.629879 
L 485.541096 -57.630782 
L 486.205307 -57.632115 
L 486.869517 -57.633848 
L 487.533728 -57.635802 
L 488.197938 -57.637646 
L 488.862149 -57.638977 
L 488.862149 -57.6288 
L 488.862149 -57.6288 
L 488.197938 -57.6288 
L 487.533728 -57.6288 
L 486.869517 -57.6288 
L 486.205307 -57.6288 
L 485.541096 -57.6288 
L 484.876886 -57.6288 
L 484.212675 -57.6288 
L 483.548465 -57.6288 
L 482.884254 -57.6288 
L 482.220044 -57.6288 
L 481.555833 -57.6288 
L 480.891623 -57.6288 
L 480.227412 -57.6288 
L 479.563202 -57.6288 
L 478.898991 -57.6288 
L 478.234781 -57.6288 
L 477.57057 -57.6288 
L 476.90636 -57.6288 
L 476.242149 -57.6288 
L 475.577939 -57.6288 
L 474.913728 -57.6288 
L 474.249518 -57.6288 
L 473.585307 -57.6288 
L 472.921097 -57.6288 
L 472.256886 -57.6288 
L 471.592676 -57.6288 
L 470.928465 -57.6288 
L 470.264255 -57.6288 
L 469.600044 -57.6288 
L 468.935833 -57.6288 
L 468.271623 -57.6288 
L 467.607412 -57.6288 
L 466.943202 -57.6288 
L 466.278991 -57.6288 
L 465.614781 -57.6288 
L 464.95057 -57.6288 
L 464.28636 -57.6288 
L 463.622149 -57.6288 
L 462.957939 -57.6288 
L 462.293728 -57.6288 
L 461.629518 -57.6288 
L 460.965307 -57.6288 
L 460.301097 -57.6288 
L 459.636886 -57.6288 
L 458.972676 -57.6288 
L 458.308465 -57.6288 
L 457.644255 -57.6288 
L 456.980044 -57.6288 
L 456.315834 -57.6288 
L 455.651623 -57.6288 
L 454.987413 -57.6288 
L 454.323202 -57.6288 
L 453.658992 -57.6288 
L 452.994781 -57.6288 
L 452.330571 -57.6288 
L 451.66636 -57.6288 
L 451.00215 -57.6288 
L 450.337939 -57.6288 
L 449.673729 -57.6288 
L 449.009518 -57.6288 
L 448.345308 -57.6288 
L 447.681097 -57.6288 
L 447.016887 -57.6288 
L 446.352676 -57.6288 
L 445.688466 -57.6288 
L 445.024255 -57.6288 
L 444.360045 -57.6288 
L 443.695834 -57.6288 
L 443.031624 -57.6288 
L 442.367413 -57.6288 
L 441.703203 -57.6288 
L 441.038992 -57.6288 
L 440.374782 -57.6288 
L 439.710571 -57.6288 
L 439.046361 -57.6288 
L 438.38215 -57.6288 
L 437.71794 -57.6288 
L 437.053729 -57.6288 
L 436.389519 -57.6288 
L 435.725308 -57.6288 
L 435.061098 -57.6288 
L 434.396887 -57.6288 
L 433.732676 -57.6288 
L 433.068466 -57.6288 
L 432.404255 -57.6288 
L 431.740045 -57.6288 
L 431.075834 -57.6288 
L 430.411624 -57.6288 
L 429.747413 -57.6288 
L 429.083203 -57.6288 
L 428.418992 -57.6288 
L 427.754782 -57.6288 
L 427.090571 -57.6288 
L 426.426361 -57.6288 
L 425.76215 -57.6288 
L 425.09794 -57.6288 
L 424.433729 -57.6288 
L 423.769519 -57.6288 
L 423.105308 -57.6288 
L 422.441098 -57.6288 
L 421.776887 -57.6288 
L 421.112677 -57.6288 
L 420.448466 -57.6288 
L 419.784256 -57.6288 
L 419.120045 -57.6288 
L 418.455835 -57.6288 
L 417.791624 -57.6288 
L 417.127414 -57.6288 
L 416.463203 -57.6288 
L 415.798993 -57.6288 
L 415.134782 -57.6288 
L 414.470572 -57.6288 
L 413.806361 -57.6288 
L 413.142151 -57.6288 
L 412.47794 -57.6288 
L 411.81373 -57.6288 
L 411.149519 -57.6288 
L 410.485309 -57.6288 
L 409.821098 -57.6288 
L 409.156888 -57.6288 
L 408.492677 -57.6288 
L 407.828467 -57.6288 
L 407.164256 -57.6288 
L 406.500046 -57.6288 
L 405.835835 -57.6288 
L 405.171625 -57.6288 
L 404.507414 -57.6288 
L 403.843204 -57.6288 
L 403.178993 -57.6288 
L 402.514783 -57.6288 
L 401.850572 -57.6288 
L 401.186362 -57.6288 
L 400.522151 -57.6288 
L 399.857941 -57.6288 
L 399.19373 -57.6288 
L 398.529519 -57.6288 
L 397.865309 -57.6288 
L 397.201098 -57.6288 
L 396.536888 -57.6288 
L 395.872677 -57.6288 
L 395.208467 -57.6288 
L 394.544256 -57.6288 
L 393.880046 -57.6288 
L 393.215835 -57.6288 
L 392.551625 -57.6288 
L 391.887414 -57.6288 
L 391.223204 -57.6288 
L 390.558993 -57.6288 
L 389.894783 -57.6288 
L 389.230572 -57.6288 
L 388.566362 -57.6288 
L 387.902151 -57.6288 
L 387.237941 -57.6288 
L 386.57373 -57.6288 
L 385.90952 -57.6288 
L 385.245309 -57.6288 
L 384.581099 -57.6288 
L 383.916888 -57.6288 
L 383.252678 -57.6288 
L 382.588467 -57.6288 
L 381.924257 -57.6288 
L 381.260046 -57.6288 
L 380.595836 -57.6288 
L 379.931625 -57.6288 
L 379.267415 -57.6288 
L 378.603204 -57.6288 
L 377.938994 -57.6288 
L 377.274783 -57.6288 
L 376.610573 -57.6288 
L 375.946362 -57.6288 
L 375.282152 -57.6288 
L 374.617941 -57.6288 
L 373.953731 -57.6288 
L 373.28952 -57.6288 
L 372.62531 -57.6288 
L 371.961099 -57.6288 
L 371.296889 -57.6288 
L 370.632678 -57.6288 
L 369.968468 -57.6288 
L 369.304257 -57.6288 
L 368.640047 -57.6288 
L 367.975836 -57.6288 
L 367.311626 -57.6288 
L 366.647415 -57.6288 
L 365.983205 -57.6288 
L 365.318994 -57.6288 
L 364.654784 -57.6288 
L 363.990573 -57.6288 
L 363.326363 -57.6288 
L 362.662152 -57.6288 
L 361.997941 -57.6288 
L 361.333731 -57.6288 
L 360.66952 -57.6288 
L 360.00531 -57.6288 
L 359.341099 -57.6288 
L 358.676889 -57.6288 
L 358.012678 -57.6288 
L 357.348468 -57.6288 
L 356.684257 -57.6288 
L 356.020047 -57.6288 
L 355.355836 -57.6288 
L 354.691626 -57.6288 
L 354.027415 -57.6288 
L 353.363205 -57.6288 
L 352.698994 -57.6288 
L 352.034784 -57.6288 
L 351.370573 -57.6288 
L 350.706363 -57.6288 
L 350.042152 -57.6288 
L 349.377942 -57.6288 
L 348.713731 -57.6288 
L 348.049521 -57.6288 
L 347.38531 -57.6288 
L 346.7211 -57.6288 
L 346.056889 -57.6288 
L 345.392679 -57.6288 
L 344.728468 -57.6288 
L 344.064258 -57.6288 
L 343.400047 -57.6288 
L 342.735837 -57.6288 
L 342.071626 -57.6288 
L 341.407416 -57.6288 
L 340.743205 -57.6288 
L 340.078995 -57.6288 
L 339.414784 -57.6288 
L 338.750574 -57.6288 
L 338.086363 -57.6288 
L 337.422153 -57.6288 
L 336.757942 -57.6288 
L 336.093732 -57.6288 
L 335.429521 -57.6288 
L 334.765311 -57.6288 
L 334.1011 -57.6288 
L 333.43689 -57.6288 
L 332.772679 -57.6288 
L 332.108469 -57.6288 
L 331.444258 -57.6288 
L 330.780048 -57.6288 
L 330.115837 -57.6288 
L 329.451627 -57.6288 
L 328.787416 -57.6288 
L 328.123206 -57.6288 
L 327.458995 -57.6288 
L 326.794784 -57.6288 
L 326.130574 -57.6288 
L 325.466363 -57.6288 
L 324.802153 -57.6288 
L 324.137942 -57.6288 
L 323.473732 -57.6288 
L 322.809521 -57.6288 
L 322.145311 -57.6288 
L 321.4811 -57.6288 
L 320.81689 -57.6288 
L 320.152679 -57.6288 
L 319.488469 -57.6288 
L 318.824258 -57.6288 
L 318.160048 -57.6288 
L 317.495837 -57.6288 
L 316.831627 -57.6288 
L 316.167416 -57.6288 
L 315.503206 -57.6288 
L 314.838995 -57.6288 
L 314.174785 -57.6288 
L 313.510574 -57.6288 
L 312.846364 -57.6288 
L 312.182153 -57.6288 
L 311.517943 -57.6288 
L 310.853732 -57.6288 
L 310.189522 -57.6288 
L 309.525311 -57.6288 
L 308.861101 -57.6288 
L 308.19689 -57.6288 
L 307.53268 -57.6288 
L 306.868469 -57.6288 
L 306.204259 -57.6288 
L 305.540048 -57.6288 
L 304.875838 -57.6288 
L 304.211627 -57.6288 
L 303.547417 -57.6288 
L 302.883206 -57.6288 
L 302.218996 -57.6288 
L 301.554785 -57.6288 
L 300.890575 -57.6288 
L 300.226364 -57.6288 
L 299.562154 -57.6288 
L 298.897943 -57.6288 
L 298.233733 -57.6288 
L 297.569522 -57.6288 
L 296.905312 -57.6288 
L 296.241101 -57.6288 
L 295.576891 -57.6288 
L 294.91268 -57.6288 
L 294.24847 -57.6288 
L 293.584259 -57.6288 
L 292.920049 -57.6288 
L 292.255838 -57.6288 
L 291.591628 -57.6288 
L 290.927417 -57.6288 
L 290.263206 -57.6288 
L 289.598996 -57.6288 
L 288.934785 -57.6288 
L 288.270575 -57.6288 
L 287.606364 -57.6288 
L 286.942154 -57.6288 
L 286.277943 -57.6288 
L 285.613733 -57.6288 
L 284.949522 -57.6288 
L 284.285312 -57.6288 
L 283.621101 -57.6288 
L 282.956891 -57.6288 
L 282.29268 -57.6288 
L 281.62847 -57.6288 
L 280.964259 -57.6288 
L 280.300049 -57.6288 
L 279.635838 -57.6288 
L 278.971628 -57.6288 
L 278.307417 -57.6288 
L 277.643207 -57.6288 
L 276.978996 -57.6288 
L 276.314786 -57.6288 
L 275.650575 -57.6288 
L 274.986365 -57.6288 
L 274.322154 -57.6288 
L 273.657944 -57.6288 
L 272.993733 -57.6288 
L 272.329523 -57.6288 
L 271.665312 -57.6288 
L 271.001102 -57.6288 
L 270.336891 -57.6288 
L 269.672681 -57.6288 
L 269.00847 -57.6288 
L 268.34426 -57.6288 
L 267.680049 -57.6288 
L 267.015839 -57.6288 
L 266.351628 -57.6288 
L 265.687418 -57.6288 
L 265.023207 -57.6288 
L 264.358997 -57.6288 
L 263.694786 -57.6288 
L 263.030576 -57.6288 
L 262.366365 -57.6288 
L 261.702155 -57.6288 
L 261.037944 -57.6288 
L 260.373734 -57.6288 
L 259.709523 -57.6288 
L 259.045313 -57.6288 
L 258.381102 -57.6288 
L 257.716892 -57.6288 
L 257.052681 -57.6288 
L 256.388471 -57.6288 
L 255.72426 -57.6288 
L 255.060049 -57.6288 
L 254.395839 -57.6288 
L 253.731628 -57.6288 
L 253.067418 -57.6288 
L 252.403207 -57.6288 
L 251.738997 -57.6288 
L 251.074786 -57.6288 
L 250.410576 -57.6288 
L 249.746365 -57.6288 
L 249.082155 -57.6288 
L 248.417944 -57.6288 
L 247.753734 -57.6288 
L 247.089523 -57.6288 
L 246.425313 -57.6288 
L 245.761102 -57.6288 
L 245.096892 -57.6288 
L 244.432681 -57.6288 
L 243.768471 -57.6288 
L 243.10426 -57.6288 
L 242.44005 -57.6288 
L 241.775839 -57.6288 
L 241.111629 -57.6288 
L 240.447418 -57.6288 
L 239.783208 -57.6288 
L 239.118997 -57.6288 
L 238.454787 -57.6288 
L 237.790576 -57.6288 
L 237.126366 -57.6288 
L 236.462155 -57.6288 
L 235.797945 -57.6288 
L 235.133734 -57.6288 
L 234.469524 -57.6288 
L 233.805313 -57.6288 
L 233.141103 -57.6288 
L 232.476892 -57.6288 
L 231.812682 -57.6288 
L 231.148471 -57.6288 
L 230.484261 -57.6288 
L 229.82005 -57.6288 
L 229.15584 -57.6288 
L 228.491629 -57.6288 
L 227.827419 -57.6288 
L 227.163208 -57.6288 
L 226.498998 -57.6288 
L 225.834787 -57.6288 
L 225.170577 -57.6288 
L 224.506366 -57.6288 
L 223.842156 -57.6288 
L 223.177945 -57.6288 
L 222.513735 -57.6288 
L 221.849524 -57.6288 
L 221.185314 -57.6288 
L 220.521103 -57.6288 
L 219.856892 -57.6288 
L 219.192682 -57.6288 
L 218.528471 -57.6288 
L 217.864261 -57.6288 
L 217.20005 -57.6288 
L 216.53584 -57.6288 
L 215.871629 -57.6288 
L 215.207419 -57.6288 
L 214.543208 -57.6288 
L 213.878998 -57.6288 
L 213.214787 -57.6288 
L 212.550577 -57.6288 
L 211.886366 -57.6288 
L 211.222156 -57.6288 
L 210.557945 -57.6288 
L 209.893735 -57.6288 
L 209.229524 -57.6288 
L 208.565314 -57.6288 
L 207.901103 -57.6288 
L 207.236893 -57.6288 
L 206.572682 -57.6288 
L 205.908472 -57.6288 
L 205.244261 -57.6288 
L 204.580051 -57.6288 
L 203.91584 -57.6288 
L 203.25163 -57.6288 
L 202.587419 -57.6288 
L 201.923209 -57.6288 
L 201.258998 -57.6288 
L 200.594788 -57.6288 
L 199.930577 -57.6288 
L 199.266367 -57.6288 
L 198.602156 -57.6288 
L 197.937946 -57.6288 
L 197.273735 -57.6288 
L 196.609525 -57.6288 
L 195.945314 -57.6288 
L 195.281104 -57.6288 
L 194.616893 -57.6288 
L 193.952683 -57.6288 
L 193.288472 -57.6288 
L 192.624262 -57.6288 
L 191.960051 -57.6288 
L 191.295841 -57.6288 
L 190.63163 -57.6288 
L 189.96742 -57.6288 
L 189.303209 -57.6288 
L 188.638999 -57.6288 
L 187.974788 -57.6288 
L 187.310578 -57.6288 
L 186.646367 -57.6288 
L 185.982157 -57.6288 
L 185.317946 -57.6288 
L 184.653736 -57.6288 
L 183.989525 -57.6288 
L 183.325314 -57.6288 
L 182.661104 -57.6288 
L 181.996893 -57.6288 
L 181.332683 -57.6288 
L 180.668472 -57.6288 
L 180.004262 -57.6288 
L 179.340051 -57.6288 
L 178.675841 -57.6288 
L 178.01163 -57.6288 
L 177.34742 -57.6288 
L 176.683209 -57.6288 
L 176.018999 -57.6288 
L 175.354788 -57.6288 
L 174.690578 -57.6288 
L 174.026367 -57.6288 
L 173.362157 -57.6288 
L 172.697946 -57.6288 
L 172.033736 -57.6288 
L 171.369525 -57.6288 
L 170.705315 -57.6288 
L 170.041104 -57.6288 
L 169.376894 -57.6288 
L 168.712683 -57.6288 
L 168.048473 -57.6288 
L 167.384262 -57.6288 
L 166.720052 -57.6288 
L 166.055841 -57.6288 
L 165.391631 -57.6288 
L 164.72742 -57.6288 
L 164.06321 -57.6288 
L 163.398999 -57.6288 
L 162.734789 -57.6288 
L 162.070578 -57.6288 
L 161.406368 -57.6288 
L 160.742157 -57.6288 
L 160.077947 -57.6288 
L 159.413736 -57.6288 
L 158.749526 -57.6288 
L 158.085315 -57.6288 
L 157.421105 -57.6288 
L 156.756894 -57.6288 
L 156.092684 -57.6288 
L 155.428473 -57.6288 
L 154.764263 -57.6288 
L 154.100052 -57.6288 
L 153.435842 -57.6288 
L 152.771631 -57.6288 
L 152.107421 -57.6288 
L 151.44321 -57.6288 
L 150.779 -57.6288 
L 150.114789 -57.6288 
L 149.450579 -57.6288 
z
" style="stroke: #1f77b4; stroke-opacity: 0"/>
    </defs>
    <g clip-path="url(#p2bef2fdb5b)">
     <use xlink:href="#m2bd8fdd2d0" x="0" y="397.44" style="fill: #1f77b4; fill-opacity: 0; stroke: #1f77b4; stroke-opacity: 0"/>
    </g>
   </g>
   <g id="matplotlib.axis_1">
    <g id="xtick_1">
     <g id="line2d_1">
      <defs>
       <path id="m0c5756a5e9" d="M 0 0 
L 0 3 
" style="stroke: #808080"/>
      </defs>
      <g>
       <use xlink:href="#m0c5756a5e9" x="195.613661" y="353.7216" style="fill: #808080; stroke: #808080"/>
      </g>
     </g>
     <g id="text_1">
      <!-- 0.04 -->
      <g transform="translate(180.027723 370.859412) scale(0.14 -0.14)">
       <defs>
        <path id="DejaVuSans-30" d="M 2034 4250 
Q 1547 4250 1301 3770 
Q 1056 3291 1056 2328 
Q 1056 1369 1301 889 
Q 1547 409 2034 409 
Q 2525 409 2770 889 
Q 3016 1369 3016 2328 
Q 3016 3291 2770 3770 
Q 2525 4250 2034 4250 
z
M 2034 4750 
Q 2819 4750 3233 4129 
Q 3647 3509 3647 2328 
Q 3647 1150 3233 529 
Q 2819 -91 2034 -91 
Q 1250 -91 836 529 
Q 422 1150 422 2328 
Q 422 3509 836 4129 
Q 1250 4750 2034 4750 
z
" transform="scale(0.015625)"/>
        <path id="DejaVuSans-2e" d="M 684 794 
L 1344 794 
L 1344 0 
L 684 0 
L 684 794 
z
" transform="scale(0.015625)"/>
        <path id="DejaVuSans-34" d="M 2419 4116 
L 825 1625 
L 2419 1625 
L 2419 4116 
z
M 2253 4666 
L 3047 4666 
L 3047 1625 
L 3713 1625 
L 3713 1100 
L 3047 1100 
L 3047 0 
L 2419 0 
L 2419 1100 
L 313 1100 
L 313 1709 
L 2253 4666 
z
" transform="scale(0.015625)"/>
       </defs>
       <use xlink:href="#DejaVuSans-30"/>
       <use xlink:href="#DejaVuSans-2e" x="63.623047"/>
       <use xlink:href="#DejaVuSans-30" x="95.410156"/>
       <use xlink:href="#DejaVuSans-34" x="159.033203"/>
      </g>
     </g>
    </g>
    <g id="xtick_2">
     <g id="line2d_2">
      <g>
       <use xlink:href="#m0c5756a5e9" x="281.848396" y="353.7216" style="fill: #808080; stroke: #808080"/>
      </g>
     </g>
     <g id="text_2">
      <!-- 0.05 -->
      <g transform="translate(266.262458 370.859412) scale(0.14 -0.14)">
       <defs>
        <path id="DejaVuSans-35" d="M 691 4666 
L 3169 4666 
L 3169 4134 
L 1269 4134 
L 1269 2991 
Q 1406 3038 1543 3061 
Q 1681 3084 1819 3084 
Q 2600 3084 3056 2656 
Q 3513 2228 3513 1497 
Q 3513 744 3044 326 
Q 2575 -91 1722 -91 
Q 1428 -91 1123 -41 
Q 819 9 494 109 
L 494 744 
Q 775 591 1075 516 
Q 1375 441 1709 441 
Q 2250 441 2565 725 
Q 2881 1009 2881 1497 
Q 2881 1984 2565 2268 
Q 2250 2553 1709 2553 
Q 1456 2553 1204 2497 
Q 953 2441 691 2322 
L 691 4666 
z
" transform="scale(0.015625)"/>
       </defs>
       <use xlink:href="#DejaVuSans-30"/>
       <use xlink:href="#DejaVuSans-2e" x="63.623047"/>
       <use xlink:href="#DejaVuSans-30" x="95.410156"/>
       <use xlink:href="#DejaVuSans-35" x="159.033203"/>
      </g>
     </g>
    </g>
    <g id="xtick_3">
     <g id="line2d_3">
      <g>
       <use xlink:href="#m0c5756a5e9" x="368.083131" y="353.7216" style="fill: #808080; stroke: #808080"/>
      </g>
     </g>
     <g id="text_3">
      <!-- 0.06 -->
      <g transform="translate(352.497194 370.859412) scale(0.14 -0.14)">
       <defs>
        <path id="DejaVuSans-36" d="M 2113 2584 
Q 1688 2584 1439 2293 
Q 1191 2003 1191 1497 
Q 1191 994 1439 701 
Q 1688 409 2113 409 
Q 2538 409 2786 701 
Q 3034 994 3034 1497 
Q 3034 2003 2786 2293 
Q 2538 2584 2113 2584 
z
M 3366 4563 
L 3366 3988 
Q 3128 4100 2886 4159 
Q 2644 4219 2406 4219 
Q 1781 4219 1451 3797 
Q 1122 3375 1075 2522 
Q 1259 2794 1537 2939 
Q 1816 3084 2150 3084 
Q 2853 3084 3261 2657 
Q 3669 2231 3669 1497 
Q 3669 778 3244 343 
Q 2819 -91 2113 -91 
Q 1303 -91 875 529 
Q 447 1150 447 2328 
Q 447 3434 972 4092 
Q 1497 4750 2381 4750 
Q 2619 4750 2861 4703 
Q 3103 4656 3366 4563 
z
" transform="scale(0.015625)"/>
       </defs>
       <use xlink:href="#DejaVuSans-30"/>
       <use xlink:href="#DejaVuSans-2e" x="63.623047"/>
       <use xlink:href="#DejaVuSans-30" x="95.410156"/>
       <use xlink:href="#DejaVuSans-36" x="159.033203"/>
      </g>
     </g>
    </g>
    <g id="xtick_4">
     <g id="line2d_4">
      <g>
       <use xlink:href="#m0c5756a5e9" x="454.317867" y="353.7216" style="fill: #808080; stroke: #808080"/>
      </g>
     </g>
     <g id="text_4">
      <!-- 0.07 -->
      <g transform="translate(438.731929 370.859412) scale(0.14 -0.14)">
       <defs>
        <path id="DejaVuSans-37" d="M 525 4666 
L 3525 4666 
L 3525 4397 
L 1831 0 
L 1172 0 
L 2766 4134 
L 525 4134 
L 525 4666 
z
" transform="scale(0.015625)"/>
       </defs>
       <use xlink:href="#DejaVuSans-30"/>
       <use xlink:href="#DejaVuSans-2e" x="63.623047"/>
       <use xlink:href="#DejaVuSans-30" x="95.410156"/>
       <use xlink:href="#DejaVuSans-37" x="159.033203"/>
      </g>
     </g>
    </g>
   </g>
   <g id="matplotlib.axis_2"/>
   <g id="line2d_5">
    <path d="M 149.450579 339.78831 
L 166.720052 339.702909 
L 175.354788 339.343245 
L 180.004262 338.958735 
L 183.989525 338.447739 
L 186.646367 337.861955 
L 192.624262 336.104021 
L 195.281104 335.042171 
L 197.273735 333.974831 
L 199.266367 332.534929 
L 202.587419 329.686418 
L 204.580051 327.746863 
L 207.236893 324.77699 
L 209.229524 322.30273 
L 211.222156 319.44735 
L 212.550577 317.202394 
L 214.543208 313.29466 
L 217.20005 307.389564 
L 219.192682 302.241319 
L 224.506366 286.705444 
L 226.498998 280.5457 
L 228.491629 273.395848 
L 231.812682 259.875507 
L 235.133734 245.750345 
L 237.790576 233.451736 
L 241.111629 216.73077 
L 249.746365 171.53392 
L 253.731628 149.171841 
L 256.388471 135.926061 
L 262.366365 108.100171 
L 265.023207 96.269621 
L 267.015839 88.570783 
L 269.00847 81.833561 
L 271.001102 75.902899 
L 272.329523 72.362329 
L 273.657944 69.376581 
L 274.322154 68.197022 
L 274.986365 67.249032 
L 276.314786 65.915644 
L 282.29268 61.745165 
L 282.956891 61.6032 
L 283.621101 61.673347 
L 284.285312 61.966766 
L 284.949522 62.472699 
L 285.613733 63.181994 
L 286.942154 65.180525 
L 288.934785 68.913458 
L 291.591628 74.249374 
L 294.24847 80.160843 
L 295.576891 83.399464 
L 296.905312 87.40428 
L 298.233733 92.427026 
L 301.554785 106.022772 
L 304.211627 116.582022 
L 306.868469 128.292594 
L 310.853732 146.056202 
L 312.846364 154.973065 
L 314.838995 165.009635 
L 318.160048 182.061691 
L 320.81689 193.820597 
L 330.115837 234.812234 
L 332.108469 243.033006 
L 334.1011 250.103712 
L 339.414784 267.688164 
L 344.728468 283.413756 
L 347.38531 290.19526 
L 349.377942 294.842164 
L 352.034784 300.434368 
L 355.355836 307.061791 
L 356.684257 309.399692 
L 358.012678 311.406492 
L 362.662152 317.956046 
L 364.654784 320.890652 
L 365.983205 322.49225 
L 367.311626 323.740916 
L 375.946362 330.644401 
L 377.938994 331.982697 
L 379.931625 332.947027 
L 383.916888 334.420533 
L 389.894783 336.274181 
L 392.551625 336.965 
L 398.529519 338.091 
L 402.514783 338.612212 
L 406.500046 338.807741 
L 419.784256 339.52905 
L 430.411624 339.66397 
L 438.38215 339.781501 
L 488.862149 339.801023 
L 488.862149 339.801023 
" clip-path="url(#p2bef2fdb5b)" style="fill: none; stroke: #1f77b4; stroke-width: 1.5; stroke-linecap: square"/>
   </g>
   <g id="line2d_6">
    <path d="M 219.829011 333.968832 
L 350.505475 333.968832 
" clip-path="url(#p2bef2fdb5b)" style="fill: none; stroke: #000000; stroke-width: 3"/>
   </g>
   <g id="patch_3">
    <path d="M 132.48 353.7216 
L 505.832727 353.7216 
" style="fill: none; stroke: #808080; stroke-width: 0.8; stroke-linejoin: miter; stroke-linecap: square"/>
   </g>
   <g id="text_5">
    <!-- 0.043  -->
    <g transform="translate(172.119636 319.362912) scale(0.15 -0.15)">
     <defs>
      <path id="DejaVuSans-33" d="M 2597 2516 
Q 3050 2419 3304 2112 
Q 3559 1806 3559 1356 
Q 3559 666 3084 287 
Q 2609 -91 1734 -91 
Q 1441 -91 1130 -33 
Q 819 25 488 141 
L 488 750 
Q 750 597 1062 519 
Q 1375 441 1716 441 
Q 2309 441 2620 675 
Q 2931 909 2931 1356 
Q 2931 1769 2642 2001 
Q 2353 2234 1838 2234 
L 1294 2234 
L 1294 2753 
L 1863 2753 
Q 2328 2753 2575 2939 
Q 2822 3125 2822 3475 
Q 2822 3834 2567 4026 
Q 2313 4219 1838 4219 
Q 1578 4219 1281 4162 
Q 984 4106 628 3988 
L 628 4550 
Q 988 4650 1302 4700 
Q 1616 4750 1894 4750 
Q 2613 4750 3031 4423 
Q 3450 4097 3450 3541 
Q 3450 3153 3228 2886 
Q 3006 2619 2597 2516 
z
" transform="scale(0.015625)"/>
      <path id="DejaVuSans-20" transform="scale(0.015625)"/>
     </defs>
     <use xlink:href="#DejaVuSans-30"/>
     <use xlink:href="#DejaVuSans-2e" x="63.623047"/>
     <use xlink:href="#DejaVuSans-30" x="95.410156"/>
     <use xlink:href="#DejaVuSans-34" x="159.033203"/>
     <use xlink:href="#DejaVuSans-33" x="222.65625"/>
     <use xlink:href="#DejaVuSans-20" x="286.279297"/>
    </g>
   </g>
   <g id="text_6">
    <!--  0.058 -->
    <g transform="translate(350.505475 319.362912) scale(0.15 -0.15)">
     <defs>
      <path id="DejaVuSans-38" d="M 2034 2216 
Q 1584 2216 1326 1975 
Q 1069 1734 1069 1313 
Q 1069 891 1326 650 
Q 1584 409 2034 409 
Q 2484 409 2743 651 
Q 3003 894 3003 1313 
Q 3003 1734 2745 1975 
Q 2488 2216 2034 2216 
z
M 1403 2484 
Q 997 2584 770 2862 
Q 544 3141 544 3541 
Q 544 4100 942 4425 
Q 1341 4750 2034 4750 
Q 2731 4750 3128 4425 
Q 3525 4100 3525 3541 
Q 3525 3141 3298 2862 
Q 3072 2584 2669 2484 
Q 3125 2378 3379 2068 
Q 3634 1759 3634 1313 
Q 3634 634 3220 271 
Q 2806 -91 2034 -91 
Q 1263 -91 848 271 
Q 434 634 434 1313 
Q 434 1759 690 2068 
Q 947 2378 1403 2484 
z
M 1172 3481 
Q 1172 3119 1398 2916 
Q 1625 2713 2034 2713 
Q 2441 2713 2670 2916 
Q 2900 3119 2900 3481 
Q 2900 3844 2670 4047 
Q 2441 4250 2034 4250 
Q 1625 4250 1398 4047 
Q 1172 3844 1172 3481 
z
" transform="scale(0.015625)"/>
     </defs>
     <use xlink:href="#DejaVuSans-20"/>
     <use xlink:href="#DejaVuSans-30" x="31.787109"/>
     <use xlink:href="#DejaVuSans-2e" x="95.410156"/>
     <use xlink:href="#DejaVuSans-30" x="127.197266"/>
     <use xlink:href="#DejaVuSans-35" x="190.820312"/>
     <use xlink:href="#DejaVuSans-38" x="254.443359"/>
    </g>
   </g>
   <g id="text_7">
    <!-- 95% HDI -->
    <g transform="translate(252.485993 252.17568) scale(0.15 -0.15)">
     <defs>
      <path id="DejaVuSans-39" d="M 703 97 
L 703 672 
Q 941 559 1184 500 
Q 1428 441 1663 441 
Q 2288 441 2617 861 
Q 2947 1281 2994 2138 
Q 2813 1869 2534 1725 
Q 2256 1581 1919 1581 
Q 1219 1581 811 2004 
Q 403 2428 403 3163 
Q 403 3881 828 4315 
Q 1253 4750 1959 4750 
Q 2769 4750 3195 4129 
Q 3622 3509 3622 2328 
Q 3622 1225 3098 567 
Q 2575 -91 1691 -91 
Q 1453 -91 1209 -44 
Q 966 3 703 97 
z
M 1959 2075 
Q 2384 2075 2632 2365 
Q 2881 2656 2881 3163 
Q 2881 3666 2632 3958 
Q 2384 4250 1959 4250 
Q 1534 4250 1286 3958 
Q 1038 3666 1038 3163 
Q 1038 2656 1286 2365 
Q 1534 2075 1959 2075 
z
" transform="scale(0.015625)"/>
      <path id="DejaVuSans-25" d="M 4653 2053 
Q 4381 2053 4226 1822 
Q 4072 1591 4072 1178 
Q 4072 772 4226 539 
Q 4381 306 4653 306 
Q 4919 306 5073 539 
Q 5228 772 5228 1178 
Q 5228 1588 5073 1820 
Q 4919 2053 4653 2053 
z
M 4653 2450 
Q 5147 2450 5437 2106 
Q 5728 1763 5728 1178 
Q 5728 594 5436 251 
Q 5144 -91 4653 -91 
Q 4153 -91 3862 251 
Q 3572 594 3572 1178 
Q 3572 1766 3864 2108 
Q 4156 2450 4653 2450 
z
M 1428 4353 
Q 1159 4353 1004 4120 
Q 850 3888 850 3481 
Q 850 3069 1003 2837 
Q 1156 2606 1428 2606 
Q 1700 2606 1854 2837 
Q 2009 3069 2009 3481 
Q 2009 3884 1853 4118 
Q 1697 4353 1428 4353 
z
M 4250 4750 
L 4750 4750 
L 1831 -91 
L 1331 -91 
L 4250 4750 
z
M 1428 4750 
Q 1922 4750 2215 4408 
Q 2509 4066 2509 3481 
Q 2509 2891 2217 2550 
Q 1925 2209 1428 2209 
Q 931 2209 642 2551 
Q 353 2894 353 3481 
Q 353 4063 643 4406 
Q 934 4750 1428 4750 
z
" transform="scale(0.015625)"/>
      <path id="DejaVuSans-48" d="M 628 4666 
L 1259 4666 
L 1259 2753 
L 3553 2753 
L 3553 4666 
L 4184 4666 
L 4184 0 
L 3553 0 
L 3553 2222 
L 1259 2222 
L 1259 0 
L 628 0 
L 628 4666 
z
" transform="scale(0.015625)"/>
      <path id="DejaVuSans-44" d="M 1259 4147 
L 1259 519 
L 2022 519 
Q 2988 519 3436 956 
Q 3884 1394 3884 2338 
Q 3884 3275 3436 3711 
Q 2988 4147 2022 4147 
L 1259 4147 
z
M 628 4666 
L 1925 4666 
Q 3281 4666 3915 4102 
Q 4550 3538 4550 2338 
Q 4550 1131 3912 565 
Q 3275 0 1925 0 
L 628 0 
L 628 4666 
z
" transform="scale(0.015625)"/>
      <path id="DejaVuSans-49" d="M 628 4666 
L 1259 4666 
L 1259 0 
L 628 0 
L 628 4666 
z
" transform="scale(0.015625)"/>
     </defs>
     <use xlink:href="#DejaVuSans-39"/>
     <use xlink:href="#DejaVuSans-35" x="63.623047"/>
     <use xlink:href="#DejaVuSans-25" x="127.246094"/>
     <use xlink:href="#DejaVuSans-20" x="222.265625"/>
     <use xlink:href="#DejaVuSans-48" x="254.052734"/>
     <use xlink:href="#DejaVuSans-44" x="329.248047"/>
     <use xlink:href="#DejaVuSans-49" x="406.25"/>
    </g>
   </g>
   <g id="text_8">
    <!-- mean=0.05 -->
    <g transform="translate(240.384877 106.11648) scale(0.15 -0.15)">
     <defs>
      <path id="DejaVuSans-6d" d="M 3328 2828 
Q 3544 3216 3844 3400 
Q 4144 3584 4550 3584 
Q 5097 3584 5394 3201 
Q 5691 2819 5691 2113 
L 5691 0 
L 5113 0 
L 5113 2094 
Q 5113 2597 4934 2840 
Q 4756 3084 4391 3084 
Q 3944 3084 3684 2787 
Q 3425 2491 3425 1978 
L 3425 0 
L 2847 0 
L 2847 2094 
Q 2847 2600 2669 2842 
Q 2491 3084 2119 3084 
Q 1678 3084 1418 2786 
Q 1159 2488 1159 1978 
L 1159 0 
L 581 0 
L 581 3500 
L 1159 3500 
L 1159 2956 
Q 1356 3278 1631 3431 
Q 1906 3584 2284 3584 
Q 2666 3584 2933 3390 
Q 3200 3197 3328 2828 
z
" transform="scale(0.015625)"/>
      <path id="DejaVuSans-65" d="M 3597 1894 
L 3597 1613 
L 953 1613 
Q 991 1019 1311 708 
Q 1631 397 2203 397 
Q 2534 397 2845 478 
Q 3156 559 3463 722 
L 3463 178 
Q 3153 47 2828 -22 
Q 2503 -91 2169 -91 
Q 1331 -91 842 396 
Q 353 884 353 1716 
Q 353 2575 817 3079 
Q 1281 3584 2069 3584 
Q 2775 3584 3186 3129 
Q 3597 2675 3597 1894 
z
M 3022 2063 
Q 3016 2534 2758 2815 
Q 2500 3097 2075 3097 
Q 1594 3097 1305 2825 
Q 1016 2553 972 2059 
L 3022 2063 
z
" transform="scale(0.015625)"/>
      <path id="DejaVuSans-61" d="M 2194 1759 
Q 1497 1759 1228 1600 
Q 959 1441 959 1056 
Q 959 750 1161 570 
Q 1363 391 1709 391 
Q 2188 391 2477 730 
Q 2766 1069 2766 1631 
L 2766 1759 
L 2194 1759 
z
M 3341 1997 
L 3341 0 
L 2766 0 
L 2766 531 
Q 2569 213 2275 61 
Q 1981 -91 1556 -91 
Q 1019 -91 701 211 
Q 384 513 384 1019 
Q 384 1609 779 1909 
Q 1175 2209 1959 2209 
L 2766 2209 
L 2766 2266 
Q 2766 2663 2505 2880 
Q 2244 3097 1772 3097 
Q 1472 3097 1187 3025 
Q 903 2953 641 2809 
L 641 3341 
Q 956 3463 1253 3523 
Q 1550 3584 1831 3584 
Q 2591 3584 2966 3190 
Q 3341 2797 3341 1997 
z
" transform="scale(0.015625)"/>
      <path id="DejaVuSans-6e" d="M 3513 2113 
L 3513 0 
L 2938 0 
L 2938 2094 
Q 2938 2591 2744 2837 
Q 2550 3084 2163 3084 
Q 1697 3084 1428 2787 
Q 1159 2491 1159 1978 
L 1159 0 
L 581 0 
L 581 3500 
L 1159 3500 
L 1159 2956 
Q 1366 3272 1645 3428 
Q 1925 3584 2291 3584 
Q 2894 3584 3203 3211 
Q 3513 2838 3513 2113 
z
" transform="scale(0.015625)"/>
      <path id="DejaVuSans-3d" d="M 678 2906 
L 4684 2906 
L 4684 2381 
L 678 2381 
L 678 2906 
z
M 678 1631 
L 4684 1631 
L 4684 1100 
L 678 1100 
L 678 1631 
z
" transform="scale(0.015625)"/>
     </defs>
     <use xlink:href="#DejaVuSans-6d"/>
     <use xlink:href="#DejaVuSans-65" x="97.412109"/>
     <use xlink:href="#DejaVuSans-61" x="158.935547"/>
     <use xlink:href="#DejaVuSans-6e" x="220.214844"/>
     <use xlink:href="#DejaVuSans-3d" x="283.59375"/>
     <use xlink:href="#DejaVuSans-30" x="367.382812"/>
     <use xlink:href="#DejaVuSans-2e" x="431.005859"/>
     <use xlink:href="#DejaVuSans-30" x="462.792969"/>
     <use xlink:href="#DejaVuSans-35" x="526.416016"/>
    </g>
   </g>
   <g id="text_9">
    <!-- θ -->
    <g transform="translate(314.261364 41.6928) scale(0.16 -0.16)">
     <defs>
      <path id="DejaVuSans-3b8" d="M 2953 2219 
L 963 2219 
Q 1009 1284 1225 888 
Q 1494 400 1959 400 
Q 2428 400 2688 891 
Q 2916 1322 2953 2219 
z
M 2944 2750 
Q 2856 3638 2688 3950 
Q 2419 4444 1959 4444 
Q 1481 4444 1228 3956 
Q 1028 3563 969 2750 
L 2944 2750 
z
M 1959 4913 
Q 2709 4913 3138 4250 
Q 3566 3591 3566 2422 
Q 3566 1256 3138 594 
Q 2709 -72 1959 -72 
Q 1206 -72 781 594 
Q 353 1256 353 2422 
Q 353 3591 781 4250 
Q 1206 4913 1959 4913 
z
" transform="scale(0.015625)"/>
     </defs>
     <use xlink:href="#DejaVuSans-3b8"/>
    </g>
   </g>
  </g>
  <g id="axes_2">
   <g id="patch_4">
    <path d="M 580.503273 353.7216 
L 953.856 353.7216 
L 953.856 47.6928 
L 580.503273 47.6928 
z
" style="fill: #ffffff"/>
   </g>
   <g id="PolyCollection_2">
    <defs>
     <path id="mba2bbcb44e" d="M 597.473851 -57.6288 
L 597.473851 -57.643781 
L 598.138062 -57.643182 
L 598.802272 -57.64206 
L 599.466483 -57.640541 
L 600.130693 -57.638769 
L 600.794904 -57.63689 
L 601.459114 -57.635018 
L 602.123325 -57.633406 
L 602.787535 -57.63206 
L 603.451746 -57.631102 
L 604.115956 -57.630565 
L 604.780167 -57.630502 
L 605.444377 -57.630891 
L 606.108588 -57.631598 
L 606.772798 -57.632607 
L 607.437009 -57.633611 
L 608.101219 -57.634588 
L 608.76543 -57.635418 
L 609.42964 -57.63614 
L 610.093851 -57.63687 
L 610.758061 -57.637907 
L 611.422272 -57.639126 
L 612.086482 -57.640552 
L 612.750693 -57.642045 
L 613.414903 -57.64347 
L 614.079114 -57.644955 
L 614.743324 -57.646563 
L 615.407535 -57.648523 
L 616.071745 -57.650997 
L 616.735956 -57.654304 
L 617.400167 -57.658649 
L 618.064377 -57.664328 
L 618.728588 -57.671562 
L 619.392798 -57.680301 
L 620.057009 -57.690063 
L 620.721219 -57.699882 
L 621.38543 -57.708911 
L 622.04964 -57.716288 
L 622.713851 -57.721584 
L 623.378061 -57.725474 
L 624.042272 -57.728686 
L 624.706482 -57.73278 
L 625.370693 -57.739078 
L 626.034903 -57.747794 
L 626.699114 -57.75949 
L 627.363324 -57.773833 
L 628.027535 -57.78963 
L 628.691745 -57.806648 
L 629.355956 -57.823232 
L 630.020166 -57.83911 
L 630.684377 -57.854248 
L 631.348587 -57.868703 
L 632.012798 -57.883322 
L 632.677008 -57.89926 
L 633.341219 -57.917186 
L 634.005429 -57.937472 
L 634.66964 -57.960631 
L 635.33385 -57.986975 
L 635.998061 -58.017567 
L 636.662271 -58.053612 
L 637.326482 -58.095971 
L 637.990692 -58.144656 
L 638.654903 -58.197863 
L 639.319113 -58.253131 
L 639.983324 -58.307649 
L 640.647534 -58.358301 
L 641.311745 -58.404876 
L 641.975955 -58.449033 
L 642.640166 -58.493464 
L 643.304376 -58.544038 
L 643.968587 -58.603674 
L 644.632797 -58.676243 
L 645.297008 -58.761202 
L 645.961218 -58.856742 
L 646.625429 -58.957696 
L 647.289639 -59.060045 
L 647.95385 -59.159533 
L 648.61806 -59.25667 
L 649.282271 -59.353851 
L 649.946481 -59.45719 
L 650.610692 -59.574068 
L 651.274902 -59.707835 
L 651.939113 -59.861914 
L 652.603324 -60.032752 
L 653.267534 -60.216928 
L 653.931745 -60.411434 
L 654.595955 -60.611475 
L 655.260166 -60.814373 
L 655.924376 -61.018572 
L 656.588587 -61.223654 
L 657.252797 -61.43014 
L 657.917008 -61.644949 
L 658.581218 -61.875259 
L 659.245429 -62.132487 
L 659.909639 -62.424858 
L 660.57385 -62.756638 
L 661.23806 -63.123798 
L 661.902271 -63.518015 
L 662.566481 -63.929729 
L 663.230692 -64.352489 
L 663.894902 -64.781037 
L 664.559113 -65.217532 
L 665.223323 -65.666206 
L 665.887534 -66.132438 
L 666.551744 -66.623702 
L 667.215955 -67.142212 
L 667.880165 -67.688053 
L 668.544376 -68.261959 
L 669.208586 -68.860446 
L 669.872797 -69.480785 
L 670.537007 -70.123728 
L 671.201218 -70.791177 
L 671.865428 -71.488463 
L 672.529639 -72.222957 
L 673.193849 -72.999923 
L 673.85806 -73.821639 
L 674.52227 -74.689874 
L 675.186481 -75.59571 
L 675.850691 -76.526273 
L 676.514902 -77.470469 
L 677.179112 -78.416584 
L 677.843323 -79.366495 
L 678.507533 -80.326071 
L 679.171744 -81.317547 
L 679.835954 -82.358664 
L 680.500165 -83.471545 
L 681.164375 -84.66829 
L 681.828586 -85.949684 
L 682.492796 -87.309123 
L 683.157007 -88.7395 
L 683.821217 -90.228085 
L 684.485428 -91.761722 
L 685.149638 -93.328036 
L 685.813849 -94.923423 
L 686.478059 -96.551995 
L 687.14227 -98.221777 
L 687.806481 -99.947854 
L 688.470691 -101.744677 
L 689.134902 -103.616339 
L 689.799112 -105.550679 
L 690.463323 -107.518804 
L 691.127533 -109.497932 
L 691.791744 -111.470442 
L 692.455954 -113.435508 
L 693.120165 -115.415496 
L 693.784375 -117.442414 
L 694.448586 -119.543163 
L 695.112796 -121.744888 
L 695.777007 -124.051318 
L 696.441217 -126.460015 
L 697.105428 -128.954079 
L 697.769638 -131.507739 
L 698.433849 -134.099368 
L 699.098059 -136.710296 
L 699.76227 -139.322292 
L 700.42648 -141.930051 
L 701.090691 -144.555468 
L 701.754901 -147.219925 
L 702.419112 -149.952508 
L 703.083322 -152.78442 
L 703.747533 -155.712497 
L 704.411743 -158.719221 
L 705.075954 -161.7656 
L 705.740164 -164.821214 
L 706.404375 -167.86826 
L 707.068585 -170.905051 
L 707.732796 -173.966188 
L 708.397006 -177.078821 
L 709.061217 -180.248397 
L 709.725427 -183.481386 
L 710.389638 -186.737851 
L 711.053848 -189.97421 
L 711.718059 -193.162116 
L 712.382269 -196.278695 
L 713.04648 -199.340081 
L 713.71069 -202.375243 
L 714.374901 -205.426813 
L 715.039111 -208.530848 
L 715.703322 -211.711094 
L 716.367532 -214.978772 
L 717.031743 -218.316693 
L 717.695953 -221.735974 
L 718.360164 -225.214515 
L 719.024374 -228.746667 
L 719.688585 -232.316942 
L 720.352795 -235.917607 
L 721.017006 -239.519185 
L 721.681216 -243.094689 
L 722.345427 -246.613638 
L 723.009637 -250.057981 
L 723.673848 -253.399708 
L 724.338059 -256.649496 
L 725.002269 -259.819828 
L 725.66648 -262.938698 
L 726.33069 -266.057821 
L 726.994901 -269.219758 
L 727.659111 -272.441724 
L 728.323322 -275.720199 
L 728.987532 -279.007388 
L 729.651743 -282.2587 
L 730.315953 -285.387317 
L 730.980164 -288.359617 
L 731.644374 -291.144424 
L 732.308585 -293.753165 
L 732.972795 -296.206822 
L 733.637006 -298.520871 
L 734.301216 -300.727296 
L 734.965427 -302.859798 
L 735.629637 -304.952028 
L 736.293848 -307.043073 
L 736.958058 -309.140832 
L 737.622269 -311.243294 
L 738.286479 -313.312316 
L 738.95069 -315.299948 
L 739.6149 -317.164 
L 740.279111 -318.87579 
L 740.943321 -320.45717 
L 741.607532 -321.95621 
L 742.271742 -323.405304 
L 742.935953 -324.843733 
L 743.600163 -326.27396 
L 744.264374 -327.70604 
L 744.928584 -329.100551 
L 745.592795 -330.436274 
L 746.257005 -331.680606 
L 746.921216 -332.777837 
L 747.585426 -333.69944 
L 748.249637 -334.417799 
L 748.913847 -334.934044 
L 749.578058 -335.274496 
L 750.242268 -335.486104 
L 750.906479 -335.63771 
L 751.570689 -335.745973 
L 752.2349 -335.825359 
L 752.89911 -335.8368 
L 753.563321 -335.750619 
L 754.227531 -335.555219 
L 754.891742 -335.24425 
L 755.555952 -334.841762 
L 756.220163 -334.366966 
L 756.884373 -333.829157 
L 757.548584 -333.207996 
L 758.212794 -332.463043 
L 758.877005 -331.538964 
L 759.541216 -330.397623 
L 760.205426 -329.041857 
L 760.869637 -327.524576 
L 761.533847 -325.886009 
L 762.198058 -324.182884 
L 762.862268 -322.483945 
L 763.526479 -320.80891 
L 764.190689 -319.160987 
L 764.8549 -317.509703 
L 765.51911 -315.832648 
L 766.183321 -314.072666 
L 766.847531 -312.191865 
L 767.511742 -310.154411 
L 768.175952 -307.939682 
L 768.840163 -305.572244 
L 769.504373 -303.10018 
L 770.168584 -300.588708 
L 770.832794 -298.082013 
L 771.497005 -295.615831 
L 772.161215 -293.1788 
L 772.825426 -290.757812 
L 773.489636 -288.307562 
L 774.153847 -285.815922 
L 774.818057 -283.266585 
L 775.482268 -280.693801 
L 776.146478 -278.095513 
L 776.810689 -275.469997 
L 777.474899 -272.815427 
L 778.13911 -270.113258 
L 778.80332 -267.339472 
L 779.467531 -264.478608 
L 780.131741 -261.525768 
L 780.795952 -258.476853 
L 781.460162 -255.329129 
L 782.124373 -252.112471 
L 782.788583 -248.841238 
L 783.452794 -245.540415 
L 784.117004 -242.242368 
L 784.781215 -238.969911 
L 785.445425 -235.74233 
L 786.109636 -232.573161 
L 786.773846 -229.47306 
L 787.438057 -226.452737 
L 788.102267 -223.494602 
L 788.766478 -220.582945 
L 789.430688 -217.675792 
L 790.094899 -214.749236 
L 790.759109 -211.766582 
L 791.42332 -208.713734 
L 792.08753 -205.60644 
L 792.751741 -202.469586 
L 793.415951 -199.320834 
L 794.080162 -196.179377 
L 794.744372 -193.046963 
L 795.408583 -189.928345 
L 796.072794 -186.812366 
L 796.737004 -183.71594 
L 797.401215 -180.652846 
L 798.065425 -177.634397 
L 798.729636 -174.682952 
L 799.393846 -171.810611 
L 800.058057 -169.019714 
L 800.722267 -166.303645 
L 801.386478 -163.652784 
L 802.050688 -161.056233 
L 802.714899 -158.501514 
L 803.379109 -155.973905 
L 804.04332 -153.457226 
L 804.70753 -150.956277 
L 805.371741 -148.459163 
L 806.035951 -145.955898 
L 806.700162 -143.4452 
L 807.364372 -140.923729 
L 808.028583 -138.38576 
L 808.692793 -135.849088 
L 809.357004 -133.327891 
L 810.021214 -130.86181 
L 810.685425 -128.477736 
L 811.349635 -126.212412 
L 812.013846 -124.088844 
L 812.678056 -122.110787 
L 813.342267 -120.26679 
L 814.006477 -118.54219 
L 814.670688 -116.897262 
L 815.334898 -115.299264 
L 815.999109 -113.714637 
L 816.663319 -112.121987 
L 817.32753 -110.511467 
L 817.99174 -108.882833 
L 818.655951 -107.235682 
L 819.320161 -105.589469 
L 819.984372 -103.945183 
L 820.648582 -102.326288 
L 821.312793 -100.75739 
L 821.977003 -99.263258 
L 822.641214 -97.857615 
L 823.305424 -96.544751 
L 823.969635 -95.30906 
L 824.633845 -94.118675 
L 825.298056 -92.944154 
L 825.962266 -91.762415 
L 826.626477 -90.565176 
L 827.290687 -89.358432 
L 827.954898 -88.149332 
L 828.619108 -86.956885 
L 829.283319 -85.790701 
L 829.947529 -84.659525 
L 830.61174 -83.57046 
L 831.275951 -82.529683 
L 831.940161 -81.540696 
L 832.604372 -80.59703 
L 833.268582 -79.693737 
L 833.932793 -78.824312 
L 834.597003 -77.980356 
L 835.261214 -77.159254 
L 835.925424 -76.364121 
L 836.589635 -75.600791 
L 837.253845 -74.872963 
L 837.918056 -74.185016 
L 838.582266 -73.537519 
L 839.246477 -72.923245 
L 839.910687 -72.337011 
L 840.574898 -71.767028 
L 841.239108 -71.200384 
L 841.903319 -70.630435 
L 842.567529 -70.04834 
L 843.23174 -69.456882 
L 843.89595 -68.860601 
L 844.560161 -68.273461 
L 845.224371 -67.708783 
L 845.888582 -67.179708 
L 846.552792 -66.699852 
L 847.217003 -66.273085 
L 847.881213 -65.895599 
L 848.545424 -65.554691 
L 849.209634 -65.238902 
L 849.873845 -64.932017 
L 850.538055 -64.627975 
L 851.202266 -64.322238 
L 851.866476 -64.020872 
L 852.530687 -63.730687 
L 853.194897 -63.457731 
L 853.859108 -63.203629 
L 854.523318 -62.966155 
L 855.187529 -62.739233 
L 855.851739 -62.516284 
L 856.51595 -62.293119 
L 857.18016 -62.06972 
L 857.844371 -61.849453 
L 858.508581 -61.634602 
L 859.172792 -61.431014 
L 859.837002 -61.24097 
L 860.501213 -61.064409 
L 861.165423 -60.898965 
L 861.829634 -60.743402 
L 862.493844 -60.593926 
L 863.158055 -60.447347 
L 863.822265 -60.303459 
L 864.486476 -60.16186 
L 865.150686 -60.026494 
L 865.814897 -59.896592 
L 866.479108 -59.774416 
L 867.143318 -59.660408 
L 867.807529 -59.552453 
L 868.471739 -59.447348 
L 869.13595 -59.343877 
L 869.80016 -59.239754 
L 870.464371 -59.135782 
L 871.128581 -59.033794 
L 871.792792 -58.93804 
L 872.457002 -58.850501 
L 873.121213 -58.772352 
L 873.785423 -58.701869 
L 874.449634 -58.636883 
L 875.113844 -58.573639 
L 875.778055 -58.510164 
L 876.442265 -58.446188 
L 877.106476 -58.384202 
L 877.770686 -58.326422 
L 878.434897 -58.275941 
L 879.099107 -58.233932 
L 879.763318 -58.200685 
L 880.427528 -58.174117 
L 881.091739 -58.151734 
L 881.755949 -58.131807 
L 882.42016 -58.112428 
L 883.08437 -58.092775 
L 883.748581 -58.072932 
L 884.412791 -58.052212 
L 885.077002 -58.031215 
L 885.741212 -58.009721 
L 886.405423 -57.988059 
L 887.069633 -57.967035 
L 887.733844 -57.947479 
L 888.398054 -57.930255 
L 889.062265 -57.915406 
L 889.726475 -57.901983 
L 890.390686 -57.889163 
L 891.054896 -57.875661 
L 891.719107 -57.861228 
L 892.383317 -57.845719 
L 893.047528 -57.830453 
L 893.711738 -57.816224 
L 894.375949 -57.80346 
L 895.040159 -57.792263 
L 895.70437 -57.782394 
L 896.36858 -57.773597 
L 897.032791 -57.765845 
L 897.697001 -57.75943 
L 898.361212 -57.754401 
L 899.025422 -57.750326 
L 899.689633 -57.746469 
L 900.353843 -57.741997 
L 901.018054 -57.736058 
L 901.682264 -57.728432 
L 902.346475 -57.71935 
L 903.010686 -57.709821 
L 903.674896 -57.700588 
L 904.339107 -57.692358 
L 905.003317 -57.6855 
L 905.667528 -57.679992 
L 906.331738 -57.67568 
L 906.995949 -57.672263 
L 907.660159 -57.66955 
L 908.32437 -57.667716 
L 908.98858 -57.66643 
L 909.652791 -57.665509 
L 910.317001 -57.664843 
L 910.981212 -57.664306 
L 911.645422 -57.663639 
L 912.309633 -57.662907 
L 912.973843 -57.662094 
L 913.638054 -57.661087 
L 914.302264 -57.659842 
L 914.966475 -57.65809 
L 915.630685 -57.655704 
L 916.294896 -57.65283 
L 916.959106 -57.649629 
L 917.623317 -57.646567 
L 918.287527 -57.643932 
L 918.951738 -57.641896 
L 919.615948 -57.640618 
L 920.280159 -57.640094 
L 920.944369 -57.640134 
L 921.60858 -57.640625 
L 922.27279 -57.641225 
L 922.937001 -57.641763 
L 923.601211 -57.641917 
L 924.265422 -57.641429 
L 924.929632 -57.64021 
L 925.593843 -57.638444 
L 926.258053 -57.636347 
L 926.922264 -57.634248 
L 927.586474 -57.632417 
L 928.250685 -57.63098 
L 928.914895 -57.630024 
L 929.579106 -57.629429 
L 930.243316 -57.629159 
L 930.907527 -57.629138 
L 931.571737 -57.629262 
L 932.235948 -57.629726 
L 932.900158 -57.630502 
L 933.564369 -57.631667 
L 934.228579 -57.633227 
L 934.89279 -57.635067 
L 935.557 -57.636933 
L 936.221211 -57.638476 
L 936.885421 -57.639354 
L 936.885421 -57.6288 
L 936.885421 -57.6288 
L 936.221211 -57.6288 
L 935.557 -57.6288 
L 934.89279 -57.6288 
L 934.228579 -57.6288 
L 933.564369 -57.6288 
L 932.900158 -57.6288 
L 932.235948 -57.6288 
L 931.571737 -57.6288 
L 930.907527 -57.6288 
L 930.243316 -57.6288 
L 929.579106 -57.6288 
L 928.914895 -57.6288 
L 928.250685 -57.6288 
L 927.586474 -57.6288 
L 926.922264 -57.6288 
L 926.258053 -57.6288 
L 925.593843 -57.6288 
L 924.929632 -57.6288 
L 924.265422 -57.6288 
L 923.601211 -57.6288 
L 922.937001 -57.6288 
L 922.27279 -57.6288 
L 921.60858 -57.6288 
L 920.944369 -57.6288 
L 920.280159 -57.6288 
L 919.615948 -57.6288 
L 918.951738 -57.6288 
L 918.287527 -57.6288 
L 917.623317 -57.6288 
L 916.959106 -57.6288 
L 916.294896 -57.6288 
L 915.630685 -57.6288 
L 914.966475 -57.6288 
L 914.302264 -57.6288 
L 913.638054 -57.6288 
L 912.973843 -57.6288 
L 912.309633 -57.6288 
L 911.645422 -57.6288 
L 910.981212 -57.6288 
L 910.317001 -57.6288 
L 909.652791 -57.6288 
L 908.98858 -57.6288 
L 908.32437 -57.6288 
L 907.660159 -57.6288 
L 906.995949 -57.6288 
L 906.331738 -57.6288 
L 905.667528 -57.6288 
L 905.003317 -57.6288 
L 904.339107 -57.6288 
L 903.674896 -57.6288 
L 903.010686 -57.6288 
L 902.346475 -57.6288 
L 901.682264 -57.6288 
L 901.018054 -57.6288 
L 900.353843 -57.6288 
L 899.689633 -57.6288 
L 899.025422 -57.6288 
L 898.361212 -57.6288 
L 897.697001 -57.6288 
L 897.032791 -57.6288 
L 896.36858 -57.6288 
L 895.70437 -57.6288 
L 895.040159 -57.6288 
L 894.375949 -57.6288 
L 893.711738 -57.6288 
L 893.047528 -57.6288 
L 892.383317 -57.6288 
L 891.719107 -57.6288 
L 891.054896 -57.6288 
L 890.390686 -57.6288 
L 889.726475 -57.6288 
L 889.062265 -57.6288 
L 888.398054 -57.6288 
L 887.733844 -57.6288 
L 887.069633 -57.6288 
L 886.405423 -57.6288 
L 885.741212 -57.6288 
L 885.077002 -57.6288 
L 884.412791 -57.6288 
L 883.748581 -57.6288 
L 883.08437 -57.6288 
L 882.42016 -57.6288 
L 881.755949 -57.6288 
L 881.091739 -57.6288 
L 880.427528 -57.6288 
L 879.763318 -57.6288 
L 879.099107 -57.6288 
L 878.434897 -57.6288 
L 877.770686 -57.6288 
L 877.106476 -57.6288 
L 876.442265 -57.6288 
L 875.778055 -57.6288 
L 875.113844 -57.6288 
L 874.449634 -57.6288 
L 873.785423 -57.6288 
L 873.121213 -57.6288 
L 872.457002 -57.6288 
L 871.792792 -57.6288 
L 871.128581 -57.6288 
L 870.464371 -57.6288 
L 869.80016 -57.6288 
L 869.13595 -57.6288 
L 868.471739 -57.6288 
L 867.807529 -57.6288 
L 867.143318 -57.6288 
L 866.479108 -57.6288 
L 865.814897 -57.6288 
L 865.150686 -57.6288 
L 864.486476 -57.6288 
L 863.822265 -57.6288 
L 863.158055 -57.6288 
L 862.493844 -57.6288 
L 861.829634 -57.6288 
L 861.165423 -57.6288 
L 860.501213 -57.6288 
L 859.837002 -57.6288 
L 859.172792 -57.6288 
L 858.508581 -57.6288 
L 857.844371 -57.6288 
L 857.18016 -57.6288 
L 856.51595 -57.6288 
L 855.851739 -57.6288 
L 855.187529 -57.6288 
L 854.523318 -57.6288 
L 853.859108 -57.6288 
L 853.194897 -57.6288 
L 852.530687 -57.6288 
L 851.866476 -57.6288 
L 851.202266 -57.6288 
L 850.538055 -57.6288 
L 849.873845 -57.6288 
L 849.209634 -57.6288 
L 848.545424 -57.6288 
L 847.881213 -57.6288 
L 847.217003 -57.6288 
L 846.552792 -57.6288 
L 845.888582 -57.6288 
L 845.224371 -57.6288 
L 844.560161 -57.6288 
L 843.89595 -57.6288 
L 843.23174 -57.6288 
L 842.567529 -57.6288 
L 841.903319 -57.6288 
L 841.239108 -57.6288 
L 840.574898 -57.6288 
L 839.910687 -57.6288 
L 839.246477 -57.6288 
L 838.582266 -57.6288 
L 837.918056 -57.6288 
L 837.253845 -57.6288 
L 836.589635 -57.6288 
L 835.925424 -57.6288 
L 835.261214 -57.6288 
L 834.597003 -57.6288 
L 833.932793 -57.6288 
L 833.268582 -57.6288 
L 832.604372 -57.6288 
L 831.940161 -57.6288 
L 831.275951 -57.6288 
L 830.61174 -57.6288 
L 829.947529 -57.6288 
L 829.283319 -57.6288 
L 828.619108 -57.6288 
L 827.954898 -57.6288 
L 827.290687 -57.6288 
L 826.626477 -57.6288 
L 825.962266 -57.6288 
L 825.298056 -57.6288 
L 824.633845 -57.6288 
L 823.969635 -57.6288 
L 823.305424 -57.6288 
L 822.641214 -57.6288 
L 821.977003 -57.6288 
L 821.312793 -57.6288 
L 820.648582 -57.6288 
L 819.984372 -57.6288 
L 819.320161 -57.6288 
L 818.655951 -57.6288 
L 817.99174 -57.6288 
L 817.32753 -57.6288 
L 816.663319 -57.6288 
L 815.999109 -57.6288 
L 815.334898 -57.6288 
L 814.670688 -57.6288 
L 814.006477 -57.6288 
L 813.342267 -57.6288 
L 812.678056 -57.6288 
L 812.013846 -57.6288 
L 811.349635 -57.6288 
L 810.685425 -57.6288 
L 810.021214 -57.6288 
L 809.357004 -57.6288 
L 808.692793 -57.6288 
L 808.028583 -57.6288 
L 807.364372 -57.6288 
L 806.700162 -57.6288 
L 806.035951 -57.6288 
L 805.371741 -57.6288 
L 804.70753 -57.6288 
L 804.04332 -57.6288 
L 803.379109 -57.6288 
L 802.714899 -57.6288 
L 802.050688 -57.6288 
L 801.386478 -57.6288 
L 800.722267 -57.6288 
L 800.058057 -57.6288 
L 799.393846 -57.6288 
L 798.729636 -57.6288 
L 798.065425 -57.6288 
L 797.401215 -57.6288 
L 796.737004 -57.6288 
L 796.072794 -57.6288 
L 795.408583 -57.6288 
L 794.744372 -57.6288 
L 794.080162 -57.6288 
L 793.415951 -57.6288 
L 792.751741 -57.6288 
L 792.08753 -57.6288 
L 791.42332 -57.6288 
L 790.759109 -57.6288 
L 790.094899 -57.6288 
L 789.430688 -57.6288 
L 788.766478 -57.6288 
L 788.102267 -57.6288 
L 787.438057 -57.6288 
L 786.773846 -57.6288 
L 786.109636 -57.6288 
L 785.445425 -57.6288 
L 784.781215 -57.6288 
L 784.117004 -57.6288 
L 783.452794 -57.6288 
L 782.788583 -57.6288 
L 782.124373 -57.6288 
L 781.460162 -57.6288 
L 780.795952 -57.6288 
L 780.131741 -57.6288 
L 779.467531 -57.6288 
L 778.80332 -57.6288 
L 778.13911 -57.6288 
L 777.474899 -57.6288 
L 776.810689 -57.6288 
L 776.146478 -57.6288 
L 775.482268 -57.6288 
L 774.818057 -57.6288 
L 774.153847 -57.6288 
L 773.489636 -57.6288 
L 772.825426 -57.6288 
L 772.161215 -57.6288 
L 771.497005 -57.6288 
L 770.832794 -57.6288 
L 770.168584 -57.6288 
L 769.504373 -57.6288 
L 768.840163 -57.6288 
L 768.175952 -57.6288 
L 767.511742 -57.6288 
L 766.847531 -57.6288 
L 766.183321 -57.6288 
L 765.51911 -57.6288 
L 764.8549 -57.6288 
L 764.190689 -57.6288 
L 763.526479 -57.6288 
L 762.862268 -57.6288 
L 762.198058 -57.6288 
L 761.533847 -57.6288 
L 760.869637 -57.6288 
L 760.205426 -57.6288 
L 759.541216 -57.6288 
L 758.877005 -57.6288 
L 758.212794 -57.6288 
L 757.548584 -57.6288 
L 756.884373 -57.6288 
L 756.220163 -57.6288 
L 755.555952 -57.6288 
L 754.891742 -57.6288 
L 754.227531 -57.6288 
L 753.563321 -57.6288 
L 752.89911 -57.6288 
L 752.2349 -57.6288 
L 751.570689 -57.6288 
L 750.906479 -57.6288 
L 750.242268 -57.6288 
L 749.578058 -57.6288 
L 748.913847 -57.6288 
L 748.249637 -57.6288 
L 747.585426 -57.6288 
L 746.921216 -57.6288 
L 746.257005 -57.6288 
L 745.592795 -57.6288 
L 744.928584 -57.6288 
L 744.264374 -57.6288 
L 743.600163 -57.6288 
L 742.935953 -57.6288 
L 742.271742 -57.6288 
L 741.607532 -57.6288 
L 740.943321 -57.6288 
L 740.279111 -57.6288 
L 739.6149 -57.6288 
L 738.95069 -57.6288 
L 738.286479 -57.6288 
L 737.622269 -57.6288 
L 736.958058 -57.6288 
L 736.293848 -57.6288 
L 735.629637 -57.6288 
L 734.965427 -57.6288 
L 734.301216 -57.6288 
L 733.637006 -57.6288 
L 732.972795 -57.6288 
L 732.308585 -57.6288 
L 731.644374 -57.6288 
L 730.980164 -57.6288 
L 730.315953 -57.6288 
L 729.651743 -57.6288 
L 728.987532 -57.6288 
L 728.323322 -57.6288 
L 727.659111 -57.6288 
L 726.994901 -57.6288 
L 726.33069 -57.6288 
L 725.66648 -57.6288 
L 725.002269 -57.6288 
L 724.338059 -57.6288 
L 723.673848 -57.6288 
L 723.009637 -57.6288 
L 722.345427 -57.6288 
L 721.681216 -57.6288 
L 721.017006 -57.6288 
L 720.352795 -57.6288 
L 719.688585 -57.6288 
L 719.024374 -57.6288 
L 718.360164 -57.6288 
L 717.695953 -57.6288 
L 717.031743 -57.6288 
L 716.367532 -57.6288 
L 715.703322 -57.6288 
L 715.039111 -57.6288 
L 714.374901 -57.6288 
L 713.71069 -57.6288 
L 713.04648 -57.6288 
L 712.382269 -57.6288 
L 711.718059 -57.6288 
L 711.053848 -57.6288 
L 710.389638 -57.6288 
L 709.725427 -57.6288 
L 709.061217 -57.6288 
L 708.397006 -57.6288 
L 707.732796 -57.6288 
L 707.068585 -57.6288 
L 706.404375 -57.6288 
L 705.740164 -57.6288 
L 705.075954 -57.6288 
L 704.411743 -57.6288 
L 703.747533 -57.6288 
L 703.083322 -57.6288 
L 702.419112 -57.6288 
L 701.754901 -57.6288 
L 701.090691 -57.6288 
L 700.42648 -57.6288 
L 699.76227 -57.6288 
L 699.098059 -57.6288 
L 698.433849 -57.6288 
L 697.769638 -57.6288 
L 697.105428 -57.6288 
L 696.441217 -57.6288 
L 695.777007 -57.6288 
L 695.112796 -57.6288 
L 694.448586 -57.6288 
L 693.784375 -57.6288 
L 693.120165 -57.6288 
L 692.455954 -57.6288 
L 691.791744 -57.6288 
L 691.127533 -57.6288 
L 690.463323 -57.6288 
L 689.799112 -57.6288 
L 689.134902 -57.6288 
L 688.470691 -57.6288 
L 687.806481 -57.6288 
L 687.14227 -57.6288 
L 686.478059 -57.6288 
L 685.813849 -57.6288 
L 685.149638 -57.6288 
L 684.485428 -57.6288 
L 683.821217 -57.6288 
L 683.157007 -57.6288 
L 682.492796 -57.6288 
L 681.828586 -57.6288 
L 681.164375 -57.6288 
L 680.500165 -57.6288 
L 679.835954 -57.6288 
L 679.171744 -57.6288 
L 678.507533 -57.6288 
L 677.843323 -57.6288 
L 677.179112 -57.6288 
L 676.514902 -57.6288 
L 675.850691 -57.6288 
L 675.186481 -57.6288 
L 674.52227 -57.6288 
L 673.85806 -57.6288 
L 673.193849 -57.6288 
L 672.529639 -57.6288 
L 671.865428 -57.6288 
L 671.201218 -57.6288 
L 670.537007 -57.6288 
L 669.872797 -57.6288 
L 669.208586 -57.6288 
L 668.544376 -57.6288 
L 667.880165 -57.6288 
L 667.215955 -57.6288 
L 666.551744 -57.6288 
L 665.887534 -57.6288 
L 665.223323 -57.6288 
L 664.559113 -57.6288 
L 663.894902 -57.6288 
L 663.230692 -57.6288 
L 662.566481 -57.6288 
L 661.902271 -57.6288 
L 661.23806 -57.6288 
L 660.57385 -57.6288 
L 659.909639 -57.6288 
L 659.245429 -57.6288 
L 658.581218 -57.6288 
L 657.917008 -57.6288 
L 657.252797 -57.6288 
L 656.588587 -57.6288 
L 655.924376 -57.6288 
L 655.260166 -57.6288 
L 654.595955 -57.6288 
L 653.931745 -57.6288 
L 653.267534 -57.6288 
L 652.603324 -57.6288 
L 651.939113 -57.6288 
L 651.274902 -57.6288 
L 650.610692 -57.6288 
L 649.946481 -57.6288 
L 649.282271 -57.6288 
L 648.61806 -57.6288 
L 647.95385 -57.6288 
L 647.289639 -57.6288 
L 646.625429 -57.6288 
L 645.961218 -57.6288 
L 645.297008 -57.6288 
L 644.632797 -57.6288 
L 643.968587 -57.6288 
L 643.304376 -57.6288 
L 642.640166 -57.6288 
L 641.975955 -57.6288 
L 641.311745 -57.6288 
L 640.647534 -57.6288 
L 639.983324 -57.6288 
L 639.319113 -57.6288 
L 638.654903 -57.6288 
L 637.990692 -57.6288 
L 637.326482 -57.6288 
L 636.662271 -57.6288 
L 635.998061 -57.6288 
L 635.33385 -57.6288 
L 634.66964 -57.6288 
L 634.005429 -57.6288 
L 633.341219 -57.6288 
L 632.677008 -57.6288 
L 632.012798 -57.6288 
L 631.348587 -57.6288 
L 630.684377 -57.6288 
L 630.020166 -57.6288 
L 629.355956 -57.6288 
L 628.691745 -57.6288 
L 628.027535 -57.6288 
L 627.363324 -57.6288 
L 626.699114 -57.6288 
L 626.034903 -57.6288 
L 625.370693 -57.6288 
L 624.706482 -57.6288 
L 624.042272 -57.6288 
L 623.378061 -57.6288 
L 622.713851 -57.6288 
L 622.04964 -57.6288 
L 621.38543 -57.6288 
L 620.721219 -57.6288 
L 620.057009 -57.6288 
L 619.392798 -57.6288 
L 618.728588 -57.6288 
L 618.064377 -57.6288 
L 617.400167 -57.6288 
L 616.735956 -57.6288 
L 616.071745 -57.6288 
L 615.407535 -57.6288 
L 614.743324 -57.6288 
L 614.079114 -57.6288 
L 613.414903 -57.6288 
L 612.750693 -57.6288 
L 612.086482 -57.6288 
L 611.422272 -57.6288 
L 610.758061 -57.6288 
L 610.093851 -57.6288 
L 609.42964 -57.6288 
L 608.76543 -57.6288 
L 608.101219 -57.6288 
L 607.437009 -57.6288 
L 606.772798 -57.6288 
L 606.108588 -57.6288 
L 605.444377 -57.6288 
L 604.780167 -57.6288 
L 604.115956 -57.6288 
L 603.451746 -57.6288 
L 602.787535 -57.6288 
L 602.123325 -57.6288 
L 601.459114 -57.6288 
L 600.794904 -57.6288 
L 600.130693 -57.6288 
L 599.466483 -57.6288 
L 598.802272 -57.6288 
L 598.138062 -57.6288 
L 597.473851 -57.6288 
z
" style="stroke: #1f77b4; stroke-opacity: 0"/>
    </defs>
    <g clip-path="url(#p03aeb77cca)">
     <use xlink:href="#mba2bbcb44e" x="0" y="397.44" style="fill: #1f77b4; fill-opacity: 0; stroke: #1f77b4; stroke-opacity: 0"/>
    </g>
   </g>
   <g id="matplotlib.axis_3">
    <g id="xtick_5">
     <g id="line2d_7">
      <g>
       <use xlink:href="#m0c5756a5e9" x="584.789363" y="353.7216" style="fill: #808080; stroke: #808080"/>
      </g>
     </g>
     <g id="text_10">
      <!-- 0.035 -->
      <g transform="translate(564.749676 370.859412) scale(0.14 -0.14)">
       <use xlink:href="#DejaVuSans-30"/>
       <use xlink:href="#DejaVuSans-2e" x="63.623047"/>
       <use xlink:href="#DejaVuSans-30" x="95.410156"/>
       <use xlink:href="#DejaVuSans-33" x="159.033203"/>
       <use xlink:href="#DejaVuSans-35" x="222.65625"/>
      </g>
     </g>
    </g>
    <g id="xtick_6">
     <g id="line2d_8">
      <g>
       <use xlink:href="#m0c5756a5e9" x="640.602126" y="353.7216" style="fill: #808080; stroke: #808080"/>
      </g>
     </g>
     <g id="text_11">
      <!-- 0.040 -->
      <g transform="translate(620.562438 370.859412) scale(0.14 -0.14)">
       <use xlink:href="#DejaVuSans-30"/>
       <use xlink:href="#DejaVuSans-2e" x="63.623047"/>
       <use xlink:href="#DejaVuSans-30" x="95.410156"/>
       <use xlink:href="#DejaVuSans-34" x="159.033203"/>
       <use xlink:href="#DejaVuSans-30" x="222.65625"/>
      </g>
     </g>
    </g>
    <g id="xtick_7">
     <g id="line2d_9">
      <g>
       <use xlink:href="#m0c5756a5e9" x="696.414888" y="353.7216" style="fill: #808080; stroke: #808080"/>
      </g>
     </g>
     <g id="text_12">
      <!-- 0.045 -->
      <g transform="translate(676.3752 370.859412) scale(0.14 -0.14)">
       <use xlink:href="#DejaVuSans-30"/>
       <use xlink:href="#DejaVuSans-2e" x="63.623047"/>
       <use xlink:href="#DejaVuSans-30" x="95.410156"/>
       <use xlink:href="#DejaVuSans-34" x="159.033203"/>
       <use xlink:href="#DejaVuSans-35" x="222.65625"/>
      </g>
     </g>
    </g>
    <g id="xtick_8">
     <g id="line2d_10">
      <g>
       <use xlink:href="#m0c5756a5e9" x="752.22765" y="353.7216" style="fill: #808080; stroke: #808080"/>
      </g>
     </g>
     <g id="text_13">
      <!-- 0.050 -->
      <g transform="translate(732.187963 370.859412) scale(0.14 -0.14)">
       <use xlink:href="#DejaVuSans-30"/>
       <use xlink:href="#DejaVuSans-2e" x="63.623047"/>
       <use xlink:href="#DejaVuSans-30" x="95.410156"/>
       <use xlink:href="#DejaVuSans-35" x="159.033203"/>
       <use xlink:href="#DejaVuSans-30" x="222.65625"/>
      </g>
     </g>
    </g>
    <g id="xtick_9">
     <g id="line2d_11">
      <g>
       <use xlink:href="#m0c5756a5e9" x="808.040412" y="353.7216" style="fill: #808080; stroke: #808080"/>
      </g>
     </g>
     <g id="text_14">
      <!-- 0.055 -->
      <g transform="translate(788.000725 370.859412) scale(0.14 -0.14)">
       <use xlink:href="#DejaVuSans-30"/>
       <use xlink:href="#DejaVuSans-2e" x="63.623047"/>
       <use xlink:href="#DejaVuSans-30" x="95.410156"/>
       <use xlink:href="#DejaVuSans-35" x="159.033203"/>
       <use xlink:href="#DejaVuSans-35" x="222.65625"/>
      </g>
     </g>
    </g>
    <g id="xtick_10">
     <g id="line2d_12">
      <g>
       <use xlink:href="#m0c5756a5e9" x="863.853175" y="353.7216" style="fill: #808080; stroke: #808080"/>
      </g>
     </g>
     <g id="text_15">
      <!-- 0.060 -->
      <g transform="translate(843.813487 370.859412) scale(0.14 -0.14)">
       <use xlink:href="#DejaVuSans-30"/>
       <use xlink:href="#DejaVuSans-2e" x="63.623047"/>
       <use xlink:href="#DejaVuSans-30" x="95.410156"/>
       <use xlink:href="#DejaVuSans-36" x="159.033203"/>
       <use xlink:href="#DejaVuSans-30" x="222.65625"/>
      </g>
     </g>
    </g>
    <g id="xtick_11">
     <g id="line2d_13">
      <g>
       <use xlink:href="#m0c5756a5e9" x="919.665937" y="353.7216" style="fill: #808080; stroke: #808080"/>
      </g>
     </g>
     <g id="text_16">
      <!-- 0.065 -->
      <g transform="translate(899.62625 370.859412) scale(0.14 -0.14)">
       <use xlink:href="#DejaVuSans-30"/>
       <use xlink:href="#DejaVuSans-2e" x="63.623047"/>
       <use xlink:href="#DejaVuSans-30" x="95.410156"/>
       <use xlink:href="#DejaVuSans-36" x="159.033203"/>
       <use xlink:href="#DejaVuSans-35" x="222.65625"/>
      </g>
     </g>
    </g>
   </g>
   <g id="matplotlib.axis_4"/>
   <g id="line2d_14">
    <path d="M 597.473851 339.796219 
L 624.042272 339.711314 
L 632.012798 339.556678 
L 637.326482 339.344029 
L 645.297008 338.678798 
L 651.274902 337.732165 
L 653.931745 337.028566 
L 658.581218 335.564741 
L 660.57385 334.683362 
L 662.566481 333.510271 
L 665.887534 331.307562 
L 667.880165 329.751947 
L 670.537007 327.316272 
L 672.529639 325.217043 
L 674.52227 322.750126 
L 677.843323 318.073505 
L 679.835954 315.081336 
L 681.164375 312.77171 
L 683.157007 308.7005 
L 685.813849 302.516577 
L 687.806481 297.492146 
L 689.799112 291.889321 
L 694.448586 277.896837 
L 696.441217 270.979985 
L 699.76227 258.117708 
L 703.083322 244.65558 
L 706.404375 229.57174 
L 709.725427 213.958614 
L 713.04648 198.099919 
L 716.367532 182.461228 
L 719.024374 168.693333 
L 723.673848 144.040292 
L 730.315953 112.052683 
L 731.644374 106.295576 
L 733.637006 98.919129 
L 736.293848 90.396927 
L 739.6149 80.276 
L 740.943321 76.98283 
L 744.264374 69.73396 
L 746.257005 65.759394 
L 747.585426 63.74056 
L 748.249637 63.022201 
L 748.913847 62.505956 
L 749.578058 62.165504 
L 750.906479 61.80229 
L 752.2349 61.614641 
L 753.563321 61.689381 
L 754.891742 62.19575 
L 756.220163 63.073034 
L 757.548584 64.232004 
L 758.212794 64.976957 
L 758.877005 65.901036 
L 760.205426 68.398143 
L 761.533847 71.553991 
L 766.847531 85.248135 
L 768.175952 89.500318 
L 770.832794 99.357987 
L 776.810689 121.970003 
L 779.467531 132.961392 
L 781.460162 142.110871 
L 788.102267 173.945398 
L 792.08753 191.83356 
L 798.729636 222.757048 
L 801.386478 233.787216 
L 805.371741 248.980837 
L 811.349635 271.227588 
L 812.678056 275.329213 
L 814.670688 280.542738 
L 822.641214 299.582385 
L 824.633845 303.321325 
L 831.275951 314.910317 
L 833.268582 317.746263 
L 835.925424 321.075879 
L 837.918056 323.254984 
L 839.910687 325.102989 
L 846.552792 330.740148 
L 847.881213 331.544401 
L 850.538055 332.812025 
L 853.859108 334.236371 
L 858.508581 335.805398 
L 861.165423 336.541035 
L 865.814897 337.543408 
L 870.464371 338.304218 
L 873.785423 338.738131 
L 879.763318 339.239315 
L 889.726475 339.538017 
L 906.995949 339.767737 
L 936.885421 339.800646 
L 936.885421 339.800646 
" clip-path="url(#p03aeb77cca)" style="fill: none; stroke: #1f77b4; stroke-width: 1.5; stroke-linecap: square"/>
   </g>
   <g id="line2d_15">
    <path d="M 687.045274 333.968832 
L 821.809028 333.968832 
" clip-path="url(#p03aeb77cca)" style="fill: none; stroke: #000000; stroke-width: 3"/>
   </g>
   <g id="patch_5">
    <path d="M 580.503273 353.7216 
L 953.856 353.7216 
" style="fill: none; stroke: #808080; stroke-width: 0.8; stroke-linejoin: miter; stroke-linecap: square"/>
   </g>
   <g id="text_17">
    <!-- 0.044  -->
    <g transform="translate(639.335899 319.362912) scale(0.15 -0.15)">
     <use xlink:href="#DejaVuSans-30"/>
     <use xlink:href="#DejaVuSans-2e" x="63.623047"/>
     <use xlink:href="#DejaVuSans-30" x="95.410156"/>
     <use xlink:href="#DejaVuSans-34" x="159.033203"/>
     <use xlink:href="#DejaVuSans-34" x="222.65625"/>
     <use xlink:href="#DejaVuSans-20" x="286.279297"/>
    </g>
   </g>
   <g id="text_18">
    <!--  0.056 -->
    <g transform="translate(821.809028 319.362912) scale(0.15 -0.15)">
     <use xlink:href="#DejaVuSans-20"/>
     <use xlink:href="#DejaVuSans-30" x="31.787109"/>
     <use xlink:href="#DejaVuSans-2e" x="95.410156"/>
     <use xlink:href="#DejaVuSans-30" x="127.197266"/>
     <use xlink:href="#DejaVuSans-35" x="190.820312"/>
     <use xlink:href="#DejaVuSans-36" x="254.443359"/>
    </g>
   </g>
   <g id="text_19">
    <!-- 95% HDI -->
    <g transform="translate(721.745901 252.17568) scale(0.15 -0.15)">
     <use xlink:href="#DejaVuSans-39"/>
     <use xlink:href="#DejaVuSans-35" x="63.623047"/>
     <use xlink:href="#DejaVuSans-25" x="127.246094"/>
     <use xlink:href="#DejaVuSans-20" x="222.265625"/>
     <use xlink:href="#DejaVuSans-48" x="254.052734"/>
     <use xlink:href="#DejaVuSans-44" x="329.248047"/>
     <use xlink:href="#DejaVuSans-49" x="406.25"/>
    </g>
   </g>
   <g id="text_20">
    <!-- mean=0.05 -->
    <g transform="translate(709.979331 106.11648) scale(0.15 -0.15)">
     <use xlink:href="#DejaVuSans-6d"/>
     <use xlink:href="#DejaVuSans-65" x="97.412109"/>
     <use xlink:href="#DejaVuSans-61" x="158.935547"/>
     <use xlink:href="#DejaVuSans-6e" x="220.214844"/>
     <use xlink:href="#DejaVuSans-3d" x="283.59375"/>
     <use xlink:href="#DejaVuSans-30" x="367.382812"/>
     <use xlink:href="#DejaVuSans-2e" x="431.005859"/>
     <use xlink:href="#DejaVuSans-30" x="462.792969"/>
     <use xlink:href="#DejaVuSans-35" x="526.416016"/>
    </g>
   </g>
   <g id="text_21">
    <!-- biased_θ -->
    <g transform="translate(731.912136 41.6928) scale(0.16 -0.16)">
     <defs>
      <path id="DejaVuSans-62" d="M 3116 1747 
Q 3116 2381 2855 2742 
Q 2594 3103 2138 3103 
Q 1681 3103 1420 2742 
Q 1159 2381 1159 1747 
Q 1159 1113 1420 752 
Q 1681 391 2138 391 
Q 2594 391 2855 752 
Q 3116 1113 3116 1747 
z
M 1159 2969 
Q 1341 3281 1617 3432 
Q 1894 3584 2278 3584 
Q 2916 3584 3314 3078 
Q 3713 2572 3713 1747 
Q 3713 922 3314 415 
Q 2916 -91 2278 -91 
Q 1894 -91 1617 61 
Q 1341 213 1159 525 
L 1159 0 
L 581 0 
L 581 4863 
L 1159 4863 
L 1159 2969 
z
" transform="scale(0.015625)"/>
      <path id="DejaVuSans-69" d="M 603 3500 
L 1178 3500 
L 1178 0 
L 603 0 
L 603 3500 
z
M 603 4863 
L 1178 4863 
L 1178 4134 
L 603 4134 
L 603 4863 
z
" transform="scale(0.015625)"/>
      <path id="DejaVuSans-73" d="M 2834 3397 
L 2834 2853 
Q 2591 2978 2328 3040 
Q 2066 3103 1784 3103 
Q 1356 3103 1142 2972 
Q 928 2841 928 2578 
Q 928 2378 1081 2264 
Q 1234 2150 1697 2047 
L 1894 2003 
Q 2506 1872 2764 1633 
Q 3022 1394 3022 966 
Q 3022 478 2636 193 
Q 2250 -91 1575 -91 
Q 1294 -91 989 -36 
Q 684 19 347 128 
L 347 722 
Q 666 556 975 473 
Q 1284 391 1588 391 
Q 1994 391 2212 530 
Q 2431 669 2431 922 
Q 2431 1156 2273 1281 
Q 2116 1406 1581 1522 
L 1381 1569 
Q 847 1681 609 1914 
Q 372 2147 372 2553 
Q 372 3047 722 3315 
Q 1072 3584 1716 3584 
Q 2034 3584 2315 3537 
Q 2597 3491 2834 3397 
z
" transform="scale(0.015625)"/>
      <path id="DejaVuSans-64" d="M 2906 2969 
L 2906 4863 
L 3481 4863 
L 3481 0 
L 2906 0 
L 2906 525 
Q 2725 213 2448 61 
Q 2172 -91 1784 -91 
Q 1150 -91 751 415 
Q 353 922 353 1747 
Q 353 2572 751 3078 
Q 1150 3584 1784 3584 
Q 2172 3584 2448 3432 
Q 2725 3281 2906 2969 
z
M 947 1747 
Q 947 1113 1208 752 
Q 1469 391 1925 391 
Q 2381 391 2643 752 
Q 2906 1113 2906 1747 
Q 2906 2381 2643 2742 
Q 2381 3103 1925 3103 
Q 1469 3103 1208 2742 
Q 947 2381 947 1747 
z
" transform="scale(0.015625)"/>
      <path id="DejaVuSans-5f" d="M 3263 -1063 
L 3263 -1509 
L -63 -1509 
L -63 -1063 
L 3263 -1063 
z
" transform="scale(0.015625)"/>
     </defs>
     <use xlink:href="#DejaVuSans-62"/>
     <use xlink:href="#DejaVuSans-69" x="63.476562"/>
     <use xlink:href="#DejaVuSans-61" x="91.259766"/>
     <use xlink:href="#DejaVuSans-73" x="152.539062"/>
     <use xlink:href="#DejaVuSans-65" x="204.638672"/>
     <use xlink:href="#DejaVuSans-64" x="266.162109"/>
     <use xlink:href="#DejaVuSans-5f" x="329.638672"/>
     <use xlink:href="#DejaVuSans-3b8" x="379.638672"/>
    </g>
   </g>
  </g>
 </g>
 <defs>
  <clipPath id="p2bef2fdb5b">
   <rect x="132.48" y="47.6928" width="373.352727" height="306.0288"/>
  </clipPath>
  <clipPath id="p03aeb77cca">
   <rect x="580.503273" y="47.6928" width="373.352727" height="306.0288"/>
  </clipPath>
 </defs>
</svg>
