<?xml version="1.0" encoding="utf-8" standalone="no"?>
<!DOCTYPE svg PUBLIC "-//W3C//DTD SVG 1.1//EN"
  "http://www.w3.org/Graphics/SVG/1.1/DTD/svg11.dtd">
<svg xmlns:xlink="http://www.w3.org/1999/xlink" width="460.8pt" height="345.6pt" viewBox="0 0 460.8 345.6" xmlns="http://www.w3.org/2000/svg" version="1.1">
 <metadata>
  <rdf:RDF xmlns:dc="http://purl.org/dc/elements/1.1/" xmlns:cc="http://creativecommons.org/ns#" xmlns:rdf="http://www.w3.org/1999/02/22-rdf-syntax-ns#">
   <cc:Work>
    <dc:type rdf:resource="http://purl.org/dc/dcmitype/StillImage"/>
    <dc:format>image/svg+xml</dc:format>
   </cc:Work>
  </rdf:RDF>
 </metadata>
 <defs>
  <style type="text/css">*{stroke-linejoin: round; stroke-linecap: butt}</style>
 </defs>
 <g id="figure_1">
  <g id="patch_1">
   <path d="M 0 345.6 
L 460.8 345.6 
L 460.8 0 
L 0 0 
z
" style="fill: #ffffff"/>
  </g>
  <g id="axes_1">
   <g id="patch_2">
    <path d="M 57.6 307.584 
L 414.72 307.584 
L 414.72 41.472 
L 57.6 41.472 
z
" style="fill: #ffffff"/>
   </g>
   <g id="patch_3">
    <path d="M 73.832727 307.584 
L 81.087577 307.584 
L 81.087577 307.584 
L 73.832727 307.584 
z
" clip-path="url(#p9784ef3c40)" style="fill: #1f77b4"/>
   </g>
   <g id="patch_4">
    <path d="M 82.90129 307.584 
L 90.15614 307.584 
L 90.15614 306.959763 
L 82.90129 306.959763 
z
" clip-path="url(#p9784ef3c40)" style="fill: #1f77b4"/>
   </g>
   <g id="patch_5">
    <path d="M 91.969853 307.584 
L 99.224703 307.584 
L 99.224703 303.465322 
L 91.969853 303.465322 
z
" clip-path="url(#p9784ef3c40)" style="fill: #1f77b4"/>
   </g>
   <g id="patch_6">
    <path d="M 101.038415 307.584 
L 108.293266 307.584 
L 108.293266 293.1899 
L 101.038415 293.1899 
z
" clip-path="url(#p9784ef3c40)" style="fill: #1f77b4"/>
   </g>
   <g id="patch_7">
    <path d="M 110.106978 307.584 
L 117.361828 307.584 
L 117.361828 272.179878 
L 110.106978 272.179878 
z
" clip-path="url(#p9784ef3c40)" style="fill: #1f77b4"/>
   </g>
   <g id="patch_8">
    <path d="M 119.175541 307.584 
L 126.430391 307.584 
L 126.430391 238.850789 
L 119.175541 238.850789 
z
" clip-path="url(#p9784ef3c40)" style="fill: #1f77b4"/>
   </g>
   <g id="patch_9">
    <path d="M 128.244104 307.584 
L 135.498954 307.584 
L 135.498954 195.553153 
L 128.244104 195.553153 
z
" clip-path="url(#p9784ef3c40)" style="fill: #1f77b4"/>
   </g>
   <g id="patch_10">
    <path d="M 137.312666 307.584 
L 144.567517 307.584 
L 144.567517 148.29014 
L 137.312666 148.29014 
z
" clip-path="url(#p9784ef3c40)" style="fill: #1f77b4"/>
   </g>
   <g id="patch_11">
    <path d="M 146.381229 307.584 
L 153.636079 307.584 
L 153.636079 104.820447 
L 146.381229 104.820447 
z
" clip-path="url(#p9784ef3c40)" style="fill: #1f77b4"/>
   </g>
   <g id="patch_12">
    <path d="M 155.449792 307.584 
L 162.704642 307.584 
L 162.704642 72.210723 
L 155.449792 72.210723 
z
" clip-path="url(#p9784ef3c40)" style="fill: #1f77b4"/>
   </g>
   <g id="patch_13">
    <path d="M 164.518354 307.584 
L 171.773205 307.584 
L 171.773205 54.940147 
L 164.518354 54.940147 
z
" clip-path="url(#p9784ef3c40)" style="fill: #1f77b4"/>
   </g>
   <g id="patch_14">
    <path d="M 173.586917 307.584 
L 180.841767 307.584 
L 180.841767 54.144 
L 173.586917 54.144 
z
" clip-path="url(#p9784ef3c40)" style="fill: #1f77b4"/>
   </g>
   <g id="patch_15">
    <path d="M 182.65548 307.584 
L 189.91033 307.584 
L 189.91033 67.968 
L 182.65548 67.968 
z
" clip-path="url(#p9784ef3c40)" style="fill: #1f77b4"/>
   </g>
   <g id="patch_16">
    <path d="M 191.724043 307.584 
L 198.978893 307.584 
L 198.978893 92.612051 
L 191.724043 92.612051 
z
" clip-path="url(#p9784ef3c40)" style="fill: #1f77b4"/>
   </g>
   <g id="patch_17">
    <path d="M 200.792605 307.584 
L 208.047456 307.584 
L 208.047456 123.552069 
L 200.792605 123.552069 
z
" clip-path="url(#p9784ef3c40)" style="fill: #1f77b4"/>
   </g>
   <g id="patch_18">
    <path d="M 209.861168 307.584 
L 217.116018 307.584 
L 217.116018 156.554163 
L 209.861168 156.554163 
z
" clip-path="url(#p9784ef3c40)" style="fill: #1f77b4"/>
   </g>
   <g id="patch_19">
    <path d="M 218.929731 307.584 
L 226.184581 307.584 
L 226.184581 188.299288 
L 218.929731 188.299288 
z
" clip-path="url(#p9784ef3c40)" style="fill: #1f77b4"/>
   </g>
   <g id="patch_20">
    <path d="M 227.998294 307.584 
L 235.253144 307.584 
L 235.253144 216.613545 
L 227.998294 216.613545 
z
" clip-path="url(#p9784ef3c40)" style="fill: #1f77b4"/>
   </g>
   <g id="patch_21">
    <path d="M 237.066856 307.584 
L 244.321706 307.584 
L 244.321706 240.403009 
L 237.066856 240.403009 
z
" clip-path="url(#p9784ef3c40)" style="fill: #1f77b4"/>
   </g>
   <g id="patch_22">
    <path d="M 246.135419 307.584 
L 253.390269 307.584 
L 253.390269 259.423268 
L 246.135419 259.423268 
z
" clip-path="url(#p9784ef3c40)" style="fill: #1f77b4"/>
   </g>
   <g id="patch_23">
    <path d="M 255.203982 307.584 
L 262.458832 307.584 
L 262.458832 273.99687 
L 255.203982 273.99687 
z
" clip-path="url(#p9784ef3c40)" style="fill: #1f77b4"/>
   </g>
   <g id="patch_24">
    <path d="M 264.272544 307.584 
L 271.527395 307.584 
L 271.527395 284.754121 
L 264.272544 284.754121 
z
" clip-path="url(#p9784ef3c40)" style="fill: #1f77b4"/>
   </g>
   <g id="patch_25">
    <path d="M 273.341107 307.584 
L 280.595957 307.584 
L 280.595957 292.434219 
L 273.341107 292.434219 
z
" clip-path="url(#p9784ef3c40)" style="fill: #1f77b4"/>
   </g>
   <g id="patch_26">
    <path d="M 282.40967 307.584 
L 289.66452 307.584 
L 289.66452 297.754748 
L 282.40967 297.754748 
z
" clip-path="url(#p9784ef3c40)" style="fill: #1f77b4"/>
   </g>
   <g id="patch_27">
    <path d="M 291.478233 307.584 
L 298.733083 307.584 
L 298.733083 301.340685 
L 291.478233 301.340685 
z
" clip-path="url(#p9784ef3c40)" style="fill: #1f77b4"/>
   </g>
   <g id="patch_28">
    <path d="M 300.546795 307.584 
L 307.801646 307.584 
L 307.801646 303.697131 
L 300.546795 303.697131 
z
" clip-path="url(#p9784ef3c40)" style="fill: #1f77b4"/>
   </g>
   <g id="patch_29">
    <path d="M 309.615358 307.584 
L 316.870208 307.584 
L 316.870208 305.209722 
L 309.615358 305.209722 
z
" clip-path="url(#p9784ef3c40)" style="fill: #1f77b4"/>
   </g>
   <g id="patch_30">
    <path d="M 318.683921 307.584 
L 325.938771 307.584 
L 325.938771 306.159632 
L 318.683921 306.159632 
z
" clip-path="url(#p9784ef3c40)" style="fill: #1f77b4"/>
   </g>
   <g id="patch_31">
    <path d="M 327.752483 307.584 
L 335.007334 307.584 
L 335.007334 306.744067 
L 327.752483 306.744067 
z
" clip-path="url(#p9784ef3c40)" style="fill: #1f77b4"/>
   </g>
   <g id="patch_32">
    <path d="M 336.821046 307.584 
L 344.075896 307.584 
L 344.075896 307.096768 
L 336.821046 307.096768 
z
" clip-path="url(#p9784ef3c40)" style="fill: #1f77b4"/>
   </g>
   <g id="patch_33">
    <path d="M 345.889609 307.584 
L 353.144459 307.584 
L 353.144459 307.305771 
L 345.889609 307.305771 
z
" clip-path="url(#p9784ef3c40)" style="fill: #1f77b4"/>
   </g>
   <g id="patch_34">
    <path d="M 354.958172 307.584 
L 362.213022 307.584 
L 362.213022 307.427496 
L 354.958172 307.427496 
z
" clip-path="url(#p9784ef3c40)" style="fill: #1f77b4"/>
   </g>
   <g id="patch_35">
    <path d="M 364.026734 307.584 
L 371.281585 307.584 
L 371.281585 307.497232 
L 364.026734 307.497232 
z
" clip-path="url(#p9784ef3c40)" style="fill: #1f77b4"/>
   </g>
   <g id="patch_36">
    <path d="M 373.095297 307.584 
L 380.350147 307.584 
L 380.350147 307.536561 
L 373.095297 307.536561 
z
" clip-path="url(#p9784ef3c40)" style="fill: #1f77b4"/>
   </g>
   <g id="patch_37">
    <path d="M 382.16386 307.584 
L 389.41871 307.584 
L 389.41871 307.55841 
L 382.16386 307.55841 
z
" clip-path="url(#p9784ef3c40)" style="fill: #1f77b4"/>
   </g>
   <g id="patch_38">
    <path d="M 391.232423 307.584 
L 398.487273 307.584 
L 398.487273 307.570374 
L 391.232423 307.570374 
z
" clip-path="url(#p9784ef3c40)" style="fill: #1f77b4"/>
   </g>
   <g id="matplotlib.axis_1">
    <g id="xtick_1">
     <g id="line2d_1">
      <defs>
       <path id="m0e103265cd" d="M 0 0 
L 0 3.5 
" style="stroke: #000000; stroke-width: 0.8"/>
      </defs>
      <g>
       <use xlink:href="#m0e103265cd" x="86.528715" y="307.584" style="stroke: #000000; stroke-width: 0.8"/>
      </g>
     </g>
     <g id="text_1">
      <!-- 15 -->
      <g transform="translate(80.166215 322.182437) scale(0.1 -0.1)">
       <defs>
        <path id="DejaVuSans-31" d="M 794 531 
L 1825 531 
L 1825 4091 
L 703 3866 
L 703 4441 
L 1819 4666 
L 2450 4666 
L 2450 531 
L 3481 531 
L 3481 0 
L 794 0 
L 794 531 
z
" transform="scale(0.015625)"/>
        <path id="DejaVuSans-35" d="M 691 4666 
L 3169 4666 
L 3169 4134 
L 1269 4134 
L 1269 2991 
Q 1406 3038 1543 3061 
Q 1681 3084 1819 3084 
Q 2600 3084 3056 2656 
Q 3513 2228 3513 1497 
Q 3513 744 3044 326 
Q 2575 -91 1722 -91 
Q 1428 -91 1123 -41 
Q 819 9 494 109 
L 494 744 
Q 775 591 1075 516 
Q 1375 441 1709 441 
Q 2250 441 2565 725 
Q 2881 1009 2881 1497 
Q 2881 1984 2565 2268 
Q 2250 2553 1709 2553 
Q 1456 2553 1204 2497 
Q 953 2441 691 2322 
L 691 4666 
z
" transform="scale(0.015625)"/>
       </defs>
       <use xlink:href="#DejaVuSans-31"/>
       <use xlink:href="#DejaVuSans-35" x="63.623047"/>
      </g>
     </g>
    </g>
    <g id="xtick_2">
     <g id="line2d_2">
      <g>
       <use xlink:href="#m0e103265cd" x="131.871529" y="307.584" style="stroke: #000000; stroke-width: 0.8"/>
      </g>
     </g>
     <g id="text_2">
      <!-- 20 -->
      <g transform="translate(125.509029 322.182437) scale(0.1 -0.1)">
       <defs>
        <path id="DejaVuSans-32" d="M 1228 531 
L 3431 531 
L 3431 0 
L 469 0 
L 469 531 
Q 828 903 1448 1529 
Q 2069 2156 2228 2338 
Q 2531 2678 2651 2914 
Q 2772 3150 2772 3378 
Q 2772 3750 2511 3984 
Q 2250 4219 1831 4219 
Q 1534 4219 1204 4116 
Q 875 4013 500 3803 
L 500 4441 
Q 881 4594 1212 4672 
Q 1544 4750 1819 4750 
Q 2544 4750 2975 4387 
Q 3406 4025 3406 3419 
Q 3406 3131 3298 2873 
Q 3191 2616 2906 2266 
Q 2828 2175 2409 1742 
Q 1991 1309 1228 531 
z
" transform="scale(0.015625)"/>
        <path id="DejaVuSans-30" d="M 2034 4250 
Q 1547 4250 1301 3770 
Q 1056 3291 1056 2328 
Q 1056 1369 1301 889 
Q 1547 409 2034 409 
Q 2525 409 2770 889 
Q 3016 1369 3016 2328 
Q 3016 3291 2770 3770 
Q 2525 4250 2034 4250 
z
M 2034 4750 
Q 2819 4750 3233 4129 
Q 3647 3509 3647 2328 
Q 3647 1150 3233 529 
Q 2819 -91 2034 -91 
Q 1250 -91 836 529 
Q 422 1150 422 2328 
Q 422 3509 836 4129 
Q 1250 4750 2034 4750 
z
" transform="scale(0.015625)"/>
       </defs>
       <use xlink:href="#DejaVuSans-32"/>
       <use xlink:href="#DejaVuSans-30" x="63.623047"/>
      </g>
     </g>
    </g>
    <g id="xtick_3">
     <g id="line2d_3">
      <g>
       <use xlink:href="#m0e103265cd" x="177.214342" y="307.584" style="stroke: #000000; stroke-width: 0.8"/>
      </g>
     </g>
     <g id="text_3">
      <!-- 25 -->
      <g transform="translate(170.851842 322.182437) scale(0.1 -0.1)">
       <use xlink:href="#DejaVuSans-32"/>
       <use xlink:href="#DejaVuSans-35" x="63.623047"/>
      </g>
     </g>
    </g>
    <g id="xtick_4">
     <g id="line2d_4">
      <g>
       <use xlink:href="#m0e103265cd" x="222.557156" y="307.584" style="stroke: #000000; stroke-width: 0.8"/>
      </g>
     </g>
     <g id="text_4">
      <!-- 30 -->
      <g transform="translate(216.194656 322.182437) scale(0.1 -0.1)">
       <defs>
        <path id="DejaVuSans-33" d="M 2597 2516 
Q 3050 2419 3304 2112 
Q 3559 1806 3559 1356 
Q 3559 666 3084 287 
Q 2609 -91 1734 -91 
Q 1441 -91 1130 -33 
Q 819 25 488 141 
L 488 750 
Q 750 597 1062 519 
Q 1375 441 1716 441 
Q 2309 441 2620 675 
Q 2931 909 2931 1356 
Q 2931 1769 2642 2001 
Q 2353 2234 1838 2234 
L 1294 2234 
L 1294 2753 
L 1863 2753 
Q 2328 2753 2575 2939 
Q 2822 3125 2822 3475 
Q 2822 3834 2567 4026 
Q 2313 4219 1838 4219 
Q 1578 4219 1281 4162 
Q 984 4106 628 3988 
L 628 4550 
Q 988 4650 1302 4700 
Q 1616 4750 1894 4750 
Q 2613 4750 3031 4423 
Q 3450 4097 3450 3541 
Q 3450 3153 3228 2886 
Q 3006 2619 2597 2516 
z
" transform="scale(0.015625)"/>
       </defs>
       <use xlink:href="#DejaVuSans-33"/>
       <use xlink:href="#DejaVuSans-30" x="63.623047"/>
      </g>
     </g>
    </g>
    <g id="xtick_5">
     <g id="line2d_5">
      <g>
       <use xlink:href="#m0e103265cd" x="267.89997" y="307.584" style="stroke: #000000; stroke-width: 0.8"/>
      </g>
     </g>
     <g id="text_5">
      <!-- 35 -->
      <g transform="translate(261.53747 322.182437) scale(0.1 -0.1)">
       <use xlink:href="#DejaVuSans-33"/>
       <use xlink:href="#DejaVuSans-35" x="63.623047"/>
      </g>
     </g>
    </g>
    <g id="xtick_6">
     <g id="line2d_6">
      <g>
       <use xlink:href="#m0e103265cd" x="313.242783" y="307.584" style="stroke: #000000; stroke-width: 0.8"/>
      </g>
     </g>
     <g id="text_6">
      <!-- 40 -->
      <g transform="translate(306.880283 322.182437) scale(0.1 -0.1)">
       <defs>
        <path id="DejaVuSans-34" d="M 2419 4116 
L 825 1625 
L 2419 1625 
L 2419 4116 
z
M 2253 4666 
L 3047 4666 
L 3047 1625 
L 3713 1625 
L 3713 1100 
L 3047 1100 
L 3047 0 
L 2419 0 
L 2419 1100 
L 313 1100 
L 313 1709 
L 2253 4666 
z
" transform="scale(0.015625)"/>
       </defs>
       <use xlink:href="#DejaVuSans-34"/>
       <use xlink:href="#DejaVuSans-30" x="63.623047"/>
      </g>
     </g>
    </g>
    <g id="xtick_7">
     <g id="line2d_7">
      <g>
       <use xlink:href="#m0e103265cd" x="358.585597" y="307.584" style="stroke: #000000; stroke-width: 0.8"/>
      </g>
     </g>
     <g id="text_7">
      <!-- 45 -->
      <g transform="translate(352.223097 322.182437) scale(0.1 -0.1)">
       <use xlink:href="#DejaVuSans-34"/>
       <use xlink:href="#DejaVuSans-35" x="63.623047"/>
      </g>
     </g>
    </g>
    <g id="xtick_8">
     <g id="line2d_8">
      <g>
       <use xlink:href="#m0e103265cd" x="403.92841" y="307.584" style="stroke: #000000; stroke-width: 0.8"/>
      </g>
     </g>
     <g id="text_8">
      <!-- 50 -->
      <g transform="translate(397.56591 322.182437) scale(0.1 -0.1)">
       <use xlink:href="#DejaVuSans-35"/>
       <use xlink:href="#DejaVuSans-30" x="63.623047"/>
      </g>
     </g>
    </g>
   </g>
   <g id="matplotlib.axis_2">
    <g id="ytick_1">
     <g id="line2d_9">
      <defs>
       <path id="mc477a0b56e" d="M 0 0 
L -3.5 0 
" style="stroke: #000000; stroke-width: 0.8"/>
      </defs>
      <g>
       <use xlink:href="#mc477a0b56e" x="57.6" y="307.584" style="stroke: #000000; stroke-width: 0.8"/>
      </g>
     </g>
     <g id="text_9">
      <!-- 0.00 -->
      <g transform="translate(28.334375 311.383219) scale(0.1 -0.1)">
       <defs>
        <path id="DejaVuSans-2e" d="M 684 794 
L 1344 794 
L 1344 0 
L 684 0 
L 684 794 
z
" transform="scale(0.015625)"/>
       </defs>
       <use xlink:href="#DejaVuSans-30"/>
       <use xlink:href="#DejaVuSans-2e" x="63.623047"/>
       <use xlink:href="#DejaVuSans-30" x="95.410156"/>
       <use xlink:href="#DejaVuSans-30" x="159.033203"/>
      </g>
     </g>
    </g>
    <g id="ytick_2">
     <g id="line2d_10">
      <g>
       <use xlink:href="#mc477a0b56e" x="57.6" y="256.557175" style="stroke: #000000; stroke-width: 0.8"/>
      </g>
     </g>
     <g id="text_10">
      <!-- 0.02 -->
      <g transform="translate(28.334375 260.356394) scale(0.1 -0.1)">
       <use xlink:href="#DejaVuSans-30"/>
       <use xlink:href="#DejaVuSans-2e" x="63.623047"/>
       <use xlink:href="#DejaVuSans-30" x="95.410156"/>
       <use xlink:href="#DejaVuSans-32" x="159.033203"/>
      </g>
     </g>
    </g>
    <g id="ytick_3">
     <g id="line2d_11">
      <g>
       <use xlink:href="#mc477a0b56e" x="57.6" y="205.53035" style="stroke: #000000; stroke-width: 0.8"/>
      </g>
     </g>
     <g id="text_11">
      <!-- 0.04 -->
      <g transform="translate(28.334375 209.329568) scale(0.1 -0.1)">
       <use xlink:href="#DejaVuSans-30"/>
       <use xlink:href="#DejaVuSans-2e" x="63.623047"/>
       <use xlink:href="#DejaVuSans-30" x="95.410156"/>
       <use xlink:href="#DejaVuSans-34" x="159.033203"/>
      </g>
     </g>
    </g>
    <g id="ytick_4">
     <g id="line2d_12">
      <g>
       <use xlink:href="#mc477a0b56e" x="57.6" y="154.503524" style="stroke: #000000; stroke-width: 0.8"/>
      </g>
     </g>
     <g id="text_12">
      <!-- 0.06 -->
      <g transform="translate(28.334375 158.302743) scale(0.1 -0.1)">
       <defs>
        <path id="DejaVuSans-36" d="M 2113 2584 
Q 1688 2584 1439 2293 
Q 1191 2003 1191 1497 
Q 1191 994 1439 701 
Q 1688 409 2113 409 
Q 2538 409 2786 701 
Q 3034 994 3034 1497 
Q 3034 2003 2786 2293 
Q 2538 2584 2113 2584 
z
M 3366 4563 
L 3366 3988 
Q 3128 4100 2886 4159 
Q 2644 4219 2406 4219 
Q 1781 4219 1451 3797 
Q 1122 3375 1075 2522 
Q 1259 2794 1537 2939 
Q 1816 3084 2150 3084 
Q 2853 3084 3261 2657 
Q 3669 2231 3669 1497 
Q 3669 778 3244 343 
Q 2819 -91 2113 -91 
Q 1303 -91 875 529 
Q 447 1150 447 2328 
Q 447 3434 972 4092 
Q 1497 4750 2381 4750 
Q 2619 4750 2861 4703 
Q 3103 4656 3366 4563 
z
" transform="scale(0.015625)"/>
       </defs>
       <use xlink:href="#DejaVuSans-30"/>
       <use xlink:href="#DejaVuSans-2e" x="63.623047"/>
       <use xlink:href="#DejaVuSans-30" x="95.410156"/>
       <use xlink:href="#DejaVuSans-36" x="159.033203"/>
      </g>
     </g>
    </g>
    <g id="ytick_5">
     <g id="line2d_13">
      <g>
       <use xlink:href="#mc477a0b56e" x="57.6" y="103.476699" style="stroke: #000000; stroke-width: 0.8"/>
      </g>
     </g>
     <g id="text_13">
      <!-- 0.08 -->
      <g transform="translate(28.334375 107.275918) scale(0.1 -0.1)">
       <defs>
        <path id="DejaVuSans-38" d="M 2034 2216 
Q 1584 2216 1326 1975 
Q 1069 1734 1069 1313 
Q 1069 891 1326 650 
Q 1584 409 2034 409 
Q 2484 409 2743 651 
Q 3003 894 3003 1313 
Q 3003 1734 2745 1975 
Q 2488 2216 2034 2216 
z
M 1403 2484 
Q 997 2584 770 2862 
Q 544 3141 544 3541 
Q 544 4100 942 4425 
Q 1341 4750 2034 4750 
Q 2731 4750 3128 4425 
Q 3525 4100 3525 3541 
Q 3525 3141 3298 2862 
Q 3072 2584 2669 2484 
Q 3125 2378 3379 2068 
Q 3634 1759 3634 1313 
Q 3634 634 3220 271 
Q 2806 -91 2034 -91 
Q 1263 -91 848 271 
Q 434 634 434 1313 
Q 434 1759 690 2068 
Q 947 2378 1403 2484 
z
M 1172 3481 
Q 1172 3119 1398 2916 
Q 1625 2713 2034 2713 
Q 2441 2713 2670 2916 
Q 2900 3119 2900 3481 
Q 2900 3844 2670 4047 
Q 2441 4250 2034 4250 
Q 1625 4250 1398 4047 
Q 1172 3844 1172 3481 
z
" transform="scale(0.015625)"/>
       </defs>
       <use xlink:href="#DejaVuSans-30"/>
       <use xlink:href="#DejaVuSans-2e" x="63.623047"/>
       <use xlink:href="#DejaVuSans-30" x="95.410156"/>
       <use xlink:href="#DejaVuSans-38" x="159.033203"/>
      </g>
     </g>
    </g>
    <g id="ytick_6">
     <g id="line2d_14">
      <g>
       <use xlink:href="#mc477a0b56e" x="57.6" y="52.449874" style="stroke: #000000; stroke-width: 0.8"/>
      </g>
     </g>
     <g id="text_14">
      <!-- 0.10 -->
      <g transform="translate(28.334375 56.249093) scale(0.1 -0.1)">
       <use xlink:href="#DejaVuSans-30"/>
       <use xlink:href="#DejaVuSans-2e" x="63.623047"/>
       <use xlink:href="#DejaVuSans-31" x="95.410156"/>
       <use xlink:href="#DejaVuSans-30" x="159.033203"/>
      </g>
     </g>
    </g>
   </g>
   <g id="patch_39">
    <path d="M 57.6 307.584 
L 57.6 41.472 
" style="fill: none; stroke: #000000; stroke-width: 0.8; stroke-linejoin: miter; stroke-linecap: square"/>
   </g>
   <g id="patch_40">
    <path d="M 414.72 307.584 
L 414.72 41.472 
" style="fill: none; stroke: #000000; stroke-width: 0.8; stroke-linejoin: miter; stroke-linecap: square"/>
   </g>
   <g id="patch_41">
    <path d="M 57.6 307.584 
L 414.72 307.584 
" style="fill: none; stroke: #000000; stroke-width: 0.8; stroke-linejoin: miter; stroke-linecap: square"/>
   </g>
   <g id="patch_42">
    <path d="M 57.6 41.472 
L 414.72 41.472 
" style="fill: none; stroke: #000000; stroke-width: 0.8; stroke-linejoin: miter; stroke-linecap: square"/>
   </g>
  </g>
 </g>
 <defs>
  <clipPath id="p9784ef3c40">
   <rect x="57.6" y="41.472" width="357.12" height="266.112"/>
  </clipPath>
 </defs>
</svg>
