<?xml version="1.0" encoding="utf-8" standalone="no"?>
<!DOCTYPE svg PUBLIC "-//W3C//DTD SVG 1.1//EN"
  "http://www.w3.org/Graphics/SVG/1.1/DTD/svg11.dtd">
<svg xmlns:xlink="http://www.w3.org/1999/xlink" width="460.8pt" height="345.6pt" viewBox="0 0 460.8 345.6" xmlns="http://www.w3.org/2000/svg" version="1.1">
 <metadata>
  <rdf:RDF xmlns:dc="http://purl.org/dc/elements/1.1/" xmlns:cc="http://creativecommons.org/ns#" xmlns:rdf="http://www.w3.org/1999/02/22-rdf-syntax-ns#">
   <cc:Work>
    <dc:type rdf:resource="http://purl.org/dc/dcmitype/StillImage"/>
    <dc:format>image/svg+xml</dc:format>
   </cc:Work>
  </rdf:RDF>
 </metadata>
 <defs>
  <style type="text/css">*{stroke-linejoin: round; stroke-linecap: butt}</style>
 </defs>
 <g id="figure_1">
  <g id="patch_1">
   <path d="M 0 345.6 
L 460.8 345.6 
L 460.8 0 
L 0 0 
z
" style="fill: #ffffff"/>
  </g>
  <g id="axes_1">
   <g id="patch_2">
    <path d="M 57.6 307.584 
L 414.72 307.584 
L 414.72 41.472 
L 57.6 41.472 
z
" style="fill: #ffffff"/>
   </g>
   <g id="matplotlib.axis_1">
    <g id="xtick_1">
     <g id="line2d_1">
      <defs>
       <path id="m6f2eb13d30" d="M 0 0 
L 0 3.5 
" style="stroke: #000000; stroke-width: 0.8"/>
      </defs>
      <g>
       <use xlink:href="#m6f2eb13d30" x="109.576012" y="307.584" style="stroke: #000000; stroke-width: 0.8"/>
      </g>
     </g>
     <g id="text_1">
      <!-- 110 -->
      <g transform="translate(100.032262 322.182437) scale(0.1 -0.1)">
       <defs>
        <path id="DejaVuSans-31" d="M 794 531 
L 1825 531 
L 1825 4091 
L 703 3866 
L 703 4441 
L 1819 4666 
L 2450 4666 
L 2450 531 
L 3481 531 
L 3481 0 
L 794 0 
L 794 531 
z
" transform="scale(0.015625)"/>
        <path id="DejaVuSans-30" d="M 2034 4250 
Q 1547 4250 1301 3770 
Q 1056 3291 1056 2328 
Q 1056 1369 1301 889 
Q 1547 409 2034 409 
Q 2525 409 2770 889 
Q 3016 1369 3016 2328 
Q 3016 3291 2770 3770 
Q 2525 4250 2034 4250 
z
M 2034 4750 
Q 2819 4750 3233 4129 
Q 3647 3509 3647 2328 
Q 3647 1150 3233 529 
Q 2819 -91 2034 -91 
Q 1250 -91 836 529 
Q 422 1150 422 2328 
Q 422 3509 836 4129 
Q 1250 4750 2034 4750 
z
" transform="scale(0.015625)"/>
       </defs>
       <use xlink:href="#DejaVuSans-31"/>
       <use xlink:href="#DejaVuSans-31" x="63.623047"/>
       <use xlink:href="#DejaVuSans-30" x="127.246094"/>
      </g>
     </g>
    </g>
    <g id="xtick_2">
     <g id="line2d_2">
      <g>
       <use xlink:href="#m6f2eb13d30" x="162.319341" y="307.584" style="stroke: #000000; stroke-width: 0.8"/>
      </g>
     </g>
     <g id="text_2">
      <!-- 115 -->
      <g transform="translate(152.775591 322.182437) scale(0.1 -0.1)">
       <defs>
        <path id="DejaVuSans-35" d="M 691 4666 
L 3169 4666 
L 3169 4134 
L 1269 4134 
L 1269 2991 
Q 1406 3038 1543 3061 
Q 1681 3084 1819 3084 
Q 2600 3084 3056 2656 
Q 3513 2228 3513 1497 
Q 3513 744 3044 326 
Q 2575 -91 1722 -91 
Q 1428 -91 1123 -41 
Q 819 9 494 109 
L 494 744 
Q 775 591 1075 516 
Q 1375 441 1709 441 
Q 2250 441 2565 725 
Q 2881 1009 2881 1497 
Q 2881 1984 2565 2268 
Q 2250 2553 1709 2553 
Q 1456 2553 1204 2497 
Q 953 2441 691 2322 
L 691 4666 
z
" transform="scale(0.015625)"/>
       </defs>
       <use xlink:href="#DejaVuSans-31"/>
       <use xlink:href="#DejaVuSans-31" x="63.623047"/>
       <use xlink:href="#DejaVuSans-35" x="127.246094"/>
      </g>
     </g>
    </g>
    <g id="xtick_3">
     <g id="line2d_3">
      <g>
       <use xlink:href="#m6f2eb13d30" x="215.062669" y="307.584" style="stroke: #000000; stroke-width: 0.8"/>
      </g>
     </g>
     <g id="text_3">
      <!-- 120 -->
      <g transform="translate(205.518919 322.182437) scale(0.1 -0.1)">
       <defs>
        <path id="DejaVuSans-32" d="M 1228 531 
L 3431 531 
L 3431 0 
L 469 0 
L 469 531 
Q 828 903 1448 1529 
Q 2069 2156 2228 2338 
Q 2531 2678 2651 2914 
Q 2772 3150 2772 3378 
Q 2772 3750 2511 3984 
Q 2250 4219 1831 4219 
Q 1534 4219 1204 4116 
Q 875 4013 500 3803 
L 500 4441 
Q 881 4594 1212 4672 
Q 1544 4750 1819 4750 
Q 2544 4750 2975 4387 
Q 3406 4025 3406 3419 
Q 3406 3131 3298 2873 
Q 3191 2616 2906 2266 
Q 2828 2175 2409 1742 
Q 1991 1309 1228 531 
z
" transform="scale(0.015625)"/>
       </defs>
       <use xlink:href="#DejaVuSans-31"/>
       <use xlink:href="#DejaVuSans-32" x="63.623047"/>
       <use xlink:href="#DejaVuSans-30" x="127.246094"/>
      </g>
     </g>
    </g>
    <g id="xtick_4">
     <g id="line2d_4">
      <g>
       <use xlink:href="#m6f2eb13d30" x="267.805997" y="307.584" style="stroke: #000000; stroke-width: 0.8"/>
      </g>
     </g>
     <g id="text_4">
      <!-- 125 -->
      <g transform="translate(258.262247 322.182437) scale(0.1 -0.1)">
       <use xlink:href="#DejaVuSans-31"/>
       <use xlink:href="#DejaVuSans-32" x="63.623047"/>
       <use xlink:href="#DejaVuSans-35" x="127.246094"/>
      </g>
     </g>
    </g>
    <g id="xtick_5">
     <g id="line2d_5">
      <g>
       <use xlink:href="#m6f2eb13d30" x="320.549325" y="307.584" style="stroke: #000000; stroke-width: 0.8"/>
      </g>
     </g>
     <g id="text_5">
      <!-- 130 -->
      <g transform="translate(311.005575 322.182437) scale(0.1 -0.1)">
       <defs>
        <path id="DejaVuSans-33" d="M 2597 2516 
Q 3050 2419 3304 2112 
Q 3559 1806 3559 1356 
Q 3559 666 3084 287 
Q 2609 -91 1734 -91 
Q 1441 -91 1130 -33 
Q 819 25 488 141 
L 488 750 
Q 750 597 1062 519 
Q 1375 441 1716 441 
Q 2309 441 2620 675 
Q 2931 909 2931 1356 
Q 2931 1769 2642 2001 
Q 2353 2234 1838 2234 
L 1294 2234 
L 1294 2753 
L 1863 2753 
Q 2328 2753 2575 2939 
Q 2822 3125 2822 3475 
Q 2822 3834 2567 4026 
Q 2313 4219 1838 4219 
Q 1578 4219 1281 4162 
Q 984 4106 628 3988 
L 628 4550 
Q 988 4650 1302 4700 
Q 1616 4750 1894 4750 
Q 2613 4750 3031 4423 
Q 3450 4097 3450 3541 
Q 3450 3153 3228 2886 
Q 3006 2619 2597 2516 
z
" transform="scale(0.015625)"/>
       </defs>
       <use xlink:href="#DejaVuSans-31"/>
       <use xlink:href="#DejaVuSans-33" x="63.623047"/>
       <use xlink:href="#DejaVuSans-30" x="127.246094"/>
      </g>
     </g>
    </g>
    <g id="xtick_6">
     <g id="line2d_6">
      <g>
       <use xlink:href="#m6f2eb13d30" x="373.292653" y="307.584" style="stroke: #000000; stroke-width: 0.8"/>
      </g>
     </g>
     <g id="text_6">
      <!-- 135 -->
      <g transform="translate(363.748903 322.182437) scale(0.1 -0.1)">
       <use xlink:href="#DejaVuSans-31"/>
       <use xlink:href="#DejaVuSans-33" x="63.623047"/>
       <use xlink:href="#DejaVuSans-35" x="127.246094"/>
      </g>
     </g>
    </g>
   </g>
   <g id="matplotlib.axis_2">
    <g id="ytick_1">
     <g id="line2d_7">
      <defs>
       <path id="m77c9160102" d="M 0 0 
L -3.5 0 
" style="stroke: #000000; stroke-width: 0.8"/>
      </defs>
      <g>
       <use xlink:href="#m77c9160102" x="57.6" y="276.468521" style="stroke: #000000; stroke-width: 0.8"/>
      </g>
     </g>
     <g id="text_7">
      <!-- 0.01 -->
      <g transform="translate(28.334375 280.26774) scale(0.1 -0.1)">
       <defs>
        <path id="DejaVuSans-2e" d="M 684 794 
L 1344 794 
L 1344 0 
L 684 0 
L 684 794 
z
" transform="scale(0.015625)"/>
       </defs>
       <use xlink:href="#DejaVuSans-30"/>
       <use xlink:href="#DejaVuSans-2e" x="63.623047"/>
       <use xlink:href="#DejaVuSans-30" x="95.410156"/>
       <use xlink:href="#DejaVuSans-31" x="159.033203"/>
      </g>
     </g>
    </g>
    <g id="ytick_2">
     <g id="line2d_8">
      <g>
       <use xlink:href="#m77c9160102" x="57.6" y="234.93063" style="stroke: #000000; stroke-width: 0.8"/>
      </g>
     </g>
     <g id="text_8">
      <!-- 0.02 -->
      <g transform="translate(28.334375 238.729848) scale(0.1 -0.1)">
       <use xlink:href="#DejaVuSans-30"/>
       <use xlink:href="#DejaVuSans-2e" x="63.623047"/>
       <use xlink:href="#DejaVuSans-30" x="95.410156"/>
       <use xlink:href="#DejaVuSans-32" x="159.033203"/>
      </g>
     </g>
    </g>
    <g id="ytick_3">
     <g id="line2d_9">
      <g>
       <use xlink:href="#m77c9160102" x="57.6" y="193.392738" style="stroke: #000000; stroke-width: 0.8"/>
      </g>
     </g>
     <g id="text_9">
      <!-- 0.03 -->
      <g transform="translate(28.334375 197.191957) scale(0.1 -0.1)">
       <use xlink:href="#DejaVuSans-30"/>
       <use xlink:href="#DejaVuSans-2e" x="63.623047"/>
       <use xlink:href="#DejaVuSans-30" x="95.410156"/>
       <use xlink:href="#DejaVuSans-33" x="159.033203"/>
      </g>
     </g>
    </g>
    <g id="ytick_4">
     <g id="line2d_10">
      <g>
       <use xlink:href="#m77c9160102" x="57.6" y="151.854847" style="stroke: #000000; stroke-width: 0.8"/>
      </g>
     </g>
     <g id="text_10">
      <!-- 0.04 -->
      <g transform="translate(28.334375 155.654066) scale(0.1 -0.1)">
       <defs>
        <path id="DejaVuSans-34" d="M 2419 4116 
L 825 1625 
L 2419 1625 
L 2419 4116 
z
M 2253 4666 
L 3047 4666 
L 3047 1625 
L 3713 1625 
L 3713 1100 
L 3047 1100 
L 3047 0 
L 2419 0 
L 2419 1100 
L 313 1100 
L 313 1709 
L 2253 4666 
z
" transform="scale(0.015625)"/>
       </defs>
       <use xlink:href="#DejaVuSans-30"/>
       <use xlink:href="#DejaVuSans-2e" x="63.623047"/>
       <use xlink:href="#DejaVuSans-30" x="95.410156"/>
       <use xlink:href="#DejaVuSans-34" x="159.033203"/>
      </g>
     </g>
    </g>
    <g id="ytick_5">
     <g id="line2d_11">
      <g>
       <use xlink:href="#m77c9160102" x="57.6" y="110.316956" style="stroke: #000000; stroke-width: 0.8"/>
      </g>
     </g>
     <g id="text_11">
      <!-- 0.05 -->
      <g transform="translate(28.334375 114.116175) scale(0.1 -0.1)">
       <use xlink:href="#DejaVuSans-30"/>
       <use xlink:href="#DejaVuSans-2e" x="63.623047"/>
       <use xlink:href="#DejaVuSans-30" x="95.410156"/>
       <use xlink:href="#DejaVuSans-35" x="159.033203"/>
      </g>
     </g>
    </g>
    <g id="ytick_6">
     <g id="line2d_12">
      <g>
       <use xlink:href="#m77c9160102" x="57.6" y="68.779065" style="stroke: #000000; stroke-width: 0.8"/>
      </g>
     </g>
     <g id="text_12">
      <!-- 0.06 -->
      <g transform="translate(28.334375 72.578283) scale(0.1 -0.1)">
       <defs>
        <path id="DejaVuSans-36" d="M 2113 2584 
Q 1688 2584 1439 2293 
Q 1191 2003 1191 1497 
Q 1191 994 1439 701 
Q 1688 409 2113 409 
Q 2538 409 2786 701 
Q 3034 994 3034 1497 
Q 3034 2003 2786 2293 
Q 2538 2584 2113 2584 
z
M 3366 4563 
L 3366 3988 
Q 3128 4100 2886 4159 
Q 2644 4219 2406 4219 
Q 1781 4219 1451 3797 
Q 1122 3375 1075 2522 
Q 1259 2794 1537 2939 
Q 1816 3084 2150 3084 
Q 2853 3084 3261 2657 
Q 3669 2231 3669 1497 
Q 3669 778 3244 343 
Q 2819 -91 2113 -91 
Q 1303 -91 875 529 
Q 447 1150 447 2328 
Q 447 3434 972 4092 
Q 1497 4750 2381 4750 
Q 2619 4750 2861 4703 
Q 3103 4656 3366 4563 
z
" transform="scale(0.015625)"/>
       </defs>
       <use xlink:href="#DejaVuSans-30"/>
       <use xlink:href="#DejaVuSans-2e" x="63.623047"/>
       <use xlink:href="#DejaVuSans-30" x="95.410156"/>
       <use xlink:href="#DejaVuSans-36" x="159.033203"/>
      </g>
     </g>
    </g>
   </g>
   <g id="line2d_13">
    <path d="M 73.832727 292.754789 
L 80.657297 290.723405 
L 87.156888 288.562103 
L 93.331499 286.273368 
L 99.18113 283.862622 
L 104.705782 281.338694 
L 109.905455 278.714262 
L 114.780147 276.006219 
L 119.329861 273.235914 
L 123.879574 270.203296 
L 128.104308 267.125525 
L 132.329042 263.767294 
L 136.228796 260.391725 
L 140.12855 256.723791 
L 144.028305 252.733716 
L 147.603079 248.765317 
L 151.177854 244.471497 
L 154.752629 239.822878 
L 158.327404 234.788162 
L 161.902179 229.334402 
L 165.151974 223.984112 
L 168.401769 218.233363 
L 171.651564 212.056611 
L 174.90136 205.429686 
L 178.151155 198.331104 
L 181.72593 189.957723 
L 185.300704 180.979927 
L 188.875479 171.398884 
L 192.775233 160.28448 
L 196.999967 147.538787 
L 202.19964 131.068791 
L 214.223882 92.563989 
L 217.473677 83.058611 
L 220.073514 76.073183 
L 222.34837 70.537719 
L 224.298247 66.298877 
L 226.248124 62.588431 
L 227.873022 59.938739 
L 229.49792 57.720725 
L 230.797838 56.27321 
L 232.097756 55.127367 
L 233.397674 54.291336 
L 234.697592 53.771122 
L 235.672531 53.59057 
L 236.647469 53.59057 
L 237.622408 53.771122 
L 238.597346 54.131488 
L 239.897265 54.889042 
L 241.197183 55.958114 
L 242.497101 57.331086 
L 243.797019 58.998311 
L 245.421916 61.478437 
L 247.046814 64.374136 
L 248.996691 68.355791 
L 250.946568 72.837266 
L 253.221425 78.617512 
L 255.821261 85.830931 
L 259.071057 95.544861 
L 263.62077 109.963367 
L 275.969992 149.542509 
L 280.194726 162.182759 
L 284.09448 173.185119 
L 287.669255 182.657388 
L 291.244029 191.524887 
L 294.818804 199.789452 
L 298.393579 207.466378 
L 301.968354 214.580024 
L 305.543129 221.160411 
L 309.117903 227.24068 
L 312.692678 232.855236 
L 316.267453 238.038446 
L 319.842228 242.823748 
L 323.417002 247.243081 
L 326.991777 251.326544 
L 330.891532 255.431112 
L 334.791286 259.202977 
L 338.69104 262.672866 
L 342.915774 266.123466 
L 347.140508 269.284434 
L 351.690221 272.397497 
L 356.239934 275.239816 
L 361.114627 278.016761 
L 365.98932 280.545945 
L 371.188993 283.000879 
L 376.713645 285.365676 
L 382.563276 287.62827 
L 388.737887 289.780106 
L 395.237477 291.815748 
L 398.487273 292.754789 
L 398.487273 292.754789 
" clip-path="url(#p64942601fc)" style="fill: none; stroke: #1f77b4; stroke-width: 1.5; stroke-linecap: square"/>
   </g>
   <g id="line2d_14">
    <path d="M 73.832727 295.488 
L 81.632236 293.511599 
L 88.781785 291.471162 
L 95.606355 289.286297 
L 101.780966 287.079248 
L 107.630598 284.756934 
L 113.15525 282.328024 
L 118.354922 279.804832 
L 123.229615 277.20365 
L 128.104308 274.345852 
L 132.654021 271.41899 
L 136.878755 268.450555 
L 141.103489 265.213685 
L 145.003243 261.962023 
L 148.902998 258.430626 
L 152.802752 254.590984 
L 156.377527 250.77382 
L 159.952301 246.645058 
L 163.527076 242.176328 
L 167.101851 237.337262 
L 170.676626 232.095686 
L 173.926421 226.953067 
L 177.176216 221.42416 
L 180.426011 215.483093 
L 183.675807 209.104808 
L 186.925602 202.266168 
L 190.175397 194.947456 
L 193.750172 186.325484 
L 197.324947 177.097537 
L 200.899722 167.272314 
L 204.799476 155.910419 
L 209.349189 141.916733 
L 215.198821 123.123459 
L 223.323309 97.012357 
L 226.898084 86.262027 
L 229.822899 78.15207 
L 232.097756 72.414598 
L 234.372613 67.283478 
L 236.32249 63.439377 
L 237.947387 60.668718 
L 239.572285 58.322066 
L 240.872203 56.766902 
L 242.172121 55.509937 
L 243.472039 54.560053 
L 244.771957 53.924051 
L 245.746896 53.655883 
L 246.721835 53.568 
L 247.696773 53.660762 
L 248.671712 53.933788 
L 249.97163 54.576203 
L 251.271548 55.532383 
L 252.571466 56.795485 
L 253.871384 58.356585 
L 255.496282 60.71032 
L 257.121179 63.487625 
L 259.071057 67.339053 
L 261.020934 71.704335 
L 263.29579 77.367743 
L 265.895627 84.472834 
L 269.145422 94.088416 
L 273.370156 107.386646 
L 287.669255 153.053136 
L 291.893989 165.499033 
L 295.793743 176.299323 
L 299.368518 185.577771 
L 302.943292 194.250257 
L 306.518067 202.323498 
L 310.092842 209.816133 
L 313.667617 216.75467 
L 317.242391 223.170377 
L 320.817166 229.096974 
L 324.391941 234.568975 
L 327.966716 239.620525 
L 331.541491 244.284633 
L 335.116265 248.592671 
L 338.69104 252.574102 
L 342.590794 256.577142 
L 346.490549 260.256844 
L 350.390303 263.643093 
L 354.615037 267.011784 
L 358.839771 270.098977 
L 363.389484 273.140705 
L 367.939197 275.919168 
L 372.81389 278.635018 
L 378.013563 281.266842 
L 383.538215 283.797705 
L 389.062867 286.087124 
L 394.912498 288.279452 
L 398.487273 289.514154 
L 398.487273 289.514154 
" clip-path="url(#p64942601fc)" style="fill: none; stroke: #ff7f0e; stroke-width: 1.5; stroke-linecap: square"/>
   </g>
   <g id="patch_3">
    <path d="M 57.6 307.584 
L 57.6 41.472 
" style="fill: none; stroke: #000000; stroke-width: 0.8; stroke-linejoin: miter; stroke-linecap: square"/>
   </g>
   <g id="patch_4">
    <path d="M 414.72 307.584 
L 414.72 41.472 
" style="fill: none; stroke: #000000; stroke-width: 0.8; stroke-linejoin: miter; stroke-linecap: square"/>
   </g>
   <g id="patch_5">
    <path d="M 57.6 307.584 
L 414.72 307.584 
" style="fill: none; stroke: #000000; stroke-width: 0.8; stroke-linejoin: miter; stroke-linecap: square"/>
   </g>
   <g id="patch_6">
    <path d="M 57.6 41.472 
L 414.72 41.472 
" style="fill: none; stroke: #000000; stroke-width: 0.8; stroke-linejoin: miter; stroke-linecap: square"/>
   </g>
  </g>
 </g>
 <defs>
  <clipPath id="p64942601fc">
   <rect x="57.6" y="41.472" width="357.12" height="266.112"/>
  </clipPath>
 </defs>
</svg>
