<?xml version="1.0" encoding="utf-8" standalone="no"?>
<!DOCTYPE svg PUBLIC "-//W3C//DTD SVG 1.1//EN"
  "http://www.w3.org/Graphics/SVG/1.1/DTD/svg11.dtd">
<svg xmlns:xlink="http://www.w3.org/1999/xlink" width="460.8pt" height="345.6pt" viewBox="0 0 460.8 345.6" xmlns="http://www.w3.org/2000/svg" version="1.1">
 <metadata>
  <rdf:RDF xmlns:dc="http://purl.org/dc/elements/1.1/" xmlns:cc="http://creativecommons.org/ns#" xmlns:rdf="http://www.w3.org/1999/02/22-rdf-syntax-ns#">
   <cc:Work>
    <dc:type rdf:resource="http://purl.org/dc/dcmitype/StillImage"/>
    <dc:format>image/svg+xml</dc:format>
   </cc:Work>
  </rdf:RDF>
 </metadata>
 <defs>
  <style type="text/css">*{stroke-linejoin: round; stroke-linecap: butt}</style>
 </defs>
 <g id="figure_1">
  <g id="patch_1">
   <path d="M 0 345.6 
L 460.8 345.6 
L 460.8 0 
L 0 0 
z
" style="fill: #ffffff"/>
  </g>
  <g id="axes_1">
   <g id="patch_2">
    <path d="M 57.6 307.584 
L 414.72 307.584 
L 414.72 41.472 
L 57.6 41.472 
z
" style="fill: #ffffff"/>
   </g>
   <g id="line2d_1">
    <path d="M 73.832727 290.40768 
L 153.809619 290.40768 
" clip-path="url(#pfa92afbd3d)" style="fill: none; stroke: #2ca02c; stroke-opacity: 0.7; stroke-width: 7.5"/>
   </g>
   <g id="PolyCollection_1">
    <defs>
     <path id="m81dbe2167d" d="M 213.791935 -50.112 
L 213.791935 -50.135568 
L 214.153374 -50.135596 
L 214.514813 -50.136147 
L 214.876252 -50.137273 
L 215.237691 -50.138972 
L 215.59913 -50.141671 
L 215.960569 -50.145276 
L 216.322008 -50.149992 
L 216.683447 -50.155695 
L 217.044886 -50.162083 
L 217.406325 -50.168961 
L 217.767764 -50.175789 
L 218.129203 -50.182257 
L 218.490642 -50.18758 
L 218.852081 -50.191423 
L 219.21352 -50.193564 
L 219.574959 -50.193801 
L 219.936398 -50.192572 
L 220.297837 -50.190103 
L 220.659276 -50.187325 
L 221.020715 -50.185104 
L 221.382154 -50.184012 
L 221.743593 -50.185487 
L 222.105032 -50.189913 
L 222.466471 -50.197819 
L 222.82791 -50.209599 
L 223.189349 -50.22538 
L 223.550788 -50.244515 
L 223.912227 -50.265853 
L 224.273666 -50.288158 
L 224.635105 -50.309833 
L 224.996544 -50.329164 
L 225.357983 -50.3453 
L 225.719422 -50.357584 
L 226.080861 -50.366429 
L 226.4423 -50.372476 
L 226.803739 -50.376604 
L 227.165178 -50.380612 
L 227.526617 -50.386441 
L 227.888056 -50.39552 
L 228.249495 -50.409495 
L 228.610934 -50.428986 
L 228.972373 -50.454797 
L 229.333812 -50.486582 
L 229.695251 -50.522845 
L 230.05669 -50.563153 
L 230.418129 -50.604899 
L 230.779568 -50.647513 
L 231.141008 -50.690519 
L 231.502447 -50.733374 
L 231.863886 -50.776785 
L 232.225325 -50.821169 
L 232.586764 -50.866661 
L 232.948203 -50.9141 
L 233.309642 -50.962525 
L 233.671081 -51.011643 
L 234.03252 -51.061484 
L 234.393959 -51.112914 
L 234.755398 -51.166811 
L 235.116837 -51.22448 
L 235.478276 -51.287016 
L 235.839715 -51.355265 
L 236.201154 -51.429154 
L 236.562593 -51.506615 
L 236.924032 -51.586282 
L 237.285471 -51.667158 
L 237.64691 -51.749141 
L 238.008349 -51.834442 
L 238.369788 -51.925233 
L 238.731227 -52.026015 
L 239.092666 -52.139515 
L 239.454105 -52.266569 
L 239.815544 -52.408058 
L 240.176983 -52.560853 
L 240.538422 -52.721483 
L 240.899861 -52.886397 
L 241.2613 -53.051391 
L 241.622739 -53.214108 
L 241.984178 -53.373314 
L 242.345617 -53.529178 
L 242.707056 -53.684646 
L 243.068495 -53.841802 
L 243.429934 -54.006811 
L 243.791373 -54.179943 
L 244.152812 -54.369055 
L 244.514251 -54.575688 
L 244.87569 -54.805462 
L 245.237129 -55.058709 
L 245.598568 -55.337982 
L 245.960007 -55.642025 
L 246.321446 -55.967117 
L 246.682885 -56.309205 
L 247.044324 -56.659453 
L 247.405763 -57.01231 
L 247.767202 -57.361674 
L 248.128641 -57.702446 
L 248.49008 -58.036395 
L 248.851519 -58.368276 
L 249.212958 -58.70455 
L 249.574397 -59.052023 
L 249.935836 -59.421225 
L 250.297275 -59.819235 
L 250.658714 -60.247824 
L 251.020153 -60.710252 
L 251.381592 -61.202229 
L 251.743032 -61.721941 
L 252.104471 -62.26393 
L 252.46591 -62.824248 
L 252.827349 -63.391821 
L 253.188788 -63.970647 
L 253.550227 -64.555946 
L 253.911666 -65.153499 
L 254.273105 -65.761512 
L 254.634544 -66.387241 
L 254.995983 -67.030878 
L 255.357422 -67.696692 
L 255.718861 -68.380714 
L 256.0803 -69.083291 
L 256.441739 -69.799684 
L 256.803178 -70.527906 
L 257.164617 -71.268803 
L 257.526056 -72.021948 
L 257.887495 -72.790334 
L 258.248934 -73.578495 
L 258.610373 -74.396677 
L 258.971812 -75.25095 
L 259.333251 -76.15289 
L 259.69469 -77.115891 
L 260.056129 -78.147571 
L 260.417568 -79.258335 
L 260.779007 -80.451698 
L 261.140446 -81.718952 
L 261.501885 -83.050735 
L 261.863324 -84.430277 
L 262.224763 -85.840058 
L 262.586202 -87.254402 
L 262.947641 -88.665135 
L 263.30908 -90.057717 
L 263.670519 -91.437991 
L 264.031958 -92.807259 
L 264.393397 -94.176227 
L 264.754836 -95.558884 
L 265.116275 -96.965803 
L 265.477714 -98.404239 
L 265.839153 -99.88073 
L 266.200592 -101.389048 
L 266.562031 -102.935381 
L 266.92347 -104.514172 
L 267.284909 -106.123986 
L 267.646348 -107.761764 
L 268.007787 -109.426492 
L 268.369226 -111.116606 
L 268.730665 -112.831723 
L 269.092104 -114.564774 
L 269.453543 -116.316768 
L 269.814982 -118.076734 
L 270.176421 -119.841001 
L 270.53786 -121.603935 
L 270.899299 -123.368019 
L 271.260738 -125.135869 
L 271.622177 -126.914741 
L 271.983617 -128.722504 
L 272.345056 -130.564085 
L 272.706495 -132.456082 
L 273.067934 -134.407931 
L 273.429373 -136.435767 
L 273.790812 -138.538455 
L 274.152251 -140.718597 
L 274.51369 -142.976067 
L 274.875129 -145.314285 
L 275.236568 -147.732908 
L 275.598007 -150.221901 
L 275.959446 -152.765602 
L 276.320885 -155.353083 
L 276.682324 -157.958614 
L 277.043763 -160.555233 
L 277.405202 -163.121322 
L 277.766641 -165.636896 
L 278.12808 -168.100281 
L 278.489519 -170.520502 
L 278.850958 -172.914694 
L 279.212397 -175.318056 
L 279.573836 -177.763716 
L 279.935275 -180.278838 
L 280.296714 -182.881254 
L 280.658153 -185.567959 
L 281.019592 -188.319657 
L 281.381031 -191.097262 
L 281.74247 -193.867459 
L 282.103909 -196.585312 
L 282.465348 -199.211385 
L 282.826787 -201.721592 
L 283.188226 -204.114942 
L 283.549665 -206.411833 
L 283.911104 -208.634595 
L 284.272543 -210.812501 
L 284.633982 -212.982034 
L 284.995421 -215.165231 
L 285.35686 -217.381042 
L 285.718299 -219.643134 
L 286.079738 -221.959243 
L 286.441177 -224.336443 
L 286.802616 -226.787065 
L 287.164055 -229.311029 
L 287.525494 -231.911419 
L 287.886933 -234.594718 
L 288.248372 -237.330502 
L 288.609811 -240.089568 
L 288.97125 -242.823321 
L 289.332689 -245.485371 
L 289.694128 -248.027303 
L 290.055567 -250.421452 
L 290.417006 -252.641987 
L 290.778445 -254.693069 
L 291.139884 -256.588077 
L 291.501323 -258.350959 
L 291.862762 -260.022297 
L 292.224202 -261.637471 
L 292.585641 -263.232014 
L 292.94708 -264.816548 
L 293.308519 -266.407261 
L 293.669958 -268.005404 
L 294.031397 -269.5953 
L 294.392836 -271.177292 
L 294.754275 -272.712558 
L 295.115714 -274.189035 
L 295.477153 -275.606537 
L 295.838592 -276.96998 
L 296.200031 -278.267151 
L 296.56147 -279.520352 
L 296.922909 -280.723826 
L 297.284348 -281.871588 
L 297.645787 -282.959721 
L 298.007226 -283.970671 
L 298.368665 -284.882764 
L 298.730104 -285.685682 
L 299.091543 -286.369505 
L 299.452982 -286.968917 
L 299.814421 -287.511693 
L 300.17586 -288.020981 
L 300.537299 -288.54449 
L 300.898738 -289.103784 
L 301.260177 -289.702348 
L 301.621616 -290.322154 
L 301.983055 -290.916308 
L 302.344494 -291.433215 
L 302.705933 -291.82285 
L 303.067372 -292.032 
L 303.428811 -292.030785 
L 303.79025 -291.802398 
L 304.151689 -291.368731 
L 304.513128 -290.749064 
L 304.874567 -289.959903 
L 305.236006 -289.055787 
L 305.597445 -288.069631 
L 305.958884 -287.008932 
L 306.320323 -285.902651 
L 306.681762 -284.766828 
L 307.043201 -283.600591 
L 307.40464 -282.41439 
L 307.766079 -281.223553 
L 308.127518 -280.03765 
L 308.488957 -278.886279 
L 308.850396 -277.760167 
L 309.211835 -276.677682 
L 309.573274 -275.636936 
L 309.934713 -274.618813 
L 310.296152 -273.6056 
L 310.657591 -272.549739 
L 311.01903 -271.421537 
L 311.380469 -270.194773 
L 311.741908 -268.844437 
L 312.103347 -267.355183 
L 312.464786 -265.715845 
L 312.826226 -263.937841 
L 313.187665 -262.029531 
L 313.549104 -260.004228 
L 313.910543 -257.879764 
L 314.271982 -255.682926 
L 314.633421 -253.410888 
L 314.99486 -251.097421 
L 315.356299 -248.755839 
L 315.717738 -246.390959 
L 316.079177 -244.032097 
L 316.440616 -241.704084 
L 316.802055 -239.421205 
L 317.163494 -237.20155 
L 317.524933 -235.049954 
L 317.886372 -232.953036 
L 318.247811 -230.89709 
L 318.60925 -228.841315 
L 318.970689 -226.740586 
L 319.332128 -224.550416 
L 319.693567 -222.241733 
L 320.055006 -219.807793 
L 320.416445 -217.237974 
L 320.777884 -214.547089 
L 321.139323 -211.763589 
L 321.500762 -208.914849 
L 321.862201 -206.037818 
L 322.22364 -203.1648 
L 322.585079 -200.328242 
L 322.946518 -197.552765 
L 323.307957 -194.85057 
L 323.669396 -192.22537 
L 324.030835 -189.674786 
L 324.392274 -187.182002 
L 324.753713 -184.719855 
L 325.115152 -182.264475 
L 325.476591 -179.795678 
L 325.83803 -177.318887 
L 326.199469 -174.830539 
L 326.560908 -172.34258 
L 326.922347 -169.866266 
L 327.283786 -167.406696 
L 327.645225 -164.965331 
L 328.006664 -162.531368 
L 328.368103 -160.087505 
L 328.729542 -157.624072 
L 329.090981 -155.143742 
L 329.45242 -152.656446 
L 329.813859 -150.184283 
L 330.175298 -147.757063 
L 330.536737 -145.400481 
L 330.898176 -143.138898 
L 331.259615 -140.978975 
L 331.621054 -138.909245 
L 331.982493 -136.914276 
L 332.343932 -134.975767 
L 332.705371 -133.06882 
L 333.066811 -131.164379 
L 333.42825 -129.241613 
L 333.789689 -127.285379 
L 334.151128 -125.296143 
L 334.512567 -123.272325 
L 334.874006 -121.221711 
L 335.235445 -119.150722 
L 335.596884 -117.089991 
L 335.958323 -115.061775 
L 336.319762 -113.079707 
L 336.681201 -111.167578 
L 337.04264 -109.324974 
L 337.404079 -107.563263 
L 337.765518 -105.878141 
L 338.126957 -104.25534 
L 338.488396 -102.679805 
L 338.849835 -101.144328 
L 339.211274 -99.641749 
L 339.572713 -98.161064 
L 339.934152 -96.703353 
L 340.295591 -95.271815 
L 340.65703 -93.877904 
L 341.018469 -92.524059 
L 341.379908 -91.214077 
L 341.741347 -89.9504 
L 342.102786 -88.724469 
L 342.464225 -87.532918 
L 342.825664 -86.361593 
L 343.187103 -85.19849 
L 343.548542 -84.033806 
L 343.909981 -82.861243 
L 344.27142 -81.683748 
L 344.632859 -80.506609 
L 344.994298 -79.334185 
L 345.355737 -78.17595 
L 345.717176 -77.050507 
L 346.078615 -75.96547 
L 346.440054 -74.935174 
L 346.801493 -73.960705 
L 347.162932 -73.048998 
L 347.524371 -72.201707 
L 347.88581 -71.413587 
L 348.247249 -70.67489 
L 348.608688 -69.979365 
L 348.970127 -69.318908 
L 349.331566 -68.688657 
L 349.693005 -68.080297 
L 350.054444 -67.486196 
L 350.415883 -66.906231 
L 350.777322 -66.336487 
L 351.138761 -65.771746 
L 351.5002 -65.214403 
L 351.861639 -64.658629 
L 352.223078 -64.10693 
L 352.584517 -63.560722 
L 352.945956 -63.022009 
L 353.307396 -62.491901 
L 353.668835 -61.970323 
L 354.030274 -61.463948 
L 354.391713 -60.971037 
L 354.753152 -60.496804 
L 355.114591 -60.03841 
L 355.47603 -59.600285 
L 355.837469 -59.179848 
L 356.198908 -58.775455 
L 356.560347 -58.383336 
L 356.921786 -57.998023 
L 357.283225 -57.619262 
L 357.644664 -57.243695 
L 358.006103 -56.874132 
L 358.367542 -56.513918 
L 358.728981 -56.167161 
L 359.09042 -55.841075 
L 359.451859 -55.538636 
L 359.813298 -55.259581 
L 360.174737 -55.003795 
L 360.536176 -54.767452 
L 360.897615 -54.546083 
L 361.259054 -54.335472 
L 361.620493 -54.131589 
L 361.981932 -53.933593 
L 362.343371 -53.739962 
L 362.70481 -53.552078 
L 363.066249 -53.37269 
L 363.427688 -53.20087 
L 363.789127 -53.040064 
L 364.150566 -52.889101 
L 364.512005 -52.748947 
L 364.873444 -52.618231 
L 365.234883 -52.498462 
L 365.596322 -52.388834 
L 365.957761 -52.289118 
L 366.3192 -52.199599 
L 366.680639 -52.118153 
L 367.042078 -52.043385 
L 367.403517 -51.971553 
L 367.764956 -51.899796 
L 368.126395 -51.824763 
L 368.487834 -51.743193 
L 368.849273 -51.655085 
L 369.210712 -51.562835 
L 369.572151 -51.467319 
L 369.93359 -51.372632 
L 370.295029 -51.28169 
L 370.656468 -51.198524 
L 371.017907 -51.12434 
L 371.379346 -51.060182 
L 371.740785 -51.005768 
L 372.102224 -50.959557 
L 372.463663 -50.918884 
L 372.825102 -50.88172 
L 373.186541 -50.844785 
L 373.547981 -50.806915 
L 373.90942 -50.766574 
L 374.270859 -50.72457 
L 374.632298 -50.681219 
L 374.993737 -50.638361 
L 375.355176 -50.598614 
L 375.716615 -50.563481 
L 376.078054 -50.533773 
L 376.439493 -50.509871 
L 376.800932 -50.490641 
L 377.162371 -50.473877 
L 377.52381 -50.458264 
L 377.885249 -50.442015 
L 378.246688 -50.424066 
L 378.608127 -50.403968 
L 378.969566 -50.382145 
L 379.331005 -50.359081 
L 379.692444 -50.335754 
L 380.053883 -50.312568 
L 380.415322 -50.290514 
L 380.776761 -50.270087 
L 381.1382 -50.251782 
L 381.499639 -50.23555 
L 381.861078 -50.221473 
L 382.222517 -50.20938 
L 382.583956 -50.199138 
L 382.945395 -50.189808 
L 383.306834 -50.181628 
L 383.668273 -50.173654 
L 384.029712 -50.166702 
L 384.391151 -50.160825 
L 384.75259 -50.156271 
L 385.114029 -50.15324 
L 385.475468 -50.152315 
L 385.836907 -50.153421 
L 386.198346 -50.156313 
L 386.559785 -50.160727 
L 386.921224 -50.165974 
L 387.282663 -50.171383 
L 387.644102 -50.176248 
L 388.005541 -50.179706 
L 388.36698 -50.181568 
L 388.728419 -50.181288 
L 389.089858 -50.178964 
L 389.451297 -50.174746 
L 389.812736 -50.168998 
L 390.174175 -50.162321 
L 390.535614 -50.155148 
L 390.897053 -50.147941 
L 391.258492 -50.141071 
L 391.619931 -50.134768 
L 391.98137 -50.129267 
L 392.342809 -50.124688 
L 392.704248 -50.120894 
L 393.065687 -50.118062 
L 393.427126 -50.115871 
L 393.788565 -50.114384 
L 394.150005 -50.113433 
L 394.511444 -50.113039 
L 394.872883 -50.112933 
L 395.234322 -50.11311 
L 395.595761 -50.113697 
L 395.9572 -50.114621 
L 396.318639 -50.11603 
L 396.680078 -50.11785 
L 397.041517 -50.12002 
L 397.402956 -50.122381 
L 397.764395 -50.124688 
L 398.125834 -50.126644 
L 398.487273 -50.12796 
L 398.487273 -50.112 
L 398.487273 -50.112 
L 398.125834 -50.112 
L 397.764395 -50.112 
L 397.402956 -50.112 
L 397.041517 -50.112 
L 396.680078 -50.112 
L 396.318639 -50.112 
L 395.9572 -50.112 
L 395.595761 -50.112 
L 395.234322 -50.112 
L 394.872883 -50.112 
L 394.511444 -50.112 
L 394.150005 -50.112 
L 393.788565 -50.112 
L 393.427126 -50.112 
L 393.065687 -50.112 
L 392.704248 -50.112 
L 392.342809 -50.112 
L 391.98137 -50.112 
L 391.619931 -50.112 
L 391.258492 -50.112 
L 390.897053 -50.112 
L 390.535614 -50.112 
L 390.174175 -50.112 
L 389.812736 -50.112 
L 389.451297 -50.112 
L 389.089858 -50.112 
L 388.728419 -50.112 
L 388.36698 -50.112 
L 388.005541 -50.112 
L 387.644102 -50.112 
L 387.282663 -50.112 
L 386.921224 -50.112 
L 386.559785 -50.112 
L 386.198346 -50.112 
L 385.836907 -50.112 
L 385.475468 -50.112 
L 385.114029 -50.112 
L 384.75259 -50.112 
L 384.391151 -50.112 
L 384.029712 -50.112 
L 383.668273 -50.112 
L 383.306834 -50.112 
L 382.945395 -50.112 
L 382.583956 -50.112 
L 382.222517 -50.112 
L 381.861078 -50.112 
L 381.499639 -50.112 
L 381.1382 -50.112 
L 380.776761 -50.112 
L 380.415322 -50.112 
L 380.053883 -50.112 
L 379.692444 -50.112 
L 379.331005 -50.112 
L 378.969566 -50.112 
L 378.608127 -50.112 
L 378.246688 -50.112 
L 377.885249 -50.112 
L 377.52381 -50.112 
L 377.162371 -50.112 
L 376.800932 -50.112 
L 376.439493 -50.112 
L 376.078054 -50.112 
L 375.716615 -50.112 
L 375.355176 -50.112 
L 374.993737 -50.112 
L 374.632298 -50.112 
L 374.270859 -50.112 
L 373.90942 -50.112 
L 373.547981 -50.112 
L 373.186541 -50.112 
L 372.825102 -50.112 
L 372.463663 -50.112 
L 372.102224 -50.112 
L 371.740785 -50.112 
L 371.379346 -50.112 
L 371.017907 -50.112 
L 370.656468 -50.112 
L 370.295029 -50.112 
L 369.93359 -50.112 
L 369.572151 -50.112 
L 369.210712 -50.112 
L 368.849273 -50.112 
L 368.487834 -50.112 
L 368.126395 -50.112 
L 367.764956 -50.112 
L 367.403517 -50.112 
L 367.042078 -50.112 
L 366.680639 -50.112 
L 366.3192 -50.112 
L 365.957761 -50.112 
L 365.596322 -50.112 
L 365.234883 -50.112 
L 364.873444 -50.112 
L 364.512005 -50.112 
L 364.150566 -50.112 
L 363.789127 -50.112 
L 363.427688 -50.112 
L 363.066249 -50.112 
L 362.70481 -50.112 
L 362.343371 -50.112 
L 361.981932 -50.112 
L 361.620493 -50.112 
L 361.259054 -50.112 
L 360.897615 -50.112 
L 360.536176 -50.112 
L 360.174737 -50.112 
L 359.813298 -50.112 
L 359.451859 -50.112 
L 359.09042 -50.112 
L 358.728981 -50.112 
L 358.367542 -50.112 
L 358.006103 -50.112 
L 357.644664 -50.112 
L 357.283225 -50.112 
L 356.921786 -50.112 
L 356.560347 -50.112 
L 356.198908 -50.112 
L 355.837469 -50.112 
L 355.47603 -50.112 
L 355.114591 -50.112 
L 354.753152 -50.112 
L 354.391713 -50.112 
L 354.030274 -50.112 
L 353.668835 -50.112 
L 353.307396 -50.112 
L 352.945956 -50.112 
L 352.584517 -50.112 
L 352.223078 -50.112 
L 351.861639 -50.112 
L 351.5002 -50.112 
L 351.138761 -50.112 
L 350.777322 -50.112 
L 350.415883 -50.112 
L 350.054444 -50.112 
L 349.693005 -50.112 
L 349.331566 -50.112 
L 348.970127 -50.112 
L 348.608688 -50.112 
L 348.247249 -50.112 
L 347.88581 -50.112 
L 347.524371 -50.112 
L 347.162932 -50.112 
L 346.801493 -50.112 
L 346.440054 -50.112 
L 346.078615 -50.112 
L 345.717176 -50.112 
L 345.355737 -50.112 
L 344.994298 -50.112 
L 344.632859 -50.112 
L 344.27142 -50.112 
L 343.909981 -50.112 
L 343.548542 -50.112 
L 343.187103 -50.112 
L 342.825664 -50.112 
L 342.464225 -50.112 
L 342.102786 -50.112 
L 341.741347 -50.112 
L 341.379908 -50.112 
L 341.018469 -50.112 
L 340.65703 -50.112 
L 340.295591 -50.112 
L 339.934152 -50.112 
L 339.572713 -50.112 
L 339.211274 -50.112 
L 338.849835 -50.112 
L 338.488396 -50.112 
L 338.126957 -50.112 
L 337.765518 -50.112 
L 337.404079 -50.112 
L 337.04264 -50.112 
L 336.681201 -50.112 
L 336.319762 -50.112 
L 335.958323 -50.112 
L 335.596884 -50.112 
L 335.235445 -50.112 
L 334.874006 -50.112 
L 334.512567 -50.112 
L 334.151128 -50.112 
L 333.789689 -50.112 
L 333.42825 -50.112 
L 333.066811 -50.112 
L 332.705371 -50.112 
L 332.343932 -50.112 
L 331.982493 -50.112 
L 331.621054 -50.112 
L 331.259615 -50.112 
L 330.898176 -50.112 
L 330.536737 -50.112 
L 330.175298 -50.112 
L 329.813859 -50.112 
L 329.45242 -50.112 
L 329.090981 -50.112 
L 328.729542 -50.112 
L 328.368103 -50.112 
L 328.006664 -50.112 
L 327.645225 -50.112 
L 327.283786 -50.112 
L 326.922347 -50.112 
L 326.560908 -50.112 
L 326.199469 -50.112 
L 325.83803 -50.112 
L 325.476591 -50.112 
L 325.115152 -50.112 
L 324.753713 -50.112 
L 324.392274 -50.112 
L 324.030835 -50.112 
L 323.669396 -50.112 
L 323.307957 -50.112 
L 322.946518 -50.112 
L 322.585079 -50.112 
L 322.22364 -50.112 
L 321.862201 -50.112 
L 321.500762 -50.112 
L 321.139323 -50.112 
L 320.777884 -50.112 
L 320.416445 -50.112 
L 320.055006 -50.112 
L 319.693567 -50.112 
L 319.332128 -50.112 
L 318.970689 -50.112 
L 318.60925 -50.112 
L 318.247811 -50.112 
L 317.886372 -50.112 
L 317.524933 -50.112 
L 317.163494 -50.112 
L 316.802055 -50.112 
L 316.440616 -50.112 
L 316.079177 -50.112 
L 315.717738 -50.112 
L 315.356299 -50.112 
L 314.99486 -50.112 
L 314.633421 -50.112 
L 314.271982 -50.112 
L 313.910543 -50.112 
L 313.549104 -50.112 
L 313.187665 -50.112 
L 312.826226 -50.112 
L 312.464786 -50.112 
L 312.103347 -50.112 
L 311.741908 -50.112 
L 311.380469 -50.112 
L 311.01903 -50.112 
L 310.657591 -50.112 
L 310.296152 -50.112 
L 309.934713 -50.112 
L 309.573274 -50.112 
L 309.211835 -50.112 
L 308.850396 -50.112 
L 308.488957 -50.112 
L 308.127518 -50.112 
L 307.766079 -50.112 
L 307.40464 -50.112 
L 307.043201 -50.112 
L 306.681762 -50.112 
L 306.320323 -50.112 
L 305.958884 -50.112 
L 305.597445 -50.112 
L 305.236006 -50.112 
L 304.874567 -50.112 
L 304.513128 -50.112 
L 304.151689 -50.112 
L 303.79025 -50.112 
L 303.428811 -50.112 
L 303.067372 -50.112 
L 302.705933 -50.112 
L 302.344494 -50.112 
L 301.983055 -50.112 
L 301.621616 -50.112 
L 301.260177 -50.112 
L 300.898738 -50.112 
L 300.537299 -50.112 
L 300.17586 -50.112 
L 299.814421 -50.112 
L 299.452982 -50.112 
L 299.091543 -50.112 
L 298.730104 -50.112 
L 298.368665 -50.112 
L 298.007226 -50.112 
L 297.645787 -50.112 
L 297.284348 -50.112 
L 296.922909 -50.112 
L 296.56147 -50.112 
L 296.200031 -50.112 
L 295.838592 -50.112 
L 295.477153 -50.112 
L 295.115714 -50.112 
L 294.754275 -50.112 
L 294.392836 -50.112 
L 294.031397 -50.112 
L 293.669958 -50.112 
L 293.308519 -50.112 
L 292.94708 -50.112 
L 292.585641 -50.112 
L 292.224202 -50.112 
L 291.862762 -50.112 
L 291.501323 -50.112 
L 291.139884 -50.112 
L 290.778445 -50.112 
L 290.417006 -50.112 
L 290.055567 -50.112 
L 289.694128 -50.112 
L 289.332689 -50.112 
L 288.97125 -50.112 
L 288.609811 -50.112 
L 288.248372 -50.112 
L 287.886933 -50.112 
L 287.525494 -50.112 
L 287.164055 -50.112 
L 286.802616 -50.112 
L 286.441177 -50.112 
L 286.079738 -50.112 
L 285.718299 -50.112 
L 285.35686 -50.112 
L 284.995421 -50.112 
L 284.633982 -50.112 
L 284.272543 -50.112 
L 283.911104 -50.112 
L 283.549665 -50.112 
L 283.188226 -50.112 
L 282.826787 -50.112 
L 282.465348 -50.112 
L 282.103909 -50.112 
L 281.74247 -50.112 
L 281.381031 -50.112 
L 281.019592 -50.112 
L 280.658153 -50.112 
L 280.296714 -50.112 
L 279.935275 -50.112 
L 279.573836 -50.112 
L 279.212397 -50.112 
L 278.850958 -50.112 
L 278.489519 -50.112 
L 278.12808 -50.112 
L 277.766641 -50.112 
L 277.405202 -50.112 
L 277.043763 -50.112 
L 276.682324 -50.112 
L 276.320885 -50.112 
L 275.959446 -50.112 
L 275.598007 -50.112 
L 275.236568 -50.112 
L 274.875129 -50.112 
L 274.51369 -50.112 
L 274.152251 -50.112 
L 273.790812 -50.112 
L 273.429373 -50.112 
L 273.067934 -50.112 
L 272.706495 -50.112 
L 272.345056 -50.112 
L 271.983617 -50.112 
L 271.622177 -50.112 
L 271.260738 -50.112 
L 270.899299 -50.112 
L 270.53786 -50.112 
L 270.176421 -50.112 
L 269.814982 -50.112 
L 269.453543 -50.112 
L 269.092104 -50.112 
L 268.730665 -50.112 
L 268.369226 -50.112 
L 268.007787 -50.112 
L 267.646348 -50.112 
L 267.284909 -50.112 
L 266.92347 -50.112 
L 266.562031 -50.112 
L 266.200592 -50.112 
L 265.839153 -50.112 
L 265.477714 -50.112 
L 265.116275 -50.112 
L 264.754836 -50.112 
L 264.393397 -50.112 
L 264.031958 -50.112 
L 263.670519 -50.112 
L 263.30908 -50.112 
L 262.947641 -50.112 
L 262.586202 -50.112 
L 262.224763 -50.112 
L 261.863324 -50.112 
L 261.501885 -50.112 
L 261.140446 -50.112 
L 260.779007 -50.112 
L 260.417568 -50.112 
L 260.056129 -50.112 
L 259.69469 -50.112 
L 259.333251 -50.112 
L 258.971812 -50.112 
L 258.610373 -50.112 
L 258.248934 -50.112 
L 257.887495 -50.112 
L 257.526056 -50.112 
L 257.164617 -50.112 
L 256.803178 -50.112 
L 256.441739 -50.112 
L 256.0803 -50.112 
L 255.718861 -50.112 
L 255.357422 -50.112 
L 254.995983 -50.112 
L 254.634544 -50.112 
L 254.273105 -50.112 
L 253.911666 -50.112 
L 253.550227 -50.112 
L 253.188788 -50.112 
L 252.827349 -50.112 
L 252.46591 -50.112 
L 252.104471 -50.112 
L 251.743032 -50.112 
L 251.381592 -50.112 
L 251.020153 -50.112 
L 250.658714 -50.112 
L 250.297275 -50.112 
L 249.935836 -50.112 
L 249.574397 -50.112 
L 249.212958 -50.112 
L 248.851519 -50.112 
L 248.49008 -50.112 
L 248.128641 -50.112 
L 247.767202 -50.112 
L 247.405763 -50.112 
L 247.044324 -50.112 
L 246.682885 -50.112 
L 246.321446 -50.112 
L 245.960007 -50.112 
L 245.598568 -50.112 
L 245.237129 -50.112 
L 244.87569 -50.112 
L 244.514251 -50.112 
L 244.152812 -50.112 
L 243.791373 -50.112 
L 243.429934 -50.112 
L 243.068495 -50.112 
L 242.707056 -50.112 
L 242.345617 -50.112 
L 241.984178 -50.112 
L 241.622739 -50.112 
L 241.2613 -50.112 
L 240.899861 -50.112 
L 240.538422 -50.112 
L 240.176983 -50.112 
L 239.815544 -50.112 
L 239.454105 -50.112 
L 239.092666 -50.112 
L 238.731227 -50.112 
L 238.369788 -50.112 
L 238.008349 -50.112 
L 237.64691 -50.112 
L 237.285471 -50.112 
L 236.924032 -50.112 
L 236.562593 -50.112 
L 236.201154 -50.112 
L 235.839715 -50.112 
L 235.478276 -50.112 
L 235.116837 -50.112 
L 234.755398 -50.112 
L 234.393959 -50.112 
L 234.03252 -50.112 
L 233.671081 -50.112 
L 233.309642 -50.112 
L 232.948203 -50.112 
L 232.586764 -50.112 
L 232.225325 -50.112 
L 231.863886 -50.112 
L 231.502447 -50.112 
L 231.141008 -50.112 
L 230.779568 -50.112 
L 230.418129 -50.112 
L 230.05669 -50.112 
L 229.695251 -50.112 
L 229.333812 -50.112 
L 228.972373 -50.112 
L 228.610934 -50.112 
L 228.249495 -50.112 
L 227.888056 -50.112 
L 227.526617 -50.112 
L 227.165178 -50.112 
L 226.803739 -50.112 
L 226.4423 -50.112 
L 226.080861 -50.112 
L 225.719422 -50.112 
L 225.357983 -50.112 
L 224.996544 -50.112 
L 224.635105 -50.112 
L 224.273666 -50.112 
L 223.912227 -50.112 
L 223.550788 -50.112 
L 223.189349 -50.112 
L 222.82791 -50.112 
L 222.466471 -50.112 
L 222.105032 -50.112 
L 221.743593 -50.112 
L 221.382154 -50.112 
L 221.020715 -50.112 
L 220.659276 -50.112 
L 220.297837 -50.112 
L 219.936398 -50.112 
L 219.574959 -50.112 
L 219.21352 -50.112 
L 218.852081 -50.112 
L 218.490642 -50.112 
L 218.129203 -50.112 
L 217.767764 -50.112 
L 217.406325 -50.112 
L 217.044886 -50.112 
L 216.683447 -50.112 
L 216.322008 -50.112 
L 215.960569 -50.112 
L 215.59913 -50.112 
L 215.237691 -50.112 
L 214.876252 -50.112 
L 214.514813 -50.112 
L 214.153374 -50.112 
L 213.791935 -50.112 
z
" style="stroke: #1f77b4; stroke-opacity: 0"/>
    </defs>
    <g clip-path="url(#pfa92afbd3d)">
     <use xlink:href="#m81dbe2167d" x="0" y="345.6" style="fill: #1f77b4; fill-opacity: 0; stroke: #1f77b4; stroke-opacity: 0"/>
    </g>
   </g>
   <g id="matplotlib.axis_1">
    <g id="xtick_1">
     <g id="line2d_2">
      <defs>
       <path id="m68040ff8bf" d="M 0 0 
L 0 3 
" style="stroke: #808080"/>
      </defs>
      <g>
       <use xlink:href="#m68040ff8bf" x="63.835616" y="307.584" style="fill: #808080; stroke: #808080"/>
      </g>
     </g>
     <g id="text_1">
      <!-- −0.25 -->
      <g transform="translate(42.383897 324.721812) scale(0.14 -0.14)">
       <defs>
        <path id="DejaVuSans-2212" d="M 678 2272 
L 4684 2272 
L 4684 1741 
L 678 1741 
L 678 2272 
z
" transform="scale(0.015625)"/>
        <path id="DejaVuSans-30" d="M 2034 4250 
Q 1547 4250 1301 3770 
Q 1056 3291 1056 2328 
Q 1056 1369 1301 889 
Q 1547 409 2034 409 
Q 2525 409 2770 889 
Q 3016 1369 3016 2328 
Q 3016 3291 2770 3770 
Q 2525 4250 2034 4250 
z
M 2034 4750 
Q 2819 4750 3233 4129 
Q 3647 3509 3647 2328 
Q 3647 1150 3233 529 
Q 2819 -91 2034 -91 
Q 1250 -91 836 529 
Q 422 1150 422 2328 
Q 422 3509 836 4129 
Q 1250 4750 2034 4750 
z
" transform="scale(0.015625)"/>
        <path id="DejaVuSans-2e" d="M 684 794 
L 1344 794 
L 1344 0 
L 684 0 
L 684 794 
z
" transform="scale(0.015625)"/>
        <path id="DejaVuSans-32" d="M 1228 531 
L 3431 531 
L 3431 0 
L 469 0 
L 469 531 
Q 828 903 1448 1529 
Q 2069 2156 2228 2338 
Q 2531 2678 2651 2914 
Q 2772 3150 2772 3378 
Q 2772 3750 2511 3984 
Q 2250 4219 1831 4219 
Q 1534 4219 1204 4116 
Q 875 4013 500 3803 
L 500 4441 
Q 881 4594 1212 4672 
Q 1544 4750 1819 4750 
Q 2544 4750 2975 4387 
Q 3406 4025 3406 3419 
Q 3406 3131 3298 2873 
Q 3191 2616 2906 2266 
Q 2828 2175 2409 1742 
Q 1991 1309 1228 531 
z
" transform="scale(0.015625)"/>
        <path id="DejaVuSans-35" d="M 691 4666 
L 3169 4666 
L 3169 4134 
L 1269 4134 
L 1269 2991 
Q 1406 3038 1543 3061 
Q 1681 3084 1819 3084 
Q 2600 3084 3056 2656 
Q 3513 2228 3513 1497 
Q 3513 744 3044 326 
Q 2575 -91 1722 -91 
Q 1428 -91 1123 -41 
Q 819 9 494 109 
L 494 744 
Q 775 591 1075 516 
Q 1375 441 1709 441 
Q 2250 441 2565 725 
Q 2881 1009 2881 1497 
Q 2881 1984 2565 2268 
Q 2250 2553 1709 2553 
Q 1456 2553 1204 2497 
Q 953 2441 691 2322 
L 691 4666 
z
" transform="scale(0.015625)"/>
       </defs>
       <use xlink:href="#DejaVuSans-2212"/>
       <use xlink:href="#DejaVuSans-30" x="83.789062"/>
       <use xlink:href="#DejaVuSans-2e" x="147.412109"/>
       <use xlink:href="#DejaVuSans-32" x="179.199219"/>
       <use xlink:href="#DejaVuSans-35" x="242.822266"/>
      </g>
     </g>
    </g>
    <g id="xtick_2">
     <g id="line2d_3">
      <g>
       <use xlink:href="#m68040ff8bf" x="113.821173" y="307.584" style="fill: #808080; stroke: #808080"/>
      </g>
     </g>
     <g id="text_2">
      <!-- 0.00 -->
      <g transform="translate(98.235236 324.721812) scale(0.14 -0.14)">
       <use xlink:href="#DejaVuSans-30"/>
       <use xlink:href="#DejaVuSans-2e" x="63.623047"/>
       <use xlink:href="#DejaVuSans-30" x="95.410156"/>
       <use xlink:href="#DejaVuSans-30" x="159.033203"/>
      </g>
     </g>
    </g>
    <g id="xtick_3">
     <g id="line2d_4">
      <g>
       <use xlink:href="#m68040ff8bf" x="163.80673" y="307.584" style="fill: #808080; stroke: #808080"/>
      </g>
     </g>
     <g id="text_3">
      <!-- 0.25 -->
      <g transform="translate(148.220793 324.721812) scale(0.14 -0.14)">
       <use xlink:href="#DejaVuSans-30"/>
       <use xlink:href="#DejaVuSans-2e" x="63.623047"/>
       <use xlink:href="#DejaVuSans-32" x="95.410156"/>
       <use xlink:href="#DejaVuSans-35" x="159.033203"/>
      </g>
     </g>
    </g>
    <g id="xtick_4">
     <g id="line2d_5">
      <g>
       <use xlink:href="#m68040ff8bf" x="213.792288" y="307.584" style="fill: #808080; stroke: #808080"/>
      </g>
     </g>
     <g id="text_4">
      <!-- 0.50 -->
      <g transform="translate(198.20635 324.721812) scale(0.14 -0.14)">
       <use xlink:href="#DejaVuSans-30"/>
       <use xlink:href="#DejaVuSans-2e" x="63.623047"/>
       <use xlink:href="#DejaVuSans-35" x="95.410156"/>
       <use xlink:href="#DejaVuSans-30" x="159.033203"/>
      </g>
     </g>
    </g>
    <g id="xtick_5">
     <g id="line2d_6">
      <g>
       <use xlink:href="#m68040ff8bf" x="263.777845" y="307.584" style="fill: #808080; stroke: #808080"/>
      </g>
     </g>
     <g id="text_5">
      <!-- 0.75 -->
      <g transform="translate(248.191908 324.721812) scale(0.14 -0.14)">
       <defs>
        <path id="DejaVuSans-37" d="M 525 4666 
L 3525 4666 
L 3525 4397 
L 1831 0 
L 1172 0 
L 2766 4134 
L 525 4134 
L 525 4666 
z
" transform="scale(0.015625)"/>
       </defs>
       <use xlink:href="#DejaVuSans-30"/>
       <use xlink:href="#DejaVuSans-2e" x="63.623047"/>
       <use xlink:href="#DejaVuSans-37" x="95.410156"/>
       <use xlink:href="#DejaVuSans-35" x="159.033203"/>
      </g>
     </g>
    </g>
    <g id="xtick_6">
     <g id="line2d_7">
      <g>
       <use xlink:href="#m68040ff8bf" x="313.763402" y="307.584" style="fill: #808080; stroke: #808080"/>
      </g>
     </g>
     <g id="text_6">
      <!-- 1.00 -->
      <g transform="translate(298.177465 324.721812) scale(0.14 -0.14)">
       <defs>
        <path id="DejaVuSans-31" d="M 794 531 
L 1825 531 
L 1825 4091 
L 703 3866 
L 703 4441 
L 1819 4666 
L 2450 4666 
L 2450 531 
L 3481 531 
L 3481 0 
L 794 0 
L 794 531 
z
" transform="scale(0.015625)"/>
       </defs>
       <use xlink:href="#DejaVuSans-31"/>
       <use xlink:href="#DejaVuSans-2e" x="63.623047"/>
       <use xlink:href="#DejaVuSans-30" x="95.410156"/>
       <use xlink:href="#DejaVuSans-30" x="159.033203"/>
      </g>
     </g>
    </g>
    <g id="xtick_7">
     <g id="line2d_8">
      <g>
       <use xlink:href="#m68040ff8bf" x="363.74896" y="307.584" style="fill: #808080; stroke: #808080"/>
      </g>
     </g>
     <g id="text_7">
      <!-- 1.25 -->
      <g transform="translate(348.163022 324.721812) scale(0.14 -0.14)">
       <use xlink:href="#DejaVuSans-31"/>
       <use xlink:href="#DejaVuSans-2e" x="63.623047"/>
       <use xlink:href="#DejaVuSans-32" x="95.410156"/>
       <use xlink:href="#DejaVuSans-35" x="159.033203"/>
      </g>
     </g>
    </g>
    <g id="xtick_8">
     <g id="line2d_9">
      <g>
       <use xlink:href="#m68040ff8bf" x="413.734517" y="307.584" style="fill: #808080; stroke: #808080"/>
      </g>
     </g>
     <g id="text_8">
      <!-- 1.50 -->
      <g transform="translate(398.148579 324.721812) scale(0.14 -0.14)">
       <use xlink:href="#DejaVuSans-31"/>
       <use xlink:href="#DejaVuSans-2e" x="63.623047"/>
       <use xlink:href="#DejaVuSans-35" x="95.410156"/>
       <use xlink:href="#DejaVuSans-30" x="159.033203"/>
      </g>
     </g>
    </g>
   </g>
   <g id="matplotlib.axis_2"/>
   <g id="line2d_10">
    <path d="M 213.791935 295.464432 
L 223.550788 295.355485 
L 227.888056 295.20448 
L 230.05669 295.036847 
L 235.478276 294.312984 
L 238.369788 293.674767 
L 239.815544 293.191942 
L 243.791373 291.420057 
L 245.237129 290.541291 
L 246.682885 289.290795 
L 250.658714 285.352176 
L 252.104471 283.33607 
L 254.634544 279.212759 
L 256.441739 275.800316 
L 258.610373 271.203323 
L 259.69469 268.484109 
L 260.779007 265.148302 
L 262.224763 259.759942 
L 266.92347 241.085828 
L 269.092104 231.035226 
L 272.706495 213.143918 
L 274.152251 204.881403 
L 275.598007 195.378099 
L 284.272543 134.787499 
L 286.441177 121.263557 
L 288.248372 108.269498 
L 290.055567 95.178548 
L 291.139884 89.011923 
L 292.585641 82.367986 
L 295.477153 69.993463 
L 296.922909 64.876174 
L 298.007226 61.629329 
L 298.730104 59.914318 
L 299.814421 58.088307 
L 301.260177 55.897652 
L 302.344494 54.166785 
L 302.705933 53.77715 
L 303.067372 53.568 
L 303.428811 53.569215 
L 303.79025 53.797602 
L 304.151689 54.231269 
L 304.874567 55.640097 
L 305.958884 58.591068 
L 308.127518 65.56235 
L 309.934713 70.981187 
L 311.01903 74.178463 
L 312.103347 78.244817 
L 313.187665 83.570469 
L 314.633421 92.189112 
L 318.247811 114.70291 
L 319.693567 123.358267 
L 321.139323 133.836411 
L 324.030835 155.925214 
L 330.536737 200.199519 
L 331.982493 208.685724 
L 338.126957 241.34466 
L 340.295591 250.328185 
L 342.102786 256.875531 
L 346.078615 269.63453 
L 347.162932 272.551002 
L 348.247249 274.92511 
L 349.693005 277.519703 
L 352.223078 281.49307 
L 354.391713 284.628963 
L 356.198908 286.824545 
L 358.728981 289.432839 
L 360.174737 290.596205 
L 361.981932 291.666407 
L 364.150566 292.710899 
L 365.957761 293.310882 
L 371.379346 294.539818 
L 374.632298 294.918781 
L 377.162371 295.126123 
L 386.559785 295.439273 
L 391.98137 295.470733 
L 398.487273 295.47204 
L 398.487273 295.47204 
" clip-path="url(#pfa92afbd3d)" style="fill: none; stroke: #1f77b4; stroke-width: 1.5; stroke-linecap: square"/>
   </g>
   <g id="line2d_11">
    <path d="M 249.762052 290.40768 
L 355.930953 290.40768 
" clip-path="url(#pfa92afbd3d)" style="fill: none; stroke: #000000; stroke-width: 3"/>
   </g>
   <g id="patch_3">
    <path d="M 57.6 307.584 
L 414.72 307.584 
" style="fill: none; stroke: #808080; stroke-width: 0.8; stroke-linejoin: miter; stroke-linecap: square"/>
   </g>
   <g id="text_9">
    <!-- 0.68  -->
    <g transform="translate(211.596427 277.70688) scale(0.15 -0.15)">
     <defs>
      <path id="DejaVuSans-36" d="M 2113 2584 
Q 1688 2584 1439 2293 
Q 1191 2003 1191 1497 
Q 1191 994 1439 701 
Q 1688 409 2113 409 
Q 2538 409 2786 701 
Q 3034 994 3034 1497 
Q 3034 2003 2786 2293 
Q 2538 2584 2113 2584 
z
M 3366 4563 
L 3366 3988 
Q 3128 4100 2886 4159 
Q 2644 4219 2406 4219 
Q 1781 4219 1451 3797 
Q 1122 3375 1075 2522 
Q 1259 2794 1537 2939 
Q 1816 3084 2150 3084 
Q 2853 3084 3261 2657 
Q 3669 2231 3669 1497 
Q 3669 778 3244 343 
Q 2819 -91 2113 -91 
Q 1303 -91 875 529 
Q 447 1150 447 2328 
Q 447 3434 972 4092 
Q 1497 4750 2381 4750 
Q 2619 4750 2861 4703 
Q 3103 4656 3366 4563 
z
" transform="scale(0.015625)"/>
      <path id="DejaVuSans-38" d="M 2034 2216 
Q 1584 2216 1326 1975 
Q 1069 1734 1069 1313 
Q 1069 891 1326 650 
Q 1584 409 2034 409 
Q 2484 409 2743 651 
Q 3003 894 3003 1313 
Q 3003 1734 2745 1975 
Q 2488 2216 2034 2216 
z
M 1403 2484 
Q 997 2584 770 2862 
Q 544 3141 544 3541 
Q 544 4100 942 4425 
Q 1341 4750 2034 4750 
Q 2731 4750 3128 4425 
Q 3525 4100 3525 3541 
Q 3525 3141 3298 2862 
Q 3072 2584 2669 2484 
Q 3125 2378 3379 2068 
Q 3634 1759 3634 1313 
Q 3634 634 3220 271 
Q 2806 -91 2034 -91 
Q 1263 -91 848 271 
Q 434 634 434 1313 
Q 434 1759 690 2068 
Q 947 2378 1403 2484 
z
M 1172 3481 
Q 1172 3119 1398 2916 
Q 1625 2713 2034 2713 
Q 2441 2713 2670 2916 
Q 2900 3119 2900 3481 
Q 2900 3844 2670 4047 
Q 2441 4250 2034 4250 
Q 1625 4250 1398 4047 
Q 1172 3844 1172 3481 
z
" transform="scale(0.015625)"/>
      <path id="DejaVuSans-20" transform="scale(0.015625)"/>
     </defs>
     <use xlink:href="#DejaVuSans-30"/>
     <use xlink:href="#DejaVuSans-2e" x="63.623047"/>
     <use xlink:href="#DejaVuSans-36" x="95.410156"/>
     <use xlink:href="#DejaVuSans-38" x="159.033203"/>
     <use xlink:href="#DejaVuSans-20" x="222.65625"/>
    </g>
   </g>
   <g id="text_10">
    <!--  1.2 -->
    <g transform="translate(355.930953 277.70688) scale(0.15 -0.15)">
     <use xlink:href="#DejaVuSans-20"/>
     <use xlink:href="#DejaVuSans-31" x="31.787109"/>
     <use xlink:href="#DejaVuSans-2e" x="95.410156"/>
     <use xlink:href="#DejaVuSans-32" x="127.197266"/>
    </g>
   </g>
   <g id="text_11">
    <!-- 99% HDI -->
    <g transform="translate(270.165253 219.2832) scale(0.15 -0.15)">
     <defs>
      <path id="DejaVuSans-39" d="M 703 97 
L 703 672 
Q 941 559 1184 500 
Q 1428 441 1663 441 
Q 2288 441 2617 861 
Q 2947 1281 2994 2138 
Q 2813 1869 2534 1725 
Q 2256 1581 1919 1581 
Q 1219 1581 811 2004 
Q 403 2428 403 3163 
Q 403 3881 828 4315 
Q 1253 4750 1959 4750 
Q 2769 4750 3195 4129 
Q 3622 3509 3622 2328 
Q 3622 1225 3098 567 
Q 2575 -91 1691 -91 
Q 1453 -91 1209 -44 
Q 966 3 703 97 
z
M 1959 2075 
Q 2384 2075 2632 2365 
Q 2881 2656 2881 3163 
Q 2881 3666 2632 3958 
Q 2384 4250 1959 4250 
Q 1534 4250 1286 3958 
Q 1038 3666 1038 3163 
Q 1038 2656 1286 2365 
Q 1534 2075 1959 2075 
z
" transform="scale(0.015625)"/>
      <path id="DejaVuSans-25" d="M 4653 2053 
Q 4381 2053 4226 1822 
Q 4072 1591 4072 1178 
Q 4072 772 4226 539 
Q 4381 306 4653 306 
Q 4919 306 5073 539 
Q 5228 772 5228 1178 
Q 5228 1588 5073 1820 
Q 4919 2053 4653 2053 
z
M 4653 2450 
Q 5147 2450 5437 2106 
Q 5728 1763 5728 1178 
Q 5728 594 5436 251 
Q 5144 -91 4653 -91 
Q 4153 -91 3862 251 
Q 3572 594 3572 1178 
Q 3572 1766 3864 2108 
Q 4156 2450 4653 2450 
z
M 1428 4353 
Q 1159 4353 1004 4120 
Q 850 3888 850 3481 
Q 850 3069 1003 2837 
Q 1156 2606 1428 2606 
Q 1700 2606 1854 2837 
Q 2009 3069 2009 3481 
Q 2009 3884 1853 4118 
Q 1697 4353 1428 4353 
z
M 4250 4750 
L 4750 4750 
L 1831 -91 
L 1331 -91 
L 4250 4750 
z
M 1428 4750 
Q 1922 4750 2215 4408 
Q 2509 4066 2509 3481 
Q 2509 2891 2217 2550 
Q 1925 2209 1428 2209 
Q 931 2209 642 2551 
Q 353 2894 353 3481 
Q 353 4063 643 4406 
Q 934 4750 1428 4750 
z
" transform="scale(0.015625)"/>
      <path id="DejaVuSans-48" d="M 628 4666 
L 1259 4666 
L 1259 2753 
L 3553 2753 
L 3553 4666 
L 4184 4666 
L 4184 0 
L 3553 0 
L 3553 2222 
L 1259 2222 
L 1259 0 
L 628 0 
L 628 4666 
z
" transform="scale(0.015625)"/>
      <path id="DejaVuSans-44" d="M 1259 4147 
L 1259 519 
L 2022 519 
Q 2988 519 3436 956 
Q 3884 1394 3884 2338 
Q 3884 3275 3436 3711 
Q 2988 4147 2022 4147 
L 1259 4147 
z
M 628 4666 
L 1925 4666 
Q 3281 4666 3915 4102 
Q 4550 3538 4550 2338 
Q 4550 1131 3912 565 
Q 3275 0 1925 0 
L 628 0 
L 628 4666 
z
" transform="scale(0.015625)"/>
      <path id="DejaVuSans-49" d="M 628 4666 
L 1259 4666 
L 1259 0 
L 628 0 
L 628 4666 
z
" transform="scale(0.015625)"/>
     </defs>
     <use xlink:href="#DejaVuSans-39"/>
     <use xlink:href="#DejaVuSans-39" x="63.623047"/>
     <use xlink:href="#DejaVuSans-25" x="127.246094"/>
     <use xlink:href="#DejaVuSans-20" x="222.265625"/>
     <use xlink:href="#DejaVuSans-48" x="254.052734"/>
     <use xlink:href="#DejaVuSans-44" x="329.248047"/>
     <use xlink:href="#DejaVuSans-49" x="406.25"/>
    </g>
   </g>
   <g id="text_12">
    <!-- mean=0.94 -->
    <g transform="translate(258.227245 92.2752) scale(0.15 -0.15)">
     <defs>
      <path id="DejaVuSans-6d" d="M 3328 2828 
Q 3544 3216 3844 3400 
Q 4144 3584 4550 3584 
Q 5097 3584 5394 3201 
Q 5691 2819 5691 2113 
L 5691 0 
L 5113 0 
L 5113 2094 
Q 5113 2597 4934 2840 
Q 4756 3084 4391 3084 
Q 3944 3084 3684 2787 
Q 3425 2491 3425 1978 
L 3425 0 
L 2847 0 
L 2847 2094 
Q 2847 2600 2669 2842 
Q 2491 3084 2119 3084 
Q 1678 3084 1418 2786 
Q 1159 2488 1159 1978 
L 1159 0 
L 581 0 
L 581 3500 
L 1159 3500 
L 1159 2956 
Q 1356 3278 1631 3431 
Q 1906 3584 2284 3584 
Q 2666 3584 2933 3390 
Q 3200 3197 3328 2828 
z
" transform="scale(0.015625)"/>
      <path id="DejaVuSans-65" d="M 3597 1894 
L 3597 1613 
L 953 1613 
Q 991 1019 1311 708 
Q 1631 397 2203 397 
Q 2534 397 2845 478 
Q 3156 559 3463 722 
L 3463 178 
Q 3153 47 2828 -22 
Q 2503 -91 2169 -91 
Q 1331 -91 842 396 
Q 353 884 353 1716 
Q 353 2575 817 3079 
Q 1281 3584 2069 3584 
Q 2775 3584 3186 3129 
Q 3597 2675 3597 1894 
z
M 3022 2063 
Q 3016 2534 2758 2815 
Q 2500 3097 2075 3097 
Q 1594 3097 1305 2825 
Q 1016 2553 972 2059 
L 3022 2063 
z
" transform="scale(0.015625)"/>
      <path id="DejaVuSans-61" d="M 2194 1759 
Q 1497 1759 1228 1600 
Q 959 1441 959 1056 
Q 959 750 1161 570 
Q 1363 391 1709 391 
Q 2188 391 2477 730 
Q 2766 1069 2766 1631 
L 2766 1759 
L 2194 1759 
z
M 3341 1997 
L 3341 0 
L 2766 0 
L 2766 531 
Q 2569 213 2275 61 
Q 1981 -91 1556 -91 
Q 1019 -91 701 211 
Q 384 513 384 1019 
Q 384 1609 779 1909 
Q 1175 2209 1959 2209 
L 2766 2209 
L 2766 2266 
Q 2766 2663 2505 2880 
Q 2244 3097 1772 3097 
Q 1472 3097 1187 3025 
Q 903 2953 641 2809 
L 641 3341 
Q 956 3463 1253 3523 
Q 1550 3584 1831 3584 
Q 2591 3584 2966 3190 
Q 3341 2797 3341 1997 
z
" transform="scale(0.015625)"/>
      <path id="DejaVuSans-6e" d="M 3513 2113 
L 3513 0 
L 2938 0 
L 2938 2094 
Q 2938 2591 2744 2837 
Q 2550 3084 2163 3084 
Q 1697 3084 1428 2787 
Q 1159 2491 1159 1978 
L 1159 0 
L 581 0 
L 581 3500 
L 1159 3500 
L 1159 2956 
Q 1366 3272 1645 3428 
Q 1925 3584 2291 3584 
Q 2894 3584 3203 3211 
Q 3513 2838 3513 2113 
z
" transform="scale(0.015625)"/>
      <path id="DejaVuSans-3d" d="M 678 2906 
L 4684 2906 
L 4684 2381 
L 678 2381 
L 678 2906 
z
M 678 1631 
L 4684 1631 
L 4684 1100 
L 678 1100 
L 678 1631 
z
" transform="scale(0.015625)"/>
      <path id="DejaVuSans-34" d="M 2419 4116 
L 825 1625 
L 2419 1625 
L 2419 4116 
z
M 2253 4666 
L 3047 4666 
L 3047 1625 
L 3713 1625 
L 3713 1100 
L 3047 1100 
L 3047 0 
L 2419 0 
L 2419 1100 
L 313 1100 
L 313 1709 
L 2253 4666 
z
" transform="scale(0.015625)"/>
     </defs>
     <use xlink:href="#DejaVuSans-6d"/>
     <use xlink:href="#DejaVuSans-65" x="97.412109"/>
     <use xlink:href="#DejaVuSans-61" x="158.935547"/>
     <use xlink:href="#DejaVuSans-6e" x="220.214844"/>
     <use xlink:href="#DejaVuSans-3d" x="283.59375"/>
     <use xlink:href="#DejaVuSans-30" x="367.382812"/>
     <use xlink:href="#DejaVuSans-2e" x="431.005859"/>
     <use xlink:href="#DejaVuSans-39" x="462.792969"/>
     <use xlink:href="#DejaVuSans-34" x="526.416016"/>
    </g>
   </g>
   <g id="text_13">
    <!-- 0.0% in ROPE -->
    <g style="fill: #2ca02c" transform="translate(245.776073 181.1808) scale(0.15 -0.15)">
     <defs>
      <path id="DejaVuSans-Bold-30" d="M 2944 2338 
Q 2944 3213 2780 3570 
Q 2616 3928 2228 3928 
Q 1841 3928 1675 3570 
Q 1509 3213 1509 2338 
Q 1509 1453 1675 1090 
Q 1841 728 2228 728 
Q 2613 728 2778 1090 
Q 2944 1453 2944 2338 
z
M 4147 2328 
Q 4147 1169 3647 539 
Q 3147 -91 2228 -91 
Q 1306 -91 806 539 
Q 306 1169 306 2328 
Q 306 3491 806 4120 
Q 1306 4750 2228 4750 
Q 3147 4750 3647 4120 
Q 4147 3491 4147 2328 
z
" transform="scale(0.015625)"/>
      <path id="DejaVuSans-Bold-2e" d="M 653 1209 
L 1778 1209 
L 1778 0 
L 653 0 
L 653 1209 
z
" transform="scale(0.015625)"/>
      <path id="DejaVuSans-Bold-25" d="M 4959 1925 
Q 4738 1925 4616 1733 
Q 4494 1541 4494 1184 
Q 4494 825 4614 633 
Q 4734 441 4959 441 
Q 5184 441 5303 633 
Q 5422 825 5422 1184 
Q 5422 1541 5301 1733 
Q 5181 1925 4959 1925 
z
M 4959 2450 
Q 5541 2450 5875 2112 
Q 6209 1775 6209 1184 
Q 6209 594 5875 251 
Q 5541 -91 4959 -91 
Q 4378 -91 4042 251 
Q 3706 594 3706 1184 
Q 3706 1772 4042 2111 
Q 4378 2450 4959 2450 
z
M 2094 -91 
L 1403 -91 
L 4319 4750 
L 5013 4750 
L 2094 -91 
z
M 1453 4750 
Q 2034 4750 2367 4411 
Q 2700 4072 2700 3481 
Q 2700 2891 2367 2550 
Q 2034 2209 1453 2209 
Q 872 2209 539 2550 
Q 206 2891 206 3481 
Q 206 4072 539 4411 
Q 872 4750 1453 4750 
z
M 1453 4225 
Q 1228 4225 1106 4031 
Q 984 3838 984 3481 
Q 984 3122 1106 2926 
Q 1228 2731 1453 2731 
Q 1678 2731 1798 2926 
Q 1919 3122 1919 3481 
Q 1919 3838 1797 4031 
Q 1675 4225 1453 4225 
z
" transform="scale(0.015625)"/>
      <path id="DejaVuSans-Bold-20" transform="scale(0.015625)"/>
      <path id="DejaVuSans-Bold-69" d="M 538 3500 
L 1656 3500 
L 1656 0 
L 538 0 
L 538 3500 
z
M 538 4863 
L 1656 4863 
L 1656 3950 
L 538 3950 
L 538 4863 
z
" transform="scale(0.015625)"/>
      <path id="DejaVuSans-Bold-6e" d="M 4056 2131 
L 4056 0 
L 2931 0 
L 2931 347 
L 2931 1631 
Q 2931 2084 2911 2256 
Q 2891 2428 2841 2509 
Q 2775 2619 2662 2680 
Q 2550 2741 2406 2741 
Q 2056 2741 1856 2470 
Q 1656 2200 1656 1722 
L 1656 0 
L 538 0 
L 538 3500 
L 1656 3500 
L 1656 2988 
Q 1909 3294 2193 3439 
Q 2478 3584 2822 3584 
Q 3428 3584 3742 3212 
Q 4056 2841 4056 2131 
z
" transform="scale(0.015625)"/>
      <path id="DejaVuSans-Bold-52" d="M 2297 2597 
Q 2675 2597 2839 2737 
Q 3003 2878 3003 3200 
Q 3003 3519 2839 3656 
Q 2675 3794 2297 3794 
L 1791 3794 
L 1791 2597 
L 2297 2597 
z
M 1791 1766 
L 1791 0 
L 588 0 
L 588 4666 
L 2425 4666 
Q 3347 4666 3776 4356 
Q 4206 4047 4206 3378 
Q 4206 2916 3982 2619 
Q 3759 2322 3309 2181 
Q 3556 2125 3751 1926 
Q 3947 1728 4147 1325 
L 4800 0 
L 3519 0 
L 2950 1159 
Q 2778 1509 2601 1637 
Q 2425 1766 2131 1766 
L 1791 1766 
z
" transform="scale(0.015625)"/>
      <path id="DejaVuSans-Bold-4f" d="M 2719 3878 
Q 2169 3878 1866 3472 
Q 1563 3066 1563 2328 
Q 1563 1594 1866 1187 
Q 2169 781 2719 781 
Q 3272 781 3575 1187 
Q 3878 1594 3878 2328 
Q 3878 3066 3575 3472 
Q 3272 3878 2719 3878 
z
M 2719 4750 
Q 3844 4750 4481 4106 
Q 5119 3463 5119 2328 
Q 5119 1197 4481 553 
Q 3844 -91 2719 -91 
Q 1597 -91 958 553 
Q 319 1197 319 2328 
Q 319 3463 958 4106 
Q 1597 4750 2719 4750 
z
" transform="scale(0.015625)"/>
      <path id="DejaVuSans-Bold-50" d="M 588 4666 
L 2584 4666 
Q 3475 4666 3951 4270 
Q 4428 3875 4428 3144 
Q 4428 2409 3951 2014 
Q 3475 1619 2584 1619 
L 1791 1619 
L 1791 0 
L 588 0 
L 588 4666 
z
M 1791 3794 
L 1791 2491 
L 2456 2491 
Q 2806 2491 2997 2661 
Q 3188 2831 3188 3144 
Q 3188 3456 2997 3625 
Q 2806 3794 2456 3794 
L 1791 3794 
z
" transform="scale(0.015625)"/>
      <path id="DejaVuSans-Bold-45" d="M 588 4666 
L 3834 4666 
L 3834 3756 
L 1791 3756 
L 1791 2888 
L 3713 2888 
L 3713 1978 
L 1791 1978 
L 1791 909 
L 3903 909 
L 3903 0 
L 588 0 
L 588 4666 
z
" transform="scale(0.015625)"/>
     </defs>
     <use xlink:href="#DejaVuSans-Bold-30"/>
     <use xlink:href="#DejaVuSans-Bold-2e" x="69.580078"/>
     <use xlink:href="#DejaVuSans-Bold-30" x="107.568359"/>
     <use xlink:href="#DejaVuSans-Bold-25" x="177.148438"/>
     <use xlink:href="#DejaVuSans-Bold-20" x="277.34375"/>
     <use xlink:href="#DejaVuSans-Bold-69" x="312.158203"/>
     <use xlink:href="#DejaVuSans-Bold-6e" x="346.435547"/>
     <use xlink:href="#DejaVuSans-Bold-20" x="417.626953"/>
     <use xlink:href="#DejaVuSans-Bold-52" x="452.441406"/>
     <use xlink:href="#DejaVuSans-Bold-4f" x="529.443359"/>
     <use xlink:href="#DejaVuSans-Bold-50" x="614.453125"/>
     <use xlink:href="#DejaVuSans-Bold-45" x="687.744141"/>
    </g>
   </g>
   <g id="text_14">
    <!-- -0.2 -->
    <g style="fill: #2ca02c" transform="translate(41.036634 244.6848) scale(0.15 -0.15)">
     <defs>
      <path id="DejaVuSans-Bold-2d" d="M 347 2297 
L 2309 2297 
L 2309 1388 
L 347 1388 
L 347 2297 
z
" transform="scale(0.015625)"/>
      <path id="DejaVuSans-Bold-32" d="M 1844 884 
L 3897 884 
L 3897 0 
L 506 0 
L 506 884 
L 2209 2388 
Q 2438 2594 2547 2791 
Q 2656 2988 2656 3200 
Q 2656 3528 2436 3728 
Q 2216 3928 1850 3928 
Q 1569 3928 1234 3808 
Q 900 3688 519 3450 
L 519 4475 
Q 925 4609 1322 4679 
Q 1719 4750 2100 4750 
Q 2938 4750 3402 4381 
Q 3866 4013 3866 3353 
Q 3866 2972 3669 2642 
Q 3472 2313 2841 1759 
L 1844 884 
z
" transform="scale(0.015625)"/>
     </defs>
     <use xlink:href="#DejaVuSans-Bold-2d"/>
     <use xlink:href="#DejaVuSans-Bold-30" x="41.503906"/>
     <use xlink:href="#DejaVuSans-Bold-2e" x="111.083984"/>
     <use xlink:href="#DejaVuSans-Bold-32" x="149.072266"/>
    </g>
   </g>
   <g id="text_15">
    <!-- 0.2 -->
    <g style="fill: #2ca02c" transform="translate(153.809619 244.6848) scale(0.15 -0.15)">
     <use xlink:href="#DejaVuSans-Bold-30"/>
     <use xlink:href="#DejaVuSans-Bold-2e" x="69.580078"/>
     <use xlink:href="#DejaVuSans-Bold-32" x="107.568359"/>
    </g>
   </g>
  </g>
 </g>
 <defs>
  <clipPath id="pfa92afbd3d">
   <rect x="57.6" y="41.472" width="357.12" height="266.112"/>
  </clipPath>
 </defs>
</svg>
