<?xml version="1.0" encoding="utf-8" standalone="no"?>
<!DOCTYPE svg PUBLIC "-//W3C//DTD SVG 1.1//EN"
  "http://www.w3.org/Graphics/SVG/1.1/DTD/svg11.dtd">
<svg xmlns:xlink="http://www.w3.org/1999/xlink" width="460.8pt" height="345.6pt" viewBox="0 0 460.8 345.6" xmlns="http://www.w3.org/2000/svg" version="1.1">
 <metadata>
  <rdf:RDF xmlns:dc="http://purl.org/dc/elements/1.1/" xmlns:cc="http://creativecommons.org/ns#" xmlns:rdf="http://www.w3.org/1999/02/22-rdf-syntax-ns#">
   <cc:Work>
    <dc:type rdf:resource="http://purl.org/dc/dcmitype/StillImage"/>
    <dc:format>image/svg+xml</dc:format>
   </cc:Work>
  </rdf:RDF>
 </metadata>
 <defs>
  <style type="text/css">*{stroke-linejoin: round; stroke-linecap: butt}</style>
 </defs>
 <g id="figure_1">
  <g id="patch_1">
   <path d="M 0 345.6 
L 460.8 345.6 
L 460.8 0 
L 0 0 
z
" style="fill: #ffffff"/>
  </g>
  <g id="axes_1">
   <g id="patch_2">
    <path d="M 57.6 307.584 
L 414.72 307.584 
L 414.72 41.472 
L 57.6 41.472 
z
" style="fill: #ffffff"/>
   </g>
   <g id="line2d_1">
    <path d="M 73.832727 290.40768 
L 153.588047 290.40768 
" clip-path="url(#pfd9e7c5a18)" style="fill: none; stroke: #2ca02c; stroke-opacity: 0.7; stroke-width: 7.5"/>
   </g>
   <g id="PolyCollection_1">
    <defs>
     <path id="mcd82dd7e17" d="M 207.140267 -50.112 
L 207.140267 -50.128127 
L 207.514723 -50.127195 
L 207.889179 -50.125489 
L 208.263635 -50.123282 
L 208.638091 -50.120996 
L 209.012547 -50.118812 
L 209.387003 -50.117121 
L 209.761459 -50.115961 
L 210.135915 -50.11547 
L 210.510371 -50.115673 
L 210.884827 -50.116548 
L 211.259283 -50.118126 
L 211.633739 -50.120119 
L 212.008195 -50.122478 
L 212.382651 -50.125217 
L 212.757107 -50.127887 
L 213.131563 -50.130307 
L 213.506018 -50.132558 
L 213.880474 -50.134671 
L 214.25493 -50.136842 
L 214.629386 -50.139436 
L 215.003842 -50.142698 
L 215.378298 -50.146755 
L 215.752754 -50.151734 
L 216.12721 -50.157472 
L 216.501666 -50.164007 
L 216.876122 -50.171012 
L 217.250578 -50.178242 
L 217.625034 -50.185362 
L 217.99949 -50.192444 
L 218.373946 -50.19929 
L 218.748402 -50.205607 
L 219.122858 -50.211894 
L 219.497314 -50.218108 
L 219.87177 -50.224507 
L 220.246226 -50.231498 
L 220.620682 -50.239025 
L 220.995138 -50.247548 
L 221.369594 -50.256539 
L 221.74405 -50.265116 
L 222.118506 -50.273774 
L 222.492962 -50.281494 
L 222.867418 -50.288615 
L 223.241874 -50.295235 
L 223.61633 -50.302341 
L 223.990786 -50.310484 
L 224.365242 -50.320382 
L 224.739698 -50.331764 
L 225.114154 -50.34473 
L 225.48861 -50.358359 
L 225.863066 -50.371912 
L 226.237522 -50.385267 
L 226.611978 -50.39844 
L 226.986434 -50.411119 
L 227.36089 -50.423451 
L 227.735346 -50.43692 
L 228.109802 -50.451936 
L 228.484258 -50.469207 
L 228.858714 -50.48981 
L 229.23317 -50.51398 
L 229.607626 -50.543962 
L 229.982082 -50.58053 
L 230.356538 -50.624737 
L 230.730994 -50.678148 
L 231.10545 -50.7397 
L 231.479906 -50.808139 
L 231.854362 -50.881591 
L 232.228817 -50.956445 
L 232.603273 -51.030041 
L 232.977729 -51.099931 
L 233.352185 -51.165305 
L 233.726641 -51.227029 
L 234.101097 -51.287826 
L 234.475553 -51.347542 
L 234.850009 -51.410337 
L 235.224465 -51.475742 
L 235.598921 -51.544248 
L 235.973377 -51.616835 
L 236.347833 -51.692324 
L 236.722289 -51.771411 
L 237.096745 -51.854623 
L 237.471201 -51.942133 
L 237.845657 -52.035205 
L 238.220113 -52.135299 
L 238.594569 -52.241639 
L 238.969025 -52.352587 
L 239.343481 -52.469521 
L 239.717937 -52.59177 
L 240.092393 -52.717725 
L 240.466849 -52.848722 
L 240.841305 -52.984299 
L 241.215761 -53.127168 
L 241.590217 -53.277343 
L 241.964673 -53.440897 
L 242.339129 -53.619978 
L 242.713585 -53.817599 
L 243.088041 -54.037129 
L 243.462497 -54.280702 
L 243.836953 -54.549282 
L 244.211409 -54.836609 
L 244.585865 -55.139217 
L 244.960321 -55.451913 
L 245.334777 -55.768457 
L 245.709233 -56.086867 
L 246.083689 -56.401358 
L 246.458145 -56.711124 
L 246.832601 -57.019356 
L 247.207057 -57.327868 
L 247.581513 -57.636992 
L 247.955969 -57.950091 
L 248.330425 -58.272324 
L 248.704881 -58.608016 
L 249.079337 -58.962886 
L 249.453793 -59.340583 
L 249.828249 -59.747072 
L 250.202705 -60.178986 
L 250.577161 -60.633998 
L 250.951617 -61.109683 
L 251.326072 -61.597992 
L 251.700528 -62.096178 
L 252.074984 -62.605514 
L 252.44944 -63.129179 
L 252.823896 -63.670635 
L 253.198352 -64.241317 
L 253.572808 -64.854313 
L 253.947264 -65.516973 
L 254.32172 -66.236024 
L 254.696176 -67.011584 
L 255.070632 -67.844091 
L 255.445088 -68.733303 
L 255.819544 -69.670812 
L 256.194 -70.648699 
L 256.568456 -71.657987 
L 256.942912 -72.689158 
L 257.317368 -73.732881 
L 257.691824 -74.775809 
L 258.06628 -75.805346 
L 258.440736 -76.826449 
L 258.815192 -77.836416 
L 259.189648 -78.841915 
L 259.564104 -79.854604 
L 259.93856 -80.885128 
L 260.313016 -81.943509 
L 260.687472 -83.036428 
L 261.061928 -84.169536 
L 261.436384 -85.33605 
L 261.81084 -86.534918 
L 262.185296 -87.768698 
L 262.559752 -89.038147 
L 262.934208 -90.34642 
L 263.308664 -91.702564 
L 263.68312 -93.1168 
L 264.057576 -94.603093 
L 264.432032 -96.171604 
L 264.806488 -97.815956 
L 265.180944 -99.54421 
L 265.5554 -101.332566 
L 265.929856 -103.167896 
L 266.304312 -105.0217 
L 266.678768 -106.870609 
L 267.053224 -108.701525 
L 267.42768 -110.505105 
L 267.802136 -112.275349 
L 268.176592 -114.031773 
L 268.551048 -115.799948 
L 268.925504 -117.598418 
L 269.29996 -119.451966 
L 269.674416 -121.367739 
L 270.048872 -123.356092 
L 270.423327 -125.394486 
L 270.797783 -127.469691 
L 271.172239 -129.563896 
L 271.546695 -131.657778 
L 271.921151 -133.752354 
L 272.295607 -135.849304 
L 272.670063 -137.971753 
L 273.044519 -140.146309 
L 273.418975 -142.404965 
L 273.793431 -144.753232 
L 274.167887 -147.207285 
L 274.542343 -149.745473 
L 274.916799 -152.35792 
L 275.291255 -154.995749 
L 275.665711 -157.647035 
L 276.040167 -160.268951 
L 276.414623 -162.839695 
L 276.789079 -165.374308 
L 277.163535 -167.870461 
L 277.537991 -170.358764 
L 277.912447 -172.855241 
L 278.286903 -175.398122 
L 278.661359 -177.99525 
L 279.035815 -180.658245 
L 279.410271 -183.373708 
L 279.784727 -186.116541 
L 280.159183 -188.858268 
L 280.533639 -191.549643 
L 280.908095 -194.183388 
L 281.282551 -196.726721 
L 281.657007 -199.202424 
L 282.031463 -201.628156 
L 282.405919 -204.02509 
L 282.780375 -206.431296 
L 283.154831 -208.890535 
L 283.529287 -211.409377 
L 283.903743 -214.008897 
L 284.278199 -216.682956 
L 284.652655 -219.426306 
L 285.027111 -222.211757 
L 285.401567 -225.025322 
L 285.776023 -227.85773 
L 286.150479 -230.677529 
L 286.524935 -233.4888 
L 286.899391 -236.287723 
L 287.273847 -239.066097 
L 287.648303 -241.812272 
L 288.022759 -244.523629 
L 288.397215 -247.164757 
L 288.771671 -249.732332 
L 289.146126 -252.214054 
L 289.520582 -254.601251 
L 289.895038 -256.910999 
L 290.269494 -259.144398 
L 290.64395 -261.319078 
L 291.018406 -263.436919 
L 291.392862 -265.485713 
L 291.767318 -267.453553 
L 292.141774 -269.284339 
L 292.51623 -270.973735 
L 292.890686 -272.508038 
L 293.265142 -273.872579 
L 293.639598 -275.098771 
L 294.014054 -276.22269 
L 294.38851 -277.286805 
L 294.762966 -278.333868 
L 295.137422 -279.405433 
L 295.511878 -280.516033 
L 295.886334 -281.672629 
L 296.26079 -282.837202 
L 296.635246 -284.004745 
L 297.009702 -285.138317 
L 297.384158 -286.199787 
L 297.758614 -287.199962 
L 298.13307 -288.114177 
L 298.507526 -288.953005 
L 298.881982 -289.720776 
L 299.256438 -290.421147 
L 299.630894 -291.02922 
L 300.00535 -291.52324 
L 300.379806 -291.857524 
L 300.754262 -292.027894 
L 301.128718 -292.032 
L 301.503174 -291.892392 
L 301.87763 -291.62636 
L 302.252086 -291.290952 
L 302.626542 -290.932785 
L 303.000998 -290.573005 
L 303.375454 -290.224378 
L 303.74991 -289.875988 
L 304.124366 -289.505316 
L 304.498822 -289.05631 
L 304.873278 -288.531253 
L 305.247734 -287.889889 
L 305.62219 -287.135811 
L 305.996646 -286.254283 
L 306.371102 -285.261544 
L 306.745558 -284.186746 
L 307.120014 -283.034062 
L 307.49447 -281.84505 
L 307.868926 -280.627594 
L 308.243381 -279.386709 
L 308.617837 -278.143673 
L 308.992293 -276.894815 
L 309.366749 -275.638174 
L 309.741205 -274.365464 
L 310.115661 -273.063297 
L 310.490117 -271.705843 
L 310.864573 -270.303182 
L 311.239029 -268.817159 
L 311.613485 -267.232255 
L 311.987941 -265.539081 
L 312.362397 -263.7122 
L 312.736853 -261.742986 
L 313.111309 -259.640755 
L 313.485765 -257.417581 
L 313.860221 -255.082889 
L 314.234677 -252.665238 
L 314.609133 -250.210422 
L 314.983589 -247.74482 
L 315.358045 -245.293912 
L 315.732501 -242.882589 
L 316.106957 -240.478323 
L 316.481413 -238.082916 
L 316.855869 -235.654488 
L 317.230325 -233.171078 
L 317.604781 -230.606762 
L 317.979237 -227.957451 
L 318.353693 -225.261257 
L 318.728149 -222.537473 
L 319.102605 -219.832119 
L 319.477061 -217.162413 
L 319.851517 -214.559009 
L 320.225973 -211.993118 
L 320.600429 -209.446615 
L 320.974885 -206.881314 
L 321.349341 -204.264275 
L 321.723797 -201.594513 
L 322.098253 -198.871221 
L 322.472709 -196.111348 
L 322.847165 -193.339506 
L 323.221621 -190.58581 
L 323.596077 -187.851473 
L 323.970533 -185.14116 
L 324.344989 -182.449384 
L 324.719445 -179.775913 
L 325.093901 -177.108678 
L 325.468357 -174.472876 
L 325.842813 -171.855426 
L 326.217269 -169.278255 
L 326.591725 -166.750388 
L 326.966181 -164.270175 
L 327.340636 -161.831315 
L 327.715092 -159.422088 
L 328.089548 -157.035427 
L 328.464004 -154.660737 
L 328.83846 -152.304273 
L 329.212916 -149.956304 
L 329.587372 -147.628648 
L 329.961828 -145.323581 
L 330.336284 -143.045981 
L 330.71074 -140.779713 
L 331.085196 -138.530546 
L 331.459652 -136.281827 
L 331.834108 -134.042794 
L 332.208564 -131.813802 
L 332.58302 -129.602496 
L 332.957476 -127.413395 
L 333.331932 -125.260083 
L 333.706388 -123.145645 
L 334.080844 -121.072209 
L 334.4553 -119.040442 
L 334.829756 -117.051116 
L 335.204212 -115.110761 
L 335.578668 -113.215047 
L 335.953124 -111.366815 
L 336.32758 -109.563948 
L 336.702036 -107.801047 
L 337.076492 -106.080799 
L 337.450948 -104.391859 
L 337.825404 -102.72639 
L 338.19986 -101.083412 
L 338.574316 -99.467047 
L 338.948772 -97.876567 
L 339.323228 -96.32286 
L 339.697684 -94.799663 
L 340.07214 -93.318367 
L 340.446596 -91.860647 
L 340.821052 -90.43794 
L 341.195508 -89.034923 
L 341.569964 -87.658878 
L 341.94442 -86.304927 
L 342.318876 -84.980471 
L 342.693332 -83.688676 
L 343.067788 -82.435765 
L 343.442244 -81.223355 
L 343.8167 -80.052485 
L 344.191156 -78.926257 
L 344.565612 -77.832959 
L 344.940068 -76.769821 
L 345.314524 -75.734433 
L 345.68898 -74.728331 
L 346.063435 -73.756705 
L 346.437891 -72.819502 
L 346.812347 -71.929983 
L 347.186803 -71.090304 
L 347.561259 -70.295366 
L 347.935715 -69.537985 
L 348.310171 -68.805559 
L 348.684627 -68.083783 
L 349.059083 -67.363377 
L 349.433539 -66.644159 
L 349.807995 -65.930511 
L 350.182451 -65.227912 
L 350.556907 -64.548112 
L 350.931363 -63.904349 
L 351.305819 -63.302574 
L 351.680275 -62.742213 
L 352.054731 -62.221262 
L 352.429187 -61.731299 
L 352.803643 -61.260024 
L 353.178099 -60.799296 
L 353.552555 -60.336268 
L 353.927011 -59.87454 
L 354.301467 -59.414582 
L 354.675923 -58.958413 
L 355.050379 -58.515311 
L 355.424835 -58.092281 
L 355.799291 -57.699098 
L 356.173747 -57.335381 
L 356.548203 -56.997013 
L 356.922659 -56.6834 
L 357.297115 -56.386077 
L 357.671571 -56.103747 
L 358.046027 -55.83404 
L 358.420483 -55.57498 
L 358.794939 -55.327251 
L 359.169395 -55.094852 
L 359.543851 -54.875785 
L 359.918307 -54.668753 
L 360.292763 -54.469445 
L 360.667219 -54.27754 
L 361.041675 -54.087579 
L 361.416131 -53.899129 
L 361.790587 -53.709401 
L 362.165043 -53.519279 
L 362.539499 -53.330498 
L 362.913955 -53.143406 
L 363.288411 -52.959926 
L 363.662867 -52.782627 
L 364.037323 -52.613982 
L 364.411779 -52.453721 
L 364.786235 -52.304839 
L 365.16069 -52.169668 
L 365.535146 -52.048102 
L 365.909602 -51.941131 
L 366.284058 -51.847332 
L 366.658514 -51.766524 
L 367.03297 -51.693842 
L 367.407426 -51.626003 
L 367.781882 -51.559746 
L 368.156338 -51.490009 
L 368.530794 -51.41437 
L 368.90525 -51.333184 
L 369.279706 -51.247178 
L 369.654162 -51.157796 
L 370.028618 -51.068527 
L 370.403074 -50.983758 
L 370.77753 -50.904634 
L 371.151986 -50.834144 
L 371.526442 -50.772812 
L 371.900898 -50.720108 
L 372.275354 -50.675313 
L 372.64981 -50.636827 
L 373.024266 -50.60422 
L 373.398722 -50.575441 
L 373.773178 -50.549786 
L 374.147634 -50.526089 
L 374.52209 -50.502912 
L 374.896546 -50.480881 
L 375.271002 -50.460487 
L 375.645458 -50.441549 
L 376.019914 -50.424911 
L 376.39437 -50.412175 
L 376.768826 -50.402353 
L 377.143282 -50.394751 
L 377.517738 -50.389019 
L 377.892194 -50.383262 
L 378.26665 -50.376001 
L 378.641106 -50.366729 
L 379.015562 -50.355116 
L 379.390018 -50.34073 
L 379.764474 -50.325055 
L 380.13893 -50.309088 
L 380.513386 -50.29346 
L 380.887842 -50.278202 
L 381.262298 -50.264614 
L 381.636754 -50.252698 
L 382.01121 -50.242337 
L 382.385666 -50.233789 
L 382.760122 -50.226929 
L 383.134578 -50.221456 
L 383.509034 -50.216956 
L 383.883489 -50.212626 
L 384.257945 -50.208486 
L 384.632401 -50.203598 
L 385.006857 -50.19795 
L 385.381313 -50.191336 
L 385.755769 -50.184138 
L 386.130225 -50.176964 
L 386.504681 -50.170052 
L 386.879137 -50.163854 
L 387.253593 -50.158631 
L 387.628049 -50.154138 
L 388.002505 -50.150227 
L 388.376961 -50.14674 
L 388.751417 -50.143307 
L 389.125873 -50.139791 
L 389.500329 -50.136054 
L 389.874785 -50.132227 
L 390.249241 -50.12877 
L 390.623697 -50.125655 
L 390.998153 -50.123191 
L 391.372609 -50.12156 
L 391.747065 -50.120954 
L 392.121521 -50.12138 
L 392.495977 -50.122576 
L 392.870433 -50.1242 
L 393.244889 -50.125992 
L 393.619345 -50.127406 
L 393.993801 -50.128338 
L 394.368257 -50.128444 
L 394.742713 -50.127804 
L 395.117169 -50.126594 
L 395.491625 -50.125171 
L 395.866081 -50.123933 
L 396.240537 -50.123218 
L 396.614993 -50.123218 
L 396.989449 -50.123933 
L 397.363905 -50.125171 
L 397.738361 -50.126594 
L 398.112817 -50.127804 
L 398.487273 -50.128549 
L 398.487273 -50.112 
L 398.487273 -50.112 
L 398.112817 -50.112 
L 397.738361 -50.112 
L 397.363905 -50.112 
L 396.989449 -50.112 
L 396.614993 -50.112 
L 396.240537 -50.112 
L 395.866081 -50.112 
L 395.491625 -50.112 
L 395.117169 -50.112 
L 394.742713 -50.112 
L 394.368257 -50.112 
L 393.993801 -50.112 
L 393.619345 -50.112 
L 393.244889 -50.112 
L 392.870433 -50.112 
L 392.495977 -50.112 
L 392.121521 -50.112 
L 391.747065 -50.112 
L 391.372609 -50.112 
L 390.998153 -50.112 
L 390.623697 -50.112 
L 390.249241 -50.112 
L 389.874785 -50.112 
L 389.500329 -50.112 
L 389.125873 -50.112 
L 388.751417 -50.112 
L 388.376961 -50.112 
L 388.002505 -50.112 
L 387.628049 -50.112 
L 387.253593 -50.112 
L 386.879137 -50.112 
L 386.504681 -50.112 
L 386.130225 -50.112 
L 385.755769 -50.112 
L 385.381313 -50.112 
L 385.006857 -50.112 
L 384.632401 -50.112 
L 384.257945 -50.112 
L 383.883489 -50.112 
L 383.509034 -50.112 
L 383.134578 -50.112 
L 382.760122 -50.112 
L 382.385666 -50.112 
L 382.01121 -50.112 
L 381.636754 -50.112 
L 381.262298 -50.112 
L 380.887842 -50.112 
L 380.513386 -50.112 
L 380.13893 -50.112 
L 379.764474 -50.112 
L 379.390018 -50.112 
L 379.015562 -50.112 
L 378.641106 -50.112 
L 378.26665 -50.112 
L 377.892194 -50.112 
L 377.517738 -50.112 
L 377.143282 -50.112 
L 376.768826 -50.112 
L 376.39437 -50.112 
L 376.019914 -50.112 
L 375.645458 -50.112 
L 375.271002 -50.112 
L 374.896546 -50.112 
L 374.52209 -50.112 
L 374.147634 -50.112 
L 373.773178 -50.112 
L 373.398722 -50.112 
L 373.024266 -50.112 
L 372.64981 -50.112 
L 372.275354 -50.112 
L 371.900898 -50.112 
L 371.526442 -50.112 
L 371.151986 -50.112 
L 370.77753 -50.112 
L 370.403074 -50.112 
L 370.028618 -50.112 
L 369.654162 -50.112 
L 369.279706 -50.112 
L 368.90525 -50.112 
L 368.530794 -50.112 
L 368.156338 -50.112 
L 367.781882 -50.112 
L 367.407426 -50.112 
L 367.03297 -50.112 
L 366.658514 -50.112 
L 366.284058 -50.112 
L 365.909602 -50.112 
L 365.535146 -50.112 
L 365.16069 -50.112 
L 364.786235 -50.112 
L 364.411779 -50.112 
L 364.037323 -50.112 
L 363.662867 -50.112 
L 363.288411 -50.112 
L 362.913955 -50.112 
L 362.539499 -50.112 
L 362.165043 -50.112 
L 361.790587 -50.112 
L 361.416131 -50.112 
L 361.041675 -50.112 
L 360.667219 -50.112 
L 360.292763 -50.112 
L 359.918307 -50.112 
L 359.543851 -50.112 
L 359.169395 -50.112 
L 358.794939 -50.112 
L 358.420483 -50.112 
L 358.046027 -50.112 
L 357.671571 -50.112 
L 357.297115 -50.112 
L 356.922659 -50.112 
L 356.548203 -50.112 
L 356.173747 -50.112 
L 355.799291 -50.112 
L 355.424835 -50.112 
L 355.050379 -50.112 
L 354.675923 -50.112 
L 354.301467 -50.112 
L 353.927011 -50.112 
L 353.552555 -50.112 
L 353.178099 -50.112 
L 352.803643 -50.112 
L 352.429187 -50.112 
L 352.054731 -50.112 
L 351.680275 -50.112 
L 351.305819 -50.112 
L 350.931363 -50.112 
L 350.556907 -50.112 
L 350.182451 -50.112 
L 349.807995 -50.112 
L 349.433539 -50.112 
L 349.059083 -50.112 
L 348.684627 -50.112 
L 348.310171 -50.112 
L 347.935715 -50.112 
L 347.561259 -50.112 
L 347.186803 -50.112 
L 346.812347 -50.112 
L 346.437891 -50.112 
L 346.063435 -50.112 
L 345.68898 -50.112 
L 345.314524 -50.112 
L 344.940068 -50.112 
L 344.565612 -50.112 
L 344.191156 -50.112 
L 343.8167 -50.112 
L 343.442244 -50.112 
L 343.067788 -50.112 
L 342.693332 -50.112 
L 342.318876 -50.112 
L 341.94442 -50.112 
L 341.569964 -50.112 
L 341.195508 -50.112 
L 340.821052 -50.112 
L 340.446596 -50.112 
L 340.07214 -50.112 
L 339.697684 -50.112 
L 339.323228 -50.112 
L 338.948772 -50.112 
L 338.574316 -50.112 
L 338.19986 -50.112 
L 337.825404 -50.112 
L 337.450948 -50.112 
L 337.076492 -50.112 
L 336.702036 -50.112 
L 336.32758 -50.112 
L 335.953124 -50.112 
L 335.578668 -50.112 
L 335.204212 -50.112 
L 334.829756 -50.112 
L 334.4553 -50.112 
L 334.080844 -50.112 
L 333.706388 -50.112 
L 333.331932 -50.112 
L 332.957476 -50.112 
L 332.58302 -50.112 
L 332.208564 -50.112 
L 331.834108 -50.112 
L 331.459652 -50.112 
L 331.085196 -50.112 
L 330.71074 -50.112 
L 330.336284 -50.112 
L 329.961828 -50.112 
L 329.587372 -50.112 
L 329.212916 -50.112 
L 328.83846 -50.112 
L 328.464004 -50.112 
L 328.089548 -50.112 
L 327.715092 -50.112 
L 327.340636 -50.112 
L 326.966181 -50.112 
L 326.591725 -50.112 
L 326.217269 -50.112 
L 325.842813 -50.112 
L 325.468357 -50.112 
L 325.093901 -50.112 
L 324.719445 -50.112 
L 324.344989 -50.112 
L 323.970533 -50.112 
L 323.596077 -50.112 
L 323.221621 -50.112 
L 322.847165 -50.112 
L 322.472709 -50.112 
L 322.098253 -50.112 
L 321.723797 -50.112 
L 321.349341 -50.112 
L 320.974885 -50.112 
L 320.600429 -50.112 
L 320.225973 -50.112 
L 319.851517 -50.112 
L 319.477061 -50.112 
L 319.102605 -50.112 
L 318.728149 -50.112 
L 318.353693 -50.112 
L 317.979237 -50.112 
L 317.604781 -50.112 
L 317.230325 -50.112 
L 316.855869 -50.112 
L 316.481413 -50.112 
L 316.106957 -50.112 
L 315.732501 -50.112 
L 315.358045 -50.112 
L 314.983589 -50.112 
L 314.609133 -50.112 
L 314.234677 -50.112 
L 313.860221 -50.112 
L 313.485765 -50.112 
L 313.111309 -50.112 
L 312.736853 -50.112 
L 312.362397 -50.112 
L 311.987941 -50.112 
L 311.613485 -50.112 
L 311.239029 -50.112 
L 310.864573 -50.112 
L 310.490117 -50.112 
L 310.115661 -50.112 
L 309.741205 -50.112 
L 309.366749 -50.112 
L 308.992293 -50.112 
L 308.617837 -50.112 
L 308.243381 -50.112 
L 307.868926 -50.112 
L 307.49447 -50.112 
L 307.120014 -50.112 
L 306.745558 -50.112 
L 306.371102 -50.112 
L 305.996646 -50.112 
L 305.62219 -50.112 
L 305.247734 -50.112 
L 304.873278 -50.112 
L 304.498822 -50.112 
L 304.124366 -50.112 
L 303.74991 -50.112 
L 303.375454 -50.112 
L 303.000998 -50.112 
L 302.626542 -50.112 
L 302.252086 -50.112 
L 301.87763 -50.112 
L 301.503174 -50.112 
L 301.128718 -50.112 
L 300.754262 -50.112 
L 300.379806 -50.112 
L 300.00535 -50.112 
L 299.630894 -50.112 
L 299.256438 -50.112 
L 298.881982 -50.112 
L 298.507526 -50.112 
L 298.13307 -50.112 
L 297.758614 -50.112 
L 297.384158 -50.112 
L 297.009702 -50.112 
L 296.635246 -50.112 
L 296.26079 -50.112 
L 295.886334 -50.112 
L 295.511878 -50.112 
L 295.137422 -50.112 
L 294.762966 -50.112 
L 294.38851 -50.112 
L 294.014054 -50.112 
L 293.639598 -50.112 
L 293.265142 -50.112 
L 292.890686 -50.112 
L 292.51623 -50.112 
L 292.141774 -50.112 
L 291.767318 -50.112 
L 291.392862 -50.112 
L 291.018406 -50.112 
L 290.64395 -50.112 
L 290.269494 -50.112 
L 289.895038 -50.112 
L 289.520582 -50.112 
L 289.146126 -50.112 
L 288.771671 -50.112 
L 288.397215 -50.112 
L 288.022759 -50.112 
L 287.648303 -50.112 
L 287.273847 -50.112 
L 286.899391 -50.112 
L 286.524935 -50.112 
L 286.150479 -50.112 
L 285.776023 -50.112 
L 285.401567 -50.112 
L 285.027111 -50.112 
L 284.652655 -50.112 
L 284.278199 -50.112 
L 283.903743 -50.112 
L 283.529287 -50.112 
L 283.154831 -50.112 
L 282.780375 -50.112 
L 282.405919 -50.112 
L 282.031463 -50.112 
L 281.657007 -50.112 
L 281.282551 -50.112 
L 280.908095 -50.112 
L 280.533639 -50.112 
L 280.159183 -50.112 
L 279.784727 -50.112 
L 279.410271 -50.112 
L 279.035815 -50.112 
L 278.661359 -50.112 
L 278.286903 -50.112 
L 277.912447 -50.112 
L 277.537991 -50.112 
L 277.163535 -50.112 
L 276.789079 -50.112 
L 276.414623 -50.112 
L 276.040167 -50.112 
L 275.665711 -50.112 
L 275.291255 -50.112 
L 274.916799 -50.112 
L 274.542343 -50.112 
L 274.167887 -50.112 
L 273.793431 -50.112 
L 273.418975 -50.112 
L 273.044519 -50.112 
L 272.670063 -50.112 
L 272.295607 -50.112 
L 271.921151 -50.112 
L 271.546695 -50.112 
L 271.172239 -50.112 
L 270.797783 -50.112 
L 270.423327 -50.112 
L 270.048872 -50.112 
L 269.674416 -50.112 
L 269.29996 -50.112 
L 268.925504 -50.112 
L 268.551048 -50.112 
L 268.176592 -50.112 
L 267.802136 -50.112 
L 267.42768 -50.112 
L 267.053224 -50.112 
L 266.678768 -50.112 
L 266.304312 -50.112 
L 265.929856 -50.112 
L 265.5554 -50.112 
L 265.180944 -50.112 
L 264.806488 -50.112 
L 264.432032 -50.112 
L 264.057576 -50.112 
L 263.68312 -50.112 
L 263.308664 -50.112 
L 262.934208 -50.112 
L 262.559752 -50.112 
L 262.185296 -50.112 
L 261.81084 -50.112 
L 261.436384 -50.112 
L 261.061928 -50.112 
L 260.687472 -50.112 
L 260.313016 -50.112 
L 259.93856 -50.112 
L 259.564104 -50.112 
L 259.189648 -50.112 
L 258.815192 -50.112 
L 258.440736 -50.112 
L 258.06628 -50.112 
L 257.691824 -50.112 
L 257.317368 -50.112 
L 256.942912 -50.112 
L 256.568456 -50.112 
L 256.194 -50.112 
L 255.819544 -50.112 
L 255.445088 -50.112 
L 255.070632 -50.112 
L 254.696176 -50.112 
L 254.32172 -50.112 
L 253.947264 -50.112 
L 253.572808 -50.112 
L 253.198352 -50.112 
L 252.823896 -50.112 
L 252.44944 -50.112 
L 252.074984 -50.112 
L 251.700528 -50.112 
L 251.326072 -50.112 
L 250.951617 -50.112 
L 250.577161 -50.112 
L 250.202705 -50.112 
L 249.828249 -50.112 
L 249.453793 -50.112 
L 249.079337 -50.112 
L 248.704881 -50.112 
L 248.330425 -50.112 
L 247.955969 -50.112 
L 247.581513 -50.112 
L 247.207057 -50.112 
L 246.832601 -50.112 
L 246.458145 -50.112 
L 246.083689 -50.112 
L 245.709233 -50.112 
L 245.334777 -50.112 
L 244.960321 -50.112 
L 244.585865 -50.112 
L 244.211409 -50.112 
L 243.836953 -50.112 
L 243.462497 -50.112 
L 243.088041 -50.112 
L 242.713585 -50.112 
L 242.339129 -50.112 
L 241.964673 -50.112 
L 241.590217 -50.112 
L 241.215761 -50.112 
L 240.841305 -50.112 
L 240.466849 -50.112 
L 240.092393 -50.112 
L 239.717937 -50.112 
L 239.343481 -50.112 
L 238.969025 -50.112 
L 238.594569 -50.112 
L 238.220113 -50.112 
L 237.845657 -50.112 
L 237.471201 -50.112 
L 237.096745 -50.112 
L 236.722289 -50.112 
L 236.347833 -50.112 
L 235.973377 -50.112 
L 235.598921 -50.112 
L 235.224465 -50.112 
L 234.850009 -50.112 
L 234.475553 -50.112 
L 234.101097 -50.112 
L 233.726641 -50.112 
L 233.352185 -50.112 
L 232.977729 -50.112 
L 232.603273 -50.112 
L 232.228817 -50.112 
L 231.854362 -50.112 
L 231.479906 -50.112 
L 231.10545 -50.112 
L 230.730994 -50.112 
L 230.356538 -50.112 
L 229.982082 -50.112 
L 229.607626 -50.112 
L 229.23317 -50.112 
L 228.858714 -50.112 
L 228.484258 -50.112 
L 228.109802 -50.112 
L 227.735346 -50.112 
L 227.36089 -50.112 
L 226.986434 -50.112 
L 226.611978 -50.112 
L 226.237522 -50.112 
L 225.863066 -50.112 
L 225.48861 -50.112 
L 225.114154 -50.112 
L 224.739698 -50.112 
L 224.365242 -50.112 
L 223.990786 -50.112 
L 223.61633 -50.112 
L 223.241874 -50.112 
L 222.867418 -50.112 
L 222.492962 -50.112 
L 222.118506 -50.112 
L 221.74405 -50.112 
L 221.369594 -50.112 
L 220.995138 -50.112 
L 220.620682 -50.112 
L 220.246226 -50.112 
L 219.87177 -50.112 
L 219.497314 -50.112 
L 219.122858 -50.112 
L 218.748402 -50.112 
L 218.373946 -50.112 
L 217.99949 -50.112 
L 217.625034 -50.112 
L 217.250578 -50.112 
L 216.876122 -50.112 
L 216.501666 -50.112 
L 216.12721 -50.112 
L 215.752754 -50.112 
L 215.378298 -50.112 
L 215.003842 -50.112 
L 214.629386 -50.112 
L 214.25493 -50.112 
L 213.880474 -50.112 
L 213.506018 -50.112 
L 213.131563 -50.112 
L 212.757107 -50.112 
L 212.382651 -50.112 
L 212.008195 -50.112 
L 211.633739 -50.112 
L 211.259283 -50.112 
L 210.884827 -50.112 
L 210.510371 -50.112 
L 210.135915 -50.112 
L 209.761459 -50.112 
L 209.387003 -50.112 
L 209.012547 -50.112 
L 208.638091 -50.112 
L 208.263635 -50.112 
L 207.889179 -50.112 
L 207.514723 -50.112 
L 207.140267 -50.112 
z
" style="stroke: #1f77b4; stroke-opacity: 0"/>
    </defs>
    <g clip-path="url(#pfd9e7c5a18)">
     <use xlink:href="#mcd82dd7e17" x="0" y="345.6" style="fill: #1f77b4; fill-opacity: 0; stroke: #1f77b4; stroke-opacity: 0"/>
    </g>
   </g>
   <g id="matplotlib.axis_1">
    <g id="xtick_1">
     <g id="line2d_2">
      <defs>
       <path id="mbc71108957" d="M 0 0 
L 0 3 
" style="stroke: #808080"/>
      </defs>
      <g>
       <use xlink:href="#mbc71108957" x="63.863312" y="307.584" style="fill: #808080; stroke: #808080"/>
      </g>
     </g>
     <g id="text_1">
      <!-- −0.25 -->
      <g transform="translate(42.411594 324.721812) scale(0.14 -0.14)">
       <defs>
        <path id="DejaVuSans-2212" d="M 678 2272 
L 4684 2272 
L 4684 1741 
L 678 1741 
L 678 2272 
z
" transform="scale(0.015625)"/>
        <path id="DejaVuSans-30" d="M 2034 4250 
Q 1547 4250 1301 3770 
Q 1056 3291 1056 2328 
Q 1056 1369 1301 889 
Q 1547 409 2034 409 
Q 2525 409 2770 889 
Q 3016 1369 3016 2328 
Q 3016 3291 2770 3770 
Q 2525 4250 2034 4250 
z
M 2034 4750 
Q 2819 4750 3233 4129 
Q 3647 3509 3647 2328 
Q 3647 1150 3233 529 
Q 2819 -91 2034 -91 
Q 1250 -91 836 529 
Q 422 1150 422 2328 
Q 422 3509 836 4129 
Q 1250 4750 2034 4750 
z
" transform="scale(0.015625)"/>
        <path id="DejaVuSans-2e" d="M 684 794 
L 1344 794 
L 1344 0 
L 684 0 
L 684 794 
z
" transform="scale(0.015625)"/>
        <path id="DejaVuSans-32" d="M 1228 531 
L 3431 531 
L 3431 0 
L 469 0 
L 469 531 
Q 828 903 1448 1529 
Q 2069 2156 2228 2338 
Q 2531 2678 2651 2914 
Q 2772 3150 2772 3378 
Q 2772 3750 2511 3984 
Q 2250 4219 1831 4219 
Q 1534 4219 1204 4116 
Q 875 4013 500 3803 
L 500 4441 
Q 881 4594 1212 4672 
Q 1544 4750 1819 4750 
Q 2544 4750 2975 4387 
Q 3406 4025 3406 3419 
Q 3406 3131 3298 2873 
Q 3191 2616 2906 2266 
Q 2828 2175 2409 1742 
Q 1991 1309 1228 531 
z
" transform="scale(0.015625)"/>
        <path id="DejaVuSans-35" d="M 691 4666 
L 3169 4666 
L 3169 4134 
L 1269 4134 
L 1269 2991 
Q 1406 3038 1543 3061 
Q 1681 3084 1819 3084 
Q 2600 3084 3056 2656 
Q 3513 2228 3513 1497 
Q 3513 744 3044 326 
Q 2575 -91 1722 -91 
Q 1428 -91 1123 -41 
Q 819 9 494 109 
L 494 744 
Q 775 591 1075 516 
Q 1375 441 1709 441 
Q 2250 441 2565 725 
Q 2881 1009 2881 1497 
Q 2881 1984 2565 2268 
Q 2250 2553 1709 2553 
Q 1456 2553 1204 2497 
Q 953 2441 691 2322 
L 691 4666 
z
" transform="scale(0.015625)"/>
       </defs>
       <use xlink:href="#DejaVuSans-2212"/>
       <use xlink:href="#DejaVuSans-30" x="83.789062"/>
       <use xlink:href="#DejaVuSans-2e" x="147.412109"/>
       <use xlink:href="#DejaVuSans-32" x="179.199219"/>
       <use xlink:href="#DejaVuSans-35" x="242.822266"/>
      </g>
     </g>
    </g>
    <g id="xtick_2">
     <g id="line2d_3">
      <g>
       <use xlink:href="#mbc71108957" x="113.710387" y="307.584" style="fill: #808080; stroke: #808080"/>
      </g>
     </g>
     <g id="text_2">
      <!-- 0.00 -->
      <g transform="translate(98.12445 324.721812) scale(0.14 -0.14)">
       <use xlink:href="#DejaVuSans-30"/>
       <use xlink:href="#DejaVuSans-2e" x="63.623047"/>
       <use xlink:href="#DejaVuSans-30" x="95.410156"/>
       <use xlink:href="#DejaVuSans-30" x="159.033203"/>
      </g>
     </g>
    </g>
    <g id="xtick_3">
     <g id="line2d_4">
      <g>
       <use xlink:href="#mbc71108957" x="163.557462" y="307.584" style="fill: #808080; stroke: #808080"/>
      </g>
     </g>
     <g id="text_3">
      <!-- 0.25 -->
      <g transform="translate(147.971525 324.721812) scale(0.14 -0.14)">
       <use xlink:href="#DejaVuSans-30"/>
       <use xlink:href="#DejaVuSans-2e" x="63.623047"/>
       <use xlink:href="#DejaVuSans-32" x="95.410156"/>
       <use xlink:href="#DejaVuSans-35" x="159.033203"/>
      </g>
     </g>
    </g>
    <g id="xtick_4">
     <g id="line2d_5">
      <g>
       <use xlink:href="#mbc71108957" x="213.404537" y="307.584" style="fill: #808080; stroke: #808080"/>
      </g>
     </g>
     <g id="text_4">
      <!-- 0.50 -->
      <g transform="translate(197.818599 324.721812) scale(0.14 -0.14)">
       <use xlink:href="#DejaVuSans-30"/>
       <use xlink:href="#DejaVuSans-2e" x="63.623047"/>
       <use xlink:href="#DejaVuSans-35" x="95.410156"/>
       <use xlink:href="#DejaVuSans-30" x="159.033203"/>
      </g>
     </g>
    </g>
    <g id="xtick_5">
     <g id="line2d_6">
      <g>
       <use xlink:href="#mbc71108957" x="263.251612" y="307.584" style="fill: #808080; stroke: #808080"/>
      </g>
     </g>
     <g id="text_5">
      <!-- 0.75 -->
      <g transform="translate(247.665674 324.721812) scale(0.14 -0.14)">
       <defs>
        <path id="DejaVuSans-37" d="M 525 4666 
L 3525 4666 
L 3525 4397 
L 1831 0 
L 1172 0 
L 2766 4134 
L 525 4134 
L 525 4666 
z
" transform="scale(0.015625)"/>
       </defs>
       <use xlink:href="#DejaVuSans-30"/>
       <use xlink:href="#DejaVuSans-2e" x="63.623047"/>
       <use xlink:href="#DejaVuSans-37" x="95.410156"/>
       <use xlink:href="#DejaVuSans-35" x="159.033203"/>
      </g>
     </g>
    </g>
    <g id="xtick_6">
     <g id="line2d_7">
      <g>
       <use xlink:href="#mbc71108957" x="313.098687" y="307.584" style="fill: #808080; stroke: #808080"/>
      </g>
     </g>
     <g id="text_6">
      <!-- 1.00 -->
      <g transform="translate(297.512749 324.721812) scale(0.14 -0.14)">
       <defs>
        <path id="DejaVuSans-31" d="M 794 531 
L 1825 531 
L 1825 4091 
L 703 3866 
L 703 4441 
L 1819 4666 
L 2450 4666 
L 2450 531 
L 3481 531 
L 3481 0 
L 794 0 
L 794 531 
z
" transform="scale(0.015625)"/>
       </defs>
       <use xlink:href="#DejaVuSans-31"/>
       <use xlink:href="#DejaVuSans-2e" x="63.623047"/>
       <use xlink:href="#DejaVuSans-30" x="95.410156"/>
       <use xlink:href="#DejaVuSans-30" x="159.033203"/>
      </g>
     </g>
    </g>
    <g id="xtick_7">
     <g id="line2d_8">
      <g>
       <use xlink:href="#mbc71108957" x="362.945762" y="307.584" style="fill: #808080; stroke: #808080"/>
      </g>
     </g>
     <g id="text_7">
      <!-- 1.25 -->
      <g transform="translate(347.359824 324.721812) scale(0.14 -0.14)">
       <use xlink:href="#DejaVuSans-31"/>
       <use xlink:href="#DejaVuSans-2e" x="63.623047"/>
       <use xlink:href="#DejaVuSans-32" x="95.410156"/>
       <use xlink:href="#DejaVuSans-35" x="159.033203"/>
      </g>
     </g>
    </g>
    <g id="xtick_8">
     <g id="line2d_9">
      <g>
       <use xlink:href="#mbc71108957" x="412.792836" y="307.584" style="fill: #808080; stroke: #808080"/>
      </g>
     </g>
     <g id="text_8">
      <!-- 1.50 -->
      <g transform="translate(397.206899 324.721812) scale(0.14 -0.14)">
       <use xlink:href="#DejaVuSans-31"/>
       <use xlink:href="#DejaVuSans-2e" x="63.623047"/>
       <use xlink:href="#DejaVuSans-35" x="95.410156"/>
       <use xlink:href="#DejaVuSans-30" x="159.033203"/>
      </g>
     </g>
    </g>
   </g>
   <g id="matplotlib.axis_2"/>
   <g id="line2d_10">
    <path d="M 207.140267 295.471873 
L 218.748402 295.394393 
L 228.484258 295.130793 
L 230.730994 294.921852 
L 236.722289 293.828589 
L 238.969025 293.247413 
L 241.590217 292.322657 
L 243.088041 291.562871 
L 244.585865 290.460783 
L 249.453793 286.259417 
L 250.951617 284.490317 
L 252.823896 281.929365 
L 253.947264 280.083027 
L 255.070632 277.755909 
L 256.568456 273.942013 
L 261.436384 260.26395 
L 263.308664 253.897436 
L 264.432032 249.428396 
L 265.929856 242.432104 
L 271.172239 216.036104 
L 273.793431 200.846768 
L 275.665711 187.952965 
L 282.031463 143.971844 
L 284.278199 128.917044 
L 289.520582 90.998749 
L 291.392862 80.114287 
L 292.51623 74.626265 
L 293.265142 71.727421 
L 294.38851 68.313195 
L 296.26079 62.762798 
L 297.758614 58.400038 
L 298.881982 55.879224 
L 299.630894 54.57078 
L 300.379806 53.742476 
L 300.754262 53.572106 
L 301.128718 53.568 
L 301.503174 53.707608 
L 302.252086 54.309048 
L 304.498822 56.54369 
L 305.247734 57.710111 
L 305.996646 59.345717 
L 307.120014 62.565938 
L 309.741205 71.234536 
L 311.239029 76.782841 
L 312.362397 81.8878 
L 313.485765 88.182419 
L 316.481413 107.517084 
L 318.353693 120.338743 
L 321.349341 141.335725 
L 327.715092 186.177912 
L 331.085196 207.069454 
L 334.080844 224.527791 
L 335.953124 234.233185 
L 338.19986 244.516588 
L 340.446596 253.739353 
L 342.693332 261.911324 
L 344.191156 266.673743 
L 346.063435 271.843295 
L 347.561259 275.304634 
L 350.182451 280.372088 
L 351.305819 282.297426 
L 352.803643 284.339976 
L 355.799291 287.900902 
L 357.297115 289.213923 
L 359.169395 290.505148 
L 361.416131 291.700871 
L 364.786235 293.295161 
L 366.284058 293.752668 
L 371.900898 294.879892 
L 374.52209 295.097088 
L 378.641106 295.233271 
L 389.500329 295.463946 
L 398.487273 295.471451 
L 398.487273 295.471451 
" clip-path="url(#pfd9e7c5a18)" style="fill: none; stroke: #1f77b4; stroke-width: 1.5; stroke-linecap: square"/>
   </g>
   <g id="line2d_11">
    <path d="M 249.256405 290.40768 
L 354.797176 290.40768 
" clip-path="url(#pfd9e7c5a18)" style="fill: none; stroke: #000000; stroke-width: 3"/>
   </g>
   <g id="patch_3">
    <path d="M 57.6 307.584 
L 414.72 307.584 
" style="fill: none; stroke: #808080; stroke-width: 0.8; stroke-linejoin: miter; stroke-linecap: square"/>
   </g>
   <g id="text_9">
    <!-- 0.68  -->
    <g transform="translate(211.09078 277.70688) scale(0.15 -0.15)">
     <defs>
      <path id="DejaVuSans-36" d="M 2113 2584 
Q 1688 2584 1439 2293 
Q 1191 2003 1191 1497 
Q 1191 994 1439 701 
Q 1688 409 2113 409 
Q 2538 409 2786 701 
Q 3034 994 3034 1497 
Q 3034 2003 2786 2293 
Q 2538 2584 2113 2584 
z
M 3366 4563 
L 3366 3988 
Q 3128 4100 2886 4159 
Q 2644 4219 2406 4219 
Q 1781 4219 1451 3797 
Q 1122 3375 1075 2522 
Q 1259 2794 1537 2939 
Q 1816 3084 2150 3084 
Q 2853 3084 3261 2657 
Q 3669 2231 3669 1497 
Q 3669 778 3244 343 
Q 2819 -91 2113 -91 
Q 1303 -91 875 529 
Q 447 1150 447 2328 
Q 447 3434 972 4092 
Q 1497 4750 2381 4750 
Q 2619 4750 2861 4703 
Q 3103 4656 3366 4563 
z
" transform="scale(0.015625)"/>
      <path id="DejaVuSans-38" d="M 2034 2216 
Q 1584 2216 1326 1975 
Q 1069 1734 1069 1313 
Q 1069 891 1326 650 
Q 1584 409 2034 409 
Q 2484 409 2743 651 
Q 3003 894 3003 1313 
Q 3003 1734 2745 1975 
Q 2488 2216 2034 2216 
z
M 1403 2484 
Q 997 2584 770 2862 
Q 544 3141 544 3541 
Q 544 4100 942 4425 
Q 1341 4750 2034 4750 
Q 2731 4750 3128 4425 
Q 3525 4100 3525 3541 
Q 3525 3141 3298 2862 
Q 3072 2584 2669 2484 
Q 3125 2378 3379 2068 
Q 3634 1759 3634 1313 
Q 3634 634 3220 271 
Q 2806 -91 2034 -91 
Q 1263 -91 848 271 
Q 434 634 434 1313 
Q 434 1759 690 2068 
Q 947 2378 1403 2484 
z
M 1172 3481 
Q 1172 3119 1398 2916 
Q 1625 2713 2034 2713 
Q 2441 2713 2670 2916 
Q 2900 3119 2900 3481 
Q 2900 3844 2670 4047 
Q 2441 4250 2034 4250 
Q 1625 4250 1398 4047 
Q 1172 3844 1172 3481 
z
" transform="scale(0.015625)"/>
      <path id="DejaVuSans-20" transform="scale(0.015625)"/>
     </defs>
     <use xlink:href="#DejaVuSans-30"/>
     <use xlink:href="#DejaVuSans-2e" x="63.623047"/>
     <use xlink:href="#DejaVuSans-36" x="95.410156"/>
     <use xlink:href="#DejaVuSans-38" x="159.033203"/>
     <use xlink:href="#DejaVuSans-20" x="222.65625"/>
    </g>
   </g>
   <g id="text_10">
    <!--  1.2 -->
    <g transform="translate(354.797176 277.70688) scale(0.15 -0.15)">
     <use xlink:href="#DejaVuSans-20"/>
     <use xlink:href="#DejaVuSans-31" x="31.787109"/>
     <use xlink:href="#DejaVuSans-2e" x="95.410156"/>
     <use xlink:href="#DejaVuSans-32" x="127.197266"/>
    </g>
   </g>
   <g id="text_11">
    <!-- 99% HDI -->
    <g transform="translate(269.34554 219.2832) scale(0.15 -0.15)">
     <defs>
      <path id="DejaVuSans-39" d="M 703 97 
L 703 672 
Q 941 559 1184 500 
Q 1428 441 1663 441 
Q 2288 441 2617 861 
Q 2947 1281 2994 2138 
Q 2813 1869 2534 1725 
Q 2256 1581 1919 1581 
Q 1219 1581 811 2004 
Q 403 2428 403 3163 
Q 403 3881 828 4315 
Q 1253 4750 1959 4750 
Q 2769 4750 3195 4129 
Q 3622 3509 3622 2328 
Q 3622 1225 3098 567 
Q 2575 -91 1691 -91 
Q 1453 -91 1209 -44 
Q 966 3 703 97 
z
M 1959 2075 
Q 2384 2075 2632 2365 
Q 2881 2656 2881 3163 
Q 2881 3666 2632 3958 
Q 2384 4250 1959 4250 
Q 1534 4250 1286 3958 
Q 1038 3666 1038 3163 
Q 1038 2656 1286 2365 
Q 1534 2075 1959 2075 
z
" transform="scale(0.015625)"/>
      <path id="DejaVuSans-25" d="M 4653 2053 
Q 4381 2053 4226 1822 
Q 4072 1591 4072 1178 
Q 4072 772 4226 539 
Q 4381 306 4653 306 
Q 4919 306 5073 539 
Q 5228 772 5228 1178 
Q 5228 1588 5073 1820 
Q 4919 2053 4653 2053 
z
M 4653 2450 
Q 5147 2450 5437 2106 
Q 5728 1763 5728 1178 
Q 5728 594 5436 251 
Q 5144 -91 4653 -91 
Q 4153 -91 3862 251 
Q 3572 594 3572 1178 
Q 3572 1766 3864 2108 
Q 4156 2450 4653 2450 
z
M 1428 4353 
Q 1159 4353 1004 4120 
Q 850 3888 850 3481 
Q 850 3069 1003 2837 
Q 1156 2606 1428 2606 
Q 1700 2606 1854 2837 
Q 2009 3069 2009 3481 
Q 2009 3884 1853 4118 
Q 1697 4353 1428 4353 
z
M 4250 4750 
L 4750 4750 
L 1831 -91 
L 1331 -91 
L 4250 4750 
z
M 1428 4750 
Q 1922 4750 2215 4408 
Q 2509 4066 2509 3481 
Q 2509 2891 2217 2550 
Q 1925 2209 1428 2209 
Q 931 2209 642 2551 
Q 353 2894 353 3481 
Q 353 4063 643 4406 
Q 934 4750 1428 4750 
z
" transform="scale(0.015625)"/>
      <path id="DejaVuSans-48" d="M 628 4666 
L 1259 4666 
L 1259 2753 
L 3553 2753 
L 3553 4666 
L 4184 4666 
L 4184 0 
L 3553 0 
L 3553 2222 
L 1259 2222 
L 1259 0 
L 628 0 
L 628 4666 
z
" transform="scale(0.015625)"/>
      <path id="DejaVuSans-44" d="M 1259 4147 
L 1259 519 
L 2022 519 
Q 2988 519 3436 956 
Q 3884 1394 3884 2338 
Q 3884 3275 3436 3711 
Q 2988 4147 2022 4147 
L 1259 4147 
z
M 628 4666 
L 1925 4666 
Q 3281 4666 3915 4102 
Q 4550 3538 4550 2338 
Q 4550 1131 3912 565 
Q 3275 0 1925 0 
L 628 0 
L 628 4666 
z
" transform="scale(0.015625)"/>
      <path id="DejaVuSans-49" d="M 628 4666 
L 1259 4666 
L 1259 0 
L 628 0 
L 628 4666 
z
" transform="scale(0.015625)"/>
     </defs>
     <use xlink:href="#DejaVuSans-39"/>
     <use xlink:href="#DejaVuSans-39" x="63.623047"/>
     <use xlink:href="#DejaVuSans-25" x="127.246094"/>
     <use xlink:href="#DejaVuSans-20" x="222.265625"/>
     <use xlink:href="#DejaVuSans-48" x="254.052734"/>
     <use xlink:href="#DejaVuSans-44" x="329.248047"/>
     <use xlink:href="#DejaVuSans-49" x="406.25"/>
    </g>
   </g>
   <g id="text_12">
    <!-- mean=0.94 -->
    <g transform="translate(257.580055 92.2752) scale(0.15 -0.15)">
     <defs>
      <path id="DejaVuSans-6d" d="M 3328 2828 
Q 3544 3216 3844 3400 
Q 4144 3584 4550 3584 
Q 5097 3584 5394 3201 
Q 5691 2819 5691 2113 
L 5691 0 
L 5113 0 
L 5113 2094 
Q 5113 2597 4934 2840 
Q 4756 3084 4391 3084 
Q 3944 3084 3684 2787 
Q 3425 2491 3425 1978 
L 3425 0 
L 2847 0 
L 2847 2094 
Q 2847 2600 2669 2842 
Q 2491 3084 2119 3084 
Q 1678 3084 1418 2786 
Q 1159 2488 1159 1978 
L 1159 0 
L 581 0 
L 581 3500 
L 1159 3500 
L 1159 2956 
Q 1356 3278 1631 3431 
Q 1906 3584 2284 3584 
Q 2666 3584 2933 3390 
Q 3200 3197 3328 2828 
z
" transform="scale(0.015625)"/>
      <path id="DejaVuSans-65" d="M 3597 1894 
L 3597 1613 
L 953 1613 
Q 991 1019 1311 708 
Q 1631 397 2203 397 
Q 2534 397 2845 478 
Q 3156 559 3463 722 
L 3463 178 
Q 3153 47 2828 -22 
Q 2503 -91 2169 -91 
Q 1331 -91 842 396 
Q 353 884 353 1716 
Q 353 2575 817 3079 
Q 1281 3584 2069 3584 
Q 2775 3584 3186 3129 
Q 3597 2675 3597 1894 
z
M 3022 2063 
Q 3016 2534 2758 2815 
Q 2500 3097 2075 3097 
Q 1594 3097 1305 2825 
Q 1016 2553 972 2059 
L 3022 2063 
z
" transform="scale(0.015625)"/>
      <path id="DejaVuSans-61" d="M 2194 1759 
Q 1497 1759 1228 1600 
Q 959 1441 959 1056 
Q 959 750 1161 570 
Q 1363 391 1709 391 
Q 2188 391 2477 730 
Q 2766 1069 2766 1631 
L 2766 1759 
L 2194 1759 
z
M 3341 1997 
L 3341 0 
L 2766 0 
L 2766 531 
Q 2569 213 2275 61 
Q 1981 -91 1556 -91 
Q 1019 -91 701 211 
Q 384 513 384 1019 
Q 384 1609 779 1909 
Q 1175 2209 1959 2209 
L 2766 2209 
L 2766 2266 
Q 2766 2663 2505 2880 
Q 2244 3097 1772 3097 
Q 1472 3097 1187 3025 
Q 903 2953 641 2809 
L 641 3341 
Q 956 3463 1253 3523 
Q 1550 3584 1831 3584 
Q 2591 3584 2966 3190 
Q 3341 2797 3341 1997 
z
" transform="scale(0.015625)"/>
      <path id="DejaVuSans-6e" d="M 3513 2113 
L 3513 0 
L 2938 0 
L 2938 2094 
Q 2938 2591 2744 2837 
Q 2550 3084 2163 3084 
Q 1697 3084 1428 2787 
Q 1159 2491 1159 1978 
L 1159 0 
L 581 0 
L 581 3500 
L 1159 3500 
L 1159 2956 
Q 1366 3272 1645 3428 
Q 1925 3584 2291 3584 
Q 2894 3584 3203 3211 
Q 3513 2838 3513 2113 
z
" transform="scale(0.015625)"/>
      <path id="DejaVuSans-3d" d="M 678 2906 
L 4684 2906 
L 4684 2381 
L 678 2381 
L 678 2906 
z
M 678 1631 
L 4684 1631 
L 4684 1100 
L 678 1100 
L 678 1631 
z
" transform="scale(0.015625)"/>
      <path id="DejaVuSans-34" d="M 2419 4116 
L 825 1625 
L 2419 1625 
L 2419 4116 
z
M 2253 4666 
L 3047 4666 
L 3047 1625 
L 3713 1625 
L 3713 1100 
L 3047 1100 
L 3047 0 
L 2419 0 
L 2419 1100 
L 313 1100 
L 313 1709 
L 2253 4666 
z
" transform="scale(0.015625)"/>
     </defs>
     <use xlink:href="#DejaVuSans-6d"/>
     <use xlink:href="#DejaVuSans-65" x="97.412109"/>
     <use xlink:href="#DejaVuSans-61" x="158.935547"/>
     <use xlink:href="#DejaVuSans-6e" x="220.214844"/>
     <use xlink:href="#DejaVuSans-3d" x="283.59375"/>
     <use xlink:href="#DejaVuSans-30" x="367.382812"/>
     <use xlink:href="#DejaVuSans-2e" x="431.005859"/>
     <use xlink:href="#DejaVuSans-39" x="462.792969"/>
     <use xlink:href="#DejaVuSans-34" x="526.416016"/>
    </g>
   </g>
   <g id="text_13">
    <!-- 0.0% in ROPE -->
    <g style="fill: #2ca02c" transform="translate(245.128883 181.1808) scale(0.15 -0.15)">
     <defs>
      <path id="DejaVuSans-Bold-30" d="M 2944 2338 
Q 2944 3213 2780 3570 
Q 2616 3928 2228 3928 
Q 1841 3928 1675 3570 
Q 1509 3213 1509 2338 
Q 1509 1453 1675 1090 
Q 1841 728 2228 728 
Q 2613 728 2778 1090 
Q 2944 1453 2944 2338 
z
M 4147 2328 
Q 4147 1169 3647 539 
Q 3147 -91 2228 -91 
Q 1306 -91 806 539 
Q 306 1169 306 2328 
Q 306 3491 806 4120 
Q 1306 4750 2228 4750 
Q 3147 4750 3647 4120 
Q 4147 3491 4147 2328 
z
" transform="scale(0.015625)"/>
      <path id="DejaVuSans-Bold-2e" d="M 653 1209 
L 1778 1209 
L 1778 0 
L 653 0 
L 653 1209 
z
" transform="scale(0.015625)"/>
      <path id="DejaVuSans-Bold-25" d="M 4959 1925 
Q 4738 1925 4616 1733 
Q 4494 1541 4494 1184 
Q 4494 825 4614 633 
Q 4734 441 4959 441 
Q 5184 441 5303 633 
Q 5422 825 5422 1184 
Q 5422 1541 5301 1733 
Q 5181 1925 4959 1925 
z
M 4959 2450 
Q 5541 2450 5875 2112 
Q 6209 1775 6209 1184 
Q 6209 594 5875 251 
Q 5541 -91 4959 -91 
Q 4378 -91 4042 251 
Q 3706 594 3706 1184 
Q 3706 1772 4042 2111 
Q 4378 2450 4959 2450 
z
M 2094 -91 
L 1403 -91 
L 4319 4750 
L 5013 4750 
L 2094 -91 
z
M 1453 4750 
Q 2034 4750 2367 4411 
Q 2700 4072 2700 3481 
Q 2700 2891 2367 2550 
Q 2034 2209 1453 2209 
Q 872 2209 539 2550 
Q 206 2891 206 3481 
Q 206 4072 539 4411 
Q 872 4750 1453 4750 
z
M 1453 4225 
Q 1228 4225 1106 4031 
Q 984 3838 984 3481 
Q 984 3122 1106 2926 
Q 1228 2731 1453 2731 
Q 1678 2731 1798 2926 
Q 1919 3122 1919 3481 
Q 1919 3838 1797 4031 
Q 1675 4225 1453 4225 
z
" transform="scale(0.015625)"/>
      <path id="DejaVuSans-Bold-20" transform="scale(0.015625)"/>
      <path id="DejaVuSans-Bold-69" d="M 538 3500 
L 1656 3500 
L 1656 0 
L 538 0 
L 538 3500 
z
M 538 4863 
L 1656 4863 
L 1656 3950 
L 538 3950 
L 538 4863 
z
" transform="scale(0.015625)"/>
      <path id="DejaVuSans-Bold-6e" d="M 4056 2131 
L 4056 0 
L 2931 0 
L 2931 347 
L 2931 1631 
Q 2931 2084 2911 2256 
Q 2891 2428 2841 2509 
Q 2775 2619 2662 2680 
Q 2550 2741 2406 2741 
Q 2056 2741 1856 2470 
Q 1656 2200 1656 1722 
L 1656 0 
L 538 0 
L 538 3500 
L 1656 3500 
L 1656 2988 
Q 1909 3294 2193 3439 
Q 2478 3584 2822 3584 
Q 3428 3584 3742 3212 
Q 4056 2841 4056 2131 
z
" transform="scale(0.015625)"/>
      <path id="DejaVuSans-Bold-52" d="M 2297 2597 
Q 2675 2597 2839 2737 
Q 3003 2878 3003 3200 
Q 3003 3519 2839 3656 
Q 2675 3794 2297 3794 
L 1791 3794 
L 1791 2597 
L 2297 2597 
z
M 1791 1766 
L 1791 0 
L 588 0 
L 588 4666 
L 2425 4666 
Q 3347 4666 3776 4356 
Q 4206 4047 4206 3378 
Q 4206 2916 3982 2619 
Q 3759 2322 3309 2181 
Q 3556 2125 3751 1926 
Q 3947 1728 4147 1325 
L 4800 0 
L 3519 0 
L 2950 1159 
Q 2778 1509 2601 1637 
Q 2425 1766 2131 1766 
L 1791 1766 
z
" transform="scale(0.015625)"/>
      <path id="DejaVuSans-Bold-4f" d="M 2719 3878 
Q 2169 3878 1866 3472 
Q 1563 3066 1563 2328 
Q 1563 1594 1866 1187 
Q 2169 781 2719 781 
Q 3272 781 3575 1187 
Q 3878 1594 3878 2328 
Q 3878 3066 3575 3472 
Q 3272 3878 2719 3878 
z
M 2719 4750 
Q 3844 4750 4481 4106 
Q 5119 3463 5119 2328 
Q 5119 1197 4481 553 
Q 3844 -91 2719 -91 
Q 1597 -91 958 553 
Q 319 1197 319 2328 
Q 319 3463 958 4106 
Q 1597 4750 2719 4750 
z
" transform="scale(0.015625)"/>
      <path id="DejaVuSans-Bold-50" d="M 588 4666 
L 2584 4666 
Q 3475 4666 3951 4270 
Q 4428 3875 4428 3144 
Q 4428 2409 3951 2014 
Q 3475 1619 2584 1619 
L 1791 1619 
L 1791 0 
L 588 0 
L 588 4666 
z
M 1791 3794 
L 1791 2491 
L 2456 2491 
Q 2806 2491 2997 2661 
Q 3188 2831 3188 3144 
Q 3188 3456 2997 3625 
Q 2806 3794 2456 3794 
L 1791 3794 
z
" transform="scale(0.015625)"/>
      <path id="DejaVuSans-Bold-45" d="M 588 4666 
L 3834 4666 
L 3834 3756 
L 1791 3756 
L 1791 2888 
L 3713 2888 
L 3713 1978 
L 1791 1978 
L 1791 909 
L 3903 909 
L 3903 0 
L 588 0 
L 588 4666 
z
" transform="scale(0.015625)"/>
     </defs>
     <use xlink:href="#DejaVuSans-Bold-30"/>
     <use xlink:href="#DejaVuSans-Bold-2e" x="69.580078"/>
     <use xlink:href="#DejaVuSans-Bold-30" x="107.568359"/>
     <use xlink:href="#DejaVuSans-Bold-25" x="177.148438"/>
     <use xlink:href="#DejaVuSans-Bold-20" x="277.34375"/>
     <use xlink:href="#DejaVuSans-Bold-69" x="312.158203"/>
     <use xlink:href="#DejaVuSans-Bold-6e" x="346.435547"/>
     <use xlink:href="#DejaVuSans-Bold-20" x="417.626953"/>
     <use xlink:href="#DejaVuSans-Bold-52" x="452.441406"/>
     <use xlink:href="#DejaVuSans-Bold-4f" x="529.443359"/>
     <use xlink:href="#DejaVuSans-Bold-50" x="614.453125"/>
     <use xlink:href="#DejaVuSans-Bold-45" x="687.744141"/>
    </g>
   </g>
   <g id="text_14">
    <!-- -0.2 -->
    <g style="fill: #2ca02c" transform="translate(41.036634 244.6848) scale(0.15 -0.15)">
     <defs>
      <path id="DejaVuSans-Bold-2d" d="M 347 2297 
L 2309 2297 
L 2309 1388 
L 347 1388 
L 347 2297 
z
" transform="scale(0.015625)"/>
      <path id="DejaVuSans-Bold-32" d="M 1844 884 
L 3897 884 
L 3897 0 
L 506 0 
L 506 884 
L 2209 2388 
Q 2438 2594 2547 2791 
Q 2656 2988 2656 3200 
Q 2656 3528 2436 3728 
Q 2216 3928 1850 3928 
Q 1569 3928 1234 3808 
Q 900 3688 519 3450 
L 519 4475 
Q 925 4609 1322 4679 
Q 1719 4750 2100 4750 
Q 2938 4750 3402 4381 
Q 3866 4013 3866 3353 
Q 3866 2972 3669 2642 
Q 3472 2313 2841 1759 
L 1844 884 
z
" transform="scale(0.015625)"/>
     </defs>
     <use xlink:href="#DejaVuSans-Bold-2d"/>
     <use xlink:href="#DejaVuSans-Bold-30" x="41.503906"/>
     <use xlink:href="#DejaVuSans-Bold-2e" x="111.083984"/>
     <use xlink:href="#DejaVuSans-Bold-32" x="149.072266"/>
    </g>
   </g>
   <g id="text_15">
    <!-- 0.2 -->
    <g style="fill: #2ca02c" transform="translate(153.588047 244.6848) scale(0.15 -0.15)">
     <use xlink:href="#DejaVuSans-Bold-30"/>
     <use xlink:href="#DejaVuSans-Bold-2e" x="69.580078"/>
     <use xlink:href="#DejaVuSans-Bold-32" x="107.568359"/>
    </g>
   </g>
  </g>
 </g>
 <defs>
  <clipPath id="pfd9e7c5a18">
   <rect x="57.6" y="41.472" width="357.12" height="266.112"/>
  </clipPath>
 </defs>
</svg>
